<?xml version="1.0" encoding="UTF-8" standalone="no"?>
<!DOCTYPE svg PUBLIC "-//W3C//DTD SVG 1.1//EN" "http://www.w3.org/Graphics/SVG/1.1/DTD/svg11.dtd">
<svg width="100%" height="100%" viewBox="0 0 111 111" version="1.1" xmlns="http://www.w3.org/2000/svg" xmlns:xlink="http://www.w3.org/1999/xlink" xml:space="preserve" xmlns:serif="http://www.serif.com/" style="fill-rule:evenodd;clip-rule:evenodd;stroke-linejoin:round;stroke-miterlimit:2;">
    <g transform="matrix(0.24,0,0,0.24,-4.80982,-4.80982)">
        <g>
            <g transform="matrix(3.12689,0,0,3.12689,-703.674,-339.054)">
                <path d="M378.534,149.063C378.534,130.176 363.199,114.841 344.311,114.841L265.671,114.841C246.783,114.841 231.449,130.176 231.449,149.063L231.449,227.703C231.449,246.591 246.783,261.926 265.671,261.926L344.311,261.926C363.199,261.926 378.534,246.591 378.534,227.703L378.534,149.063Z" style="fill:rgb(62,103,124);"/>
            </g>
            <g transform="matrix(0.910315,0,0,0.810238,2.46471,49.5234)">
                <rect x="159.15" y="192.81" width="53.595" height="154.902" style="fill:rgb(210,210,212);"/>
            </g>
            <g transform="matrix(0.910315,0,0,0.810238,158.993,49.5234)">
                <rect x="159.15" y="192.81" width="53.595" height="154.902" style="fill:rgb(210,210,212);"/>
            </g>
            <g transform="matrix(0.910315,0,0,0.810238,80.729,49.5234)">
                <rect x="159.15" y="192.81" width="53.595" height="154.902" style="fill:rgb(210,210,212);"/>
            </g>
            <g transform="matrix(0.910315,0,0,0.06063,2.46471,194.056)">
                <rect x="159.15" y="192.81" width="53.595" height="154.902" style="fill:rgb(169,169,169);"/>
            </g>
            <g transform="matrix(0.910315,0,0,0.06063,158.993,194.056)">
                <rect x="159.15" y="192.81" width="53.595" height="154.902" style="fill:rgb(169,169,169);"/>
            </g>
            <g transform="matrix(0.910315,0,0,0.06063,80.729,194.056)">
                <rect x="159.15" y="192.81" width="53.595" height="154.902" style="fill:rgb(169,169,169);"/>
            </g>
            <g transform="matrix(1.03675,0,0,1.03675,-35.275,18.7246)">
                <path d="M145.318,162.821C146.079,159.783 147.877,156.987 150.617,155.017L266.521,91.699C269.131,89.822 272.18,88.995 275.163,89.134C278.147,88.995 281.196,89.822 283.806,91.699L399.624,154.955C401.947,156.626 403.593,158.889 404.503,161.391C405.181,163.016 405.556,164.798 405.556,166.667C405.556,174.242 399.405,180.392 391.83,180.392L158.497,180.392C150.921,180.392 144.771,174.242 144.771,166.667C144.771,165.332 144.962,164.041 145.318,162.821Z" style="fill:rgb(210,210,212);"/>
            </g>
            <g transform="matrix(1.03675,0,0,1.03675,-35.275,18.7246)">
                <circle cx="275.163" cy="134.756" r="19.136" style="fill:rgb(140,140,140);"/>
            </g>
            <g transform="matrix(0.905169,0,0,1.55512,5.07186,-178.969)">
                <path d="M400.98,324.444C400.98,322.497 398.263,320.915 394.917,320.915L146.26,320.915C142.913,320.915 140.196,322.497 140.196,324.444L140.196,340.915C140.196,342.863 142.913,344.444 146.26,344.444L394.917,344.444C398.263,344.444 400.98,342.863 400.98,340.915L400.98,324.444Z" style="fill:rgb(169,169,169);"/>
            </g>
            <g transform="matrix(1.03675,0,0,1.03675,-30.5317,11.7791)">
                <path d="M400.98,326.797C400.98,323.551 398.345,320.915 395.098,320.915L146.078,320.915C142.832,320.915 140.196,323.551 140.196,326.797L140.196,338.562C140.196,341.809 142.832,344.444 146.078,344.444L395.098,344.444C398.345,344.444 400.98,341.809 400.98,338.562L400.98,326.797Z" style="fill:rgb(140,140,140);"/>
            </g>
        </g>
    </g>
</svg>
