<?xml version="1.0" encoding="UTF-8" standalone="no"?>
<!DOCTYPE svg PUBLIC "-//W3C//DTD SVG 1.1//EN" "http://www.w3.org/Graphics/SVG/1.1/DTD/svg11.dtd">
<svg width="100%" height="100%" viewBox="0 0 500 500" version="1.1" xmlns="http://www.w3.org/2000/svg" xmlns:xlink="http://www.w3.org/1999/xlink" xml:space="preserve" xmlns:serif="http://www.serif.com/" style="fill-rule:evenodd;clip-rule:evenodd;stroke-linejoin:round;stroke-miterlimit:2;">
    <g>
        <g transform="matrix(3.12689,0,0,3.12689,-703.674,-339.054)">
            <path d="M378.534,149.063C378.534,130.176 363.199,114.841 344.311,114.841L265.671,114.841C246.783,114.841 231.449,130.176 231.449,149.063L231.449,227.703C231.449,246.591 246.783,261.926 265.671,261.926L344.311,261.926C363.199,261.926 378.534,246.591 378.534,227.703L378.534,149.063Z" style="fill:white;"/>
        </g>
        <g transform="matrix(0.439474,0,0,0.566763,152.435,231.759)">
            <ellipse cx="222.004" cy="204.743" rx="106" ry="28" style="fill:rgb(134,223,255);"/>
        </g>
        <g transform="matrix(0.767873,0,0,0.767873,58.0318,73.3544)">
            <path d="M346.194,149.576L153.806,149.576L189.333,357.409L310.667,357.409L346.194,149.576Z" style="fill:rgb(134,223,255);"/>
        </g>
        <g transform="matrix(0.389153,0,0,0.540914,163.607,230.864)">
            <ellipse cx="222.004" cy="204.743" rx="106" ry="28" style="fill:rgb(251,199,84);"/>
        </g>
        <g transform="matrix(0.696836,0,0,0.566763,95.3,72.1691)">
            <ellipse cx="222.004" cy="204.743" rx="106" ry="28" style="fill:rgb(115,166,184);"/>
        </g>
        <g transform="matrix(0.767873,0,0,0.767873,58.0318,73.3544)">
            <path d="M172.667,200.467L196.28,349.352L303.72,349.352L327.333,200.467L172.667,200.467Z" style="fill:rgb(251,199,84);"/>
        </g>
        <g transform="matrix(0.560209,0,0,0.540914,125.632,116.539)">
            <ellipse cx="222.004" cy="204.743" rx="106" ry="28" style="fill:rgb(212,170,76);"/>
        </g>
        <g transform="matrix(0.767873,0,0,0.767873,58.0318,73.3544)">
            <path d="M321.703,163.347L316.141,200.493L293.225,200.467L298.167,167.465C306.997,166.365 314.939,164.971 321.703,163.347Z" style="fill:rgb(252,95,107);fill-opacity:0.8;"/>
        </g>
        <g transform="matrix(0.767873,0,0,0.767873,58.0318,73.3544)">
            <path d="M310.24,86.843C310.703,83.75 313.59,81.615 316.683,82.078L327.892,83.756C330.985,84.22 333.12,87.107 332.657,90.2L321.703,163.347C314.939,164.971 306.997,166.365 298.167,167.465L293.225,200.467L310.24,86.843Z" style="fill:rgb(252,95,107);"/>
        </g>
    </g>
</svg>
