<?xml version="1.0" encoding="UTF-8" standalone="no"?>
<!DOCTYPE svg PUBLIC "-//W3C//DTD SVG 1.1//EN" "http://www.w3.org/Graphics/SVG/1.1/DTD/svg11.dtd">
<svg width="100%" height="100%" viewBox="0 0 111 111" version="1.1" xmlns="http://www.w3.org/2000/svg" xmlns:xlink="http://www.w3.org/1999/xlink" xml:space="preserve" xmlns:serif="http://www.serif.com/" style="fill-rule:evenodd;clip-rule:evenodd;stroke-linejoin:round;stroke-miterlimit:2;">
    <g transform="matrix(0.24,0,0,0.24,-4.80982,-4.80982)">
        <g>
            <g transform="matrix(3.12689,0,0,3.12689,-703.674,-339.054)">
                <path d="M378.534,149.063C378.534,130.176 363.199,114.841 344.311,114.841L265.671,114.841C246.783,114.841 231.449,130.176 231.449,149.063L231.449,227.703C231.449,246.591 246.783,261.926 265.671,261.926L344.311,261.926C363.199,261.926 378.534,246.591 378.534,227.703L378.534,149.063Z" style="fill:rgb(48,52,57);"/>
            </g>
            <g transform="matrix(2.77901,0,0,2.77901,-469.762,-449.057)">
                <path d="M300,220.214C300,215.681 296.319,212 291.786,212L226.214,212C221.681,212 218,215.681 218,220.214L218,286.786C218,291.319 221.681,295 226.214,295L291.786,295C296.319,295 300,291.319 300,286.786L300,220.214Z" style="fill:rgb(199,92,92);"/>
            </g>
            <g transform="matrix(2.77901,0,0,2.77901,-469.762,-449.057)">
                <path d="M300,236L218,236L218,286.786C218,291.319 221.681,295 226.214,295L291.786,295C296.319,295 300,291.319 300,286.786L300,236Z" style="fill:rgb(224,224,209);"/>
            </g>
            <g transform="matrix(2.77901,0,0,2.77901,-214.094,-394.171)">
                <path d="M182.204,228.919L168.459,260.528L161.013,260.528L174.782,230.669L157.107,230.669L157.107,224.981L182.204,224.981L182.204,228.919Z" style="fill:rgb(79,93,115);fill-rule:nonzero;"/>
            </g>
            <g transform="matrix(2.77901,0,0,2.77901,-469.762,-447.667)">
                <path d="M238,206.25C238,205.008 236.992,204 235.75,204L231.25,204C230.008,204 229,205.008 229,206.25L229,222.75C229,223.992 230.008,225 231.25,225L235.75,225C236.992,225 238,223.992 238,222.75L238,206.25Z" style="fill:rgb(224,224,209);"/>
            </g>
            <g transform="matrix(2.77901,0,0,2.77901,-325.254,-447.667)">
                <path d="M238,206.25C238,205.008 236.992,204 235.75,204L231.25,204C230.008,204 229,205.008 229,206.25L229,222.75C229,223.992 230.008,225 231.25,225L235.75,225C236.992,225 238,223.992 238,222.75L238,206.25Z" style="fill:rgb(224,224,209);"/>
            </g>
        </g>
    </g>
</svg>
