<?xml version="1.0" encoding="UTF-8" standalone="no"?>
<!DOCTYPE svg PUBLIC "-//W3C//DTD SVG 1.1//EN" "http://www.w3.org/Graphics/SVG/1.1/DTD/svg11.dtd">
<svg width="100%" height="100%" viewBox="0 0 500 500" version="1.1" xmlns="http://www.w3.org/2000/svg" xmlns:xlink="http://www.w3.org/1999/xlink" xml:space="preserve" xmlns:serif="http://www.serif.com/" style="fill-rule:evenodd;clip-rule:evenodd;stroke-linejoin:round;stroke-miterlimit:2;">
    <g>
        <g transform="matrix(3.12689,0,0,3.12689,-703.674,-339.054)">
            <path d="M378.534,149.063C378.534,130.176 363.199,114.841 344.311,114.841L265.671,114.841C246.783,114.841 231.449,130.176 231.449,149.063L231.449,227.703C231.449,246.591 246.783,261.926 265.671,261.926L344.311,261.926C363.199,261.926 378.534,246.591 378.534,227.703L378.534,149.063Z" style="fill:white;"/>
        </g>
        <g transform="matrix(1,0,0,1,-52.6096,-21.8645)">
            <circle cx="255.833" cy="381.162" r="27.742" style="fill:rgb(162,172,181);"/>
        </g>
        <g transform="matrix(1,0,0,1,84.6805,-21.8645)">
            <circle cx="255.833" cy="381.162" r="27.742" style="fill:rgb(162,172,181);"/>
        </g>
        <g transform="matrix(1,0,0,1,-10,-12.5312)">
            <path d="M167.059,185.42L200.392,314.754L361.514,318.754L391.059,186.754L167.059,185.42Z" style="fill:rgb(218,228,233);"/>
        </g>
        <g transform="matrix(1,0,0,1,-10,-12.5312)">
            <path d="M153.765,131.491C159.285,131.489 164.344,135.175 165.84,140.759L175.076,175.227L398.255,175.227L398.292,175.227L398.305,175.227C400.903,175.237 403.316,176.042 405.311,177.41L405.366,177.448C405.756,177.719 406.129,178.01 406.483,178.32L406.515,178.348L406.546,178.376L406.574,178.4C409.077,180.636 410.677,183.862 410.752,187.461L410.752,187.485L410.753,187.538L410.754,187.566L410.754,187.615L410.754,187.646L410.755,187.692L410.755,187.727L410.755,187.769L410.754,187.808L410.754,187.888L410.753,187.926C410.735,189.086 410.559,190.208 410.244,191.271L375.09,322.468C373.566,328.156 368.345,331.875 362.704,331.731C362.597,331.734 362.49,331.735 362.382,331.735L201.382,331.735C201.271,331.735 201.159,331.733 201.048,331.73C195.401,331.881 190.172,328.161 188.647,322.468L144.174,156.491L101.745,156.491C94.846,156.491 89.245,150.89 89.245,143.991C89.245,137.092 94.846,131.491 101.745,131.491L153.745,131.491L153.765,131.491ZM181.775,200.227L210.313,306.735L353.424,306.735L381.963,200.227L181.775,200.227Z" style="fill:rgb(251,86,92);"/>
        </g>
    </g>
</svg>
