<?xml version="1.0" encoding="UTF-8" standalone="no"?>
<!DOCTYPE svg PUBLIC "-//W3C//DTD SVG 1.1//EN" "http://www.w3.org/Graphics/SVG/1.1/DTD/svg11.dtd">
<svg width="100%" height="100%" viewBox="0 0 111 111" version="1.1" xmlns="http://www.w3.org/2000/svg" xmlns:xlink="http://www.w3.org/1999/xlink" xml:space="preserve" xmlns:serif="http://www.serif.com/" style="fill-rule:evenodd;clip-rule:evenodd;stroke-linejoin:round;stroke-miterlimit:2;">
    <g transform="matrix(0.24,0,0,0.24,-4.80982,-4.80982)">
        <g>
            <g transform="matrix(3.12689,0,0,3.12689,-703.674,-339.054)">
                <path d="M378.534,149.063C378.534,130.176 363.199,114.841 344.311,114.841L265.671,114.841C246.783,114.841 231.449,130.176 231.449,149.063L231.449,227.703C231.449,246.591 246.783,261.926 265.671,261.926L344.311,261.926C363.199,261.926 378.534,246.591 378.534,227.703L378.534,149.063Z" style="fill:rgb(32,60,147);"/>
            </g>
            <g transform="matrix(0.904494,0,0,0.904494,36.5393,20.2584)">
                <path d="M236,164C334.241,164 414,204.328 414,254C414,303.672 334.241,344 236,344C137.759,344 58,303.672 58,254C58,204.328 137.759,164 236,164ZM236,180C325.962,180 399,213.158 399,254C399,294.842 325.962,328 236,328C146.038,328 73,294.842 73,254C73,213.158 146.038,180 236,180Z" style="fill:rgb(231,231,231);"/>
            </g>
            <g transform="matrix(0.639574,0.639574,-0.639574,0.639574,261.512,-63.3913)">
                <path d="M236,164C334.241,164 414,204.328 414,254C414,303.672 334.241,344 236,344C137.759,344 58,303.672 58,254C58,204.328 137.759,164 236,164ZM236,180C325.962,180 399,213.158 399,254C399,294.842 325.962,328 236,328C146.038,328 73,294.842 73,254C73,213.158 146.038,180 236,180Z" style="fill:rgb(231,231,231);"/>
            </g>
            <g transform="matrix(-0.639574,0.639574,0.639574,0.639574,238.488,-63.3913)">
                <path d="M236,164C334.241,164 414,204.328 414,254C414,303.672 334.241,344 236,344C137.759,344 58,303.672 58,254C58,204.328 137.759,164 236,164ZM236,180C325.962,180 399,213.158 399,254C399,294.842 325.962,328 236,328C146.038,328 73,294.842 73,254C73,213.158 146.038,180 236,180Z" style="fill:rgb(231,231,231);"/>
            </g>
            <g transform="matrix(0.675991,0,0,0.675991,89.7902,76.2704)">
                <circle cx="237" cy="257" r="27" style="fill:rgb(231,231,231);"/>
            </g>
        </g>
    </g>
</svg>
