<?xml version="1.0" encoding="UTF-8" standalone="no"?>
<!DOCTYPE svg PUBLIC "-//W3C//DTD SVG 1.1//EN" "http://www.w3.org/Graphics/SVG/1.1/DTD/svg11.dtd">
<svg width="100%" height="100%" viewBox="0 0 500 500" version="1.1" xmlns="http://www.w3.org/2000/svg" xmlns:xlink="http://www.w3.org/1999/xlink" xml:space="preserve" xmlns:serif="http://www.serif.com/" style="fill-rule:evenodd;clip-rule:evenodd;stroke-linejoin:round;stroke-miterlimit:2;">
    <g>
        <g transform="matrix(3.12689,0,0,3.12689,-703.674,-339.054)">
            <path d="M378.534,149.063C378.534,130.176 363.199,114.841 344.311,114.841L265.671,114.841C246.783,114.841 231.449,130.176 231.449,149.063L231.449,227.703C231.449,246.591 246.783,261.926 265.671,261.926L344.311,261.926C363.199,261.926 378.534,246.591 378.534,227.703L378.534,149.063Z" style="fill:rgb(17,191,255);"/>
        </g>
        <g transform="matrix(1.03399,0,0,1.03399,-8.49795,-13.4273)">
            <path d="M170.124,241.243C174.026,194.909 212.916,158.471 260.25,158.471C310.169,158.471 350.698,198.999 350.698,248.918C350.698,253.531 350.352,258.063 349.685,262.486C352.451,261.949 355.307,261.668 358.228,261.668C382.897,261.668 402.926,281.697 402.926,306.366C402.926,331.035 382.897,351.064 358.228,351.064L153.272,351.064C122.256,351.064 97.074,325.882 97.074,294.866C97.074,263.85 122.256,238.668 153.272,238.668C159.144,238.668 164.806,239.571 170.124,241.243Z" style="fill:white;"/>
        </g>
    </g>
</svg>
