<?xml version="1.0" encoding="UTF-8" standalone="no"?>
<!DOCTYPE svg PUBLIC "-//W3C//DTD SVG 1.1//EN" "http://www.w3.org/Graphics/SVG/1.1/DTD/svg11.dtd">
<svg width="100%" height="100%" viewBox="0 0 111 111" version="1.1" xmlns="http://www.w3.org/2000/svg" xmlns:xlink="http://www.w3.org/1999/xlink" xml:space="preserve" xmlns:serif="http://www.serif.com/" style="fill-rule:evenodd;clip-rule:evenodd;stroke-linejoin:round;stroke-miterlimit:2;">
    <g transform="matrix(0.24,0,0,0.24,-4.80982,-4.80982)">
        <g>
            <g transform="matrix(3.12689,0,0,3.12689,-703.674,-339.054)">
                <path d="M378.534,149.063C378.534,130.176 363.199,114.841 344.311,114.841L265.671,114.841C246.783,114.841 231.449,130.176 231.449,149.063L231.449,227.703C231.449,246.591 246.783,261.926 265.671,261.926L344.311,261.926C363.199,261.926 378.534,246.591 378.534,227.703L378.534,149.063Z" style="fill:rgb(106,109,255);"/>
            </g>
            <g transform="matrix(1,0,0,1,6.79368,0)">
                <path d="M143.54,202.889L371.54,202.889L371.54,131.467C371.54,118.883 361.323,108.667 348.74,108.667L166.34,108.667C153.756,108.667 143.54,118.883 143.54,131.467L143.54,202.889Z" style="fill:rgb(204,141,64);"/>
            </g>
            <g transform="matrix(1,0,0,1,6.79368,0)">
                <path d="M371.54,297.111L143.54,297.111L143.54,368.533C143.54,381.117 153.756,391.333 166.34,391.333L348.74,391.333C361.323,391.333 371.54,381.117 371.54,368.533L371.54,297.111Z" style="fill:rgb(215,73,82);"/>
            </g>
            <g transform="matrix(1,0,0,1,6.79368,0)">
                <rect x="143.54" y="202.889" width="228" height="94.222" style="fill:rgb(104,179,140);"/>
            </g>
            <g transform="matrix(1,0,0,0.8583,-25.2063,23.0232)">
                <path d="M378.873,126.347C378.873,111.686 368.657,99.783 356.073,99.783L173.673,99.783C161.089,99.783 150.873,111.686 150.873,126.347L150.873,402.552C150.873,417.213 161.089,429.116 173.673,429.116L356.073,429.116C368.657,429.116 378.873,417.213 378.873,402.552L378.873,126.347Z" style="fill:rgb(241,241,241);"/>
            </g>
            <g transform="matrix(0.721526,0,0,0.721526,50.1574,66.973)">
                <circle cx="262.651" cy="202.889" r="47.111" style="fill:rgb(152,152,152);"/>
            </g>
            <g transform="matrix(0.721526,0,0,0.526178,58.4149,145.189)">
                <path d="M251.206,212.449C298.855,212.449 337.54,246.653 337.54,288.783C337.54,310.8 298.855,333.425 251.206,333.425C203.558,333.425 164.873,315.371 164.873,288.783C164.873,246.653 203.558,212.449 251.206,212.449Z" style="fill:rgb(152,152,152);"/>
            </g>
        </g>
    </g>
</svg>
