<?xml version="1.0" encoding="UTF-8" standalone="no"?>
<!DOCTYPE svg PUBLIC "-//W3C//DTD SVG 1.1//EN" "http://www.w3.org/Graphics/SVG/1.1/DTD/svg11.dtd">
<svg width="100%" height="100%" viewBox="0 0 111 111" version="1.1" xmlns="http://www.w3.org/2000/svg" xmlns:xlink="http://www.w3.org/1999/xlink" xml:space="preserve" xmlns:serif="http://www.serif.com/" style="fill-rule:evenodd;clip-rule:evenodd;stroke-linejoin:round;stroke-miterlimit:2;">
    <g transform="matrix(0.24,0,0,0.24,-4.80982,-4.80982)">
        <g>
            <g transform="matrix(3.12689,0,0,3.12689,-703.674,-339.054)">
                <path d="M378.534,149.063C378.534,130.176 363.199,114.841 344.311,114.841L265.671,114.841C246.783,114.841 231.449,130.176 231.449,149.063L231.449,227.703C231.449,246.591 246.783,261.926 265.671,261.926L344.311,261.926C363.199,261.926 378.534,246.591 378.534,227.703L378.534,149.063Z" style="fill:rgb(251,95,88);"/>
            </g>
            <g transform="matrix(1.19329,0,0,1.19329,-59.2186,-38.1174)">
                <path d="M227.51,237.294L182.345,326.988C179.966,331.987 186.019,336.363 189.933,332.448L317.356,233.661C318.662,231.067 317.616,228.961 315.022,228.961L280.272,228.961L336.356,147.994C337.662,145.4 336.616,143.294 334.022,143.294L245.406,143.294C242.812,143.294 239.645,145.4 238.339,147.994L195.739,232.594C194.433,235.188 195.479,237.294 198.073,237.294L227.51,237.294Z" style="fill:rgb(250,186,75);"/>
            </g>
        </g>
    </g>
</svg>
