<?xml version="1.0" encoding="UTF-8" standalone="no"?>
<!DOCTYPE svg PUBLIC "-//W3C//DTD SVG 1.1//EN" "http://www.w3.org/Graphics/SVG/1.1/DTD/svg11.dtd">
<svg width="100%" height="100%" viewBox="0 0 111 111" version="1.1" xmlns="http://www.w3.org/2000/svg" xmlns:xlink="http://www.w3.org/1999/xlink" xml:space="preserve" xmlns:serif="http://www.serif.com/" style="fill-rule:evenodd;clip-rule:evenodd;stroke-linejoin:round;stroke-miterlimit:2;">
    <g transform="matrix(0.24,0,0,0.24,-4.80982,-4.80982)">
        <g>
            <g transform="matrix(3.12689,0,0,3.12689,-703.674,-339.054)">
                <path d="M378.534,149.063C378.534,130.176 363.199,114.841 344.311,114.841L265.671,114.841C246.783,114.841 231.449,130.176 231.449,149.063L231.449,227.703C231.449,246.591 246.783,261.926 265.671,261.926L344.311,261.926C363.199,261.926 378.534,246.591 378.534,227.703L378.534,149.063Z" style="fill:rgb(79,93,115);"/>
            </g>
            <g transform="matrix(1.82022,0,0,1.82022,-391.912,-143.667)">
                <path d="M358.657,253.796C366.104,249.586 380.005,241.033 397.657,227C402.339,223.278 405.604,225.019 405.657,231C405.875,255.835 390.266,284.547 352.657,284.549C315.048,284.551 299.435,256.23 299.657,231C299.709,225.019 302.975,223.278 307.657,227C325.308,241.033 339.209,249.585 346.657,253.796L346.657,225L358.657,225L358.657,253.796Z" style="fill:rgb(118,194,175);"/>
            </g>
            <g transform="matrix(1.82022,0,0,1.82022,-223.257,-129.105)">
                <path d="M236.329,157.329C239.2,147.368 248.85,140 260,140C271.15,140 280.8,147.368 283.671,157.329C293.632,160.2 301,169.85 301,181C301,192.15 293.632,201.8 283.671,204.671C280.8,214.632 271.15,222 260,222C248.85,222 239.2,214.632 236.329,204.671C226.368,201.8 219,192.15 219,181C219,169.85 226.368,160.2 236.329,157.329Z" style="fill:rgb(199,92,92);"/>
            </g>
            <g transform="matrix(1.82022,0,0,1.82022,-233.268,-144.577)">
                <circle cx="265.5" cy="189.5" r="15.5" style="fill:rgb(255,198,89);"/>
            </g>
        </g>
    </g>
</svg>
