<?xml version="1.0" encoding="UTF-8" standalone="no"?>
<!DOCTYPE svg PUBLIC "-//W3C//DTD SVG 1.1//EN" "http://www.w3.org/Graphics/SVG/1.1/DTD/svg11.dtd">
<svg width="100%" height="100%" viewBox="0 0 111 111" version="1.1" xmlns="http://www.w3.org/2000/svg" xmlns:xlink="http://www.w3.org/1999/xlink" xml:space="preserve" xmlns:serif="http://www.serif.com/" style="fill-rule:evenodd;clip-rule:evenodd;stroke-linejoin:round;stroke-miterlimit:2;">
    <g transform="matrix(0.24,0,0,0.24,-4.80982,-4.80982)">
        <g id="restaurant">
            <g transform="matrix(3.12689,0,0,3.12689,-703.674,-339.054)">
                <path d="M378.534,149.063C378.534,130.176 363.199,114.841 344.311,114.841L265.671,114.841C246.783,114.841 231.449,130.176 231.449,149.063L231.449,227.703C231.449,246.591 246.783,261.926 265.671,261.926L344.311,261.926C363.199,261.926 378.534,246.591 378.534,227.703L378.534,149.063Z" style="fill:rgb(224,153,94);"/>
            </g>
            <g transform="matrix(0.401696,0,0,1,239.132,-49.1961)">
                <path d="M396.405,183.084C396.405,179.795 389.757,177.124 381.569,177.124L114.51,177.124C106.321,177.124 99.673,179.795 99.673,183.084L99.673,375.74C99.673,379.029 106.321,381.699 114.51,381.699L381.569,381.699C389.757,381.699 396.405,379.029 396.405,375.74L396.405,183.084Z" style="fill:rgb(202,202,202);"/>
            </g>
            <g transform="matrix(1,0,0,1,1.96078,1.78431)">
                <path d="M396.405,342.059L396.405,147.712L109.902,147.712C104.257,147.712 99.673,152.296 99.673,157.941L99.673,342.059C99.673,347.704 104.257,352.288 109.902,352.288L386.176,352.288C391.822,352.288 396.405,347.704 396.405,342.059Z" style="fill:white;"/>
            </g>
        </g>
    </g>
</svg>
