<?xml version="1.0" encoding="UTF-8" standalone="no"?>
<!DOCTYPE svg PUBLIC "-//W3C//DTD SVG 1.1//EN" "http://www.w3.org/Graphics/SVG/1.1/DTD/svg11.dtd">
<svg width="100%" height="100%" viewBox="0 0 500 500" version="1.1" xmlns="http://www.w3.org/2000/svg" xmlns:xlink="http://www.w3.org/1999/xlink" xml:space="preserve" xmlns:serif="http://www.serif.com/" style="fill-rule:evenodd;clip-rule:evenodd;stroke-linejoin:round;stroke-miterlimit:2;">
    <g>
        <g transform="matrix(3.12689,0,0,3.12689,-703.674,-339.054)">
            <path d="M378.534,149.063C378.534,130.176 363.199,114.841 344.311,114.841L265.671,114.841C246.783,114.841 231.449,130.176 231.449,149.063L231.449,227.703C231.449,246.591 246.783,261.926 265.671,261.926L344.311,261.926C363.199,261.926 378.534,246.591 378.534,227.703L378.534,149.063Z" style="fill:rgb(217,148,91);"/>
        </g>
        <g transform="matrix(1,0,0,1,5.22876,-11.4379)">
            <path d="M370.261,165.32C370.261,156.684 363.25,149.673 354.614,149.673L134.928,149.673C126.292,149.673 119.281,156.684 119.281,165.32L119.281,357.556C119.281,366.191 126.292,373.203 134.928,373.203L354.614,373.203C363.25,373.203 370.261,366.191 370.261,357.556L370.261,165.32Z" style="fill:rgb(247,247,247);"/>
        </g>
        <g transform="matrix(0.817708,0,0,0.815552,45.5729,49.0267)">
            <rect x="124.51" y="138.235" width="250.98" height="180.719" style="fill:rgb(115,173,205);"/>
        </g>
        <path d="M147.386,291.503C147.386,291.503 179.996,248.357 189.869,235.458C198.779,223.817 220.788,224.777 227.124,235.458C235.876,250.209 255.882,284.967 255.882,284.967C255.882,284.967 271.076,269.699 278.105,262.745C284.552,256.367 298.964,256.399 305.556,262.745C317.224,273.979 352.614,309.15 352.614,309.15L147.386,309.15L147.386,291.503Z" style="fill:rgb(77,90,111);"/>
        <g transform="matrix(0.902295,0,0,0.902295,36.9581,13.8129)">
            <circle cx="304.06" cy="204.055" r="23.029" style="fill:rgb(250,186,75);"/>
        </g>
        <g transform="matrix(0.222773,0,0,0.222773,223.799,148.876)">
            <path d="M170.124,241.243C174.026,194.909 212.916,158.471 260.25,158.471C310.169,158.471 350.698,198.999 350.698,248.918C350.698,253.531 350.352,258.063 349.685,262.486C352.451,261.949 355.307,261.668 358.228,261.668C382.897,261.668 402.926,281.697 402.926,306.366C402.926,331.035 382.897,351.064 358.228,351.064L153.272,351.064C122.256,351.064 97.074,325.882 97.074,294.866C97.074,263.85 122.256,238.668 153.272,238.668C159.144,238.668 164.806,239.571 170.124,241.243Z" style="fill:white;"/>
        </g>
    </g>
</svg>
