<?xml version="1.0" encoding="UTF-8" standalone="no"?>
<!DOCTYPE svg PUBLIC "-//W3C//DTD SVG 1.1//EN" "http://www.w3.org/Graphics/SVG/1.1/DTD/svg11.dtd">
<svg width="100%" height="100%" viewBox="0 0 111 111" version="1.1" xmlns="http://www.w3.org/2000/svg" xmlns:xlink="http://www.w3.org/1999/xlink" xml:space="preserve" xmlns:serif="http://www.serif.com/" style="fill-rule:evenodd;clip-rule:evenodd;stroke-linejoin:round;stroke-miterlimit:2;">
    <g transform="matrix(0.24,0,0,0.24,-4.80982,-4.80982)">
        <g>
            <g transform="matrix(3.12689,0,0,3.12689,-703.674,-339.054)">
                <path d="M378.534,149.063C378.534,130.176 363.199,114.841 344.311,114.841L265.671,114.841C246.783,114.841 231.449,130.176 231.449,149.063L231.449,227.703C231.449,246.591 246.783,261.926 265.671,261.926L344.311,261.926C363.199,261.926 378.534,246.591 378.534,227.703L378.534,149.063Z" style="fill:rgb(251,95,88);"/>
            </g>
            <path d="M250,390.626C250,390.626 353.676,266.323 353.676,213.05C353.676,155.83 307.22,109.374 250,109.374C192.78,109.374 146.324,155.83 146.324,213.05C146.324,266.323 250,390.626 250,390.626ZM250,158.422C279.895,158.422 304.167,182.693 304.167,212.588C304.167,242.484 279.895,266.755 250,266.755C220.105,266.755 195.833,242.484 195.833,212.588C195.833,182.693 220.105,158.422 250,158.422Z" style="fill:white;"/>
        </g>
    </g>
</svg>
