<?xml version="1.0" encoding="UTF-8" standalone="no"?>
<!DOCTYPE svg PUBLIC "-//W3C//DTD SVG 1.1//EN" "http://www.w3.org/Graphics/SVG/1.1/DTD/svg11.dtd">
<svg width="100%" height="100%" viewBox="0 0 500 500" version="1.1" xmlns="http://www.w3.org/2000/svg" xmlns:xlink="http://www.w3.org/1999/xlink" xml:space="preserve" xmlns:serif="http://www.serif.com/" style="fill-rule:evenodd;clip-rule:evenodd;stroke-linejoin:round;stroke-miterlimit:2;">
    <g>
        <g transform="matrix(3.12689,0,0,3.12689,-703.674,-339.054)">
            <path d="M378.534,149.063C378.534,130.176 363.199,114.841 344.311,114.841L265.671,114.841C246.783,114.841 231.449,130.176 231.449,149.063L231.449,227.703C231.449,246.591 246.783,261.926 265.671,261.926L344.311,261.926C363.199,261.926 378.534,246.591 378.534,227.703L378.534,149.063Z" style="fill:rgb(48,52,57);"/>
        </g>
        <g transform="matrix(0.961645,0.550777,0,0.649103,3.13413,-14.1669)">
            <rect x="135.411" y="189.147" width="133" height="186" style="fill:rgb(237,145,69);"/>
        </g>
        <g transform="matrix(0.961645,0.550777,0.566661,-0.324552,-104.048,169.997)">
            <rect x="135.411" y="189.147" width="133" height="186" style="fill:rgb(247,177,112);"/>
        </g>
        <g transform="matrix(0.961645,0.550777,0.120968,-0.0692836,21.7029,97.9738)">
            <rect x="135.411" y="189.147" width="133" height="186" style="fill:rgb(122,64,55);"/>
        </g>
        <g transform="matrix(-0.792472,0.453884,0,0.649103,473.958,11.8402)">
            <rect x="135.411" y="189.147" width="133" height="186" style="fill:rgb(196,114,47);"/>
        </g>
        <g transform="matrix(-0.169173,0.0968929,2.81073e-18,0.196918,348.107,169.45)">
            <rect x="135.411" y="189.147" width="133" height="186" style="fill:rgb(92,49,43);"/>
        </g>
    </g>
</svg>
