<?xml version="1.0" encoding="UTF-8" standalone="no"?>
<!DOCTYPE svg PUBLIC "-//W3C//DTD SVG 1.1//EN" "http://www.w3.org/Graphics/SVG/1.1/DTD/svg11.dtd">
<svg width="100%" height="100%" viewBox="0 0 111 111" version="1.1" xmlns="http://www.w3.org/2000/svg" xmlns:xlink="http://www.w3.org/1999/xlink" xml:space="preserve" xmlns:serif="http://www.serif.com/" style="fill-rule:evenodd;clip-rule:evenodd;stroke-linejoin:round;stroke-miterlimit:2;">
    <g transform="matrix(0.24,0,0,0.24,-4.80982,-4.80982)">
        <g>
            <g transform="matrix(3.12689,0,0,3.12689,-703.674,-339.054)">
                <path d="M378.534,149.063C378.534,130.176 363.199,114.841 344.311,114.841L265.671,114.841C246.783,114.841 231.449,130.176 231.449,149.063L231.449,227.703C231.449,246.591 246.783,261.926 265.671,261.926L344.311,261.926C363.199,261.926 378.534,246.591 378.534,227.703L378.534,149.063Z" style="fill:rgb(237,126,190);"/>
            </g>
            <g transform="matrix(1.08275,0,0,1.08275,-44.9562,27.5557)">
                <path d="M272.414,138.621C296.806,95.862 345.59,95.862 369.982,117.103C394.375,138.345 394.375,180.828 369.982,223.31C352.907,255.172 309.002,287.034 272.414,308.276C235.826,287.034 191.92,255.172 174.846,223.31C150.454,180.828 150.454,138.345 174.846,117.103C199.238,95.862 248.022,95.862 272.414,138.621Z" style="fill:rgb(246,251,255);"/>
            </g>
        </g>
    </g>
</svg>
