<?xml version="1.0" encoding="UTF-8" standalone="no"?>
<!DOCTYPE svg PUBLIC "-//W3C//DTD SVG 1.1//EN" "http://www.w3.org/Graphics/SVG/1.1/DTD/svg11.dtd">
<svg width="100%" height="100%" viewBox="0 0 500 500" version="1.1" xmlns="http://www.w3.org/2000/svg" xmlns:xlink="http://www.w3.org/1999/xlink" xml:space="preserve" xmlns:serif="http://www.serif.com/" style="fill-rule:evenodd;clip-rule:evenodd;stroke-linejoin:round;stroke-miterlimit:2;">
    <g>
        <g transform="matrix(3.12689,0,0,3.12689,-703.674,-339.054)">
            <path d="M378.534,149.063C378.534,130.176 363.199,114.841 344.311,114.841L265.671,114.841C246.783,114.841 231.449,130.176 231.449,149.063L231.449,227.703C231.449,246.591 246.783,261.926 265.671,261.926L344.311,261.926C363.199,261.926 378.534,246.591 378.534,227.703L378.534,149.063Z" style="fill:rgb(17,191,255);"/>
        </g>
        <g transform="matrix(1,0,0,1,-6.64894,-8.64362)">
            <path d="M409.574,176.876C409.574,166.226 400.928,157.58 390.279,157.58L123.019,157.58C112.37,157.58 103.723,166.226 103.723,176.876L103.723,340.412C103.723,351.061 112.37,359.707 123.019,359.707L390.279,359.707C400.928,359.707 409.574,351.061 409.574,340.412L409.574,176.876Z" style="fill:white;"/>
        </g>
        <path d="M97.074,169.004L242.5,252.965C244.601,254.748 247.281,255.691 250,255.65C252.72,255.691 255.399,254.748 257.5,252.965L402.926,169.004L402.926,168.232C402.926,157.582 394.279,148.936 383.63,148.936L116.37,148.936C105.721,148.936 97.074,157.582 97.074,168.232L97.074,169.004Z" style="fill:rgb(186,186,186);"/>
    </g>
</svg>
