<?xml version="1.0" encoding="UTF-8" standalone="no"?>
<!DOCTYPE svg PUBLIC "-//W3C//DTD SVG 1.1//EN" "http://www.w3.org/Graphics/SVG/1.1/DTD/svg11.dtd">
<svg width="100%" height="100%" viewBox="0 0 500 500" version="1.1" xmlns="http://www.w3.org/2000/svg" xmlns:xlink="http://www.w3.org/1999/xlink" xml:space="preserve" xmlns:serif="http://www.serif.com/" style="fill-rule:evenodd;clip-rule:evenodd;stroke-linejoin:round;stroke-miterlimit:2;">
    <g>
        <g transform="matrix(3.12689,0,0,3.12689,-703.674,-339.054)">
            <path d="M378.534,149.063C378.534,130.176 363.199,114.841 344.311,114.841L265.671,114.841C246.783,114.841 231.449,130.176 231.449,149.063L231.449,227.703C231.449,246.591 246.783,261.926 265.671,261.926L344.311,261.926C363.199,261.926 378.534,246.591 378.534,227.703L378.534,149.063Z" style="fill:rgb(52,55,61);"/>
        </g>
        <g transform="matrix(0.904779,0,0,0.904779,17.3128,23.8052)">
            <path d="M180.045,126C183.555,125.999 187.099,127.021 190.208,129.153L344.5,234.94C352.694,240.558 354.785,251.771 349.168,259.965C348.899,260.356 348.618,260.734 348.325,261.097C347.13,262.784 345.623,264.29 343.82,265.526L190.208,370.847C187.099,372.979 183.555,374.001 180.045,374L180.031,374C177.284,374 174.68,373.383 172.351,372.282C169.553,370.966 167.057,368.913 165.184,366.18C163.051,363.07 162.03,359.524 162.031,356.015L162.031,356L162.031,144L162.031,143.985C162.03,140.476 163.051,136.93 165.184,133.82C167.057,131.087 169.553,129.034 172.351,127.718C174.68,126.617 177.284,126 180.031,126L180.045,126Z" style="fill:rgb(251,95,88);"/>
        </g>
    </g>
</svg>
