<?xml version="1.0" encoding="UTF-8" standalone="no"?>
<!DOCTYPE svg PUBLIC "-//W3C//DTD SVG 1.1//EN" "http://www.w3.org/Graphics/SVG/1.1/DTD/svg11.dtd">
<svg width="100%" height="100%" viewBox="0 0 111 111" version="1.1" xmlns="http://www.w3.org/2000/svg" xmlns:xlink="http://www.w3.org/1999/xlink" xml:space="preserve" xmlns:serif="http://www.serif.com/" style="fill-rule:evenodd;clip-rule:evenodd;stroke-linejoin:round;stroke-miterlimit:2;">
    <g transform="matrix(0.24,0,0,0.24,-4.80982,-4.80982)">
        <g>
            <g transform="matrix(3.12689,0,0,3.12689,-703.674,-339.054)">
                <path d="M378.534,149.063C378.534,130.176 363.199,114.841 344.311,114.841L265.671,114.841C246.783,114.841 231.449,130.176 231.449,149.063L231.449,227.703C231.449,246.591 246.783,261.926 265.671,261.926L344.311,261.926C363.199,261.926 378.534,246.591 378.534,227.703L378.534,149.063Z" style="fill:white;"/>
            </g>
            <g transform="matrix(0.980958,0,0,0.980958,13.7792,27.2356)">
                <path d="M187.268,270.498L187.268,84.891L363.613,144.545L363.613,337.664C363.613,355.117 344.141,369.287 320.158,369.287C296.175,369.287 276.704,355.117 276.704,337.664C276.704,320.211 296.175,306.041 320.158,306.041C329.821,306.041 338.751,308.342 345.973,312.231L345.973,198.944L204.908,151.225L204.908,295.931C204.908,313.384 185.437,327.553 161.454,327.553C137.471,327.553 118,313.384 118,295.931C118,278.478 137.471,264.308 161.454,264.308C171.117,264.308 180.047,266.608 187.268,270.498Z" style="fill:rgb(119,179,212);"/>
            </g>
        </g>
    </g>
</svg>
