<?xml version="1.0" encoding="UTF-8" standalone="no"?>
<!DOCTYPE svg PUBLIC "-//W3C//DTD SVG 1.1//EN" "http://www.w3.org/Graphics/SVG/1.1/DTD/svg11.dtd">
<svg width="100%" height="100%" viewBox="0 0 111 111" version="1.1" xmlns="http://www.w3.org/2000/svg" xmlns:xlink="http://www.w3.org/1999/xlink" xml:space="preserve" xmlns:serif="http://www.serif.com/" style="fill-rule:evenodd;clip-rule:evenodd;stroke-linejoin:round;stroke-miterlimit:2;">
    <g transform="matrix(0.24,0,0,0.24,-4.80982,-4.80982)">
        <g>
            <g transform="matrix(3.12689,0,0,3.12689,-703.674,-339.054)">
                <path d="M378.534,149.063C378.534,130.176 363.199,114.841 344.311,114.841L265.671,114.841C246.783,114.841 231.449,130.176 231.449,149.063L231.449,227.703C231.449,246.591 246.783,261.926 265.671,261.926L344.311,261.926C363.199,261.926 378.534,246.591 378.534,227.703L378.534,149.063Z" style="fill:white;"/>
            </g>
            <g transform="matrix(3.43085,0,0,3.43085,-590.776,-618.329)">
                <path d="M232.34,261.816C232.34,261.816 236.928,250.228 245.14,242.016C255.451,231.704 281.173,213.449 285.54,217.816C289.906,222.183 271.144,246.053 260.14,257.016C244.589,272.508 239.94,270.616 239.94,270.616L232.34,261.816Z" style="fill:rgb(224,153,94);"/>
            </g>
            <g transform="matrix(3.43085,0,0,3.43085,-590.776,-618.329)">
                <path d="M238.74,281.433C251.46,260.353 225.976,250.757 218.69,266.283C209.14,286.633 203.94,285.233 203.94,285.233C203.94,285.233 229.99,295.933 238.74,281.433Z" style="fill:rgb(74,74,81);"/>
                <clipPath id="_clip1">
                    <path d="M238.74,281.433C251.46,260.353 225.976,250.757 218.69,266.283C209.14,286.633 203.94,285.233 203.94,285.233C203.94,285.233 229.99,295.933 238.74,281.433Z"/>
                </clipPath>
                <g clip-path="url(#_clip1)">
                    <path d="M211.74,270.689C211.74,270.689 222.14,265.442 226.94,273.829C231.74,282.216 234.943,288.016 242.241,284.816C249.54,281.616 228.54,294.816 224.94,295.216C221.34,295.616 193.14,289.035 193.14,289.035L211.74,270.689Z" style="fill:rgb(82,141,208);"/>
                </g>
            </g>
        </g>
    </g>
</svg>
