<?xml version="1.0" encoding="UTF-8" standalone="no"?>
<!DOCTYPE svg PUBLIC "-//W3C//DTD SVG 1.1//EN" "http://www.w3.org/Graphics/SVG/1.1/DTD/svg11.dtd">
<svg width="100%" height="100%" viewBox="0 0 111 111" version="1.1" xmlns="http://www.w3.org/2000/svg" xmlns:xlink="http://www.w3.org/1999/xlink" xml:space="preserve" xmlns:serif="http://www.serif.com/" style="fill-rule:evenodd;clip-rule:evenodd;stroke-linejoin:round;stroke-miterlimit:2;">
    <g transform="matrix(0.24,0,0,0.24,-4.80982,-4.80982)">
        <g>
            <g transform="matrix(3.12689,0,0,3.12689,-703.674,-339.054)">
                <path d="M378.534,149.063C378.534,130.176 363.199,114.841 344.311,114.841L265.671,114.841C246.783,114.841 231.449,130.176 231.449,149.063L231.449,227.703C231.449,246.591 246.783,261.926 265.671,261.926L344.311,261.926C363.199,261.926 378.534,246.591 378.534,227.703L378.534,149.063Z" style="fill:rgb(17,191,255);"/>
            </g>
            <g transform="matrix(0.852066,-0.610588,0.610588,0.852066,-20.8023,151.116)">
                <path d="M72.31,234.667C72.615,212.436 72.725,162.813 99.643,114.783C123.953,71.406 167.716,60.762 190.226,73.616C195.502,76.628 201.709,82.817 204.643,88.116C208.796,95.616 207.519,102.539 204.393,108.616C197.726,121.574 186.976,144.949 181.143,156.866C178.472,162.322 171.353,165.293 164.893,165.116C159.399,164.966 151.976,164.991 144.393,165.116C139.261,165.201 133.031,168.502 131.393,173.366C121.663,202.266 119.976,214.233 119.976,234.667C119.976,255.1 121.663,267.067 131.393,295.967C133.031,300.831 139.261,304.133 144.393,304.217C151.976,304.342 159.399,304.368 164.893,304.217C171.353,304.041 178.472,307.011 181.143,312.467C186.976,324.384 197.726,347.759 204.393,360.717C207.519,366.794 208.796,373.717 204.643,381.217C201.709,386.516 195.502,392.705 190.226,395.717C167.716,408.571 123.953,397.927 99.643,354.551C72.725,306.52 72.115,254.897 72.31,234.667Z" style="fill:rgb(246,251,255);"/>
            </g>
        </g>
    </g>
</svg>
