<?xml version="1.0" encoding="UTF-8" standalone="no"?>
<!DOCTYPE svg PUBLIC "-//W3C//DTD SVG 1.1//EN" "http://www.w3.org/Graphics/SVG/1.1/DTD/svg11.dtd">
<svg width="100%" height="100%" viewBox="0 0 111 111" version="1.1" xmlns="http://www.w3.org/2000/svg" xmlns:xlink="http://www.w3.org/1999/xlink" xml:space="preserve" xmlns:serif="http://www.serif.com/" style="fill-rule:evenodd;clip-rule:evenodd;stroke-linejoin:round;stroke-miterlimit:2;">
    <g transform="matrix(0.24,0,0,0.24,-4.80982,-4.80982)">
        <g>
            <g transform="matrix(3.12689,0,0,3.12689,-703.674,-339.054)">
                <path d="M378.534,149.063C378.534,130.176 363.199,114.841 344.311,114.841L265.671,114.841C246.783,114.841 231.449,130.176 231.449,149.063L231.449,227.703C231.449,246.591 246.783,261.926 265.671,261.926L344.311,261.926C363.199,261.926 378.534,246.591 378.534,227.703L378.534,149.063Z" style="fill:rgb(17,191,255);"/>
            </g>
            <g transform="matrix(1,0,0,1,-10.0838,0.530798)">
                <path d="M168.941,211.84L152.369,243.165L263.055,252.294L237.591,256.911L198.072,293.892L125.533,293.892L114.07,315.56C124.905,318.818 165.006,330.86 181.599,335.58C208.952,343.363 226.003,336.587 243.123,322.469C284.027,288.737 375.566,201.792 401.809,175.549C412.634,164.724 400.693,160.084 391.051,160.084C342.414,160.084 323.811,181.601 323.811,181.601L292.881,210.514L168.941,211.84Z" style="fill:white;"/>
            </g>
        </g>
    </g>
</svg>
