<?xml version="1.0" encoding="UTF-8" standalone="no"?>
<!DOCTYPE svg PUBLIC "-//W3C//DTD SVG 1.1//EN" "http://www.w3.org/Graphics/SVG/1.1/DTD/svg11.dtd">
<svg width="100%" height="100%" viewBox="0 0 111 111" version="1.1" xmlns="http://www.w3.org/2000/svg" xmlns:xlink="http://www.w3.org/1999/xlink" xml:space="preserve" xmlns:serif="http://www.serif.com/" style="fill-rule:evenodd;clip-rule:evenodd;stroke-linejoin:round;stroke-miterlimit:2;">
    <g transform="matrix(0.24,0,0,0.24,-4.80982,-4.80982)">
        <g>
            <g transform="matrix(3.12689,0,0,3.12689,-703.674,-339.054)">
                <path d="M378.534,149.063C378.534,130.176 363.199,114.841 344.311,114.841L265.671,114.841C246.783,114.841 231.449,130.176 231.449,149.063L231.449,227.703C231.449,246.591 246.783,261.926 265.671,261.926L344.311,261.926C363.199,261.926 378.534,246.591 378.534,227.703L378.534,149.063Z" style="fill:rgb(251,95,88);"/>
            </g>
            <g transform="matrix(0.666068,0.666068,-0.666068,0.666068,269.635,-89.6419)">
                <path d="M233.415,96.326L152.702,177.038C150.393,179.347 149.497,182.538 150.015,185.531C149.92,186.073 149.871,186.631 149.871,187.201L149.871,379.201C149.871,384.536 154.202,388.868 159.538,388.868L320.871,388.868C326.206,388.868 330.538,384.536 330.538,379.201L330.538,187.201C330.538,186.647 330.491,186.104 330.401,185.576C330.902,182.597 330.004,179.427 327.706,177.129L248.113,97.536C247.809,97.112 247.466,96.707 247.085,96.326C243.313,92.553 237.187,92.553 233.415,96.326ZM240.204,121.201C246.919,121.201 252.371,126.653 252.371,133.368C252.371,140.083 246.919,145.534 240.204,145.534C233.489,145.534 228.038,140.083 228.038,133.368C228.038,126.653 233.489,121.201 240.204,121.201Z" style="fill:white;"/>
            </g>
        </g>
    </g>
</svg>
