<?xml version="1.0" encoding="UTF-8" standalone="no"?>
<!DOCTYPE svg PUBLIC "-//W3C//DTD SVG 1.1//EN" "http://www.w3.org/Graphics/SVG/1.1/DTD/svg11.dtd">
<svg width="100%" height="100%" viewBox="0 0 111 111" version="1.1" xmlns="http://www.w3.org/2000/svg" xmlns:xlink="http://www.w3.org/1999/xlink" xml:space="preserve" xmlns:serif="http://www.serif.com/" style="fill-rule:evenodd;clip-rule:evenodd;stroke-linejoin:round;stroke-miterlimit:2;">
    <g transform="matrix(0.24,0,0,0.24,-4.80982,-4.80982)">
        <g>
            <g transform="matrix(3.12689,0,0,3.12689,-703.674,-339.054)">
                <path d="M378.534,149.063C378.534,130.176 363.199,114.841 344.311,114.841L265.671,114.841C246.783,114.841 231.449,130.176 231.449,149.063L231.449,227.703C231.449,246.591 246.783,261.926 265.671,261.926L344.311,261.926C363.199,261.926 378.534,246.591 378.534,227.703L378.534,149.063Z" style="fill:rgb(52,55,61);"/>
            </g>
            <g transform="matrix(1.13937,0,0,1.13937,-20.4558,134.336)">
                <path d="M221.242,117.647L124.51,117.647L124.51,214.379L221.242,214.379L221.242,117.647ZM188.998,149.891L156.754,149.891L156.754,182.135L188.998,182.135L188.998,149.891Z" style="fill:white;"/>
            </g>
            <g transform="matrix(1.13937,0,0,1.13937,-20.4558,-12.6366)">
                <path d="M221.242,117.647L124.51,117.647L124.51,214.379L221.242,214.379L221.242,117.647ZM188.998,149.891L156.754,149.891L156.754,182.135L188.998,182.135L188.998,149.891Z" style="fill:white;"/>
            </g>
            <g transform="matrix(1.13937,0,0,1.13937,126.517,-12.6366)">
                <path d="M221.242,117.647L124.51,117.647L124.51,214.379L221.242,214.379L221.242,117.647ZM188.998,149.891L156.754,149.891L156.754,182.135L188.998,182.135L188.998,149.891Z" style="fill:white;"/>
            </g>
            <g transform="matrix(1,0,0,1,0.889738,150.732)">
                <path d="M304.228,191.123L267.49,191.123L267.49,227.861L304.228,227.861L304.228,191.123ZM377.703,154.385L304.228,154.385L304.228,191.123L340.965,191.123L340.965,227.861L377.703,227.861L377.703,154.385ZM304.228,117.647L267.49,117.647L267.49,154.385L304.228,154.385L304.228,117.647Z" style="fill:white;"/>
            </g>
        </g>
    </g>
</svg>
