<?xml version="1.0" encoding="UTF-8" standalone="no"?>
<!DOCTYPE svg PUBLIC "-//W3C//DTD SVG 1.1//EN" "http://www.w3.org/Graphics/SVG/1.1/DTD/svg11.dtd">
<svg width="100%" height="100%" viewBox="0 0 500 500" version="1.1" xmlns="http://www.w3.org/2000/svg" xmlns:xlink="http://www.w3.org/1999/xlink" xml:space="preserve" xmlns:serif="http://www.serif.com/" style="fill-rule:evenodd;clip-rule:evenodd;stroke-linejoin:round;stroke-miterlimit:2;">
    <g id="restaurant">
        <g transform="matrix(3.12689,0,0,3.12689,-703.674,-339.054)">
            <path d="M378.534,149.063C378.534,130.176 363.199,114.841 344.311,114.841L265.671,114.841C246.783,114.841 231.449,130.176 231.449,149.063L231.449,227.703C231.449,246.591 246.783,261.926 265.671,261.926L344.311,261.926C363.199,261.926 378.534,246.591 378.534,227.703L378.534,149.063Z" style="fill:rgb(250,186,75);"/>
        </g>
        <g transform="matrix(0.879751,0,0,0.740964,37.4886,60.7146)">
            <path d="M189.604,56.029C189.604,51.178 193.542,47.24 198.392,47.24C203.242,47.24 207.18,51.178 207.18,56.029L207.18,145.161C207.18,149.436 210.651,152.907 214.926,152.907C219.202,152.907 222.673,149.436 222.673,145.161L222.673,56.029C222.673,51.178 226.611,47.24 231.461,47.24C236.311,47.24 240.249,51.178 240.249,56.029L240.249,138.786C240.249,139.015 240.24,139.242 240.223,139.468C240.24,139.972 240.249,140.48 240.249,140.993C240.249,162.452 229.742,166.971 216.916,200.993C206.586,228.393 217.582,397.771 217.582,441.659C217.582,472.406 179.201,472.466 179.201,441.719C179.201,397.831 190.198,228.453 179.868,201.052C167.042,167.031 156.535,162.511 156.535,141.052C156.535,140.525 156.544,140.004 156.562,139.486C156.544,139.255 156.535,139.021 156.535,138.786L156.535,56.029C156.535,51.178 160.473,47.24 165.323,47.24C170.173,47.24 174.111,51.178 174.111,56.029L174.111,145.161C174.111,149.436 177.582,152.907 181.857,152.907C186.133,152.907 189.604,149.436 189.604,145.161L189.604,56.029Z" style="fill:white;"/>
        </g>
        <g transform="matrix(0.879751,0,0,0.740964,133.382,60.7146)">
            <path d="M163.535,172.386C152.56,64.886 194.941,42.666 205.056,46.587C216.776,51.129 210.916,185.966 210.916,200.993C210.916,230.275 217.582,397.771 217.582,441.659C217.582,472.406 179.201,472.466 179.201,441.719C179.201,413.775 188.665,335.004 188.665,274.303C188.665,266.364 167.954,215.673 163.535,172.386Z" style="fill:white;"/>
        </g>
    </g>
</svg>
