<?xml version="1.0" encoding="UTF-8" standalone="no"?>
<!DOCTYPE svg PUBLIC "-//W3C//DTD SVG 1.1//EN" "http://www.w3.org/Graphics/SVG/1.1/DTD/svg11.dtd">
<svg width="100%" height="100%" viewBox="0 0 500 500" version="1.1" xmlns="http://www.w3.org/2000/svg" xmlns:xlink="http://www.w3.org/1999/xlink" xml:space="preserve" xmlns:serif="http://www.serif.com/" style="fill-rule:evenodd;clip-rule:evenodd;stroke-linejoin:round;stroke-miterlimit:2;">
    <g>
        <g transform="matrix(3.12689,0,0,3.12689,-703.674,-339.054)">
            <path d="M378.534,149.063C378.534,130.176 363.199,114.841 344.311,114.841L265.671,114.841C246.783,114.841 231.449,130.176 231.449,149.063L231.449,227.703C231.449,246.591 246.783,261.926 265.671,261.926L344.311,261.926C363.199,261.926 378.534,246.591 378.534,227.703L378.534,149.063Z" style="fill:rgb(52,55,61);"/>
        </g>
        <g transform="matrix(0.79608,-0.79608,1.05352,1.05352,-208.333,131.974)">
            <path d="M244.444,274.853C244.444,264.563 233.389,256.209 219.771,256.209C206.154,256.209 195.098,264.563 195.098,274.853L195.098,366.977C195.098,377.267 206.154,385.621 219.771,385.621C233.389,385.621 244.444,377.267 244.444,366.977L244.444,274.853Z" style="fill:rgb(148,148,148);"/>
        </g>
        <g transform="matrix(0.707107,-0.707107,0.707107,0.707107,-107.998,277.084)">
            <circle cx="279.085" cy="208.17" r="98.366" style="fill:rgb(193,193,193);"/>
        </g>
        <g transform="matrix(0.458092,-0.458092,0.458092,0.458092,13.3357,259.425)">
            <circle cx="279.085" cy="208.17" r="98.366" style="fill:rgb(24,194,255);"/>
        </g>
    </g>
</svg>
