<?xml version="1.0" encoding="UTF-8" standalone="no"?>
<!DOCTYPE svg PUBLIC "-//W3C//DTD SVG 1.1//EN" "http://www.w3.org/Graphics/SVG/1.1/DTD/svg11.dtd">
<svg width="100%" height="100%" viewBox="0 0 111 111" version="1.1" xmlns="http://www.w3.org/2000/svg" xmlns:xlink="http://www.w3.org/1999/xlink" xml:space="preserve" xmlns:serif="http://www.serif.com/" style="fill-rule:evenodd;clip-rule:evenodd;stroke-linejoin:round;stroke-miterlimit:2;">
    <g transform="matrix(0.24,0,0,0.24,-4.80982,-4.80982)">
        <g>
            <g transform="matrix(3.12689,0,0,3.12689,-703.674,-339.054)">
                <path d="M378.534,149.063C378.534,130.176 363.199,114.841 344.311,114.841L265.671,114.841C246.783,114.841 231.449,130.176 231.449,149.063L231.449,227.703C231.449,246.591 246.783,261.926 265.671,261.926L344.311,261.926C363.199,261.926 378.534,246.591 378.534,227.703L378.534,149.063Z" style="fill:rgb(79,93,115);"/>
            </g>
            <g transform="matrix(0.470766,5.55112e-17,0,1,133.624,-13.032)">
                <path d="M272.253,295.283C272.253,291.969 266.538,289.279 259.499,289.279L233.99,289.279C226.951,289.279 221.236,291.969 221.236,295.283L221.236,316.02C221.236,319.334 226.951,322.024 233.99,322.024L259.499,322.024C266.538,322.024 272.253,319.334 272.253,316.02L272.253,295.283Z" style="fill:rgb(50,50,50);"/>
            </g>
            <g transform="matrix(0.707107,0.707107,-0.707107,0.707107,349.066,-72.0954)">
                <path d="M201.736,339.801C201.736,336.284 198.881,333.429 195.364,333.429C191.847,333.429 188.992,336.284 188.992,339.801L188.992,451.049C188.992,454.566 191.847,457.422 195.364,457.422C198.881,457.422 201.736,454.566 201.736,451.049L201.736,339.801Z" style="fill:rgb(177,177,177);"/>
            </g>
            <g transform="matrix(-0.707107,0.707107,0.707107,0.707107,150.499,-72.0954)">
                <path d="M201.736,339.801C201.736,336.284 198.881,333.429 195.364,333.429C191.847,333.429 188.992,336.284 188.992,339.801L188.992,451.049C188.992,454.566 191.847,457.422 195.364,457.422C198.881,457.422 201.736,454.566 201.736,451.049L201.736,339.801Z" style="fill:rgb(177,177,177);"/>
            </g>
            <g transform="matrix(-1,-8.18446e-17,-2.22045e-16,0.737191,445.146,54.1517)">
                <path d="M201.736,342.072C201.736,337.302 198.881,333.429 195.364,333.429C191.847,333.429 188.992,337.302 188.992,342.072L188.992,448.778C188.992,453.548 191.847,457.422 195.364,457.422C198.881,457.422 201.736,453.548 201.736,448.778L201.736,342.072Z" style="fill:rgb(177,177,177);"/>
            </g>
            <g transform="matrix(1.53077,-0.88379,0.173675,0.300814,-326.44,465.795)">
                <path d="M324.403,210.588C324.403,197.342 322.289,186.588 319.686,186.588L277.119,186.588C274.516,186.588 272.403,197.342 272.403,210.588L272.403,282.588C272.403,295.834 274.516,306.588 277.119,306.588L319.686,306.588C322.289,306.588 324.403,295.834 324.403,282.588L324.403,210.588Z" style="fill:rgb(224,181,94);"/>
                <clipPath id="_clip1">
                    <path d="M324.403,210.588C324.403,197.342 322.289,186.588 319.686,186.588L277.119,186.588C274.516,186.588 272.403,197.342 272.403,210.588L272.403,282.588C272.403,295.834 274.516,306.588 277.119,306.588L319.686,306.588C322.289,306.588 324.403,295.834 324.403,282.588L324.403,210.588Z"/>
                </clipPath>
                <g clip-path="url(#_clip1)">
                    <g transform="matrix(1.06173,0,0,1.82399,-1.43971,-203.187)">
                        <path d="M324.403,210.588C324.403,197.342 320.772,186.588 316.3,186.588L280.505,186.588C276.033,186.588 272.403,197.342 272.403,210.588L272.403,282.588C272.403,295.834 276.033,306.588 280.505,306.588L316.3,306.588C320.772,306.588 324.403,295.834 324.403,282.588L324.403,210.588Z" style="fill:rgb(174,129,36);"/>
                    </g>
                </g>
            </g>
            <g transform="matrix(0.270877,-0.156391,0.217804,0.377248,3.25552,250.315)">
                <path d="M324.403,205.257C324.403,194.953 312.752,186.588 298.403,186.588C284.053,186.588 272.403,194.953 272.403,205.257L272.403,287.919C272.403,298.223 284.053,306.588 298.403,306.588C312.752,306.588 324.403,298.223 324.403,287.919L324.403,205.257Z" style="fill:white;"/>
            </g>
            <g transform="matrix(1.62526,-0.938345,0.316782,0.548683,-357.005,401.946)">
                <path d="M324.403,210.588C324.403,197.342 320.772,186.588 316.3,186.588L280.505,186.588C276.033,186.588 272.403,197.342 272.403,210.588L272.403,282.588C272.403,295.834 276.033,306.588 280.505,306.588L316.3,306.588C320.772,306.588 324.403,295.834 324.403,282.588L324.403,210.588Z" style="fill:rgb(224,181,94);"/>
                <clipPath id="_clip2">
                    <path d="M324.403,210.588C324.403,197.342 320.772,186.588 316.3,186.588L280.505,186.588C276.033,186.588 272.403,197.342 272.403,210.588L272.403,282.588C272.403,295.834 276.033,306.588 280.505,306.588L316.3,306.588C320.772,306.588 324.403,295.834 324.403,282.588L324.403,210.588Z"/>
                </clipPath>
                <g clip-path="url(#_clip2)">
                    <g transform="matrix(1.48837,0,0,1.37313,-103.867,-92.0105)">
                        <path d="M324.403,204.588C324.403,194.654 321.891,186.588 318.796,186.588L278.009,186.588C274.915,186.588 272.403,194.654 272.403,204.588L272.403,288.588C272.403,298.523 274.915,306.588 278.009,306.588L318.796,306.588C321.891,306.588 324.403,298.523 324.403,288.588L324.403,204.588Z" style="fill:rgb(174,129,36);"/>
                    </g>
                </g>
            </g>
            <g transform="matrix(2.41899,-1.39661,0.434985,0.753416,-546.843,444.236)">
                <path d="M324.403,204.588C324.403,194.654 321.891,186.588 318.796,186.588L278.009,186.588C274.915,186.588 272.403,194.654 272.403,204.588L272.403,288.588C272.403,298.523 274.915,306.588 278.009,306.588L318.796,306.588C321.891,306.588 324.403,298.523 324.403,288.588L324.403,204.588Z" style="fill:rgb(224,181,94);"/>
                <clipPath id="_clip3">
                    <path d="M324.403,204.588C324.403,194.654 321.891,186.588 318.796,186.588L278.009,186.588C274.915,186.588 272.403,194.654 272.403,204.588L272.403,288.588C272.403,298.523 274.915,306.588 278.009,306.588L318.796,306.588C321.891,306.588 324.403,298.523 324.403,288.588L324.403,204.588Z"/>
                </clipPath>
                <g clip-path="url(#_clip3)">
                    <g transform="matrix(0.40625,0,0,1.30435,199.82,-75.0486)">
                        <path d="M324.403,199.588C324.403,192.413 318.578,186.588 311.403,186.588L285.403,186.588C278.228,186.588 272.403,192.413 272.403,199.588L272.403,293.588C272.403,300.763 278.228,306.588 285.403,306.588L311.403,306.588C318.578,306.588 324.403,300.763 324.403,293.588L324.403,199.588Z" style="fill:rgb(174,129,36);"/>
                    </g>
                </g>
            </g>
            <g transform="matrix(0.982716,-0.567372,0.567372,0.982716,-88.0054,103.936)">
                <path d="M324.403,199.588C324.403,192.413 318.578,186.588 311.403,186.588L285.403,186.588C278.228,186.588 272.403,192.413 272.403,199.588L272.403,293.588C272.403,300.763 278.228,306.588 285.403,306.588L311.403,306.588C318.578,306.588 324.403,300.763 324.403,293.588L324.403,199.588Z" style="fill:white;"/>
            </g>
        </g>
    </g>
</svg>
