<?xml version="1.0" encoding="UTF-8" standalone="no"?>
<!DOCTYPE svg PUBLIC "-//W3C//DTD SVG 1.1//EN" "http://www.w3.org/Graphics/SVG/1.1/DTD/svg11.dtd">
<svg width="100%" height="100%" viewBox="0 0 111 111" version="1.1" xmlns="http://www.w3.org/2000/svg" xmlns:xlink="http://www.w3.org/1999/xlink" xml:space="preserve" xmlns:serif="http://www.serif.com/" style="fill-rule:evenodd;clip-rule:evenodd;stroke-linejoin:round;stroke-miterlimit:2;">
    <g transform="matrix(0.24,0,0,0.24,-4.80982,-4.80982)">
        <g>
            <g transform="matrix(3.12689,0,0,3.12689,-703.674,-339.054)">
                <path d="M378.534,149.063C378.534,130.176 363.199,114.841 344.311,114.841L265.671,114.841C246.783,114.841 231.449,130.176 231.449,149.063L231.449,227.703C231.449,246.591 246.783,261.926 265.671,261.926L344.311,261.926C363.199,261.926 378.534,246.591 378.534,227.703L378.534,149.063Z" style="fill:white;"/>
            </g>
            <path d="M241.731,93.965L241.731,250L241.731,250.023C241.735,251.218 241.992,252.353 242.452,253.379C242.984,254.572 243.808,255.656 244.909,256.515L367.856,352.544C339.195,385.447 297.008,406.25 250,406.25C163.763,406.25 93.75,336.237 93.75,250C93.75,166.54 159.327,98.276 241.731,93.965Z" style="fill:rgb(119,179,212);"/>
            <path d="M378.046,339.52L274.02,258.269L406.035,258.269C404.459,288.396 394.335,316.274 378.046,339.52Z" style="fill:rgb(232,160,69);"/>
            <path d="M258.269,93.965C337.937,98.133 401.877,162.078 406.035,241.731L258.269,241.731L258.269,93.965Z" style="fill:rgb(63,104,127);"/>
        </g>
    </g>
</svg>
