<?xml version="1.0" encoding="UTF-8" standalone="no"?>
<!DOCTYPE svg PUBLIC "-//W3C//DTD SVG 1.1//EN" "http://www.w3.org/Graphics/SVG/1.1/DTD/svg11.dtd">
<svg width="100%" height="100%" viewBox="0 0 111 111" version="1.1" xmlns="http://www.w3.org/2000/svg" xmlns:xlink="http://www.w3.org/1999/xlink" xml:space="preserve" xmlns:serif="http://www.serif.com/" style="fill-rule:evenodd;clip-rule:evenodd;stroke-linejoin:round;stroke-miterlimit:2;">
    <g transform="matrix(0.24,0,0,0.24,-4.80982,-4.80982)">
        <g>
            <g transform="matrix(3.12689,0,0,3.12689,-703.674,-339.054)">
                <path d="M378.534,149.063C378.534,130.176 363.199,114.841 344.311,114.841L265.671,114.841C246.783,114.841 231.449,130.176 231.449,149.063L231.449,227.703C231.449,246.591 246.783,261.926 265.671,261.926L344.311,261.926C363.199,261.926 378.534,246.591 378.534,227.703L378.534,149.063Z" style="fill:rgb(245,207,135);"/>
            </g>
            <g transform="matrix(2.10666,-2.10666,2.10666,2.10666,-713.876,175.653)">
                <path d="M205.5,215.882L205.5,257L215.5,257L215.5,215.882L219.535,210.944L216.084,193.056L204.916,193.056L201.465,210.944L205.5,215.882Z" style="fill:rgb(113,113,113);"/>
            </g>
            <g transform="matrix(2.10666,-2.10666,2.10666,2.10666,-671.233,220.403)">
                <path d="M222,230.258L200,230.258L200,271.253C200,277.324 204.929,282.253 211,282.253C217.071,282.253 222,277.324 222,271.253L222,230.258Z" style="fill:rgb(251,95,88);"/>
            </g>
            <g transform="matrix(2.10666,-2.10666,2.10666,2.10666,-720.994,221.345)">
                <path d="M240.019,227.5C243.346,219.573 251.184,214 260.314,214C269.822,214 277.93,220.045 281,228.5L259.814,228.5C255.674,228.5 252.314,231.861 252.314,236C252.314,240.139 255.674,243.5 259.814,243.5L281,243.5C277.93,251.955 269.822,258 260.314,258C251.184,258 243.346,252.427 240.019,244.5L207.295,244.5C203.968,252.427 196.13,258 187,258C177.491,258 169.384,251.955 166.314,243.5L187.5,243.5C191.639,243.5 195,240.139 195,236C195,231.861 191.639,228.5 187.5,228.5L166.314,228.5C169.384,220.045 177.491,214 187,214C196.13,214 203.968,219.573 207.295,227.5L240.019,227.5Z" style="fill:rgb(59,59,59);"/>
            </g>
        </g>
    </g>
</svg>
