<?xml version="1.0" encoding="UTF-8" standalone="no"?>
<!DOCTYPE svg PUBLIC "-//W3C//DTD SVG 1.1//EN" "http://www.w3.org/Graphics/SVG/1.1/DTD/svg11.dtd">
<svg width="100%" height="100%" viewBox="0 0 500 500" version="1.1" xmlns="http://www.w3.org/2000/svg" xmlns:xlink="http://www.w3.org/1999/xlink" xml:space="preserve" xmlns:serif="http://www.serif.com/" style="fill-rule:evenodd;clip-rule:evenodd;stroke-linejoin:round;stroke-miterlimit:2;">
    <g>
        <g transform="matrix(3.12689,0,0,3.12689,-703.674,-339.054)">
            <path d="M378.534,149.063C378.534,130.176 363.199,114.841 344.311,114.841L265.671,114.841C246.783,114.841 231.449,130.176 231.449,149.063L231.449,227.703C231.449,246.591 246.783,261.926 265.671,261.926L344.311,261.926C363.199,261.926 378.534,246.591 378.534,227.703L378.534,149.063Z" style="fill:rgb(155,120,254);"/>
        </g>
        <g transform="matrix(0.680551,0,0,0.680551,138.135,102.84)">
            <circle cx="318.684" cy="354.088" r="47.924" style="fill:rgb(37,38,42);"/>
        </g>
        <g transform="matrix(0.310482,0,0,0.310482,256.07,233.877)">
            <circle cx="318.684" cy="354.088" r="47.924" style="fill:rgb(150,150,150);"/>
        </g>
        <g transform="matrix(0.680551,0,0,0.680551,-52.4696,102.84)">
            <circle cx="318.684" cy="354.088" r="47.924" style="fill:rgb(37,38,42);"/>
        </g>
        <g transform="matrix(0.824755,0,0,0.824755,43.2733,44.8683)">
            <path d="M99.356,353.357L89.986,353.357C80.187,353.357 72.23,345.401 72.23,335.601L72.23,322.923C72.23,313.123 80.187,305.166 89.986,305.166L320.681,305.166L320.681,150.499C320.681,140.699 328.637,132.743 338.437,132.743L417.527,132.743C427.327,132.743 435.283,140.699 435.283,150.499L435.283,335.601C435.283,342.675 431.136,348.789 425.142,351.642C420.219,330.144 400.961,314.089 377.982,314.089C354.394,314.089 334.727,331.006 330.461,353.357L194.397,353.357C190.132,331.006 170.464,314.089 146.877,314.089C123.289,314.089 103.622,331.006 99.356,353.357Z" style="fill:white;"/>
        </g>
        <g transform="matrix(0.824755,0,0,0.824755,43.2733,44.8683)">
            <path d="M106.84,335.316C101.576,343.059 98.498,352.406 98.498,362.467L79.018,362.467C75.272,362.467 72.23,359.426 72.23,355.679L72.23,342.104C72.23,338.357 75.272,335.316 79.018,335.316L106.84,335.316ZM337.945,335.316C332.681,343.059 329.603,352.406 329.603,362.467L195.256,362.467C195.256,352.406 192.178,343.059 186.914,335.316L337.945,335.316ZM418.019,335.316L428.495,335.316C432.241,335.316 435.283,338.357 435.283,342.104L435.283,355.679C435.283,359.426 432.241,362.467 428.495,362.467L426.361,362.467C426.361,352.406 423.283,343.059 418.019,335.316Z" style="fill:rgb(48,52,57);"/>
        </g>
        <g transform="matrix(0.310482,0,0,0.310482,65.4653,233.877)">
            <circle cx="318.684" cy="354.088" r="47.924" style="fill:rgb(150,150,150);"/>
        </g>
        <g transform="matrix(0.572254,0,0,0.824755,143.715,44.8683)">
            <path d="M426.237,158.915C426.237,155.836 422.635,153.337 418.198,153.337L353.887,153.337C349.45,153.337 345.848,155.836 345.848,158.915L345.848,244.422C345.848,247.501 349.45,250 353.887,250L418.198,250C422.635,250 426.237,247.501 426.237,244.422L426.237,158.915Z" style="fill:rgb(174,226,255);"/>
        </g>
        <g transform="matrix(0.775704,0,0,0.824755,73.9575,27.0579)">
            <path d="M435.283,207.327C435.283,204.204 432.587,201.669 429.267,201.669L417.235,201.669C413.915,201.669 411.219,204.204 411.219,207.327L411.219,258.986C411.219,262.109 413.915,264.645 417.235,264.645L429.267,264.645C432.587,264.645 435.283,262.109 435.283,258.986L435.283,207.327Z" style="fill:rgb(48,52,57);"/>
        </g>
        <g transform="matrix(0.824755,0,0,0.824755,43.2733,44.8683)">
            <path d="M68.724,305.166L320.681,305.166L320.681,131.514C320.681,119.668 311.064,110.051 299.218,110.051L68.724,110.051C56.879,110.051 47.261,119.668 47.261,131.514L47.261,283.704C47.261,295.549 56.879,305.166 68.724,305.166Z" style="fill:rgb(17,191,255);"/>
        </g>
    </g>
</svg>
