<?xml version="1.0" encoding="UTF-8" standalone="no"?>
<!DOCTYPE svg PUBLIC "-//W3C//DTD SVG 1.1//EN" "http://www.w3.org/Graphics/SVG/1.1/DTD/svg11.dtd">
<svg width="100%" height="100%" viewBox="0 0 111 111" version="1.1" xmlns="http://www.w3.org/2000/svg" xmlns:xlink="http://www.w3.org/1999/xlink" xml:space="preserve" xmlns:serif="http://www.serif.com/" style="fill-rule:evenodd;clip-rule:evenodd;stroke-linejoin:round;stroke-miterlimit:2;">
    <g transform="matrix(0.24,0,0,0.24,-4.80982,-4.80982)">
        <g>
            <g transform="matrix(3.12689,0,0,3.12689,-703.674,-339.054)">
                <path d="M378.534,149.063C378.534,130.176 363.199,114.841 344.311,114.841L265.671,114.841C246.783,114.841 231.449,130.176 231.449,149.063L231.449,227.703C231.449,246.591 246.783,261.926 265.671,261.926L344.311,261.926C363.199,261.926 378.534,246.591 378.534,227.703L378.534,149.063Z" style="fill:rgb(52,55,61);"/>
            </g>
            <g transform="matrix(0.82556,-0.82556,0.707107,0.707107,-59.6685,247.663)">
                <path d="M246.873,84.68C246.873,78.665 242.691,73.783 237.54,73.783C232.388,73.783 228.206,78.665 228.206,84.68L228.206,192.219C228.206,198.233 232.388,203.116 237.54,203.116C242.691,203.116 246.873,198.233 246.873,192.219L246.873,84.68Z" style="fill:rgb(245,244,247);"/>
            </g>
            <g transform="matrix(-0.82556,-0.82556,-0.707107,0.707107,559.668,247.663)">
                <path d="M246.873,84.68C246.873,78.665 242.691,73.783 237.54,73.783C232.388,73.783 228.206,78.665 228.206,84.68L228.206,192.219C228.206,198.233 232.388,203.116 237.54,203.116C242.691,203.116 246.873,198.233 246.873,192.219L246.873,84.68Z" style="fill:rgb(245,244,247);"/>
            </g>
            <g transform="matrix(1,0,0,1,3.12701,11.0084)">
                <path d="M392.206,172.866C392.206,154.239 377.084,139.116 358.457,139.116L135.289,139.116C116.662,139.116 101.54,154.239 101.54,172.866L101.54,314.7C101.54,333.327 116.662,348.449 135.289,348.449L358.457,348.449C377.084,348.449 392.206,333.327 392.206,314.7L392.206,172.866Z" style="fill:rgb(245,244,247);"/>
            </g>
            <g transform="matrix(0.813164,0,0,0.932263,29.1845,27.8227)">
                <path d="M358.206,317.449C342.553,338.539 150.704,337.881 135.54,317.449C126.394,305.127 121.756,274.583 121.626,243.783L121.63,243.061C121.828,212.507 126.465,182.342 135.54,170.116C151.589,148.493 342.157,148.493 358.206,170.116C367.281,182.342 371.918,212.507 372.116,243.061L372.12,243.783C371.99,274.583 367.352,305.127 358.206,317.449Z" style="fill:rgb(110,188,223);"/>
            </g>
            <g transform="matrix(1,0,0,1,1.79368,28.3048)">
                <circle cx="359.331" cy="205.053" r="17.688" style="fill:rgb(97,117,134);"/>
            </g>
            <g transform="matrix(1,0,0,1,1.79368,83.6063)">
                <circle cx="359.331" cy="205.053" r="17.688" style="fill:rgb(97,117,134);"/>
            </g>
        </g>
    </g>
</svg>
