<?xml version="1.0" encoding="UTF-8" standalone="no"?>
<!DOCTYPE svg PUBLIC "-//W3C//DTD SVG 1.1//EN" "http://www.w3.org/Graphics/SVG/1.1/DTD/svg11.dtd">
<svg width="100%" height="100%" viewBox="0 0 24 24" version="1.1" xmlns="http://www.w3.org/2000/svg" xmlns:xlink="http://www.w3.org/1999/xlink" xml:space="preserve" xmlns:serif="http://www.serif.com/" style="fill-rule:evenodd;clip-rule:evenodd;stroke-linejoin:round;stroke-miterlimit:2;">
    <g transform="matrix(0.048,0,0,0.048,0.275615,-0.088395)">
        <path d="M200.617,198.392L200.617,314.236C200.617,327.323 205.921,339.181 214.495,347.776L214.578,347.859C223.172,356.432 235.03,361.736 248.117,361.736L311.116,361.736L348.266,426.082C361.374,448.786 390.448,456.576 413.152,443.468C435.856,430.36 443.646,401.286 430.538,378.582L379.677,290.487C370.481,274.56 353.429,265.972 336.231,266.79C335.478,266.754 334.722,266.736 333.962,266.736L295.617,266.736L295.617,198.392C295.617,172.176 274.333,150.892 248.117,150.892C221.901,150.892 200.617,172.176 200.617,198.392ZM246.929,331.674C247.427,331.715 247.93,331.736 248.438,331.736L328.436,331.736L374.235,411.063C379.065,419.427 389.776,422.298 398.141,417.468C406.505,412.639 409.376,401.927 404.546,393.563L353.707,305.506C350.24,299.501 343.741,296.328 337.256,296.803C336.743,296.759 336.224,296.736 335.699,296.736L265.617,296.736L265.617,198.414C265.617,188.755 257.776,180.914 248.117,180.914C238.459,180.914 230.617,188.755 230.617,198.414L230.617,314.214C230.617,323.474 237.824,331.063 246.929,331.674Z"/>
    </g>
    <g transform="matrix(0.048,0,0,0.048,0.275615,-0.088395)">
        <path d="M248.117,30.178C278.473,30.178 303.117,54.823 303.117,85.178C303.117,115.534 278.473,140.178 248.117,140.178C217.762,140.178 193.117,115.534 193.117,85.178C193.117,54.823 217.762,30.178 248.117,30.178ZM248.117,60.178C261.915,60.178 273.117,71.38 273.117,85.178C273.117,98.976 261.915,110.178 248.117,110.178C234.319,110.178 223.117,98.976 223.117,85.178C223.117,71.38 234.319,60.178 248.117,60.178Z"/>
    </g>
    <g transform="matrix(0.048,0,0,0.048,0.275615,-0.088395)">
        <path d="M170.617,209.185L170.617,239.387C120.411,246.006 81.613,289.01 81.613,341.005C81.613,397.576 127.542,443.505 184.113,443.505C222.186,443.505 255.438,422.702 273.113,391.854L293.866,391.854L300.78,403.829C278.379,445.304 234.514,473.505 184.113,473.505C110.985,473.505 51.613,414.134 51.613,341.005C51.613,272.432 103.817,215.956 170.617,209.185Z"/>
    </g>
</svg>
