<?xml version="1.0" encoding="UTF-8" standalone="no"?>
<!DOCTYPE svg PUBLIC "-//W3C//DTD SVG 1.1//EN" "http://www.w3.org/Graphics/SVG/1.1/DTD/svg11.dtd">
<svg width="100%" height="100%" viewBox="0 0 24 24" version="1.1" xmlns="http://www.w3.org/2000/svg" xmlns:xlink="http://www.w3.org/1999/xlink" xml:space="preserve" xmlns:serif="http://www.serif.com/" style="fill-rule:evenodd;clip-rule:evenodd;stroke-linejoin:round;stroke-miterlimit:2;">
    <g transform="matrix(0.048,0,0,0.048,0,0)">
        <path d="M117.5,411.039L87.5,411.039L87.5,463.145C87.5,471.423 94.221,478.145 102.5,478.145C110.779,478.145 117.5,471.423 117.5,463.145L117.5,411.039ZM87.5,344.579L117.5,344.579L117.5,36.855C117.5,28.577 110.779,21.855 102.5,21.855C94.221,21.855 87.5,28.577 87.5,36.855L87.5,344.579Z"/>
    </g>
    <g transform="matrix(0.0344184,0,0,0.0101473,-1.3633,15.598)">
        <path d="M130.658,92.81C130.658,53.649 121.285,21.855 109.739,21.855C98.194,21.855 88.82,53.649 88.82,92.81L88.82,407.19C88.82,446.351 98.194,478.145 109.739,478.145C121.285,478.145 130.658,446.351 130.658,407.19L130.658,92.81Z"/>
    </g>
    <g transform="matrix(0.0344184,0,0,0.0101473,3.64921,15.598)">
        <path d="M130.658,92.81C130.658,53.649 121.285,21.855 109.739,21.855C98.194,21.855 88.82,53.649 88.82,92.81L88.82,407.19C88.82,446.351 98.194,478.145 109.739,478.145C121.285,478.145 130.658,446.351 130.658,407.19L130.658,92.81Z"/>
    </g>
    <g transform="matrix(2.10752e-18,0.0344184,-0.0141413,8.65903e-19,8.45532,12.7627)">
        <path d="M130.658,72.77C130.658,44.67 121.285,21.855 109.739,21.855C98.194,21.855 88.82,44.67 88.82,72.77L88.82,427.23C88.82,455.33 98.194,478.145 109.739,478.145C121.285,478.145 130.658,455.33 130.658,427.23L130.658,72.77Z"/>
    </g>
    <g transform="matrix(2.10752e-18,0.0344184,-0.0141413,8.65903e-19,8.45532,15.9528)">
        <path d="M130.658,72.77C130.658,44.67 121.285,21.855 109.739,21.855C98.194,21.855 88.82,44.67 88.82,72.77L88.82,427.23C88.82,455.33 98.194,478.145 109.739,478.145C121.285,478.145 130.658,455.33 130.658,427.23L130.658,72.77Z"/>
    </g>
    <g transform="matrix(0.048,0,0,0.048,14.16,0)">
        <path d="M117.5,411.039L87.5,411.039L87.5,463.145C87.5,471.423 94.221,478.145 102.5,478.145C110.779,478.145 117.5,471.423 117.5,463.145L117.5,411.039ZM87.5,344.579L117.5,344.579L117.5,36.855C117.5,28.577 110.779,21.855 102.5,21.855C94.221,21.855 87.5,28.577 87.5,36.855L87.5,344.579Z"/>
    </g>
    <g transform="matrix(0.0344184,0,0,0.0101473,12.7967,15.598)">
        <path d="M130.658,92.81C130.658,53.649 121.285,21.855 109.739,21.855C98.194,21.855 88.82,53.649 88.82,92.81L88.82,407.19C88.82,446.351 98.194,478.145 109.739,478.145C121.285,478.145 130.658,446.351 130.658,407.19L130.658,92.81Z"/>
    </g>
    <g transform="matrix(0.0344184,0,0,0.0101473,17.8092,15.598)">
        <path d="M130.658,92.81C130.658,53.649 121.285,21.855 109.739,21.855C98.194,21.855 88.82,53.649 88.82,92.81L88.82,407.19C88.82,446.351 98.194,478.145 109.739,478.145C121.285,478.145 130.658,446.351 130.658,407.19L130.658,92.81Z"/>
    </g>
    <g transform="matrix(2.10752e-18,0.0344184,-0.0141413,8.65903e-19,22.6153,12.7627)">
        <path d="M130.658,72.77C130.658,44.67 121.285,21.855 109.739,21.855C98.194,21.855 88.82,44.67 88.82,72.77L88.82,427.23C88.82,455.33 98.194,478.145 109.739,478.145C121.285,478.145 130.658,455.33 130.658,427.23L130.658,72.77Z"/>
    </g>
    <g transform="matrix(2.10752e-18,0.0344184,-0.0141413,8.65903e-19,22.6153,15.9528)">
        <path d="M130.658,72.77C130.658,44.67 121.285,21.855 109.739,21.855C98.194,21.855 88.82,44.67 88.82,72.77L88.82,427.23C88.82,455.33 98.194,478.145 109.739,478.145C121.285,478.145 130.658,455.33 130.658,427.23L130.658,72.77Z"/>
    </g>
    <g transform="matrix(0.048,0,0,-0.048,7.08,24)">
        <path d="M117.5,411.039L87.5,411.039L87.5,463.145C87.5,471.423 94.221,478.145 102.5,478.145C110.779,478.145 117.5,471.423 117.5,463.145L117.5,411.039ZM87.5,344.579L117.5,344.579L117.5,36.855C117.5,28.577 110.779,21.855 102.5,21.855C94.221,21.855 87.5,28.577 87.5,36.855L87.5,344.579Z"/>
    </g>
    <g transform="matrix(0.0344184,0,0,-0.0101473,5.7167,8.402)">
        <path d="M130.658,92.81C130.658,53.649 121.285,21.855 109.739,21.855C98.194,21.855 88.82,53.649 88.82,92.81L88.82,407.19C88.82,446.351 98.194,478.145 109.739,478.145C121.285,478.145 130.658,446.351 130.658,407.19L130.658,92.81Z"/>
    </g>
    <g transform="matrix(0.0344184,0,0,-0.0101473,10.7292,8.402)">
        <path d="M130.658,92.81C130.658,53.649 121.285,21.855 109.739,21.855C98.194,21.855 88.82,53.649 88.82,92.81L88.82,407.19C88.82,446.351 98.194,478.145 109.739,478.145C121.285,478.145 130.658,446.351 130.658,407.19L130.658,92.81Z"/>
    </g>
    <g transform="matrix(2.10752e-18,-0.0344184,-0.0141413,-8.65903e-19,15.5353,11.2373)">
        <path d="M130.658,72.77C130.658,44.67 121.285,21.855 109.739,21.855C98.194,21.855 88.82,44.67 88.82,72.77L88.82,427.23C88.82,455.33 98.194,478.145 109.739,478.145C121.285,478.145 130.658,455.33 130.658,427.23L130.658,72.77Z"/>
    </g>
    <g transform="matrix(2.10752e-18,-0.0344184,-0.0141413,-8.65903e-19,15.5353,8.04716)">
        <path d="M130.658,72.77C130.658,44.67 121.285,21.855 109.739,21.855C98.194,21.855 88.82,44.67 88.82,72.77L88.82,427.23C88.82,455.33 98.194,478.145 109.739,478.145C121.285,478.145 130.658,455.33 130.658,427.23L130.658,72.77Z"/>
    </g>
</svg>
