<?xml version="1.0" encoding="UTF-8" standalone="no"?>
<!DOCTYPE svg PUBLIC "-//W3C//DTD SVG 1.1//EN" "http://www.w3.org/Graphics/SVG/1.1/DTD/svg11.dtd">
<svg width="100%" height="100%" viewBox="0 0 24 24" version="1.1" xmlns="http://www.w3.org/2000/svg" xmlns:xlink="http://www.w3.org/1999/xlink" xml:space="preserve" xmlns:serif="http://www.serif.com/" style="fill-rule:evenodd;clip-rule:evenodd;stroke-linejoin:round;stroke-miterlimit:2;">
    <g transform="matrix(0.048009,2.93971e-18,3.15251e-18,0.0772267,0.196672,-13.741)">
        <path d="M465.815,463.052C465.815,457.907 459.095,453.729 450.818,453.729L40.895,453.729C32.618,453.729 25.898,457.907 25.898,463.052C25.898,468.198 32.618,472.376 40.895,472.376L450.818,472.376C459.095,472.376 465.815,468.198 465.815,463.052Z"/>
    </g>
    <g transform="matrix(0.0217108,1.3294e-18,3.15251e-18,0.0772267,0.877739,-16.141)">
        <path d="M465.815,463.052C465.815,457.907 450.955,453.729 432.652,453.729L59.061,453.729C40.758,453.729 25.898,457.907 25.898,463.052C25.898,468.198 40.758,472.376 59.061,472.376L432.652,472.376C450.955,472.376 465.815,468.198 465.815,463.052Z"/>
    </g>
    <g transform="matrix(0.0217108,1.3294e-18,3.15251e-18,0.0772267,0.877739,-34.1794)">
        <path d="M465.815,463.052C465.815,457.907 450.955,453.729 432.652,453.729L59.061,453.729C40.758,453.729 25.898,457.907 25.898,463.052C25.898,468.198 40.758,472.376 59.061,472.376L432.652,472.376C450.955,472.376 465.815,468.198 465.815,463.052Z"/>
    </g>
    <g transform="matrix(5.222e-18,0.0442776,-0.0772267,1.73555e-18,37.92,-0.286138)">
        <path d="M465.815,463.052C465.815,457.907 458.529,453.729 449.554,453.729L42.159,453.729C33.184,453.729 25.898,457.907 25.898,463.052C25.898,468.198 33.184,472.376 42.159,472.376L449.554,472.376C458.529,472.376 465.815,468.198 465.815,463.052Z"/>
    </g>
    <g transform="matrix(5.222e-18,0.0442776,-0.0772267,1.73555e-18,46.0309,-0.286138)">
        <path d="M465.815,463.052C465.815,457.907 458.529,453.729 449.554,453.729L42.159,453.729C33.184,453.729 25.898,457.907 25.898,463.052C25.898,468.198 33.184,472.376 42.159,472.376L449.554,472.376C458.529,472.376 465.815,468.198 465.815,463.052Z"/>
    </g>
    <g transform="matrix(0.0217108,1.3294e-18,3.15251e-18,0.0772267,12.4468,-16.141)">
        <path d="M465.815,463.052C465.815,457.907 450.955,453.729 432.652,453.729L59.061,453.729C40.758,453.729 25.898,457.907 25.898,463.052C25.898,468.198 40.758,472.376 59.061,472.376L432.652,472.376C450.955,472.376 465.815,468.198 465.815,463.052Z"/>
    </g>
    <g transform="matrix(0.0217108,1.3294e-18,3.15251e-18,0.0772267,12.4468,-22.5109)">
        <path d="M465.815,463.052C465.815,457.907 450.955,453.729 432.652,453.729L59.061,453.729C40.758,453.729 25.898,457.907 25.898,463.052C25.898,468.198 40.758,472.376 59.061,472.376L432.652,472.376C450.955,472.376 465.815,468.198 465.815,463.052Z"/>
    </g>
    <g transform="matrix(1.97371e-18,0.0177532,-0.0772267,1.98914e-18,49.4891,12.0693)">
        <path d="M465.815,463.052C465.815,457.907 447.642,453.729 425.259,453.729L66.454,453.729C44.07,453.729 25.898,457.907 25.898,463.052C25.898,468.198 44.07,472.376 66.454,472.376L425.259,472.376C447.642,472.376 465.815,468.198 465.815,463.052Z"/>
    </g>
    <g transform="matrix(1.97371e-18,0.0177532,-0.0772267,1.98914e-18,57.6,12.0693)">
        <path d="M465.815,463.052C465.815,457.907 447.642,453.729 425.259,453.729L66.454,453.729C44.07,453.729 25.898,457.907 25.898,463.052C25.898,468.198 44.07,472.376 66.454,472.376L425.259,472.376C447.642,472.376 465.815,468.198 465.815,463.052Z"/>
    </g>
</svg>
