<?xml version="1.0" encoding="UTF-8" standalone="no"?>
<!DOCTYPE svg PUBLIC "-//W3C//DTD SVG 1.1//EN" "http://www.w3.org/Graphics/SVG/1.1/DTD/svg11.dtd">
<svg width="100%" height="100%" viewBox="0 0 24 24" version="1.1" xmlns="http://www.w3.org/2000/svg" xmlns:xlink="http://www.w3.org/1999/xlink" xml:space="preserve" xmlns:serif="http://www.serif.com/" style="fill-rule:evenodd;clip-rule:evenodd;stroke-linejoin:round;stroke-miterlimit:2;">
    <g transform="matrix(0.048,0,0,0.048,1.03093,-7.34138)">
        <path d="M63,190.934C88.242,190.934 108.736,211.427 108.736,236.669C108.736,261.911 88.242,282.404 63,282.404C37.758,282.404 17.265,261.911 17.265,236.669C17.265,211.427 37.758,190.934 63,190.934ZM63,210.934C77.204,210.934 88.736,222.466 88.736,236.669C88.736,250.873 77.204,262.404 63,262.404C48.797,262.404 37.265,250.873 37.265,236.669C37.265,222.466 48.797,210.934 63,210.934Z"/>
    </g>
    <g transform="matrix(0.048,0,0,0.048,8.97598,-7.34138)">
        <path d="M63,190.934C88.242,190.934 108.736,211.427 108.736,236.669C108.736,261.911 88.242,282.404 63,282.404C37.758,282.404 17.265,261.911 17.265,236.669C17.265,211.427 37.758,190.934 63,190.934ZM63,210.934C77.204,210.934 88.736,222.466 88.736,236.669C88.736,250.873 77.204,262.404 63,262.404C48.797,262.404 37.265,250.873 37.265,236.669C37.265,222.466 48.797,210.934 63,210.934Z"/>
    </g>
    <g transform="matrix(0.048,0,0,0.048,16.921,-7.34138)">
        <path d="M63,190.934C88.242,190.934 108.736,211.427 108.736,236.669C108.736,261.911 88.242,282.404 63,282.404C37.758,282.404 17.265,261.911 17.265,236.669C17.265,211.427 37.758,190.934 63,190.934ZM63,210.934C77.204,210.934 88.736,222.466 88.736,236.669C88.736,250.873 77.204,262.404 63,262.404C48.797,262.404 37.265,250.873 37.265,236.669C37.265,222.466 48.797,210.934 63,210.934Z"/>
    </g>
    <g transform="matrix(0.048,0,0,0.048,1.03093,0.725811)">
        <path d="M63,190.934C88.242,190.934 108.736,211.427 108.736,236.669C108.736,261.911 88.242,282.404 63,282.404C37.758,282.404 17.265,261.911 17.265,236.669C17.265,211.427 37.758,190.934 63,190.934ZM63,210.934C77.204,210.934 88.736,222.466 88.736,236.669C88.736,250.873 77.204,262.404 63,262.404C48.797,262.404 37.265,250.873 37.265,236.669C37.265,222.466 48.797,210.934 63,210.934Z"/>
    </g>
    <g transform="matrix(0.048,0,0,0.048,8.97598,0.725811)">
        <path d="M63,190.934C88.242,190.934 108.736,211.427 108.736,236.669C108.736,261.911 88.242,282.404 63,282.404C37.758,282.404 17.265,261.911 17.265,236.669C17.265,211.427 37.758,190.934 63,190.934ZM63,210.934C77.204,210.934 88.736,222.466 88.736,236.669C88.736,250.873 77.204,262.404 63,262.404C48.797,262.404 37.265,250.873 37.265,236.669C37.265,222.466 48.797,210.934 63,210.934Z"/>
    </g>
    <g transform="matrix(0.048,0,0,0.048,16.921,0.725811)">
        <path d="M63,190.934C88.242,190.934 108.736,211.427 108.736,236.669C108.736,261.911 88.242,282.404 63,282.404C37.758,282.404 17.265,261.911 17.265,236.669C17.265,211.427 37.758,190.934 63,190.934ZM63,210.934C77.204,210.934 88.736,222.466 88.736,236.669C88.736,250.873 77.204,262.404 63,262.404C48.797,262.404 37.265,250.873 37.265,236.669C37.265,222.466 48.797,210.934 63,210.934Z"/>
    </g>
    <g transform="matrix(0.048,0,0,0.048,1.03093,8.793)">
        <path d="M63,190.934C88.242,190.934 108.736,211.427 108.736,236.669C108.736,261.911 88.242,282.404 63,282.404C37.758,282.404 17.265,261.911 17.265,236.669C17.265,211.427 37.758,190.934 63,190.934ZM63,210.934C77.204,210.934 88.736,222.466 88.736,236.669C88.736,250.873 77.204,262.404 63,262.404C48.797,262.404 37.265,250.873 37.265,236.669C37.265,222.466 48.797,210.934 63,210.934Z"/>
    </g>
    <g transform="matrix(0.048,0,0,0.048,8.97598,8.793)">
        <path d="M63,190.934C88.242,190.934 108.736,211.427 108.736,236.669C108.736,261.911 88.242,282.404 63,282.404C37.758,282.404 17.265,261.911 17.265,236.669C17.265,211.427 37.758,190.934 63,190.934ZM63,210.934C77.204,210.934 88.736,222.466 88.736,236.669C88.736,250.873 77.204,262.404 63,262.404C48.797,262.404 37.265,250.873 37.265,236.669C37.265,222.466 48.797,210.934 63,210.934Z"/>
    </g>
    <g transform="matrix(0.048,0,0,0.048,16.921,8.793)">
        <path d="M63,190.934C88.242,190.934 108.736,211.427 108.736,236.669C108.736,261.911 88.242,282.404 63,282.404C37.758,282.404 17.265,261.911 17.265,236.669C17.265,211.427 37.758,190.934 63,190.934ZM63,210.934C77.204,210.934 88.736,222.466 88.736,236.669C88.736,250.873 77.204,262.404 63,262.404C48.797,262.404 37.265,250.873 37.265,236.669C37.265,222.466 48.797,210.934 63,210.934Z"/>
    </g>
</svg>
