<?xml version="1.0" encoding="UTF-8" standalone="no"?>
<!DOCTYPE svg PUBLIC "-//W3C//DTD SVG 1.1//EN" "http://www.w3.org/Graphics/SVG/1.1/DTD/svg11.dtd">
<svg width="100%" height="100%" viewBox="0 0 24 24" version="1.1" xmlns="http://www.w3.org/2000/svg" xmlns:xlink="http://www.w3.org/1999/xlink" xml:space="preserve" xmlns:serif="http://www.serif.com/" style="fill-rule:evenodd;clip-rule:evenodd;stroke-linejoin:round;stroke-miterlimit:2;">
    <g transform="matrix(0.048,0,0,0.048,-1.07852,-0.3707)">
        <path d="M272.469,37.723C393.89,37.723 492.469,136.302 492.469,257.723C492.469,379.144 393.89,477.723 272.469,477.723C151.048,477.723 52.469,379.144 52.469,257.723C52.469,136.302 151.048,37.723 272.469,37.723ZM272.469,67.723C377.333,67.723 462.469,152.859 462.469,257.723C462.469,362.587 377.333,447.723 272.469,447.723C167.605,447.723 82.469,362.587 82.469,257.723C82.469,152.859 167.605,67.723 272.469,67.723Z"/>
    </g>
    <g transform="matrix(0.048,0,0,0.048,0.65058,0.0822465)">
        <path d="M93.703,209.119L319.565,131.045C325.157,129.112 331.118,130.683 335.051,134.593L335.072,134.613L335.096,134.637L335.12,134.661L335.14,134.681C339.049,138.615 340.62,144.576 338.688,150.168L260.614,376.029C260.471,376.463 260.308,376.89 260.127,377.307L260.12,377.324L260.085,377.402L260.07,377.437L260.066,377.445C259.302,379.169 258.241,380.686 256.967,381.957C254.868,384.061 252.125,385.564 248.979,386.122C245.64,386.713 242.361,386.149 239.555,384.716L239.527,384.702L239.49,384.683L239.463,384.669L239.44,384.657C238.054,383.938 236.818,383.022 235.754,381.956C233.651,379.856 232.149,377.114 231.591,373.969L211.143,258.59L95.763,238.142C92.619,237.584 89.876,236.082 87.777,233.979C86.711,232.915 85.794,231.679 85.076,230.293L85.063,230.27L85.049,230.242L85.031,230.206L85.017,230.178C83.584,227.372 83.019,224.093 83.611,220.754C84.169,217.608 85.672,214.864 87.776,212.766C89.047,211.492 90.564,210.431 92.288,209.666L92.296,209.663L92.331,209.647L92.409,209.613L92.426,209.606C92.843,209.425 93.269,209.262 93.703,209.119ZM251.052,311.864L300.279,169.453L157.869,218.681L226.44,230.833C230.643,231.578 234.126,234.01 236.317,237.309C237.607,239.087 238.525,241.178 238.934,243.486L251.052,311.864Z"/>
    </g>
</svg>
