<?xml version="1.0" encoding="UTF-8" standalone="no"?>
<!DOCTYPE svg PUBLIC "-//W3C//DTD SVG 1.1//EN" "http://www.w3.org/Graphics/SVG/1.1/DTD/svg11.dtd">
<svg width="100%" height="100%" viewBox="0 0 500 500" version="1.1" xmlns="http://www.w3.org/2000/svg" xmlns:xlink="http://www.w3.org/1999/xlink" xml:space="preserve" xmlns:serif="http://www.serif.com/" style="fill-rule:evenodd;clip-rule:evenodd;stroke-linejoin:round;stroke-miterlimit:2;">
    <g transform="matrix(1,0,0,1,17.2912,31)">
        <path d="M135.418,156.94L55.418,156.94L55.418,396.94L135.418,396.94L135.418,156.94ZM115.418,176.94L75.418,176.94L75.418,376.94L115.418,376.94L115.418,176.94Z"/>
    </g>
    <g transform="matrix(1,0,0,1,154.582,31)">
        <path d="M135.418,156.94L55.418,156.94L55.418,396.94L135.418,396.94L135.418,156.94ZM115.418,176.94L75.418,176.94L75.418,376.94L115.418,376.94L115.418,176.94Z"/>
    </g>
    <g transform="matrix(1,0,0,1,291.874,31)">
        <path d="M135.418,156.94L55.418,156.94L55.418,396.94L135.418,396.94L135.418,156.94ZM115.418,176.94L75.418,176.94L75.418,376.94L115.418,376.94L115.418,176.94Z"/>
    </g>
    <g transform="matrix(0.87136,0,0,0.833333,46.7912,75.4901)">
        <path d="M466.418,410.94C466.418,404.317 461.275,398.94 454.941,398.94L11.476,398.94C5.142,398.94 0,404.317 0,410.94C0,417.563 5.142,422.94 11.476,422.94L454.941,422.94C461.275,422.94 466.418,417.563 466.418,410.94Z"/>
    </g>
    <g transform="matrix(0.87136,0,0,0.833333,46.7912,-144.51)">
        <path d="M466.418,410.94C466.418,404.317 461.275,398.94 454.941,398.94L11.476,398.94C5.142,398.94 0,404.317 0,410.94C0,417.563 5.142,422.94 11.476,422.94L454.941,422.94C461.275,422.94 466.418,417.563 466.418,410.94Z"/>
    </g>
    <g transform="matrix(7.87693e-18,-0.12864,0.833333,5.10269e-17,-285.659,207.94)">
        <path d="M466.418,410.94C466.418,404.317 431.585,398.94 388.681,398.94L77.736,398.94C34.832,398.94 0,404.317 0,410.94C0,417.563 34.832,422.94 77.736,422.94L388.681,422.94C431.585,422.94 466.418,417.563 466.418,410.94Z"/>
    </g>
    <g transform="matrix(7.87693e-18,-0.12864,0.833333,5.10269e-17,100.759,207.94)">
        <path d="M466.418,410.94C466.418,404.317 431.585,398.94 388.681,398.94L77.736,398.94C34.832,398.94 0,404.317 0,410.94C0,417.563 34.832,422.94 77.736,422.94L388.681,422.94C431.585,422.94 466.418,417.563 466.418,410.94Z"/>
    </g>
    <g transform="matrix(0.87136,0,0,0.833333,46.7912,-184.51)">
        <path d="M466.418,410.94C466.418,404.317 461.275,398.94 454.941,398.94L11.476,398.94C5.142,398.94 0,404.317 0,410.94C0,417.563 5.142,422.94 11.476,422.94L454.941,422.94C461.275,422.94 466.418,417.563 466.418,410.94Z"/>
    </g>
    <g transform="matrix(1.01286,0,0,0.833333,13.7912,115.49)">
        <path d="M466.418,410.94C466.418,404.317 461.994,398.94 456.545,398.94L9.873,398.94C4.424,398.94 0,404.317 0,410.94C0,417.563 4.424,422.94 9.873,422.94L456.545,422.94C461.994,422.94 466.418,417.563 466.418,410.94Z"/>
    </g>
    <g transform="matrix(0.451457,-0.260649,0.416667,0.721688,-123.094,-133.63)">
        <path d="M466.418,410.94C466.418,404.317 457.822,398.94 447.235,398.94L19.183,398.94C8.596,398.94 0,404.317 0,410.94C0,417.563 8.596,422.94 19.183,422.94L447.235,422.94C457.822,422.94 466.418,417.563 466.418,410.94Z"/>
    </g>
    <g transform="matrix(-0.45113,-0.26046,-0.416667,0.721688,623.094,-133.63)">
        <path d="M466.418,410.94C466.418,404.317 457.816,398.94 447.221,398.94L19.197,398.94C8.602,398.94 0,404.317 0,410.94C0,417.563 8.602,422.94 19.197,422.94L447.221,422.94C457.816,422.94 466.418,417.563 466.418,410.94Z"/>
    </g>
</svg>
