<?xml version="1.0" encoding="UTF-8" standalone="no"?>
<!DOCTYPE svg PUBLIC "-//W3C//DTD SVG 1.1//EN" "http://www.w3.org/Graphics/SVG/1.1/DTD/svg11.dtd">
<svg width="100%" height="100%" viewBox="0 0 500 500" version="1.1" xmlns="http://www.w3.org/2000/svg" xmlns:xlink="http://www.w3.org/1999/xlink" xml:space="preserve" xmlns:serif="http://www.serif.com/" style="fill-rule:evenodd;clip-rule:evenodd;stroke-linejoin:round;stroke-miterlimit:2;">
    <g transform="matrix(1,0,0,1,-13.518,0)">
        <path d="M112.824,60.98C112.824,54.274 107.38,48.83 100.674,48.83L47.028,48.83C40.323,48.83 34.879,54.274 34.879,60.98L34.879,439.02C34.879,445.726 40.323,451.17 47.028,451.17L100.674,451.17C107.38,451.17 112.824,445.726 112.824,439.02L112.824,60.98ZM92.824,68.83L54.879,68.83L54.879,431.17L92.824,431.17L92.824,68.83Z"/>
    </g>
    <g transform="matrix(-1,0,0,1,275.574,0)">
        <path d="M92.824,60.98C92.824,54.274 87.38,48.83 80.674,48.83L47.028,48.83C40.323,48.83 34.879,54.274 34.879,60.98L34.879,439.02C34.879,445.726 40.323,451.17 47.028,451.17L80.674,451.17C87.38,451.17 92.824,445.726 92.824,439.02L92.824,60.98ZM72.824,68.83L54.879,68.83L54.879,431.17L72.824,431.17L72.824,68.83Z"/>
    </g>
    <g transform="matrix(1,0,0,1,345.815,0)">
        <path d="M132.824,60.98C132.824,54.274 127.38,48.83 120.674,48.83L7.028,48.83C0.323,48.83 -5.121,54.274 -5.121,60.98L-5.121,439.02C-5.121,445.726 0.323,451.17 7.028,451.17L120.674,451.17C127.38,451.17 132.824,445.726 132.824,439.02L132.824,60.98ZM112.824,68.83L14.879,68.83L14.879,431.17L112.824,431.17L112.824,68.83Z"/>
    </g>
    <g transform="matrix(0.62069,0,0,1,32.8289,0)">
        <path d="M171.546,58.83C171.546,53.311 164.327,48.83 155.435,48.83C146.543,48.83 139.324,53.311 139.324,58.83L139.324,441.17C139.324,446.689 146.543,451.17 155.435,451.17C164.327,451.17 171.546,446.689 171.546,441.17L171.546,58.83Z"/>
    </g>
    <g transform="matrix(-0.62069,0,0,1,367.171,0)">
        <path d="M171.546,58.83C171.546,53.311 164.327,48.83 155.435,48.83C146.543,48.83 139.324,53.311 139.324,58.83L139.324,441.17C139.324,446.689 146.543,451.17 155.435,451.17C164.327,451.17 171.546,446.689 171.546,441.17L171.546,58.83Z"/>
    </g>
    <g transform="matrix(-0.62069,0,0,1,407.171,0)">
        <path d="M171.546,58.83C171.546,53.311 164.327,48.83 155.435,48.83C146.543,48.83 139.324,53.311 139.324,58.83L139.324,441.17C139.324,446.689 146.543,451.17 155.435,451.17C164.327,451.17 171.546,446.689 171.546,441.17L171.546,58.83Z"/>
    </g>
</svg>
