<?xml version="1.0" encoding="UTF-8" standalone="no"?>
<!DOCTYPE svg PUBLIC "-//W3C//DTD SVG 1.1//EN" "http://www.w3.org/Graphics/SVG/1.1/DTD/svg11.dtd">
<svg width="100%" height="100%" viewBox="0 0 24 24" version="1.1" xmlns="http://www.w3.org/2000/svg" xmlns:xlink="http://www.w3.org/1999/xlink" xml:space="preserve" xmlns:serif="http://www.serif.com/" style="fill-rule:evenodd;clip-rule:evenodd;stroke-linejoin:round;stroke-miterlimit:2;">
    <g transform="matrix(0.048,0,0,0.048,0,0.216)">
        <path d="M386,104.819C386,83.308 368.536,65.844 347.025,65.844L152.975,65.844C131.464,65.844 114,83.308 114,104.819L114,432.849C114,454.36 131.464,471.824 152.975,471.824L347.025,471.824C368.536,471.824 386,454.36 386,432.849L386,104.819ZM356,109.444C356,102.113 350.048,96.162 342.717,96.162L157.283,96.162C149.952,96.162 144,102.113 144,109.444L144,428.224C144,435.555 149.952,441.506 157.283,441.506L342.717,441.506C350.048,441.506 356,435.555 356,428.224L356,109.444Z"/>
    </g>
    <g transform="matrix(0.0636218,0,0,0.049383,-2.69289,-0.184511)">
        <path d="M214.335,41.329C214.335,33.282 209.264,26.749 203.018,26.749C196.772,26.749 191.701,33.282 191.701,41.329L191.701,81.582C191.701,89.629 196.772,96.162 203.018,96.162C209.264,96.162 214.335,89.629 214.335,81.582L214.335,41.329Z"/>
    </g>
    <g transform="matrix(3.89571e-18,0.0636218,-0.175931,1.07726e-17,22.7098,-3.73002)">
        <path d="M214.335,30.841C214.335,28.583 209.264,26.749 203.018,26.749C196.772,26.749 191.701,28.583 191.701,30.841L191.701,92.069C191.701,94.328 196.772,96.162 203.018,96.162C209.264,96.162 214.335,94.328 214.335,92.069L214.335,30.841Z"/>
    </g>
    <g transform="matrix(0.0193289,0,0,0.0432533,8.41716,2.05055)">
        <path d="M345.537,164.977C345.537,155.789 328.846,148.331 308.287,148.331C287.728,148.331 271.037,155.789 271.037,164.977L271.037,369.845C271.037,379.032 287.728,386.491 308.287,386.491C328.846,386.491 345.537,379.032 345.537,369.845L345.537,164.977Z"/>
    </g>
    <g transform="matrix(0.0636218,0,0,0.049383,0.818682,-0.184511)">
        <path d="M214.335,41.329C214.335,33.282 209.264,26.749 203.018,26.749C196.772,26.749 191.701,33.282 191.701,41.329L191.701,81.582C191.701,89.629 196.772,96.162 203.018,96.162C209.264,96.162 214.335,89.629 214.335,81.582L214.335,41.329Z"/>
    </g>
    <g transform="matrix(3.89571e-18,0.0636218,-0.0713353,4.36803e-18,16.3632,-11.0599)">
        <path d="M214.335,36.842C214.335,31.272 209.264,26.749 203.018,26.749C196.772,26.749 191.701,31.272 191.701,36.842L191.701,86.068C191.701,91.639 196.772,96.162 203.018,96.162C209.264,96.162 214.335,91.639 214.335,86.068L214.335,36.842Z"/>
    </g>
</svg>
