<?xml version="1.0" encoding="UTF-8" standalone="no"?>
<!DOCTYPE svg PUBLIC "-//W3C//DTD SVG 1.1//EN" "http://www.w3.org/Graphics/SVG/1.1/DTD/svg11.dtd">
<svg width="100%" height="100%" viewBox="0 0 24 24" version="1.1" xmlns="http://www.w3.org/2000/svg" xmlns:xlink="http://www.w3.org/1999/xlink" xml:space="preserve" xmlns:serif="http://www.serif.com/" style="fill-rule:evenodd;clip-rule:evenodd;stroke-linejoin:round;stroke-miterlimit:2;">
    <g transform="matrix(0.048,0,0,0.048,0,0)">
        <path d="M250,40C365.902,40 460,134.098 460,250C460,365.902 365.902,460 250,460C134.098,460 40,365.902 40,250C40,134.098 134.098,40 250,40ZM250,70C349.345,70 430,150.655 430,250C430,349.345 349.345,430 250,430C150.655,430 70,349.345 70,250C70,150.655 150.655,70 250,70Z"/>
    </g>
    <g transform="matrix(0.0339411,-0.0339411,0.0215157,0.0215157,-5.72891,13.1273)">
        <path d="M475.652,385.802C475.652,372.743 468.93,362.14 460.652,362.14L94.904,362.14C86.625,362.14 79.904,372.743 79.904,385.802C79.904,398.862 86.625,409.465 94.904,409.465L460.652,409.465C468.93,409.465 475.652,398.862 475.652,385.802Z"/>
    </g>
</svg>
