<?xml version="1.0" encoding="UTF-8" standalone="no"?>
<!DOCTYPE svg PUBLIC "-//W3C//DTD SVG 1.1//EN" "http://www.w3.org/Graphics/SVG/1.1/DTD/svg11.dtd">
<svg width="100%" height="100%" viewBox="0 0 24 24" version="1.1" xmlns="http://www.w3.org/2000/svg" xmlns:xlink="http://www.w3.org/1999/xlink" xml:space="preserve" xmlns:serif="http://www.serif.com/" style="fill-rule:evenodd;clip-rule:evenodd;stroke-linejoin:round;stroke-miterlimit:2;">
    <g transform="matrix(0.048,0,0,0.048,0.0551914,0)">
        <path d="M223.669,214.027L223.669,102.319C223.669,94.04 230.39,87.319 238.669,87.319C238.767,87.319 238.864,87.32 238.962,87.322C242.417,87.255 245.912,88.375 248.785,90.744L340.919,166.714C342.419,167.95 343.617,169.418 344.504,171.024C348.071,177.248 346.743,185.328 341.023,190.044L267.804,250.418L341.023,310.792C346.743,315.509 348.071,323.589 344.504,329.813C343.617,331.418 342.419,332.886 340.919,334.123L248.785,410.093C245.912,412.462 242.417,413.581 238.962,413.515C238.864,413.516 238.767,413.517 238.669,413.517C230.39,413.517 223.669,406.796 223.669,398.517L223.669,286.81L182.205,320.999C175.818,326.266 166.356,325.356 161.089,318.969C155.822,312.582 156.732,303.12 163.12,297.853L220.647,250.418L163.12,202.983C156.732,197.717 155.822,188.255 161.089,181.868C166.356,175.48 175.818,174.57 182.205,179.837L223.669,214.027ZM253.669,367.182L307.962,322.415L253.669,277.647L253.669,367.182ZM253.669,223.19L307.962,178.422L253.669,133.654L253.669,223.19Z"/>
    </g>
    <g transform="matrix(0.048,0,0,0.048,0.0551914,0)">
        <path d="M406,170.333C406,84.235 336.099,14.333 250,14.333C163.901,14.333 94,84.235 94,170.333L94,329.667C94,415.765 163.901,485.667 250,485.667C336.099,485.667 406,415.765 406,329.667L406,170.333ZM376,170.333C376,100.792 319.541,44.333 250,44.333C180.459,44.333 124,100.792 124,170.333L124,329.667C124,399.208 180.459,455.667 250,455.667C319.541,455.667 376,399.208 376,329.667L376,170.333Z"/>
    </g>
</svg>
