<?xml version="1.0" encoding="UTF-8" standalone="no"?>
<!DOCTYPE svg PUBLIC "-//W3C//DTD SVG 1.1//EN" "http://www.w3.org/Graphics/SVG/1.1/DTD/svg11.dtd">
<svg width="100%" height="100%" viewBox="0 0 24 24" version="1.1" xmlns="http://www.w3.org/2000/svg" xmlns:xlink="http://www.w3.org/1999/xlink" xml:space="preserve" xmlns:serif="http://www.serif.com/" style="fill-rule:evenodd;clip-rule:evenodd;stroke-linejoin:round;stroke-miterlimit:2;">
    <g transform="matrix(0.048,0,0,0.048,0,0)">
        <path d="M408.436,27.388L129.12,27.388C103.816,27.388 83.272,47.931 83.272,73.235L83.272,426.765C83.272,452.069 103.816,472.612 129.12,472.612L408.436,472.612L408.436,442.612L135.141,442.612C123.072,442.612 113.272,432.813 113.272,420.744L113.272,79.256C113.272,67.187 123.072,57.388 135.141,57.388L408.436,57.388L408.436,27.388Z"/>
    </g>
    <g transform="matrix(0.048,0,0,0.048,0,0)">
        <path d="M408.436,364.15L129.12,364.15C103.816,364.15 83.272,384.694 83.272,409.998L83.272,426.765C83.272,452.069 103.816,472.612 129.12,472.612L408.436,472.612L408.436,442.612L135.141,442.612C123.072,442.612 113.272,432.813 113.272,420.744L113.272,416.019C113.272,403.949 123.072,394.15 135.141,394.15L408.436,394.15L408.436,364.15Z"/>
    </g>
    <g transform="matrix(0.0496951,0,0,0.039206,-0.272352,0.923477)">
        <path d="M189.643,123.376C189.643,113.24 183.151,105.012 175.155,105.012C167.159,105.012 160.667,113.24 160.667,123.376L160.667,193.57C160.667,203.705 167.159,211.934 175.155,211.934C183.151,211.934 189.643,203.705 189.643,193.57L189.643,123.376Z"/>
    </g>
    <g transform="matrix(0.0496951,0,0,0.039206,6.86365,0.923477)">
        <path d="M189.643,123.376C189.643,113.24 183.151,105.012 175.155,105.012C167.159,105.012 160.667,113.24 160.667,123.376L160.667,193.57C160.667,203.705 167.159,211.934 175.155,211.934C183.151,211.934 189.643,203.705 189.643,193.57L189.643,123.376Z"/>
    </g>
    <g transform="matrix(3.04295e-18,0.0496951,-0.0802076,4.9113e-18,24.7107,-2.9438)">
        <path d="M189.643,113.988C189.643,109.034 183.151,105.012 175.155,105.012C167.159,105.012 160.667,109.034 160.667,113.988L160.667,202.957C160.667,207.912 167.159,211.934 175.155,211.934C183.151,211.934 189.643,207.912 189.643,202.957L189.643,113.988Z"/>
    </g>
    <g transform="matrix(3.04295e-18,0.0496951,-0.0802076,4.9113e-18,24.7107,-0.191795)">
        <path d="M189.643,113.988C189.643,109.034 183.151,105.012 175.155,105.012C167.159,105.012 160.667,109.034 160.667,113.988L160.667,202.957C160.667,207.912 167.159,211.934 175.155,211.934C183.151,211.934 189.643,207.912 189.643,202.957L189.643,113.988Z"/>
    </g>
    <g transform="matrix(0.056608,0,0,0.048,-3.26519,0)">
        <path d="M416.728,42.388C416.728,34.109 411.028,27.388 404.008,27.388C396.989,27.388 391.289,34.109 391.289,42.388L391.289,457.612C391.289,465.891 396.989,472.612 404.008,472.612C411.028,472.612 416.728,465.891 416.728,457.612L416.728,42.388Z"/>
    </g>
</svg>
