<?xml version="1.0" encoding="UTF-8" standalone="no"?>
<!DOCTYPE svg PUBLIC "-//W3C//DTD SVG 1.1//EN" "http://www.w3.org/Graphics/SVG/1.1/DTD/svg11.dtd">
<svg width="100%" height="100%" viewBox="0 0 24 24" version="1.1" xmlns="http://www.w3.org/2000/svg" xmlns:xlink="http://www.w3.org/1999/xlink" xml:space="preserve" xmlns:serif="http://www.serif.com/" style="fill-rule:evenodd;clip-rule:evenodd;stroke-linejoin:round;stroke-miterlimit:2;">
    <g transform="matrix(0.0477088,0,0,0.048,0.0266636,1.13675e-10)">
        <path d="M121.742,32.556C121.742,24.277 114.98,17.556 106.651,17.556C98.321,17.556 91.559,24.277 91.559,32.556L91.559,467.444C91.559,475.723 98.321,482.444 106.651,482.444C114.98,482.444 121.742,475.723 121.742,467.444L121.742,32.556Z"/>
    </g>
    <g transform="matrix(0.0477088,0,0,0.048,13.797,1.13675e-10)">
        <path d="M121.742,32.556C121.742,24.277 114.98,17.556 106.651,17.556C98.321,17.556 91.559,24.277 91.559,32.556L91.559,467.444C91.559,475.723 98.321,482.444 106.651,482.444C114.98,482.444 121.742,475.723 121.742,467.444L121.742,32.556Z"/>
    </g>
    <g transform="matrix(2.92132e-18,0.0477088,-0.0327183,2.00342e-18,20.1796,-3.52547)">
        <path d="M121.742,39.562C121.742,27.417 114.98,17.556 106.651,17.556C98.321,17.556 91.559,27.417 91.559,39.562L91.559,460.438C91.559,472.583 98.321,482.444 106.651,482.444C114.98,482.444 121.742,472.583 121.742,460.438L121.742,39.562Z"/>
    </g>
    <g transform="matrix(0.0238544,0.041317,-0.0174814,0.0100929,10.381,13.5215)">
        <path d="M121.742,53.225C121.742,33.539 114.98,17.556 106.651,17.556C98.321,17.556 91.559,33.539 91.559,53.225L91.559,446.775C91.559,466.461 98.321,482.444 106.651,482.444C114.98,482.444 121.742,466.461 121.742,446.775L121.742,53.225Z"/>
    </g>
    <g transform="matrix(-0.0238544,0.041317,0.0174831,0.0100939,13.6181,13.5211)">
        <path d="M121.742,53.221C121.742,33.537 114.98,17.556 106.651,17.556C98.321,17.556 91.559,33.537 91.559,53.221L91.559,446.779C91.559,466.463 98.321,482.444 106.651,482.444C114.98,482.444 121.742,466.463 121.742,446.779L121.742,53.221Z"/>
    </g>
</svg>
