<?xml version="1.0" encoding="UTF-8" standalone="no"?>
<!DOCTYPE svg PUBLIC "-//W3C//DTD SVG 1.1//EN" "http://www.w3.org/Graphics/SVG/1.1/DTD/svg11.dtd">
<svg width="100%" height="100%" viewBox="0 0 6 6" version="1.1" xmlns="http://www.w3.org/2000/svg" xmlns:xlink="http://www.w3.org/1999/xlink" xml:space="preserve" xmlns:serif="http://www.serif.com/" style="fill-rule:evenodd;clip-rule:evenodd;stroke-linejoin:round;stroke-miterlimit:2;">
    <g transform="matrix(0.24,0,0,0.24,0,0)">
        <g transform="matrix(0.048,0,0,0.048,-1.40697,0.44218)">
            <path d="M483.483,64.782C483.483,58.29 478.212,53.02 471.721,53.02L86.903,53.02C80.411,53.02 75.14,58.29 75.14,64.782L75.14,158.883C75.14,165.375 80.411,170.646 86.903,170.646L471.721,170.646C478.212,170.646 483.483,165.375 483.483,158.883L483.483,64.782ZM463.483,73.02L95.14,73.02L95.14,150.646L463.483,150.646L463.483,73.02Z"/>
        </g>
        <g transform="matrix(0.048,0,0,0.048,-1.36424e-15,0.024)">
            <path d="M394.171,298.589L220.838,298.589L220.838,397.268L394.171,397.268L394.171,298.589ZM374.171,318.589L240.838,318.589L240.838,377.268L374.171,377.268L374.171,318.589Z"/>
        </g>
        <g transform="matrix(0.048,0,0,0.048,-1.40697,5.14187)">
            <path d="M463.483,64.782C463.483,58.29 458.212,53.02 451.721,53.02L106.903,53.02C100.411,53.02 95.14,58.29 95.14,64.782L95.14,318.883C95.14,325.375 100.411,330.646 106.903,330.646L451.721,330.646C458.212,330.646 463.483,325.375 463.483,318.883L463.483,64.782ZM443.483,73.02L115.14,73.02L115.14,310.646L443.483,310.646L443.483,73.02Z"/>
        </g>
        <g transform="matrix(0.166576,0,0,0.0335388,7.93108,15.8677)">
            <rect x="26.685" y="11.236" width="28.624" height="28.624"/>
        </g>
    </g>
</svg>
