<?xml version="1.0" encoding="UTF-8" standalone="no"?>
<!DOCTYPE svg PUBLIC "-//W3C//DTD SVG 1.1//EN" "http://www.w3.org/Graphics/SVG/1.1/DTD/svg11.dtd">
<svg width="100%" height="100%" viewBox="0 0 24 24" version="1.1" xmlns="http://www.w3.org/2000/svg" xmlns:xlink="http://www.w3.org/1999/xlink" xml:space="preserve" xmlns:serif="http://www.serif.com/" style="fill-rule:evenodd;clip-rule:evenodd;stroke-linejoin:round;stroke-miterlimit:2;">
    <g transform="matrix(0.048,0,0,0.0487517,0,-0.0886426)">
        <path d="M481.046,132.694C481.046,124.542 474.324,117.925 466.046,117.925L33.954,117.925C25.676,117.925 18.954,124.542 18.954,132.694C18.954,140.845 25.676,147.462 33.954,147.462L466.046,147.462C474.324,147.462 481.046,140.845 481.046,132.694Z"/>
    </g>
    <g transform="matrix(0.048,0,0,0.0487517,0,14.4714)">
        <path d="M481.046,132.694C481.046,124.542 474.324,117.925 466.046,117.925L33.954,117.925C25.676,117.925 18.954,124.542 18.954,132.694C18.954,140.845 25.676,147.462 33.954,147.462L466.046,147.462C474.324,147.462 481.046,140.845 481.046,132.694Z"/>
    </g>
    <g transform="matrix(2.12018e-18,-0.0346252,0.0487517,2.98518e-18,15.9012,22.3167)">
        <path d="M481.046,132.694C481.046,124.542 471.728,117.925 460.252,117.925L39.748,117.925C28.272,117.925 18.954,124.542 18.954,132.694C18.954,140.845 28.272,147.462 39.748,147.462L460.252,147.462C471.728,147.462 481.046,140.845 481.046,132.694Z"/>
    </g>
    <g transform="matrix(2.12018e-18,-0.0346252,0.0487517,2.98518e-18,-4.83923,22.3167)">
        <path d="M481.046,132.694C481.046,124.542 471.728,117.925 460.252,117.925L39.748,117.925C28.272,117.925 18.954,124.542 18.954,132.694C18.954,140.845 28.272,147.462 39.748,147.462L460.252,147.462C471.728,147.462 481.046,140.845 481.046,132.694Z"/>
    </g>
    <g transform="matrix(6.52683e-19,-0.0106591,0.0487517,2.98518e-18,4.31685,17.1275)">
        <path d="M481.046,132.694C481.046,124.542 450.779,117.925 413.498,117.925L86.502,117.925C49.221,117.925 18.954,124.542 18.954,132.694C18.954,140.845 49.221,147.462 86.502,147.462L413.498,147.462C450.779,147.462 481.046,140.845 481.046,132.694Z"/>
    </g>
    <g transform="matrix(6.52683e-19,-0.0106591,0.0487517,2.98518e-18,6.74508,17.1275)">
        <path d="M481.046,132.694C481.046,124.542 450.779,117.925 413.498,117.925L86.502,117.925C49.221,117.925 18.954,124.542 18.954,132.694C18.954,140.845 49.221,147.462 86.502,147.462L413.498,147.462C450.779,147.462 481.046,140.845 481.046,132.694Z"/>
    </g>
    <g transform="matrix(0.00837115,-7.39557e-35,9.29298e-34,0.0487517,9.90721,6.25097)">
        <path d="M481.046,132.694C481.046,124.542 442.506,117.925 395.036,117.925L104.964,117.925C57.494,117.925 18.954,124.542 18.954,132.694C18.954,140.845 57.494,147.462 104.964,147.462L395.036,147.462C442.506,147.462 481.046,140.845 481.046,132.694Z"/>
    </g>
    <g transform="matrix(0.0212817,0.012287,-0.0243758,0.0422202,4.14295,3.16016)">
        <path d="M481.046,132.694C481.046,124.542 467.917,117.925 451.746,117.925L48.254,117.925C32.083,117.925 18.954,124.542 18.954,132.694C18.954,140.845 32.083,147.462 48.254,147.462L451.746,147.462C467.917,147.462 481.046,140.845 481.046,132.694Z"/>
    </g>
    <g transform="matrix(-0.0212817,0.012287,0.0243758,0.0422202,19.7375,3.16016)">
        <path d="M481.046,132.694C481.046,124.542 467.917,117.925 451.746,117.925L48.254,117.925C32.083,117.925 18.954,124.542 18.954,132.694C18.954,140.845 32.083,147.462 48.254,147.462L451.746,147.462C467.917,147.462 481.046,140.845 481.046,132.694Z"/>
    </g>
    <g transform="matrix(0.00837115,-7.39557e-35,9.29298e-34,0.0487517,9.90721,9.73646)">
        <path d="M481.046,132.694C481.046,124.542 442.506,117.925 395.036,117.925L104.964,117.925C57.494,117.925 18.954,124.542 18.954,132.694C18.954,140.845 57.494,147.462 104.964,147.462L395.036,147.462C442.506,147.462 481.046,140.845 481.046,132.694Z"/>
    </g>
    <g transform="matrix(0.048,0,0,0.048,0,0)">
        <path d="M150.392,132.925L180.404,132.925C180.396,132.78 180.392,132.634 180.392,132.488L180.392,85.658C180.392,81.103 184.09,77.406 188.644,77.406L305.836,77.406C310.39,77.406 314.087,81.103 314.087,85.658L314.087,132.488C314.087,132.634 314.083,132.78 314.076,132.925L344.087,132.925L344.087,82.165C344.087,62.981 328.512,47.406 309.328,47.406L185.152,47.406C165.967,47.406 150.392,62.981 150.392,82.165L150.392,132.925Z"/>
    </g>
</svg>
