<?xml version="1.0" encoding="UTF-8" standalone="no"?>
<!DOCTYPE svg PUBLIC "-//W3C//DTD SVG 1.1//EN" "http://www.w3.org/Graphics/SVG/1.1/DTD/svg11.dtd">
<svg width="100%" height="100%" viewBox="0 0 24 24" version="1.1" xmlns="http://www.w3.org/2000/svg" xmlns:xlink="http://www.w3.org/1999/xlink" xml:space="preserve" xmlns:serif="http://www.serif.com/" style="fill-rule:evenodd;clip-rule:evenodd;stroke-linejoin:round;stroke-miterlimit:2;">
    <g transform="matrix(0.045568,0,0,0.068352,0.28977,-2.24279)">
        <path d="M214.185,138.343C214.185,132.529 207.105,127.809 198.385,127.809L104.986,127.809C96.265,127.809 89.185,132.529 89.185,138.343C89.185,144.156 96.265,148.876 104.986,148.876L198.385,148.876C207.105,148.876 214.185,144.156 214.185,138.343Z"/>
    </g>
    <g transform="matrix(0.045568,0,0,0.068352,9.88623,-2.23595)">
        <path d="M214.185,138.343C214.185,132.529 207.105,127.809 198.385,127.809L104.986,127.809C96.265,127.809 89.185,132.529 89.185,138.343C89.185,144.156 96.265,148.876 104.986,148.876L198.385,148.876C207.105,148.876 214.185,144.156 214.185,138.343Z"/>
    </g>
    <g transform="matrix(0.045568,0,0,0.068352,9.88623,8.52395)">
        <path d="M214.185,138.343C214.185,132.529 207.105,127.809 198.385,127.809L104.986,127.809C96.265,127.809 89.185,132.529 89.185,138.343C89.185,144.156 96.265,148.876 104.986,148.876L198.385,148.876C207.105,148.876 214.185,144.156 214.185,138.343Z"/>
    </g>
    <g transform="matrix(0.045568,0,0,0.068352,9.88623,6.12395)">
        <path d="M214.185,138.343C214.185,132.529 207.105,127.809 198.385,127.809L104.986,127.809C96.265,127.809 89.185,132.529 89.185,138.343C89.185,144.156 96.265,148.876 104.986,148.876L198.385,148.876C207.105,148.876 214.185,144.156 214.185,138.343Z"/>
    </g>
    <g transform="matrix(2.79024e-18,0.045568,-0.068352,4.18535e-18,16.6578,0.30121)">
        <path d="M214.185,138.343C214.185,132.529 207.105,127.809 198.385,127.809L104.986,127.809C96.265,127.809 89.185,132.529 89.185,138.343C89.185,144.156 96.265,148.876 104.986,148.876L198.385,148.876C207.105,148.876 214.185,144.156 214.185,138.343Z"/>
    </g>
    <g transform="matrix(0.0322214,0.0322214,-0.0483322,0.0483322,9.00065,5.23003)">
        <path d="M214.185,138.343C214.185,132.529 207.105,127.809 198.385,127.809L104.986,127.809C96.265,127.809 89.185,132.529 89.185,138.343C89.185,144.156 96.265,148.876 104.986,148.876L198.385,148.876C207.105,148.876 214.185,144.156 214.185,138.343Z"/>
    </g>
    <g transform="matrix(-0.0322214,0.0322214,-0.0483322,-0.0483322,18.7757,18.6028)">
        <path d="M214.185,138.343C214.185,132.529 207.105,127.809 198.385,127.809L104.986,127.809C96.265,127.809 89.185,132.529 89.185,138.343C89.185,144.156 96.265,148.876 104.986,148.876L198.385,148.876C207.105,148.876 214.185,144.156 214.185,138.343Z"/>
    </g>
    <g transform="matrix(0.048,0,0,0.048,-1.36424e-15,0.0114406)">
        <path d="M449.926,35.597L50.074,35.597C46.174,35.597 42.621,37.088 39.953,39.53C36.955,42.274 35.074,46.218 35.074,50.597L35.074,448.926C35.074,453.306 36.955,457.249 39.953,459.993C42.621,462.435 46.174,463.926 50.074,463.926L449.926,463.926C453.826,463.926 457.379,462.435 460.047,459.993C463.045,457.249 464.926,453.306 464.926,448.926L464.926,50.597C464.926,46.218 463.045,42.274 460.047,39.53C457.379,37.088 453.826,35.597 449.926,35.597ZM265,264.762L265,433.926L434.926,433.926L434.926,264.762L265,264.762ZM65.074,264.762L65.074,433.926L235,433.926L235,264.762L65.074,264.762ZM434.926,65.597L265,65.597L265,234.762L434.926,234.762L434.926,65.597ZM65.074,65.597L65.074,234.762L235,234.762L235,65.597L65.074,65.597Z"/>
    </g>
</svg>
