<?xml version="1.0" encoding="UTF-8" standalone="no"?>
<!DOCTYPE svg PUBLIC "-//W3C//DTD SVG 1.1//EN" "http://www.w3.org/Graphics/SVG/1.1/DTD/svg11.dtd">
<svg width="100%" height="100%" viewBox="0 0 6 6" version="1.1" xmlns="http://www.w3.org/2000/svg" xmlns:xlink="http://www.w3.org/1999/xlink" xml:space="preserve" xmlns:serif="http://www.serif.com/" style="fill-rule:evenodd;clip-rule:evenodd;stroke-linejoin:round;stroke-miterlimit:2;">
    <g transform="matrix(0.24,0,0,0.24,0,0)">
        <g transform="matrix(0.048,0,0,0.048,-0.0625815,-0.628318)">
            <path d="M483.051,165.385C483.051,148.583 469.41,134.941 452.608,134.941L50,134.941C33.198,134.941 19.557,148.583 19.557,165.385L19.557,408.931C19.557,425.733 33.198,439.374 50,439.374L452.608,439.374C469.41,439.374 483.051,425.733 483.051,408.931L483.051,165.385ZM463.051,169.008C463.051,161.244 456.748,154.941 448.984,154.941L53.623,154.941C45.86,154.941 39.557,161.244 39.557,169.008L39.557,405.308C39.557,413.071 45.86,419.374 53.623,419.374L448.984,419.374C456.748,419.374 463.051,413.071 463.051,405.308L463.051,169.008Z"/>
        </g>
        <g transform="matrix(0.048,0,0,0.048,-0.0625815,-0.628318)">
            <path d="M251.304,182.04C309.32,182.04 356.421,229.142 356.421,287.158C356.421,345.174 309.32,392.275 251.304,392.275C193.288,392.275 146.186,345.174 146.186,287.158C146.186,229.142 193.288,182.04 251.304,182.04ZM251.304,202.04C298.281,202.04 336.421,240.18 336.421,287.158C336.421,334.135 298.281,372.275 251.304,372.275C204.326,372.275 166.186,334.135 166.186,287.158C166.186,240.18 204.326,202.04 251.304,202.04Z"/>
        </g>
        <g transform="matrix(0.048,0,0,0.048,0,2.27801e-07)">
            <path d="M297.496,73.726C300.205,73.604 302.954,74.576 305.021,76.643L352.246,123.868C356.149,127.771 356.149,134.107 352.246,138.01C348.343,141.913 342.006,141.913 338.104,138.01L293.809,93.716L206.246,93.716L161.952,138.01C158.049,141.913 151.712,141.913 147.81,138.01C143.907,134.107 143.907,127.771 147.81,123.868L195.035,76.643C197.095,74.583 199.833,73.61 202.532,73.725C202.674,73.719 202.817,73.716 202.96,73.716L297.04,73.716C297.193,73.716 297.345,73.719 297.496,73.726Z"/>
        </g>
    </g>
</svg>
