<?xml version="1.0" encoding="UTF-8" standalone="no"?>
<!DOCTYPE svg PUBLIC "-//W3C//DTD SVG 1.1//EN" "http://www.w3.org/Graphics/SVG/1.1/DTD/svg11.dtd">
<svg width="100%" height="100%" viewBox="0 0 24 24" version="1.1" xmlns="http://www.w3.org/2000/svg" xmlns:xlink="http://www.w3.org/1999/xlink" xml:space="preserve" xmlns:serif="http://www.serif.com/" style="fill-rule:evenodd;clip-rule:evenodd;stroke-linejoin:round;stroke-miterlimit:2;">
    <g transform="matrix(0.0304,0,0,0.0304,2.48325,5.14477)">
        <circle cx="144.737" cy="300.498" r="39.474"/>
    </g>
    <g transform="matrix(0.0304,0,0,0.0304,12.7168,5.14477)">
        <circle cx="144.737" cy="300.498" r="39.474"/>
    </g>
    <g transform="matrix(0.048,0,0,0.048,0,0)">
        <path d="M440.285,344.653C440.285,359.493 428.237,371.541 413.397,371.541L86.603,371.541C71.763,371.541 59.715,359.493 59.715,344.653L59.715,270.118C59.715,263.555 104.416,155.16 109.236,143.493C118.14,114.184 143.933,92.199 175.263,88.891C177.712,88.61 180.449,88.459 183.489,88.459L316.511,88.459L317.01,88.46C319.849,88.476 322.419,88.625 324.737,88.891C356.067,92.199 381.86,114.184 390.764,143.493C395.584,155.16 440.285,263.555 440.285,270.118L440.285,344.653ZM410.285,280.057C410.144,275.113 406.835,267.086 406.835,267.086L362.378,154.468C362.335,154.445 362.313,154.431 362.311,154.424C356.549,133.693 337.521,118.459 314.963,118.459L185.037,118.459C162.479,118.459 143.451,133.693 137.689,154.424C137.687,154.431 137.665,154.445 137.622,154.468L93.165,267.086C93.165,267.086 89.856,275.113 89.715,280.057L89.715,338.553C89.715,340.202 91.054,341.541 92.704,341.541L407.296,341.541C408.946,341.541 410.285,340.202 410.285,338.553L410.285,280.057Z"/>
    </g>
    <g transform="matrix(0.048,0,0,0.048,0,2.4)">
        <path d="M163.618,304.498L133.618,304.498L133.618,338.553C133.618,340.202 132.279,341.541 130.63,341.541L92.704,341.541C91.054,341.541 89.715,340.202 89.715,338.553L89.715,298.498L59.715,298.498L59.715,344.653C59.715,359.493 71.763,371.541 86.603,371.541L136.73,371.541C151.57,371.541 163.618,359.493 163.618,344.653L163.618,304.498Z"/>
    </g>
    <g transform="matrix(-0.048,0,0,0.048,24,2.4)">
        <path d="M163.618,304.498L133.618,304.498L133.618,338.553C133.618,340.202 132.279,341.541 130.63,341.541L92.704,341.541C91.054,341.541 89.715,340.202 89.715,338.553L89.715,298.498L59.715,298.498L59.715,344.653C59.715,359.493 71.763,371.541 86.603,371.541L136.73,371.541C151.57,371.541 163.618,359.493 163.618,344.653L163.618,304.498Z"/>
    </g>
    <g transform="matrix(0.048,0,0,0.048,0,0)">
        <path d="M94.995,197.581L49.401,197.581C35.603,197.581 24.401,208.784 24.401,222.581C24.401,236.379 35.603,247.581 49.401,247.581L94.995,247.581L94.995,197.581Z"/>
    </g>
    <g transform="matrix(-0.048,0,0,0.048,24,0)">
        <path d="M94.995,197.581L49.401,197.581C35.603,197.581 24.401,208.784 24.401,222.581C24.401,236.379 35.603,247.581 49.401,247.581L94.995,247.581L94.995,197.581Z"/>
    </g>
    <g transform="matrix(0.048,0,0,0.048,0,0)">
        <path d="M418.417,215.372L387.766,212.633C387.766,217.687 383.662,221.79 378.608,221.79L121.392,221.79C116.338,221.79 112.234,217.687 112.234,212.633L81.583,215.372C81.583,235.472 97.902,251.79 118.001,251.79L381.999,251.79C402.098,251.79 418.417,235.472 418.417,215.372Z"/>
    </g>
</svg>
