<?xml version="1.0" encoding="UTF-8" standalone="no"?>
<!DOCTYPE svg PUBLIC "-//W3C//DTD SVG 1.1//EN" "http://www.w3.org/Graphics/SVG/1.1/DTD/svg11.dtd">
<svg width="100%" height="100%" viewBox="0 0 24 24" version="1.1" xmlns="http://www.w3.org/2000/svg" xmlns:xlink="http://www.w3.org/1999/xlink" xml:space="preserve" xmlns:serif="http://www.serif.com/" style="fill-rule:evenodd;clip-rule:evenodd;stroke-linejoin:round;stroke-miterlimit:2;">
    <g transform="matrix(0.048,0,0,0.048,0,0)">
        <path d="M256.545,33.162C140.643,33.162 46.545,127.26 46.545,243.162C46.545,359.064 140.643,453.162 256.545,453.162C372.448,453.162 466.545,359.064 466.545,243.162C466.545,127.26 372.448,33.162 256.545,33.162ZM256.545,63.162C157.201,63.162 76.545,143.817 76.545,243.162C76.545,342.506 157.201,423.162 256.545,423.162C355.89,423.162 436.545,342.506 436.545,243.162C436.545,143.817 355.89,63.162 256.545,63.162Z"/>
    </g>
    <g transform="matrix(-0.0373145,0,0,0.0659394,24.131,-4.09308)">
        <path d="M329.545,239.081C329.545,233.054 320.899,228.162 310.25,228.162L65.841,228.162C55.191,228.162 46.545,233.054 46.545,239.081C46.545,245.107 55.191,250 65.841,250L310.25,250C320.899,250 329.545,245.107 329.545,239.081Z"/>
    </g>
    <g transform="matrix(-0.0192927,0.031584,0.0562717,0.034373,4.8439,-6.41977)">
        <path d="M329.545,239.081C329.545,233.054 320.828,228.162 310.091,228.162L65.999,228.162C55.262,228.162 46.545,233.054 46.545,239.081C46.545,245.107 55.262,250 65.999,250L310.091,250C320.828,250 329.545,245.107 329.545,239.081Z"/>
    </g>
    <g transform="matrix(0.0298893,0.0215443,0.038557,-0.0534917,-6.22417,17.7021)">
        <path d="M329.545,239.081C329.545,233.054 320.789,228.162 310.004,228.162L66.087,228.162C55.302,228.162 46.545,233.054 46.545,239.081C46.545,245.107 55.302,250 66.087,250L310.004,250C320.789,250 329.545,245.107 329.545,239.081Z"/>
    </g>
    <g transform="matrix(-0.013719,-0.0339714,-0.0611419,0.0246915,31.4236,16.5361)">
        <path d="M329.545,239.081C329.545,233.054 320.74,228.162 309.893,228.162L66.198,228.162C55.351,228.162 46.545,233.054 46.545,239.081C46.545,245.107 55.351,250 66.198,250L309.893,250C320.74,250 329.545,245.107 329.545,239.081Z"/>
    </g>
</svg>
