<?xml version="1.0" encoding="UTF-8" standalone="no"?>
<!DOCTYPE svg PUBLIC "-//W3C//DTD SVG 1.1//EN" "http://www.w3.org/Graphics/SVG/1.1/DTD/svg11.dtd">
<svg width="100%" height="100%" viewBox="0 0 24 24" version="1.1" xmlns="http://www.w3.org/2000/svg" xmlns:xlink="http://www.w3.org/1999/xlink" xml:space="preserve" xmlns:serif="http://www.serif.com/" style="fill-rule:evenodd;clip-rule:evenodd;stroke-linejoin:round;stroke-miterlimit:2;">
    <g transform="matrix(0.048,0,0,0.0244505,0,1.64963)">
        <path d="M429.951,99.496C429.951,83.244 423.23,70.049 414.951,70.049L85.049,70.049C76.77,70.049 70.049,83.244 70.049,99.496C70.049,115.749 76.77,128.944 85.049,128.944L414.951,128.944C423.23,128.944 429.951,115.749 429.951,99.496Z"/>
    </g>
    <g transform="matrix(0.048,0,0,0.0244505,0,17.4849)">
        <path d="M429.951,99.496C429.951,83.244 423.23,70.049 414.951,70.049L85.049,70.049C76.77,70.049 70.049,83.244 70.049,99.496C70.049,115.749 76.77,128.944 85.049,128.944L414.951,128.944C423.23,128.944 429.951,115.749 429.951,99.496Z"/>
    </g>
    <g transform="matrix(2.93915e-18,0.048,-0.0244505,1.49716e-18,22.3504,-1.26323e-15)">
        <path d="M429.951,99.496C429.951,83.244 423.23,70.049 414.951,70.049L85.049,70.049C76.77,70.049 70.049,83.244 70.049,99.496C70.049,115.749 76.77,128.944 85.049,128.944L414.951,128.944C423.23,128.944 429.951,115.749 429.951,99.496Z"/>
    </g>
    <g transform="matrix(2.93915e-18,0.048,-0.0244505,1.49716e-18,6.51509,-2.936e-16)">
        <path d="M429.951,99.496C429.951,83.244 423.23,70.049 414.951,70.049L85.049,70.049C76.77,70.049 70.049,83.244 70.049,99.496C70.049,115.749 76.77,128.944 85.049,128.944L414.951,128.944C423.23,128.944 429.951,115.749 429.951,99.496Z"/>
    </g>
</svg>
