<?xml version="1.0" encoding="UTF-8" standalone="no"?>
<!DOCTYPE svg PUBLIC "-//W3C//DTD SVG 1.1//EN" "http://www.w3.org/Graphics/SVG/1.1/DTD/svg11.dtd">
<svg width="100%" height="100%" viewBox="0 0 24 24" version="1.1" xmlns="http://www.w3.org/2000/svg" xmlns:xlink="http://www.w3.org/1999/xlink" xml:space="preserve" xmlns:serif="http://www.serif.com/" style="fill-rule:evenodd;clip-rule:evenodd;stroke-linejoin:round;stroke-miterlimit:2;">
    <g transform="matrix(0.048,0,0,0.048,0,0.158749)">
        <path d="M250,78.163C290.489,78.163 323.36,111.035 323.36,151.523C323.36,192.012 290.489,224.884 250,224.884C209.511,224.884 176.64,192.012 176.64,151.523C176.64,111.035 209.511,78.163 250,78.163ZM250,108.163C273.931,108.163 293.36,127.592 293.36,151.523C293.36,175.455 273.931,194.884 250,194.884C226.069,194.884 206.64,175.455 206.64,151.523C206.64,127.592 226.069,108.163 250,108.163Z"/>
    </g>
    <g transform="matrix(0.048,0,0,0.048,0,0.158749)">
        <path d="M250,240.642C330.783,240.642 405,297.603 405,357.131C405,395.447 330.783,421.837 250,421.837C169.217,421.837 95,400.296 95,357.131C95,297.603 169.217,240.642 250,240.642ZM250,270.642C325.691,270.642 375,325.396 375,355.677C375,374.434 311.129,391.837 250,391.837C188.871,391.837 125,377.851 125,354.489C125,321.685 174.309,270.642 250,270.642Z"/>
    </g>
    <g transform="matrix(0.048,0,0,0.048,0,0.158749)">
        <path d="M120,71.548C148.734,71.548 172.062,94.877 172.062,123.611C172.062,152.345 148.734,175.673 120,175.673C91.266,175.673 67.938,152.345 67.938,123.611C67.938,94.877 91.266,71.548 120,71.548ZM120,101.548C132.176,101.548 142.062,111.434 142.062,123.611C142.062,135.787 132.176,145.673 120,145.673C107.824,145.673 97.938,135.787 97.938,123.611C97.938,111.434 107.824,101.548 120,101.548Z"/>
    </g>
    <g transform="matrix(0.048,0,0,0.048,12.48,0.158749)">
        <path d="M120,71.548C148.734,71.548 172.062,94.877 172.062,123.611C172.062,152.345 148.734,175.673 120,175.673C91.266,175.673 67.938,152.345 67.938,123.611C67.938,94.877 91.266,71.548 120,71.548ZM120,101.548C132.176,101.548 142.062,111.434 142.062,123.611C142.062,135.787 132.176,145.673 120,145.673C107.824,145.673 97.938,135.787 97.938,123.611C97.938,111.434 107.824,101.548 120,101.548Z"/>
    </g>
    <g transform="matrix(0.048,0,0,0.048,0,0.158749)">
        <path d="M271.026,259.243C278.627,220.952 327.348,186.856 380,186.856C437.33,186.856 490,227.28 490,269.526C490,296.664 437.541,315.371 380.351,315.446C372.868,304.284 361.378,293.416 345.627,284.068C356.104,285.033 367.784,285.446 380,285.446C423.382,285.446 460,276.962 460,263.651C460,250.34 426.716,216.856 380,216.856C333.284,216.856 300,247.071 300,263.651C300,264.229 300.045,264.794 300.133,265.346C291.14,262.893 281.442,260.833 271.026,259.243Z"/>
    </g>
    <g transform="matrix(0.048,0,0,0.048,0,0.158749)">
        <path d="M124.739,315.403C123.161,315.432 121.582,315.446 120,315.446C62.67,315.446 10,300.159 10,269.526C10,227.28 62.67,186.856 120,186.856C171.488,186.856 219.218,219.461 228.411,256.715C218.251,257.529 208.737,259.504 199.894,262.288C197.816,248.193 165.193,216.856 120,216.856C73.284,216.856 40,247.071 40,263.651C40,280.231 76.618,285.446 120,285.446C134.099,285.446 147.484,284.55 159.125,282.883C142.647,294.635 131.027,307.544 124.739,315.403Z"/>
    </g>
</svg>
