<?xml version="1.0" encoding="UTF-8" standalone="no"?>
<!DOCTYPE svg PUBLIC "-//W3C//DTD SVG 1.1//EN" "http://www.w3.org/Graphics/SVG/1.1/DTD/svg11.dtd">
<svg width="100%" height="100%" viewBox="0 0 24 24" version="1.1" xmlns="http://www.w3.org/2000/svg" xmlns:xlink="http://www.w3.org/1999/xlink" xml:space="preserve" xmlns:serif="http://www.serif.com/" style="fill-rule:evenodd;clip-rule:evenodd;stroke-linejoin:round;stroke-miterlimit:2;">
    <g transform="matrix(0.048,0,0,0.048,0,0)">
        <path d="M250,21.63C376.94,21.63 480,124.689 480,251.63C480,378.57 376.94,481.63 250,481.63C123.06,481.63 20,378.57 20,251.63C20,124.689 123.06,21.63 250,21.63ZM250,51.63C360.383,51.63 450,141.247 450,251.63C450,362.013 360.383,451.63 250,451.63C139.617,451.63 50,362.013 50,251.63C50,141.247 139.617,51.63 250,51.63Z"/>
    </g>
    <g transform="matrix(0.0404878,0,0,0.0404878,1.86818,1.66871)">
        <circle cx="250.244" cy="257.103" r="35.566"/>
    </g>
    <g transform="matrix(0.0527588,-0.0255686,0.0234967,0.0484835,-4.96927,5.49036)">
        <path d="M226.532,246.089C226.532,238.713 221.029,232.725 214.251,232.725L118.213,232.725C111.435,232.725 105.932,238.713 105.932,246.089C105.932,253.464 111.435,259.452 118.213,259.452L214.251,259.452C221.029,259.452 226.532,253.464 226.532,246.089Z"/>
    </g>
    <g transform="matrix(-0.0372556,0.0645287,-0.0466589,-0.0269385,31.497,4.74724)">
        <path d="M226.532,246.089C226.532,238.713 222.202,232.725 216.869,232.725L115.595,232.725C110.262,232.725 105.932,238.713 105.932,246.089C105.932,253.464 110.262,259.452 115.595,259.452L216.869,259.452C222.202,259.452 226.532,253.464 226.532,246.089Z"/>
    </g>
</svg>
