<?xml version="1.0" encoding="UTF-8" standalone="no"?>
<!DOCTYPE svg PUBLIC "-//W3C//DTD SVG 1.1//EN" "http://www.w3.org/Graphics/SVG/1.1/DTD/svg11.dtd">
<svg width="100%" height="100%" viewBox="0 0 24 24" version="1.1" xmlns="http://www.w3.org/2000/svg" xmlns:xlink="http://www.w3.org/1999/xlink" xml:space="preserve" xmlns:serif="http://www.serif.com/" style="fill-rule:evenodd;clip-rule:evenodd;stroke-linejoin:round;stroke-miterlimit:2;">
    <g transform="matrix(0.092789,0.092789,-0.0650821,0.0650821,6.01726,-11.717)">
        <path d="M257.171,136.245C257.171,131.928 254.712,128.422 251.684,128.422L68.394,128.422C65.366,128.422 62.907,131.928 62.907,136.245C62.907,140.563 65.366,144.068 68.394,144.068L251.684,144.068C254.712,144.068 257.171,140.563 257.171,136.245Z"/>
    </g>
    <g transform="matrix(-0.092789,0.092789,0.0650821,0.0650821,17.9827,-11.717)">
        <path d="M257.171,136.245C257.171,131.928 254.712,128.422 251.684,128.422L68.394,128.422C65.366,128.422 62.907,131.928 62.907,136.245C62.907,140.563 65.366,144.068 68.394,144.068L251.684,144.068C254.712,144.068 257.171,140.563 257.171,136.245Z"/>
    </g>
</svg>
