<?xml version="1.0" encoding="UTF-8" standalone="no"?>
<!DOCTYPE svg PUBLIC "-//W3C//DTD SVG 1.1//EN" "http://www.w3.org/Graphics/SVG/1.1/DTD/svg11.dtd">
<svg width="100%" height="100%" viewBox="0 0 24 24" version="1.1" xmlns="http://www.w3.org/2000/svg" xmlns:xlink="http://www.w3.org/1999/xlink" xml:space="preserve" xmlns:serif="http://www.serif.com/" style="fill-rule:evenodd;clip-rule:evenodd;stroke-linejoin:round;stroke-miterlimit:2;">
    <g transform="matrix(0.048,0,0,0.048,0,-0.000156454)">
        <path d="M88.436,389.87C46.419,387.481 13.038,352.608 13.038,310C13.038,265.847 48.885,230 93.038,230C95.522,230 97.979,230.113 100.406,230.336C100.325,228.57 100.284,226.793 100.284,225.007C100.284,161.536 151.814,110.007 215.284,110.007C267.254,110.007 311.218,144.554 325.444,191.918C334.079,188.106 343.625,185.989 353.662,185.989C390.38,185.989 420.533,214.32 423.433,250.296C459.04,253.568 486.962,283.549 486.962,320C486.962,358.557 455.722,389.875 417.189,390L417.189,390L88.436,390L88.436,389.87ZM416.962,360L93.038,360C65.442,360 43.038,337.596 43.038,310C43.038,282.404 65.442,260 93.038,260C97.383,260 101.599,260.555 105.619,261.599C105.839,261.656 106.063,261.708 106.291,261.755C106.291,261.755 106.281,261.767 106.296,261.771C120.426,265.207 133.241,254.341 131.562,239.896C131.531,239.627 131.493,239.358 131.448,239.09C130.683,234.509 130.284,229.804 130.284,225.007C130.284,178.094 168.372,140.007 215.284,140.007C258.914,140.007 294.911,172.95 299.735,215.297C300.751,224.216 316.964,236.854 330.275,223.543C336.068,217.75 344.933,215.989 353.662,215.989C375.07,215.989 392.572,232.842 393.613,253.995C393.613,259.809 393.306,267.871 399.349,274.28C406.051,281.388 413.354,279.709 419.401,280.073C440.344,281.336 456.962,298.742 456.962,320C456.962,342.077 439.039,360 416.962,360Z"/>
    </g>
</svg>
