<?xml version="1.0" encoding="UTF-8" standalone="no"?>
<!DOCTYPE svg PUBLIC "-//W3C//DTD SVG 1.1//EN" "http://www.w3.org/Graphics/SVG/1.1/DTD/svg11.dtd">
<svg width="100%" height="100%" viewBox="0 0 24 24" version="1.1" xmlns="http://www.w3.org/2000/svg" xmlns:xlink="http://www.w3.org/1999/xlink" xml:space="preserve" xmlns:serif="http://www.serif.com/" style="fill-rule:evenodd;clip-rule:evenodd;stroke-linejoin:round;stroke-miterlimit:2;">
    <g transform="matrix(0.0434712,0,0,0.0677265,0.614075,-2.52273)">
        <path d="M430.384,135.46C430.384,129.592 422.963,124.829 413.821,124.829L112.556,124.829C103.415,124.829 95.993,129.592 95.993,135.46C95.993,141.327 103.415,146.091 112.556,146.091L413.821,146.091C422.963,146.091 430.384,141.327 430.384,135.46Z"/>
    </g>
    <g transform="matrix(0.0434712,0,0,0.0677265,0.614075,0.293903)">
        <path d="M430.384,135.46C430.384,129.592 422.963,124.829 413.821,124.829L112.556,124.829C103.415,124.829 95.993,129.592 95.993,135.46C95.993,141.327 103.415,146.091 112.556,146.091L413.821,146.091C422.963,146.091 430.384,141.327 430.384,135.46Z"/>
    </g>
    <g transform="matrix(0.0434712,0,0,0.0677265,0.614075,3.11053)">
        <path d="M430.384,135.46C430.384,129.592 422.963,124.829 413.821,124.829L112.556,124.829C103.415,124.829 95.993,129.592 95.993,135.46C95.993,141.327 103.415,146.091 112.556,146.091L413.821,146.091C422.963,146.091 430.384,141.327 430.384,135.46Z"/>
    </g>
    <g transform="matrix(0.048,0,0,0.048,0,0)">
        <path d="M18.415,276.697L48.415,276.697L48.415,111.157C48.415,100.505 57.063,91.857 67.715,91.857L434.584,91.857C445.236,91.857 453.885,100.505 453.885,111.157L453.885,283.347C453.885,293.999 445.236,302.647 434.584,302.647L142.672,302.647L138.815,332.647L439.434,332.647C463.967,332.647 483.885,312.73 483.885,288.197L483.885,106.307C483.885,81.774 463.967,61.857 439.434,61.857L62.865,61.857C38.333,61.857 18.415,81.774 18.415,106.307L18.415,276.697Z"/>
    </g>
    <g transform="matrix(0.0465001,0,0,0.048,0.0276214,0)">
        <path d="M49.383,168.572C49.383,160.293 42.445,153.572 33.899,153.572C25.353,153.572 18.415,160.293 18.415,168.572L18.415,426.724C18.415,435.003 25.353,441.724 33.899,441.724C42.445,441.724 49.383,435.003 49.383,426.724L49.383,168.572Z"/>
    </g>
    <g transform="matrix(0.0328805,0.0328805,-0.0217041,0.0217041,9.56727,10.2902)">
        <path d="M49.383,177.029C49.383,164.083 42.445,153.572 33.899,153.572C25.353,153.572 18.415,164.083 18.415,177.029L18.415,418.267C18.415,431.213 25.353,441.724 33.899,441.724C42.445,441.724 49.383,431.213 49.383,418.267L49.383,177.029Z"/>
    </g>
</svg>
