<?xml version="1.0" encoding="UTF-8" standalone="no"?>
<!DOCTYPE svg PUBLIC "-//W3C//DTD SVG 1.1//EN" "http://www.w3.org/Graphics/SVG/1.1/DTD/svg11.dtd">
<svg width="100%" height="100%" viewBox="0 0 24 24" version="1.1" xmlns="http://www.w3.org/2000/svg" xmlns:xlink="http://www.w3.org/1999/xlink" xml:space="preserve" xmlns:serif="http://www.serif.com/" style="fill-rule:evenodd;clip-rule:evenodd;stroke-linejoin:round;stroke-miterlimit:2;">
    <g transform="matrix(0.048,0,0,0.072,1.36424e-15,-11.224)">
        <path d="M446.667,462.667C446.667,457.148 439.945,452.667 431.667,452.667L68.333,452.667C60.055,452.667 53.333,457.148 53.333,462.667C53.333,468.186 60.055,472.667 68.333,472.667L431.667,472.667C439.945,472.667 446.667,468.186 446.667,462.667Z"/>
    </g>
    <g transform="matrix(0.0364881,0,0,0.072,2.87797,-31.4)">
        <path d="M446.667,462.667C446.667,457.148 437.825,452.667 426.934,452.667L73.066,452.667C62.175,452.667 53.333,457.148 53.333,462.667C53.333,468.186 62.175,472.667 73.066,472.667L426.934,472.667C437.825,472.667 446.667,468.186 446.667,462.667Z"/>
    </g>
    <g transform="matrix(3.29036e-18,0.0537356,-0.072,4.40873e-18,51.768,-1.6739)">
        <path d="M446.667,462.667C446.667,457.148 440.663,452.667 433.268,452.667L66.732,452.667C59.337,452.667 53.333,457.148 53.333,462.667C53.333,468.186 59.337,472.667 66.732,472.667L433.268,472.667C440.663,472.667 446.667,468.186 446.667,462.667Z"/>
    </g>
    <g transform="matrix(3.29036e-18,0.0537356,-0.072,4.40873e-18,38.856,-1.6739)">
        <path d="M446.667,462.667C446.667,457.148 440.663,452.667 433.268,452.667L66.732,452.667C59.337,452.667 53.333,457.148 53.333,462.667C53.333,468.186 59.337,472.667 66.732,472.667L433.268,472.667C440.663,472.667 446.667,468.186 446.667,462.667Z"/>
    </g>
    <g transform="matrix(1.00455e-18,0.0164056,-0.072,4.40873e-18,41.94,15.2402)">
        <path d="M446.667,462.667C446.667,457.148 427.001,452.667 402.779,452.667L97.221,452.667C72.999,452.667 53.333,457.148 53.333,462.667C53.333,468.186 72.999,472.667 97.221,472.667L402.779,472.667C427.001,472.667 446.667,468.186 446.667,462.667Z"/>
    </g>
    <g transform="matrix(1.00455e-18,0.0164056,-0.072,4.40873e-18,45.2899,15.2402)">
        <path d="M446.667,462.667C446.667,457.148 427.001,452.667 402.779,452.667L97.221,452.667C72.999,452.667 53.333,457.148 53.333,462.667C53.333,468.186 72.999,472.667 97.221,472.667L402.779,472.667C427.001,472.667 446.667,468.186 446.667,462.667Z"/>
    </g>
    <g transform="matrix(-0.0206946,2.53436e-18,-8.81746e-18,-0.072,17.1516,50.1471)">
        <path d="M446.667,462.667C446.667,457.148 431.077,452.667 411.875,452.667L88.125,452.667C68.923,452.667 53.333,457.148 53.333,462.667C53.333,468.186 68.923,472.667 88.125,472.667L411.875,472.667C431.077,472.667 446.667,468.186 446.667,462.667Z"/>
    </g>
    <g transform="matrix(0.048,0,0,0.048,1.36424e-15,0.12)">
        <path d="M348.667,285.189L348.667,214.487C348.667,206.208 341.945,199.487 333.667,199.487L166.333,199.487C158.055,199.487 151.333,206.208 151.333,214.487L151.333,285.189C151.333,293.468 158.055,300.189 166.333,300.189L333.667,300.189C341.945,300.189 348.667,293.468 348.667,285.189ZM181.333,229.487L181.333,270.189L318.667,270.189L318.667,229.487L181.333,229.487Z"/>
    </g>
    <g transform="matrix(0.048,0,0,0.048,1.36424e-15,-5.95223)">
        <path d="M348.667,285.189L348.667,214.487C348.667,206.208 341.945,199.487 333.667,199.487L166.333,199.487C158.055,199.487 151.333,206.208 151.333,214.487L151.333,285.189C151.333,293.468 158.055,300.189 166.333,300.189L333.667,300.189C341.945,300.189 348.667,293.468 348.667,285.189ZM181.333,229.487L181.333,270.189L318.667,270.189L318.667,229.487L181.333,229.487Z"/>
    </g>
    <g transform="matrix(1.00455e-18,0.0164056,-0.072,4.40873e-18,48.6399,15.2402)">
        <path d="M446.667,462.667C446.667,457.148 427.001,452.667 402.779,452.667L97.221,452.667C72.999,452.667 53.333,457.148 53.333,462.667C53.333,468.186 72.999,472.667 97.221,472.667L402.779,472.667C427.001,472.667 446.667,468.186 446.667,462.667Z"/>
    </g>
</svg>
