<?xml version="1.0" encoding="UTF-8" standalone="no"?>
<!DOCTYPE svg PUBLIC "-//W3C//DTD SVG 1.1//EN" "http://www.w3.org/Graphics/SVG/1.1/DTD/svg11.dtd">
<svg width="100%" height="100%" viewBox="0 0 24 24" version="1.1" xmlns="http://www.w3.org/2000/svg" xmlns:xlink="http://www.w3.org/1999/xlink" xml:space="preserve" xmlns:serif="http://www.serif.com/" style="fill-rule:evenodd;clip-rule:evenodd;stroke-linejoin:round;stroke-miterlimit:2;">
    <g transform="matrix(0.048,0,0,0.048,0,0)">
        <path d="M250.809,15.809C380.509,15.809 485.809,121.109 485.809,250.809C485.809,380.509 380.509,485.809 250.809,485.809C121.109,485.809 15.809,380.509 15.809,250.809C15.809,121.109 121.109,15.809 250.809,15.809ZM250.809,45.809C363.952,45.809 455.809,137.667 455.809,250.809C455.809,363.952 363.952,455.809 250.809,455.809C137.667,455.809 45.809,363.952 45.809,250.809C45.809,137.667 137.667,45.809 250.809,45.809Z"/>
    </g>
    <g transform="matrix(0.0644843,0,0,0.048,-3.40108,0)">
        <path d="M250,30.809C250,22.531 244.997,15.809 238.834,15.809C232.672,15.809 227.669,22.531 227.669,30.809L227.669,90.267C227.669,98.546 232.672,105.267 238.834,105.267C244.997,105.267 250,98.546 250,90.267L250,30.809Z"/>
    </g>
    <g transform="matrix(0.0644843,0,0,0.048,-3.40108,18.266)">
        <path d="M250,30.809C250,22.531 244.997,15.809 238.834,15.809C232.672,15.809 227.669,22.531 227.669,30.809L227.669,90.267C227.669,98.546 232.672,105.267 238.834,105.267C244.997,105.267 250,98.546 250,90.267L250,30.809Z"/>
    </g>
    <g transform="matrix(3.94853e-18,0.0644843,-0.048,2.93915e-18,24.0389,-3.36223)">
        <path d="M250,30.809C250,22.531 244.997,15.809 238.834,15.809C232.672,15.809 227.669,22.531 227.669,30.809L227.669,90.267C227.669,98.546 232.672,105.267 238.834,105.267C244.997,105.267 250,98.546 250,90.267L250,30.809Z"/>
    </g>
    <g transform="matrix(3.94853e-18,0.0644843,-0.048,2.93915e-18,5.77284,-3.36223)">
        <path d="M250,30.809C250,22.531 244.997,15.809 238.834,15.809C232.672,15.809 227.669,22.531 227.669,30.809L227.669,90.267C227.669,98.546 232.672,105.267 238.834,105.267C244.997,105.267 250,98.546 250,90.267L250,30.809Z"/>
    </g>
    <g transform="matrix(0.0350337,0.0475884,-0.042898,0.0315807,14.2777,-5.96451)">
        <path d="M214.012,80.771C214.012,73.311 208.552,67.254 201.827,67.254C195.103,67.254 189.643,73.311 189.643,80.771L189.643,237.293C189.643,244.753 195.103,250.809 201.827,250.809C208.552,250.809 214.012,244.753 214.012,237.293L214.012,80.771Z"/>
    </g>
    <g transform="matrix(-0.0475884,-0.0350337,-0.0315538,0.0428614,30.0337,9.80747)">
        <path d="M214.012,80.782C214.012,73.316 208.552,67.254 201.827,67.254C195.103,67.254 189.643,73.316 189.643,80.782L189.643,237.282C189.643,244.748 195.103,250.809 201.827,250.809C208.552,250.809 214.012,244.748 214.012,237.282L214.012,80.782Z"/>
    </g>
    <g transform="matrix(-0.0417853,0.0417853,0.0152066,0.0152066,18.0201,1.21924)">
        <path d="M214.012,100.734C214.012,82.256 208.552,67.254 201.827,67.254C195.103,67.254 189.643,82.256 189.643,100.734L189.643,217.329C189.643,235.807 195.103,250.809 201.827,250.809C208.552,250.809 214.012,235.807 214.012,217.329L214.012,100.734Z"/>
    </g>
    <g transform="matrix(0.0475884,0.0350337,0.0314785,-0.0427592,-5.95442,14.2584)">
        <path d="M214.012,80.814C214.012,73.33 208.552,67.254 201.827,67.254C195.103,67.254 189.643,73.33 189.643,80.814L189.643,237.249C189.643,244.733 195.103,250.809 201.827,250.809C208.552,250.809 214.012,244.733 214.012,237.249L214.012,80.814Z"/>
    </g>
    <g transform="matrix(-0.0350337,-0.0475884,0.0427958,-0.0315055,9.80837,30.0372)">
        <path d="M214.012,80.803C214.012,73.325 208.552,67.254 201.827,67.254C195.103,67.254 189.643,73.325 189.643,80.803L189.643,237.261C189.643,244.738 195.103,250.809 201.827,250.809C208.552,250.809 214.012,244.738 214.012,237.261L214.012,80.803Z"/>
    </g>
</svg>
