<?xml version="1.0" encoding="UTF-8" standalone="no"?>
<!DOCTYPE svg PUBLIC "-//W3C//DTD SVG 1.1//EN" "http://www.w3.org/Graphics/SVG/1.1/DTD/svg11.dtd">
<svg width="100%" height="100%" viewBox="0 0 24 24" version="1.1" xmlns="http://www.w3.org/2000/svg" xmlns:xlink="http://www.w3.org/1999/xlink" xml:space="preserve" xmlns:serif="http://www.serif.com/" style="fill-rule:evenodd;clip-rule:evenodd;stroke-linejoin:round;stroke-miterlimit:2;">
    <g transform="matrix(0.0508706,0,0,0.0495915,-0.301484,-0.330528)">
        <path d="M49.726,71.401C49.726,63.388 43.384,56.882 35.572,56.882C27.761,56.882 21.419,63.388 21.419,71.401L21.419,343.965C21.419,351.978 27.761,358.483 35.572,358.483C43.384,358.483 49.726,351.978 49.726,343.965L49.726,71.401Z"/>
    </g>
    <g transform="matrix(0.0508706,0,0,0.0495915,20.6149,-0.330528)">
        <path d="M49.726,71.401C49.726,63.388 43.384,56.882 35.572,56.882C27.761,56.882 21.419,63.388 21.419,71.401L21.419,343.965C21.419,351.978 27.761,358.483 35.572,358.483C43.384,358.483 49.726,351.978 49.726,343.965L49.726,71.401Z"/>
    </g>
    <g transform="matrix(3.11493e-18,-0.0508706,0.0741257,4.53889e-18,-3.42833,5.01991)">
        <path d="M49.726,66.595C49.726,61.234 43.384,56.882 35.572,56.882C27.761,56.882 21.419,61.234 21.419,66.595L21.419,348.77C21.419,354.131 27.761,358.483 35.572,358.483C43.384,358.483 49.726,354.131 49.726,348.77L49.726,66.595Z"/>
    </g>
    <g transform="matrix(3.11493e-18,-0.0508706,0.0741257,4.53889e-18,-3.42833,18.5368)">
        <path d="M49.726,66.595C49.726,61.234 43.384,56.882 35.572,56.882C27.761,56.882 21.419,61.234 21.419,66.595L21.419,348.77C21.419,354.131 27.761,358.483 35.572,358.483C43.384,358.483 49.726,354.131 49.726,348.77L49.726,66.595Z"/>
    </g>
    <g transform="matrix(3.11493e-18,-0.0508706,0.0407238,2.49361e-18,3.50868,23.1237)">
        <path d="M49.726,74.562C49.726,64.804 43.384,56.882 35.572,56.882C27.761,56.882 21.419,64.804 21.419,74.562L21.419,340.803C21.419,350.561 27.761,358.483 35.572,358.483C43.384,358.483 49.726,350.561 49.726,340.803L49.726,74.562Z"/>
    </g>
    <g transform="matrix(3.11493e-18,-0.0508706,0.0566606,3.46946e-18,0.198863,15.8688)">
        <path d="M49.726,69.589C49.726,62.576 43.384,56.882 35.572,56.882C27.761,56.882 21.419,62.576 21.419,69.589L21.419,345.776C21.419,352.789 27.761,358.483 35.572,358.483C43.384,358.483 49.726,352.789 49.726,345.776L49.726,69.589Z"/>
    </g>
    <g transform="matrix(3.11493e-18,-0.0508706,0.0566606,3.46946e-18,0.198863,7.63839)">
        <path d="M49.726,69.589C49.726,62.576 43.384,56.882 35.572,56.882C27.761,56.882 21.419,62.576 21.419,69.589L21.419,345.776C21.419,352.789 27.761,358.483 35.572,358.483C43.384,358.483 49.726,352.789 49.726,345.776L49.726,69.589Z"/>
    </g>
    <g transform="matrix(0.0508706,0,0,0.0320637,17.9812,3.28497)">
        <path d="M49.726,79.337C49.726,66.944 43.384,56.882 35.572,56.882C27.761,56.882 21.419,66.944 21.419,79.337L21.419,336.028C21.419,348.421 27.761,358.483 35.572,358.483C43.384,358.483 49.726,348.421 49.726,336.028L49.726,79.337Z"/>
    </g>
    <g transform="matrix(0.0508706,0,0,0.0320637,2.33226,3.28497)">
        <path d="M49.726,79.337C49.726,66.944 43.384,56.882 35.572,56.882C27.761,56.882 21.419,66.944 21.419,79.337L21.419,336.028C21.419,348.421 27.761,358.483 35.572,358.483C43.384,358.483 49.726,348.421 49.726,336.028L49.726,79.337Z"/>
    </g>
    <g transform="matrix(0.0508706,0,0,0.0183917,8.03043,15.201)">
        <path d="M49.726,96.03C49.726,74.424 43.384,56.882 35.572,56.882C27.761,56.882 21.419,74.424 21.419,96.03L21.419,319.335C21.419,340.942 27.761,358.483 35.572,358.483C43.384,358.483 49.726,340.942 49.726,319.335L49.726,96.03Z"/>
    </g>
    <g transform="matrix(0.0508706,0,0,0.0183917,12.3504,15.201)">
        <path d="M49.726,96.03C49.726,74.424 43.384,56.882 35.572,56.882C27.761,56.882 21.419,74.424 21.419,96.03L21.419,319.335C21.419,340.942 27.761,358.483 35.572,358.483C43.384,358.483 49.726,340.942 49.726,319.335L49.726,96.03Z"/>
    </g>
</svg>
