<?xml version="1.0" encoding="UTF-8" standalone="no"?>
<!DOCTYPE svg PUBLIC "-//W3C//DTD SVG 1.1//EN" "http://www.w3.org/Graphics/SVG/1.1/DTD/svg11.dtd">
<svg width="100%" height="100%" viewBox="0 0 24 24" version="1.1" xmlns="http://www.w3.org/2000/svg" xmlns:xlink="http://www.w3.org/1999/xlink" xml:space="preserve" xmlns:serif="http://www.serif.com/" style="fill-rule:evenodd;clip-rule:evenodd;stroke-linejoin:round;stroke-miterlimit:2;">
    <g transform="matrix(0.048,0,0,0.048,0,0)">
        <path d="M249.911,24.911C374.092,24.911 474.911,125.73 474.911,249.911C474.911,374.092 374.092,474.911 249.911,474.911C125.73,474.911 24.911,374.092 24.911,249.911C24.911,125.73 125.73,24.911 249.911,24.911ZM249.911,54.911C357.534,54.911 444.911,142.287 444.911,249.911C444.911,357.534 357.534,444.911 249.911,444.911C142.287,444.911 54.911,357.534 54.911,249.911C54.911,142.287 142.287,54.911 249.911,54.911Z"/>
    </g>
    <g transform="matrix(0.0567438,0,0,0.048,-2.17077,0)">
        <rect x="236.968" y="40" width="25.377" height="420"/>
    </g>
    <g transform="matrix(0.0401239,0.0401239,-0.00933898,0.00933898,6.27443,-7.94278)">
        <rect x="236.968" y="40" width="25.377" height="420"/>
    </g>
    <g transform="matrix(0.0401239,0.0401239,-0.0154138,0.0154138,9.06887,-6.70329)">
        <rect x="236.968" y="40" width="25.377" height="420"/>
    </g>
    <g transform="matrix(0.0401239,0.0401239,-0.0196756,0.0196756,11.0336,-4.63409)">
        <rect x="236.968" y="40" width="25.377" height="420"/>
    </g>
    <g transform="matrix(0.0401239,0.0401239,-0.0226645,0.0226645,12.4042,-1.97075)">
        <rect x="236.968" y="40" width="25.377" height="420"/>
    </g>
    <g transform="matrix(0.0401239,0.0401239,-0.0220981,0.0220981,12.8636,1.60369)">
        <rect x="236.968" y="40" width="25.377" height="420"/>
    </g>
</svg>
