<?xml version="1.0" encoding="UTF-8" standalone="no"?>
<!DOCTYPE svg PUBLIC "-//W3C//DTD SVG 1.1//EN" "http://www.w3.org/Graphics/SVG/1.1/DTD/svg11.dtd">
<svg width="100%" height="100%" viewBox="0 0 24 24" version="1.1" xmlns="http://www.w3.org/2000/svg" xmlns:xlink="http://www.w3.org/1999/xlink" xml:space="preserve" xmlns:serif="http://www.serif.com/" style="fill-rule:evenodd;clip-rule:evenodd;stroke-linejoin:round;stroke-miterlimit:2;">
    <g transform="matrix(0.048,0,0,0.048,-1.36424e-15,0)">
        <path d="M245,121.176C274.176,121.176 297.863,144.863 297.863,174.039C297.863,203.215 274.176,226.902 245,226.902C215.824,226.902 192.137,203.215 192.137,174.039C192.137,144.863 215.824,121.176 245,121.176ZM245,151.189C257.611,151.189 267.85,161.428 267.85,174.039C267.85,186.65 257.611,196.889 245,196.889C232.389,196.889 222.15,186.65 222.15,174.039C222.15,161.428 232.389,151.189 245,151.189Z"/>
    </g>
    <g transform="matrix(0.048,0,0,0.048,-0.24,-0.24)">
        <path d="M250,243.257C308.212,243.257 361.691,284.302 361.691,327.198C361.691,354.808 308.212,373.824 250,373.824C191.788,373.824 138.309,358.302 138.309,327.198C138.309,284.302 191.788,243.257 250,243.257ZM250,273.257C303.755,273.257 331.691,309.969 331.691,322.395C331.691,334.821 293.413,343.824 250,343.824C206.587,343.824 168.309,337.216 168.309,322.395C168.309,307.574 196.245,273.257 250,273.257Z"/>
    </g>
    <g transform="matrix(0.069984,0,0,0.0463726,-0.312,-0.658631)">
        <path d="M55.898,101.946C55.898,93.377 51.289,86.42 45.61,86.42C39.932,86.42 35.322,93.377 35.322,101.946L35.322,444.007C35.322,452.576 39.932,459.534 45.61,459.534C51.289,459.534 55.898,452.576 55.898,444.007L55.898,101.946Z"/>
    </g>
    <g transform="matrix(0.069984,0,0,0.0463726,17.928,-0.658631)">
        <path d="M55.898,101.946C55.898,93.377 51.289,86.42 45.61,86.42C39.932,86.42 35.322,93.377 35.322,101.946L35.322,444.007C35.322,452.576 39.932,459.534 45.61,459.534C51.289,459.534 55.898,452.576 55.898,444.007L55.898,101.946Z"/>
    </g>
    <g transform="matrix(4.28528e-18,0.069984,-0.0527453,3.22972e-18,26.3982,0.876875)">
        <path d="M55.898,100.07C55.898,92.536 51.289,86.42 45.61,86.42C39.932,86.42 35.322,92.536 35.322,100.07L35.322,445.883C35.322,453.417 39.932,459.534 45.61,459.534C51.289,459.534 55.898,453.417 55.898,445.883L55.898,100.07Z"/>
    </g>
    <g transform="matrix(4.28528e-18,0.069984,-0.0427108,2.61528e-18,23.4191,-1.52312)">
        <path d="M55.898,103.277C55.898,93.973 51.289,86.42 45.61,86.42C39.932,86.42 35.322,93.973 35.322,103.277L35.322,442.676C35.322,451.98 39.932,459.534 45.61,459.534C51.289,459.534 55.898,451.98 55.898,442.676L55.898,103.277Z"/>
    </g>
    <g transform="matrix(4.28528e-18,0.069984,-0.0427108,2.61528e-18,23.4191,19.1391)">
        <path d="M55.898,103.277C55.898,93.973 51.289,86.42 45.61,86.42C39.932,86.42 35.322,93.973 35.322,103.277L35.322,442.676C35.322,451.98 39.932,459.534 45.61,459.534C51.289,459.534 55.898,451.98 55.898,442.676L55.898,103.277Z"/>
    </g>
    <g transform="matrix(4.28528e-18,0.069984,-0.0527453,3.22972e-18,26.3982,16.7391)">
        <path d="M55.898,100.07C55.898,92.536 51.289,86.42 45.61,86.42C39.932,86.42 35.322,92.536 35.322,100.07L35.322,445.883C35.322,453.417 39.932,459.534 45.61,459.534C51.289,459.534 55.898,453.417 55.898,445.883L55.898,100.07Z"/>
    </g>
</svg>
