<?xml version="1.0" encoding="UTF-8" standalone="no"?>
<!DOCTYPE svg PUBLIC "-//W3C//DTD SVG 1.1//EN" "http://www.w3.org/Graphics/SVG/1.1/DTD/svg11.dtd">
<svg width="100%" height="100%" viewBox="0 0 24 24" version="1.1" xmlns="http://www.w3.org/2000/svg" xmlns:xlink="http://www.w3.org/1999/xlink" xml:space="preserve" xmlns:serif="http://www.serif.com/" style="fill-rule:evenodd;clip-rule:evenodd;stroke-linejoin:round;stroke-miterlimit:2;">
    <g transform="matrix(0.0278976,0,0,0.0552505,0.825082,4.11359)">
        <path d="M441.358,24.691C441.358,17.499 429.794,11.66 415.549,11.66L94.739,11.66C80.495,11.66 68.93,17.499 68.93,24.691C68.93,31.884 80.495,37.723 94.739,37.723L415.549,37.723C429.794,37.723 441.358,31.884 441.358,24.691Z"/>
    </g>
    <g transform="matrix(8.49993e-19,0.0138814,-0.0552505,3.38312e-18,13.3789,3.80095)">
        <path d="M441.358,24.691C441.358,17.499 418.117,11.66 389.49,11.66L120.798,11.66C92.171,11.66 68.93,17.499 68.93,24.691C68.93,31.884 92.171,37.723 120.798,37.723L389.49,37.723C418.117,37.723 441.358,31.884 441.358,24.691Z"/>
    </g>
    <g transform="matrix(-0.0129107,-0.0129107,0.039068,-0.039068,16.6488,11.6316)">
        <path d="M441.358,24.691C441.358,17.499 423.688,11.66 401.924,11.66L108.364,11.66C86.6,11.66 68.93,17.499 68.93,24.691C68.93,31.884 86.6,37.723 108.364,37.723L401.924,37.723C423.688,37.723 441.358,31.884 441.358,24.691Z"/>
    </g>
    <g transform="matrix(-0.0144799,1.77328e-18,-6.76624e-18,-0.0552505,17.6855,10.5719)">
        <path d="M441.358,24.691C441.358,17.499 419.077,11.66 391.634,11.66L118.654,11.66C91.211,11.66 68.93,17.499 68.93,24.691C68.93,31.884 91.211,37.723 118.654,37.723L391.634,37.723C419.077,37.723 441.358,31.884 441.358,24.691Z"/>
    </g>
    <g transform="matrix(3.08534e-18,0.0503874,-0.0552505,3.38312e-18,4.83228,1.28459)">
        <path d="M441.358,24.691C441.358,17.499 434.955,11.66 427.069,11.66L83.219,11.66C75.333,11.66 68.93,17.499 68.93,24.691C68.93,31.884 75.333,37.723 83.219,37.723L427.069,37.723C434.955,37.723 441.358,31.884 441.358,24.691Z"/>
    </g>
    <g transform="matrix(-0.0380915,-1.09442e-18,-1.44635e-18,-0.0552505,19.56,24.1677)">
        <path d="M441.358,24.691C441.358,17.499 432.888,11.66 422.456,11.66L87.832,11.66C77.4,11.66 68.93,17.499 68.93,24.691C68.93,31.884 77.4,37.723 87.832,37.723L422.456,37.723C432.888,37.723 441.358,31.884 441.358,24.691Z"/>
    </g>
    <g transform="matrix(-2.21275e-18,-0.0400703,0.0552505,-3.13692e-18,14.8502,26.2855)">
        <path d="M441.358,24.691C441.358,17.499 433.307,11.66 423.39,11.66L86.898,11.66C76.981,11.66 68.93,17.499 68.93,24.691C68.93,31.884 76.981,37.723 86.898,37.723L423.39,37.723C433.307,37.723 441.358,31.884 441.358,24.691Z"/>
    </g>
    <g transform="matrix(0.0271314,0,0,0.0552505,5.39996,-0.161512)">
        <path d="M441.358,24.691C441.358,17.499 429.467,11.66 414.82,11.66L95.468,11.66C80.821,11.66 68.93,17.499 68.93,24.691C68.93,31.884 80.821,37.723 95.468,37.723L414.82,37.723C429.467,37.723 441.358,31.884 441.358,24.691Z"/>
    </g>
    <g transform="matrix(8.49993e-19,0.0138814,-0.0552505,3.38312e-18,17.654,-0.47415)">
        <path d="M441.358,24.691C441.358,17.499 418.117,11.66 389.49,11.66L120.798,11.66C92.171,11.66 68.93,17.499 68.93,24.691C68.93,31.884 92.171,37.723 120.798,37.723L389.49,37.723C418.117,37.723 441.358,31.884 441.358,24.691Z"/>
    </g>
    <g transform="matrix(-0.0122476,-0.0122476,0.039068,-0.039068,20.6312,7.0638)">
        <path d="M441.358,24.691C441.358,17.499 422.732,11.66 399.789,11.66L110.499,11.66C87.556,11.66 68.93,17.499 68.93,24.691C68.93,31.884 87.556,37.723 110.499,37.723L399.789,37.723C422.732,37.723 441.358,31.884 441.358,24.691Z"/>
    </g>
    <g transform="matrix(-0.0138168,1.69207e-18,-6.76624e-18,-0.0552505,21.9149,6.29675)">
        <path d="M441.358,24.691C441.358,17.499 418.008,11.66 389.248,11.66L121.041,11.66C92.28,11.66 68.93,17.499 68.93,24.691C68.93,31.884 92.28,37.723 121.041,37.723L389.248,37.723C418.008,37.723 441.358,31.884 441.358,24.691Z"/>
    </g>
    <g transform="matrix(8.99039e-19,0.0146824,-0.0552505,3.38312e-18,9.10738,-0.529361)">
        <path d="M441.358,24.691C441.358,17.499 419.385,11.66 392.32,11.66L117.968,11.66C90.903,11.66 68.93,17.499 68.93,24.691C68.93,31.884 90.903,37.723 117.968,37.723L392.32,37.723C419.385,37.723 441.358,31.884 441.358,24.691Z"/>
    </g>
    <g transform="matrix(-0.0146824,-3.20311e-18,-3.07242e-18,-0.0552505,21.9746,19.8926)">
        <path d="M441.358,24.691C441.358,17.499 419.385,11.66 392.32,11.66L117.968,11.66C90.903,11.66 68.93,17.499 68.93,24.691C68.93,31.884 90.903,37.723 117.968,37.723L392.32,37.723C419.385,37.723 441.358,31.884 441.358,24.691Z"/>
    </g>
    <g transform="matrix(-2.33296e-18,-0.0408178,0.0552505,-3.02969e-18,18.8783,22.062)">
        <path d="M441.358,24.691C441.358,17.499 433.454,11.66 423.719,11.66L86.569,11.66C76.834,11.66 68.93,17.499 68.93,24.691C68.93,31.884 76.834,37.723 86.569,37.723L423.719,37.723C433.454,37.723 441.358,31.884 441.358,24.691Z"/>
    </g>
</svg>
