<?xml version="1.0" encoding="UTF-8" standalone="no"?>
<!DOCTYPE svg PUBLIC "-//W3C//DTD SVG 1.1//EN" "http://www.w3.org/Graphics/SVG/1.1/DTD/svg11.dtd">
<svg width="100%" height="100%" viewBox="0 0 24 24" version="1.1" xmlns="http://www.w3.org/2000/svg" xmlns:xlink="http://www.w3.org/1999/xlink" xml:space="preserve" xmlns:serif="http://www.serif.com/" style="fill-rule:evenodd;clip-rule:evenodd;stroke-linejoin:round;stroke-miterlimit:2;">
    <g transform="matrix(0.048,0,0,0.0327028,0,1.52972)">
        <path d="M480,122.016C480,109.865 473.279,100 465,100L35,100C26.721,100 20,109.865 20,122.016C20,134.168 26.721,144.033 35,144.033L465,144.033C473.279,144.033 480,134.168 480,122.016Z"/>
    </g>
    <g transform="matrix(1.91684e-18,0.0313043,-0.0327028,2.00247e-18,5.67028,4.17391)">
        <path d="M480,122.016C480,109.865 469.694,100 457,100L43,100C30.306,100 20,109.865 20,122.016C20,134.168 30.306,144.033 43,144.033L457,144.033C469.694,144.033 480,134.168 480,122.016Z"/>
    </g>
    <g transform="matrix(1.91684e-18,0.0313043,-0.0327028,2.00247e-18,26.3103,4.17391)">
        <path d="M480,122.016C480,109.865 469.694,100 457,100L43,100C30.306,100 20,109.865 20,122.016C20,134.168 30.306,144.033 43,144.033L457,144.033C469.694,144.033 480,134.168 480,122.016Z"/>
    </g>
    <g transform="matrix(0.048,0,0,0.0327028,0,14.4897)">
        <path d="M480,122.016C480,109.865 473.279,100 465,100L35,100C26.721,100 20,109.865 20,122.016C20,134.168 26.721,144.033 35,144.033L465,144.033C473.279,144.033 480,134.168 480,122.016Z"/>
    </g>
    <g transform="matrix(0.048,0,0,0.0538318,0,2.97896)">
        <path d="M480,122.016C480,109.865 468.936,100 455.309,100L44.691,100C31.064,100 20,109.865 20,122.016C20,134.168 31.064,144.033 44.691,144.033L455.309,144.033C468.936,144.033 480,134.168 480,122.016Z"/>
    </g>
</svg>
