<?xml version="1.0" encoding="UTF-8" standalone="no"?>
<!DOCTYPE svg PUBLIC "-//W3C//DTD SVG 1.1//EN" "http://www.w3.org/Graphics/SVG/1.1/DTD/svg11.dtd">
<svg width="100%" height="100%" viewBox="0 0 24 24" version="1.1" xmlns="http://www.w3.org/2000/svg" xmlns:xlink="http://www.w3.org/1999/xlink" xml:space="preserve" xmlns:serif="http://www.serif.com/" style="fill-rule:evenodd;clip-rule:evenodd;stroke-linejoin:round;stroke-miterlimit:2;">
    <g transform="matrix(0.048,0,0,0.0405634,-0.401473,-0.682253)">
        <path d="M214.944,206.848C214.944,197.051 208.223,189.098 199.944,189.098L40.611,189.098C32.332,189.098 25.611,197.051 25.611,206.848C25.611,216.644 32.332,224.598 40.611,224.598L199.944,224.598C208.223,224.598 214.944,216.644 214.944,206.848Z"/>
    </g>
    <g transform="matrix(0.048,0,0,0.0405634,-0.401473,7.90138)">
        <path d="M214.944,206.848C214.944,197.051 208.223,189.098 199.944,189.098L40.611,189.098C32.332,189.098 25.611,197.051 25.611,206.848C25.611,216.644 32.332,224.598 40.611,224.598L199.944,224.598C208.223,224.598 214.944,216.644 214.944,206.848Z"/>
    </g>
    <g transform="matrix(0.0370063,0,0,0.0405634,3.35061,3.60956)">
        <path d="M214.944,206.848C214.944,197.051 206.226,189.098 195.488,189.098L45.067,189.098C34.329,189.098 25.611,197.051 25.611,206.848C25.611,216.644 34.329,224.598 45.067,224.598L195.488,224.598C206.226,224.598 214.944,216.644 214.944,206.848Z"/>
    </g>
    <g transform="matrix(0.0194522,0,0,0.0405634,1.9587,1.46365)">
        <path d="M214.944,206.848C214.944,197.051 198.358,189.098 177.93,189.098L62.624,189.098C42.196,189.098 25.611,197.051 25.611,206.848C25.611,216.644 42.196,224.598 62.624,224.598L177.93,224.598C198.358,224.598 214.944,216.644 214.944,206.848Z"/>
    </g>
    <g transform="matrix(0.0194522,0,0,0.0405634,1.9587,5.75547)">
        <path d="M214.944,206.848C214.944,197.051 198.358,189.098 177.93,189.098L62.624,189.098C42.196,189.098 25.611,197.051 25.611,206.848C25.611,216.644 42.196,224.598 62.624,224.598L177.93,224.598C198.358,224.598 214.944,216.644 214.944,206.848Z"/>
    </g>
    <g transform="matrix(0.048,0,0,0.048,0,0)">
        <path d="M482.754,141.437C482.754,127.17 471.17,115.587 456.903,115.587L189.702,115.587C175.435,115.587 163.852,127.17 163.852,141.437L163.852,358.563C163.852,372.83 175.435,384.413 189.702,384.413L456.903,384.413C471.17,384.413 482.754,372.83 482.754,358.563L482.754,141.437ZM452.754,152.142C452.754,148.524 449.817,145.587 446.199,145.587L200.406,145.587C196.789,145.587 193.852,148.524 193.852,152.142L193.852,347.858C193.852,351.476 196.789,354.413 200.406,354.413L446.199,354.413C449.817,354.413 452.754,351.476 452.754,347.858L452.754,152.142Z"/>
    </g>
    <g transform="matrix(0.0456417,0,0,0.115555,6.5394,-2.64319)">
        <rect x="138.889" y="75.446" width="31.55" height="31.55"/>
    </g>
    <g transform="matrix(2.79475e-18,0.0456417,-0.167353,1.02474e-17,30.7846,2.18157)">
        <rect x="138.889" y="75.446" width="31.55" height="31.55"/>
    </g>
    <g transform="matrix(0.0456417,0,0,0.115555,10.3794,-2.64319)">
        <rect x="138.889" y="75.446" width="31.55" height="31.55"/>
    </g>
</svg>
