<?xml version="1.0" encoding="UTF-8" standalone="no"?>
<!DOCTYPE svg PUBLIC "-//W3C//DTD SVG 1.1//EN" "http://www.w3.org/Graphics/SVG/1.1/DTD/svg11.dtd">
<svg width="100%" height="100%" viewBox="0 0 24 24" version="1.1" xmlns="http://www.w3.org/2000/svg" xmlns:xlink="http://www.w3.org/1999/xlink" xml:space="preserve" xmlns:serif="http://www.serif.com/" style="fill-rule:evenodd;clip-rule:evenodd;stroke-linejoin:round;stroke-miterlimit:2;">
    <g transform="matrix(0.048,0,0,0.0709603,0.0474188,-9.63911)">
        <path d="M454.171,429.214C454.171,423.614 447.45,419.067 439.171,419.067L60.829,419.067C52.55,419.067 45.829,423.614 45.829,429.214C45.829,434.814 52.55,439.36 60.829,439.36L439.171,439.36C447.45,439.36 454.171,434.814 454.171,429.214Z"/>
    </g>
    <g transform="matrix(0.048,0,0,0.0709603,0.0474188,-22.0052)">
        <path d="M454.171,429.214C454.171,423.614 447.45,419.067 439.171,419.067L60.829,419.067C52.55,419.067 45.829,423.614 45.829,429.214C45.829,434.814 52.55,439.36 60.829,439.36L439.171,439.36C447.45,439.36 454.171,434.814 454.171,429.214Z"/>
    </g>
    <g transform="matrix(0.0368318,0,0,0.0709603,2.79205,-18.748)">
        <path d="M454.171,429.214C454.171,423.614 445.412,419.067 434.623,419.067L65.377,419.067C54.588,419.067 45.829,423.614 45.829,429.214C45.829,434.814 54.588,439.36 65.377,439.36L434.623,439.36C445.412,439.36 454.171,434.814 454.171,429.214Z"/>
    </g>
    <g transform="matrix(0.025405,-0.0146676,0.0354802,0.0614535,-14.144,-16.8931)">
        <path d="M454.171,429.214C454.171,423.614 443.174,419.067 429.627,419.067L70.373,419.067C56.826,419.067 45.829,423.614 45.829,429.214C45.829,434.814 56.826,439.36 70.373,439.36L429.627,439.36C443.174,439.36 454.171,434.814 454.171,429.214Z"/>
    </g>
    <g transform="matrix(-0.0253718,-0.0146484,-0.0354802,0.0614535,38.1425,-16.894)">
        <path d="M454.171,429.214C454.171,423.614 443.159,419.067 429.595,419.067L70.405,419.067C56.841,419.067 45.829,423.614 45.829,429.214C45.829,434.814 56.841,439.36 70.405,439.36L429.595,439.36C443.159,439.36 454.171,434.814 454.171,429.214Z"/>
    </g>
    <g transform="matrix(2.07027e-18,0.03381,-0.0709603,4.34507e-18,33.3295,6.18251)">
        <path d="M454.171,429.214C454.171,423.614 444.629,419.067 432.876,419.067L67.124,419.067C55.371,419.067 45.829,423.614 45.829,429.214C45.829,434.814 55.371,439.36 67.124,439.36L432.876,439.36C444.629,439.36 454.171,434.814 454.171,429.214Z"/>
    </g>
    <g transform="matrix(2.07027e-18,0.03381,-0.0709603,4.34507e-18,51.5848,6.18251)">
        <path d="M454.171,429.214C454.171,423.614 444.629,419.067 432.876,419.067L67.124,419.067C55.371,419.067 45.829,423.614 45.829,429.214C45.829,434.814 55.371,439.36 67.124,439.36L432.876,439.36C444.629,439.36 454.171,434.814 454.171,429.214Z"/>
    </g>
    <g transform="matrix(1.54585e-18,0.0252457,-0.0709603,4.34507e-18,49.2572,9.83216)">
        <path d="M454.171,429.214C454.171,423.614 441.392,419.067 425.652,419.067L74.348,419.067C58.608,419.067 45.829,423.614 45.829,429.214C45.829,434.814 58.608,439.36 74.348,439.36L425.652,439.36C441.392,439.36 454.171,434.814 454.171,429.214Z"/>
    </g>
    <g transform="matrix(1.54585e-18,0.0252457,-0.0709603,4.34507e-18,35.6572,9.83216)">
        <path d="M454.171,429.214C454.171,423.614 441.392,419.067 425.652,419.067L74.348,419.067C58.608,419.067 45.829,423.614 45.829,429.214C45.829,434.814 58.608,439.36 74.348,439.36L425.652,439.36C441.392,439.36 454.171,434.814 454.171,429.214Z"/>
    </g>
    <g transform="matrix(-0.024819,3.03945e-18,-8.69014e-18,-0.0709603,18.2522,44.3743)">
        <path d="M454.171,429.214C454.171,423.614 441.172,419.067 425.161,419.067L74.839,419.067C58.828,419.067 45.829,423.614 45.829,429.214C45.829,434.814 58.828,439.36 74.839,439.36L425.161,439.36C441.172,439.36 454.171,434.814 454.171,429.214Z"/>
    </g>
    <g transform="matrix(-0.024819,3.03945e-18,-8.69014e-18,-0.0709603,18.2522,46.7207)">
        <path d="M454.171,429.214C454.171,423.614 441.172,419.067 425.161,419.067L74.839,419.067C58.828,419.067 45.829,423.614 45.829,429.214C45.829,434.814 58.828,439.36 74.839,439.36L425.161,439.36C441.172,439.36 454.171,434.814 454.171,429.214Z"/>
    </g>
    <g transform="matrix(-0.024819,3.03945e-18,-8.69014e-18,-0.0709603,18.2522,49.0672)">
        <path d="M454.171,429.214C454.171,423.614 441.172,419.067 425.161,419.067L74.839,419.067C58.828,419.067 45.829,423.614 45.829,429.214C45.829,434.814 58.828,439.36 74.839,439.36L425.161,439.36C441.172,439.36 454.171,434.814 454.171,429.214Z"/>
    </g>
</svg>
