<?xml version="1.0" encoding="UTF-8" standalone="no"?>
<!DOCTYPE svg PUBLIC "-//W3C//DTD SVG 1.1//EN" "http://www.w3.org/Graphics/SVG/1.1/DTD/svg11.dtd">
<svg width="100%" height="100%" viewBox="0 0 24 24" version="1.1" xmlns="http://www.w3.org/2000/svg" xmlns:xlink="http://www.w3.org/1999/xlink" xml:space="preserve" xmlns:serif="http://www.serif.com/" style="fill-rule:evenodd;clip-rule:evenodd;stroke-linejoin:round;stroke-miterlimit:2;">
    <g transform="matrix(0.0322027,-0.0407531,0.0454909,0.0359464,-13.0163,11.1121)">
        <path d="M399.346,347.059C399.346,340.205 393.135,334.641 385.484,334.641L184.45,334.641C176.8,334.641 170.588,340.205 170.588,347.059C170.588,353.913 176.8,359.477 184.45,359.477L385.484,359.477C393.135,359.477 399.346,353.913 399.346,347.059Z"/>
    </g>
    <g transform="matrix(0.048,0,0,0.048,0.240059,0.305449)">
        <path d="M304.482,250C333.457,250 356.982,273.524 356.982,302.5C356.982,331.476 333.457,355 304.482,355C275.506,355 251.982,331.476 251.982,302.5C251.982,273.524 275.506,250 304.482,250ZM304.482,280C316.9,280 326.982,290.082 326.982,302.5C326.982,314.918 316.9,325 304.482,325C292.064,325 281.982,314.918 281.982,302.5C281.982,290.082 292.064,280 304.482,280Z"/>
    </g>
    <g transform="matrix(0.048,0,0,0.048,-0.451941,-0.386551)">
        <path d="M197.208,146.69C226.183,146.69 249.708,170.214 249.708,199.19C249.708,228.165 226.183,251.69 197.208,251.69C168.232,251.69 144.708,228.165 144.708,199.19C144.708,170.214 168.232,146.69 197.208,146.69ZM197.208,176.69C209.626,176.69 219.708,186.772 219.708,199.19C219.708,211.608 209.626,221.69 197.208,221.69C184.79,221.69 174.708,211.608 174.708,199.19C174.708,186.772 184.79,176.69 197.208,176.69Z"/>
    </g>
    <g transform="matrix(0.048,0,0,0.048,0,0)">
        <path d="M232.679,44.699C237.009,40.655 242.713,38.407 248.638,38.407C254.562,38.407 260.266,40.655 264.596,44.699L290.17,68.578C291.129,69.474 292.302,70.11 293.577,70.424C294.852,70.738 296.186,70.721 297.452,70.373L331.193,61.114C336.907,59.546 343.002,60.205 348.248,62.958C353.494,65.712 357.499,70.354 359.455,75.946L371.001,108.975C371.435,110.214 372.178,111.322 373.161,112.193C374.144,113.063 375.333,113.668 376.615,113.948L410.795,121.43C416.582,122.697 421.673,126.113 425.039,130.989C428.405,135.865 429.794,141.837 428.926,147.697L423.801,182.309C423.609,183.607 423.752,184.934 424.218,186.161C424.683,187.389 425.456,188.477 426.461,189.322L453.248,211.83C457.784,215.641 460.704,221.032 461.418,226.914C462.133,232.795 460.588,238.728 457.096,243.515L436.473,271.78C435.699,272.84 435.21,274.081 435.051,275.385C434.893,276.688 435.071,278.01 435.569,279.225L448.828,311.604C451.073,317.087 451.153,323.218 449.052,328.757C446.952,334.297 442.826,338.833 437.51,341.448L406.114,356.891C404.936,357.471 403.926,358.342 403.18,359.423C402.434,360.503 401.977,361.757 401.853,363.064L398.546,397.896C397.986,403.794 395.208,409.26 390.774,413.189C386.339,417.117 380.578,419.216 374.656,419.061L339.679,418.146C338.367,418.111 337.067,418.413 335.905,419.024C334.742,419.634 333.755,420.531 333.038,421.631L313.923,450.937C310.686,455.899 305.686,459.447 299.933,460.865C294.181,462.283 288.105,461.464 282.933,458.575L252.388,441.51C251.242,440.869 249.951,440.533 248.638,440.533C247.325,440.533 246.034,440.869 244.888,441.51L214.343,458.575C209.171,461.464 203.094,462.283 197.342,460.865C191.589,459.447 186.59,455.899 183.353,450.937L164.237,421.631C163.52,420.531 162.533,419.634 161.371,419.024C160.208,418.413 158.909,418.111 157.596,418.146L122.619,419.061C116.697,419.216 110.936,417.117 106.502,413.189C102.067,409.26 99.289,403.794 98.729,397.896L95.422,363.064C95.298,361.757 94.841,360.503 94.095,359.423C93.35,358.342 92.339,357.471 91.161,356.891L59.765,341.448C54.449,338.833 50.324,334.297 48.223,328.757C46.122,323.218 46.202,317.087 48.447,311.604L61.706,279.225C62.204,278.01 62.382,276.688 62.224,275.385C62.066,274.081 61.576,272.84 60.802,271.78L40.18,243.515C36.688,238.728 35.143,232.795 35.857,226.914C36.571,221.032 39.491,215.641 44.027,211.83L70.815,189.322C71.82,188.477 72.592,187.389 73.058,186.161C73.523,184.934 73.667,183.607 73.474,182.309L68.349,147.697C67.482,141.837 68.871,135.865 72.236,130.989C75.602,126.113 80.693,122.697 86.48,121.43L120.66,113.948C121.943,113.668 123.132,113.063 124.115,112.193C125.097,111.322 125.841,110.214 126.274,108.975L137.821,75.946C139.776,70.354 143.781,65.712 149.027,62.958C154.273,60.205 160.369,59.546 166.082,61.114L199.823,70.373C201.09,70.721 202.424,70.738 203.698,70.424C204.973,70.11 206.146,69.474 207.106,68.578L232.679,44.699ZM243.788,76.113C245.14,74.958 246.86,74.324 248.638,74.324C250.415,74.324 252.135,74.958 253.487,76.113L282.414,100.81C283.356,101.615 284.472,102.188 285.675,102.484C286.877,102.78 288.133,102.792 289.34,102.518L326.431,94.092C328.165,93.698 329.982,93.935 331.556,94.762C333.131,95.588 334.358,96.948 335.019,98.599L349.155,133.911C349.615,135.061 350.338,136.087 351.265,136.908C352.192,137.729 353.298,138.323 354.495,138.641L391.253,148.418C392.971,148.875 394.47,149.929 395.479,151.393C396.489,152.856 396.944,154.631 396.762,156.399L392.869,194.236C392.742,195.468 392.905,196.712 393.344,197.87C393.783,199.028 394.486,200.068 395.398,200.906L423.403,226.645C424.712,227.848 425.549,229.478 425.763,231.243C425.977,233.008 425.555,234.791 424.572,236.273L403.541,267.966C402.856,268.998 402.422,270.175 402.272,271.405C402.123,272.634 402.263,273.881 402.681,275.047L415.516,310.852C416.116,312.526 416.099,314.359 415.469,316.021C414.839,317.683 413.636,319.066 412.077,319.921L378.727,338.21C377.641,338.805 376.709,339.646 376.005,340.666C375.302,341.685 374.846,342.854 374.674,344.081L369.4,381.749C369.153,383.51 368.287,385.125 366.956,386.304C365.625,387.483 363.918,388.148 362.14,388.181L324.11,388.876C322.872,388.899 321.656,389.211 320.56,389.786C319.463,390.362 318.516,391.185 317.794,392.192L295.618,423.094C294.582,424.539 293.064,425.566 291.338,425.991C289.612,426.417 287.79,426.213 286.201,425.415L252.204,408.358C251.098,407.803 249.876,407.513 248.638,407.513C247.399,407.513 246.178,407.803 245.071,408.358L211.074,425.415C209.485,426.213 207.664,426.417 205.938,425.991C204.211,425.566 202.694,424.539 201.657,423.094L179.481,392.192C178.759,391.185 177.812,390.362 176.716,389.786C175.619,389.211 174.403,388.899 173.165,388.876L135.135,388.181C133.358,388.148 131.65,387.483 130.319,386.304C128.989,385.125 128.122,383.51 127.876,381.749L122.601,344.081C122.429,342.854 121.974,341.685 121.27,340.666C120.567,339.646 119.635,338.805 118.549,338.21L85.198,319.921C83.64,319.066 82.437,317.683 81.806,316.021C81.176,314.359 81.159,312.526 81.759,310.852L94.594,275.047C95.012,273.881 95.152,272.634 95.003,271.405C94.854,270.175 94.419,268.998 93.735,267.966L72.704,236.273C71.721,234.791 71.298,233.008 71.513,231.243C71.727,229.478 72.564,227.848 73.873,226.645L101.877,200.906C102.789,200.068 103.492,199.028 103.932,197.87C104.371,196.712 104.533,195.468 104.407,194.236L100.513,156.399C100.331,154.631 100.786,152.856 101.796,151.393C102.806,149.929 104.305,148.875 106.023,148.418L142.781,138.641C143.978,138.323 145.084,137.729 146.011,136.908C146.938,136.087 147.66,135.061 148.12,133.911L162.256,98.599C162.917,96.948 164.145,95.588 165.719,94.762C167.293,93.935 169.11,93.698 170.844,94.092L207.935,102.518C209.143,102.792 210.398,102.78 211.6,102.484C212.803,102.188 213.92,101.615 214.861,100.81L243.788,76.113Z"/>
    </g>
</svg>
