<?xml version="1.0" encoding="UTF-8" standalone="no"?>
<!DOCTYPE svg PUBLIC "-//W3C//DTD SVG 1.1//EN" "http://www.w3.org/Graphics/SVG/1.1/DTD/svg11.dtd">
<svg width="100%" height="100%" viewBox="0 0 24 24" version="1.1" xmlns="http://www.w3.org/2000/svg" xmlns:xlink="http://www.w3.org/1999/xlink" xml:space="preserve" xmlns:serif="http://www.serif.com/" style="fill-rule:evenodd;clip-rule:evenodd;stroke-linejoin:round;stroke-miterlimit:2;">
    <g transform="matrix(2.81791e-18,0.04602,-0.0205778,1.26003e-18,17.6916,4.8387)">
        <rect x="92.894" y="39.765" width="31.291" height="440.678"/>
    </g>
    <g transform="matrix(2.81791e-18,0.04602,-0.0345056,2.11286e-18,21.2422,16.828)">
        <rect x="92.894" y="39.765" width="31.291" height="440.678"/>
    </g>
    <g transform="matrix(2.81791e-18,0.04602,-0.0257116,1.57438e-18,17.0172,-2.8253)">
        <rect x="92.894" y="39.765" width="31.291" height="440.678"/>
    </g>
    <g transform="matrix(2.81791e-18,0.04602,-0.0120617,7.38567e-19,20.3498,1.11003)">
        <rect x="92.894" y="39.765" width="31.291" height="440.678"/>
    </g>
    <g transform="matrix(-0.0325411,0.0325411,-0.00882369,-0.00882369,23.2919,2.6661)">
        <path d="M124.185,39.765L102.65,9.227L92.894,45.205L92.894,480.443L103.756,520.502L124.185,480.443L124.185,39.765Z"/>
    </g>
    <g transform="matrix(-0.04602,5.63582e-18,-1.44379e-18,-0.0117894,20.2698,7.11384)">
        <rect x="92.894" y="39.765" width="31.291" height="440.678"/>
    </g>
    <g transform="matrix(-0.04602,5.63582e-18,-5.86185e-18,-0.0478657,10.3793,24.4464)">
        <rect x="92.894" y="39.765" width="31.291" height="440.678"/>
    </g>
    <g transform="matrix(-0.04602,5.63582e-18,-4.76822e-18,-0.0389355,24.1451,24.0913)">
        <rect x="92.894" y="39.765" width="31.291" height="440.678"/>
    </g>
    <g transform="matrix(2.81791e-18,0.04602,-0.0205778,1.26003e-18,17.6916,11.7827)">
        <rect x="92.894" y="39.765" width="31.291" height="440.678"/>
    </g>
    <g transform="matrix(2.81791e-18,0.04602,-0.0157852,9.66566e-19,15.389,8.3107)">
        <rect x="92.894" y="39.765" width="31.291" height="440.678"/>
    </g>
</svg>
