<?xml version="1.0" encoding="UTF-8" standalone="no"?>
<!DOCTYPE svg PUBLIC "-//W3C//DTD SVG 1.1//EN" "http://www.w3.org/Graphics/SVG/1.1/DTD/svg11.dtd">
<svg width="100%" height="100%" viewBox="0 0 24 24" version="1.1" xmlns="http://www.w3.org/2000/svg" xmlns:xlink="http://www.w3.org/1999/xlink" xml:space="preserve" xmlns:serif="http://www.serif.com/" style="fill-rule:evenodd;clip-rule:evenodd;stroke-linejoin:round;stroke-miterlimit:2;">
    <g transform="matrix(-0.102292,0.102292,0.0650821,0.0650821,19.5037,-13.2379)">
        <path d="M257.171,136.245C257.171,131.928 254.941,128.422 252.194,128.422L67.885,128.422C65.138,128.422 62.907,131.928 62.907,136.245C62.907,140.563 65.138,144.068 67.885,144.068L252.194,144.068C254.941,144.068 257.171,140.563 257.171,136.245Z"/>
    </g>
    <g transform="matrix(-0.0382985,0,0,0.09204,24.5558,-9.96657)">
        <path d="M257.171,136.245C257.171,131.928 248.747,128.422 238.371,128.422L81.707,128.422C71.331,128.422 62.907,131.928 62.907,136.245C62.907,140.563 71.331,144.068 81.707,144.068L238.371,144.068C248.747,144.068 257.171,140.563 257.171,136.245Z"/>
    </g>
    <g transform="matrix(1.76034e-18,0.0382985,0.09204,2.41653e-18,8.88657,-0.555828)">
        <path d="M257.171,136.245C257.171,131.928 248.747,128.422 238.371,128.422L81.707,128.422C71.331,128.422 62.907,131.928 62.907,136.245C62.907,140.563 71.331,144.068 81.707,144.068L238.371,144.068C248.747,144.068 257.171,140.563 257.171,136.245Z"/>
    </g>
    <g transform="matrix(0.0382985,-2.31688e-18,-2.54382e-17,-0.09204,-0.555828,33.9666)">
        <path d="M257.171,136.245C257.171,131.928 248.747,128.422 238.371,128.422L81.707,128.422C71.331,128.422 62.907,131.928 62.907,136.245C62.907,140.563 71.331,144.068 81.707,144.068L238.371,144.068C248.747,144.068 257.171,140.563 257.171,136.245Z"/>
    </g>
    <g transform="matrix(-1.02301e-17,-0.0382985,-0.09204,1.15487e-17,15.1134,24.5558)">
        <path d="M257.171,136.245C257.171,131.928 248.747,128.422 238.371,128.422L81.707,128.422C71.331,128.422 62.907,131.928 62.907,136.245C62.907,140.563 71.331,144.068 81.707,144.068L238.371,144.068C248.747,144.068 257.171,140.563 257.171,136.245Z"/>
    </g>
    <g transform="matrix(0.102292,0.102292,-0.0650821,0.0650821,4.49635,-13.2379)">
        <path d="M257.171,136.245C257.171,131.928 254.941,128.422 252.194,128.422L67.885,128.422C65.138,128.422 62.907,131.928 62.907,136.245C62.907,140.563 65.138,144.068 67.885,144.068L252.194,144.068C254.941,144.068 257.171,140.563 257.171,136.245Z"/>
    </g>
    <g transform="matrix(0.0382985,0,0,0.09204,-0.555828,-9.96657)">
        <path d="M257.171,136.245C257.171,131.928 248.747,128.422 238.371,128.422L81.707,128.422C71.331,128.422 62.907,131.928 62.907,136.245C62.907,140.563 71.331,144.068 81.707,144.068L238.371,144.068C248.747,144.068 257.171,140.563 257.171,136.245Z"/>
    </g>
    <g transform="matrix(-1.76034e-18,0.0382985,-0.09204,2.41653e-18,15.1134,-0.555828)">
        <path d="M257.171,136.245C257.171,131.928 248.747,128.422 238.371,128.422L81.707,128.422C71.331,128.422 62.907,131.928 62.907,136.245C62.907,140.563 71.331,144.068 81.707,144.068L238.371,144.068C248.747,144.068 257.171,140.563 257.171,136.245Z"/>
    </g>
    <g transform="matrix(-0.0382985,-2.31688e-18,2.54382e-17,-0.09204,24.5558,33.9666)">
        <path d="M257.171,136.245C257.171,131.928 248.747,128.422 238.371,128.422L81.707,128.422C71.331,128.422 62.907,131.928 62.907,136.245C62.907,140.563 71.331,144.068 81.707,144.068L238.371,144.068C248.747,144.068 257.171,140.563 257.171,136.245Z"/>
    </g>
    <g transform="matrix(1.02301e-17,-0.0382985,0.09204,1.15487e-17,8.88657,24.5558)">
        <path d="M257.171,136.245C257.171,131.928 248.747,128.422 238.371,128.422L81.707,128.422C71.331,128.422 62.907,131.928 62.907,136.245C62.907,140.563 71.331,144.068 81.707,144.068L238.371,144.068C248.747,144.068 257.171,140.563 257.171,136.245Z"/>
    </g>
</svg>
