<?xml version="1.0" encoding="UTF-8" standalone="no"?>
<!DOCTYPE svg PUBLIC "-//W3C//DTD SVG 1.1//EN" "http://www.w3.org/Graphics/SVG/1.1/DTD/svg11.dtd">
<svg width="100%" height="100%" viewBox="0 0 24 24" version="1.1" xmlns="http://www.w3.org/2000/svg" xmlns:xlink="http://www.w3.org/1999/xlink" xml:space="preserve" xmlns:serif="http://www.serif.com/" style="fill-rule:evenodd;clip-rule:evenodd;stroke-linejoin:round;stroke-miterlimit:2;">
    <g transform="matrix(0.0339411,0.0339411,-0.0339411,0.0339411,14.0497,-7.07754)">
        <path d="M250,23.721C250,23.721 72.359,171.857 72.359,303.224C72.359,401.266 151.957,480.864 250,480.864C348.043,480.864 427.641,401.266 427.641,303.224C427.641,171.857 250,23.721 250,23.721ZM250,62.487C250,62.487 102.359,192.183 102.359,303.224C102.359,379.94 162.996,450.864 250,450.864C337.004,450.864 397.641,379.254 397.641,303.224C397.641,190.811 250,62.487 250,62.487Z"/>
    </g>
    <g transform="matrix(0.0539689,0.0539689,-0.0543426,0.0543426,9.12779,-14.6307)">
        <path d="M282.236,202.784C282.236,197.614 278.009,193.416 272.802,193.416C267.596,193.416 263.369,197.614 263.369,202.784L263.369,387.751C263.369,392.921 267.596,397.119 272.802,397.119C278.009,397.119 282.236,392.921 282.236,387.751L282.236,202.784Z"/>
    </g>
</svg>
