<?xml version="1.0" encoding="UTF-8" standalone="no"?>
<!DOCTYPE svg PUBLIC "-//W3C//DTD SVG 1.1//EN" "http://www.w3.org/Graphics/SVG/1.1/DTD/svg11.dtd">
<svg width="100%" height="100%" viewBox="0 0 24 24" version="1.1" xmlns="http://www.w3.org/2000/svg" xmlns:xlink="http://www.w3.org/1999/xlink" xml:space="preserve" xmlns:serif="http://www.serif.com/" style="fill-rule:evenodd;clip-rule:evenodd;stroke-linejoin:round;stroke-miterlimit:2;">
    <g transform="matrix(0.0304813,0.00816744,-0.00940833,0.0351124,-2.69035,8.15939)">
        <path d="M316.493,161.919C316.493,150.987 306.269,142.112 293.677,142.112C281.084,142.112 270.86,150.987 270.86,161.919L270.86,289.189C270.86,300.121 281.084,308.996 293.677,308.996C306.269,308.996 316.493,300.121 316.493,289.189L316.493,161.919Z"/>
    </g>
    <g transform="matrix(0.0223139,0.0223139,-0.0811395,0.0811395,22.7791,-14.9603)">
        <path d="M316.493,148.387C316.493,144.924 306.269,142.112 293.677,142.112C281.084,142.112 270.86,144.924 270.86,148.387L270.86,302.722C270.86,306.185 281.084,308.996 293.677,308.996C306.269,308.996 316.493,306.185 316.493,302.722L316.493,148.387Z"/>
    </g>
    <g transform="matrix(-0.0223139,0.0223139,-0.0265078,-0.0265078,31.5269,4.76142)">
        <path d="M316.493,161.318C316.493,150.718 306.269,142.112 293.677,142.112C281.084,142.112 270.86,150.718 270.86,161.318L270.86,289.79C270.86,300.39 281.084,308.996 293.677,308.996C306.269,308.996 316.493,300.39 316.493,289.79L316.493,161.318Z"/>
    </g>
    <g transform="matrix(-0.0223139,0.0223139,-0.0258581,-0.0258581,29.3002,6.74257)">
        <path d="M316.493,161.801C316.493,150.934 306.269,142.112 293.677,142.112C281.084,142.112 270.86,150.934 270.86,161.801L270.86,289.307C270.86,300.174 281.084,308.996 293.677,308.996C306.269,308.996 316.493,300.174 316.493,289.307L316.493,161.801Z"/>
    </g>
    <g transform="matrix(-0.0223139,0.0223139,-0.026034,-0.026034,19.0526,17.0563)">
        <path d="M316.493,161.668C316.493,150.875 306.269,142.112 293.677,142.112C281.084,142.112 270.86,150.875 270.86,161.668L270.86,289.44C270.86,300.233 281.084,308.996 293.677,308.996C306.269,308.996 316.493,300.233 316.493,289.44L316.493,161.668Z"/>
    </g>
    <g transform="matrix(0.0223139,0.0223139,-0.0807557,0.0807557,26.139,-11.4913)">
        <path d="M316.493,148.417C316.493,144.937 306.269,142.112 293.677,142.112C281.084,142.112 270.86,144.937 270.86,148.417L270.86,302.692C270.86,306.171 281.084,308.996 293.677,308.996C306.269,308.996 316.493,306.171 316.493,302.692L316.493,148.417Z"/>
    </g>
    <g transform="matrix(0.00816744,0.0304813,-0.0362382,0.00970999,11.6744,8.98796)">
        <path d="M316.493,161.304C316.493,150.712 306.269,142.112 293.677,142.112C281.084,142.112 270.86,150.712 270.86,161.304L270.86,289.805C270.86,300.397 281.084,308.996 293.677,308.996C306.269,308.996 316.493,300.397 316.493,289.805L316.493,161.304Z"/>
    </g>
</svg>
