<?xml version="1.0" encoding="UTF-8" standalone="no"?>
<!DOCTYPE svg PUBLIC "-//W3C//DTD SVG 1.1//EN" "http://www.w3.org/Graphics/SVG/1.1/DTD/svg11.dtd">
<svg width="100%" height="100%" viewBox="0 0 24 24" version="1.1" xmlns="http://www.w3.org/2000/svg" xmlns:xlink="http://www.w3.org/1999/xlink" xml:space="preserve" xmlns:serif="http://www.serif.com/" style="fill-rule:evenodd;clip-rule:evenodd;stroke-linejoin:round;stroke-miterlimit:2;">
    <g transform="matrix(0.048,0,0,0.0524702,0,1.13678)">
        <path d="M417.644,341.399C417.644,333.826 410.923,327.677 402.644,327.677L97.356,327.677C89.077,327.677 82.356,333.826 82.356,341.399C82.356,348.972 89.077,355.121 97.356,355.121L402.644,355.121C410.923,355.121 417.644,348.972 417.644,341.399Z"/>
    </g>
    <g transform="matrix(0.048,0,0,0.0524702,0,-2.84436)">
        <path d="M417.644,341.399C417.644,333.826 410.923,327.677 402.644,327.677L97.356,327.677C89.077,327.677 82.356,333.826 82.356,341.399C82.356,348.972 89.077,355.121 97.356,355.121L402.644,355.121C410.923,355.121 417.644,348.972 417.644,341.399Z"/>
    </g>
    <g transform="matrix(0.0244061,-0.0323861,0.0419037,0.0315785,-12.0762,7.53033)">
        <path d="M417.644,341.399C417.644,333.826 409.688,327.677 399.889,327.677L100.111,327.677C90.312,327.677 82.356,333.826 82.356,341.399C82.356,348.972 90.312,355.121 100.111,355.121L399.889,355.121C409.688,355.121 417.644,348.972 417.644,341.399Z"/>
    </g>
    <g transform="matrix(-0.0244204,-0.0324051,-0.0419037,0.0315785,36.0774,7.53189)">
        <path d="M417.644,341.399C417.644,333.826 409.693,327.677 399.9,327.677L100.1,327.677C90.307,327.677 82.356,333.826 82.356,341.399C82.356,348.972 90.307,355.121 100.1,355.121L399.9,355.121C409.693,355.121 417.644,348.972 417.644,341.399Z"/>
    </g>
</svg>
