<?xml version="1.0" encoding="UTF-8" standalone="no"?>
<!DOCTYPE svg PUBLIC "-//W3C//DTD SVG 1.1//EN" "http://www.w3.org/Graphics/SVG/1.1/DTD/svg11.dtd">
<svg width="100%" height="100%" viewBox="0 0 24 24" version="1.1" xmlns="http://www.w3.org/2000/svg" xmlns:xlink="http://www.w3.org/1999/xlink" xml:space="preserve" xmlns:serif="http://www.serif.com/" style="fill-rule:evenodd;clip-rule:evenodd;stroke-linejoin:round;stroke-miterlimit:2;">
    <g transform="matrix(0.0496457,0,0,0.046336,-2.00464,-3.73808)">
        <path d="M223.412,104.282L262.086,156.077L184.738,156.077L223.412,104.282Z"/>
    </g>
    <g transform="matrix(0.0496457,0,0,-0.046336,3.82178,8.32592)">
        <path d="M223.412,104.282L262.086,156.077L184.738,156.077L223.412,104.282Z"/>
    </g>
    <g transform="matrix(0.048,0,0,0.048,0,-0.298289)">
        <path d="M190.149,343.326C190.146,343.434 190.145,343.543 190.145,343.652C190.145,351.931 196.866,358.652 205.145,358.652L210.093,358.652L210.093,433.148C210.093,441.427 216.815,448.148 225.093,448.148L275.052,448.148C283.331,448.148 290.052,441.427 290.052,433.148L290.052,358.652L295,358.652C303.279,358.652 310,351.931 310,343.652C310,343.21 309.981,342.772 309.943,342.34C309.981,341.786 310,341.2 310,340.583L310,244.766C310,228.616 296.889,215.505 280.739,215.505L219.261,215.505C203.111,215.505 190,228.616 190,244.766L190,340.583C190,341.584 190.05,342.497 190.149,343.326ZM280,328.652L280,250.439C280,247.716 277.789,245.505 275.066,245.505L224.934,245.505C222.211,245.505 220,247.716 220,250.439L220,328.652L225.093,328.652C233.372,328.652 240.093,335.373 240.093,343.652L240.093,418.148L260.052,418.148L260.052,343.652C260.052,335.373 266.773,328.652 275.052,328.652L280,328.652Z"/>
    </g>
    <g transform="matrix(0.0384345,0,0,0.0384345,2.292,1.6962)">
        <circle cx="252.586" cy="168.901" r="37.466"/>
    </g>
    <g transform="matrix(0.048,0,0,0.048,0,0)">
        <path d="M425,117.737C425,107.262 416.495,98.757 406.02,98.757L93.98,98.757C83.505,98.757 75,107.262 75,117.737L75,464.777C75,475.252 83.505,483.757 93.98,483.757L406.02,483.757C416.495,483.757 425,475.252 425,464.777L425,117.737ZM395,132.942C395,130.632 393.125,128.757 390.815,128.757L109.185,128.757C106.875,128.757 105,130.632 105,132.942L105,449.572C105,451.882 106.875,453.757 109.185,453.757L390.815,453.757C393.125,453.757 395,451.882 395,449.572L395,132.942Z"/>
    </g>
</svg>
