<?xml version="1.0" encoding="UTF-8" standalone="no"?>
<!DOCTYPE svg PUBLIC "-//W3C//DTD SVG 1.1//EN" "http://www.w3.org/Graphics/SVG/1.1/DTD/svg11.dtd">
<svg width="100%" height="100%" viewBox="0 0 24 24" version="1.1" xmlns="http://www.w3.org/2000/svg" xmlns:xlink="http://www.w3.org/1999/xlink" xml:space="preserve" xmlns:serif="http://www.serif.com/" style="fill-rule:evenodd;clip-rule:evenodd;stroke-linejoin:round;stroke-miterlimit:2;">
    <g transform="matrix(0.048,0,0,0.0410469,0,3.20223)">
        <path d="M476.645,408.487C476.645,398.806 469.924,390.947 461.645,390.947L38.354,390.947C30.076,390.947 23.354,398.806 23.354,408.487C23.354,418.169 30.076,426.028 38.354,426.028L461.645,426.028C469.924,426.028 476.645,418.169 476.645,408.487Z"/>
    </g>
    <g transform="matrix(0.024,-0.0415692,0.0355476,0.0205234,-13.6002,13.1801)">
        <path d="M476.645,408.487C476.645,398.806 469.924,390.947 461.645,390.947L38.354,390.947C30.076,390.947 23.354,398.806 23.354,408.487C23.354,418.169 30.076,426.028 38.354,426.028L461.645,426.028C469.924,426.028 476.645,418.169 476.645,408.487Z"/>
    </g>
    <g transform="matrix(2.09264e-18,-0.0188488,0.0410469,4.86025e-18,-4.76714,15.3774)">
        <path d="M476.645,408.487C476.645,398.806 459.529,390.947 438.446,390.947L61.553,390.947C40.471,390.947 23.354,398.806 23.354,408.487C23.354,418.169 40.471,426.028 61.553,426.028L438.446,426.028C459.529,426.028 476.645,418.169 476.645,408.487Z"/>
    </g>
    <g transform="matrix(-0.024,-0.0415692,-0.0355476,0.0205234,37.6002,13.1801)">
        <path d="M476.645,408.487C476.645,398.806 469.924,390.947 461.645,390.947L38.354,390.947C30.076,390.947 23.354,398.806 23.354,408.487C23.354,418.169 30.076,426.028 38.354,426.028L461.645,426.028C469.924,426.028 476.645,418.169 476.645,408.487Z"/>
    </g>
    <g transform="matrix(0.0559983,0,0,0.0559983,-1.99958,1.52388)">
        <circle cx="250" cy="272.203" r="15"/>
    </g>
</svg>
