<?xml version="1.0" encoding="UTF-8" standalone="no"?>
<!DOCTYPE svg PUBLIC "-//W3C//DTD SVG 1.1//EN" "http://www.w3.org/Graphics/SVG/1.1/DTD/svg11.dtd">
<svg width="100%" height="100%" viewBox="0 0 24 24" version="1.1" xmlns="http://www.w3.org/2000/svg" xmlns:xlink="http://www.w3.org/1999/xlink" xml:space="preserve" xmlns:serif="http://www.serif.com/" style="fill-rule:evenodd;clip-rule:evenodd;stroke-linejoin:round;stroke-miterlimit:2;">
    <g transform="matrix(0.0251625,0.0251625,-0.0198244,0.0198244,14.591,-3.69859)">
        <path d="M280.864,44.607C280.864,30.433 271.798,18.925 260.631,18.925C249.464,18.925 240.398,30.433 240.398,44.607L240.398,455.114C240.398,469.288 249.464,480.796 260.631,480.796C271.798,480.796 280.864,469.288 280.864,455.114L280.864,44.607Z"/>
    </g>
    <g transform="matrix(0,0.0355851,-0.014879,0,21.2506,-5.55772)">
        <path d="M280.864,67.316C280.864,40.608 271.798,18.925 260.631,18.925C249.464,18.925 240.398,40.608 240.398,67.316L240.398,432.405C240.398,459.113 249.464,480.796 260.631,480.796C271.798,480.796 280.864,459.113 280.864,432.405L280.864,67.316Z"/>
    </g>
    <g transform="matrix(-1.544e-18,0.0355851,-0.0254221,6.45581e-19,13.9972,-6.99772)">
        <path d="M280.864,47.247C280.864,31.616 271.798,18.925 260.631,18.925C249.464,18.925 240.398,31.616 240.398,47.247L240.398,452.474C240.398,468.105 249.464,480.796 260.631,480.796C271.798,480.796 280.864,468.105 280.864,452.474L280.864,47.247Z"/>
    </g>
    <g transform="matrix(-0.0355851,6.3496e-19,-2.20224e-18,-0.0254221,30.9793,22.6883)">
        <path d="M280.864,47.247C280.864,31.616 271.798,18.925 260.631,18.925C249.464,18.925 240.398,31.616 240.398,47.247L240.398,452.474C240.398,468.105 249.464,480.796 260.631,480.796C271.798,480.796 280.864,468.105 280.864,452.474L280.864,47.247Z"/>
    </g>
    <g transform="matrix(-4.36866e-18,0.0355851,-0.0447102,1.82664e-18,23.2708,12.2126)">
        <path d="M280.864,35.029C280.864,26.141 271.798,18.925 260.631,18.925C249.464,18.925 240.398,26.141 240.398,35.029L240.398,464.692C240.398,473.58 249.464,480.796 260.631,480.796C271.798,480.796 280.864,473.58 280.864,464.692L280.864,35.029Z"/>
    </g>
    <g transform="matrix(-0.0355851,5.71177e-18,-1.4492e-17,-0.0447102,11.7689,23.0533)">
        <path d="M280.864,35.029C280.864,26.141 271.798,18.925 260.631,18.925C249.464,18.925 240.398,26.141 240.398,35.029L240.398,464.692C240.398,473.58 249.464,480.796 260.631,480.796C271.798,480.796 280.864,473.58 280.864,464.692L280.864,35.029Z"/>
    </g>
    <g transform="matrix(-0.0355851,0,0,-0.014879,29.5236,10.1506)">
        <path d="M280.864,67.316C280.864,40.608 271.798,18.925 260.631,18.925C249.464,18.925 240.398,40.608 240.398,67.316L240.398,432.405C240.398,459.113 249.464,480.796 260.631,480.796C271.798,480.796 280.864,459.113 280.864,432.405L280.864,67.316Z"/>
    </g>
</svg>
