<?xml version="1.0" encoding="UTF-8" standalone="no"?>
<!DOCTYPE svg PUBLIC "-//W3C//DTD SVG 1.1//EN" "http://www.w3.org/Graphics/SVG/1.1/DTD/svg11.dtd">
<svg width="100%" height="100%" viewBox="0 0 24 24" version="1.1" xmlns="http://www.w3.org/2000/svg" xmlns:xlink="http://www.w3.org/1999/xlink" xml:space="preserve" xmlns:serif="http://www.serif.com/" style="fill-rule:evenodd;clip-rule:evenodd;stroke-linejoin:round;stroke-miterlimit:2;">
    <g transform="matrix(0.048,0,0,0.048,-1.54025,1.07196)">
        <path d="M152.802,218.107C207.993,218.107 252.802,262.915 252.802,318.107C252.802,373.298 207.993,418.107 152.802,418.107C97.61,418.107 52.802,373.298 52.802,318.107C52.802,262.915 97.61,218.107 152.802,218.107ZM152.802,248.107C191.436,248.107 222.802,279.473 222.802,318.107C222.802,356.741 191.436,388.107 152.802,388.107C114.168,388.107 82.802,356.741 82.802,318.107C82.802,279.473 114.168,248.107 152.802,248.107Z"/>
    </g>
    <g transform="matrix(0.048,0,0,0.048,-0.0587732,1.07196)">
        <path d="M211.309,334.444C202.121,340.554 183.573,313.635 207.097,302.433C220.101,296.24 234.649,292.774 250,292.774C268.518,292.774 285.867,297.818 300.747,306.607C308.216,311.018 301.025,344.099 294.315,338.602C282.242,328.711 266.809,322.774 250,322.774C235.7,322.774 222.396,327.071 211.309,334.444Z"/>
    </g>
    <g transform="matrix(0.048,0,0,0.048,10.8713,1.07196)">
        <path d="M152.802,218.107C207.993,218.107 252.802,262.915 252.802,318.107C252.802,373.298 207.993,418.107 152.802,418.107C97.61,418.107 52.802,373.298 52.802,318.107C52.802,262.915 97.61,218.107 152.802,218.107ZM152.802,248.107C191.436,248.107 222.802,279.473 222.802,318.107C222.802,356.741 191.436,388.107 152.802,388.107C114.168,388.107 82.802,356.741 82.802,318.107C82.802,279.473 114.168,248.107 152.802,248.107Z"/>
    </g>
    <g transform="matrix(0.048,0,0,0.048,-0.0587732,1.07196)">
        <path d="M111.86,65.72C124.757,42.223 153.295,31.072 179.175,40.669C207.579,51.202 222.116,82.773 211.682,111.194L211.62,111.361C208.742,119.123 200.103,123.088 192.341,120.209C184.579,117.331 180.614,108.692 183.492,100.93L183.548,100.778C188.238,87.881 181.631,73.576 168.744,68.798C157.116,64.486 142.808,69.138 138.352,79.817L56.595,289.817C53.591,297.531 44.889,301.356 37.175,298.353C29.46,295.349 26.635,287.647 29.639,279.933C29.639,279.933 106.1,76.214 111.86,65.72Z"/>
    </g>
    <g transform="matrix(-0.048,0,0,0.048,24.03,1.07196)">
        <path d="M111.86,65.72C124.757,42.223 153.295,31.072 179.175,40.669C207.579,51.202 222.116,82.773 211.682,111.194L211.62,111.361C208.742,119.123 200.103,123.088 192.341,120.209C184.579,117.331 180.614,108.692 183.492,100.93L183.548,100.778C188.238,87.881 181.631,73.576 168.744,68.798C157.116,64.486 142.808,69.138 138.352,79.817L56.595,289.817C53.591,297.531 44.889,301.356 37.175,298.353C29.46,295.349 25.635,288.647 28.639,280.933C28.639,280.933 106.1,76.214 111.86,65.72Z"/>
    </g>
</svg>
