<?xml version="1.0" encoding="UTF-8" standalone="no"?>
<!DOCTYPE svg PUBLIC "-//W3C//DTD SVG 1.1//EN" "http://www.w3.org/Graphics/SVG/1.1/DTD/svg11.dtd">
<svg width="100%" height="100%" viewBox="0 0 24 24" version="1.1" xmlns="http://www.w3.org/2000/svg" xmlns:xlink="http://www.w3.org/1999/xlink" xml:space="preserve" xmlns:serif="http://www.serif.com/" style="fill-rule:evenodd;clip-rule:evenodd;stroke-linejoin:round;stroke-miterlimit:2;">
    <g transform="matrix(0.048,0,0,0.048,0.144,0)">
        <path d="M112.05,269.947C136.886,269.947 157.05,290.111 157.05,314.947C157.05,339.783 136.886,359.947 112.05,359.947C87.214,359.947 67.05,339.783 67.05,314.947C67.05,290.111 87.214,269.947 112.05,269.947ZM112.05,299.947C120.328,299.947 127.05,306.668 127.05,314.947C127.05,323.225 120.328,329.947 112.05,329.947C103.771,329.947 97.05,323.225 97.05,314.947C97.05,306.668 103.771,299.947 112.05,299.947Z"/>
    </g>
    <g transform="matrix(0.048,0,0,0.048,6.288,0)">
        <path d="M112.05,269.947C136.886,269.947 157.05,290.111 157.05,314.947C157.05,339.783 136.886,359.947 112.05,359.947C87.214,359.947 67.05,339.783 67.05,314.947C67.05,290.111 87.214,269.947 112.05,269.947ZM112.05,299.947C120.328,299.947 127.05,306.668 127.05,314.947C127.05,323.225 120.328,329.947 112.05,329.947C103.771,329.947 97.05,323.225 97.05,314.947C97.05,306.668 103.771,299.947 112.05,299.947Z"/>
    </g>
    <g transform="matrix(0.0473132,0,0,0.0461573,0.0117105,1.00016)">
        <rect x="17.05" y="412.518" width="465.901" height="31.198"/>
    </g>
    <g transform="matrix(0.00645518,0,0,0.0461573,17.3857,-16.339)">
        <rect x="17.05" y="412.518" width="465.901" height="31.198"/>
    </g>
    <g transform="matrix(1.46958e-18,-0.024,0.0461573,2.82632e-18,-18.2223,21.89)">
        <rect x="17.05" y="412.518" width="465.901" height="31.198"/>
    </g>
    <g transform="matrix(-0.00587965,-0.0395576,0.0456557,-0.00678605,3.21572,24.9547)">
        <path d="M491.78,412.518L17.05,412.518L11.698,443.715L486.429,443.715L491.78,412.518Z"/>
    </g>
    <g transform="matrix(0.00587965,-0.0395576,-0.0456557,-0.00678605,34.8518,24.9547)">
        <path d="M491.78,412.518L17.05,412.518L17.05,443.715L486.429,443.715L491.78,412.518Z"/>
    </g>
    <g transform="matrix(5.40794e-19,-0.00883184,0.0461573,2.82632e-18,-11.161,11.8068)">
        <path d="M431.319,412.518L17.05,412.518L89.515,443.715L482.95,443.715L431.319,412.518Z"/>
    </g>
    <g transform="matrix(0.0172591,-0.00582284,0.0147553,0.0437353,-5.56271,-7.66759)">
        <path d="M509.622,412.518L17.05,412.518L17.05,443.715L482.95,443.715L509.622,412.518Z"/>
    </g>
    <g transform="matrix(5.40794e-19,-0.00883184,0.0461573,2.82632e-18,-4.13695,11.8068)">
        <path d="M431.319,412.518L-948.971,412.518L-209.31,443.715L482.95,443.715L431.319,412.518Z"/>
    </g>
    <g transform="matrix(0.0172591,-0.00582284,0.0147553,0.0437353,1.46129,-7.66759)">
        <path d="M509.622,412.518L19.214,412.518L-7.458,443.715L482.95,443.715L509.622,412.518Z"/>
    </g>
</svg>
