<?xml version="1.0" encoding="UTF-8" standalone="no"?>
<!DOCTYPE svg PUBLIC "-//W3C//DTD SVG 1.1//EN" "http://www.w3.org/Graphics/SVG/1.1/DTD/svg11.dtd">
<svg width="100%" height="100%" viewBox="0 0 24 24" version="1.1" xmlns="http://www.w3.org/2000/svg" xmlns:xlink="http://www.w3.org/1999/xlink" xml:space="preserve" xmlns:serif="http://www.serif.com/" style="fill-rule:evenodd;clip-rule:evenodd;stroke-linejoin:round;stroke-miterlimit:2;">
    <g transform="matrix(0.0512972,0,0,0.0510584,0.116395,8.00793)">
        <path d="M301.44,164.307C301.44,156.524 295.151,150.206 287.404,150.206L53.473,150.206C45.727,150.206 39.438,156.524 39.438,164.307C39.438,172.09 45.727,178.409 53.473,178.409L287.404,178.409C295.151,178.409 301.44,172.09 301.44,164.307Z"/>
    </g>
    <g transform="matrix(0.0512972,0,0,0.0510584,0.116395,10.4079)">
        <path d="M301.44,164.307C301.44,156.524 295.151,150.206 287.404,150.206L53.473,150.206C45.727,150.206 39.438,156.524 39.438,164.307C39.438,172.09 45.727,178.409 53.473,178.409L287.404,178.409C295.151,178.409 301.44,172.09 301.44,164.307Z"/>
    </g>
    <g transform="matrix(0.0512972,0,0,0.0510584,0.116395,12.8079)">
        <path d="M301.44,164.307C301.44,156.524 295.151,150.206 287.404,150.206L53.473,150.206C45.727,150.206 39.438,156.524 39.438,164.307C39.438,172.09 45.727,178.409 53.473,178.409L287.404,178.409C295.151,178.409 301.44,172.09 301.44,164.307Z"/>
    </g>
    <g transform="matrix(0.0456163,0,0,0.0510584,8.10998,-2.43487)">
        <path d="M301.44,164.307C301.44,156.524 294.368,150.206 285.656,150.206L55.221,150.206C46.51,150.206 39.438,156.524 39.438,164.307C39.438,172.09 46.51,178.409 55.221,178.409L285.656,178.409C294.368,178.409 301.44,172.09 301.44,164.307Z"/>
    </g>
    <g transform="matrix(1.07309e-18,0.017525,-0.0510584,3.12642e-18,24.274,1.39166)">
        <path d="M301.44,164.307C301.44,156.524 283.031,150.206 260.356,150.206L80.522,150.206C57.847,150.206 39.438,156.524 39.438,164.307C39.438,172.09 57.847,178.409 80.522,178.409L260.356,178.409C283.031,178.409 301.44,172.09 301.44,164.307Z"/>
    </g>
    <g transform="matrix(0.0135448,0,0,0.0510584,16.3274,12.8079)">
        <path d="M301.44,164.307C301.44,156.524 277.621,150.206 248.283,150.206L92.595,150.206C63.256,150.206 39.438,156.524 39.438,164.307C39.438,172.09 63.256,178.409 92.595,178.409L248.283,178.409C277.621,178.409 301.44,172.09 301.44,164.307Z"/>
    </g>
    <g transform="matrix(-0.00610043,0.063411,-0.0508237,-0.00488948,29.8008,3.537)">
        <path d="M301.44,164.307C301.44,156.524 296.376,150.206 290.138,150.206L50.74,150.206C44.502,150.206 39.438,156.524 39.438,164.307C39.438,172.09 44.502,178.409 50.74,178.409L290.138,178.409C296.376,178.409 301.44,172.09 301.44,164.307Z"/>
    </g>
    <g transform="matrix(0.0011928,0.0123986,0.0508237,-0.00488948,2.16233,5.5488)">
        <path d="M301.44,164.307C301.44,156.524 275.539,150.206 243.636,150.206L97.242,150.206C65.339,150.206 39.438,156.524 39.438,164.307C39.438,172.09 65.339,178.409 97.242,178.409L243.636,178.409C275.539,178.409 301.44,172.09 301.44,164.307Z"/>
    </g>
    <g transform="matrix(0.048,0,0,0.048,0.743689,7.83357)">
        <path d="M29.078,178.409C29.078,101.141 91.81,38.409 169.078,38.409C246.346,38.409 309.078,101.141 309.078,178.409L279.078,178.409C279.078,117.698 229.789,68.409 169.078,68.409C108.367,68.409 59.078,117.698 59.078,178.409L29.078,178.409Z"/>
    </g>
</svg>
