<?xml version="1.0" encoding="UTF-8" standalone="no"?>
<!DOCTYPE svg PUBLIC "-//W3C//DTD SVG 1.1//EN" "http://www.w3.org/Graphics/SVG/1.1/DTD/svg11.dtd">
<svg width="100%" height="100%" viewBox="0 0 24 24" version="1.1" xmlns="http://www.w3.org/2000/svg" xmlns:xlink="http://www.w3.org/1999/xlink" xml:space="preserve" xmlns:serif="http://www.serif.com/" style="fill-rule:evenodd;clip-rule:evenodd;stroke-linejoin:round;stroke-miterlimit:2;">
    <g transform="matrix(0.0483567,-0.0119739,0.0148421,0.0599404,-7.95568,-2.50475)">
        <path d="M278.807,227.709C278.807,221.274 272.33,216.049 264.354,216.049L125.907,216.049C117.93,216.049 111.454,221.274 111.454,227.709C111.454,234.144 117.93,239.369 125.907,239.369L264.354,239.369C272.33,239.369 278.807,234.144 278.807,227.709Z"/>
    </g>
    <g transform="matrix(0.0323952,0.0386509,-0.0473259,0.0396661,8.18281,-4.23585)">
        <path d="M278.807,227.709C278.807,221.274 272.409,216.049 264.53,216.049L125.731,216.049C117.851,216.049 111.454,221.274 111.454,227.709C111.454,234.144 117.851,239.369 125.731,239.369L264.53,239.369C272.409,239.369 278.807,234.144 278.807,227.709Z"/>
    </g>
    <g transform="matrix(0.0267386,0.0426025,-0.0523025,0.0328265,20.5374,-10.7824)">
        <path d="M278.807,227.709C278.807,221.274 272.392,216.049 264.492,216.049L125.769,216.049C117.868,216.049 111.454,221.274 111.454,227.709C111.454,234.144 117.868,239.369 125.769,239.369L264.492,239.369C272.392,239.369 278.807,234.144 278.807,227.709Z"/>
    </g>
    <g transform="matrix(-0.0265558,0.0427867,-0.0524666,-0.0325637,27.2482,4.0597)">
        <path d="M278.807,227.709C278.807,221.274 272.4,216.049 264.509,216.049L125.752,216.049C117.861,216.049 111.454,221.274 111.454,227.709C111.454,234.144 117.861,239.369 125.752,239.369L264.509,239.369C272.4,239.369 278.807,234.144 278.807,227.709Z"/>
    </g>
    <g transform="matrix(0.0033495,-0.0493489,0.0616088,0.00418162,-8.94132,27.1859)">
        <path d="M278.807,227.709C278.807,221.274 272.284,216.049 264.25,216.049L126.011,216.049C117.977,216.049 111.454,221.274 111.454,227.709C111.454,234.144 117.977,239.369 126.011,239.369L264.25,239.369C272.284,239.369 278.807,234.144 278.807,227.709Z"/>
    </g>
    <g transform="matrix(0.0463906,-0.0189104,0.0233094,0.0571822,-5.62686,11.3155)">
        <path d="M278.807,227.709C278.807,221.274 272.367,216.049 264.434,216.049L125.826,216.049C117.894,216.049 111.454,221.274 111.454,227.709C111.454,234.144 117.894,239.369 125.826,239.369L264.434,239.369C272.367,239.369 278.807,234.144 278.807,227.709Z"/>
    </g>
    <g transform="matrix(-0.0483483,-0.0119718,-0.0148421,0.0599404,31.9007,-2.50498)">
        <path d="M278.807,227.709C278.807,221.274 272.329,216.049 264.351,216.049L125.909,216.049C117.931,216.049 111.454,221.274 111.454,227.709C111.454,234.144 117.931,239.369 125.909,239.369L264.351,239.369C272.329,239.369 278.807,234.144 278.807,227.709Z"/>
    </g>
    <g transform="matrix(-0.0323952,0.0386509,0.0473259,0.0396661,15.7631,-4.23585)">
        <path d="M278.807,227.709C278.807,221.274 272.409,216.049 264.53,216.049L125.731,216.049C117.851,216.049 111.454,221.274 111.454,227.709C111.454,234.144 117.851,239.369 125.731,239.369L264.53,239.369C272.409,239.369 278.807,234.144 278.807,227.709Z"/>
    </g>
    <g transform="matrix(-0.0033495,-0.0493489,-0.0616088,0.00418162,32.8872,27.1859)">
        <path d="M278.807,227.709C278.807,221.274 272.284,216.049 264.25,216.049L126.011,216.049C117.977,216.049 111.454,221.274 111.454,227.709C111.454,234.144 117.977,239.369 126.011,239.369L264.25,239.369C272.284,239.369 278.807,234.144 278.807,227.709Z"/>
    </g>
    <g transform="matrix(-0.0463738,-0.0189035,-0.0233094,0.0571822,29.5709,11.3148)">
        <path d="M278.807,227.709C278.807,221.274 272.364,216.049 264.429,216.049L125.831,216.049C117.896,216.049 111.454,221.274 111.454,227.709C111.454,234.144 117.896,239.369 125.831,239.369L264.429,239.369C272.364,239.369 278.807,234.144 278.807,227.709Z"/>
    </g>
</svg>
