<?xml version="1.0" encoding="UTF-8" standalone="no"?>
<!DOCTYPE svg PUBLIC "-//W3C//DTD SVG 1.1//EN" "http://www.w3.org/Graphics/SVG/1.1/DTD/svg11.dtd">
<svg width="100%" height="100%" viewBox="0 0 24 24" version="1.1" xmlns="http://www.w3.org/2000/svg" xmlns:xlink="http://www.w3.org/1999/xlink" xml:space="preserve" xmlns:serif="http://www.serif.com/" style="fill-rule:evenodd;clip-rule:evenodd;stroke-linejoin:round;stroke-miterlimit:2;">
    <g transform="matrix(0.048,0,0,0.048,0,0)">
        <path d="M250,106.078L250.001,106.079C297.112,19.597 395.228,20.214 443.638,64.647C492.047,109.079 492.047,197.944 443.638,286.809C409.751,353.458 322.615,420.107 250.001,464.539L249.999,464.539C177.385,420.107 90.249,353.458 56.362,286.809C7.953,197.944 7.953,109.079 56.362,64.647C104.772,20.214 203.448,20.625 249.999,106.078L250,106.078ZM250,427.389L250.001,427.389C325.493,376.872 379.429,339.319 418.825,270.19C458.222,201.061 462.789,123.722 420.423,86.553C380.374,51.416 305.401,56.087 260.455,131.933C253.786,143.187 245.797,141.662 240.258,132.147C195.428,55.137 119.839,51.229 79.577,86.553C37.211,123.722 41.778,201.061 81.175,270.19C120.571,339.319 174.507,376.872 249.999,427.389L250,427.389Z"/>
    </g>
</svg>
