<?xml version="1.0" encoding="UTF-8" standalone="no"?>
<!DOCTYPE svg PUBLIC "-//W3C//DTD SVG 1.1//EN" "http://www.w3.org/Graphics/SVG/1.1/DTD/svg11.dtd">
<svg width="100%" height="100%" viewBox="0 0 24 24" version="1.1" xmlns="http://www.w3.org/2000/svg" xmlns:xlink="http://www.w3.org/1999/xlink" xml:space="preserve" xmlns:serif="http://www.serif.com/" style="fill-rule:evenodd;clip-rule:evenodd;stroke-linejoin:round;stroke-miterlimit:2;">
    <g transform="matrix(0.0512726,0,0,0.0723972,-0.818147,2.36877)">
        <path d="M461.257,54.527C461.257,49.038 454.965,44.582 447.215,44.582L52.785,44.582C45.035,44.582 38.743,49.038 38.743,54.527C38.743,60.016 45.035,64.472 52.785,64.472L447.215,64.472C454.965,64.472 461.257,60.016 461.257,54.527Z"/>
    </g>
    <g transform="matrix(0.0361563,0,0,0.0723972,2.96091,8.37835)">
        <path d="M461.257,54.527C461.257,49.038 452.334,44.582 441.344,44.582L58.656,44.582C47.666,44.582 38.743,49.038 38.743,54.527C38.743,60.016 47.666,64.472 58.656,64.472L441.344,64.472C452.334,64.472 461.257,60.016 461.257,54.527Z"/>
    </g>
    <g transform="matrix(0.0177663,0,0,0.0723972,7.55841,14.3879)">
        <path d="M461.257,54.527C461.257,49.038 443.098,44.582 420.731,44.582L79.269,44.582C56.902,44.582 38.743,49.038 38.743,54.527C38.743,60.016 56.902,64.472 79.269,64.472L420.731,64.472C443.098,64.472 461.257,60.016 461.257,54.527Z"/>
    </g>
</svg>
