<?xml version="1.0" encoding="UTF-8" standalone="no"?>
<!DOCTYPE svg PUBLIC "-//W3C//DTD SVG 1.1//EN" "http://www.w3.org/Graphics/SVG/1.1/DTD/svg11.dtd">
<svg width="100%" height="100%" viewBox="0 0 24 24" version="1.1" xmlns="http://www.w3.org/2000/svg" xmlns:xlink="http://www.w3.org/1999/xlink" xml:space="preserve" xmlns:serif="http://www.serif.com/" style="fill-rule:evenodd;clip-rule:evenodd;stroke-linejoin:round;stroke-miterlimit:2;">
    <g transform="matrix(0.048,0,0,0.048,0,0)">
        <path d="M252.576,483.047C195.084,483.047 116.155,474.322 93.278,403.978C73.589,343.433 105.876,269.436 138.546,225.652C193.987,151.349 185.193,10.974 185.193,10.974C257.473,37.112 315.68,107.247 307.27,203.704C314.173,203.771 328.504,172.982 344.307,132.373C344.307,132.373 467.384,264.459 417.524,395.062C387.592,473.465 295.902,483.047 252.576,483.047ZM252.576,454.047C195.084,454.047 137.104,441.982 121.399,393.69C108.286,353.367 127.824,285.211 160.494,241.427C215.935,167.124 213.992,58.299 213.992,58.299C261.58,90.61 286.874,146.342 278.464,242.798C310.728,243.113 335.362,228.538 351.166,187.929C351.166,187.929 424.501,293.812 388.203,388.889C366.382,446.047 295.902,454.047 252.576,454.047Z"/>
    </g>
    <g transform="matrix(0.048,0,0,0.048,0,0)">
        <path d="M217.421,462.861C194.19,413.752 193.395,343.612 226.337,297.668C226.337,297.668 228.168,335.451 272.008,365.175C329.546,404.186 295.61,462.861 295.61,462.861L326.475,462.861C326.475,462.861 355.749,385.187 297.385,349.675C234.439,311.376 258.343,247.01 258.343,247.01C181.091,261.906 155.43,363.125 179.012,447.188L217.421,462.861Z"/>
    </g>
</svg>
