<?xml version="1.0" encoding="UTF-8" standalone="no"?>
<!DOCTYPE svg PUBLIC "-//W3C//DTD SVG 1.1//EN" "http://www.w3.org/Graphics/SVG/1.1/DTD/svg11.dtd">
<svg width="100%" height="100%" viewBox="0 0 24 24" version="1.1" xmlns="http://www.w3.org/2000/svg" xmlns:xlink="http://www.w3.org/1999/xlink" xml:space="preserve" xmlns:serif="http://www.serif.com/" style="fill-rule:evenodd;clip-rule:evenodd;stroke-linejoin:round;stroke-miterlimit:2;">
    <g transform="matrix(2.93915e-18,0.048,-0.048,2.93915e-18,23.9484,0.127916)">
        <path d="M261.243,446.602L261.243,51.246C261.243,42.968 267.964,36.246 276.243,36.246C276.295,36.246 276.346,36.246 276.396,36.247C282.152,36.188 287.68,39.462 290.216,45.033L469.673,439.258C470.673,441.455 471.098,443.767 471.012,446.027C471.019,446.217 471.023,446.409 471.023,446.602C471.023,454.881 464.301,461.602 456.023,461.602L276.243,461.602C273.117,461.602 270.213,460.644 267.81,459.005L267.779,458.984C263.834,456.281 261.243,451.742 261.243,446.602ZM291.243,119.7L291.243,431.602L433.226,431.602L291.243,119.7Z"/>
    </g>
    <g transform="matrix(4.21135e-18,-0.0228894,0.0772267,-1.19274e-17,-33.2485,11.9252)">
        <path d="M465.815,463.052C465.815,457.907 451.72,453.729 434.359,453.729L57.353,453.729C39.993,453.729 25.898,457.907 25.898,463.052C25.898,468.198 39.993,472.376 57.353,472.376L434.359,472.376C451.72,472.376 465.815,468.198 465.815,463.052Z"/>
    </g>
    <g transform="matrix(-0.0464112,-5.90228e-18,-8.61974e-18,-0.0772267,23.4105,46.3724)">
        <path d="M465.815,463.052C465.815,457.907 458.864,453.729 450.301,453.729L41.411,453.729C32.849,453.729 25.898,457.907 25.898,463.052C25.898,468.198 32.849,472.376 41.411,472.376L450.301,472.376C458.864,472.376 465.815,468.198 465.815,463.052Z"/>
    </g>
    <g transform="matrix(-0.0459936,-0.020937,0.0319956,-0.0702868,8.51923,43.984)">
        <path d="M465.815,463.052C465.815,457.907 459.431,453.729 451.567,453.729L40.145,453.729C32.282,453.729 25.898,457.907 25.898,463.052C25.898,468.198 32.282,472.376 40.145,472.376L451.567,472.376C459.431,472.376 465.815,468.198 465.815,463.052Z"/>
    </g>
    <g transform="matrix(0.0283664,0.0283664,-0.0492694,0.0492694,21.3915,-8.48632)">
        <rect x="67.141" y="240.587" width="167.361" height="20.667"/>
    </g>
    <g transform="matrix(0.0504686,0.0504686,-0.0492694,0.0492694,11.893,-13.3897)">
        <rect x="67.141" y="240.587" width="167.361" height="20.667"/>
    </g>
    <g transform="matrix(0.0242491,0.0242491,-0.0492694,0.0492694,13.2875,-7.40006)">
        <rect x="67.141" y="240.587" width="167.361" height="20.667"/>
    </g>
</svg>
