<?xml version="1.0" encoding="UTF-8" standalone="no"?>
<!DOCTYPE svg PUBLIC "-//W3C//DTD SVG 1.1//EN" "http://www.w3.org/Graphics/SVG/1.1/DTD/svg11.dtd">
<svg width="100%" height="100%" viewBox="0 0 24 24" version="1.1" xmlns="http://www.w3.org/2000/svg" xmlns:xlink="http://www.w3.org/1999/xlink" xml:space="preserve" xmlns:serif="http://www.serif.com/" style="fill-rule:evenodd;clip-rule:evenodd;stroke-linejoin:round;stroke-miterlimit:2;">
    <g transform="matrix(0.048,0,0,0.048,0,0)">
        <path d="M466.323,153.305L33.677,153.305L33.677,424.257L466.323,424.257L466.323,153.305ZM436.323,183.305L63.677,183.305L63.677,394.257L436.323,394.257L436.323,183.305Z"/>
    </g>
    <g transform="matrix(0.048,0,0,0.048,0,0)">
        <path d="M436.323,133.605L436.323,184.559L466.323,184.559L466.323,103.605L231.824,103.605L231.824,91.364C231.824,79.431 222.136,69.743 210.204,69.743L33.677,69.743L33.677,172.84L63.677,172.84L63.677,103.239C63.677,101.31 65.243,99.743 67.173,99.743L198.328,99.743C200.258,99.743 201.824,101.31 201.824,103.239L201.824,133.605L436.323,133.605Z"/>
    </g>
</svg>
