<?xml version="1.0" encoding="UTF-8" standalone="no"?>
<!DOCTYPE svg PUBLIC "-//W3C//DTD SVG 1.1//EN" "http://www.w3.org/Graphics/SVG/1.1/DTD/svg11.dtd">
<svg width="100%" height="100%" viewBox="0 0 24 24" version="1.1" xmlns="http://www.w3.org/2000/svg" xmlns:xlink="http://www.w3.org/1999/xlink" xml:space="preserve" xmlns:serif="http://www.serif.com/" style="fill-rule:evenodd;clip-rule:evenodd;stroke-linejoin:round;stroke-miterlimit:2;">
    <g transform="matrix(0.0494111,0,0,0.0494111,-1.09717,-1.00121)">
        <circle cx="335.85" cy="131.847" r="14.572"/>
    </g>
    <g transform="matrix(0.0494111,0,0,0.0494111,1.12755,-1.00121)">
        <circle cx="335.85" cy="131.847" r="14.572"/>
    </g>
    <g transform="matrix(0.0494111,0,0,0.0494111,3.35227,-1.00121)">
        <circle cx="335.85" cy="131.847" r="14.572"/>
    </g>
    <g transform="matrix(0.048,0,0,0.0520744,0,-1.00415)">
        <path d="M481.91,83.567C481.91,75.936 475.189,69.741 466.91,69.741L33.09,69.741C24.811,69.741 18.09,75.936 18.09,83.567C18.09,91.198 24.811,97.394 33.09,97.394L466.91,97.394C475.189,97.394 481.91,91.198 481.91,83.567Z"/>
    </g>
    <g transform="matrix(0.048,0,0,0.0520744,0,3.3277)">
        <path d="M481.91,83.567C481.91,75.936 475.189,69.741 466.91,69.741L33.09,69.741C24.811,69.741 18.09,75.936 18.09,83.567C18.09,91.198 24.811,97.394 33.09,97.394L466.91,97.394C475.189,97.394 481.91,91.198 481.91,83.567Z"/>
    </g>
    <g transform="matrix(2.41128e-18,0.0393792,-0.0520744,3.18864e-18,5.94003,1.9152)">
        <path d="M481.91,83.567C481.91,75.936 473.717,69.741 463.626,69.741L36.374,69.741C26.283,69.741 18.09,75.936 18.09,83.567C18.09,91.198 26.283,97.394 36.374,97.394L463.626,97.394C473.717,97.394 481.91,91.198 481.91,83.567Z"/>
    </g>
    <g transform="matrix(2.41128e-18,0.0393792,-0.0520744,3.18864e-18,26.7634,1.9152)">
        <path d="M481.91,83.567C481.91,75.936 473.717,69.741 463.626,69.741L36.374,69.741C26.283,69.741 18.09,75.936 18.09,83.567C18.09,91.198 26.283,97.394 36.374,97.394L463.626,97.394C473.717,97.394 481.91,91.198 481.91,83.567Z"/>
    </g>
    <g transform="matrix(0.048,0,0,0.0520744,0,15.8207)">
        <path d="M481.91,83.567C481.91,75.936 475.189,69.741 466.91,69.741L33.09,69.741C24.811,69.741 18.09,75.936 18.09,83.567C18.09,91.198 24.811,97.394 33.09,97.394L466.91,97.394C475.189,97.394 481.91,91.198 481.91,83.567Z"/>
    </g>
</svg>
