<?xml version="1.0" encoding="UTF-8" standalone="no"?>
<!DOCTYPE svg PUBLIC "-//W3C//DTD SVG 1.1//EN" "http://www.w3.org/Graphics/SVG/1.1/DTD/svg11.dtd">
<svg width="100%" height="100%" viewBox="0 0 24 24" version="1.1" xmlns="http://www.w3.org/2000/svg" xmlns:xlink="http://www.w3.org/1999/xlink" xml:space="preserve" xmlns:serif="http://www.serif.com/" style="fill-rule:evenodd;clip-rule:evenodd;stroke-linejoin:round;stroke-miterlimit:2;">
    <g transform="matrix(0.048,0,0,0.0615178,0.654,-5.80933)">
        <path d="M349.878,454.479C349.878,448.019 343.157,442.775 334.878,442.775L47.545,442.775C39.266,442.775 32.545,448.019 32.545,454.479C32.545,460.938 39.266,466.183 47.545,466.183L334.878,466.183C343.157,466.183 349.878,460.938 349.878,454.479Z"/>
    </g>
    <g transform="matrix(0.048,0,0,0.048,0,0)">
        <path d="M71.568,454.047L101.568,454.047L101.568,68.89C101.568,60.183 108.636,53.115 117.342,53.115L292.33,53.115C301.037,53.115 308.105,60.183 308.105,68.89L308.105,454.047L338.105,454.047L338.105,66.381C338.105,42.502 318.718,23.115 294.839,23.115L114.834,23.115C90.955,23.115 71.568,42.502 71.568,66.381L71.568,454.047Z"/>
    </g>
    <g transform="matrix(0.048,0,0,0.048,0,0)">
        <path d="M273.503,70.441L136.17,70.441C134.015,70.441 131.965,70.897 130.113,71.716L130.077,71.732C124.83,74.07 121.17,79.332 121.17,85.441L121.17,179.108C121.17,185.218 124.83,190.479 130.077,192.817L130.113,192.833C131.965,193.653 134.015,194.108 136.17,194.108L273.503,194.108C275.658,194.108 277.707,193.653 279.56,192.833L279.596,192.817C284.842,190.479 288.503,185.218 288.503,179.108L288.503,85.442C288.503,79.332 284.842,74.07 279.596,71.732L279.56,71.716C277.707,70.897 275.658,70.441 273.503,70.441ZM151.17,100.441L151.17,164.108L258.503,164.108L258.503,100.441L151.17,100.441Z"/>
    </g>
    <g transform="matrix(0.048,0,0,0.048,0,0)">
        <path d="M387.715,67.597C387.715,67.597 423.83,77.64 423.83,132.263L423.83,382.286C423.83,392.858 415.247,401.441 404.675,401.441C394.103,401.441 385.52,392.858 385.52,382.286L385.52,186.93C385.52,159.801 363.494,137.775 336.365,137.775C309.235,137.775 325.793,167.775 336.365,167.775C346.937,167.775 355.52,176.358 355.52,186.93L355.52,382.286C355.52,409.416 377.546,431.441 404.675,431.441C431.805,431.441 453.83,409.416 453.83,382.286L453.83,132.263C453.83,58.334 399.945,40.203 399.945,40.203L387.715,67.597Z"/>
    </g>
    <g transform="matrix(0.048,0,0,0.052038,3.76872e-14,-0.832286)">
        <path d="M453.83,145.226C453.83,138.078 447.539,132.275 439.789,132.275L411.707,132.275C403.958,132.275 397.666,138.078 397.666,145.226L397.666,193.16C397.666,200.308 403.958,206.111 411.707,206.111L439.789,206.111C447.539,206.111 453.83,200.308 453.83,193.16L453.83,145.226Z"/>
    </g>
</svg>
