<?xml version="1.0" encoding="UTF-8" standalone="no"?>
<!DOCTYPE svg PUBLIC "-//W3C//DTD SVG 1.1//EN" "http://www.w3.org/Graphics/SVG/1.1/DTD/svg11.dtd">
<svg width="100%" height="100%" viewBox="0 0 24 24" version="1.1" xmlns="http://www.w3.org/2000/svg" xmlns:xlink="http://www.w3.org/1999/xlink" xml:space="preserve" xmlns:serif="http://www.serif.com/" style="fill-rule:evenodd;clip-rule:evenodd;stroke-linejoin:round;stroke-miterlimit:2;">
    <g transform="matrix(0.0501116,0,0,0.071814,-0.359572,-10.3775)">
        <ellipse cx="245.542" cy="450.617" rx="79.561" ry="16.461"/>
    </g>
    <g transform="matrix(0.048,0,0,0.048,-0.00908891,0.145465)">
        <path d="M235.439,439.823L235.439,321.861C235.439,279.954 225.83,260.973 195.939,241.861C154.361,215.276 143.78,207.456 140.939,169.527C138.247,133.583 169.064,56.64 179.981,28.807C183.372,20.159 186.095,14.361 197.939,14.361L302.44,14.361C314.283,14.361 317.006,20.159 320.398,28.807C331.315,56.64 362.132,133.583 359.44,169.527C356.599,207.456 346.018,215.276 304.44,241.861C274.549,260.973 264.94,279.954 264.94,321.861L264.94,439.823L235.439,439.823ZM205.689,43.361C201.866,50.582 175.269,120.319 171.439,148.361C168.761,167.965 169.884,182.466 177.436,191.972C184.987,201.479 199.843,209.634 217.439,221.194C232.231,230.912 242.821,241.993 250.189,254.491C257.558,241.993 268.148,230.912 282.94,221.194C300.536,209.634 315.391,201.479 322.943,191.972C330.494,182.466 331.618,167.965 328.94,148.361C325.109,120.319 298.512,50.582 294.689,43.361L205.689,43.361Z"/>
    </g>
    <g transform="matrix(0.048,0,0,0.0523636,-0.00908891,-0.400109)">
        <rect x="165.106" y="92.027" width="161.5" height="27.5"/>
    </g>
</svg>
