<?xml version="1.0" encoding="UTF-8" standalone="no"?>
<!DOCTYPE svg PUBLIC "-//W3C//DTD SVG 1.1//EN" "http://www.w3.org/Graphics/SVG/1.1/DTD/svg11.dtd">
<svg width="100%" height="100%" viewBox="0 0 24 24" version="1.1" xmlns="http://www.w3.org/2000/svg" xmlns:xlink="http://www.w3.org/1999/xlink" xml:space="preserve" xmlns:serif="http://www.serif.com/" style="fill-rule:evenodd;clip-rule:evenodd;stroke-linejoin:round;stroke-miterlimit:2;">
    <g transform="matrix(0.048,0,0,0.048,0,0)">
        <path d="M250.809,15.809C380.509,15.809 485.809,121.109 485.809,250.809C485.809,380.509 380.509,485.809 250.809,485.809C121.109,485.809 15.809,380.509 15.809,250.809C15.809,121.109 121.109,15.809 250.809,15.809ZM250.809,45.809C363.952,45.809 455.809,137.667 455.809,250.809C455.809,363.952 363.952,455.809 250.809,455.809C137.667,455.809 45.809,363.952 45.809,250.809C45.809,137.667 137.667,45.809 250.809,45.809Z"/>
    </g>
    <g transform="matrix(0.048,0,0,0.048,0,0)">
        <path d="M399.421,368.185C389.264,385.45 371.571,431.368 355.088,447.852C338.604,464.336 296.497,472.283 283.421,446.519C275.921,431.741 282.365,404.337 261.421,387.519C247.377,376.241 222.256,393.42 202.822,383.852C177.433,371.352 181.172,336.064 191.088,314.519C211.888,269.324 254.34,285.249 276.421,293.185C298.502,301.121 303.53,301.115 330.088,292.185C352.997,284.482 361.202,294.244 367.421,304.519C373.81,315.074 374.888,332.437 384.421,339.519C395.598,347.821 409.579,350.921 399.421,368.185ZM367.504,366.945C362.521,377.225 358.754,385.195 352.088,398.195C345.421,411.195 337.421,428.529 325.254,432.695C319.42,434.693 308.254,436.029 308.254,427.362C308.254,418.695 303.421,388.029 287.421,371.529C271.421,355.029 255.254,353.695 246.588,354.362C237.921,355.029 215.754,358.029 213.754,353.862C211.754,349.695 212.754,332.862 221.088,320.862C227.526,311.591 234.912,309.019 274.921,323.362C307.145,334.914 326.56,322.89 335.588,321.362C342.993,320.109 342.047,318.749 350.088,340.195C357.265,359.338 369.97,361.859 367.504,366.945Z"/>
    </g>
    <g transform="matrix(0.048,0,0,0.048,0,0)">
        <path d="M365.421,65.49C365.421,65.49 396.534,68.847 395.754,75.029C389.946,121.113 346.353,134.509 309.539,132.612C301.34,132.19 293.239,133.962 293.239,133.962C293.239,133.962 351.782,133.087 338.397,180.695C328.889,214.515 290.719,220.159 266.088,227.362C256.461,230.177 236.914,236.582 233.754,250C232.241,256.425 246.04,255.589 264.068,251.79C288.102,246.726 320.587,237.371 343.359,242.362C373.221,248.907 400.421,283.875 400.421,283.875C400.421,283.875 399.387,266.583 415.088,256.875C436.695,243.515 475.754,260.256 479.468,261.901L468.421,290.362C468.421,290.362 423.789,273.839 430.421,283.875C437.577,294.704 450.393,305.298 435.754,323.362C429.707,330.824 415.523,339.596 398.421,323.362C384.418,310.069 359.773,276.919 338.397,270.695C306.342,261.362 232.754,305.806 206.088,267.362C195.714,252.407 208.699,216.917 244.754,203.362C266.593,195.151 306.032,189.64 310.421,174.029C313.194,164.167 309.297,163.695 286.754,163.695C264.212,163.695 259.81,143.973 260.088,134.029C260.682,112.741 282.714,103.242 306.754,104.029C373.079,106.198 365.956,67.992 365.447,65.607L365.421,65.49Z"/>
    </g>
    <g transform="matrix(0.048,0,0,0.048,0,0)">
        <path d="M135.954,60.283L164.204,46.283C164.204,46.283 212.501,88.141 188.454,119.079C166.111,147.824 133.193,137.526 107.704,155.579C87.877,169.621 86.342,192.226 69.954,204.079C55.826,214.297 35.809,207.579 35.809,207.579C35.809,207.579 32.582,175.84 34.757,176.921C41.855,180.45 50.926,182.575 56.454,174.829C63.877,164.429 68.631,147.993 91.454,131.829C125.884,107.444 156.435,118.645 164.704,101.079C170.453,88.868 135.954,60.283 135.954,60.283Z"/>
    </g>
</svg>
