<?xml version="1.0" encoding="UTF-8" standalone="no"?>
<!DOCTYPE svg PUBLIC "-//W3C//DTD SVG 1.1//EN" "http://www.w3.org/Graphics/SVG/1.1/DTD/svg11.dtd">
<svg width="100%" height="100%" viewBox="0 0 24 24" version="1.1" xmlns="http://www.w3.org/2000/svg" xmlns:xlink="http://www.w3.org/1999/xlink" xml:space="preserve" xmlns:serif="http://www.serif.com/" style="fill-rule:evenodd;clip-rule:evenodd;stroke-linejoin:round;stroke-miterlimit:2;">
    <g transform="matrix(0.0340976,0.0340976,-0.0423699,0.0423699,12.2131,-9.85154)">
        <path d="M334.567,262.016C334.567,255.384 327.877,250 319.636,250L129.498,250C121.258,250 114.567,255.384 114.567,262.016C114.567,268.648 121.258,274.032 129.498,274.032L319.636,274.032C327.877,274.032 334.567,268.648 334.567,262.016Z"/>
    </g>
    <g transform="matrix(0.0144528,0.0144528,-0.0423699,0.0423699,12.2533,-12.0968)">
        <path d="M334.567,262.016C334.567,255.384 318.783,250 299.341,250L149.793,250C130.351,250 114.567,255.384 114.567,262.016C114.567,268.648 130.351,274.032 149.793,274.032L299.341,274.032C318.783,274.032 334.567,268.648 334.567,262.016Z"/>
    </g>
    <g transform="matrix(0.0144528,0.0144528,-0.0423699,0.0423699,10.0584,-9.90192)">
        <path d="M334.567,262.016C334.567,255.384 318.783,250 299.341,250L149.793,250C130.351,250 114.567,255.384 114.567,262.016C114.567,268.648 130.351,274.032 149.793,274.032L299.341,274.032C318.783,274.032 334.567,268.648 334.567,262.016Z"/>
    </g>
    <g transform="matrix(0.0159244,0,0,0.0599201,0.729143,-10.1834)">
        <path d="M334.567,262.016C334.567,255.384 314.308,250 289.354,250L159.781,250C134.827,250 114.567,255.384 114.567,262.016C114.567,268.648 134.827,274.032 159.781,274.032L289.354,274.032C314.308,274.032 334.567,268.648 334.567,262.016Z"/>
    </g>
    <g transform="matrix(0,0.0159244,0.0599201,0,-10.2314,0.777143)">
        <path d="M334.567,262.016C334.567,255.384 314.308,250 289.354,250L159.781,250C134.827,250 114.567,255.384 114.567,262.016C114.567,268.648 134.827,274.032 159.781,274.032L289.354,274.032C314.308,274.032 334.567,268.648 334.567,262.016Z"/>
    </g>
    <g transform="matrix(0.0159244,0,0,0.0599201,-1.42287,-12.3354)">
        <path d="M334.567,262.016C334.567,255.384 314.308,250 289.354,250L159.781,250C134.827,250 114.567,255.384 114.567,262.016C114.567,268.648 134.827,274.032 159.781,274.032L289.354,274.032C314.308,274.032 334.567,268.648 334.567,262.016Z"/>
    </g>
    <g transform="matrix(0,0.0159244,0.0599201,0,-12.3834,-1.37487)">
        <path d="M334.567,262.016C334.567,255.384 314.308,250 289.354,250L159.781,250C134.827,250 114.567,255.384 114.567,262.016C114.567,268.648 134.827,274.032 159.781,274.032L289.354,274.032C314.308,274.032 334.567,268.648 334.567,262.016Z"/>
    </g>
    <g transform="matrix(0.048,0,0,0.048,0.72,0.768)">
        <path d="M250.213,55.213C357.836,55.213 445.213,142.589 445.213,250.213C445.213,357.836 357.836,445.213 250.213,445.213C142.589,445.213 55.213,357.836 55.213,250.213C55.213,142.589 142.589,55.213 250.213,55.213ZM250.213,85.213C341.279,85.213 415.213,159.147 415.213,250.213C415.213,341.279 341.279,415.213 250.213,415.213C159.147,415.213 85.213,341.279 85.213,250.213C85.213,159.147 159.147,85.213 250.213,85.213Z"/>
    </g>
    <g transform="matrix(0.048,0,0,0.048,0.709794,0.757794)">
        <path d="M250.425,110.425C327.693,110.425 390.425,173.157 390.425,250.425C390.425,327.693 327.693,390.425 250.425,390.425C173.157,390.425 110.425,327.693 110.425,250.425C110.425,173.157 173.157,110.425 250.425,110.425ZM250.425,140.425C311.136,140.425 360.425,189.715 360.425,250.425C360.425,311.136 311.136,360.425 250.425,360.425C189.715,360.425 140.425,311.136 140.425,250.425C140.425,189.715 189.715,140.425 250.425,140.425Z"/>
    </g>
    <g transform="matrix(0.048,0,0,0.048,0.714,0.762)">
        <path d="M250.338,165.338C297.25,165.338 335.338,203.425 335.338,250.338C335.338,297.25 297.25,335.338 250.338,335.338C203.425,335.338 165.338,297.25 165.338,250.338C165.338,203.425 203.425,165.338 250.338,165.338ZM250.338,195.338C280.693,195.338 305.338,219.982 305.338,250.338C305.338,280.693 280.693,305.338 250.338,305.338C219.982,305.338 195.338,280.693 195.338,250.338C195.338,219.982 219.982,195.338 250.338,195.338Z"/>
    </g>
    <g transform="matrix(0.0169412,0,0,0.0169412,8.48919,8.53719)">
        <circle cx="250.338" cy="250.338" r="85"/>
    </g>
</svg>
