<?xml version="1.0" encoding="UTF-8" standalone="no"?>
<!DOCTYPE svg PUBLIC "-//W3C//DTD SVG 1.1//EN" "http://www.w3.org/Graphics/SVG/1.1/DTD/svg11.dtd">
<svg width="100%" height="100%" viewBox="0 0 24 24" version="1.1" xmlns="http://www.w3.org/2000/svg" xmlns:xlink="http://www.w3.org/1999/xlink" xml:space="preserve" xmlns:serif="http://www.serif.com/" style="fill-rule:evenodd;clip-rule:evenodd;stroke-linejoin:round;stroke-miterlimit:2;">
    <g transform="matrix(-0.0526135,0.0201907,0.0117656,0.0306593,15.7903,8.02239)">
        <path d="M134.669,82.008C134.669,69.907 128.944,60.083 121.892,60.083C114.841,60.083 109.116,69.907 109.116,82.008L109.116,361.362C109.116,373.463 114.841,383.287 121.892,383.287C128.944,383.287 134.669,373.463 134.669,361.362L134.669,82.008Z"/>
    </g>
    <g transform="matrix(-0.0398487,-0.0398487,-0.0342668,0.0342668,27.8323,5.20476)">
        <path d="M134.669,74.94C134.669,66.74 128.944,60.083 121.892,60.083C114.841,60.083 109.116,66.74 109.116,74.94L109.116,368.43C109.116,376.63 114.841,383.287 121.892,383.287C128.944,383.287 134.669,376.63 134.669,368.43L134.669,74.94Z"/>
    </g>
    <g transform="matrix(-0.052956,-0.0192744,-0.0224754,0.0617506,28.4661,0.885741)">
        <path d="M134.669,71.04C134.669,64.992 128.944,60.083 121.892,60.083C114.841,60.083 109.116,64.992 109.116,71.04L109.116,372.331C109.116,378.378 114.841,383.287 121.892,383.287C128.944,383.287 134.669,378.378 134.669,372.331L134.669,71.04Z"/>
    </g>
    <g transform="matrix(-0.0201907,0.0526135,-0.0306593,-0.0117656,15.3002,7.53221)">
        <path d="M134.669,82.008C134.669,69.907 128.944,60.083 121.892,60.083C114.841,60.083 109.116,69.907 109.116,82.008L109.116,361.362C109.116,373.463 114.841,383.287 121.892,383.287C128.944,383.287 134.669,373.463 134.669,361.362L134.669,82.008Z"/>
    </g>
    <g transform="matrix(0.0192744,0.052956,-0.0617506,0.0224754,22.4368,-5.14357)">
        <path d="M134.669,71.04C134.669,64.992 128.944,60.083 121.892,60.083C114.841,60.083 109.116,64.992 109.116,71.04L109.116,372.331C109.116,378.378 114.841,383.287 121.892,383.287C128.944,383.287 134.669,378.378 134.669,372.331L134.669,71.04Z"/>
    </g>
</svg>
