<?xml version="1.0" encoding="UTF-8" standalone="no"?>
<!DOCTYPE svg PUBLIC "-//W3C//DTD SVG 1.1//EN" "http://www.w3.org/Graphics/SVG/1.1/DTD/svg11.dtd">
<svg width="100%" height="100%" viewBox="0 0 24 24" version="1.1" xmlns="http://www.w3.org/2000/svg" xmlns:xlink="http://www.w3.org/1999/xlink" xml:space="preserve" xmlns:serif="http://www.serif.com/" style="fill-rule:evenodd;clip-rule:evenodd;stroke-linejoin:round;stroke-miterlimit:2;">
    <g transform="matrix(0.0560363,0.0323526,-0.0270873,0.0469165,6.34041,-8.31655)">
        <path d="M188.615,351.839C188.615,344.504 183.629,338.549 177.487,338.549C171.346,338.549 166.36,344.504 166.36,351.839L166.36,475.531C166.36,482.866 171.346,488.821 177.487,488.821C183.629,488.821 188.615,482.866 188.615,475.531L188.615,351.839Z"/>
    </g>
    <g transform="matrix(-0.0167469,-0.0625004,-0.0312911,0.00838442,20.9779,26.9169)">
        <path d="M188.615,360.774C188.615,348.508 183.629,338.549 177.487,338.549C171.346,338.549 166.36,348.508 166.36,360.774L166.36,466.595C166.36,478.862 171.346,488.821 177.487,488.821C183.629,488.821 188.615,478.862 188.615,466.595L188.615,360.774Z"/>
    </g>
    <g transform="matrix(0.0415692,0.024,-0.024,0.0415692,7.5658,-4.40087)">
        <path d="M205.159,36.088C208.613,32.383 213.398,30.202 218.46,30.025C223.522,29.849 228.447,31.691 232.151,35.147L250.97,52.705C252.221,53.872 253.768,54.675 255.443,55.027C257.118,55.378 258.858,55.265 260.473,54.698L284.762,46.185C289.542,44.509 294.792,44.802 299.357,46.998C303.921,49.195 307.426,53.115 309.099,57.896L317.603,82.188C318.168,83.803 319.165,85.233 320.485,86.323C321.805,87.412 323.398,88.12 325.091,88.37L350.554,92.119C355.565,92.857 360.078,95.556 363.099,99.622C366.12,103.688 367.402,108.787 366.662,113.799L362.902,139.26C362.652,140.953 362.87,142.682 363.532,144.261C364.195,145.839 365.276,147.206 366.66,148.213L387.464,163.367C391.558,166.349 394.3,170.836 395.085,175.84C395.87,180.844 394.635,185.955 391.651,190.049L376.49,210.846C375.482,212.229 374.871,213.862 374.724,215.567C374.577,217.272 374.899,218.985 375.656,220.52L387.035,243.606C389.275,248.149 389.617,253.397 387.987,258.193C386.357,262.988 382.888,266.94 378.343,269.178L355.253,280.548C353.718,281.304 352.418,282.465 351.496,283.907C350.573,285.348 350.063,287.015 350.019,288.726L349.366,314.455C349.238,319.519 347.103,324.324 343.431,327.813C339.758,331.302 334.85,333.189 329.786,333.059L304.057,332.396C302.346,332.352 300.656,332.776 299.169,333.624C297.682,334.472 296.456,335.71 295.622,337.205L283.087,359.684C280.62,364.108 276.496,367.37 271.623,368.753C266.75,370.136 261.528,369.526 257.105,367.057L234.631,354.513C233.136,353.679 231.442,353.27 229.732,353.329C228.021,353.389 226.36,353.915 224.927,354.851L203.381,368.93C199.141,371.701 193.973,372.673 189.016,371.633C184.058,370.593 179.717,367.626 176.948,363.384L162.878,341.833C161.942,340.4 160.633,339.25 159.09,338.508C157.548,337.766 155.832,337.46 154.128,337.623L128.508,340.076C123.466,340.559 118.438,339.019 114.532,335.794C110.626,332.569 108.161,327.924 107.68,322.881L105.237,297.26C105.075,295.556 104.449,293.929 103.428,292.556C102.408,291.182 101.03,290.113 99.446,289.466L75.62,279.732C70.931,277.816 67.195,274.116 65.235,269.445C63.275,264.774 63.251,259.516 65.169,254.827L74.912,231.005C75.56,229.421 75.763,227.69 75.497,225.999C75.232,224.309 74.509,222.723 73.407,221.413L56.834,201.722C53.572,197.846 51.984,192.833 52.419,187.787C52.854,182.74 55.276,178.073 59.153,174.813L78.851,158.248C80.161,157.146 81.145,155.707 81.696,154.087C82.246,152.466 82.343,150.726 81.976,149.054L76.452,123.916C75.365,118.969 76.289,113.792 79.019,109.526C81.75,105.259 86.063,102.253 91.011,101.168L116.151,95.654C117.823,95.287 119.363,94.47 120.604,93.292C121.844,92.113 122.739,90.617 123.191,88.966L129.982,64.14C131.318,59.255 134.541,55.1 138.942,52.591C143.342,50.082 148.559,49.425 153.445,50.763L178.268,57.564C179.918,58.017 181.661,58.009 183.308,57.542C184.954,57.074 186.441,56.166 187.609,54.914L205.159,36.088ZM216.616,66.202C217.413,65.356 218.511,64.859 219.673,64.818C220.835,64.778 221.965,65.197 222.819,65.986L243.579,85.169C244.981,86.465 246.709,87.357 248.578,87.749C250.447,88.141 252.387,88.019 254.192,87.396L280.912,78.175C282.01,77.795 283.214,77.865 284.262,78.369C285.309,78.873 286.115,79.77 286.504,80.866L295.971,107.499C296.611,109.298 297.726,110.891 299.199,112.106C300.672,113.322 302.446,114.116 304.334,114.403L332.279,118.655C333.428,118.83 334.461,119.452 335.154,120.384C335.848,121.317 336.144,122.486 335.98,123.637L331.986,151.619C331.716,153.51 331.964,155.438 332.702,157.199C333.441,158.96 334.644,160.487 336.182,161.619L358.95,178.37C359.886,179.059 360.512,180.09 360.692,181.238C360.873,182.386 360.592,183.559 359.912,184.501L343.371,207.422C342.254,208.971 341.577,210.793 341.413,212.696C341.249,214.599 341.604,216.51 342.44,218.227L354.815,243.64C355.323,244.685 355.399,245.889 355.025,246.989C354.651,248.089 353.858,248.998 352.817,249.516L327.519,262.125C325.81,262.976 324.364,264.276 323.335,265.884C322.305,267.493 321.731,269.35 321.674,271.259L320.821,299.512C320.786,300.674 320.293,301.775 319.451,302.575C318.608,303.376 317.484,303.811 316.322,303.787L288.062,303.194C286.153,303.154 284.268,303.633 282.609,304.579C280.95,305.524 279.579,306.902 278.641,308.566L264.756,333.186C264.185,334.199 263.237,334.945 262.119,335.262C261.001,335.579 259.803,335.442 258.785,334.881L234.038,321.223C232.366,320.3 230.475,319.848 228.567,319.915C226.658,319.981 224.803,320.564 223.2,321.601L199.464,336.949C198.488,337.58 197.302,337.8 196.164,337.561C195.027,337.323 194.03,336.645 193.39,335.674L177.824,312.081C176.772,310.487 175.308,309.207 173.587,308.379C171.866,307.551 169.953,307.206 168.052,307.378L139.902,309.937C138.744,310.043 137.592,309.687 136.696,308.947C135.799,308.207 135.232,307.143 135.116,305.986L132.297,277.861C132.107,275.961 131.405,274.148 130.266,272.615C129.127,271.082 127.594,269.887 125.83,269.156L99.715,258.34C98.641,257.896 97.786,257.045 97.337,255.973C96.887,254.901 96.878,253.695 97.313,252.618L107.888,226.404C108.603,224.633 108.824,222.702 108.528,220.815C108.231,218.929 107.429,217.158 106.207,215.691L88.11,193.978C87.366,193.085 87.004,191.934 87.104,190.776C87.204,189.618 87.757,188.547 88.643,187.794L110.188,169.498C111.644,168.262 112.737,166.654 113.352,164.846C113.966,163.038 114.079,161.097 113.678,159.23L107.745,131.594C107.501,130.458 107.715,129.271 108.342,128.292C108.968,127.313 109.956,126.621 111.09,126.367L138.671,120.179C140.534,119.761 142.249,118.845 143.633,117.53C145.018,116.215 146.02,114.549 146.532,112.709L154.122,85.481C154.434,84.361 155.175,83.41 156.185,82.835C157.195,82.259 158.391,82.105 159.513,82.407L186.81,89.745C188.654,90.241 190.598,90.228 192.435,89.706C194.272,89.185 195.934,88.175 197.243,86.785L216.616,66.202Z"/>
    </g>
    <g transform="matrix(-0.0560363,-0.0323526,-0.0266081,0.0460866,30.1961,5.99744)">
        <path d="M188.615,352.078C188.615,344.611 183.629,338.549 177.487,338.549C171.346,338.549 166.36,344.611 166.36,352.078L166.36,475.291C166.36,482.758 171.346,488.821 177.487,488.821C183.629,488.821 188.615,482.758 188.615,475.291L188.615,352.078Z"/>
    </g>
    <g transform="matrix(0.0625004,-0.0167469,0.00838442,0.0312911,-7.40141,10.5321)">
        <path d="M188.615,360.774C188.615,348.508 183.629,338.549 177.487,338.549C171.346,338.549 166.36,348.508 166.36,360.774L166.36,466.595C166.36,478.862 171.346,488.821 177.487,488.821C183.629,488.821 188.615,478.862 188.615,466.595L188.615,360.774Z"/>
    </g>
    <g transform="matrix(-0.0560363,0.0323526,0.0270873,0.0469165,17.6596,-8.31655)">
        <path d="M188.615,351.839C188.615,344.504 183.629,338.549 177.487,338.549C171.346,338.549 166.36,344.504 166.36,351.839L166.36,475.531C166.36,482.866 171.346,488.821 177.487,488.821C183.629,488.821 188.615,482.866 188.615,475.531L188.615,351.839Z"/>
    </g>
    <g transform="matrix(0.0167469,-0.0625004,0.0312911,0.00838442,3.02213,26.9169)">
        <path d="M188.615,360.774C188.615,348.508 183.629,338.549 177.487,338.549C171.346,338.549 166.36,348.508 166.36,360.774L166.36,466.595C166.36,478.862 171.346,488.821 177.487,488.821C183.629,488.821 188.615,478.862 188.615,466.595L188.615,360.774Z"/>
    </g>
    <g transform="matrix(0.0560363,-0.0323526,0.0266081,0.0460866,-6.19613,5.99744)">
        <path d="M188.615,352.078C188.615,344.611 183.629,338.549 177.487,338.549C171.346,338.549 166.36,344.611 166.36,352.078L166.36,475.291C166.36,482.758 171.346,488.821 177.487,488.821C183.629,488.821 188.615,482.758 188.615,475.291L188.615,352.078Z"/>
    </g>
    <g transform="matrix(-0.0625004,-0.0167469,-0.00838442,0.0312911,31.4014,10.5321)">
        <path d="M188.615,360.774C188.615,348.508 183.629,338.549 177.487,338.549C171.346,338.549 166.36,348.508 166.36,360.774L166.36,466.595C166.36,478.862 171.346,488.821 177.487,488.821C183.629,488.821 188.615,478.862 188.615,466.595L188.615,360.774Z"/>
    </g>
    <g transform="matrix(0.033187,-0.033187,0.0349831,0.0349831,-4.27069,12.0418)">
        <path d="M250,139.461C250,131.429 243.126,124.908 234.659,124.908C226.192,124.908 219.318,131.429 219.318,139.461L219.318,212.355C219.318,220.387 226.192,226.908 234.659,226.908C243.126,226.908 250,220.387 250,212.355L250,139.461Z"/>
    </g>
    <g transform="matrix(-0.033187,-0.033187,-0.0558112,0.0558112,30.9441,7.27556)">
        <path d="M250,134.03C250,128.995 243.126,124.908 234.659,124.908C226.192,124.908 219.318,128.995 219.318,134.03L219.318,217.786C219.318,222.82 226.192,226.908 234.659,226.908C243.126,226.908 250,222.82 250,217.786L250,134.03Z"/>
    </g>
</svg>
