<?xml version="1.0" encoding="UTF-8" standalone="no"?>
<!DOCTYPE svg PUBLIC "-//W3C//DTD SVG 1.1//EN" "http://www.w3.org/Graphics/SVG/1.1/DTD/svg11.dtd">
<svg width="100%" height="100%" viewBox="0 0 24 24" version="1.1" xmlns="http://www.w3.org/2000/svg" xmlns:xlink="http://www.w3.org/1999/xlink" xml:space="preserve" xmlns:serif="http://www.serif.com/" style="fill-rule:evenodd;clip-rule:evenodd;stroke-linejoin:round;stroke-miterlimit:2;">
    <g transform="matrix(0.048,0,0,0.048826,-1.36424e-15,-0.306532)">
        <path d="M474.814,171.811C474.814,163.672 468.093,157.064 459.814,157.064L79.815,157.064C71.536,157.064 64.815,163.672 64.815,171.811C64.815,179.949 71.536,186.557 79.815,186.557L459.814,186.557C468.093,186.557 474.814,179.949 474.814,171.811Z"/>
    </g>
    <g transform="matrix(0.048,0,0,0.048826,-1.90219,7.52886)">
        <path d="M474.814,171.811C474.814,163.672 468.093,157.064 459.814,157.064L79.815,157.064C71.536,157.064 64.815,163.672 64.815,171.811C64.815,179.949 71.536,186.557 79.815,186.557L459.814,186.557C468.093,186.557 474.814,179.949 474.814,171.811Z"/>
    </g>
    <g transform="matrix(0.0124233,-0.0463644,-0.0471623,-0.0126371,21.1696,26.7763)">
        <path d="M474.814,171.811C474.814,163.672 468.093,157.064 459.814,157.064L79.815,157.064C71.536,157.064 64.815,163.672 64.815,171.811C64.815,179.949 71.536,186.557 79.815,186.557L459.814,186.557C468.093,186.557 474.814,179.949 474.814,171.811Z"/>
    </g>
    <g transform="matrix(0.0124233,-0.0463644,-0.0471623,-0.0126371,12.2416,26.5857)">
        <path d="M474.814,171.811C474.814,163.672 468.093,157.064 459.814,157.064L79.815,157.064C71.536,157.064 64.815,163.672 64.815,171.811C64.815,179.949 71.536,186.557 79.815,186.557L459.814,186.557C468.093,186.557 474.814,179.949 474.814,171.811Z"/>
    </g>
</svg>
