<?xml version="1.0" encoding="UTF-8" standalone="no"?>
<!DOCTYPE svg PUBLIC "-//W3C//DTD SVG 1.1//EN" "http://www.w3.org/Graphics/SVG/1.1/DTD/svg11.dtd">
<svg width="100%" height="100%" viewBox="0 0 24 24" version="1.1" xmlns="http://www.w3.org/2000/svg" xmlns:xlink="http://www.w3.org/1999/xlink" xml:space="preserve" xmlns:serif="http://www.serif.com/" style="fill-rule:evenodd;clip-rule:evenodd;stroke-linejoin:round;stroke-miterlimit:2;">
    <g transform="matrix(0.0355851,0,0,0.048,2.72542,0.00669712)">
        <path d="M280.864,33.925C280.864,25.647 271.798,18.925 260.631,18.925C249.464,18.925 240.398,25.647 240.398,33.925L240.398,465.796C240.398,474.074 249.464,480.796 260.631,480.796C271.798,480.796 280.864,474.074 280.864,465.796L280.864,33.925Z"/>
    </g>
    <g transform="matrix(0.0251625,0.0251625,-0.010521,0.010521,6.11985,-5.63912)">
        <path d="M280.864,67.316C280.864,40.608 271.798,18.925 260.631,18.925C249.464,18.925 240.398,40.608 240.398,67.316L240.398,432.405C240.398,459.113 249.464,480.796 260.631,480.796C271.798,480.796 280.864,459.113 280.864,432.405L280.864,67.316Z"/>
    </g>
    <g transform="matrix(-0.0251625,0.0251625,-0.010521,-0.010521,23.0772,-0.381553)">
        <path d="M280.864,67.316C280.864,40.608 271.798,18.925 260.631,18.925C249.464,18.925 240.398,40.608 240.398,67.316L240.398,432.405C240.398,459.113 249.464,480.796 260.631,480.796C271.798,480.796 280.864,459.113 280.864,432.405L280.864,67.316Z"/>
    </g>
    <g transform="matrix(0.0251625,-0.0251625,-0.010521,-0.010521,6.11985,29.6314)">
        <path d="M280.864,67.316C280.864,40.608 271.798,18.925 260.631,18.925C249.464,18.925 240.398,40.608 240.398,67.316L240.398,432.405C240.398,459.113 249.464,480.796 260.631,480.796C271.798,480.796 280.864,459.113 280.864,432.405L280.864,67.316Z"/>
    </g>
    <g transform="matrix(-0.0251625,-0.0251625,-0.010521,0.010521,23.0772,24.3738)">
        <path d="M280.864,67.316C280.864,40.608 271.798,18.925 260.631,18.925C249.464,18.925 240.398,40.608 240.398,67.316L240.398,432.405C240.398,459.113 249.464,480.796 260.631,480.796C271.798,480.796 280.864,459.113 280.864,432.405L280.864,67.316Z"/>
    </g>
</svg>
