<?xml version="1.0" encoding="UTF-8" standalone="no"?>
<!DOCTYPE svg PUBLIC "-//W3C//DTD SVG 1.1//EN" "http://www.w3.org/Graphics/SVG/1.1/DTD/svg11.dtd">
<svg width="100%" height="100%" viewBox="0 0 24 24" version="1.1" xmlns="http://www.w3.org/2000/svg" xmlns:xlink="http://www.w3.org/1999/xlink" xml:space="preserve" xmlns:serif="http://www.serif.com/" style="fill-rule:evenodd;clip-rule:evenodd;stroke-linejoin:round;stroke-miterlimit:2;">
    <g transform="matrix(0.08,0,0,0.389333,8.0486,-23.6036)">
        <rect x="40.392" y="83.688" width="18" height="18"/>
    </g>
    <g transform="matrix(0.08,0,0,0.221333,16.1606,-6.52)">
        <rect x="40.392" y="83.688" width="18" height="18"/>
    </g>
    <g transform="matrix(0.08,0,0,0.221333,-0.0633984,-6.52)">
        <rect x="40.392" y="83.688" width="18" height="18"/>
    </g>
    <g transform="matrix(4.89859e-18,0.08,-0.981333,6.00893e-17,102.958,8.7716)">
        <rect x="40.392" y="83.688" width="18" height="18"/>
    </g>
    <g transform="matrix(0.048,0,0,0.048,-1.36424e-15,-0.0210041)">
        <path d="M335,87.5L165,87.5C156.721,87.5 150,94.221 150,102.5L150,192.375C150,200.654 156.721,207.375 165,207.375L335,207.375C343.279,207.375 350,200.654 350,192.375L350,102.5C350,94.221 343.279,87.5 335,87.5ZM180,117.5L180,177.375L320,177.375L320,117.5L180,117.5Z"/>
    </g>
    <g transform="matrix(0.048,0,0,0.048,-7.872,11.307)">
        <path d="M295,87.5L195,87.5C186.721,87.5 180,94.221 180,102.5L180,162.375C180,170.654 186.721,177.375 195,177.375L295,177.375C303.279,177.375 310,170.654 310,162.375L310,102.5C310,94.221 303.279,87.5 295,87.5ZM210,117.5L210,147.375L280,147.375L280,117.5L210,117.5Z"/>
    </g>
    <g transform="matrix(0.048,0,0,0.048,0.24,11.307)">
        <path d="M295,87.5L195,87.5C186.721,87.5 180,94.221 180,102.5L180,162.375C180,170.654 186.721,177.375 195,177.375L295,177.375C303.279,177.375 310,170.654 310,162.375L310,102.5C310,94.221 303.279,87.5 295,87.5ZM210,117.5L210,147.375L280,147.375L280,117.5L210,117.5Z"/>
    </g>
    <g transform="matrix(0.048,0,0,0.048,8.352,11.307)">
        <path d="M295,87.5L195,87.5C186.721,87.5 180,94.221 180,102.5L180,162.375C180,170.654 186.721,177.375 195,177.375L295,177.375C303.279,177.375 310,170.654 310,162.375L310,102.5C310,94.221 303.279,87.5 295,87.5ZM210,117.5L210,147.375L280,147.375L280,117.5L210,117.5Z"/>
    </g>
</svg>
