<?xml version="1.0" encoding="UTF-8" standalone="no"?>
<!DOCTYPE svg PUBLIC "-//W3C//DTD SVG 1.1//EN" "http://www.w3.org/Graphics/SVG/1.1/DTD/svg11.dtd">
<svg width="100%" height="100%" viewBox="0 0 24 24" version="1.1" xmlns="http://www.w3.org/2000/svg" xmlns:xlink="http://www.w3.org/1999/xlink" xml:space="preserve" xmlns:serif="http://www.serif.com/" style="fill-rule:evenodd;clip-rule:evenodd;stroke-linejoin:round;stroke-miterlimit:2;">
    <g transform="matrix(2.93915e-18,0.048,-0.048,2.93915e-18,24.0523,7.9974)">
        <path d="M84.478,28.724C114.833,28.724 139.478,53.369 139.478,83.724C139.478,114.079 114.833,138.724 84.478,138.724C54.123,138.724 29.478,114.079 29.478,83.724C29.478,53.369 54.123,28.724 84.478,28.724ZM84.478,58.724C98.276,58.724 109.478,69.926 109.478,83.724C109.478,97.522 98.276,108.724 84.478,108.724C70.68,108.724 59.478,97.522 59.478,83.724C59.478,69.926 70.68,58.724 84.478,58.724Z"/>
    </g>
    <g transform="matrix(2.93915e-18,0.048,-0.048,2.93915e-18,16.0187,7.9974)">
        <path d="M84.478,28.724C114.833,28.724 139.478,53.369 139.478,83.724C139.478,114.079 114.833,138.724 84.478,138.724C54.123,138.724 29.478,114.079 29.478,83.724C29.478,53.369 54.123,28.724 84.478,28.724ZM84.478,58.724C98.276,58.724 109.478,69.926 109.478,83.724C109.478,97.522 98.276,108.724 84.478,108.724C70.68,108.724 59.478,97.522 59.478,83.724C59.478,69.926 70.68,58.724 84.478,58.724Z"/>
    </g>
    <g transform="matrix(2.93915e-18,0.048,-0.048,2.93915e-18,7.98515,7.9974)">
        <path d="M84.478,28.724C114.833,28.724 139.478,53.369 139.478,83.724C139.478,114.079 114.833,138.724 84.478,138.724C54.123,138.724 29.478,114.079 29.478,83.724C29.478,53.369 54.123,28.724 84.478,28.724ZM84.478,58.724C98.276,58.724 109.478,69.926 109.478,83.724C109.478,97.522 98.276,108.724 84.478,108.724C70.68,108.724 59.478,97.522 59.478,83.724C59.478,69.926 70.68,58.724 84.478,58.724Z"/>
    </g>
</svg>
