<?xml version="1.0" encoding="UTF-8" standalone="no"?>
<!DOCTYPE svg PUBLIC "-//W3C//DTD SVG 1.1//EN" "http://www.w3.org/Graphics/SVG/1.1/DTD/svg11.dtd">
<svg width="100%" height="100%" viewBox="0 0 500 500" version="1.1" xmlns="http://www.w3.org/2000/svg" xmlns:xlink="http://www.w3.org/1999/xlink" xml:space="preserve" xmlns:serif="http://www.serif.com/" style="fill-rule:evenodd;clip-rule:evenodd;stroke-linejoin:round;stroke-miterlimit:2;">
    <path d="M459.926,52.015C459.926,45.424 454.576,40.074 447.985,40.074L52.015,40.074C45.424,40.074 40.074,45.424 40.074,52.015L40.074,447.985C40.074,454.576 45.424,459.926 52.015,459.926L447.985,459.926C454.576,459.926 459.926,454.576 459.926,447.985L459.926,52.015ZM439.926,60.074L60.074,60.074L60.074,439.926L439.926,439.926L439.926,60.074Z"/>
    <path d="M302.614,302.614L396.013,302.614C401.821,302.614 406.536,297.899 406.536,292.092L406.536,207.908C406.536,202.101 401.821,197.386 396.013,197.386L302.614,197.386L302.614,103.987C302.614,98.179 297.899,93.464 292.092,93.464L207.908,93.464C202.101,93.464 197.386,98.179 197.386,103.987L197.386,197.386L103.987,197.386C98.179,197.386 93.464,202.101 93.464,207.908L93.464,292.092C93.464,297.899 98.179,302.614 103.987,302.614L197.386,302.614L197.386,396.013C197.386,401.821 202.101,406.536 207.908,406.536L292.092,406.536C297.899,406.536 302.614,401.821 302.614,396.013L302.614,302.614ZM282.614,113.464L217.386,113.464L217.386,217.386L113.464,217.386L113.464,282.614L217.386,282.614L217.386,386.536L282.614,386.536L282.614,282.614L386.536,282.614L386.536,217.386L282.614,217.386L282.614,113.464Z"/>
</svg>
