<?xml version="1.0" encoding="UTF-8" standalone="no"?>
<!DOCTYPE svg PUBLIC "-//W3C//DTD SVG 1.1//EN" "http://www.w3.org/Graphics/SVG/1.1/DTD/svg11.dtd">
<svg width="100%" height="100%" viewBox="0 0 24 24" version="1.1" xmlns="http://www.w3.org/2000/svg" xmlns:xlink="http://www.w3.org/1999/xlink" xml:space="preserve" xmlns:serif="http://www.serif.com/" style="fill-rule:evenodd;clip-rule:evenodd;stroke-linejoin:round;stroke-miterlimit:2;">
    <g transform="matrix(0.0558638,0,0,0.242262,9.17266,-17.7562)">
        <rect x="37.723" y="121.365" width="25.777" height="25.777"/>
    </g>
    <g transform="matrix(0.048,0,0,0.048,0,1.36424e-15)">
        <path d="M214.473,229.587C214.473,229.587 233.611,238.623 250,238.623C266.389,238.623 285.807,229.587 285.807,229.587L265,251.956L235,251.956L214.473,229.587Z"/>
    </g>
    <g transform="matrix(0.048,0,0,-0.048,0,24.1878)">
        <path d="M214.473,229.587C214.473,229.587 233.611,238.623 250,238.623C266.389,238.623 285.807,229.587 285.807,229.587L265,251.956L235,251.956L214.473,229.587Z"/>
    </g>
    <g transform="matrix(3.42067e-18,0.0558638,-0.502146,3.07476e-17,79.4148,3.75547)">
        <rect x="37.723" y="121.365" width="25.777" height="25.777"/>
    </g>
    <g transform="matrix(0.048,0,0,0.048,0.4032,1.36424e-15)">
        <path d="M212.6,271.672C177.425,284.136 133.429,318.689 133.429,346.446L133.429,461.996L103.429,461.996L103.429,346.118C103.429,311.112 141.906,272.592 182.491,251.956C141.906,231.32 103.429,192.8 103.429,157.794L103.429,41.917L133.429,41.917L133.429,157.466C133.429,185.223 177.425,219.777 212.6,232.241C212.6,232.241 226.6,235.384 226.6,251.956C226.6,268.528 212.6,271.672 212.6,271.672Z"/>
    </g>
    <g transform="matrix(0.048,0,0,0.048,0,1.36424e-15)">
        <path d="M110.217,461.996C130.532,404.387 185.477,363.056 250,363.056C314.523,363.056 369.468,404.387 389.783,461.996L357.444,461.996C338.762,421.328 297.657,393.056 250,393.056C202.343,393.056 161.238,421.328 142.556,461.996L110.217,461.996Z"/>
    </g>
    <g transform="matrix(0.0485942,0,0,0.0421512,-0.148541,0.303649)">
        <path d="M411.571,34.835C411.571,25.408 404.932,17.754 396.755,17.754L103.245,17.754C95.068,17.754 88.429,25.408 88.429,34.835C88.429,44.263 95.068,51.917 103.245,51.917L396.755,51.917C404.932,51.917 411.571,44.263 411.571,34.835Z"/>
    </g>
    <g transform="matrix(0.0485942,0,0,0.0421512,-0.148541,20.9474)">
        <path d="M411.571,34.835C411.571,25.408 404.932,17.754 396.755,17.754L103.245,17.754C95.068,17.754 88.429,25.408 88.429,34.835C88.429,44.263 95.068,51.917 103.245,51.917L396.755,51.917C404.932,51.917 411.571,44.263 411.571,34.835Z"/>
    </g>
    <g transform="matrix(-0.048,0,0,0.048,23.5968,1.36424e-15)">
        <path d="M212.6,271.672C177.425,284.136 133.429,318.689 133.429,346.446L133.429,461.996L103.429,461.996L103.429,346.118C103.429,311.112 141.906,272.592 182.491,251.956C141.906,231.32 103.429,192.8 103.429,157.794L103.429,41.917L133.429,41.917L133.429,157.466C133.429,185.223 177.425,219.777 212.6,232.241C212.6,232.241 226.6,235.384 226.6,251.956C226.6,268.528 212.6,271.672 212.6,271.672Z"/>
    </g>
</svg>
