<?xml version="1.0" encoding="UTF-8" standalone="no"?>
<!DOCTYPE svg PUBLIC "-//W3C//DTD SVG 1.1//EN" "http://www.w3.org/Graphics/SVG/1.1/DTD/svg11.dtd">
<svg width="100%" height="100%" viewBox="0 0 24 24" version="1.1" xmlns="http://www.w3.org/2000/svg" xmlns:xlink="http://www.w3.org/1999/xlink" xml:space="preserve" xmlns:serif="http://www.serif.com/" style="fill-rule:evenodd;clip-rule:evenodd;stroke-linejoin:round;stroke-miterlimit:2;">
    <g transform="matrix(-0.059785,0.0217599,0.0209008,0.0574244,26.7844,-6.639)">
        <path d="M194.444,87.445L171.811,96.022L171.811,302.469L178.723,322.241L194.444,302.469L194.444,87.445Z"/>
    </g>
    <g transform="matrix(0.059785,0.0217599,-0.0209008,0.0574244,-2.6626,-6.639)">
        <path d="M194.444,87.445L171.811,96.022L171.811,302.469L178.723,322.241L194.444,302.469L194.444,87.445Z"/>
    </g>
    <g transform="matrix(1.1422e-17,0.0636218,0.0603962,-1.93452e-17,0.022317,-8.31731)">
        <rect x="171.811" y="96.022" width="22.634" height="206.447"/>
    </g>
    <g transform="matrix(0.048,0,0,0.048,0,0)">
        <path d="M308.983,304.406L308.983,334.406L445.72,334.406L445.72,405.55L56.818,405.55L56.818,334.406L191.649,334.406L191.649,304.406L26.818,304.406L26.818,435.55L475.72,435.55L475.72,304.406L308.983,304.406Z"/>
    </g>
    <g transform="matrix(0.048,0,0,0.048,0,0)">
        <path d="M323.497,304.406C324.482,309.252 325,314.269 325,319.406C325,360.8 291.394,394.406 250,394.406C208.606,394.406 175,360.8 175,319.406C175,314.269 175.518,309.252 176.503,304.406L207.565,304.406C205.904,309.1 205,314.148 205,319.406C205,344.242 225.164,364.406 250,364.406C274.836,364.406 295,344.242 295,319.406C295,314.148 294.096,309.1 292.435,304.406L323.497,304.406Z"/>
    </g>
</svg>
