<?xml version="1.0" encoding="UTF-8" standalone="no"?>
<!DOCTYPE svg PUBLIC "-//W3C//DTD SVG 1.1//EN" "http://www.w3.org/Graphics/SVG/1.1/DTD/svg11.dtd">
<svg width="100%" height="100%" viewBox="0 0 24 24" version="1.1" xmlns="http://www.w3.org/2000/svg" xmlns:xlink="http://www.w3.org/1999/xlink" xml:space="preserve" xmlns:serif="http://www.serif.com/" style="fill-rule:evenodd;clip-rule:evenodd;stroke-linejoin:round;stroke-miterlimit:2;">
    <g transform="matrix(0.048,0,0,0.048,-0.00740741,-0.138078)">
        <path d="M250.154,23.508C284.649,23.508 312.654,51.514 312.654,86.008C312.654,120.503 284.649,148.508 250.154,148.508C215.66,148.508 187.654,120.503 187.654,86.008C187.654,51.514 215.66,23.508 250.154,23.508ZM250.154,53.508C268.092,53.508 282.654,68.071 282.654,86.008C282.654,103.946 268.092,118.508 250.154,118.508C232.217,118.508 217.654,103.946 217.654,86.008C217.654,68.071 232.217,53.508 250.154,53.508Z"/>
    </g>
    <g transform="matrix(0.048,0,0,0.048,-0.00740741,0.19114)">
        <path d="M300,211.669C300,184.073 277.596,161.669 250,161.669C222.404,161.669 200,184.073 200,211.669L200,425.386C200,452.982 222.404,475.386 250,475.386C277.596,475.386 300,452.982 300,425.386L300,211.669ZM270,211.669C270,200.631 261.038,191.669 250,191.669C238.962,191.669 230,200.631 230,211.669L230,425.386C230,436.425 238.962,445.386 250,445.386C261.038,445.386 270,436.425 270,425.386L270,211.669Z"/>
    </g>
</svg>
