<?xml version="1.0" encoding="UTF-8" standalone="no"?>
<!DOCTYPE svg PUBLIC "-//W3C//DTD SVG 1.1//EN" "http://www.w3.org/Graphics/SVG/1.1/DTD/svg11.dtd">
<svg width="100%" height="100%" viewBox="0 0 24 24" version="1.1" xmlns="http://www.w3.org/2000/svg" xmlns:xlink="http://www.w3.org/1999/xlink" xml:space="preserve" xmlns:serif="http://www.serif.com/" style="fill-rule:evenodd;clip-rule:evenodd;stroke-linejoin:round;stroke-miterlimit:2;">
    <g transform="matrix(0.048,0,0,0.048,0,0)">
        <path d="M249.553,29.553C370.974,29.553 469.553,128.131 469.553,249.553C469.553,370.974 370.974,469.553 249.553,469.553C128.131,469.553 29.553,370.974 29.553,249.553C29.553,128.131 128.131,29.553 249.553,29.553ZM249.553,59.553C354.417,59.553 439.553,144.689 439.553,249.553C439.553,354.417 354.417,439.553 249.553,439.553C144.689,439.553 59.553,354.417 59.553,249.553C59.553,144.689 144.689,59.553 249.553,59.553Z"/>
    </g>
    <g transform="matrix(0.0477164,0,0,0.048,0.131255,0.175889)">
        <rect x="233.196" y="41.845" width="30.178" height="408.086"/>
    </g>
    <g transform="matrix(2.92178e-18,0.0477164,-0.048,2.93915e-18,23.7812,0.131255)">
        <rect x="233.196" y="41.845" width="30.178" height="408.086"/>
    </g>
    <g transform="matrix(2.92178e-18,0.0477164,-0.0431401,2.64157e-18,22.5862,-4.87777)">
        <rect x="233.196" y="41.845" width="30.178" height="408.086"/>
    </g>
    <g transform="matrix(2.92178e-18,0.0477164,-0.0431401,2.64157e-18,22.5862,5.18322)">
        <rect x="233.196" y="41.845" width="30.178" height="408.086"/>
    </g>
    <g transform="matrix(0.048,0,0,0.048,0,0)">
        <path d="M289.741,50.148C282.535,39.316 315.693,35.409 327.693,58.514C353.698,108.582 369.645,176.055 369.645,250.237C369.645,324.419 353.698,391.892 327.693,441.961C316.816,462.904 281.817,462.239 289.741,450.327C320.024,404.805 339.645,332.097 339.645,250.237C339.645,168.377 320.024,95.669 289.741,50.148Z"/>
    </g>
    <g transform="matrix(-0.048,0,0,0.048,23.9925,0)">
        <path d="M289.741,50.148C282.535,39.316 315.693,35.409 327.693,58.514C353.698,108.582 369.645,176.055 369.645,250.237C369.645,324.419 353.698,391.892 327.693,441.961C316.816,462.904 281.817,462.239 289.741,450.327C320.024,404.805 339.645,332.097 339.645,250.237C339.645,168.377 320.024,95.669 289.741,50.148Z"/>
    </g>
</svg>
