<?xml version="1.0" encoding="UTF-8" standalone="no"?>
<!DOCTYPE svg PUBLIC "-//W3C//DTD SVG 1.1//EN" "http://www.w3.org/Graphics/SVG/1.1/DTD/svg11.dtd">
<svg width="100%" height="100%" viewBox="0 0 24 24" version="1.1" xmlns="http://www.w3.org/2000/svg" xmlns:xlink="http://www.w3.org/1999/xlink" xml:space="preserve" xmlns:serif="http://www.serif.com/" style="fill-rule:evenodd;clip-rule:evenodd;stroke-linejoin:round;stroke-miterlimit:2;">
    <g transform="matrix(0.0439795,0.0253916,-0.0214925,0.0372262,8.11759,-3.62079)">
        <path d="M428.476,208.02C428.476,198.776 422.123,191.27 414.298,191.27L164.154,191.27C156.329,191.27 149.976,198.776 149.976,208.02C149.976,217.265 156.329,224.77 164.154,224.77L414.298,224.77C422.123,224.77 428.476,217.265 428.476,208.02Z"/>
    </g>
    <g transform="matrix(0.0329285,0.0190113,-0.0214925,0.0372262,13.3284,1.73396)">
        <path d="M428.476,208.02C428.476,198.776 419.991,191.27 409.54,191.27L168.912,191.27C158.461,191.27 149.976,198.776 149.976,208.02C149.976,217.265 158.461,224.77 168.912,224.77L409.54,224.77C419.991,224.77 428.476,217.265 428.476,208.02Z"/>
    </g>
    <g transform="matrix(0.0218077,0.0125907,-0.0214925,0.0372262,8.44284,3.49519)">
        <path d="M428.476,208.02C428.476,198.776 415.664,191.27 399.883,191.27L178.569,191.27C162.788,191.27 149.976,198.776 149.976,208.02C149.976,217.265 162.788,224.77 178.569,224.77L399.883,224.77C415.664,224.77 428.476,217.265 428.476,208.02Z"/>
    </g>
    <g transform="matrix(0.0111928,-0.00299909,0.0111254,0.0415204,8.30798,8.4483)">
        <path d="M428.476,208.02C428.476,198.776 400.634,191.27 366.341,191.27L212.111,191.27C177.818,191.27 149.976,198.776 149.976,208.02C149.976,217.265 177.818,224.77 212.111,224.77L366.341,224.77C400.634,224.77 428.476,217.265 428.476,208.02Z"/>
    </g>
    <g transform="matrix(-0.00313315,-0.0116931,-0.0415204,0.0111254,24.5486,18.006)">
        <path d="M428.476,208.02C428.476,198.776 401.825,191.27 368.999,191.27L209.453,191.27C176.627,191.27 149.976,198.776 149.976,208.02C149.976,217.265 176.627,224.77 209.453,224.77L368.999,224.77C401.825,224.77 428.476,217.265 428.476,208.02Z"/>
    </g>
    <g transform="matrix(0.0116931,-0.00313315,0.0111254,0.0415204,10.4913,9.89003)">
        <path d="M428.476,208.02C428.476,198.776 401.825,191.27 368.999,191.27L209.453,191.27C176.627,191.27 149.976,198.776 149.976,208.02C149.976,217.265 176.627,224.77 209.453,224.77L368.999,224.77C401.825,224.77 428.476,217.265 428.476,208.02Z"/>
    </g>
    <g transform="matrix(-0.00299909,-0.0111928,-0.0415204,0.0111254,26.8888,19.1759)">
        <path d="M428.476,208.02C428.476,198.776 400.634,191.27 366.341,191.27L212.111,191.27C177.818,191.27 149.976,198.776 149.976,208.02C149.976,217.265 177.818,224.77 212.111,224.77L366.341,224.77C400.634,224.77 428.476,217.265 428.476,208.02Z"/>
    </g>
    <g transform="matrix(-0.00453465,-0.0169235,-0.0415204,0.0111254,32.27,18.8894)">
        <path d="M428.476,208.02C428.476,198.776 410.062,191.27 387.381,191.27L191.071,191.27C168.39,191.27 149.976,198.776 149.976,208.02C149.976,217.265 168.39,224.77 191.071,224.77L387.381,224.77C410.062,224.77 428.476,217.265 428.476,208.02Z"/>
    </g>
    <g transform="matrix(-0.0169235,0.00453465,-0.0111254,-0.0415204,27.7464,26.7246)">
        <path d="M428.476,208.02C428.476,198.776 410.062,191.27 387.381,191.27L191.071,191.27C168.39,191.27 149.976,198.776 149.976,208.02C149.976,217.265 168.39,224.77 191.071,224.77L387.381,224.77C410.062,224.77 428.476,217.265 428.476,208.02Z"/>
    </g>
    <g transform="matrix(0.00891559,0.00514742,-0.0214925,0.0372262,20.1416,10.2495)">
        <path d="M428.476,208.02C428.476,198.776 397.138,191.27 358.538,191.27L219.914,191.27C181.314,191.27 149.976,198.776 149.976,208.02C149.976,217.265 181.314,224.77 219.914,224.77L358.538,224.77C397.138,224.77 428.476,217.265 428.476,208.02Z"/>
    </g>
    <g transform="matrix(-0.00439338,0.00760955,-0.0372262,-0.0214925,31.4899,20.7443)">
        <path d="M428.476,208.02C428.476,198.776 391.759,191.27 346.535,191.27L231.917,191.27C186.693,191.27 149.976,198.776 149.976,208.02C149.976,217.265 186.693,224.77 231.917,224.77L346.535,224.77C391.759,224.77 428.476,217.265 428.476,208.02Z"/>
    </g>
    <g transform="matrix(0.0415692,0.024,-0.024,0.0415692,7.29254,-5.39872)">
        <path d="M126.809,157.103C190.279,157.103 241.809,208.633 241.809,272.103C241.809,335.573 190.279,387.103 126.809,387.103C63.339,387.103 11.809,335.573 11.809,272.103C11.809,208.633 63.339,157.103 126.809,157.103ZM126.809,187.103C173.722,187.103 211.809,225.19 211.809,272.103C211.809,319.016 173.722,357.103 126.809,357.103C79.896,357.103 41.809,319.016 41.809,272.103C41.809,225.19 79.896,187.103 126.809,187.103Z"/>
    </g>
    <g transform="matrix(0.0375218,0.0216632,-0.0216632,0.0375218,6.95511,-4.31148)">
        <circle cx="90.371" cy="275.828" r="28.753"/>
    </g>
</svg>
