<?xml version="1.0" encoding="UTF-8" standalone="no"?>
<!DOCTYPE svg PUBLIC "-//W3C//DTD SVG 1.1//EN" "http://www.w3.org/Graphics/SVG/1.1/DTD/svg11.dtd">
<svg width="100%" height="100%" viewBox="0 0 24 24" version="1.1" xmlns="http://www.w3.org/2000/svg" xmlns:xlink="http://www.w3.org/1999/xlink" xml:space="preserve" xmlns:serif="http://www.serif.com/" style="fill-rule:evenodd;clip-rule:evenodd;stroke-linejoin:round;stroke-miterlimit:2;">
    <g transform="matrix(0.048,0,0,0.048,-0.48,-0.48)">
        <path d="M166.776,69.082C166.776,57.883 157.684,48.79 146.484,48.79L69.567,48.79C58.368,48.79 49.276,57.883 49.276,69.082L49.276,119.499C49.276,130.698 58.368,139.79 69.567,139.79L146.484,139.79C157.684,139.79 166.776,130.698 166.776,119.499L166.776,69.082ZM136.776,80.577C136.776,79.591 135.975,78.79 134.989,78.79L81.063,78.79C80.076,78.79 79.276,79.591 79.276,80.577L79.276,108.004C79.276,108.99 80.076,109.79 81.063,109.79L134.989,109.79C135.975,109.79 136.776,108.99 136.776,108.004L136.776,80.577Z"/>
    </g>
    <g transform="matrix(0.048,0,0,0.048,14.1095,-0.48)">
        <path d="M166.776,69.082C166.776,57.883 157.684,48.79 146.484,48.79L69.567,48.79C58.368,48.79 49.276,57.883 49.276,69.082L49.276,119.499C49.276,130.698 58.368,139.79 69.567,139.79L146.484,139.79C157.684,139.79 166.776,130.698 166.776,119.499L166.776,69.082ZM136.776,80.577C136.776,79.591 135.975,78.79 134.989,78.79L81.063,78.79C80.076,78.79 79.276,79.591 79.276,80.577L79.276,108.004C79.276,108.99 80.076,109.79 81.063,109.79L134.989,109.79C135.975,109.79 136.776,108.99 136.776,108.004L136.776,80.577Z"/>
    </g>
    <g transform="matrix(0.048,0,0,0.048,6.81476,-0.48)">
        <path d="M166.776,69.082C166.776,57.883 157.684,48.79 146.484,48.79L69.567,48.79C58.368,48.79 49.276,57.883 49.276,69.082L49.276,119.499C49.276,130.698 58.368,139.79 69.567,139.79L146.484,139.79C157.684,139.79 166.776,130.698 166.776,119.499L166.776,69.082ZM136.776,80.577C136.776,79.591 135.975,78.79 134.989,78.79L81.063,78.79C80.076,78.79 79.276,79.591 79.276,80.577L79.276,108.004C79.276,108.99 80.076,109.79 81.063,109.79L134.989,109.79C135.975,109.79 136.776,108.99 136.776,108.004L136.776,80.577Z"/>
    </g>
    <g transform="matrix(0.048,0,0,0.048,-0.48,5.05006)">
        <path d="M166.776,69.082C166.776,57.883 157.684,48.79 146.484,48.79L69.567,48.79C58.368,48.79 49.276,57.883 49.276,69.082L49.276,119.499C49.276,130.698 58.368,139.79 69.567,139.79L146.484,139.79C157.684,139.79 166.776,130.698 166.776,119.499L166.776,69.082ZM136.776,80.577C136.776,79.591 135.975,78.79 134.989,78.79L81.063,78.79C80.076,78.79 79.276,79.591 79.276,80.577L79.276,108.004C79.276,108.99 80.076,109.79 81.063,109.79L134.989,109.79C135.975,109.79 136.776,108.99 136.776,108.004L136.776,80.577Z"/>
    </g>
    <g transform="matrix(0.048,0,0,0.048,14.1095,5.05006)">
        <path d="M166.776,69.082C166.776,57.883 157.684,48.79 146.484,48.79L69.567,48.79C58.368,48.79 49.276,57.883 49.276,69.082L49.276,119.499C49.276,130.698 58.368,139.79 69.567,139.79L146.484,139.79C157.684,139.79 166.776,130.698 166.776,119.499L166.776,69.082ZM136.776,80.577C136.776,79.591 135.975,78.79 134.989,78.79L81.063,78.79C80.076,78.79 79.276,79.591 79.276,80.577L79.276,108.004C79.276,108.99 80.076,109.79 81.063,109.79L134.989,109.79C135.975,109.79 136.776,108.99 136.776,108.004L136.776,80.577Z"/>
    </g>
    <g transform="matrix(0.048,0,0,0.048,6.81476,5.04)">
        <path d="M166.776,69.082C166.776,57.883 157.684,48.79 146.484,48.79L69.567,48.79C58.368,48.79 49.276,57.883 49.276,69.082L49.276,119.499C49.276,130.698 58.368,139.79 69.567,139.79L146.484,139.79C157.684,139.79 166.776,130.698 166.776,119.499L166.776,69.082ZM136.776,80.577C136.776,79.591 135.975,78.79 134.989,78.79L81.063,78.79C80.076,78.79 79.276,79.591 79.276,80.577L79.276,108.004C79.276,108.99 80.076,109.79 81.063,109.79L134.989,109.79C135.975,109.79 136.776,108.99 136.776,108.004L136.776,80.577Z"/>
    </g>
    <g transform="matrix(0.048,0,0,0.048,-0.48,10.56)">
        <path d="M166.776,69.082C166.776,57.883 157.684,48.79 146.484,48.79L69.567,48.79C58.368,48.79 49.276,57.883 49.276,69.082L49.276,119.499C49.276,130.698 58.368,139.79 69.567,139.79L146.484,139.79C157.684,139.79 166.776,130.698 166.776,119.499L166.776,69.082ZM136.776,80.577C136.776,79.591 135.975,78.79 134.989,78.79L81.063,78.79C80.076,78.79 79.276,79.591 79.276,80.577L79.276,108.004C79.276,108.99 80.076,109.79 81.063,109.79L134.989,109.79C135.975,109.79 136.776,108.99 136.776,108.004L136.776,80.577Z"/>
    </g>
    <g transform="matrix(0.048,0,0,0.048,14.1095,10.56)">
        <path d="M166.776,69.082C166.776,57.883 157.684,48.79 146.484,48.79L69.567,48.79C58.368,48.79 49.276,57.883 49.276,69.082L49.276,119.499C49.276,130.698 58.368,139.79 69.567,139.79L146.484,139.79C157.684,139.79 166.776,130.698 166.776,119.499L166.776,69.082ZM136.776,80.577C136.776,79.591 135.975,78.79 134.989,78.79L81.063,78.79C80.076,78.79 79.276,79.591 79.276,80.577L79.276,108.004C79.276,108.99 80.076,109.79 81.063,109.79L134.989,109.79C135.975,109.79 136.776,108.99 136.776,108.004L136.776,80.577Z"/>
    </g>
    <g transform="matrix(0.048,0,0,0.048,6.81476,10.56)">
        <path d="M166.776,69.082C166.776,57.883 157.684,48.79 146.484,48.79L69.567,48.79C58.368,48.79 49.276,57.883 49.276,69.082L49.276,119.499C49.276,130.698 58.368,139.79 69.567,139.79L146.484,139.79C157.684,139.79 166.776,130.698 166.776,119.499L166.776,69.082ZM136.776,80.577C136.776,79.591 135.975,78.79 134.989,78.79L81.063,78.79C80.076,78.79 79.276,79.591 79.276,80.577L79.276,108.004C79.276,108.99 80.076,109.79 81.063,109.79L134.989,109.79C135.975,109.79 136.776,108.99 136.776,108.004L136.776,80.577Z"/>
    </g>
    <g transform="matrix(0.048,0,0,0.048,6.81476,16.08)">
        <path d="M166.776,69.082C166.776,57.883 157.684,48.79 146.484,48.79L69.567,48.79C58.368,48.79 49.276,57.883 49.276,69.082L49.276,119.499C49.276,130.698 58.368,139.79 69.567,139.79L146.484,139.79C157.684,139.79 166.776,130.698 166.776,119.499L166.776,69.082ZM136.776,80.577C136.776,79.591 135.975,78.79 134.989,78.79L81.063,78.79C80.076,78.79 79.276,79.591 79.276,80.577L79.276,108.004C79.276,108.99 80.076,109.79 81.063,109.79L134.989,109.79C135.975,109.79 136.776,108.99 136.776,108.004L136.776,80.577Z"/>
    </g>
</svg>
