<?xml version="1.0" encoding="UTF-8" standalone="no"?>
<!DOCTYPE svg PUBLIC "-//W3C//DTD SVG 1.1//EN" "http://www.w3.org/Graphics/SVG/1.1/DTD/svg11.dtd">
<svg width="100%" height="100%" viewBox="0 0 24 24" version="1.1" xmlns="http://www.w3.org/2000/svg" xmlns:xlink="http://www.w3.org/1999/xlink" xml:space="preserve" xmlns:serif="http://www.serif.com/" style="fill-rule:evenodd;clip-rule:evenodd;stroke-linejoin:round;stroke-miterlimit:2;">
    <g transform="matrix(0.048,0,0,0.048,0,0)">
        <path d="M472.255,334.407L442.255,334.407L442.255,348.289C442.255,355.441 436.448,361.248 429.296,361.248L70.704,361.248C63.552,361.248 57.745,355.441 57.745,348.289L57.745,334.407L27.745,334.407L27.745,355.936C27.745,375.425 43.568,391.248 63.057,391.248L436.943,391.248C456.432,391.248 472.255,375.425 472.255,355.936L472.255,334.407Z"/>
    </g>
    <g transform="matrix(0.511875,0,0,0.0345464,-12.8702,6.31092)">
        <rect x="27.745" y="250" width="41.683" height="41.683"/>
    </g>
    <g transform="matrix(0.0373478,0,0,0.0517137,0.685776,-1.26787)">
        <path d="M102.936,122.675C102.936,114.991 94.297,108.752 83.657,108.752C73.017,108.752 64.379,114.991 64.379,122.675L64.379,327.484C64.379,335.168 73.017,341.407 83.657,341.407C94.297,341.407 102.936,335.168 102.936,327.484L102.936,122.675Z"/>
    </g>
    <g transform="matrix(0.0373478,0,0,0.0517137,17.0654,-1.26787)">
        <path d="M102.936,122.675C102.936,114.991 94.297,108.752 83.657,108.752C73.017,108.752 64.379,114.991 64.379,122.675L64.379,327.484C64.379,335.168 73.017,341.407 83.657,341.407C94.297,341.407 102.936,335.168 102.936,327.484L102.936,122.675Z"/>
    </g>
    <g transform="matrix(2.2869e-18,0.0373478,-0.0765926,4.68994e-18,29.2394,1.95169)">
        <path d="M102.936,118.153C102.936,112.965 94.297,108.752 83.657,108.752C73.017,108.752 64.379,112.965 64.379,118.153L64.379,332.006C64.379,337.195 73.017,341.407 83.657,341.407C94.297,341.407 102.936,337.195 102.936,332.006L102.936,118.153Z"/>
    </g>
</svg>
