<?xml version="1.0" encoding="UTF-8" standalone="no"?>
<!DOCTYPE svg PUBLIC "-//W3C//DTD SVG 1.1//EN" "http://www.w3.org/Graphics/SVG/1.1/DTD/svg11.dtd">
<svg width="100%" height="100%" viewBox="0 0 24 24" version="1.1" xmlns="http://www.w3.org/2000/svg" xmlns:xlink="http://www.w3.org/1999/xlink" xml:space="preserve" xmlns:serif="http://www.serif.com/" style="fill-rule:evenodd;clip-rule:evenodd;stroke-linejoin:round;stroke-miterlimit:2;">
    <g transform="matrix(0.0416939,-0.0111719,0.0127006,0.0473994,-2.93135,-0.603007)">
        <path d="M322.016,172.423C322.016,164.325 314.542,157.75 305.336,157.75L61.605,157.75C52.399,157.75 44.925,164.325 44.925,172.423C44.925,180.521 52.399,187.095 61.605,187.095L305.336,187.095C314.542,187.095 322.016,180.521 322.016,172.423Z"/>
    </g>
    <g transform="matrix(0.0416461,0.0132374,0.0148648,-0.0467659,-3.29305,14.161)">
        <path d="M322.016,172.423C322.016,164.325 314.634,157.75 305.54,157.75L61.401,157.75C52.307,157.75 44.925,164.325 44.925,172.423C44.925,180.521 52.307,187.095 61.401,187.095L305.54,187.095C314.634,187.095 322.016,180.521 322.016,172.423Z"/>
    </g>
    <g transform="matrix(-0.0416964,-0.0111725,-0.0127006,0.0473994,26.9315,-0.602978)">
        <path d="M322.016,172.423C322.016,164.325 314.543,157.75 305.337,157.75L61.604,157.75C52.398,157.75 44.925,164.325 44.925,172.423C44.925,180.521 52.398,187.095 61.604,187.095L305.337,187.095C314.543,187.095 322.016,180.521 322.016,172.423Z"/>
    </g>
    <g transform="matrix(-0.0415959,0.0132214,-0.0148648,-0.0467659,27.2908,14.1617)">
        <path d="M322.016,172.423C322.016,164.325 314.625,157.75 305.52,157.75L61.421,157.75C52.316,157.75 44.925,164.325 44.925,172.423C44.925,180.521 52.316,187.095 61.421,187.095L305.52,187.095C314.625,187.095 322.016,180.521 322.016,172.423Z"/>
    </g>
    <g transform="matrix(0.0352009,-0.00943204,0.0127006,0.0473994,-2.63965,4.33127)">
        <path d="M322.016,172.423C322.016,164.325 313.164,157.75 302.259,157.75L64.682,157.75C53.777,157.75 44.925,164.325 44.925,172.423C44.925,180.521 53.777,187.095 64.682,187.095L302.259,187.095C313.164,187.095 322.016,180.521 322.016,172.423Z"/>
    </g>
    <g transform="matrix(0.0416461,0.0132374,0.0148648,-0.0467659,-3.29305,19.1734)">
        <path d="M322.016,172.423C322.016,164.325 314.634,157.75 305.54,157.75L61.401,157.75C52.307,157.75 44.925,164.325 44.925,172.423C44.925,180.521 52.307,187.095 61.401,187.095L305.54,187.095C314.634,187.095 322.016,180.521 322.016,172.423Z"/>
    </g>
    <g transform="matrix(-0.0353438,-0.00947034,-0.0127006,0.0473994,26.6461,4.33299)">
        <path d="M322.016,172.423C322.016,164.325 313.199,157.75 302.339,157.75L64.602,157.75C53.742,157.75 44.925,164.325 44.925,172.423C44.925,180.521 53.742,187.095 64.602,187.095L302.339,187.095C313.199,187.095 322.016,180.521 322.016,172.423Z"/>
    </g>
    <g transform="matrix(-0.0415959,0.0132214,-0.0148648,-0.0467659,27.2908,19.1741)">
        <path d="M322.016,172.423C322.016,164.325 314.625,157.75 305.52,157.75L61.421,157.75C52.316,157.75 44.925,164.325 44.925,172.423C44.925,180.521 52.316,187.095 61.421,187.095L305.52,187.095C314.625,187.095 322.016,180.521 322.016,172.423Z"/>
    </g>
    <g transform="matrix(0.0332268,-0.00890311,0.0127006,0.0473994,-2.55097,8.99465)">
        <path d="M322.016,172.423C322.016,164.325 312.638,157.75 301.086,157.75L65.855,157.75C54.303,157.75 44.925,164.325 44.925,172.423C44.925,180.521 54.303,187.095 65.855,187.095L301.086,187.095C312.638,187.095 322.016,180.521 322.016,172.423Z"/>
    </g>
    <g transform="matrix(0.0416461,0.0132374,0.0148648,-0.0467659,-3.29305,23.8606)">
        <path d="M322.016,172.423C322.016,164.325 314.634,157.75 305.54,157.75L61.401,157.75C52.307,157.75 44.925,164.325 44.925,172.423C44.925,180.521 52.307,187.095 61.401,187.095L305.54,187.095C314.634,187.095 322.016,180.521 322.016,172.423Z"/>
    </g>
    <g transform="matrix(-0.0333811,-0.00894444,-0.0127006,0.0473994,26.5579,8.99651)">
        <path d="M322.016,172.423C322.016,164.325 312.681,157.75 301.182,157.75L65.759,157.75C54.26,157.75 44.925,164.325 44.925,172.423C44.925,180.521 54.26,187.095 65.759,187.095L301.182,187.095C312.681,187.095 322.016,180.521 322.016,172.423Z"/>
    </g>
    <g transform="matrix(-0.0415959,0.0132214,-0.0148648,-0.0467659,27.2908,23.8613)">
        <path d="M322.016,172.423C322.016,164.325 314.625,157.75 305.52,157.75L61.421,157.75C52.316,157.75 44.925,164.325 44.925,172.423C44.925,180.521 52.316,187.095 61.421,187.095L305.52,187.095C314.625,187.095 322.016,180.521 322.016,172.423Z"/>
    </g>
</svg>
