<?xml version="1.0" encoding="UTF-8" standalone="no"?>
<!DOCTYPE svg PUBLIC "-//W3C//DTD SVG 1.1//EN" "http://www.w3.org/Graphics/SVG/1.1/DTD/svg11.dtd">
<svg width="100%" height="100%" viewBox="0 0 24 24" version="1.1" xmlns="http://www.w3.org/2000/svg" xmlns:xlink="http://www.w3.org/1999/xlink" xml:space="preserve" xmlns:serif="http://www.serif.com/" style="fill-rule:evenodd;clip-rule:evenodd;stroke-linejoin:round;stroke-miterlimit:2;">
    <g transform="matrix(0.048,0,0,0.0712082,1.36424e-15,-10.9425)">
        <path d="M400.578,469.645C400.578,464.064 393.857,459.534 385.578,459.534L114.422,459.534C106.143,459.534 99.422,464.064 99.422,469.645C99.422,475.225 106.143,479.756 114.422,479.756L385.578,479.756C393.857,479.756 400.578,475.225 400.578,469.645Z"/>
    </g>
    <g transform="matrix(0.0397625,0,0,0.0712082,2.0611,-17.9481)">
        <path d="M400.578,469.645C400.578,464.064 392.465,459.534 382.471,459.534L117.529,459.534C107.535,459.534 99.422,464.064 99.422,469.645C99.422,475.225 107.535,479.756 117.529,479.756L382.471,479.756C392.465,479.756 400.578,475.225 400.578,469.645Z"/>
    </g>
    <g transform="matrix(0.00493747,0.028007,-0.0701268,0.012363,49.5895,6.18383)">
        <path d="M400.578,469.645C400.578,464.064 389.234,459.534 375.261,459.534L124.739,459.534C110.766,459.534 99.422,464.064 99.422,469.645C99.422,475.225 110.766,479.756 124.739,479.756L375.261,479.756C389.234,479.756 400.578,475.225 400.578,469.645Z"/>
    </g>
    <g transform="matrix(0.0039584,0.0224534,-0.0701268,0.012363,47.8869,1.19198)">
        <path d="M400.578,469.645C400.578,464.064 386.428,459.534 368.999,459.534L131.001,459.534C113.572,459.534 99.422,464.064 99.422,469.645C99.422,475.225 113.572,479.756 131.001,479.756L368.999,479.756C386.428,479.756 400.578,475.225 400.578,469.645Z"/>
    </g>
    <g transform="matrix(0.0037462,0.0212497,-0.0701268,0.012363,46.1934,-3.78436)">
        <path d="M400.578,469.645C400.578,464.064 385.626,459.534 367.21,459.534L132.79,459.534C114.374,459.534 99.422,464.064 99.422,469.645C99.422,475.225 114.374,479.756 132.79,479.756L367.21,479.756C385.626,479.756 400.578,475.225 400.578,469.645Z"/>
    </g>
    <g transform="matrix(0.00249608,0.0141586,-0.0701268,0.012363,45.2816,-6.03935)">
        <path d="M400.578,469.645C400.578,464.064 378.138,459.534 350.498,459.534L149.502,459.534C121.862,459.534 99.422,464.064 99.422,469.645C99.422,475.225 121.862,479.756 149.502,479.756L350.498,479.756C378.138,479.756 400.578,475.225 400.578,469.645Z"/>
    </g>
    <g transform="matrix(-0.00249608,0.0141586,0.0701268,0.012363,-21.2875,-6.03935)">
        <path d="M400.578,469.645C400.578,464.064 378.138,459.534 350.498,459.534L149.502,459.534C121.862,459.534 99.422,464.064 99.422,469.645C99.422,475.225 121.862,479.756 149.502,479.756L350.498,479.756C378.138,479.756 400.578,475.225 400.578,469.645Z"/>
    </g>
    <g transform="matrix(-0.00493747,0.028007,0.0701268,0.012363,-25.5895,6.18383)">
        <path d="M400.578,469.645C400.578,464.064 389.234,459.534 375.261,459.534L124.739,459.534C110.766,459.534 99.422,464.064 99.422,469.645C99.422,475.225 110.766,479.756 124.739,479.756L375.261,479.756C389.234,479.756 400.578,475.225 400.578,469.645Z"/>
    </g>
    <g transform="matrix(-0.00403126,0.0228666,0.0701268,0.012363,-23.8705,1.1404)">
        <path d="M400.578,469.645C400.578,464.064 386.684,459.534 369.57,459.534L130.43,459.534C113.316,459.534 99.422,464.064 99.422,469.645C99.422,475.225 113.316,479.756 130.43,479.756L369.57,479.756C386.684,479.756 400.578,475.225 400.578,469.645Z"/>
    </g>
    <g transform="matrix(-0.00378961,0.0214959,0.0701268,0.012363,-22.1872,-3.80884)">
        <path d="M400.578,469.645C400.578,464.064 385.798,459.534 367.592,459.534L132.408,459.534C114.202,459.534 99.422,464.064 99.422,469.645C99.422,475.225 114.202,479.756 132.408,479.756L367.592,479.756C385.798,479.756 400.578,475.225 400.578,469.645Z"/>
    </g>
    <g transform="matrix(0.0277972,0,0,0.0712082,5.05071,-23.5136)">
        <path d="M400.578,469.645C400.578,464.064 388.972,459.534 374.676,459.534L125.324,459.534C111.028,459.534 99.422,464.064 99.422,469.645C99.422,475.225 111.028,479.756 125.324,479.756L374.676,479.756C388.972,479.756 400.578,475.225 400.578,469.645Z"/>
    </g>
    <g transform="matrix(0.0164277,0,0,0.0712082,7.89308,-28.5991)">
        <path d="M400.578,469.645C400.578,464.064 380.939,459.534 356.75,459.534L143.25,459.534C119.061,459.534 99.422,464.064 99.422,469.645C99.422,475.225 119.061,479.756 143.25,479.756L356.75,479.756C380.939,479.756 400.578,475.225 400.578,469.645Z"/>
    </g>
    <g transform="matrix(0.00957409,0,0,0.0712082,9.60648,-31.5591)">
        <path d="M400.578,469.645C400.578,464.064 366.881,459.534 325.375,459.534L174.625,459.534C133.119,459.534 99.422,464.064 99.422,469.645C99.422,475.225 133.119,479.756 174.625,479.756L325.375,479.756C366.881,479.756 400.578,475.225 400.578,469.645Z"/>
    </g>
    <g transform="matrix(0.0251847,-0.00443992,0.012363,0.0701268,6.66534,-29.9731)">
        <path d="M400.578,469.645C400.578,464.064 387.963,459.534 372.424,459.534L127.576,459.534C112.037,459.534 99.422,464.064 99.422,469.645C99.422,475.225 112.037,479.756 127.576,479.756L372.424,479.756C387.963,479.756 400.578,475.225 400.578,469.645Z"/>
    </g>
    <g transform="matrix(0.0251847,0.00443992,0.012363,-0.0701268,6.66534,36.2095)">
        <path d="M400.578,469.645C400.578,464.064 387.963,459.534 372.424,459.534L127.576,459.534C112.037,459.534 99.422,464.064 99.422,469.645C99.422,475.225 112.037,479.756 127.576,479.756L372.424,479.756C387.963,479.756 400.578,475.225 400.578,469.645Z"/>
    </g>
    <g transform="matrix(5.86244e-19,-0.00957409,0.0712082,4.36025e-18,-17.7582,5.50877)">
        <path d="M400.578,469.645C400.578,464.064 366.881,459.534 325.375,459.534L174.625,459.534C133.119,459.534 99.422,464.064 99.422,469.645C99.422,475.225 133.119,479.756 174.625,479.756L325.375,479.756C366.881,479.756 400.578,475.225 400.578,469.645Z"/>
    </g>
    <g transform="matrix(1.02772e-18,-0.016784,0.0712082,4.36025e-18,-11.5915,7.31125)">
        <path d="M400.578,469.645C400.578,464.064 381.356,459.534 357.68,459.534L142.32,459.534C118.644,459.534 99.422,464.064 99.422,469.645C99.422,475.225 118.644,479.756 142.32,479.756L357.68,479.756C381.356,479.756 400.578,475.225 400.578,469.645Z"/>
    </g>
    <g transform="matrix(-0.0251847,-0.00443992,-0.012363,0.0701268,17.3347,-29.9731)">
        <path d="M400.578,469.645C400.578,464.064 387.963,459.534 372.424,459.534L127.576,459.534C112.037,459.534 99.422,464.064 99.422,469.645C99.422,475.225 112.037,479.756 127.576,479.756L372.424,479.756C387.963,479.756 400.578,475.225 400.578,469.645Z"/>
    </g>
    <g transform="matrix(-0.0251847,0.00443992,-0.012363,-0.0701268,17.3347,36.2095)">
        <path d="M400.578,469.645C400.578,464.064 387.963,459.534 372.424,459.534L127.576,459.534C112.037,459.534 99.422,464.064 99.422,469.645C99.422,475.225 112.037,479.756 127.576,479.756L372.424,479.756C387.963,479.756 400.578,475.225 400.578,469.645Z"/>
    </g>
    <g transform="matrix(-5.86244e-19,-0.00957409,-0.0712082,4.36025e-18,41.7582,5.50877)">
        <path d="M400.578,469.645C400.578,464.064 366.881,459.534 325.375,459.534L174.625,459.534C133.119,459.534 99.422,464.064 99.422,469.645C99.422,475.225 133.119,479.756 174.625,479.756L325.375,479.756C366.881,479.756 400.578,475.225 400.578,469.645Z"/>
    </g>
    <g transform="matrix(-1.02772e-18,-0.016784,-0.0712082,4.36025e-18,35.5915,7.31125)">
        <path d="M400.578,469.645C400.578,464.064 381.356,459.534 357.68,459.534L142.32,459.534C118.644,459.534 99.422,464.064 99.422,469.645C99.422,475.225 118.644,479.756 142.32,479.756L357.68,479.756C381.356,479.756 400.578,475.225 400.578,469.645Z"/>
    </g>
</svg>
