<?xml version="1.0" encoding="UTF-8" standalone="no"?>
<!DOCTYPE svg PUBLIC "-//W3C//DTD SVG 1.1//EN" "http://www.w3.org/Graphics/SVG/1.1/DTD/svg11.dtd">
<svg width="100%" height="100%" viewBox="0 0 24 24" version="1.1" xmlns="http://www.w3.org/2000/svg" xmlns:xlink="http://www.w3.org/1999/xlink" xml:space="preserve" xmlns:serif="http://www.serif.com/" style="fill-rule:evenodd;clip-rule:evenodd;stroke-linejoin:round;stroke-miterlimit:2;">
    <g transform="matrix(0.0339411,-0.0339411,0.0339411,0.0339411,-7.01927,14.0484)">
        <path d="M288.924,250.004C288.924,207.562 254.466,173.104 212.024,173.104L105.656,173.104C63.213,173.104 28.756,207.562 28.756,250.004C28.756,292.446 63.213,326.904 105.656,326.904L212.024,326.904C254.466,326.904 288.924,292.446 288.924,250.004ZM258.924,250.004C258.924,224.119 237.909,203.104 212.024,203.104L105.656,203.104C79.771,203.104 58.756,224.119 58.756,250.004C58.756,275.889 79.771,296.904 105.656,296.904L212.024,296.904C237.909,296.904 258.924,275.889 258.924,250.004Z"/>
    </g>
    <g transform="matrix(0.0339411,-0.0339411,0.0339411,0.0339411,3.26604,3.76313)">
        <path d="M288.924,250.004C288.924,207.562 254.466,173.104 212.024,173.104L105.656,173.104C63.213,173.104 28.756,207.562 28.756,250.004C28.756,292.446 63.213,326.904 105.656,326.904L212.024,326.904C254.466,326.904 288.924,292.446 288.924,250.004ZM258.924,250.004C258.924,224.119 237.909,203.104 212.024,203.104L105.656,203.104C79.771,203.104 58.756,224.119 58.756,250.004C58.756,275.889 79.771,296.904 105.656,296.904L212.024,296.904C237.909,296.904 258.924,275.889 258.924,250.004Z"/>
    </g>
    <g transform="matrix(0.0339411,-0.0339411,0.0329322,0.0329322,-6.58712,14.4806)">
        <path d="M471.874,244.54C471.874,236.008 465.152,229.081 456.874,229.081L163.84,229.081C155.561,229.081 148.84,236.008 148.84,244.54C148.84,253.073 155.561,260 163.84,260L456.874,260C465.152,260 471.874,253.073 471.874,244.54Z"/>
    </g>
</svg>
