<?xml version="1.0" encoding="UTF-8" standalone="no"?>
<!DOCTYPE svg PUBLIC "-//W3C//DTD SVG 1.1//EN" "http://www.w3.org/Graphics/SVG/1.1/DTD/svg11.dtd">
<svg width="100%" height="100%" viewBox="0 0 24 24" version="1.1" xmlns="http://www.w3.org/2000/svg" xmlns:xlink="http://www.w3.org/1999/xlink" xml:space="preserve" xmlns:serif="http://www.serif.com/" style="fill-rule:evenodd;clip-rule:evenodd;stroke-linejoin:round;stroke-miterlimit:2;">
    <g transform="matrix(0.048,0,0,0.048,0,0)">
        <path d="M79.609,50.364C104.446,50.364 124.609,70.527 124.609,95.364C124.609,120.2 104.446,140.364 79.609,140.364C54.773,140.364 34.609,120.2 34.609,95.364C34.609,70.527 54.773,50.364 79.609,50.364ZM79.609,80.364C87.888,80.364 94.609,87.085 94.609,95.364C94.609,103.642 87.888,110.364 79.609,110.364C71.331,110.364 64.609,103.642 64.609,95.364C64.609,87.085 71.331,80.364 79.609,80.364Z"/>
    </g>
    <g transform="matrix(0.048,0,0,0.04374,0,0.321975)">
        <path d="M459.046,98.765C459.046,89.68 452.325,82.305 444.046,82.305L166.86,82.305C158.581,82.305 151.86,89.68 151.86,98.765C151.86,107.85 158.581,115.226 166.86,115.226L444.046,115.226C452.325,115.226 459.046,107.85 459.046,98.765Z"/>
    </g>
    <g transform="matrix(0.048,0,0,0.048,0,7.39029)">
        <path d="M79.609,50.364C104.446,50.364 124.609,70.527 124.609,95.364C124.609,120.2 104.446,140.364 79.609,140.364C54.773,140.364 34.609,120.2 34.609,95.364C34.609,70.527 54.773,50.364 79.609,50.364ZM79.609,80.364C87.888,80.364 94.609,87.085 94.609,95.364C94.609,103.642 87.888,110.364 79.609,110.364C71.331,110.364 64.609,103.642 64.609,95.364C64.609,87.085 71.331,80.364 79.609,80.364Z"/>
    </g>
    <g transform="matrix(0.048,0,0,0.04374,0,7.71226)">
        <path d="M459.046,98.765C459.046,89.68 452.325,82.305 444.046,82.305L166.86,82.305C158.581,82.305 151.86,89.68 151.86,98.765C151.86,107.85 158.581,115.226 166.86,115.226L444.046,115.226C452.325,115.226 459.046,107.85 459.046,98.765Z"/>
    </g>
    <g transform="matrix(0.048,0,0,0.048,0,14.7806)">
        <path d="M79.609,50.364C104.446,50.364 124.609,70.527 124.609,95.364C124.609,120.2 104.446,140.364 79.609,140.364C54.773,140.364 34.609,120.2 34.609,95.364C34.609,70.527 54.773,50.364 79.609,50.364ZM79.609,80.364C87.888,80.364 94.609,87.085 94.609,95.364C94.609,103.642 87.888,110.364 79.609,110.364C71.331,110.364 64.609,103.642 64.609,95.364C64.609,87.085 71.331,80.364 79.609,80.364Z"/>
    </g>
    <g transform="matrix(0.048,0,0,0.04374,0,15.1026)">
        <path d="M459.046,98.765C459.046,89.68 452.325,82.305 444.046,82.305L166.86,82.305C158.581,82.305 151.86,89.68 151.86,98.765C151.86,107.85 158.581,115.226 166.86,115.226L444.046,115.226C452.325,115.226 459.046,107.85 459.046,98.765Z"/>
    </g>
</svg>
