<?xml version="1.0" encoding="UTF-8" standalone="no"?>
<!DOCTYPE svg PUBLIC "-//W3C//DTD SVG 1.1//EN" "http://www.w3.org/Graphics/SVG/1.1/DTD/svg11.dtd">
<svg width="100%" height="100%" viewBox="0 0 24 24" version="1.1" xmlns="http://www.w3.org/2000/svg" xmlns:xlink="http://www.w3.org/1999/xlink" xml:space="preserve" xmlns:serif="http://www.serif.com/" style="fill-rule:evenodd;clip-rule:evenodd;stroke-linejoin:round;stroke-miterlimit:2;">
    <g transform="matrix(0.048,0,0,0.048,0,0)">
        <path d="M250,468.657C250,468.657 405.476,309.596 405.476,186.819C405.476,101.01 335.809,31.343 250,31.343C164.191,31.343 94.524,101.01 94.524,186.819C94.524,309.596 250,468.657 250,468.657ZM250,423.864C250,423.864 375.476,286.907 375.476,186.819C375.476,118.714 318.105,61.343 250,61.343C181.895,61.343 124.524,118.714 124.524,186.819C124.524,286.241 250,423.864 250,423.864Z"/>
    </g>
    <g transform="matrix(0.048,0,0,0.048,-0.0122034,0)">
        <path d="M250.254,103.598C297.167,103.598 335.254,141.685 335.254,188.598C335.254,235.511 297.167,273.598 250.254,273.598C203.341,273.598 165.254,235.511 165.254,188.598C165.254,141.685 203.341,103.598 250.254,103.598ZM250.254,133.598C280.61,133.598 305.254,158.243 305.254,188.598C305.254,218.954 280.61,243.598 250.254,243.598C219.899,243.598 195.254,218.954 195.254,188.598C195.254,158.243 219.899,133.598 250.254,133.598Z"/>
    </g>
</svg>
