<?xml version="1.0" encoding="UTF-8" standalone="no"?>
<!DOCTYPE svg PUBLIC "-//W3C//DTD SVG 1.1//EN" "http://www.w3.org/Graphics/SVG/1.1/DTD/svg11.dtd">
<svg width="100%" height="100%" viewBox="0 0 24 24" version="1.1" xmlns="http://www.w3.org/2000/svg" xmlns:xlink="http://www.w3.org/1999/xlink" xml:space="preserve" xmlns:serif="http://www.serif.com/" style="fill-rule:evenodd;clip-rule:evenodd;stroke-linejoin:round;stroke-miterlimit:2;">
    <g transform="matrix(0.048,0,0,0.048,0,0)">
        <path d="M358.866,241L141.134,241C132.856,241 126.134,247.721 126.134,256L126.134,461.228C126.134,469.507 132.856,476.228 141.134,476.228L358.866,476.228C367.144,476.228 373.866,469.507 373.866,461.228L373.866,256C373.866,247.721 367.144,241 358.866,241ZM156.134,271L156.134,446.228L343.866,446.228L343.866,271L156.134,271Z"/>
    </g>
    <g transform="matrix(0.055353,0,0,0.055353,-1.72168,-2.24364)">
        <circle cx="247.894" cy="332.599" r="26.015"/>
    </g>
    <g transform="matrix(0.0599863,0,0,0.048,-2.976,0.538757)">
        <path d="M261.66,348.614C261.66,340.335 256.282,333.614 249.657,333.614C243.033,333.614 237.654,340.335 237.654,348.614L237.654,384.197C237.654,392.476 243.033,399.197 249.657,399.197C256.282,399.197 261.66,392.476 261.66,384.197L261.66,348.614Z"/>
    </g>
    <g transform="matrix(0.048,0,0,0.048,0,0)">
        <path d="M160,258.395L190,258.395L190,180.395C190,147.28 216.885,120.395 250,120.395C283.115,120.395 310,147.28 310,180.395L310,258.395L340,258.395L340,180.395C340,130.723 299.672,90.395 250,90.395C200.328,90.395 160,130.723 160,180.395L160,258.395Z"/>
    </g>
</svg>
