<?xml version="1.0" encoding="UTF-8" standalone="no"?>
<!DOCTYPE svg PUBLIC "-//W3C//DTD SVG 1.1//EN" "http://www.w3.org/Graphics/SVG/1.1/DTD/svg11.dtd">
<svg width="100%" height="100%" viewBox="0 0 24 24" version="1.1" xmlns="http://www.w3.org/2000/svg" xmlns:xlink="http://www.w3.org/1999/xlink" xml:space="preserve" xmlns:serif="http://www.serif.com/" style="fill-rule:evenodd;clip-rule:evenodd;stroke-linejoin:round;stroke-miterlimit:2;">
    <g transform="matrix(-0.0762933,9.55171e-18,-1.11993e-17,-0.09204,21.3057,24.3)">
        <path d="M257.171,136.245C257.171,131.928 252.942,128.422 247.734,128.422L72.345,128.422C67.136,128.422 62.907,131.928 62.907,136.245C62.907,140.563 67.136,144.068 72.345,144.068L247.734,144.068C252.942,144.068 257.171,140.563 257.171,136.245Z"/>
    </g>
    <g transform="matrix(3.17082e-18,-0.106685,0.09204,4.10612e-18,9.05469,29.0738)">
        <path d="M257.171,136.245C257.171,131.928 254.147,128.422 250.422,128.422L69.656,128.422C65.931,128.422 62.907,131.928 62.907,136.245C62.907,140.563 65.931,144.068 69.656,144.068L250.422,144.068C254.147,144.068 257.171,140.563 257.171,136.245Z"/>
    </g>
    <g transform="matrix(0.0431836,-3.36176e-18,6.19188e-19,0.09204,11.2091,-10.1825)">
        <path d="M257.171,136.245C257.171,131.928 249.7,128.422 240.498,128.422L79.58,128.422C70.378,128.422 62.907,131.928 62.907,136.245C62.907,140.563 70.378,144.068 79.58,144.068L240.498,144.068C249.7,144.068 257.171,140.563 257.171,136.245Z"/>
    </g>
    <g transform="matrix(0.0431836,-3.36176e-18,6.19188e-19,0.09204,11.2091,9.1025)">
        <path d="M257.171,136.245C257.171,131.928 249.7,128.422 240.498,128.422L79.58,128.422C70.378,128.422 62.907,131.928 62.907,136.245C62.907,140.563 70.378,144.068 79.58,144.068L240.498,144.068C249.7,144.068 257.171,140.563 257.171,136.245Z"/>
    </g>
    <g transform="matrix(-0.0316062,0.0316062,-0.0650821,-0.0650821,27.151,18.1384)">
        <path d="M257.171,136.245C257.171,131.928 249.953,128.422 241.063,128.422L79.016,128.422C70.125,128.422 62.907,131.928 62.907,136.245C62.907,140.563 70.125,144.068 79.016,144.068L241.063,144.068C249.953,144.068 257.171,140.563 257.171,136.245Z"/>
    </g>
    <g transform="matrix(-0.0316062,-0.0316062,0.0650821,-0.0650821,9.41672,23.1159)">
        <path d="M257.171,136.245C257.171,131.928 249.953,128.422 241.063,128.422L79.016,128.422C70.125,128.422 62.907,131.928 62.907,136.245C62.907,140.563 70.125,144.068 79.016,144.068L241.063,144.068C249.953,144.068 257.171,140.563 257.171,136.245Z"/>
    </g>
</svg>
