<?xml version="1.0" encoding="UTF-8" standalone="no"?>
<!DOCTYPE svg PUBLIC "-//W3C//DTD SVG 1.1//EN" "http://www.w3.org/Graphics/SVG/1.1/DTD/svg11.dtd">
<svg width="100%" height="100%" viewBox="0 0 24 24" version="1.1" xmlns="http://www.w3.org/2000/svg" xmlns:xlink="http://www.w3.org/1999/xlink" xml:space="preserve" xmlns:serif="http://www.serif.com/" style="fill-rule:evenodd;clip-rule:evenodd;stroke-linejoin:round;stroke-miterlimit:2;">
    <g transform="matrix(0.048,0,0,0.048,-0.107196,-0.135648)">
        <path d="M469.778,108.345L439.778,108.345L439.778,264.762C439.778,368.271 355.742,452.307 252.233,452.307C148.725,452.307 64.689,368.271 64.689,264.762L64.689,108.345L34.689,108.345L34.689,264.762C34.689,384.828 132.167,482.307 252.233,482.307C372.299,482.307 469.778,384.828 469.778,264.762L469.778,108.345Z"/>
    </g>
    <g transform="matrix(0.048,0,0,0.048,-0.107196,-0.135648)">
        <path d="M377.233,108.345L347.233,108.345L347.233,267.307C347.233,319.739 304.665,362.307 252.233,362.307C199.801,362.307 157.233,319.739 157.233,267.307L157.233,108.345L127.233,108.345L127.233,267.307C127.233,336.296 183.244,392.307 252.233,392.307C321.223,392.307 377.233,336.296 377.233,267.307L377.233,108.345Z"/>
    </g>
    <g transform="matrix(0.172353,0,0,0.0494005,-2.12015,-16.3332)">
        <rect x="24.691" y="413.724" width="29.15" height="29.15"/>
    </g>
    <g transform="matrix(0.172353,0,0,0.0494005,12.7334,-16.3332)">
        <rect x="24.691" y="413.724" width="29.15" height="29.15"/>
    </g>
    <g transform="matrix(0.048,0,0,0.048,-0.107196,-0.135648)">
        <path d="M64.689,137.654L64.689,60.345C64.689,56.101 68.135,52.654 72.38,52.654L119.542,52.654C123.787,52.654 127.233,56.101 127.233,60.345L127.233,137.654L128.656,137.654C144.428,137.654 157.233,124.849 157.233,109.077L157.233,51.923C157.233,36.15 144.428,23.345 128.656,23.345L63.266,23.345C47.494,23.345 34.689,36.15 34.689,51.923L34.689,109.077C34.689,124.849 47.494,137.654 63.266,137.654L64.689,137.654Z"/>
    </g>
    <g transform="matrix(0.048,0,0,0.048,14.8949,-0.135648)">
        <path d="M64.689,137.654L64.689,60.345C64.689,56.101 68.135,52.654 72.38,52.654L119.542,52.654C123.787,52.654 127.233,56.101 127.233,60.345L127.233,137.654L128.656,137.654C144.428,137.654 157.233,124.849 157.233,109.077L157.233,51.923C157.233,36.15 144.428,23.345 128.656,23.345L63.266,23.345C47.494,23.345 34.689,36.15 34.689,51.923L34.689,109.077C34.689,124.849 47.494,137.654 63.266,137.654L64.689,137.654Z"/>
    </g>
</svg>
