<?xml version="1.0" encoding="UTF-8" standalone="no"?>
<!DOCTYPE svg PUBLIC "-//W3C//DTD SVG 1.1//EN" "http://www.w3.org/Graphics/SVG/1.1/DTD/svg11.dtd">
<svg width="100%" height="100%" viewBox="0 0 24 24" version="1.1" xmlns="http://www.w3.org/2000/svg" xmlns:xlink="http://www.w3.org/1999/xlink" xml:space="preserve" xmlns:serif="http://www.serif.com/" style="fill-rule:evenodd;clip-rule:evenodd;stroke-linejoin:round;stroke-miterlimit:2;">
    <g transform="matrix(0.0550695,0,0,0.048,-0.127886,0)">
        <path d="M44.239,94.741C44.239,86.462 38.38,79.741 31.164,79.741C23.948,79.741 18.09,86.462 18.09,94.741L18.09,405.259C18.09,413.538 23.948,420.259 31.164,420.259C38.38,420.259 44.239,413.538 44.239,405.259L44.239,94.741Z"/>
    </g>
    <g transform="matrix(0.0550695,0,0,0.048,20.6955,0)">
        <path d="M44.239,94.741C44.239,86.462 38.38,79.741 31.164,79.741C23.948,79.741 18.09,86.462 18.09,94.741L18.09,405.259C18.09,413.538 23.948,420.259 31.164,420.259C38.38,420.259 44.239,413.538 44.239,405.259L44.239,94.741Z"/>
    </g>
    <g transform="matrix(3.37203e-18,0.0550695,-0.0653809,4.00342e-18,28.3452,2.83137)">
        <path d="M44.239,90.753C44.239,84.675 38.38,79.741 31.164,79.741C23.948,79.741 18.09,84.675 18.09,90.753L18.09,409.247C18.09,415.325 23.948,420.259 31.164,420.259C38.38,420.259 44.239,415.325 44.239,409.247L44.239,90.753Z"/>
    </g>
    <g transform="matrix(3.37203e-18,0.0550695,-0.0653809,4.00342e-18,28.3452,17.7362)">
        <path d="M44.239,90.753C44.239,84.675 38.38,79.741 31.164,79.741C23.948,79.741 18.09,84.675 18.09,90.753L18.09,409.247C18.09,415.325 23.948,420.259 31.164,420.259C38.38,420.259 44.239,415.325 44.239,409.247L44.239,90.753Z"/>
    </g>
    <g transform="matrix(-0.0275347,0.0476915,-0.0332436,-0.0191932,16.0573,13.2887)">
        <path d="M44.239,98.498C44.239,88.146 38.38,79.741 31.164,79.741C23.948,79.741 18.09,88.146 18.09,98.498L18.09,401.502C18.09,411.854 23.948,420.259 31.164,420.259C38.38,420.259 44.239,411.854 44.239,401.502L44.239,98.498Z"/>
    </g>
    <g transform="matrix(0.0275347,0.0476915,0.0333311,-0.0192437,7.83343,13.31)">
        <path d="M44.239,98.448C44.239,88.123 38.38,79.741 31.164,79.741C23.948,79.741 18.09,88.123 18.09,98.448L18.09,401.552C18.09,411.877 23.948,420.259 31.164,420.259C38.38,420.259 44.239,411.877 44.239,401.552L44.239,98.448Z"/>
    </g>
</svg>
