<?xml version="1.0" encoding="UTF-8" standalone="no"?>
<!DOCTYPE svg PUBLIC "-//W3C//DTD SVG 1.1//EN" "http://www.w3.org/Graphics/SVG/1.1/DTD/svg11.dtd">
<svg width="100%" height="100%" viewBox="0 0 24 24" version="1.1" xmlns="http://www.w3.org/2000/svg" xmlns:xlink="http://www.w3.org/1999/xlink" xml:space="preserve" xmlns:serif="http://www.serif.com/" style="fill-rule:evenodd;clip-rule:evenodd;stroke-linejoin:round;stroke-miterlimit:2;">
    <g transform="matrix(0.06,0,0,0.0455111,-0.0437242,-3.16725)">
        <path d="M64.729,130.699C64.729,121.967 59.352,114.878 52.729,114.878C46.106,114.878 40.729,121.967 40.729,130.699L40.729,459.058C40.729,467.79 46.106,474.878 52.729,474.878C59.352,474.878 64.729,467.79 64.729,459.058L64.729,130.699Z"/>
    </g>
    <g transform="matrix(-0.030311,0.0517807,-0.020295,-0.0118801,13.7511,20.2871)">
        <path d="M64.729,145.495C64.729,128.597 59.352,114.878 52.729,114.878C46.106,114.878 40.729,128.597 40.729,145.495L40.729,444.262C40.729,461.159 46.106,474.878 52.729,474.878C59.352,474.878 64.729,461.159 64.729,444.262L64.729,145.495Z"/>
    </g>
    <g transform="matrix(-0.0301896,0.0518516,-0.0200648,-0.0116823,13.635,5.20724)">
        <path d="M64.729,145.889C64.729,128.774 59.352,114.878 52.729,114.878C46.106,114.878 40.729,128.774 40.729,145.889L40.729,443.868C40.729,460.983 46.106,474.878 52.729,474.878C59.352,474.878 64.729,460.983 64.729,443.868L64.729,145.889Z"/>
    </g>
    <g transform="matrix(0.06,0,0,0.0458667,6.03632,0.151909)">
        <path d="M64.729,130.576C64.729,121.912 59.352,114.878 52.729,114.878C46.106,114.878 40.729,121.912 40.729,130.576L40.729,459.181C40.729,467.845 46.106,474.878 52.729,474.878C59.352,474.878 64.729,467.845 64.729,459.181L64.729,130.576Z"/>
    </g>
    <g transform="matrix(-0.06,0,0,0.0458667,18.4438,-3.20809)">
        <path d="M64.729,130.576C64.729,121.912 59.352,114.878 52.729,114.878C46.106,114.878 40.729,121.912 40.729,130.576L40.729,459.181C40.729,467.845 46.106,474.878 52.729,474.878C59.352,474.878 64.729,467.845 64.729,459.181L64.729,130.576Z"/>
    </g>
    <g transform="matrix(0.030311,0.0517807,0.0204332,-0.011961,4.65558,20.3067)">
        <path d="M64.729,145.288C64.729,128.505 59.352,114.878 52.729,114.878C46.106,114.878 40.729,128.505 40.729,145.288L40.729,444.469C40.729,461.252 46.106,474.878 52.729,474.878C59.352,474.878 64.729,461.252 64.729,444.469L64.729,145.288Z"/>
    </g>
    <g transform="matrix(0.0301896,0.0518516,0.0201821,-0.0117506,4.68425,5.0735)">
        <path d="M64.729,145.709C64.729,128.693 59.352,114.878 52.729,114.878C46.106,114.878 40.729,128.693 40.729,145.709L40.729,444.048C40.729,461.064 46.106,474.878 52.729,474.878C59.352,474.878 64.729,461.064 64.729,444.048L64.729,145.709Z"/>
    </g>
    <g transform="matrix(-0.030311,0.0517807,-0.0203845,-0.0119325,25.8888,20.2931)">
        <path d="M64.729,145.361C64.729,128.537 59.352,114.878 52.729,114.878C46.106,114.878 40.729,128.537 40.729,145.361L40.729,444.396C40.729,461.22 46.106,474.878 52.729,474.878C59.352,474.878 64.729,461.22 64.729,444.396L64.729,145.361Z"/>
    </g>
    <g transform="matrix(-0.0301896,0.0518516,-0.0202946,-0.0118162,25.873,5.10959)">
        <path d="M64.729,145.538C64.729,128.616 59.352,114.878 52.729,114.878C46.106,114.878 40.729,128.616 40.729,145.538L40.729,444.219C40.729,461.14 46.106,474.878 52.729,474.878C59.352,474.878 64.729,461.14 64.729,444.219L64.729,145.538Z"/>
    </g>
    <g transform="matrix(0.06,0,0,0.0458667,18.1964,0.151909)">
        <path d="M64.729,130.576C64.729,121.912 59.352,114.878 52.729,114.878C46.106,114.878 40.729,121.912 40.729,130.576L40.729,459.181C40.729,467.845 46.106,474.878 52.729,474.878C59.352,474.878 64.729,467.845 64.729,459.181L64.729,130.576Z"/>
    </g>
</svg>
