<?xml version="1.0" encoding="UTF-8" standalone="no"?>
<!DOCTYPE svg PUBLIC "-//W3C//DTD SVG 1.1//EN" "http://www.w3.org/Graphics/SVG/1.1/DTD/svg11.dtd">
<svg width="100%" height="100%" viewBox="0 0 24 24" version="1.1" xmlns="http://www.w3.org/2000/svg" xmlns:xlink="http://www.w3.org/1999/xlink" xml:space="preserve" xmlns:serif="http://www.serif.com/" style="fill-rule:evenodd;clip-rule:evenodd;stroke-linejoin:round;stroke-miterlimit:2;">
    <g transform="matrix(0.048,0,0,0.0381731,-0.18107,4.31869)">
        <path d="M388.889,462.14C388.889,451.73 382.168,443.278 373.889,443.278L133.656,443.278C125.377,443.278 118.656,451.73 118.656,462.14C118.656,472.55 125.377,481.001 133.656,481.001L373.889,481.001C382.168,481.001 388.889,472.55 388.889,462.14Z"/>
    </g>
    <g transform="matrix(0.048,0,0,0.048,0.0164609,0)">
        <path d="M363.512,140.182C363.512,77.344 312.495,26.327 249.657,26.327C186.819,26.327 135.802,77.344 135.802,140.182L135.802,242.798C135.802,305.636 186.819,356.653 249.657,356.653C312.495,356.653 363.512,305.636 363.512,242.798L363.512,140.182ZM333.512,140.182C333.512,93.901 295.938,56.327 249.657,56.327C203.376,56.327 165.802,93.901 165.802,140.182L165.802,242.798C165.802,289.079 203.376,326.653 249.657,326.653C295.938,326.653 333.512,289.079 333.512,242.798L333.512,140.182Z"/>
    </g>
    <g transform="matrix(0.0851613,0,0,0.0403789,0.641032,9.77383)">
        <rect x="80.247" y="63.1" width="35.662" height="35.662"/>
    </g>
    <g transform="matrix(0.0851613,0,0,0.0403789,6.65407,9.77383)">
        <rect x="80.247" y="63.1" width="35.662" height="35.662"/>
    </g>
    <g transform="matrix(0.0851613,0,0,0.0403789,0.641032,7.22008)">
        <rect x="80.247" y="63.1" width="35.662" height="35.662"/>
    </g>
    <g transform="matrix(0.0851613,0,0,0.0403789,6.65407,7.22008)">
        <rect x="80.247" y="63.1" width="35.662" height="35.662"/>
    </g>
    <g transform="matrix(0.0851613,0,0,0.0403789,0.641032,4.67608)">
        <rect x="80.247" y="63.1" width="35.662" height="35.662"/>
    </g>
    <g transform="matrix(0.0851613,0,0,0.0403789,6.65407,4.67608)">
        <rect x="80.247" y="63.1" width="35.662" height="35.662"/>
    </g>
    <g transform="matrix(0.0851613,0,0,0.0403789,0.641032,2.13208)">
        <rect x="80.247" y="63.1" width="35.662" height="35.662"/>
    </g>
    <g transform="matrix(0.0851613,0,0,0.0403789,6.65407,2.13208)">
        <rect x="80.247" y="63.1" width="35.662" height="35.662"/>
    </g>
    <g transform="matrix(1.01184e-17,0.165246,-0.0403789,2.4725e-18,15.2679,2.80647)">
        <rect x="80.247" y="63.1" width="35.662" height="35.662"/>
    </g>
    <g transform="matrix(0.048,0,0,0.048,0,0)">
        <path d="M382.859,199.869C382.911,191.635 389.612,184.966 397.859,184.966C406.137,184.966 412.859,191.687 412.859,199.966L412.859,243.186C412.859,333.07 339.884,406.045 250,406.045C160.116,406.045 87.141,333.07 87.141,243.186L87.141,199.966L87.142,199.869C87.194,191.635 93.895,184.966 102.141,184.966C110.42,184.966 117.141,191.687 117.141,199.966L117.141,243.186C117.141,316.513 176.673,376.045 250,376.045C323.327,376.045 382.859,316.513 382.859,243.186L382.859,199.966L382.859,199.869Z"/>
    </g>
</svg>
