<?xml version="1.0" encoding="UTF-8" standalone="no"?>
<!DOCTYPE svg PUBLIC "-//W3C//DTD SVG 1.1//EN" "http://www.w3.org/Graphics/SVG/1.1/DTD/svg11.dtd">
<svg width="100%" height="100%" viewBox="0 0 24 24" version="1.1" xmlns="http://www.w3.org/2000/svg" xmlns:xlink="http://www.w3.org/1999/xlink" xml:space="preserve" xmlns:serif="http://www.serif.com/" style="fill-rule:evenodd;clip-rule:evenodd;stroke-linejoin:round;stroke-miterlimit:2;">
    <g transform="matrix(0.048,0,0,0.048,-0.406255,-0.323951)">
        <path d="M258.464,26.749C385.404,26.749 488.464,129.809 488.464,256.749C488.464,383.689 385.404,486.749 258.464,486.749C131.523,486.749 28.464,383.689 28.464,256.749C28.464,129.809 131.523,26.749 258.464,26.749ZM258.464,56.749C368.847,56.749 458.464,146.366 458.464,256.749C458.464,367.132 368.847,456.749 258.464,456.749C148.081,456.749 58.464,367.132 58.464,256.749C58.464,146.366 148.081,56.749 258.464,56.749Z"/>
    </g>
    <g transform="matrix(0.048,0,0,0.048,0.0111934,0)">
        <path d="M104.831,269.352C104.816,269.082 104.809,268.811 104.809,268.539C104.809,260.26 111.53,253.539 119.809,253.539L379.724,253.539C388.003,253.539 394.724,260.26 394.724,268.539C394.724,268.811 394.717,269.082 394.703,269.352C392.404,347.392 328.342,410.027 249.767,410.027C171.192,410.027 107.13,347.392 104.831,269.352ZM363.282,283.539C354.418,338.221 306.936,380.027 249.767,380.027C192.598,380.027 145.116,338.221 136.252,283.539L363.282,283.539Z"/>
    </g>
    <g transform="matrix(0.048,0,0,0.048,0,0)">
        <path d="M177.298,131.289C202.134,131.289 222.298,151.453 222.298,176.289C222.298,201.126 202.134,221.289 177.298,221.289C152.461,221.289 132.298,201.126 132.298,176.289C132.298,151.453 152.461,131.289 177.298,131.289ZM177.298,161.289C185.576,161.289 192.298,168.011 192.298,176.289C192.298,184.568 185.576,191.289 177.298,191.289C169.019,191.289 162.298,184.568 162.298,176.289C162.298,168.011 169.019,161.289 177.298,161.289Z"/>
    </g>
    <g transform="matrix(0.048,0,0,0.048,6.97942,0)">
        <path d="M177.298,131.289C202.134,131.289 222.298,151.453 222.298,176.289C222.298,201.126 202.134,221.289 177.298,221.289C152.461,221.289 132.298,201.126 132.298,176.289C132.298,151.453 152.461,131.289 177.298,131.289ZM177.298,161.289C185.576,161.289 192.298,168.011 192.298,176.289C192.298,184.568 185.576,191.289 177.298,191.289C169.019,191.289 162.298,184.568 162.298,176.289C162.298,168.011 169.019,161.289 177.298,161.289Z"/>
    </g>
</svg>
