<?xml version="1.0" encoding="UTF-8" standalone="no"?>
<!DOCTYPE svg PUBLIC "-//W3C//DTD SVG 1.1//EN" "http://www.w3.org/Graphics/SVG/1.1/DTD/svg11.dtd">
<svg width="100%" height="100%" viewBox="0 0 24 24" version="1.1" xmlns="http://www.w3.org/2000/svg" xmlns:xlink="http://www.w3.org/1999/xlink" xml:space="preserve" xmlns:serif="http://www.serif.com/" style="fill-rule:evenodd;clip-rule:evenodd;stroke-linejoin:round;stroke-miterlimit:2;">
    <g transform="matrix(2.93915e-18,0.048,-0.042952,2.63005e-18,26.6476,-0.260304)">
        <path d="M119.948,173.403C119.948,170.165 117.595,167.536 114.698,167.536L65.876,167.536C62.978,167.536 60.626,170.165 60.626,173.403L60.626,200.782C60.626,204.02 62.978,206.649 65.876,206.649L114.698,206.649C117.595,206.649 119.948,204.02 119.948,200.782L119.948,173.403Z"/>
    </g>
    <g transform="matrix(2.93915e-18,0.048,-0.042952,2.63005e-18,26.6476,15.6129)">
        <path d="M119.948,173.403C119.948,170.165 117.595,167.536 114.698,167.536L65.876,167.536C62.978,167.536 60.626,170.165 60.626,173.403L60.626,200.782C60.626,204.02 62.978,206.649 65.876,206.649L114.698,206.649C117.595,206.649 119.948,204.02 119.948,200.782L119.948,173.403Z"/>
    </g>
    <g transform="matrix(2.93915e-18,0.048,-0.042952,2.63005e-18,26.6476,11.6446)">
        <path d="M119.948,173.403C119.948,170.165 117.595,167.536 114.698,167.536L65.876,167.536C62.978,167.536 60.626,170.165 60.626,173.403L60.626,200.782C60.626,204.02 62.978,206.649 65.876,206.649L114.698,206.649C117.595,206.649 119.948,204.02 119.948,200.782L119.948,173.403Z"/>
    </g>
    <g transform="matrix(2.93915e-18,0.048,-0.042952,2.63005e-18,26.6476,7.67628)">
        <path d="M119.948,173.403C119.948,170.165 117.595,167.536 114.698,167.536L65.876,167.536C62.978,167.536 60.626,170.165 60.626,173.403L60.626,200.782C60.626,204.02 62.978,206.649 65.876,206.649L114.698,206.649C117.595,206.649 119.948,204.02 119.948,200.782L119.948,173.403Z"/>
    </g>
    <g transform="matrix(2.93915e-18,0.048,-0.042952,2.63005e-18,26.6476,3.70799)">
        <path d="M119.948,173.403C119.948,170.165 117.595,167.536 114.698,167.536L65.876,167.536C62.978,167.536 60.626,170.165 60.626,173.403L60.626,200.782C60.626,204.02 62.978,206.649 65.876,206.649L114.698,206.649C117.595,206.649 119.948,204.02 119.948,200.782L119.948,173.403Z"/>
    </g>
    <g transform="matrix(2.93915e-18,0.048,-0.042952,2.63005e-18,13.4244,-0.260304)">
        <path d="M119.948,173.403C119.948,170.165 117.595,167.536 114.698,167.536L65.876,167.536C62.978,167.536 60.626,170.165 60.626,173.403L60.626,200.782C60.626,204.02 62.978,206.649 65.876,206.649L114.698,206.649C117.595,206.649 119.948,204.02 119.948,200.782L119.948,173.403Z"/>
    </g>
    <g transform="matrix(2.93915e-18,0.048,-0.042952,2.63005e-18,13.4244,15.6129)">
        <path d="M119.948,173.403C119.948,170.165 117.595,167.536 114.698,167.536L65.876,167.536C62.978,167.536 60.626,170.165 60.626,173.403L60.626,200.782C60.626,204.02 62.978,206.649 65.876,206.649L114.698,206.649C117.595,206.649 119.948,204.02 119.948,200.782L119.948,173.403Z"/>
    </g>
    <g transform="matrix(2.93915e-18,0.048,-0.042952,2.63005e-18,13.4244,11.6446)">
        <path d="M119.948,173.403C119.948,170.165 117.595,167.536 114.698,167.536L65.876,167.536C62.978,167.536 60.626,170.165 60.626,173.403L60.626,200.782C60.626,204.02 62.978,206.649 65.876,206.649L114.698,206.649C117.595,206.649 119.948,204.02 119.948,200.782L119.948,173.403Z"/>
    </g>
    <g transform="matrix(2.93915e-18,0.048,-0.042952,2.63005e-18,13.4244,7.67628)">
        <path d="M119.948,173.403C119.948,170.165 117.595,167.536 114.698,167.536L65.876,167.536C62.978,167.536 60.626,170.165 60.626,173.403L60.626,200.782C60.626,204.02 62.978,206.649 65.876,206.649L114.698,206.649C117.595,206.649 119.948,204.02 119.948,200.782L119.948,173.403Z"/>
    </g>
    <g transform="matrix(2.93915e-18,0.048,-0.042952,2.63005e-18,13.4244,3.70799)">
        <path d="M119.948,173.403C119.948,170.165 117.595,167.536 114.698,167.536L65.876,167.536C62.978,167.536 60.626,170.165 60.626,173.403L60.626,200.782C60.626,204.02 62.978,206.649 65.876,206.649L114.698,206.649C117.595,206.649 119.948,204.02 119.948,200.782L119.948,173.403Z"/>
    </g>
    <g transform="matrix(0.0483738,0,0,0.048,-0.0588687,0.0100476)">
        <path d="M187.243,140.357C187.243,132.078 180.573,125.357 172.359,125.357C164.144,125.357 157.475,132.078 157.475,140.357L157.475,359.643C157.475,367.922 164.144,374.643 172.359,374.643C180.573,374.643 187.243,367.922 187.243,359.643L187.243,140.357Z"/>
    </g>
    <g transform="matrix(0.0276694,-0.0396791,0.0349219,0.024352,-1.45862,10.1216)">
        <path d="M187.243,142.268C187.243,132.935 180.573,125.357 172.359,125.357C164.144,125.357 157.475,132.935 157.475,142.268L157.475,357.732C157.475,367.065 164.144,374.643 172.359,374.643C180.573,374.643 187.243,367.065 187.243,357.732L187.243,142.268Z"/>
    </g>
    <g transform="matrix(0.0276694,0.0396791,0.0349403,-0.0243649,-1.46093,13.9001)">
        <path d="M187.243,142.259C187.243,132.931 180.573,125.357 172.359,125.357C164.144,125.357 157.475,132.931 157.475,142.259L157.475,357.741C157.475,367.069 164.144,374.643 172.359,374.643C180.573,374.643 187.243,367.069 187.243,357.741L187.243,142.259Z"/>
    </g>
    <g transform="matrix(0.048,0,0,0.048,0,0.0100476)">
        <path d="M455.241,31.845C455.241,20.657 446.159,11.575 434.971,11.575L65.029,11.575C53.841,11.575 44.759,20.657 44.759,31.845L44.759,467.737C44.759,478.924 53.841,488.007 65.029,488.007L434.971,488.007C446.159,488.007 455.241,478.924 455.241,467.737L455.241,31.845ZM425.241,47.448C425.241,44.207 422.61,41.575 419.368,41.575L80.632,41.575C77.39,41.575 74.759,44.207 74.759,47.448L74.759,452.133C74.759,455.375 77.39,458.007 80.632,458.007L419.368,458.007C422.61,458.007 425.241,455.375 425.241,452.133L425.241,47.448Z"/>
    </g>
</svg>
