<?xml version="1.0" encoding="UTF-8" standalone="no"?>
<!DOCTYPE svg PUBLIC "-//W3C//DTD SVG 1.1//EN" "http://www.w3.org/Graphics/SVG/1.1/DTD/svg11.dtd">
<svg width="100%" height="100%" viewBox="0 0 24 24" version="1.1" xmlns="http://www.w3.org/2000/svg" xmlns:xlink="http://www.w3.org/1999/xlink" xml:space="preserve" xmlns:serif="http://www.serif.com/" style="fill-rule:evenodd;clip-rule:evenodd;stroke-linejoin:round;stroke-miterlimit:2;">
    <g transform="matrix(0.048,0,0,0.048,0,0)">
        <path d="M105.424,347.552C144.058,347.552 175.424,378.918 175.424,417.552C175.424,456.186 144.058,487.552 105.424,487.552C66.79,487.552 35.424,456.186 35.424,417.552C35.424,378.918 66.79,347.552 105.424,347.552ZM105.424,377.552C127.501,377.552 145.424,395.476 145.424,417.552C145.424,439.629 127.501,457.552 105.424,457.552C83.348,457.552 65.424,439.629 65.424,417.552C65.424,395.476 83.348,377.552 105.424,377.552Z"/>
    </g>
    <g transform="matrix(0.048,0,0,0.048,-0.0127736,0)">
        <path d="M358.233,277.552C396.867,277.552 428.233,308.918 428.233,347.552C428.233,386.186 396.867,417.552 358.233,417.552C319.599,417.552 288.233,386.186 288.233,347.552C288.233,308.918 319.599,277.552 358.233,277.552ZM358.233,307.552C380.31,307.552 398.233,325.476 398.233,347.552C398.233,369.629 380.31,387.552 358.233,387.552C336.157,387.552 318.233,369.629 318.233,347.552C318.233,325.476 336.157,307.552 358.233,307.552Z"/>
    </g>
    <g transform="matrix(0.0359747,0,0,0.0502194,-0.308061,1.59818)">
        <rect x="202.598" y="61.587" width="40.028" height="305.688"/>
    </g>
    <g transform="matrix(0.0359747,0,0,0.0500614,11.814,-1.70381)">
        <rect x="202.598" y="62.055" width="40.028" height="305.22"/>
    </g>
    <g transform="matrix(0.018635,0.0695467,-0.0751945,0.0201483,23.035,-8.31306)">
        <path d="M185.295,86.496C185.295,81.391 180.814,77.247 175.295,77.247C169.776,77.247 165.295,81.391 165.295,86.496L165.295,240.274C165.295,245.378 169.776,249.522 175.295,249.522C180.814,249.522 185.295,245.378 185.295,240.274L185.295,86.496Z"/>
    </g>
    <g transform="matrix(0.018635,0.0695467,-0.0784368,0.0210171,23.3101,-12.5962)">
        <path d="M185.295,86.114C185.295,81.22 180.814,77.247 175.295,77.247C169.776,77.247 165.295,81.22 165.295,86.114L165.295,240.656C165.295,245.549 169.776,249.522 175.295,249.522C180.814,249.522 185.295,245.549 185.295,240.656L185.295,86.114Z"/>
    </g>
</svg>
