<?xml version="1.0" encoding="UTF-8" standalone="no"?>
<!DOCTYPE svg PUBLIC "-//W3C//DTD SVG 1.1//EN" "http://www.w3.org/Graphics/SVG/1.1/DTD/svg11.dtd">
<svg width="100%" height="100%" viewBox="0 0 24 24" version="1.1" xmlns="http://www.w3.org/2000/svg" xmlns:xlink="http://www.w3.org/1999/xlink" xml:space="preserve" xmlns:serif="http://www.serif.com/" style="fill-rule:evenodd;clip-rule:evenodd;stroke-linejoin:round;stroke-miterlimit:2;">
    <g transform="matrix(0.0932372,0,0,0.0264091,-22.2659,7.75742)">
        <rect x="417.01" y="98.08" width="54.527" height="54.527"/>
    </g>
    <g transform="matrix(0.26652,0,0,0.0264091,-108.59,-1.1298)">
        <rect x="417.01" y="98.08" width="54.527" height="54.527"/>
    </g>
    <g transform="matrix(0.175358,0,0,0.0264091,-68.329,1.3662)">
        <rect x="417.01" y="98.08" width="54.527" height="54.527"/>
    </g>
    <g transform="matrix(0.175358,0,0,0.0264091,-68.329,3.5262)">
        <rect x="417.01" y="98.08" width="54.527" height="54.527"/>
    </g>
    <g transform="matrix(0.0776449,0,0,0.0264091,-27.5815,7.1262)">
        <rect x="417.01" y="98.08" width="54.527" height="54.527"/>
    </g>
    <g transform="matrix(0.0776449,0,0,0.0264091,-27.5815,9.2862)">
        <rect x="417.01" y="98.08" width="54.527" height="54.527"/>
    </g>
    <g transform="matrix(0.0776449,0,0,0.0264091,-27.5815,11.4462)">
        <rect x="417.01" y="98.08" width="54.527" height="54.527"/>
    </g>
    <g transform="matrix(0.0776449,0,0,0.0264091,-27.5815,13.6062)">
        <rect x="417.01" y="98.08" width="54.527" height="54.527"/>
    </g>
    <g transform="matrix(0.0776449,0,0,0.0264091,-27.5815,15.7662)">
        <rect x="417.01" y="98.08" width="54.527" height="54.527"/>
    </g>
    <g transform="matrix(0.0776449,0,0,0.0264091,-22.2535,7.1262)">
        <rect x="417.01" y="98.08" width="54.527" height="54.527"/>
    </g>
    <g transform="matrix(0.0776449,0,0,0.0264091,-22.2535,9.2862)">
        <rect x="417.01" y="98.08" width="54.527" height="54.527"/>
    </g>
    <g transform="matrix(0.0776449,0,0,0.0264091,-22.2535,11.4462)">
        <rect x="417.01" y="98.08" width="54.527" height="54.527"/>
    </g>
    <g transform="matrix(0.0776449,0,0,0.0264091,-22.2535,13.6062)">
        <rect x="417.01" y="98.08" width="54.527" height="54.527"/>
    </g>
    <g transform="matrix(0.0776449,0,0,0.0264091,-22.2535,15.7662)">
        <rect x="417.01" y="98.08" width="54.527" height="54.527"/>
    </g>
    <g transform="matrix(0.048,0,0,0.048,0,0)">
        <path d="M390.85,474.575L390.85,444.575L107.601,444.575C91.231,444.575 77.941,431.285 77.941,414.915L77.941,30.425L47.941,30.425L47.941,418.023C47.941,449.235 73.281,474.575 104.493,474.575L390.85,474.575Z"/>
    </g>
    <g transform="matrix(0.048,0,0,0.048,13.5216,0)">
        <path d="M117.187,474.575L117.187,444.575L107.601,444.575C91.231,444.575 77.941,431.285 77.941,414.915L77.941,30.425L47.941,30.425L47.941,418.023C47.941,449.235 73.281,474.575 104.493,474.575L117.187,474.575Z"/>
    </g>
    <g transform="matrix(-0.048,0,0,0.048,24,0)">
        <path d="M125.418,474.575L125.418,444.575L107.601,444.575C91.231,444.575 77.941,431.285 77.941,414.915L77.941,217.425L47.941,217.425L47.941,418.023C47.941,449.235 73.281,474.575 104.493,474.575L125.418,474.575Z"/>
    </g>
</svg>
