<?xml version="1.0" encoding="UTF-8" standalone="no"?>
<!DOCTYPE svg PUBLIC "-//W3C//DTD SVG 1.1//EN" "http://www.w3.org/Graphics/SVG/1.1/DTD/svg11.dtd">
<svg width="100%" height="100%" viewBox="0 0 24 24" version="1.1" xmlns="http://www.w3.org/2000/svg" xmlns:xlink="http://www.w3.org/1999/xlink" xml:space="preserve" xmlns:serif="http://www.serif.com/" style="fill-rule:evenodd;clip-rule:evenodd;stroke-linejoin:round;stroke-miterlimit:2;">
    <g transform="matrix(0.048,0,0,0.048,-2.07407,-1.28395)">
        <path d="M250,50.899C296.913,50.899 335,88.986 335,135.899C335,182.812 296.913,220.899 250,220.899C203.087,220.899 165,182.812 165,135.899C165,88.986 203.087,50.899 250,50.899ZM250,80.899C280.355,80.899 305,105.544 305,135.899C305,166.254 280.355,190.899 250,190.899C219.645,190.899 195,166.254 195,135.899C195,105.544 219.645,80.899 250,80.899Z"/>
    </g>
    <g transform="matrix(0.048,0,0,0.048,0,0)">
        <path d="M267.924,417.899C248.525,420.804 227.85,422.352 206.79,422.352C113.189,422.352 27.197,397.393 27.197,347.38C27.197,278.406 113.189,212.408 206.79,212.408C257.138,212.408 305.284,231.504 339.026,259.884C326.52,261.391 314.712,265.182 304.033,270.828C278.573,254.196 245.15,242.408 206.79,242.408C119.09,242.408 57.197,302.254 57.197,344.319C57.197,371.388 135.962,392.352 206.79,392.352C222.471,392.352 238.542,391.063 254.051,388.821C257.121,399.32 261.847,409.115 267.924,417.899Z"/>
    </g>
    <g transform="matrix(0.048,0,0,0.048,0.888889,0.277512)">
        <path d="M338.45,234.616C404.68,234.616 458.45,288.386 458.45,354.616C458.45,420.846 404.68,474.616 338.45,474.616C272.22,474.616 218.45,420.846 218.45,354.616C218.45,288.386 272.22,234.616 338.45,234.616ZM338.45,264.616C388.122,264.616 428.45,304.944 428.45,354.616C428.45,404.289 388.122,444.616 338.45,444.616C288.778,444.616 248.45,404.289 248.45,354.616C248.45,304.944 288.778,264.616 338.45,264.616Z"/>
    </g>
    <g transform="matrix(0.0499886,0,0,0.0433317,-0.7798,12.2462)">
        <path d="M372.771,55.683C372.771,46.513 366.317,39.067 358.368,39.067C350.418,39.067 343.964,46.513 343.964,55.683L343.964,177.534C343.964,186.705 350.418,194.15 358.368,194.15C366.317,194.15 372.771,186.705 372.771,177.534L372.771,55.683Z"/>
    </g>
    <g transform="matrix(3.06092e-18,0.0499886,-0.0433317,2.6533e-18,22.1873,-0.615191)">
        <path d="M372.771,55.683C372.771,46.513 366.317,39.067 358.368,39.067C350.418,39.067 343.964,46.513 343.964,55.683L343.964,177.534C343.964,186.705 350.418,194.15 358.368,194.15C366.317,194.15 372.771,186.705 372.771,177.534L372.771,55.683Z"/>
    </g>
</svg>
