<?xml version="1.0" encoding="UTF-8" standalone="no"?>
<!DOCTYPE svg PUBLIC "-//W3C//DTD SVG 1.1//EN" "http://www.w3.org/Graphics/SVG/1.1/DTD/svg11.dtd">
<svg width="100%" height="100%" viewBox="0 0 24 24" version="1.1" xmlns="http://www.w3.org/2000/svg" xmlns:xlink="http://www.w3.org/1999/xlink" xml:space="preserve" xmlns:serif="http://www.serif.com/" style="fill-rule:evenodd;clip-rule:evenodd;stroke-linejoin:round;stroke-miterlimit:2;">
    <g transform="matrix(0.048826,0,0,0.0400132,1.22674,3.68638)">
        <path d="M108.711,83.838C108.711,73.906 102.103,65.844 93.964,65.844C85.826,65.844 79.218,73.906 79.218,83.838L79.218,464.173C79.218,474.104 85.826,482.167 93.964,482.167C102.103,482.167 108.711,474.104 108.711,464.173L108.711,83.838Z"/>
    </g>
    <g transform="matrix(0.048826,0,0,0.0400132,13.5974,3.68638)">
        <path d="M108.711,83.838C108.711,73.906 102.103,65.844 93.964,65.844C85.826,65.844 79.218,73.906 79.218,83.838L79.218,464.173C79.218,474.104 85.826,482.167 93.964,482.167C102.103,482.167 108.711,474.104 108.711,464.173L108.711,83.838Z"/>
    </g>
    <g transform="matrix(2.98973e-18,0.048826,-0.033173,2.03126e-18,21.0896,17.6715)">
        <path d="M108.711,87.548C108.711,75.569 102.103,65.844 93.964,65.844C85.826,65.844 79.218,75.569 79.218,87.548L79.218,460.463C79.218,472.442 85.826,482.167 93.964,482.167C102.103,482.167 108.711,472.442 108.711,460.463L108.711,87.548Z"/>
    </g>
    <g transform="matrix(2.98973e-18,0.048826,-0.00944975,5.7863e-19,14.5893,15.2715)">
        <path d="M108.711,142.036C108.711,99.984 102.103,65.844 93.964,65.844C85.826,65.844 79.218,99.984 79.218,142.036L79.218,405.975C79.218,448.027 85.826,482.167 93.964,482.167C102.103,482.167 108.711,448.027 108.711,405.975L108.711,142.036Z"/>
    </g>
    <g transform="matrix(0.048,0,0,0.048,0,0.263374)">
        <path d="M249.742,175.773C238.822,175.635 230,166.727 230,155.775C230,144.737 238.962,135.775 250,135.775L250.258,135.777C261.178,135.915 270,144.823 270,155.775C270,166.813 261.038,175.775 250,175.775L249.742,175.773ZM249.538,105.777C229.985,105.954 213.097,117.38 205.038,133.891C201.559,141.02 192.493,144.402 183.805,138.82C174.223,132.663 177.446,121.668 179.906,117.209C193.528,92.519 219.824,75.775 250,75.775L250.353,75.776C280.381,75.906 306.525,92.615 320.094,117.209C322.554,121.668 325.777,132.663 316.195,138.82C307.507,144.402 298.441,141.02 294.962,133.891C286.84,117.25 269.749,105.775 250,105.775L249.538,105.777ZM250.576,15.776C299.471,15.973 342.487,41.29 367.374,79.478C372.447,86.02 370.601,96.825 363.636,101.3C350.59,109.682 342.972,96.995 342.961,96.977C323.45,66.212 289.093,45.775 250,45.775C210.907,45.775 176.55,66.212 157.039,96.977C157.028,96.995 149.41,109.682 136.364,101.3C129.399,96.825 127.553,86.02 132.626,79.478C157.611,41.14 200.867,15.775 250,15.775L250.576,15.776Z"/>
    </g>
</svg>
