<?xml version="1.0" encoding="UTF-8" standalone="no"?>
<!DOCTYPE svg PUBLIC "-//W3C//DTD SVG 1.1//EN" "http://www.w3.org/Graphics/SVG/1.1/DTD/svg11.dtd">
<svg width="100%" height="100%" viewBox="0 0 24 24" version="1.1" xmlns="http://www.w3.org/2000/svg" xmlns:xlink="http://www.w3.org/1999/xlink" xml:space="preserve" xmlns:serif="http://www.serif.com/" style="fill-rule:evenodd;clip-rule:evenodd;stroke-linejoin:round;stroke-miterlimit:2;">
    <g transform="matrix(0.048,0,0,0.048,0,0)">
        <path d="M481.747,152.318C481.747,135.503 468.095,121.851 451.28,121.851L48.72,121.851C31.905,121.851 18.253,135.503 18.253,152.318L18.253,395.817C18.253,412.632 31.905,426.284 48.72,426.284L451.28,426.284C468.095,426.284 481.747,412.632 481.747,395.817L481.747,152.318ZM451.747,160.126C451.747,155.559 448.039,151.851 443.472,151.851L56.528,151.851C51.961,151.851 48.253,155.559 48.253,160.126L48.253,388.01C48.253,392.577 51.961,396.284 56.528,396.284L443.472,396.284C448.039,396.284 451.747,392.577 451.747,388.01L451.747,160.126Z"/>
    </g>
    <g transform="matrix(0.048,0,0,0.048,0.00563233,0.00563233)">
        <path d="M249.883,168.95C307.834,168.95 354.883,215.999 354.883,273.95C354.883,331.902 307.834,378.95 249.883,378.95C191.932,378.95 144.883,331.902 144.883,273.95C144.883,215.999 191.932,168.95 249.883,168.95ZM249.883,198.95C291.276,198.95 324.883,232.557 324.883,273.95C324.883,315.344 291.276,348.95 249.883,348.95C208.489,348.95 174.883,315.344 174.883,273.95C174.883,232.557 208.489,198.95 249.883,198.95Z"/>
    </g>
    <g transform="matrix(0.02777,0.02777,-0.0290556,0.0290556,4.94543,-9.21476)">
        <path d="M342.96,146.18C342.96,136.509 334.745,128.658 324.627,128.658C314.508,128.658 306.294,136.509 306.294,146.18L306.294,230.292C306.294,239.962 314.508,247.814 324.627,247.814C334.745,247.814 342.96,239.962 342.96,230.292L342.96,146.18Z"/>
    </g>
    <g transform="matrix(-0.02777,0.02777,0.0290556,0.0290556,19.0446,-9.21476)">
        <path d="M342.96,146.18C342.96,136.509 334.745,128.658 324.627,128.658C314.508,128.658 306.294,136.509 306.294,146.18L306.294,230.292C306.294,239.962 314.508,247.814 324.627,247.814C334.745,247.814 342.96,239.962 342.96,230.292L342.96,146.18Z"/>
    </g>
    <g transform="matrix(-0.0340112,0.0196364,0.106511,0.184482,3.02039,-29.1769)">
        <path d="M342.96,132.038C342.96,130.172 334.745,128.658 324.627,128.658C314.508,128.658 306.294,130.172 306.294,132.038L306.294,244.434C306.294,246.299 314.508,247.814 324.627,247.814C334.745,247.814 342.96,246.299 342.96,244.434L342.96,132.038Z"/>
    </g>
    <g transform="matrix(-1.92374e-20,0.0392727,0.0499531,-2.46664e-20,2.59662,-8.70137)">
        <path d="M342.96,143.071C342.96,135.116 334.745,128.658 324.627,128.658C314.508,128.658 306.294,135.116 306.294,143.071L306.294,233.4C306.294,241.355 314.508,247.814 324.627,247.814C334.745,247.814 342.96,241.355 342.96,233.4L342.96,143.071Z"/>
    </g>
</svg>
