<?xml version="1.0" encoding="UTF-8" standalone="no"?>
<!DOCTYPE svg PUBLIC "-//W3C//DTD SVG 1.1//EN" "http://www.w3.org/Graphics/SVG/1.1/DTD/svg11.dtd">
<svg width="100%" height="100%" viewBox="0 0 24 24" version="1.1" xmlns="http://www.w3.org/2000/svg" xmlns:xlink="http://www.w3.org/1999/xlink" xml:space="preserve" xmlns:serif="http://www.serif.com/" style="fill-rule:evenodd;clip-rule:evenodd;stroke-linejoin:round;stroke-miterlimit:2;">
    <g transform="matrix(0.048,0,0,0.048,0,0.172018)">
        <path d="M265,70.174C333.885,72.03 389.238,128.534 389.238,197.865L389.238,316.895C389.238,349.013 409.449,376.448 437.832,387.165C444.798,388.461 450.078,394.575 450.078,401.912C450.078,410.191 443.356,416.912 435.078,416.912L64.922,416.912C56.644,416.912 49.922,410.191 49.922,401.912C49.922,394.162 55.812,387.778 63.357,386.993C91.504,376.157 111.5,348.843 111.5,316.895L111.5,197.865C111.5,128.781 166.46,72.433 235,70.196L235,70.126L265,70.126L265,70.174ZM238.795,100.126C185.096,100.126 141.5,143.723 141.5,197.421L141.5,316.896C141.5,343.778 131.384,368.317 114.75,386.912L385.989,386.912C369.355,368.317 359.238,343.778 359.238,316.896L359.238,197.421C359.238,143.723 315.642,100.126 261.943,100.126L238.795,100.126Z"/>
    </g>
    <g transform="matrix(0.048,0,0,0.048,0,0.412018)">
        <path d="M250.022,3.983C274.858,3.983 295.022,24.147 295.022,48.983C295.022,73.819 274.858,93.983 250.022,93.983C225.186,93.983 205.022,73.819 205.022,48.983C205.022,24.147 225.186,3.983 250.022,3.983ZM250.022,33.983C258.301,33.983 265.022,40.704 265.022,48.983C265.022,57.262 258.301,63.983 250.022,63.983C241.744,63.983 235.022,57.262 235.022,48.983C235.022,40.704 241.744,33.983 250.022,33.983Z"/>
    </g>
    <g transform="matrix(0.048,0,0,0.048,0,0.172018)">
        <path d="M330.452,403.079C330.454,403.338 330.456,403.594 330.456,403.85C330.456,448.003 294.609,483.85 250.456,483.85C206.302,483.85 170.456,448.003 170.456,403.85C170.456,403.594 170.457,403.338 170.46,403.079L200.462,403.079C200.458,403.337 200.456,403.593 200.456,403.85C200.456,431.445 222.86,453.85 250.456,453.85C278.051,453.85 300.456,431.445 300.456,403.85C300.456,403.593 300.454,403.337 300.45,403.079L330.452,403.079Z"/>
    </g>
</svg>
