<?xml version="1.0" encoding="UTF-8" standalone="no"?>
<!DOCTYPE svg PUBLIC "-//W3C//DTD SVG 1.1//EN" "http://www.w3.org/Graphics/SVG/1.1/DTD/svg11.dtd">
<svg width="100%" height="100%" viewBox="0 0 24 24" version="1.1" xmlns="http://www.w3.org/2000/svg" xmlns:xlink="http://www.w3.org/1999/xlink" xml:space="preserve" xmlns:serif="http://www.serif.com/" style="fill-rule:evenodd;clip-rule:evenodd;stroke-linejoin:round;stroke-miterlimit:2;">
    <g transform="matrix(0.0443757,0,0,0.0552505,-1.67018,-0.0845398)">
        <path d="M441.358,24.691C441.358,17.499 434.088,11.66 425.133,11.66L85.155,11.66C76.2,11.66 68.93,17.499 68.93,24.691C68.93,31.884 76.2,37.723 85.155,37.723L425.133,37.723C434.088,37.723 441.358,31.884 441.358,24.691Z"/>
    </g>
    <g transform="matrix(0.0263425,0,0,0.0552505,2.93087,3.73439)">
        <path d="M441.358,24.691C441.358,17.499 429.111,11.66 414.026,11.66L96.262,11.66C81.177,11.66 68.93,17.499 68.93,24.691C68.93,31.884 81.177,37.723 96.262,37.723L414.026,37.723C429.111,37.723 441.358,31.884 441.358,24.691Z"/>
    </g>
    <g transform="matrix(0.00512707,0,0,0.0552505,4.39326,8.76594)">
        <path d="M441.358,24.691C441.358,17.499 378.433,11.66 300.927,11.66L209.361,11.66C131.855,11.66 68.93,17.499 68.93,24.691C68.93,31.884 131.855,37.723 209.361,37.723L300.927,37.723C378.433,37.723 441.358,31.884 441.358,24.691Z"/>
    </g>
    <g transform="matrix(0.00512707,0,0,0.0552505,4.39326,12.6123)">
        <path d="M441.358,24.691C441.358,17.499 378.433,11.66 300.927,11.66L209.361,11.66C131.855,11.66 68.93,17.499 68.93,24.691C68.93,31.884 131.855,37.723 209.361,37.723L300.927,37.723C378.433,37.723 441.358,31.884 441.358,24.691Z"/>
    </g>
    <g transform="matrix(0.00512707,0,0,0.0552505,4.39326,16.4587)">
        <path d="M441.358,24.691C441.358,17.499 378.433,11.66 300.927,11.66L209.361,11.66C131.855,11.66 68.93,17.499 68.93,24.691C68.93,31.884 131.855,37.723 209.361,37.723L300.927,37.723C378.433,37.723 441.358,31.884 441.358,24.691Z"/>
    </g>
    <g transform="matrix(3.72401e-18,0.0608177,-0.0552505,3.38312e-18,3.47285,-3.63249)">
        <path d="M441.358,24.691C441.358,17.499 436.053,11.66 429.519,11.66L80.769,11.66C74.235,11.66 68.93,17.499 68.93,24.691C68.93,31.884 74.235,37.723 80.769,37.723L429.519,37.723C436.053,37.723 441.358,31.884 441.358,24.691Z"/>
    </g>
    <g transform="matrix(0.048,0,0,0.048,1.4587,-0.214124)">
        <path d="M432.848,207.385L402.848,207.385L402.848,271.388C402.848,298.984 380.443,321.388 352.848,321.388C325.252,321.388 302.848,298.984 302.848,271.388L302.848,207.385L272.848,207.385L272.848,271.388C272.848,315.541 308.695,351.388 352.848,351.388C397.001,351.388 432.848,315.541 432.848,271.388L432.848,207.385Z"/>
    </g>
    <g transform="matrix(0.048,0,0,0.0389189,0.84079,0.954349)">
        <path d="M465.221,215.885C465.221,205.675 458.5,197.385 450.221,197.385L281.221,197.385C272.942,197.385 266.221,205.675 266.221,215.885C266.221,226.096 272.942,234.385 281.221,234.385L450.221,234.385C458.5,234.385 465.221,226.096 465.221,215.885Z"/>
    </g>
    <g transform="matrix(0.048,0,0,0.048,-1.92,0)">
        <path d="M383.237,188.998L413.237,188.998L413.237,26.66C413.237,18.381 406.516,11.66 398.237,11.66C389.959,11.66 383.237,18.381 383.237,26.66L383.237,188.998Z"/>
    </g>
    <g transform="matrix(0.048,0,0,-0.048,1.4587,32.0604)">
        <path d="M432.848,207.385L402.848,207.385L402.848,271.388C402.848,298.984 380.443,321.388 352.848,321.388C325.252,321.388 302.848,298.984 302.848,271.388L302.848,207.385L272.848,207.385L272.848,271.388C272.848,315.541 308.695,351.388 352.848,351.388C397.001,351.388 432.848,315.541 432.848,271.388L432.848,207.385Z"/>
    </g>
    <g transform="matrix(0.048,0,0,-0.0389189,0.84079,30.8919)">
        <path d="M465.221,215.885C465.221,205.675 458.5,197.385 450.221,197.385L281.221,197.385C272.942,197.385 266.221,205.675 266.221,215.885C266.221,226.096 272.942,234.385 281.221,234.385L450.221,234.385C458.5,234.385 465.221,226.096 465.221,215.885Z"/>
    </g>
    <g transform="matrix(0.048,0,0,0.048,-1.92,0)">
        <path d="M335.028,453.539L335.028,483.539L83.93,483.539C75.651,483.539 68.93,476.818 68.93,468.539C68.93,460.26 75.651,453.539 83.93,453.539L335.028,453.539Z"/>
    </g>
    <g transform="matrix(0.048,0,0,0.048,-1.92,0)">
        <path d="M357.394,276.177L226.591,276.177C218.312,276.177 211.591,282.899 211.591,291.177C211.591,299.456 218.312,306.177 226.591,306.177L365.946,306.177C361.746,296.798 358.822,286.725 357.394,276.177Z"/>
    </g>
    <g transform="matrix(0.048,0,0,0.048,-1.92,0)">
        <path d="M364.43,356.31L226.591,356.31C218.312,356.31 211.591,363.031 211.591,371.31C211.591,379.589 218.312,386.31 226.591,386.31L356.693,386.31C357.858,375.795 360.509,365.723 364.43,356.31Z"/>
    </g>
    <g transform="matrix(0.048,0,0,0.048,-1.92,0)">
        <path d="M350.984,196.045L226.591,196.045C218.312,196.045 211.591,202.766 211.591,211.045C211.591,219.324 218.312,226.045 226.591,226.045L364.43,226.045L364.43,224.693C356.438,217.652 351.301,207.446 350.984,196.045Z"/>
    </g>
    <g transform="matrix(0.048,0,0,0.0355305,0.04079,-0.872734)">
        <rect x="330.388" y="424.719" width="104" height="28.82"/>
    </g>
    <g transform="matrix(0.048,0,0,0.0366408,0.04079,5.29582)">
        <rect x="330.388" y="424.719" width="104" height="28.82"/>
    </g>
    <g transform="matrix(2.93915e-18,0.048,-0.0499648,3.05946e-18,40.3364,0.535276)">
        <rect x="330.388" y="424.719" width="104" height="28.82"/>
    </g>
</svg>
