<?xml version="1.0" encoding="UTF-8" standalone="no"?>
<!DOCTYPE svg PUBLIC "-//W3C//DTD SVG 1.1//EN" "http://www.w3.org/Graphics/SVG/1.1/DTD/svg11.dtd">
<svg width="100%" height="100%" viewBox="0 0 24 24" version="1.1" xmlns="http://www.w3.org/2000/svg" xmlns:xlink="http://www.w3.org/1999/xlink" xml:space="preserve" xmlns:serif="http://www.serif.com/" style="fill-rule:evenodd;clip-rule:evenodd;stroke-linejoin:round;stroke-miterlimit:2;">
    <g transform="matrix(0.0384,0,0,0.0384,1.42135,1.96064)">
        <circle cx="122.224" cy="215.761" r="37.5"/>
    </g>
    <g transform="matrix(0.0384,0,0,0.0384,4.66135,-2.60069)">
        <circle cx="122.224" cy="215.761" r="37.5"/>
    </g>
    <g transform="matrix(0.0384,0,0,0.0384,10.3973,-2.60069)">
        <circle cx="122.224" cy="215.761" r="37.5"/>
    </g>
    <g transform="matrix(0.0384,0,0,0.0384,13.9493,1.96064)">
        <circle cx="122.224" cy="215.761" r="37.5"/>
    </g>
    <g transform="matrix(0.048,0,0,0.048,0,0)">
        <path d="M281.39,366.396C254.311,400.334 306.215,418.694 284.636,454.931C270.069,479.394 175.176,481.53 94.336,400.69C-4.801,301.553 22.029,95.416 177.128,38.809C326.444,-15.687 509.403,117.322 474.139,256.261C458.423,318.182 409.076,357.493 340.192,352.993C315.029,351.349 297.118,346.685 281.39,366.396ZM259.128,348.134C230.202,390.39 252.961,418.298 260.733,435.669C266.68,448.963 182.615,447.817 114.912,380.114C37.275,302.477 42.485,118.992 188.89,65.558C315.313,19.418 475.599,132.786 445.646,250.798C434.544,294.54 392.155,323.187 351.39,323.187C320.686,323.187 282.98,313.291 259.128,348.134Z"/>
    </g>
</svg>
