<?xml version="1.0" encoding="UTF-8" standalone="no"?>
<!DOCTYPE svg PUBLIC "-//W3C//DTD SVG 1.1//EN" "http://www.w3.org/Graphics/SVG/1.1/DTD/svg11.dtd">
<svg width="100%" height="100%" viewBox="0 0 24 24" version="1.1" xmlns="http://www.w3.org/2000/svg" xmlns:xlink="http://www.w3.org/1999/xlink" xml:space="preserve" xmlns:serif="http://www.serif.com/" style="fill-rule:evenodd;clip-rule:evenodd;stroke-linejoin:round;stroke-miterlimit:2;">
    <g transform="matrix(0.048,0,0,0.048,0.861878,-0.165746)">
        <path d="M411.257,33.872C411.257,23.944 403.197,15.884 393.269,15.884L70.819,15.884C60.891,15.884 52.831,23.944 52.831,33.872L52.831,473.034C52.831,482.962 60.891,491.022 70.819,491.022L393.269,491.022C403.197,491.022 411.257,482.962 411.257,473.034L411.257,33.872ZM381.257,52.206C381.257,48.717 378.424,45.884 374.934,45.884L89.154,45.884C85.664,45.884 82.831,48.717 82.831,52.206L82.831,454.7C82.831,458.189 85.664,461.022 89.154,461.022L374.934,461.022C378.424,461.022 381.257,458.189 381.257,454.7L381.257,52.206Z"/>
    </g>
    <g transform="matrix(0.581309,0,0,0.0830769,-0.56353,13.0802)">
        <rect x="12.946" y="47.473" width="17.333" height="17.333"/>
    </g>
    <g transform="matrix(0.581309,0,0,0.0830769,-0.56353,15.4497)">
        <rect x="12.946" y="47.473" width="17.333" height="17.333"/>
    </g>
    <g transform="matrix(0.048,0,0,0.048,0.861878,-0.165746)">
        <path d="M232.044,72.619C298.282,72.619 352.058,126.395 352.058,192.633C352.058,258.87 298.282,312.646 232.044,312.646C165.807,312.646 112.03,258.87 112.03,192.633C112.03,126.395 165.807,72.619 232.044,72.619ZM232.044,102.633C281.717,102.633 322.044,142.96 322.044,192.633C322.044,242.305 281.717,282.633 232.044,282.633C182.372,282.633 142.044,242.305 142.044,192.633C142.044,142.96 182.372,102.633 232.044,102.633Z"/>
    </g>
    <g transform="matrix(0.048,0,0,0.048,0.861878,-0.165746)">
        <path d="M252.196,283.223C252.196,283.223 248.928,253.003 230.669,255.223C222.446,256.223 204.725,262.48 205.196,238.473C205.446,225.723 216.196,213.473 232.946,219.223C249.696,224.973 253.696,227.723 268.196,222.223C282.696,216.723 286.946,223.223 290.696,232.223C294.446,241.223 295.446,241.723 301.446,245.473C307.446,249.223 309.946,252.973 309.946,252.973L298.446,284.723L269.696,285.473L252.196,283.223Z"/>
    </g>
    <g transform="matrix(0.048,0,0,0.048,0.861878,-0.165746)">
        <path d="M321.446,225.223C321.446,225.223 310.618,222.165 302.696,211.867C295.196,202.117 286.446,190.133 272.196,192.633C261.596,194.492 220.919,205.394 220.919,194.633C220.919,175.171 256.219,176.477 269.196,161.973C273.446,157.223 277.085,145.22 272.196,140.473C268.515,136.9 252.554,142.473 250,137.973C247.446,133.473 246.446,126.973 264.696,127.473C282.946,127.973 291.446,122.473 295.196,119.223C298.946,115.973 329.946,143.473 329.946,143.473L321.446,225.223Z"/>
    </g>
    <g transform="matrix(0.048,0,0,0.048,0.861878,-0.165746)">
        <path d="M191.696,104.223C191.696,104.223 203.13,108.223 197.788,120.973C193.896,130.262 176.946,132.223 169.696,134.723C162.446,137.223 153.446,143.723 153.446,143.723L172.946,104.723L191.696,104.223"/>
    </g>
</svg>
