<?xml version="1.0" encoding="UTF-8" standalone="no"?>
<!DOCTYPE svg PUBLIC "-//W3C//DTD SVG 1.1//EN" "http://www.w3.org/Graphics/SVG/1.1/DTD/svg11.dtd">
<svg width="100%" height="100%" viewBox="0 0 24 24" version="1.1" xmlns="http://www.w3.org/2000/svg" xmlns:xlink="http://www.w3.org/1999/xlink" xml:space="preserve" xmlns:serif="http://www.serif.com/" style="fill-rule:evenodd;clip-rule:evenodd;stroke-linejoin:round;stroke-miterlimit:2;">
    <g transform="matrix(0.04,0,0,0.04,14.2258,2)">
        <circle cx="117.017" cy="250" r="30"/>
    </g>
    <g transform="matrix(0.04,0,0,0.04,9.65829,2)">
        <circle cx="117.017" cy="250" r="30"/>
    </g>
    <g transform="matrix(0.04,0,0,0.04,5.09077,2)">
        <circle cx="117.017" cy="250" r="30"/>
    </g>
    <g transform="matrix(0.04,0,0,0.04,0.523258,2)">
        <circle cx="117.017" cy="250" r="30"/>
    </g>
    <g transform="matrix(0.048,0,0,0.048,2.72848e-15,-1.36424e-15)">
        <path d="M482.735,180.442C482.735,154.848 461.956,134.069 436.363,134.069L63.637,134.069C38.044,134.069 17.265,154.848 17.265,180.442L17.265,319.558C17.265,345.152 38.044,365.931 63.637,365.931L436.363,365.931C461.956,365.931 482.735,345.152 482.735,319.558L482.735,180.442ZM452.735,182.07C452.735,172.135 444.669,164.069 434.734,164.069L65.266,164.069C55.331,164.069 47.265,172.135 47.265,182.07L47.265,317.93C47.265,327.865 55.331,335.931 65.266,335.931L434.734,335.931C444.669,335.931 452.735,327.865 452.735,317.93L452.735,182.07Z"/>
    </g>
</svg>
