<?xml version="1.0" encoding="UTF-8" standalone="no"?>
<!DOCTYPE svg PUBLIC "-//W3C//DTD SVG 1.1//EN" "http://www.w3.org/Graphics/SVG/1.1/DTD/svg11.dtd">
<svg width="100%" height="100%" viewBox="0 0 24 24" version="1.1" xmlns="http://www.w3.org/2000/svg" xmlns:xlink="http://www.w3.org/1999/xlink" xml:space="preserve" xmlns:serif="http://www.serif.com/" style="fill-rule:evenodd;clip-rule:evenodd;stroke-linejoin:round;stroke-miterlimit:2;">
    <g transform="matrix(0.048,0,0,0.0338632,-0.28957,1.75306)">
        <path d="M426.955,131.687C426.955,119.952 420.233,110.425 411.955,110.425L50.111,110.425C41.832,110.425 35.111,119.952 35.111,131.687C35.111,143.422 41.832,152.949 50.111,152.949L411.955,152.949C420.233,152.949 426.955,143.422 426.955,131.687Z"/>
    </g>
    <g transform="matrix(0.048,0,0,0.0338632,-0.28957,12.0576)">
        <path d="M426.955,131.687C426.955,119.952 420.233,110.425 411.955,110.425L50.111,110.425C41.832,110.425 35.111,119.952 35.111,131.687C35.111,143.422 41.832,152.949 50.111,152.949L411.955,152.949C420.233,152.949 426.955,143.422 426.955,131.687Z"/>
    </g>
    <g transform="matrix(0.048,0,0,0.0338632,2.11043,14.4576)">
        <path d="M426.955,131.687C426.955,119.952 420.233,110.425 411.955,110.425L50.111,110.425C41.832,110.425 35.111,119.952 35.111,131.687C35.111,143.422 41.832,152.949 50.111,152.949L411.955,152.949C420.233,152.949 426.955,143.422 426.955,131.687Z"/>
    </g>
    <g transform="matrix(1.83528e-18,0.0299725,-0.0338632,2.07352e-18,6.5751,4.44006)">
        <path d="M426.955,131.687C426.955,119.952 416.191,110.425 402.933,110.425L59.133,110.425C45.875,110.425 35.111,119.952 35.111,131.687C35.111,143.422 45.875,152.949 59.133,152.949L402.933,152.949C416.191,152.949 426.955,143.422 426.955,131.687Z"/>
    </g>
    <g transform="matrix(1.83528e-18,0.0299725,-0.0338632,2.07352e-18,23.9436,4.44006)">
        <path d="M426.955,131.687C426.955,119.952 416.191,110.425 402.933,110.425L59.133,110.425C45.875,110.425 35.111,119.952 35.111,131.687C35.111,143.422 45.875,152.949 59.133,152.949L402.933,152.949C416.191,152.949 426.955,143.422 426.955,131.687Z"/>
    </g>
    <g transform="matrix(1.83528e-18,0.0299725,-0.0338632,2.07352e-18,26.3436,6.84006)">
        <path d="M426.955,131.687C426.955,119.952 416.191,110.425 402.933,110.425L59.133,110.425C45.875,110.425 35.111,119.952 35.111,131.687C35.111,143.422 45.875,152.949 59.133,152.949L402.933,152.949C416.191,152.949 426.955,143.422 426.955,131.687Z"/>
    </g>
    <g transform="matrix(0.048,0,0,0.048,-0.286123,0.184263)">
        <path d="M230.961,160.425C270.975,160.425 303.461,192.911 303.461,232.925C303.461,272.939 270.975,305.425 230.961,305.425C190.947,305.425 158.461,272.939 158.461,232.925C158.461,192.911 190.947,160.425 230.961,160.425ZM230.961,190.425C254.417,190.425 273.461,209.469 273.461,232.925C273.461,256.382 254.417,275.425 230.961,275.425C207.505,275.425 188.461,256.382 188.461,232.925C188.461,209.469 207.505,190.425 230.961,190.425Z"/>
    </g>
</svg>
