<?xml version="1.0" encoding="UTF-8" standalone="no"?>
<!DOCTYPE svg PUBLIC "-//W3C//DTD SVG 1.1//EN" "http://www.w3.org/Graphics/SVG/1.1/DTD/svg11.dtd">
<svg width="100%" height="100%" viewBox="0 0 24 24" version="1.1" xmlns="http://www.w3.org/2000/svg" xmlns:xlink="http://www.w3.org/1999/xlink" xml:space="preserve" xmlns:serif="http://www.serif.com/" style="fill-rule:evenodd;clip-rule:evenodd;stroke-linejoin:round;stroke-miterlimit:2;">
    <g transform="matrix(0.0315653,0,0,0.0552505,1.13284,-0.0845398)">
        <path d="M441.358,24.691C441.358,17.499 431.137,11.66 418.548,11.66L91.74,11.66C79.151,11.66 68.93,17.499 68.93,24.691C68.93,31.884 79.151,37.723 91.74,37.723L418.548,37.723C431.137,37.723 441.358,31.884 441.358,24.691Z"/>
    </g>
    <g transform="matrix(1.02594e-18,0.0167549,-0.0552505,3.38312e-18,15.7087,-0.595246)">
        <path d="M441.358,24.691C441.358,17.499 422.103,11.66 398.386,11.66L111.903,11.66C88.185,11.66 68.93,17.499 68.93,24.691C68.93,31.884 88.185,37.723 111.903,37.723L398.386,37.723C422.103,37.723 441.358,31.884 441.358,24.691Z"/>
    </g>
    <g transform="matrix(-0.0155836,-0.0155836,0.039068,-0.039068,19.7342,8.61315)">
        <path d="M441.358,24.691C441.358,17.499 426.719,11.66 408.688,11.66L101.6,11.66C83.569,11.66 68.93,17.499 68.93,24.691C68.93,31.884 83.569,37.723 101.6,37.723L408.688,37.723C426.719,37.723 441.358,31.884 441.358,24.691Z"/>
    </g>
    <g transform="matrix(-0.0166769,2.04233e-18,-6.76624e-18,-0.0552505,20.9849,7.44388)">
        <path d="M441.358,24.691C441.358,17.499 422.013,11.66 398.185,11.66L112.104,11.66C88.275,11.66 68.93,17.499 68.93,24.691C68.93,31.884 88.275,37.723 112.104,37.723L398.185,37.723C422.013,37.723 441.358,31.884 441.358,24.691Z"/>
    </g>
    <g transform="matrix(3.72401e-18,0.0608177,-0.0552505,3.38312e-18,5.39285,-3.63249)">
        <path d="M441.358,24.691C441.358,17.499 436.053,11.66 429.519,11.66L80.769,11.66C74.235,11.66 68.93,17.499 68.93,24.691C68.93,31.884 74.235,37.723 80.769,37.723L429.519,37.723C436.053,37.723 441.358,31.884 441.358,24.691Z"/>
    </g>
    <g transform="matrix(-0.0443757,0,0,-0.0552505,22.8942,23.8541)">
        <path d="M441.358,24.691C441.358,17.499 434.088,11.66 425.133,11.66L85.155,11.66C76.2,11.66 68.93,17.499 68.93,24.691C68.93,31.884 76.2,37.723 85.155,37.723L425.133,37.723C434.088,37.723 441.358,31.884 441.358,24.691Z"/>
    </g>
    <g transform="matrix(-1.6514e-18,-0.0479293,0.0552505,-4.54906e-18,17.7512,26.5136)">
        <path d="M441.358,24.691C441.358,17.499 434.627,11.66 426.336,11.66L83.952,11.66C75.661,11.66 68.93,17.499 68.93,24.691C68.93,31.884 75.661,37.723 83.952,37.723L426.336,37.723C434.627,37.723 441.358,31.884 441.358,24.691Z"/>
    </g>
    <g transform="matrix(0.048,0,0,0.048,-1.22468,1.62238)">
        <path d="M154.154,250C145.927,250.062 139.268,256.759 139.268,265L139.268,348.932C139.268,357.211 145.989,363.932 154.268,363.932C162.546,363.932 169.268,357.211 169.268,348.932L169.268,325L181.654,325C202.351,325 219.154,308.197 219.154,287.5C219.154,266.803 202.351,250 181.654,250L154.154,250L154.154,250ZM169.268,295L181.654,295C185.794,295 189.154,291.639 189.154,287.5C189.154,283.361 185.794,280 181.654,280L169.268,280L169.268,295Z"/>
    </g>
    <g transform="matrix(0.048,0,0,0.048,8.58846,3.84)">
        <path d="M114.61,218.8C114.604,218.976 114.601,219.155 114.601,219.333L114.601,303.266C114.601,311.545 121.322,318.266 129.601,318.266C137.88,318.266 144.601,311.545 144.601,303.266L144.601,280L163.488,280C171.766,280 178.488,273.279 178.488,265C178.488,256.721 171.766,250 163.488,250L144.601,250L144.601,233.266L174.488,233.266C182.766,233.266 189.488,226.545 189.488,218.266C189.488,209.987 182.766,203.266 174.488,203.266L129.601,203.266C121.322,203.266 114.601,209.987 114.601,218.266C114.601,218.445 114.604,218.623 114.61,218.8Z"/>
    </g>
    <g transform="matrix(0.048,0,0,0.048,0.28216,7.11676)">
        <path d="M212.665,250L212.762,250L220.149,250C251.884,250 277.649,224.235 277.649,192.5C277.649,160.765 251.884,135 220.149,135L212.762,135C204.483,135 197.762,141.721 197.762,150L197.762,235C197.762,243.246 204.431,249.948 212.665,250ZM227.762,166.069L227.762,218.931C239.242,215.625 247.649,205.037 247.649,192.5C247.649,179.963 239.242,169.375 227.762,166.069Z"/>
    </g>
</svg>
