<?xml version="1.0" encoding="UTF-8" standalone="no"?>
<!DOCTYPE svg PUBLIC "-//W3C//DTD SVG 1.1//EN" "http://www.w3.org/Graphics/SVG/1.1/DTD/svg11.dtd">
<svg width="100%" height="100%" viewBox="0 0 24 24" version="1.1" xmlns="http://www.w3.org/2000/svg" xmlns:xlink="http://www.w3.org/1999/xlink" xml:space="preserve" xmlns:serif="http://www.serif.com/" style="fill-rule:evenodd;clip-rule:evenodd;stroke-linejoin:round;stroke-miterlimit:2;">
    <g transform="matrix(0.048,0,0,0.048,-0.0125762,-0.0100252)">
        <path d="M70.805,170.602C42.138,180.587 29.034,217.89 41.56,253.853C54.086,289.817 87.529,310.908 116.195,300.924C144.862,290.939 157.966,253.636 145.44,217.673C132.914,181.709 99.471,160.618 70.805,170.602ZM80.422,198.214C66.582,203.035 64.814,231.814 69.82,246.188C75.573,262.706 92.512,278.211 106.578,273.312C120.644,268.412 123.651,244.107 117.897,227.588C113.077,213.749 94.262,193.394 80.422,198.214Z"/>
    </g>
    <g transform="matrix(0.048,0,0,0.048,-0.0125762,-0.0100252)">
        <path d="M175.403,42.65C209.824,40.394 240.041,73.214 242.838,115.896C245.636,158.578 219.962,195.062 185.541,197.318C151.121,199.574 120.904,166.754 118.106,124.072C115.308,81.39 140.982,44.906 175.403,42.65ZM177.734,71.459C196.328,70.24 212.47,91.965 214.162,117.775C215.673,140.832 202.804,167.906 184.21,169.125C165.617,170.343 148.456,149.971 146.783,124.442C145.271,101.386 159.14,72.678 177.734,71.459Z"/>
    </g>
    <g transform="matrix(-0.048,0,0,0.048,24.0126,-0.0100252)">
        <path d="M70.805,170.602C42.138,180.587 29.034,217.89 41.56,253.853C54.086,289.817 87.529,310.908 116.195,300.924C144.862,290.939 157.966,253.636 145.44,217.673C132.914,181.709 99.471,160.618 70.805,170.602ZM80.422,198.214C66.582,203.035 64.814,231.814 69.82,246.188C75.573,262.706 92.512,278.211 106.578,273.312C120.644,268.412 123.651,244.107 117.897,227.588C113.077,213.749 94.262,193.394 80.422,198.214Z"/>
    </g>
    <g transform="matrix(-0.048,0,0,0.048,24.0126,-0.0100252)">
        <path d="M175.403,42.65C209.824,40.394 240.041,73.214 242.838,115.896C245.636,158.578 219.962,195.062 185.541,197.318C151.121,199.574 120.904,166.754 118.106,124.072C115.308,81.39 140.982,44.906 175.403,42.65ZM177.734,71.459C196.328,70.24 212.47,91.965 214.162,117.775C215.673,140.832 202.804,167.906 184.21,169.125C165.617,170.343 148.456,149.971 146.783,124.442C145.271,101.386 159.14,72.678 177.734,71.459Z"/>
    </g>
    <g transform="matrix(0.048,0,0,0.048,-0.0125762,-0.0100252)">
        <path d="M247.267,441.333C212.306,441.333 187.317,460.958 158.267,457.46C117.538,452.555 107.485,414.293 106.566,387.666C105.399,353.878 119.031,320.757 159.6,307.735C197.024,295.722 197.9,239.347 251.971,238.739C306.042,238.131 308.526,297.172 342.469,308.401C387.844,323.413 400.709,354.998 397.376,393.016C394.043,431.034 375.731,454.673 343.066,457.46C303.889,460.802 278.066,441.333 247.267,441.333ZM248.62,412.744C223.276,412.744 209.827,417.305 184.101,426.435C144.681,440.426 136.288,407.487 136.288,388.173C136.288,347.679 152.749,343.453 180.401,330.895C217.272,314.149 219.492,268.877 252.03,268.877C284.568,268.877 282.69,307.375 320.052,329.711C344.945,344.594 372.819,343.567 368.772,389.718C365.507,426.958 347.841,434.659 318.067,427.435C292.334,421.191 270.947,412.744 248.62,412.744Z"/>
    </g>
</svg>
