<?xml version="1.0" encoding="UTF-8" standalone="no"?>
<!DOCTYPE svg PUBLIC "-//W3C//DTD SVG 1.1//EN" "http://www.w3.org/Graphics/SVG/1.1/DTD/svg11.dtd">
<svg width="100%" height="100%" viewBox="0 0 24 24" version="1.1" xmlns="http://www.w3.org/2000/svg" xmlns:xlink="http://www.w3.org/1999/xlink" xml:space="preserve" xmlns:serif="http://www.serif.com/" style="fill-rule:evenodd;clip-rule:evenodd;stroke-linejoin:round;stroke-miterlimit:2;">
    <g transform="matrix(0.048,0,0,0.048,0.384,-0.325122)">
        <path d="M379.21,134.469C406.806,134.469 429.21,156.873 429.21,184.469C429.21,212.065 406.806,234.469 379.21,234.469C351.614,234.469 329.21,212.065 329.21,184.469C329.21,156.873 351.614,134.469 379.21,134.469ZM379.21,164.469C390.248,164.469 399.21,173.431 399.21,184.469C399.21,195.507 390.248,204.469 379.21,204.469C368.172,204.469 359.21,195.507 359.21,184.469C359.21,173.431 368.172,164.469 379.21,164.469Z"/>
    </g>
    <g transform="matrix(0.048,0,0,0.048,-0.133485,-0.15431)">
        <path d="M487.781,83.215L17.781,83.215L17.781,423.215L487.781,423.215L487.781,83.215ZM457.781,113.215L47.781,113.215L47.781,393.215L457.781,393.215L457.781,113.215Z"/>
    </g>
    <g transform="matrix(0.0280713,0.0280713,-0.110813,0.110813,5.2332,3.34419)">
        <rect x="58.321" y="18.492" width="36.273" height="36.273"/>
    </g>
    <g transform="matrix(0.0280713,0.0280713,-0.11746,0.11746,14.3598,5.74014)">
        <rect x="58.321" y="18.492" width="36.273" height="36.273"/>
    </g>
    <g transform="matrix(-0.0280713,0.0280713,0.186902,0.186902,3.00213,1.93713)">
        <rect x="58.321" y="18.492" width="36.273" height="36.273"/>
    </g>
    <g transform="matrix(-0.0280713,0.0280713,0.251216,0.251216,10.8143,3.26671)">
        <rect x="58.321" y="18.492" width="36.273" height="36.273"/>
    </g>
</svg>
