<?xml version="1.0" encoding="UTF-8" standalone="no"?>
<!DOCTYPE svg PUBLIC "-//W3C//DTD SVG 1.1//EN" "http://www.w3.org/Graphics/SVG/1.1/DTD/svg11.dtd">
<svg width="100%" height="100%" viewBox="0 0 24 24" version="1.1" xmlns="http://www.w3.org/2000/svg" xmlns:xlink="http://www.w3.org/1999/xlink" xml:space="preserve" xmlns:serif="http://www.serif.com/" style="fill-rule:evenodd;clip-rule:evenodd;stroke-linejoin:round;stroke-miterlimit:2;">
    <g transform="matrix(0.0339411,0.0339411,-0.0339411,0.0339411,12.1406,-5.30997)">
        <path d="M372.5,104.216C372.5,42.125 322.09,-8.284 260,-8.284C197.91,-8.284 147.5,42.125 147.5,104.216L147.5,395.784C147.5,457.875 197.91,508.284 260,508.284C322.09,508.284 372.5,457.875 372.5,395.784L372.5,104.216ZM342.5,104.216C342.5,58.683 305.533,21.716 260,21.716C214.467,21.716 177.5,58.683 177.5,104.216L177.5,395.784C177.5,441.317 214.467,478.284 260,478.284C305.533,478.284 342.5,441.317 342.5,395.784L342.5,104.216Z"/>
    </g>
    <g transform="matrix(0.155416,0.155416,-0.0247431,0.0247431,7.61304,-0.508126)">
        <rect x="35.322" y="133.834" width="41.152" height="41.152"/>
    </g>
    <g transform="matrix(0.0163141,0.0163141,-0.0339411,0.0339411,17.4557,0.00518456)">
        <path d="M330.933,251.46C330.933,243.181 316.949,236.46 299.726,236.46C282.502,236.46 268.519,243.181 268.519,251.46L268.519,384.612C268.519,392.891 282.502,399.612 299.726,399.612C316.949,399.612 330.933,392.891 330.933,384.612L330.933,251.46Z"/>
    </g>
</svg>
