<?xml version="1.0" encoding="UTF-8" standalone="no"?>
<!DOCTYPE svg PUBLIC "-//W3C//DTD SVG 1.1//EN" "http://www.w3.org/Graphics/SVG/1.1/DTD/svg11.dtd">
<svg width="100%" height="100%" viewBox="0 0 24 24" version="1.1" xmlns="http://www.w3.org/2000/svg" xmlns:xlink="http://www.w3.org/1999/xlink" xml:space="preserve" xmlns:serif="http://www.serif.com/" style="fill-rule:evenodd;clip-rule:evenodd;stroke-linejoin:round;stroke-miterlimit:2;">
    <g transform="matrix(0.0339411,0.0339411,-0.0339411,0.0339411,13.3484,-6.35358)">
        <path d="M153.59,490.879C138.129,490.879 135.09,474.077 135.09,466.659C135.09,455.24 136.566,442.321 153.847,431.449C177.889,416.324 209.296,396.65 209.296,396.65L202.688,293.969C202.688,293.969 72.485,334.241 31.502,348.142C10.252,355.349 7.138,328.103 7.138,317.21C7.138,306.317 11.924,288.956 25.822,278.195C61.451,250.605 196.928,154.048 196.928,152.706C196.928,125.721 190.538,75.271 198.585,49.514C208.145,18.912 232.224,7.584 250,7.68C267.776,7.584 291.855,18.912 301.415,49.514C309.462,75.271 303.072,125.721 303.072,152.706C303.072,154.048 438.549,250.605 474.178,278.195C488.076,288.956 492.862,306.317 492.862,317.21C492.862,328.103 489.748,355.349 468.498,348.142C427.515,334.241 297.312,293.969 297.312,293.969L290.704,396.65C290.704,396.65 322.111,416.324 346.153,431.449C363.434,442.321 364.91,455.24 364.91,466.659C364.91,474.077 361.871,490.879 346.41,490.879L153.59,490.879ZM331.395,461.084C336.223,461.084 335.088,459.981 332.254,458.221C318.142,449.459 275.071,422.645 264.457,415.231C260.791,412.67 260.197,410.492 260.282,407.591C261.046,381.34 269.045,257.723 269.045,257.723C269.045,257.723 268.759,253.089 272.576,254.327C289.524,259.825 367.97,285.299 404.41,297.659C425.659,304.866 456.468,315.343 460.022,316.43C464.854,317.908 464.063,308.887 460.068,305.794C424.438,278.204 271.667,166.209 271.754,164.87C273.754,134.219 278.631,79.385 272.754,60.575C268.765,47.807 259.383,38.042 250,38.042C240.617,38.042 231.235,47.807 227.246,60.575C221.369,79.385 226.246,134.219 228.246,164.87C228.333,166.209 75.562,278.204 39.932,305.794C35.937,308.887 35.146,317.908 39.978,316.43C43.532,315.343 74.341,304.866 95.59,297.659C132.03,285.299 210.476,259.825 227.424,254.327C231.241,253.089 230.955,257.723 230.955,257.723C230.955,257.723 238.954,381.34 239.718,407.591C239.803,410.492 239.209,412.67 235.543,415.231C224.929,422.645 181.858,449.459 167.746,458.221C164.912,459.981 163.777,461.084 168.605,461.084L331.395,461.084Z"/>
    </g>
</svg>
