<?xml version="1.0" encoding="UTF-8" standalone="no"?>
<!DOCTYPE svg PUBLIC "-//W3C//DTD SVG 1.1//EN" "http://www.w3.org/Graphics/SVG/1.1/DTD/svg11.dtd">
<svg width="100%" height="100%" viewBox="0 0 24 24" version="1.1" xmlns="http://www.w3.org/2000/svg" xmlns:xlink="http://www.w3.org/1999/xlink" xml:space="preserve" xmlns:serif="http://www.serif.com/" style="fill-rule:evenodd;clip-rule:evenodd;stroke-linejoin:round;stroke-miterlimit:2;">
    <g transform="matrix(0.0217519,-0.0125585,0.01944,0.0336711,3.12239,9.20531)">
        <path d="M331.962,133.059C331.962,122.838 319.117,114.54 303.296,114.54L65.703,114.54C49.882,114.54 37.037,122.838 37.037,133.059C37.037,143.28 49.882,151.578 65.703,151.578L303.296,151.578C319.117,151.578 331.962,143.28 331.962,133.059Z"/>
    </g>
    <g transform="matrix(0.0184631,-0.0106597,0.01944,0.0336711,4.26085,10.8959)">
        <path d="M331.962,133.059C331.962,122.838 316.829,114.54 298.189,114.54L70.809,114.54C52.17,114.54 37.037,122.838 37.037,133.059C37.037,143.28 52.17,151.578 70.809,151.578L298.189,151.578C316.829,151.578 331.962,143.28 331.962,133.059Z"/>
    </g>
    <g transform="matrix(0.0415692,-0.024,0.024,0.0415692,-3.5297,6.01493)">
        <circle cx="383.853" cy="258.117" r="18.366"/>
    </g>
    <g transform="matrix(0.0415692,-0.024,0.024,0.0415692,-3.63108,5.83948)">
        <path d="M41.738,135.187C41.738,126.908 48.459,120.187 56.738,120.187L338.079,120.187C338.173,120.187 338.267,120.188 338.362,120.189C342.295,120.116 346.251,121.579 349.25,124.577L476.405,251.732C482.259,257.586 482.259,267.091 476.405,272.945C476.346,273.004 476.287,273.062 476.228,273.119L349.25,400.098C346.271,403.076 342.347,404.539 338.441,404.487C338.32,404.49 338.2,404.491 338.079,404.491L56.738,404.491C48.459,404.491 41.738,397.77 41.738,389.491L41.738,135.187ZM71.738,150.187L71.738,374.491L332.43,374.491L444.583,262.337L332.433,150.187L71.738,150.187Z"/>
    </g>
    <g transform="matrix(0.0415692,-0.024,0.024,0.0415692,-3.63108,5.83948)">
        <path d="M282.46,337.674C266.25,350.533 245.758,358.214 223.486,358.214C171.054,358.214 128.486,315.646 128.486,263.214C128.486,210.782 171.054,168.214 223.486,168.214C245.77,168.214 266.272,175.903 282.484,188.773C282.678,188.914 282.87,189.061 283.059,189.213C283.255,189.371 283.446,189.532 283.632,189.698C283.948,189.957 284.262,190.218 284.574,190.48L284.511,190.547C289.632,195.908 290.11,204.374 285.337,210.303C280.145,216.752 270.695,217.773 264.246,212.582C264.113,212.474 263.982,212.365 263.853,212.254L263.839,212.269C252.747,203.47 238.726,198.214 223.486,198.214C187.612,198.214 158.486,227.339 158.486,263.214C158.486,299.088 187.612,328.214 223.486,328.214C238.683,328.214 252.668,322.988 263.738,314.239L263.754,314.258C263.91,314.122 264.067,313.99 264.229,313.86C270.679,308.671 280.129,309.695 285.318,316.146C290.508,322.596 289.483,332.046 283.033,337.235C282.845,337.387 282.654,337.533 282.46,337.674Z"/>
    </g>
</svg>
