<?xml version="1.0" encoding="UTF-8" standalone="no"?>
<!DOCTYPE svg PUBLIC "-//W3C//DTD SVG 1.1//EN" "http://www.w3.org/Graphics/SVG/1.1/DTD/svg11.dtd">
<svg width="100%" height="100%" viewBox="0 0 24 24" version="1.1" xmlns="http://www.w3.org/2000/svg" xmlns:xlink="http://www.w3.org/1999/xlink" xml:space="preserve" xmlns:serif="http://www.serif.com/" style="fill-rule:evenodd;clip-rule:evenodd;stroke-linejoin:round;stroke-miterlimit:2;">
    <g transform="matrix(0.048,0,0,0.048,0,0.0264819)">
        <path d="M294.034,127.572L294.034,157.572L392.25,157.572L392.25,415.711C392.25,430.91 379.91,443.25 364.711,443.25L107.75,443.25L107.75,345.339L77.75,345.339L77.75,473.25L367.22,473.25C397.592,473.25 422.25,448.592 422.25,418.22L422.25,127.572L294.034,127.572ZM204.085,127.572L204.085,157.572L107.75,157.572L107.75,255.539L77.75,255.539L77.75,127.572L204.085,127.572Z"/>
    </g>
    <g transform="matrix(0.048,0,0,0.048,0,0.0264819)">
        <path d="M77.75,345.339L107.755,345.339C114.385,348.587 121.836,350.411 129.709,350.411C157.305,350.411 179.709,328.007 179.709,300.411C179.709,272.815 157.305,250.411 129.709,250.411C121.792,250.411 114.302,252.255 107.642,255.539L77.75,255.539L77.75,239.599C91.734,227.638 109.884,220.411 129.709,220.411C173.862,220.411 209.709,256.258 209.709,300.411C209.709,344.564 173.862,380.411 129.709,380.411C109.884,380.411 91.734,373.184 77.75,361.223L77.75,345.339Z"/>
    </g>
    <g transform="matrix(0.048,0,0,0.048,0,0.0264819)">
        <path d="M204.085,157.596L188.23,157.596C176.274,143.614 169.05,125.467 169.05,105.647C169.05,61.493 204.897,25.647 249.05,25.647C293.204,25.647 329.05,61.493 329.05,105.647C329.05,125.467 321.827,143.614 309.87,157.596L294.034,157.596L294.034,127.486C297.247,120.887 299.05,113.476 299.05,105.647C299.05,78.051 276.646,55.647 249.05,55.647C221.455,55.647 199.05,78.051 199.05,105.647C199.05,113.489 200.86,120.913 204.085,127.524L204.085,157.596Z"/>
    </g>
</svg>
