<?xml version="1.0" encoding="UTF-8" standalone="no"?>
<!DOCTYPE svg PUBLIC "-//W3C//DTD SVG 1.1//EN" "http://www.w3.org/Graphics/SVG/1.1/DTD/svg11.dtd">
<svg width="100%" height="100%" viewBox="0 0 24 24" version="1.1" xmlns="http://www.w3.org/2000/svg" xmlns:xlink="http://www.w3.org/1999/xlink" xml:space="preserve" xmlns:serif="http://www.serif.com/" style="fill-rule:evenodd;clip-rule:evenodd;stroke-linejoin:round;stroke-miterlimit:2;">
    <g transform="matrix(0.048,0,0,0.048,-0.14348,-0.294275)">
        <circle cx="230.765" cy="451.131" r="15"/>
    </g>
    <g transform="matrix(0.0355163,0.0322892,-0.0286379,0.0315,13.4088,-10.332)">
        <path d="M440.765,213.127C440.765,203.792 434.043,196.214 425.765,196.214C417.486,196.214 410.765,203.792 410.765,213.127L410.765,292.052C410.765,301.386 417.486,308.964 425.765,308.964C434.043,308.964 440.765,301.386 440.765,292.052L440.765,213.127Z"/>
    </g>
    <g transform="matrix(-0.0322892,0.0355163,0.0315,0.0286379,24.7147,-10.8701)">
        <path d="M440.765,213.127C440.765,203.792 434.043,196.214 425.765,196.214C417.486,196.214 410.765,203.792 410.765,213.127L410.765,292.052C410.765,301.386 417.486,308.964 425.765,308.964C434.043,308.964 440.765,301.386 440.765,292.052L440.765,213.127Z"/>
    </g>
    <g transform="matrix(0.048,0,0,0.048,-0.383478,-0.619695)">
        <path d="M235.765,472.91C119.862,472.91 25.765,378.812 25.765,262.91C25.765,147.008 119.862,52.91 235.765,52.91C351.667,52.91 445.765,147.008 445.765,262.91C445.765,265.437 445.72,267.953 445.631,270.464L415.609,270.464C415.712,267.965 415.765,265.444 415.765,262.91C415.765,163.566 335.109,82.91 235.765,82.91C136.42,82.91 55.765,163.566 55.765,262.91C55.765,362.255 136.42,442.91 235.765,442.91L235.765,472.91Z"/>
    </g>
</svg>
