<?xml version="1.0" encoding="UTF-8" standalone="no"?>
<!DOCTYPE svg PUBLIC "-//W3C//DTD SVG 1.1//EN" "http://www.w3.org/Graphics/SVG/1.1/DTD/svg11.dtd">
<svg width="100%" height="100%" viewBox="0 0 24 24" version="1.1" xmlns="http://www.w3.org/2000/svg" xmlns:xlink="http://www.w3.org/1999/xlink" xml:space="preserve" xmlns:serif="http://www.serif.com/" style="fill-rule:evenodd;clip-rule:evenodd;stroke-linejoin:round;stroke-miterlimit:2;">
    <g transform="matrix(0.048,0,0,0.048,-1.57381,-0.262036)">
        <path d="M465.672,373.623C465.672,279.642 389.371,203.341 295.389,203.341L85.904,203.341L85.904,203.339C77.625,203.339 70.904,196.617 70.904,188.339C70.904,180.06 77.625,173.339 85.904,173.339C85.984,173.339 86.064,173.339 86.144,173.341L294.385,173.341C405.478,173.341 495.672,263.534 495.672,374.627L495.672,405.359C495.672,413.638 488.951,420.359 480.672,420.359C472.393,420.359 465.672,413.638 465.672,405.359L465.672,373.623Z"/>
    </g>
    <g transform="matrix(0.0206612,0.0206612,-0.0354195,0.0354195,5.72965,-1.26682)">
        <path d="M383.711,187.715C383.711,179.781 372.669,173.341 359.069,173.341L165.553,173.341C151.954,173.341 140.912,179.781 140.912,187.715C140.912,195.648 151.954,202.088 165.553,202.088L359.069,202.088C372.669,202.088 383.711,195.648 383.711,187.715Z"/>
    </g>
    <g transform="matrix(0.0206592,-0.0206592,0.0354195,0.0354195,-7.56759,5.57396)">
        <path d="M383.711,187.715C383.711,179.781 372.668,173.341 359.067,173.341L165.556,173.341C151.955,173.341 140.912,179.781 140.912,187.715C140.912,195.648 151.955,202.088 165.556,202.088L359.067,202.088C372.668,202.088 383.711,195.648 383.711,187.715Z"/>
    </g>
</svg>
