<?xml version="1.0" encoding="UTF-8" standalone="no"?>
<!DOCTYPE svg PUBLIC "-//W3C//DTD SVG 1.1//EN" "http://www.w3.org/Graphics/SVG/1.1/DTD/svg11.dtd">
<svg width="100%" height="100%" viewBox="0 0 24 24" version="1.1" xmlns="http://www.w3.org/2000/svg" xmlns:xlink="http://www.w3.org/1999/xlink" xml:space="preserve" xmlns:serif="http://www.serif.com/" style="fill-rule:evenodd;clip-rule:evenodd;stroke-linejoin:round;stroke-miterlimit:2;">
    <g transform="matrix(0.0425535,0,0,0.0446507,-0.235102,0.847278)">
        <path d="M56.285,50.9C56.285,42 48.703,34.775 39.365,34.775C30.026,34.775 22.445,42 22.445,50.9L22.445,448.654C22.445,457.554 30.026,464.779 39.365,464.779C48.703,464.779 56.285,457.554 56.285,448.654L56.285,50.9Z"/>
    </g>
    <g transform="matrix(0.0425535,0,0,0.0446507,20.8849,0.847278)">
        <path d="M56.285,50.9C56.285,42 48.703,34.775 39.365,34.775C30.026,34.775 22.445,42 22.445,50.9L22.445,448.654C22.445,457.554 30.026,464.779 39.365,464.779C48.703,464.779 56.285,457.554 56.285,448.654L56.285,50.9Z"/>
    </g>
    <g transform="matrix(0.0425535,0,0,0.0312555,15.1249,1.31309)">
        <path d="M56.285,57.811C56.285,45.097 48.703,34.775 39.365,34.775C30.026,34.775 22.445,45.097 22.445,57.811L22.445,441.743C22.445,454.457 30.026,464.779 39.365,464.779C48.703,464.779 56.285,454.457 56.285,441.743L56.285,57.811Z"/>
    </g>
    <g transform="matrix(0.0425535,0,0,0.0178603,9.3649,1.77891)">
        <path d="M56.285,75.088C56.285,52.838 48.703,34.775 39.365,34.775C30.026,34.775 22.445,52.838 22.445,75.088L22.445,424.466C22.445,446.715 30.026,464.779 39.365,464.779C48.703,464.779 56.285,446.715 56.285,424.466L56.285,75.088Z"/>
    </g>
    <g transform="matrix(2.60565e-18,0.0425535,-0.0524646,3.21253e-18,25.1044,1.4449)">
        <path d="M56.285,48.498C56.285,40.924 48.703,34.775 39.365,34.775C30.026,34.775 22.445,40.924 22.445,48.498L22.445,451.055C22.445,458.63 30.026,464.779 39.365,464.779C48.703,464.779 56.285,458.63 56.285,451.055L56.285,48.498Z"/>
    </g>
    <g transform="matrix(2.60565e-18,0.0425535,-0.0524646,3.21253e-18,25.1044,19.2049)">
        <path d="M56.285,48.498C56.285,40.924 48.703,34.775 39.365,34.775C30.026,34.775 22.445,40.924 22.445,48.498L22.445,451.055C22.445,458.63 30.026,464.779 39.365,464.779C48.703,464.779 56.285,458.63 56.285,451.055L56.285,48.498Z"/>
    </g>
    <g transform="matrix(2.60565e-18,0.0425535,-0.0390694,2.39231e-18,18.8786,13.4449)">
        <path d="M56.285,53.204C56.285,43.032 48.703,34.775 39.365,34.775C30.026,34.775 22.445,43.032 22.445,53.204L22.445,446.35C22.445,456.521 30.026,464.779 39.365,464.779C48.703,464.779 56.285,456.521 56.285,446.35L56.285,53.204Z"/>
    </g>
    <g transform="matrix(2.60565e-18,0.0425535,-0.0256742,1.57209e-18,12.6528,7.6849)">
        <path d="M56.285,62.819C56.285,47.341 48.703,34.775 39.365,34.775C30.026,34.775 22.445,47.341 22.445,62.819L22.445,436.735C22.445,452.213 30.026,464.779 39.365,464.779C48.703,464.779 56.285,452.213 56.285,436.735L56.285,62.819Z"/>
    </g>
</svg>
