<?xml version="1.0" encoding="UTF-8" standalone="no"?>
<!DOCTYPE svg PUBLIC "-//W3C//DTD SVG 1.1//EN" "http://www.w3.org/Graphics/SVG/1.1/DTD/svg11.dtd">
<svg width="100%" height="100%" viewBox="0 0 24 24" version="1.1" xmlns="http://www.w3.org/2000/svg" xmlns:xlink="http://www.w3.org/1999/xlink" xml:space="preserve" xmlns:serif="http://www.serif.com/" style="fill-rule:evenodd;clip-rule:evenodd;stroke-linejoin:round;stroke-miterlimit:2;">
    <g transform="matrix(-0.0362921,0,0,0.048,23.7285,-4.52606e-10)">
        <path d="M68.244,97.356C68.244,89.077 59.355,82.356 48.405,82.356C37.456,82.356 28.566,89.077 28.566,97.356L28.566,402.644C28.566,410.923 37.456,417.644 48.405,417.644C59.355,417.644 68.244,410.923 68.244,402.644L68.244,97.356Z"/>
    </g>
    <g transform="matrix(-0.021778,0.0290316,0.0325599,0.0244247,10.0036,8.15296)">
        <path d="M68.244,100.045C68.244,90.282 59.355,82.356 48.405,82.356C37.456,82.356 28.566,90.282 28.566,100.045L28.566,399.955C28.566,409.718 37.456,417.644 48.405,417.644C59.355,417.644 68.244,409.718 68.244,399.955L68.244,100.045Z"/>
    </g>
    <g transform="matrix(-0.021778,-0.0290316,0.0325599,-0.0244247,10.0036,15.847)">
        <path d="M68.244,100.045C68.244,90.282 59.355,82.356 48.405,82.356C37.456,82.356 28.566,90.282 28.566,100.045L28.566,399.955C28.566,409.718 37.456,417.644 48.405,417.644C59.355,417.644 68.244,409.718 68.244,399.955L68.244,100.045Z"/>
    </g>
    <g transform="matrix(-0.0362921,0,0,0.048,13.5498,-4.52606e-10)">
        <path d="M68.244,97.356C68.244,89.077 59.355,82.356 48.405,82.356C37.456,82.356 28.566,89.077 28.566,97.356L28.566,402.644C28.566,410.923 37.456,417.644 48.405,417.644C59.355,417.644 68.244,410.923 68.244,402.644L68.244,97.356Z"/>
    </g>
    <g transform="matrix(-0.021778,0.0290316,0.0325599,0.0244247,-0.175165,8.15296)">
        <path d="M68.244,100.045C68.244,90.282 59.355,82.356 48.405,82.356C37.456,82.356 28.566,90.282 28.566,100.045L28.566,399.955C28.566,409.718 37.456,417.644 48.405,417.644C59.355,417.644 68.244,409.718 68.244,399.955L68.244,100.045Z"/>
    </g>
    <g transform="matrix(-0.021778,-0.0290316,0.0325599,-0.0244247,-0.175165,15.847)">
        <path d="M68.244,100.045C68.244,90.282 59.355,82.356 48.405,82.356C37.456,82.356 28.566,90.282 28.566,100.045L28.566,399.955C28.566,409.718 37.456,417.644 48.405,417.644C59.355,417.644 68.244,409.718 68.244,399.955L68.244,100.045Z"/>
    </g>
</svg>
