<?xml version="1.0" encoding="UTF-8" standalone="no"?>
<!DOCTYPE svg PUBLIC "-//W3C//DTD SVG 1.1//EN" "http://www.w3.org/Graphics/SVG/1.1/DTD/svg11.dtd">
<svg width="100%" height="100%" viewBox="0 0 24 24" version="1.1" xmlns="http://www.w3.org/2000/svg" xmlns:xlink="http://www.w3.org/1999/xlink" xml:space="preserve" xmlns:serif="http://www.serif.com/" style="fill-rule:evenodd;clip-rule:evenodd;stroke-linejoin:round;stroke-miterlimit:2;">
    <g transform="matrix(0.04884,0,0,0.0631855,-0.0582105,-8.7264)">
        <path d="M464.434,464.434C464.434,458.145 457.828,453.039 449.692,453.039L44.093,453.039C35.957,453.039 29.351,458.145 29.351,464.434C29.351,470.723 35.957,475.829 44.093,475.829L449.692,475.829C457.828,475.829 464.434,470.723 464.434,464.434Z"/>
    </g>
    <g transform="matrix(0.0268324,0,0,0.0631855,5.382,-25.9645)">
        <path d="M464.434,464.434C464.434,458.145 452.41,453.039 437.6,453.039L56.184,453.039C41.374,453.039 29.351,458.145 29.351,464.434C29.351,470.723 41.374,475.829 56.184,475.829L437.6,475.829C452.41,475.829 464.434,470.723 464.434,464.434Z"/>
    </g>
    <g transform="matrix(0.0118217,-0.0426994,0.0608947,0.0168592,-26.7252,14.7143)">
        <path d="M464.434,464.434C464.434,458.145 457.152,453.039 448.183,453.039L45.602,453.039C36.633,453.039 29.351,458.145 29.351,464.434C29.351,470.723 36.633,475.829 45.602,475.829L448.183,475.829C457.152,475.829 464.434,470.723 464.434,464.434Z"/>
    </g>
    <g transform="matrix(-0.0118245,-0.0427093,-0.0608947,0.0168592,50.7253,14.7146)">
        <path d="M464.434,464.434C464.434,458.145 457.154,453.039 448.187,453.039L45.598,453.039C36.631,453.039 29.351,458.145 29.351,464.434C29.351,470.723 36.631,475.829 45.598,475.829L448.187,475.829C457.154,475.829 464.434,470.723 464.434,464.434Z"/>
    </g>
    <g transform="matrix(0.048,0,0,0.0512934,-0.0448138,-1.66668)">
        <path d="M300.512,371.446C300.512,363.698 293.79,357.409 285.512,357.409L216.356,357.409C208.077,357.409 201.356,363.698 201.356,371.446C201.356,379.193 208.077,385.482 216.356,385.482L285.512,385.482C293.79,385.482 300.512,379.193 300.512,371.446Z"/>
    </g>
    <g transform="matrix(0.0450576,0,0,0.0512934,0.693536,-4.90054)">
        <path d="M300.512,371.446C300.512,363.698 293.351,357.409 284.532,357.409L217.335,357.409C208.516,357.409 201.356,363.698 201.356,371.446C201.356,379.193 208.516,385.482 217.335,385.482L284.532,385.482C293.351,385.482 300.512,379.193 300.512,371.446Z"/>
    </g>
    <g transform="matrix(0.0382233,0,0,0.0512934,2.40849,-11.2713)">
        <path d="M300.512,371.446C300.512,363.698 292.071,357.409 281.675,357.409L220.192,357.409C209.796,357.409 201.356,363.698 201.356,371.446C201.356,379.193 209.796,385.482 220.192,385.482L281.675,385.482C292.071,385.482 300.512,379.193 300.512,371.446Z"/>
    </g>
    <g transform="matrix(0.0363354,0,0,0.0512934,2.88458,-13.2681)">
        <path d="M300.512,371.446C300.512,363.698 291.633,357.409 280.696,357.409L221.171,357.409C210.235,357.409 201.356,363.698 201.356,371.446C201.356,379.193 210.235,385.482 221.171,385.482L280.696,385.482C291.633,385.482 300.512,379.193 300.512,371.446Z"/>
    </g>
    <g transform="matrix(-0.00236219,0.0456033,-0.0512247,-0.00265337,29.8691,8.47008)">
        <path d="M300.512,371.446C300.512,363.698 293.446,357.409 284.744,357.409L217.123,357.409C208.421,357.409 201.356,363.698 201.356,371.446C201.356,379.193 208.421,385.482 217.123,385.482L284.744,385.482C293.446,385.482 300.512,379.193 300.512,371.446Z"/>
    </g>
    <g transform="matrix(-0.00407983,0.0787631,-0.0512247,-0.00265337,30.7002,-7.81149)">
        <path d="M300.512,371.446C300.512,363.698 296.421,357.409 291.382,357.409L210.485,357.409C205.446,357.409 201.356,363.698 201.356,371.446C201.356,379.193 205.446,385.482 210.485,385.482L291.382,385.482C296.421,385.482 300.512,379.193 300.512,371.446Z"/>
    </g>
    <g transform="matrix(-0.0019611,0.03786,-0.0512247,-0.00265337,30.5002,-3.88723)">
        <path d="M300.512,371.446C300.512,363.698 292.001,357.409 281.52,357.409L220.348,357.409C209.866,357.409 201.356,363.698 201.356,371.446C201.356,379.193 209.866,385.482 220.348,385.482L281.52,385.482C292.001,385.482 300.512,379.193 300.512,371.446Z"/>
    </g>
    <g transform="matrix(0.00194164,0.0374844,0.0512247,-0.00265337,-6.48965,-3.81159)">
        <path d="M300.512,371.446C300.512,363.698 291.916,357.409 281.329,357.409L220.538,357.409C209.951,357.409 201.356,363.698 201.356,371.446C201.356,379.193 209.951,385.482 220.538,385.482L281.329,385.482C291.916,385.482 300.512,379.193 300.512,371.446Z"/>
    </g>
    <g transform="matrix(0.00406037,0.0783875,0.0512247,-0.00265337,-6.69628,-7.73586)">
        <path d="M300.512,371.446C300.512,363.698 296.401,357.409 291.339,357.409L210.529,357.409C205.466,357.409 201.356,363.698 201.356,371.446C201.356,379.193 205.466,385.482 210.529,385.482L291.339,385.482C296.401,385.482 300.512,379.193 300.512,371.446Z"/>
    </g>
    <g transform="matrix(0.00236219,0.0456033,0.0512247,-0.00265337,-5.87634,8.47008)">
        <path d="M300.512,371.446C300.512,363.698 293.446,357.409 284.744,357.409L217.123,357.409C208.421,357.409 201.356,363.698 201.356,371.446C201.356,379.193 208.421,385.482 217.123,385.482L284.744,385.482C293.446,385.482 300.512,379.193 300.512,371.446Z"/>
    </g>
</svg>
