<?xml version="1.0" encoding="UTF-8" standalone="no"?>
<!DOCTYPE svg PUBLIC "-//W3C//DTD SVG 1.1//EN" "http://www.w3.org/Graphics/SVG/1.1/DTD/svg11.dtd">
<svg width="100%" height="100%" viewBox="0 0 24 24" version="1.1" xmlns="http://www.w3.org/2000/svg" xmlns:xlink="http://www.w3.org/1999/xlink" xml:space="preserve" xmlns:serif="http://www.serif.com/" style="fill-rule:evenodd;clip-rule:evenodd;stroke-linejoin:round;stroke-miterlimit:2;">
    <g transform="matrix(0.048,0,0,0.048,0,0)">
        <path d="M154.708,130.405C148.309,126.021 146.265,117.367 150.207,110.538L193.285,35.924C197.425,28.755 206.606,26.295 213.776,30.434C220.945,34.573 223.405,43.755 219.266,50.924L196.271,90.753C213.392,85.597 231.545,82.826 250.341,82.826C353.825,82.826 437.841,166.842 437.841,270.326C437.841,373.81 353.825,457.826 250.341,457.826C146.857,457.826 62.841,373.81 62.841,270.326C62.841,233.987 73.201,200.048 91.13,171.3C93.752,166.931 98.537,164.004 104,164.004C112.279,164.004 119,170.725 119,179.004C119,181.92 118.166,184.644 116.724,186.947L116.726,186.948C101.59,211.139 92.841,239.719 92.841,270.326C92.841,357.252 163.414,427.826 250.341,427.826C337.268,427.826 407.841,357.252 407.841,270.326C407.841,183.399 337.268,112.826 250.341,112.826C232.355,112.826 215.069,115.847 198.964,121.409L246.756,149.002C253.925,153.141 256.385,162.323 252.246,169.492C248.107,176.662 238.925,179.122 231.756,174.983L156.03,131.262C155.569,130.997 155.128,130.71 154.708,130.405Z"/>
    </g>
</svg>
