<?xml version="1.0" encoding="UTF-8" standalone="no"?>
<!DOCTYPE svg PUBLIC "-//W3C//DTD SVG 1.1//EN" "http://www.w3.org/Graphics/SVG/1.1/DTD/svg11.dtd">
<svg width="100%" height="100%" viewBox="0 0 24 24" version="1.1" xmlns="http://www.w3.org/2000/svg" xmlns:xlink="http://www.w3.org/1999/xlink" xml:space="preserve" xmlns:serif="http://www.serif.com/" style="fill-rule:evenodd;clip-rule:evenodd;stroke-linejoin:round;stroke-miterlimit:2;">
    <g transform="matrix(0.048,0,0,0.048,2.05413,0.288896)">
        <path d="M122.966,174.016C113.235,158.797 107.592,140.713 107.592,121.323C107.592,67.228 151.51,23.309 205.605,23.309C259.7,23.309 303.618,67.228 303.618,121.323C303.618,140.719 297.972,158.807 288.236,174.029L218.97,294.001C216.13,298.921 210.915,301.623 205.605,301.497C200.295,301.623 195.08,298.921 192.24,294.001L122.966,174.016ZM264.846,154.711L264.771,154.672L205.605,257.151L149.619,160.179C149.588,159.957 149.22,159.324 149.101,159.147C141.842,148.33 137.605,135.317 137.605,121.323C137.605,83.792 168.075,53.323 205.605,53.323C243.135,53.323 273.605,83.792 273.605,121.323C273.605,133.437 270.43,144.816 264.868,154.672L264.846,154.711Z"/>
    </g>
    <g transform="matrix(0.048,0,0,0.048,2.05413,0.288896)">
        <path d="M206.21,76.928C231.046,76.928 251.21,97.091 251.21,121.928C251.21,146.764 231.046,166.928 206.21,166.928C181.374,166.928 161.21,146.764 161.21,121.928C161.21,97.091 181.374,76.928 206.21,76.928ZM206.21,106.928C214.489,106.928 221.21,113.649 221.21,121.928C221.21,130.206 214.489,136.928 206.21,136.928C197.931,136.928 191.21,130.206 191.21,121.928C191.21,113.649 197.931,106.928 206.21,106.928Z"/>
    </g>
    <g transform="matrix(0.048,0,0,0.048,-0.0768311,-0.103104)">
        <path d="M76.601,372.82C104.196,372.82 126.601,395.224 126.601,422.82C126.601,450.416 104.196,472.82 76.601,472.82C49.005,472.82 26.601,450.416 26.601,422.82C26.601,395.224 49.005,372.82 76.601,372.82ZM76.601,402.82C87.639,402.82 96.601,411.782 96.601,422.82C96.601,433.858 87.639,442.82 76.601,442.82C65.562,442.82 56.601,433.858 56.601,422.82C56.601,411.782 65.562,402.82 76.601,402.82Z"/>
    </g>
    <g transform="matrix(0.048,0,0,0.048,16.7232,-2.5031)">
        <path d="M76.601,372.82C104.196,372.82 126.601,395.224 126.601,422.82C126.601,450.416 104.196,472.82 76.601,472.82C49.005,472.82 26.601,450.416 26.601,422.82C26.601,395.224 49.005,372.82 76.601,372.82ZM76.601,402.82C87.639,402.82 96.601,411.782 96.601,422.82C96.601,433.858 87.639,442.82 76.601,442.82C65.562,442.82 56.601,433.858 56.601,422.82C56.601,411.782 65.562,402.82 76.601,402.82Z"/>
    </g>
    <g transform="matrix(0.048,0,0,0.048,-0.0768311,-0.103104)">
        <path d="M430.154,400.82C416.17,424.144 390.641,439.768 361.491,439.768L114.601,439.768C106.322,439.768 99.601,433.047 99.601,424.768C99.601,416.49 106.322,409.768 114.601,409.768L361.491,408.987C371.596,408.987 381.006,405.982 388.871,400.82L430.154,400.82ZM409.452,344.82C403.336,324.114 384.166,308.987 361.491,308.987L250.605,309.768C250.554,309.768 250.505,309.768 250.455,309.768C242.176,309.768 235.455,303.047 235.455,294.768C235.455,286.695 241.847,280.103 249.843,279.781L249.842,279.768L361.491,279.768C400.535,279.768 433.085,307.8 440.094,344.82L409.452,344.82Z"/>
    </g>
</svg>
