<?xml version="1.0" encoding="UTF-8" standalone="no"?>
<!DOCTYPE svg PUBLIC "-//W3C//DTD SVG 1.1//EN" "http://www.w3.org/Graphics/SVG/1.1/DTD/svg11.dtd">
<svg width="100%" height="100%" viewBox="0 0 24 24" version="1.1" xmlns="http://www.w3.org/2000/svg" xmlns:xlink="http://www.w3.org/1999/xlink" xml:space="preserve" xmlns:serif="http://www.serif.com/" style="fill-rule:evenodd;clip-rule:evenodd;stroke-linejoin:round;stroke-miterlimit:2;">
    <g transform="matrix(0.0415692,-0.024,0.024,0.0415692,-2.64745,10.6299)">
        <path d="M480.102,84.51L19.898,84.51L19.898,270.086L480.102,270.086L480.102,84.51ZM450.102,114.51L49.898,114.51L49.898,240.086L450.102,240.086L450.102,114.51Z"/>
    </g>
    <g transform="matrix(0.0465366,0.0806037,-0.0150268,0.0086757,7.65434,7.61942)">
        <rect x="50.412" y="325.103" width="56.241" height="82.99"/>
    </g>
    <g transform="matrix(0.0465366,0.0806037,-0.0150268,0.0086757,14.497,3.6688)">
        <rect x="50.412" y="325.103" width="56.241" height="82.99"/>
    </g>
    <g transform="matrix(0.0465366,0.0806037,-0.0150268,0.0086757,21.3397,-0.281817)">
        <rect x="50.412" y="325.103" width="56.241" height="82.99"/>
    </g>
    <g transform="matrix(0.0313171,0.0542428,-0.0150268,0.0086757,20.682,3.84653)">
        <rect x="50.412" y="325.103" width="56.241" height="82.99"/>
    </g>
    <g transform="matrix(0.0313171,0.0542428,-0.0150268,0.0086757,18.4011,5.1634)">
        <rect x="50.412" y="325.103" width="56.241" height="82.99"/>
    </g>
    <g transform="matrix(0.0313171,0.0542428,-0.0150268,0.0086757,13.8393,7.79715)">
        <rect x="50.412" y="325.103" width="56.241" height="82.99"/>
    </g>
    <g transform="matrix(0.0313171,0.0542428,-0.0150268,0.0086757,11.5584,9.11402)">
        <rect x="50.412" y="325.103" width="56.241" height="82.99"/>
    </g>
</svg>
