<?xml version="1.0" encoding="UTF-8" standalone="no"?>
<!DOCTYPE svg PUBLIC "-//W3C//DTD SVG 1.1//EN" "http://www.w3.org/Graphics/SVG/1.1/DTD/svg11.dtd">
<svg width="100%" height="100%" viewBox="0 0 24 24" version="1.1" xmlns="http://www.w3.org/2000/svg" xmlns:xlink="http://www.w3.org/1999/xlink" xml:space="preserve" xmlns:serif="http://www.serif.com/" style="fill-rule:evenodd;clip-rule:evenodd;stroke-linejoin:round;stroke-miterlimit:2;">
    <g transform="matrix(0.0443757,0,0,0.0552505,-1.67018,-0.0845398)">
        <path d="M441.358,24.691C441.358,17.499 434.088,11.66 425.133,11.66L85.155,11.66C76.2,11.66 68.93,17.499 68.93,24.691C68.93,31.884 76.2,37.723 85.155,37.723L425.133,37.723C434.088,37.723 441.358,31.884 441.358,24.691Z"/>
    </g>
    <g transform="matrix(0.040663,0,0,0.0552505,-1.41426,21.1257)">
        <path d="M441.358,24.691C441.358,17.499 433.424,11.66 423.651,11.66L86.637,11.66C76.864,11.66 68.93,17.499 68.93,24.691C68.93,31.884 76.864,37.723 86.637,37.723L423.651,37.723C433.424,37.723 441.358,31.884 441.358,24.691Z"/>
    </g>
    <g transform="matrix(0.0263425,0,0,0.0552505,2.93087,3.73439)">
        <path d="M441.358,24.691C441.358,17.499 429.111,11.66 414.026,11.66L96.262,11.66C81.177,11.66 68.93,17.499 68.93,24.691C68.93,31.884 81.177,37.723 96.262,37.723L414.026,37.723C429.111,37.723 441.358,31.884 441.358,24.691Z"/>
    </g>
    <g transform="matrix(0.00849322,0.00849322,-0.039068,0.039068,12.4472,13.9267)">
        <path d="M441.358,24.691C441.358,17.499 414.498,11.66 381.414,11.66L128.874,11.66C95.79,11.66 68.93,17.499 68.93,24.691C68.93,31.884 95.79,37.723 128.874,37.723L381.414,37.723C414.498,37.723 441.358,31.884 441.358,24.691Z"/>
    </g>
    <g transform="matrix(-0.0142524,0.0142524,-0.039068,-0.039068,21.4679,13.3141)">
        <path d="M441.358,24.691C441.358,17.499 425.352,11.66 405.637,11.66L104.652,11.66C84.936,11.66 68.93,17.499 68.93,24.691C68.93,31.884 84.936,37.723 104.652,37.723L405.637,37.723C425.352,37.723 441.358,31.884 441.358,24.691Z"/>
    </g>
    <g transform="matrix(0.00512707,0,0,0.0552505,4.39326,8.76594)">
        <path d="M441.358,24.691C441.358,17.499 378.433,11.66 300.927,11.66L209.361,11.66C131.855,11.66 68.93,17.499 68.93,24.691C68.93,31.884 131.855,37.723 209.361,37.723L300.927,37.723C378.433,37.723 441.358,31.884 441.358,24.691Z"/>
    </g>
    <g transform="matrix(0.00512707,0,0,0.0552505,4.39326,12.6123)">
        <path d="M441.358,24.691C441.358,17.499 378.433,11.66 300.927,11.66L209.361,11.66C131.855,11.66 68.93,17.499 68.93,24.691C68.93,31.884 131.855,37.723 209.361,37.723L300.927,37.723C378.433,37.723 441.358,31.884 441.358,24.691Z"/>
    </g>
    <g transform="matrix(0.00512707,0,0,0.0552505,4.39326,16.4587)">
        <path d="M441.358,24.691C441.358,17.499 378.433,11.66 300.927,11.66L209.361,11.66C131.855,11.66 68.93,17.499 68.93,24.691C68.93,31.884 131.855,37.723 209.361,37.723L300.927,37.723C378.433,37.723 441.358,31.884 441.358,24.691Z"/>
    </g>
    <g transform="matrix(3.72401e-18,0.0608177,-0.0552505,3.38312e-18,3.47285,-3.63249)">
        <path d="M441.358,24.691C441.358,17.499 436.053,11.66 429.519,11.66L80.769,11.66C74.235,11.66 68.93,17.499 68.93,24.691C68.93,31.884 74.235,37.723 80.769,37.723L429.519,37.723C436.053,37.723 441.358,31.884 441.358,24.691Z"/>
    </g>
    <g transform="matrix(0.048,0,0,0.048,-1.92,0)">
        <path d="M383.237,211.045L413.237,211.045L413.237,26.66C413.237,18.381 406.516,11.66 398.237,11.66C389.959,11.66 383.237,18.381 383.237,26.66L383.237,211.045Z"/>
    </g>
    <g transform="matrix(0.048,0,0,0.048,-1.92,0)">
        <path d="M324.982,196.045L216.591,196.045C208.312,196.045 201.591,202.766 201.591,211.045C201.591,219.324 208.312,226.045 216.591,226.045L306.428,226.045L306.428,224.693C298.436,217.652 325.298,207.446 324.982,196.045Z"/>
    </g>
    <g transform="matrix(0.048,0,0,0.048,-1.92,3.84636)">
        <path d="M257.766,196.045L216.591,196.045C208.312,196.045 201.591,202.766 201.591,211.045C201.591,219.324 208.312,226.045 216.591,226.045L239.213,226.045L239.213,224.693C231.221,217.652 258.083,207.446 257.766,196.045Z"/>
    </g>
    <g transform="matrix(0.048,0,0,0.048,0,0.048)">
        <path d="M331.237,182.039C414.025,182.039 481.237,249.252 481.237,332.039C481.237,414.827 414.025,482.039 331.237,482.039C248.45,482.039 181.237,414.827 181.237,332.039C181.237,249.252 248.45,182.039 331.237,182.039ZM331.237,212.039C397.467,212.039 451.237,265.81 451.237,332.039C451.237,398.269 397.467,452.039 331.237,452.039C265.008,452.039 211.237,398.269 211.237,332.039C211.237,265.81 265.008,212.039 331.237,212.039Z"/>
    </g>
    <g transform="matrix(0.048,0,0,0.048,-1.92,7.69273)">
        <path d="M242.677,196.045L216.591,196.045C208.312,196.045 201.591,202.766 201.591,211.045C201.591,219.324 208.312,226.045 216.591,226.045L250.872,226.045L250.872,224.693C242.88,217.652 242.994,207.446 242.677,196.045Z"/>
    </g>
</svg>
