<?xml version="1.0" encoding="UTF-8" standalone="no"?>
<!DOCTYPE svg PUBLIC "-//W3C//DTD SVG 1.1//EN" "http://www.w3.org/Graphics/SVG/1.1/DTD/svg11.dtd">
<svg width="100%" height="100%" viewBox="0 0 24 24" version="1.1" xmlns="http://www.w3.org/2000/svg" xmlns:xlink="http://www.w3.org/1999/xlink" xml:space="preserve" xmlns:serif="http://www.serif.com/" style="fill-rule:evenodd;clip-rule:evenodd;stroke-linejoin:round;stroke-miterlimit:2;">
    <g transform="matrix(0.0590217,0,0,0.0488672,-1.62804,-0.0264166)">
        <path d="M94,39.442C94,31.31 88.534,24.708 81.801,24.708C75.068,24.708 69.602,31.31 69.602,39.442L69.602,452.766C69.602,460.898 75.068,467.5 81.801,467.5C88.534,467.5 94,460.898 94,452.766L94,39.442Z"/>
    </g>
    <g transform="matrix(0.0590217,0,0,0.0244336,0.771962,11.3963)">
        <path d="M94,54.175C94,37.912 88.534,24.708 81.801,24.708C75.068,24.708 69.602,37.912 69.602,54.175L69.602,438.032C69.602,454.296 75.068,467.5 81.801,467.5C88.534,467.5 94,454.296 94,438.032L94,54.175Z"/>
    </g>
    <g transform="matrix(0.0590217,0,0,0.0184712,2.21196,0.724604)">
        <path d="M94,63.687C94,42.174 88.534,24.708 81.801,24.708C75.068,24.708 69.602,42.174 69.602,63.687L69.602,428.52C69.602,450.034 75.068,467.5 81.801,467.5C88.534,467.5 94,450.034 94,428.52L94,63.687Z"/>
    </g>
    <g transform="matrix(0.0590217,0,0,0.0184712,12.1319,0.724704)">
        <path d="M94,63.687C94,42.174 88.534,24.708 81.801,24.708C75.068,24.708 69.602,42.174 69.602,63.687L69.602,428.52C69.602,450.034 75.068,467.5 81.801,467.5C88.534,467.5 94,450.034 94,428.52L94,63.687Z"/>
    </g>
    <g transform="matrix(3.61404e-18,0.0590217,-0.0256552,1.57093e-18,18.3138,3.81196)">
        <path d="M94,52.772C94,37.283 88.534,24.708 81.801,24.708C75.068,24.708 69.602,37.283 69.602,52.772L69.602,439.435C69.602,454.925 75.068,467.5 81.801,467.5C88.534,467.5 94,454.925 94,439.435L94,52.772Z"/>
    </g>
    <g transform="matrix(3.61404e-18,0.0590217,-0.020235,1.23904e-18,16.7399,11.1091)">
        <path d="M94,60.29C94,40.652 88.534,24.708 81.801,24.708C75.068,24.708 69.602,40.652 69.602,60.29L69.602,431.918C69.602,451.556 75.068,467.5 81.801,467.5C88.534,467.5 94,451.556 94,431.918L94,60.29Z"/>
    </g>
    <g transform="matrix(3.61404e-18,0.0590217,-0.020235,1.23904e-18,16.7399,14.5338)">
        <path d="M94,60.29C94,40.652 88.534,24.708 81.801,24.708C75.068,24.708 69.602,40.652 69.602,60.29L69.602,431.918C69.602,451.556 75.068,467.5 81.801,467.5C88.534,467.5 94,451.556 94,431.918L94,60.29Z"/>
    </g>
    <g transform="matrix(0.0590217,0,0,0.0244336,13.5719,11.3963)">
        <path d="M94,54.175C94,37.912 88.534,24.708 81.801,24.708C75.068,24.708 69.602,37.912 69.602,54.175L69.602,438.032C69.602,454.296 75.068,467.5 81.801,467.5C88.534,467.5 94,454.296 94,438.032L94,54.175Z"/>
    </g>
    <g transform="matrix(0.0590217,0,0,0.0427985,15.972,2.81073)">
        <path d="M94,41.531C94,32.246 88.534,24.708 81.801,24.708C75.068,24.708 69.602,32.246 69.602,41.531L69.602,450.677C69.602,459.962 75.068,467.5 81.801,467.5C88.534,467.5 94,459.962 94,450.677L94,41.531Z"/>
    </g>
    <g transform="matrix(3.61404e-18,0.0590217,-0.0429999,2.63298e-18,22.5824,17.271)">
        <path d="M94,41.452C94,32.211 88.534,24.708 81.801,24.708C75.068,24.708 69.602,32.211 69.602,41.452L69.602,450.756C69.602,459.997 75.068,467.5 81.801,467.5C88.534,467.5 94,459.997 94,450.756L94,41.452Z"/>
    </g>
    <g transform="matrix(3.61404e-18,0.0590217,-0.0321591,1.96918e-18,19.9145,7.89196)">
        <path d="M94,47.097C94,34.74 88.534,24.708 81.801,24.708C75.068,24.708 69.602,34.74 69.602,47.097L69.602,445.111C69.602,457.468 75.068,467.5 81.801,467.5C88.534,467.5 94,457.468 94,445.111L94,47.097Z"/>
    </g>
    <g transform="matrix(3.61404e-18,0.0590217,-0.0369446,2.2622e-18,19.7516,-2.92705)">
        <path d="M94,44.197C94,33.44 88.534,24.708 81.801,24.708C75.068,24.708 69.602,33.44 69.602,44.197L69.602,448.011C69.602,458.767 75.068,467.5 81.801,467.5C88.534,467.5 94,458.767 94,448.011L94,44.197Z"/>
    </g>
    <g transform="matrix(-0.0417346,0.0417346,-0.00829708,-0.00829708,24.9281,1.85682)">
        <path d="M94,86.069C94,52.203 88.534,24.708 81.801,24.708C75.068,24.708 69.602,52.203 69.602,86.069L69.602,406.139C69.602,440.005 75.068,467.5 81.801,467.5C88.534,467.5 94,440.005 94,406.139L94,86.069Z"/>
    </g>
    <g transform="matrix(0.0590769,0,0,0.048,-3.15436,0.0206098)">
        <rect x="278.269" y="61.875" width="32.5" height="85"/>
    </g>
</svg>
