<?xml version="1.0" encoding="UTF-8" standalone="no"?>
<!DOCTYPE svg PUBLIC "-//W3C//DTD SVG 1.1//EN" "http://www.w3.org/Graphics/SVG/1.1/DTD/svg11.dtd">
<svg width="100%" height="100%" viewBox="0 0 24 24" version="1.1" xmlns="http://www.w3.org/2000/svg" xmlns:xlink="http://www.w3.org/1999/xlink" xml:space="preserve" xmlns:serif="http://www.serif.com/" style="fill-rule:evenodd;clip-rule:evenodd;stroke-linejoin:round;stroke-miterlimit:2;">
    <g transform="matrix(0.048,0,0,0.048,-0.0351237,-0.0351237)">
        <path d="M90.171,90.171C162.37,17.972 279.602,17.972 351.801,90.171C423.999,162.37 423.999,279.602 351.801,351.801C279.602,423.999 162.37,423.999 90.171,351.801C17.972,279.602 17.972,162.37 90.171,90.171ZM111.384,111.384C171.875,50.893 270.097,50.893 330.587,111.384C391.078,171.875 391.078,270.097 330.587,330.587C270.097,391.078 171.875,391.078 111.384,330.587C50.893,270.097 50.893,171.875 111.384,111.384Z"/>
    </g>
    <g transform="matrix(0.0289993,-0.0289993,0.0358458,0.0358458,-3.88749,15.0517)">
        <path d="M344.101,304.231C344.101,296.392 336.234,290.028 326.545,290.028C316.855,290.028 308.989,296.392 308.989,304.231L308.989,446.471C308.989,454.31 316.855,460.674 326.545,460.674C336.234,460.674 344.101,454.31 344.101,446.471L344.101,304.231Z"/>
    </g>
</svg>
