<?xml version="1.0" encoding="UTF-8" standalone="no"?>
<!DOCTYPE svg PUBLIC "-//W3C//DTD SVG 1.1//EN" "http://www.w3.org/Graphics/SVG/1.1/DTD/svg11.dtd">
<svg width="100%" height="100%" viewBox="0 0 24 24" version="1.1" xmlns="http://www.w3.org/2000/svg" xmlns:xlink="http://www.w3.org/1999/xlink" xml:space="preserve" xmlns:serif="http://www.serif.com/" style="fill-rule:evenodd;clip-rule:evenodd;stroke-linejoin:round;stroke-miterlimit:2;">
    <g transform="matrix(0.048,0,0,0.048,0,0)">
        <path d="M250,390.751C119.773,390.751 14.045,295.281 14.045,250C14.045,204.719 119.773,109.249 250,109.249L250.763,109.25C380.65,109.63 485.955,204.81 485.955,250C485.955,295.281 380.227,390.751 250,390.751ZM249.342,139.249C137.35,139.55 44.045,223.71 44.045,250C44.045,276.29 139.632,360.751 250,360.751C360.368,360.751 455.955,274.303 455.955,250C455.955,225.697 362.276,139.249 250,139.249L249.342,139.249Z"/>
    </g>
    <g transform="matrix(0.048,0,0,0.048,0,0)">
        <path d="M251.333,121.333C323.082,121.333 381.333,179.584 381.333,251.333C381.333,323.082 323.082,381.333 251.333,381.333C179.584,381.333 121.333,323.082 121.333,251.333C121.333,179.584 179.584,121.333 251.333,121.333ZM251.333,151.333C306.525,151.333 351.333,196.142 351.333,251.333C351.333,306.525 306.525,351.333 251.333,351.333C196.142,351.333 151.333,306.525 151.333,251.333C151.333,196.142 196.142,151.333 251.333,151.333Z"/>
    </g>
    <g transform="matrix(0.048,0,0,0.048,0.137753,-0.624045)">
        <circle cx="248.463" cy="264.334" r="34.333"/>
    </g>
</svg>
