<?xml version="1.0" encoding="UTF-8" standalone="no"?>
<!DOCTYPE svg PUBLIC "-//W3C//DTD SVG 1.1//EN" "http://www.w3.org/Graphics/SVG/1.1/DTD/svg11.dtd">
<svg width="100%" height="100%" viewBox="0 0 24 24" version="1.1" xmlns="http://www.w3.org/2000/svg" xmlns:xlink="http://www.w3.org/1999/xlink" xml:space="preserve" xmlns:serif="http://www.serif.com/" style="fill-rule:evenodd;clip-rule:evenodd;stroke-linejoin:round;stroke-miterlimit:2;">
    <g transform="matrix(0.048,0,0,0.048,0,0)">
        <path d="M300.19,43.285C267.209,35.273 232.791,35.273 199.81,43.285L193.157,85.131C172.07,92.406 152.575,103.662 135.731,118.287L96.164,103.125C72.736,127.681 55.526,157.489 45.974,190.056L78.888,216.741C74.645,238.641 74.645,261.152 78.888,283.052L45.974,309.736C55.526,342.304 72.736,372.112 96.164,396.668L135.731,381.506C152.575,396.131 172.07,407.386 193.157,414.661L199.81,456.508C232.791,464.519 267.209,464.519 300.19,456.508L306.843,414.661C327.93,407.386 347.425,396.131 364.269,381.506L403.836,396.668C427.264,372.112 444.474,342.304 454.026,309.736L421.112,283.052C425.355,261.152 425.355,238.641 421.112,216.741L454.026,190.056C444.474,157.489 427.264,127.681 403.836,103.125L364.269,118.287C347.425,103.662 327.93,92.406 306.843,85.131L300.19,43.285ZM272.736,68.697C257.638,66.803 242.362,66.803 227.264,68.697L220.84,107.422C190.016,113.731 162.069,129.866 141.194,153.406L104.445,139.607C95.255,151.735 87.617,164.964 81.709,178.986L112.034,203.913C102.086,233.761 102.086,266.031 112.034,295.88L81.709,320.806C87.617,334.829 95.255,348.058 104.445,360.186L141.194,346.386C162.069,369.926 190.016,386.061 220.84,392.37L227.264,431.095C242.362,432.99 257.638,432.99 272.736,431.095L279.16,392.37C309.984,386.061 337.931,369.926 358.806,346.386L395.555,360.186C404.745,348.058 412.383,334.829 418.291,320.806L387.966,295.88C397.914,266.031 397.914,233.761 387.966,203.913L418.291,178.986C412.383,164.964 404.745,151.735 395.555,139.607L358.806,153.406C337.931,129.866 309.984,113.731 279.16,107.422L272.736,68.697Z"/>
    </g>
    <g transform="matrix(0.048,0,0,0.048,0.118653,0.131955)">
        <path d="M247.528,137.147C308.239,137.147 357.528,186.437 357.528,247.147C357.528,307.858 308.239,357.147 247.528,357.147C186.817,357.147 137.528,307.858 137.528,247.147C137.528,186.437 186.817,137.147 247.528,137.147ZM247.528,167.147C291.681,167.147 327.528,202.994 327.528,247.147C327.528,291.3 291.681,327.147 247.528,327.147C203.375,327.147 167.528,291.3 167.528,247.147C167.528,202.994 203.375,167.147 247.528,167.147Z"/>
    </g>
</svg>
