<?xml version="1.0" encoding="UTF-8" standalone="no"?>
<!DOCTYPE svg PUBLIC "-//W3C//DTD SVG 1.1//EN" "http://www.w3.org/Graphics/SVG/1.1/DTD/svg11.dtd">
<svg width="100%" height="100%" viewBox="0 0 24 24" version="1.1" xmlns="http://www.w3.org/2000/svg" xmlns:xlink="http://www.w3.org/1999/xlink" xml:space="preserve" xmlns:serif="http://www.serif.com/" style="fill-rule:evenodd;clip-rule:evenodd;stroke-linejoin:round;stroke-miterlimit:2;">
    <g transform="matrix(0.048,0,0,0.048,0,0)">
        <path d="M112.321,177.151C153.714,177.151 187.321,210.758 187.321,252.151C187.321,293.545 153.714,327.151 112.321,327.151C70.927,327.151 37.321,293.545 37.321,252.151C37.321,210.758 70.927,177.151 112.321,177.151ZM112.321,207.151C137.157,207.151 157.321,227.315 157.321,252.151C157.321,276.987 137.157,297.151 112.321,297.151C87.485,297.151 67.321,276.987 67.321,252.151C67.321,227.315 87.485,207.151 112.321,207.151Z"/>
    </g>
    <g transform="matrix(0.048,0,0,0.048,13.3205,-6.34326)">
        <path d="M112.321,177.151C153.714,177.151 187.321,210.758 187.321,252.151C187.321,293.545 153.714,327.151 112.321,327.151C70.927,327.151 37.321,293.545 37.321,252.151C37.321,210.758 70.927,177.151 112.321,177.151ZM112.321,207.151C137.157,207.151 157.321,227.315 157.321,252.151C157.321,276.987 137.157,297.151 112.321,297.151C87.485,297.151 67.321,276.987 67.321,252.151C67.321,227.315 87.485,207.151 112.321,207.151Z"/>
    </g>
    <g transform="matrix(0.048,0,0,0.048,13.3205,6.13674)">
        <path d="M112.321,177.151C153.714,177.151 187.321,210.758 187.321,252.151C187.321,293.545 153.714,327.151 112.321,327.151C70.927,327.151 37.321,293.545 37.321,252.151C37.321,210.758 70.927,177.151 112.321,177.151ZM112.321,207.151C137.157,207.151 157.321,227.315 157.321,252.151C157.321,276.987 137.157,297.151 112.321,297.151C87.485,297.151 67.321,276.987 67.321,252.151C67.321,227.315 87.485,207.151 112.321,207.151Z"/>
    </g>
    <g transform="matrix(0.378244,0.175575,-0.0281834,0.0607159,-95.7764,-48.9184)">
        <rect x="287.81" y="179.922" width="21.512" height="21.512"/>
    </g>
    <g transform="matrix(0.378312,-0.175429,0.0281599,0.0607268,-106.495,49.9177)">
        <rect x="287.81" y="179.922" width="21.512" height="21.512"/>
    </g>
</svg>
