<?xml version="1.0" encoding="UTF-8" standalone="no"?>
<!DOCTYPE svg PUBLIC "-//W3C//DTD SVG 1.1//EN" "http://www.w3.org/Graphics/SVG/1.1/DTD/svg11.dtd">
<svg width="100%" height="100%" viewBox="0 0 24 24" version="1.1" xmlns="http://www.w3.org/2000/svg" xmlns:xlink="http://www.w3.org/1999/xlink" xml:space="preserve" xmlns:serif="http://www.serif.com/" style="fill-rule:evenodd;clip-rule:evenodd;stroke-linejoin:round;stroke-miterlimit:2;">
    <g transform="matrix(0.048,0,0,0.048,0,0)">
        <path d="M368.174,362.708C394.39,362.708 415.674,383.992 415.674,410.208C415.674,436.424 394.39,457.708 368.174,457.708C341.958,457.708 320.674,436.424 320.674,410.208C320.674,383.992 341.958,362.708 368.174,362.708ZM368.174,392.708C377.832,392.708 385.674,400.55 385.674,410.208C385.674,419.867 377.832,427.708 368.174,427.708C358.515,427.708 350.674,419.867 350.674,410.208C350.674,400.55 358.515,392.708 368.174,392.708Z"/>
    </g>
    <g transform="matrix(0.048,0,0,0.048,-8.60377,0)">
        <path d="M368.174,362.708C394.39,362.708 415.674,383.992 415.674,410.208C415.674,436.424 394.39,457.708 368.174,457.708C341.958,457.708 320.674,436.424 320.674,410.208C320.674,383.992 341.958,362.708 368.174,362.708ZM368.174,392.708C377.832,392.708 385.674,400.55 385.674,410.208C385.674,419.867 377.832,427.708 368.174,427.708C358.515,427.708 350.674,419.867 350.674,410.208C350.674,400.55 358.515,392.708 368.174,392.708Z"/>
    </g>
    <g transform="matrix(0.0541642,0,0,0.0512668,-0.753464,-0.498056)">
        <path d="M127.572,75.805C127.572,68.054 121.616,61.761 114.279,61.761L50.072,61.761C42.735,61.761 36.779,68.054 36.779,75.805C36.779,83.556 42.735,89.849 50.072,89.849L114.279,89.849C121.616,89.849 127.572,83.556 127.572,75.805Z"/>
    </g>
    <g transform="matrix(0.188985,0,0,0.0512668,-1.59064,3.15627)">
        <path d="M127.572,75.805C127.572,68.054 125.865,61.761 123.762,61.761L40.589,61.761C38.486,61.761 36.779,68.054 36.779,75.805C36.779,83.556 38.486,89.849 40.589,89.849L123.762,89.849C125.865,89.849 127.572,83.556 127.572,75.805Z"/>
    </g>
    <g transform="matrix(0.145821,0,0,0.0512668,1.35341,11.9972)">
        <path d="M127.572,75.805C127.572,68.054 125.36,61.761 122.634,61.761L41.717,61.761C38.991,61.761 36.779,68.054 36.779,75.805C36.779,83.556 38.991,89.849 41.717,89.849L122.634,89.849C125.36,89.849 127.572,83.556 127.572,75.805Z"/>
    </g>
    <g transform="matrix(-0.0232108,-0.153393,0.0506898,-0.00767016,4.52371,22.8265)">
        <path d="M127.572,75.805C127.572,68.054 125.492,61.761 122.931,61.761L41.42,61.761C38.859,61.761 36.779,68.054 36.779,75.805C36.779,83.556 38.859,89.849 41.42,89.849L122.931,89.849C125.492,89.849 127.572,83.556 127.572,75.805Z"/>
    </g>
    <g transform="matrix(0.0322675,-0.11181,-0.0492566,-0.0142151,21.5929,21.7649)">
        <path d="M127.572,75.805C127.572,68.054 124.8,61.761 121.385,61.761L42.966,61.761C39.551,61.761 36.779,68.054 36.779,75.805C36.779,83.556 39.551,89.849 42.966,89.849L121.385,89.849C124.8,89.849 127.572,83.556 127.572,75.805Z"/>
    </g>
</svg>
