<?xml version="1.0" encoding="UTF-8" standalone="no"?>
<!DOCTYPE svg PUBLIC "-//W3C//DTD SVG 1.1//EN" "http://www.w3.org/Graphics/SVG/1.1/DTD/svg11.dtd">
<svg width="100%" height="100%" viewBox="0 0 24 24" version="1.1" xmlns="http://www.w3.org/2000/svg" xmlns:xlink="http://www.w3.org/1999/xlink" xml:space="preserve" xmlns:serif="http://www.serif.com/" style="fill-rule:evenodd;clip-rule:evenodd;stroke-linejoin:round;stroke-miterlimit:2;">
    <g transform="matrix(0.072255,0,0,0.0510584,-0.31507,13.4071)">
        <path d="M301.44,164.307C301.44,156.524 296.975,150.206 291.476,150.206L49.402,150.206C43.903,150.206 39.438,156.524 39.438,164.307C39.438,172.09 43.903,178.409 49.402,178.409L291.476,178.409C296.975,178.409 301.44,172.09 301.44,164.307Z"/>
    </g>
    <g transform="matrix(-0.0108976,-0.0593563,-0.050219,0.00922002,29.5565,23.3304)">
        <path d="M301.44,164.307C301.44,156.524 296.094,150.206 289.51,150.206L51.368,150.206C44.784,150.206 39.438,156.524 39.438,164.307C39.438,172.09 44.784,178.409 51.368,178.409L289.51,178.409C296.094,178.409 301.44,172.09 301.44,164.307Z"/>
    </g>
    <g transform="matrix(-0.0108976,0.0593563,-0.050219,-0.00922002,14.6609,6.12697)">
        <path d="M301.44,164.307C301.44,156.524 296.094,150.206 289.51,150.206L51.368,150.206C44.784,150.206 39.438,156.524 39.438,164.307C39.438,172.09 44.784,178.409 51.368,178.409L289.51,178.409C296.094,178.409 301.44,172.09 301.44,164.307Z"/>
    </g>
    <g transform="matrix(0.0524629,0,0,0.0510584,3.05827,-0.716339)">
        <path d="M301.44,164.307C301.44,156.524 295.291,150.206 287.716,150.206L53.162,150.206C45.587,150.206 39.438,156.524 39.438,164.307C39.438,172.09 45.587,178.409 53.162,178.409L287.716,178.409C295.291,178.409 301.44,172.09 301.44,164.307Z"/>
    </g>
    <g transform="matrix(0.048,0,0,0.048,2.72848e-15,-0.0307819)">
        <path d="M175,160.494L205,160.494L205,106.55C205,81.714 225.164,61.55 250,61.55C274.836,61.55 295,81.714 295,106.55L295,160.494L325,160.494L325,106.55C325,65.156 291.394,31.55 250,31.55C208.606,31.55 175,65.156 175,106.55L175,160.494Z"/>
    </g>
</svg>
