<?xml version="1.0" encoding="UTF-8" standalone="no"?>
<!DOCTYPE svg PUBLIC "-//W3C//DTD SVG 1.1//EN" "http://www.w3.org/Graphics/SVG/1.1/DTD/svg11.dtd">
<svg width="100%" height="100%" viewBox="0 0 24 24" version="1.1" xmlns="http://www.w3.org/2000/svg" xmlns:xlink="http://www.w3.org/1999/xlink" xml:space="preserve" xmlns:serif="http://www.serif.com/" style="fill-rule:evenodd;clip-rule:evenodd;stroke-linejoin:round;stroke-miterlimit:2;">
    <g transform="matrix(-9.36669e-18,0.048,-0.0524702,-9.23836e-18,24.3017,-7.61841e-10)">
        <path d="M417.644,341.399C417.644,333.826 410.923,327.677 402.644,327.677L97.356,327.677C89.077,327.677 82.356,333.826 82.356,341.399C82.356,348.972 89.077,355.121 97.356,355.121L402.644,355.121C410.923,355.121 417.644,348.972 417.644,341.399Z"/>
    </g>
    <g transform="matrix(-9.36669e-18,0.048,-0.0524702,-9.23836e-18,35.5246,-7.61841e-10)">
        <path d="M417.644,341.399C417.644,333.826 410.923,327.677 402.644,327.677L97.356,327.677C89.077,327.677 82.356,333.826 82.356,341.399C82.356,348.972 89.077,355.121 97.356,355.121L402.644,355.121C410.923,355.121 417.644,348.972 417.644,341.399Z"/>
    </g>
    <g transform="matrix(0.0325281,-0.0244101,0.0314937,0.0419674,-6.17836,0.107948)">
        <path d="M417.644,341.399C417.644,333.826 409.711,327.677 399.94,327.677L100.06,327.677C90.289,327.677 82.356,333.826 82.356,341.399C82.356,348.972 90.289,355.121 100.06,355.121L399.94,355.121C409.711,355.121 417.644,348.972 417.644,341.399Z"/>
    </g>
    <g transform="matrix(0.0326141,0.0244747,0.0314937,-0.0419674,-6.18545,23.8651)">
        <path d="M417.644,341.399C417.644,333.826 409.732,327.677 399.987,327.677L100.013,327.677C90.268,327.677 82.356,333.826 82.356,341.399C82.356,348.972 90.268,355.121 100.013,355.121L399.987,355.121C409.732,355.121 417.644,348.972 417.644,341.399Z"/>
    </g>
</svg>
