<?xml version="1.0" encoding="UTF-8" standalone="no"?>
<!DOCTYPE svg PUBLIC "-//W3C//DTD SVG 1.1//EN" "http://www.w3.org/Graphics/SVG/1.1/DTD/svg11.dtd">
<svg width="100%" height="100%" viewBox="0 0 24 24" version="1.1" xmlns="http://www.w3.org/2000/svg" xmlns:xlink="http://www.w3.org/1999/xlink" xml:space="preserve" xmlns:serif="http://www.serif.com/" style="fill-rule:evenodd;clip-rule:evenodd;stroke-linejoin:round;stroke-miterlimit:2;">
    <g transform="matrix(0.048,0,0,0.048,0.48,0.192)">
        <path d="M184.877,58.969C181.286,59.109 177.937,56.703 175.816,53.977L157.402,32.082C154.642,27.302 156.282,21.181 161.062,18.421C165.842,15.662 171.963,17.302 174.722,22.082L304.504,23.421C307.264,18.642 313.384,17.002 318.164,19.761C322.944,22.521 324.584,28.642 321.824,33.421L304.184,53.977C301.425,56.769 298.572,59.18 294.908,58.958C294.707,58.971 294.505,58.977 294.301,58.977L185.269,58.977C185.138,58.977 185.007,58.974 184.877,58.969Z"/>
    </g>
    <g transform="matrix(0.0350523,0,0,0.171209,2.68157,-31.1027)">
        <path d="M114.115,188.899C114.115,187.352 107.979,186.096 100.421,186.096C92.864,186.096 86.728,187.352 86.728,188.899L86.728,314.612C86.728,316.159 92.864,317.416 100.421,317.416C107.979,317.416 114.115,316.159 114.115,314.612L114.115,188.899Z"/>
    </g>
    <g transform="matrix(0.0522175,0,0,0.048,-0.742722,0)">
        <path d="M146.776,30.801C146.776,22.522 140.598,15.801 132.988,15.801C125.378,15.801 119.199,22.522 119.199,30.801L119.199,469.199C119.199,477.478 125.378,484.199 132.988,484.199C140.598,484.199 146.776,477.478 146.776,469.199L146.776,30.801Z"/>
    </g>
    <g transform="matrix(0.0522175,0,0,0.048,10.8541,0)">
        <path d="M146.776,30.801C146.776,22.522 140.598,15.801 132.988,15.801C125.378,15.801 119.199,22.522 119.199,30.801L119.199,469.199C119.199,477.478 125.378,484.199 132.988,484.199C140.598,484.199 146.776,477.478 146.776,469.199L146.776,30.801Z"/>
    </g>
    <g transform="matrix(3.1974e-18,0.0522175,-0.0278328,1.70427e-18,18.9582,-5.70587)">
        <path d="M146.776,41.669C146.776,27.392 140.598,15.801 132.988,15.801C125.378,15.801 119.199,27.392 119.199,41.669L119.199,458.331C119.199,472.608 125.378,484.199 132.988,484.199C140.598,484.199 146.776,472.608 146.776,458.331L146.776,41.669Z"/>
    </g>
    <g transform="matrix(3.1974e-18,0.0522175,-0.0278328,1.70427e-18,18.9582,15.8173)">
        <path d="M146.776,41.669C146.776,27.392 140.598,15.801 132.988,15.801C125.378,15.801 119.199,27.392 119.199,41.669L119.199,458.331C119.199,472.608 125.378,484.199 132.988,484.199C140.598,484.199 146.776,472.608 146.776,458.331L146.776,41.669Z"/>
    </g>
    <g transform="matrix(3.1974e-18,0.0522175,-0.0278328,1.70427e-18,18.9582,11.7768)">
        <path d="M146.776,41.669C146.776,27.392 140.598,15.801 132.988,15.801C125.378,15.801 119.199,27.392 119.199,41.669L119.199,458.331C119.199,472.608 125.378,484.199 132.988,484.199C140.598,484.199 146.776,472.608 146.776,458.331L146.776,41.669Z"/>
    </g>
    <g transform="matrix(3.1974e-18,0.0522175,-0.00955848,5.85288e-19,14.3896,13.797)">
        <path d="M146.776,91.126C146.776,49.553 140.598,15.801 132.988,15.801C125.378,15.801 119.199,49.553 119.199,91.126L119.199,408.874C119.199,450.447 125.378,484.199 132.988,484.199C140.598,484.199 146.776,450.447 146.776,408.874L146.776,91.126Z"/>
    </g>
</svg>
