<?xml version="1.0" encoding="UTF-8" standalone="no"?>
<!DOCTYPE svg PUBLIC "-//W3C//DTD SVG 1.1//EN" "http://www.w3.org/Graphics/SVG/1.1/DTD/svg11.dtd">
<svg width="100%" height="100%" viewBox="0 0 24 24" version="1.1" xmlns="http://www.w3.org/2000/svg" xmlns:xlink="http://www.w3.org/1999/xlink" xml:space="preserve" xmlns:serif="http://www.serif.com/" style="fill-rule:evenodd;clip-rule:evenodd;stroke-linejoin:round;stroke-miterlimit:2;">
    <g transform="matrix(0.0525785,0,0,0.0516552,-3.95178,-1.01257)">
        <path d="M114.115,200.034C114.115,192.341 107.979,186.096 100.421,186.096C92.864,186.096 86.728,192.341 86.728,200.034L86.728,303.477C86.728,311.17 92.864,317.416 100.421,317.416C107.979,317.416 114.115,311.17 114.115,303.477L114.115,200.034Z"/>
    </g>
    <g transform="matrix(0.0525785,0,0,0.0516552,0.144404,-1.01257)">
        <path d="M114.115,200.034C114.115,192.341 107.979,186.096 100.421,186.096C92.864,186.096 86.728,192.341 86.728,200.034L86.728,303.477C86.728,311.17 92.864,317.416 100.421,317.416C107.979,317.416 114.115,311.17 114.115,303.477L114.115,200.034Z"/>
    </g>
    <g transform="matrix(0.0525785,0,0,0.152912,8.96778,-26.4965)">
        <path d="M114.115,190.804C114.115,188.205 107.979,186.096 100.421,186.096C92.864,186.096 86.728,188.205 86.728,190.804L86.728,312.707C86.728,315.306 92.864,317.416 100.421,317.416C107.979,317.416 114.115,315.306 114.115,312.707L114.115,190.804Z"/>
    </g>
    <g transform="matrix(3.2195e-18,0.0525785,-0.0421579,2.58142e-18,13.9898,4.04023)">
        <path d="M114.115,203.174C114.115,193.748 107.979,186.096 100.421,186.096C92.864,186.096 86.728,193.748 86.728,203.174L86.728,300.337C86.728,309.763 92.864,317.416 100.421,317.416C107.979,317.416 114.115,309.763 114.115,300.337L114.115,203.174Z"/>
    </g>
    <g transform="matrix(3.2195e-18,0.0525785,-0.0205348,1.25739e-18,18.7892,-2.60022)">
        <path d="M114.115,221.158C114.115,201.806 107.979,186.096 100.421,186.096C92.864,186.096 86.728,201.806 86.728,221.158L86.728,282.353C86.728,301.705 92.864,317.416 100.421,317.416C107.979,317.416 114.115,301.705 114.115,282.353L114.115,221.158Z"/>
    </g>
    <g transform="matrix(3.2195e-18,0.0525785,-0.0421579,2.58142e-18,13.9898,9.3836)">
        <path d="M114.115,203.174C114.115,193.748 107.979,186.096 100.421,186.096C92.864,186.096 86.728,193.748 86.728,203.174L86.728,300.337C86.728,309.763 92.864,317.416 100.421,317.416C107.979,317.416 114.115,309.763 114.115,300.337L114.115,203.174Z"/>
    </g>
    <g transform="matrix(-0.035032,-0.0392079,-0.0666567,0.0595574,29.3803,-4.93832)">
        <path d="M114.115,194.15C114.115,189.705 107.979,186.096 100.421,186.096C92.864,186.096 86.728,189.705 86.728,194.15L86.728,309.361C86.728,313.807 92.864,317.416 100.421,317.416C107.979,317.416 114.115,313.807 114.115,309.361L114.115,194.15Z"/>
    </g>
    <g transform="matrix(2.24655e-18,-0.0525785,-0.0205348,-1.70502e-18,18.7892,26.6002)">
        <path d="M114.115,221.158C114.115,201.806 107.979,186.096 100.421,186.096C92.864,186.096 86.728,201.806 86.728,221.158L86.728,282.353C86.728,301.705 92.864,317.416 100.421,317.416C107.979,317.416 114.115,301.705 114.115,282.353L114.115,221.158Z"/>
    </g>
    <g transform="matrix(-0.035032,0.0392079,-0.0666567,-0.0595574,29.3803,28.9383)">
        <path d="M114.115,194.15C114.115,189.705 107.979,186.096 100.421,186.096C92.864,186.096 86.728,189.705 86.728,194.15L86.728,309.361C86.728,313.807 92.864,317.416 100.421,317.416C107.979,317.416 114.115,313.807 114.115,309.361L114.115,194.15Z"/>
    </g>
    <g transform="matrix(0.048,0,0,0.048,-0.0431463,-0.248087)">
        <path d="M338.131,340.165C329.896,340.113 323.228,333.412 323.228,325.166C323.228,316.887 329.949,310.166 338.228,310.166L338.421,310.164C371.298,309.876 397.894,283.103 397.894,250.167C397.894,217.164 371.192,190.35 338.228,190.168L338.228,190.167C329.949,190.167 323.228,183.445 323.228,175.167C323.228,166.888 329.949,160.167 338.228,160.167C338.318,160.167 338.408,160.167 338.498,160.169C387.888,160.489 427.894,200.693 427.894,250.167C427.894,299.685 387.816,339.917 338.368,340.165L338.324,340.165L338.228,340.166L338.131,340.165Z"/>
    </g>
    <g transform="matrix(0.048,0,0,0.048,-0.0431463,-0.248087)">
        <path d="M338.131,400.5C329.896,400.448 323.228,393.746 323.228,385.5C323.228,377.221 329.949,370.5 338.228,370.5L338.615,370.499C404.672,370.285 458.228,316.597 458.228,250.5C458.228,184.27 404.457,130.5 338.228,130.5L338.131,130.5C329.896,130.448 323.228,123.746 323.228,115.5C323.228,107.221 329.949,100.5 338.228,100.5L338.712,100.501C421.283,100.769 488.228,167.878 488.228,250.5C488.228,333.287 421.015,400.5 338.228,400.5L338.131,400.5Z"/>
    </g>
</svg>
