<?xml version="1.0" encoding="UTF-8" standalone="no"?>
<!DOCTYPE svg PUBLIC "-//W3C//DTD SVG 1.1//EN" "http://www.w3.org/Graphics/SVG/1.1/DTD/svg11.dtd">
<svg width="100%" height="100%" viewBox="0 0 24 24" version="1.1" xmlns="http://www.w3.org/2000/svg" xmlns:xlink="http://www.w3.org/1999/xlink" xml:space="preserve" xmlns:serif="http://www.serif.com/" style="fill-rule:evenodd;clip-rule:evenodd;stroke-linejoin:round;stroke-miterlimit:2;">
    <g transform="matrix(0.00469565,0,0,0.00469565,10.7239,15.4547)">
        <circle cx="249.237" cy="103.543" r="230"/>
    </g>
    <g transform="matrix(0.048,0,0,0.048,0,0)">
        <path d="M17.801,333.543C17.798,333.067 17.797,332.585 17.797,332.102C17.797,205.162 120.856,102.102 247.797,102.102C374.737,102.102 477.797,205.162 477.797,332.102C477.797,332.585 477.795,333.067 477.792,333.543L447.791,333.543C447.795,333.073 447.797,332.588 447.797,332.102C447.797,221.719 358.18,132.102 247.797,132.102C137.414,132.102 47.797,221.719 47.797,332.102C47.797,332.588 47.798,333.073 47.802,333.543L17.801,333.543Z"/>
    </g>
    <g transform="matrix(0.0537791,0.0339932,-0.0280403,0.0443612,7.92667,-7.15436)">
        <path d="M257.987,213.579C257.987,206.007 252.916,199.859 246.67,199.859C240.424,199.859 235.353,206.007 235.353,213.579L235.353,329.487C235.353,337.059 240.424,343.206 246.67,343.206C252.916,343.206 257.987,337.059 257.987,329.487L257.987,213.579Z"/>
    </g>
    <g transform="matrix(0.048,0,0,0.048,0,0)">
        <path d="M79.343,303.543C77.777,312.831 76.961,322.372 76.961,332.102C76.961,332.583 76.963,333.064 76.968,333.543L32.886,333.543L32.886,303.543L79.343,303.543Z"/>
    </g>
    <g transform="matrix(0.048,0,0,0.048,0,0)">
        <path d="M102.566,242.15C97.295,250.636 92.747,259.617 89.01,269.007L43.505,250.158L54.985,222.442L102.566,242.15Z"/>
    </g>
    <g transform="matrix(0.048,0,0,0.048,0,0)">
        <path d="M145.657,195.19C137.611,201.203 130.113,207.909 123.255,215.214L85.225,177.184L106.438,155.971L145.657,195.19Z"/>
    </g>
    <g transform="matrix(0.048,0,0,0.048,0,0)">
        <path d="M201.518,167.62C191.785,170.358 182.402,173.936 173.458,178.27L151.696,125.731L179.412,114.251L201.518,167.62Z"/>
    </g>
    <g transform="matrix(0.048,0,0,0.048,0,0)">
        <path d="M262.797,161.918C257.853,161.487 252.851,161.267 247.797,161.267C242.743,161.267 237.74,161.487 232.797,161.918L232.797,103.632L262.797,103.632L262.797,161.918Z"/>
    </g>
    <g transform="matrix(0.048,0,0,0.048,0,0)">
        <path d="M294.075,167.62L316.181,114.251L343.898,125.731L322.135,178.27C313.187,173.934 303.806,170.356 294.075,167.62Z"/>
    </g>
    <g transform="matrix(0.048,0,0,0.048,0,0)">
        <path d="M349.937,195.19L389.155,155.971L410.368,177.184L372.338,215.214C365.476,207.907 357.979,201.203 349.937,195.19Z"/>
    </g>
    <g transform="matrix(0.048,0,0,0.048,0,0)">
        <path d="M393.027,242.15L440.608,222.442L452.089,250.158L406.584,269.007C402.846,259.619 398.299,250.639 393.027,242.15Z"/>
    </g>
    <g transform="matrix(0.048,0,0,0.048,0,0)">
        <path d="M416.251,303.543L462.708,303.543L462.708,333.543L418.626,333.543C418.63,333.064 418.632,332.583 418.632,332.102C418.632,322.372 417.817,312.831 416.251,303.543Z"/>
    </g>
</svg>
