<?xml version="1.0" encoding="UTF-8" standalone="no"?>
<!DOCTYPE svg PUBLIC "-//W3C//DTD SVG 1.1//EN" "http://www.w3.org/Graphics/SVG/1.1/DTD/svg11.dtd">
<svg width="100%" height="100%" viewBox="0 0 24 24" version="1.1" xmlns="http://www.w3.org/2000/svg" xmlns:xlink="http://www.w3.org/1999/xlink" xml:space="preserve" xmlns:serif="http://www.serif.com/" style="fill-rule:evenodd;clip-rule:evenodd;stroke-linejoin:round;stroke-miterlimit:2;">
    <g transform="matrix(0.0406125,0.00889272,-0.0297502,0.135867,-1.79127,8.17656)">
        <path d="M219.136,38.515L184.499,41.152L184.499,79.432L219.136,70.711L219.136,38.515Z"/>
    </g>
    <g transform="matrix(-0.0180872,-0.037434,-0.138334,0.0668394,18.2443,21.9073)">
        <path d="M219.136,41.152L184.499,41.152L184.087,83.683L219.136,75.789L219.136,41.152Z"/>
    </g>
    <g transform="matrix(0.048,0,0,0.048,0,0)">
        <path d="M123.947,321.209L94.085,335.539C55.937,308.506 32.432,271.606 32.432,230.949C32.432,148.162 129.89,80.949 249.932,80.949C369.973,80.949 467.432,148.162 467.432,230.949C467.432,313.736 369.973,380.949 249.932,380.949C210.414,380.949 173.344,373.665 141.393,360.939L179.965,342.302C201.598,347.88 225.209,350.949 249.932,350.949C353.416,350.949 437.432,297.179 437.432,230.949C437.432,164.719 353.416,110.949 249.932,110.949C146.447,110.949 62.432,164.719 62.432,230.949C62.432,266.236 86.282,297.986 124.222,319.952L123.947,321.209Z"/>
    </g>
</svg>
