<?xml version="1.0" encoding="UTF-8" standalone="no"?>
<!DOCTYPE svg PUBLIC "-//W3C//DTD SVG 1.1//EN" "http://www.w3.org/Graphics/SVG/1.1/DTD/svg11.dtd">
<svg width="100%" height="100%" viewBox="0 0 24 24" version="1.1" xmlns="http://www.w3.org/2000/svg" xmlns:xlink="http://www.w3.org/1999/xlink" xml:space="preserve" xmlns:serif="http://www.serif.com/" style="fill-rule:evenodd;clip-rule:evenodd;stroke-linejoin:round;stroke-miterlimit:2;">
    <g transform="matrix(0.0339411,0.0339411,-0.0339411,0.0339411,13.3512,-6.32178)">
        <path d="M422,398.244L422,362.376C422,336.179 400.731,314.91 374.534,314.91L125.466,314.91C99.269,314.91 78,336.179 78,362.376L78,398.244L422,398.244ZM392,368.244L392,361.648C392,352.411 384.5,344.91 375.262,344.91L124.738,344.91C115.5,344.91 108,352.411 108,361.648L108,368.244L392,368.244Z"/>
    </g>
    <g transform="matrix(0.0339411,0.0339411,-0.0493415,0.0493415,19.7394,-12.71)">
        <path d="M422,425.124C422,419.429 415.279,414.806 407,414.806L93,414.806C84.721,414.806 78,419.429 78,425.124C78,430.819 84.721,435.442 93,435.442L407,435.442C415.279,435.442 422,430.819 422,425.124Z"/>
    </g>
    <g transform="matrix(0.0339411,0.0339411,-0.0339411,0.0339411,13.3512,-6.32178)">
        <path d="M250.646,13.002C305.54,13.35 350,58.024 350,113C350,142.872 336.874,169.702 316.077,188.033C315.885,188.234 315.683,188.431 315.475,188.624C301.656,201.415 293,219.704 293,240C293,278.634 324.366,310 363,310C363,310 373.077,309.86 388.454,315.948C398.598,319.964 406.268,327.13 406.268,327.13L363.298,339.999L363,340C307.808,340 263,295.192 263,240C263,210.251 276.018,183.519 296.667,165.192C296.824,165.028 296.978,164.877 297.128,164.741C311.178,151.935 320,133.49 320,113C320,74.366 288.634,43 250,43C211.366,43 180,74.366 180,113C180,133.49 188.822,151.935 202.872,164.741C203.022,164.877 203.176,165.028 203.333,165.192C223.982,183.519 237,210.251 237,240C237,295.192 192.192,340 137,340L136.702,339.999L93.732,327.13C93.732,327.13 101.402,319.964 111.546,315.948C126.923,309.86 137,310 137,310C175.634,310 207,278.634 207,240C207,219.704 198.344,201.415 184.525,188.624C184.317,188.431 184.115,188.234 183.923,188.033C163.126,169.702 150,142.872 150,113C150,57.808 194.808,13 250,13L250.646,13.002Z"/>
    </g>
</svg>
