<?xml version="1.0" encoding="UTF-8" standalone="no"?>
<!DOCTYPE svg PUBLIC "-//W3C//DTD SVG 1.1//EN" "http://www.w3.org/Graphics/SVG/1.1/DTD/svg11.dtd">
<svg width="100%" height="100%" viewBox="0 0 24 24" version="1.1" xmlns="http://www.w3.org/2000/svg" xmlns:xlink="http://www.w3.org/1999/xlink" xml:space="preserve" xmlns:serif="http://www.serif.com/" style="fill-rule:evenodd;clip-rule:evenodd;stroke-linejoin:round;stroke-miterlimit:2;">
    <g transform="matrix(0.048,0,0,0.048,-1.79358,-2.94206)">
        <path d="M339.218,102.791L309.218,102.791L309.218,273.21C309.218,328.401 264.41,373.21 209.218,373.21C154.027,373.21 109.218,328.401 109.218,273.21L109.218,102.791L79.218,102.791L79.218,273.21C79.218,344.959 137.469,403.21 209.218,403.21C280.967,403.21 339.218,344.959 339.218,273.21L339.218,102.791Z"/>
    </g>
    <g transform="matrix(0.048,0,0,0.048,3.57267,3.37399)">
        <path d="M339.218,128.169L309.218,128.169L309.218,273.21C309.218,328.401 264.41,373.21 209.218,373.21C154.027,373.21 109.218,328.401 109.218,273.21L109.218,257.378L79.218,260.827L79.218,273.21C79.218,344.959 137.469,403.21 209.218,403.21C280.967,403.21 339.218,344.959 339.218,273.21L339.218,128.169Z"/>
    </g>
    <g transform="matrix(0.034454,0,0,0.0477164,-0.720491,-2.09897)">
        <path d="M191.015,85.734C191.015,77.406 181.651,70.645 170.118,70.645L100.116,70.645C88.582,70.645 79.218,77.406 79.218,85.734C79.218,94.062 88.582,100.823 100.116,100.823L170.118,100.823C181.651,100.823 191.015,94.062 191.015,85.734Z"/>
    </g>
    <g transform="matrix(0.034454,0,0,0.0477164,7.90766,-2.09897)">
        <path d="M191.015,85.734C191.015,77.406 181.651,70.645 170.118,70.645L100.116,70.645C88.582,70.645 79.218,77.406 79.218,85.734C79.218,94.062 88.582,100.823 100.116,100.823L170.118,100.823C181.651,100.823 191.015,94.062 191.015,85.734Z"/>
    </g>
    <g transform="matrix(0.048,0,0,0.048,-1.29975,-1.03259)">
        <path d="M425.226,125.034C458.341,125.034 485.226,151.919 485.226,185.034C485.226,218.149 458.341,245.034 425.226,245.034C392.111,245.034 365.226,218.149 365.226,185.034C365.226,151.919 392.111,125.034 425.226,125.034ZM425.226,155.034C441.784,155.034 455.226,168.477 455.226,185.034C455.226,201.592 441.784,215.034 425.226,215.034C408.669,215.034 395.226,201.592 395.226,185.034C395.226,168.477 408.669,155.034 425.226,155.034Z"/>
    </g>
</svg>
