<?xml version="1.0" encoding="UTF-8" standalone="no"?>
<!DOCTYPE svg PUBLIC "-//W3C//DTD SVG 1.1//EN" "http://www.w3.org/Graphics/SVG/1.1/DTD/svg11.dtd">
<svg width="100%" height="100%" viewBox="0 0 24 24" version="1.1" xmlns="http://www.w3.org/2000/svg" xmlns:xlink="http://www.w3.org/1999/xlink" xml:space="preserve" xmlns:serif="http://www.serif.com/" style="fill-rule:evenodd;clip-rule:evenodd;stroke-linejoin:round;stroke-miterlimit:2;">
    <g transform="matrix(0.0339411,0.0339411,-0.0339411,0.0339411,12.0224,-3.92384)">
        <path d="M305.128,216.082L275.128,216.082L275.128,429.122C275.128,451.683 256.811,470 234.25,470C211.689,470 193.372,451.683 193.372,429.122L193.372,216.082L163.372,216.082L163.372,429.122C163.372,468.241 195.131,500 234.25,500C273.369,500 305.128,468.241 305.128,429.122L305.128,216.082Z"/>
    </g>
    <g transform="matrix(0.029419,0.029419,-0.0231697,0.0231697,11.0692,-4.54295)">
        <path d="M268.861,14.765C268.861,2.637 261.107,-7.209 251.556,-7.209C242.004,-7.209 234.25,2.637 234.25,14.765L234.25,145.379C234.25,157.507 242.004,167.353 251.556,167.353C261.107,167.353 268.861,157.507 268.861,145.379L268.861,14.765Z"/>
    </g>
    <g transform="matrix(-0.0416047,5.32907e-18,2.66454e-18,-0.0235611,25.5673,9.44877)">
        <path d="M268.861,23.35C268.861,6.484 261.107,-7.209 251.556,-7.209C242.004,-7.209 234.25,6.484 234.25,23.35L234.25,136.794C234.25,153.66 242.004,167.353 251.556,167.353C261.107,167.353 268.861,153.66 268.861,136.794L268.861,23.35Z"/>
    </g>
    <g transform="matrix(-0.029419,-0.029419,-0.0231697,0.0231697,28.5429,12.9307)">
        <path d="M268.861,14.765C268.861,2.637 261.107,-7.209 251.556,-7.209C242.004,-7.209 234.25,2.637 234.25,14.765L234.25,145.379C234.25,157.507 242.004,167.353 251.556,167.353C261.107,167.353 268.861,157.507 268.861,145.379L268.861,14.765Z"/>
    </g>
    <g transform="matrix(-5.32907e-18,0.0416047,0.0235611,-1.33227e-18,14.5512,-1.5673)">
        <path d="M268.861,23.35C268.861,6.484 261.107,-7.209 251.556,-7.209C242.004,-7.209 234.25,6.484 234.25,23.35L234.25,136.794C234.25,153.66 242.004,167.353 251.556,167.353C261.107,167.353 268.861,153.66 268.861,136.794L268.861,23.35Z"/>
    </g>
    <g transform="matrix(0.0339411,0.0339411,-0.0339411,0.0339411,12.0224,-3.92384)">
        <path d="M190.126,0.721L197.554,30.035C162.546,44.479 137.878,78.963 137.878,119.163C137.878,172.352 181.061,215.535 234.25,215.535C287.439,215.535 330.622,172.352 330.622,119.163C330.622,79.596 306.725,45.566 272.585,30.729L279.346,1.088C326.848,19.259 360.622,65.298 360.622,119.163C360.622,188.91 303.996,245.535 234.25,245.535C164.504,245.535 107.878,188.91 107.878,119.163C107.878,64.935 142.109,18.639 190.126,0.721Z"/>
    </g>
</svg>
