<?xml version="1.0" encoding="UTF-8" standalone="no"?>
<!DOCTYPE svg PUBLIC "-//W3C//DTD SVG 1.1//EN" "http://www.w3.org/Graphics/SVG/1.1/DTD/svg11.dtd">
<svg width="100%" height="100%" viewBox="0 0 24 24" version="1.1" xmlns="http://www.w3.org/2000/svg" xmlns:xlink="http://www.w3.org/1999/xlink" xml:space="preserve" xmlns:serif="http://www.serif.com/" style="fill-rule:evenodd;clip-rule:evenodd;stroke-linejoin:round;stroke-miterlimit:2;">
    <g transform="matrix(0.0653946,-1.78823e-17,2.13746e-17,0.09204,-2.91939,-0.54)">
        <path d="M257.171,136.245C257.171,131.928 252.237,128.422 246.161,128.422L73.918,128.422C67.841,128.422 62.907,131.928 62.907,136.245C62.907,140.563 67.841,144.068 73.918,144.068L246.161,144.068C252.237,144.068 257.171,140.563 257.171,136.245Z"/>
    </g>
    <g transform="matrix(0.0233946,-0.0233946,0.0650821,0.0650821,-8.93365,5.11444)">
        <path d="M257.171,136.245C257.171,131.928 247.42,128.422 235.409,128.422L84.67,128.422C72.659,128.422 62.907,131.928 62.907,136.245C62.907,140.563 72.659,144.068 84.67,144.068L235.409,144.068C247.42,144.068 257.171,140.563 257.171,136.245Z"/>
    </g>
    <g transform="matrix(0.023387,0.023387,-0.0650821,0.0650821,8.80107,1.15329)">
        <path d="M257.171,136.245C257.171,131.928 247.416,128.422 235.402,128.422L84.677,128.422C72.662,128.422 62.907,131.928 62.907,136.245C62.907,140.563 72.662,144.068 84.677,144.068L235.402,144.068C247.416,144.068 257.171,140.563 257.171,136.245Z"/>
    </g>
    <g transform="matrix(2.93915e-18,0.048,-0.048,2.93915e-18,24,-2.29684e-09)">
        <path d="M250,24.884C305.192,24.884 350,69.692 350,124.884C350,180.075 305.192,224.884 250,224.884C194.808,224.884 150,180.075 150,124.884C150,69.692 194.808,24.884 250,24.884ZM250,54.884C288.634,54.884 320,86.25 320,124.884C320,163.518 288.634,194.884 250,194.884C211.366,194.884 180,163.518 180,124.884C180,86.25 211.366,54.884 250,54.884Z"/>
    </g>
</svg>
