<?xml version="1.0" encoding="UTF-8" standalone="no"?>
<!DOCTYPE svg PUBLIC "-//W3C//DTD SVG 1.1//EN" "http://www.w3.org/Graphics/SVG/1.1/DTD/svg11.dtd">
<svg width="100%" height="100%" viewBox="0 0 24 24" version="1.1" xmlns="http://www.w3.org/2000/svg" xmlns:xlink="http://www.w3.org/1999/xlink" xml:space="preserve" xmlns:serif="http://www.serif.com/" style="fill-rule:evenodd;clip-rule:evenodd;stroke-linejoin:round;stroke-miterlimit:2;">
    <g transform="matrix(-0.0758913,0.0758913,-0.0337406,-0.0337406,22.6931,1.84051)">
        <path d="M191.015,85.734C191.015,77.406 188.009,70.645 184.307,70.645L85.927,70.645C82.224,70.645 79.218,77.406 79.218,85.734C79.218,94.062 82.224,100.823 85.927,100.823L184.307,100.823C188.009,100.823 191.015,94.062 191.015,85.734Z"/>
    </g>
    <g transform="matrix(-0.0692122,-0.0692122,0.0337406,-0.0337406,22.3642,20.3392)">
        <path d="M191.015,85.734C191.015,77.406 187.719,70.645 183.659,70.645L86.574,70.645C82.514,70.645 79.218,77.406 79.218,85.734C79.218,94.062 82.514,100.823 86.574,100.823L183.659,100.823C187.719,100.823 191.015,94.062 191.015,85.734Z"/>
    </g>
    <g transform="matrix(-0.0563831,-0.0563831,0.0337406,-0.0337406,23.38,15.8566)">
        <path d="M191.015,85.734C191.015,77.406 186.969,70.645 181.985,70.645L88.248,70.645C83.264,70.645 79.218,77.406 79.218,85.734C79.218,94.062 83.264,100.823 88.248,100.823L181.985,100.823C186.969,100.823 191.015,94.062 191.015,85.734Z"/>
    </g>
    <g transform="matrix(-0.0236376,-0.0236376,0.0337406,-0.0337406,15.8306,17.4712)">
        <path d="M191.015,85.734C191.015,77.406 181.364,70.645 169.477,70.645L100.757,70.645C88.869,70.645 79.218,77.406 79.218,85.734C79.218,94.062 88.869,100.823 100.757,100.823L169.477,100.823C181.364,100.823 191.015,94.062 191.015,85.734Z"/>
    </g>
    <g transform="matrix(-0.0236376,-0.0236376,0.0337406,-0.0337406,11.52,21.7818)">
        <path d="M191.015,85.734C191.015,77.406 181.364,70.645 169.477,70.645L100.757,70.645C88.869,70.645 79.218,77.406 79.218,85.734C79.218,94.062 88.869,100.823 100.757,100.823L169.477,100.823C181.364,100.823 191.015,94.062 191.015,85.734Z"/>
    </g>
    <g transform="matrix(-0.0236376,-0.0236376,0.0337406,-0.0337406,13.6753,19.6265)">
        <path d="M191.015,85.734C191.015,77.406 181.364,70.645 169.477,70.645L100.757,70.645C88.869,70.645 79.218,77.406 79.218,85.734C79.218,94.062 88.869,100.823 100.757,100.823L169.477,100.823C181.364,100.823 191.015,94.062 191.015,85.734Z"/>
    </g>
    <g transform="matrix(0.0336992,-0.0336992,0.0337406,0.0337406,9.83378,8.3808)">
        <path d="M191.015,85.734C191.015,77.406 184.246,70.645 175.907,70.645L94.326,70.645C85.988,70.645 79.218,77.406 79.218,85.734C79.218,94.062 85.988,100.823 94.326,100.823L175.907,100.823C184.246,100.823 191.015,94.062 191.015,85.734Z"/>
    </g>
    <g transform="matrix(-0.0367274,0.0367274,-0.0337406,-0.0337406,12.102,17.6834)">
        <path d="M191.015,85.734C191.015,77.406 184.804,70.645 177.153,70.645L93.08,70.645C85.429,70.645 79.218,77.406 79.218,85.734C79.218,94.062 85.429,100.823 93.08,100.823L177.153,100.823C184.804,100.823 191.015,94.062 191.015,85.734Z"/>
    </g>
    <g transform="matrix(0,0.0598608,-0.0477164,0,9.87334,7.50346)">
        <path d="M191.015,85.734C191.015,77.406 185.626,70.645 178.987,70.645L91.246,70.645C84.608,70.645 79.218,77.406 79.218,85.734C79.218,94.062 84.608,100.823 91.246,100.823L178.987,100.823C185.626,100.823 191.015,94.062 191.015,85.734Z"/>
    </g>
    <g transform="matrix(-0.0758913,0.0758913,0.0337406,0.0337406,22.1762,1.32363)">
        <path d="M191.015,85.734C191.015,77.406 188.009,70.645 184.307,70.645L85.927,70.645C82.224,70.645 79.218,77.406 79.218,85.734C79.218,94.062 82.224,100.823 85.927,100.823L184.307,100.823C188.009,100.823 191.015,94.062 191.015,85.734Z"/>
    </g>
    <g transform="matrix(-0.0598608,0,0,0.0477164,16.5132,14.1433)">
        <path d="M191.015,85.734C191.015,77.406 185.626,70.645 178.987,70.645L91.246,70.645C84.608,70.645 79.218,77.406 79.218,85.734C79.218,94.062 84.608,100.823 91.246,100.823L178.987,100.823C185.626,100.823 191.015,94.062 191.015,85.734Z"/>
    </g>
</svg>
