<?xml version="1.0" encoding="UTF-8" standalone="no"?>
<!DOCTYPE svg PUBLIC "-//W3C//DTD SVG 1.1//EN" "http://www.w3.org/Graphics/SVG/1.1/DTD/svg11.dtd">
<svg width="100%" height="100%" viewBox="0 0 24 24" version="1.1" xmlns="http://www.w3.org/2000/svg" xmlns:xlink="http://www.w3.org/1999/xlink" xml:space="preserve" xmlns:serif="http://www.serif.com/" style="fill-rule:evenodd;clip-rule:evenodd;stroke-linejoin:round;stroke-miterlimit:2;">
    <g transform="matrix(0.048,0,0,0.048,0,0)">
        <path d="M250,60C354.864,60 440,145.136 440,250C440,354.864 354.864,440 250,440C145.136,440 60,354.864 60,250C60,145.136 145.136,60 250,60ZM250,90C338.306,90 410,161.694 410,250C410,338.306 338.306,410 250,410C161.694,410 90,338.306 90,250C90,161.694 161.694,90 250,90Z"/>
    </g>
    <g transform="matrix(0.0555429,0,0,0.0557885,-11.1264,-1.22713)">
        <rect x="217.892" y="224.188" width="93.333" height="25.812"/>
    </g>
    <g transform="matrix(-0.0555429,6.80204e-18,-6.83213e-18,-0.0557885,35.1264,25.2271)">
        <rect x="217.892" y="224.188" width="93.333" height="25.812"/>
    </g>
    <g transform="matrix(3.40102e-18,0.0555429,-0.0557885,3.41606e-18,25.2271,-11.1264)">
        <rect x="217.892" y="224.188" width="93.333" height="25.812"/>
    </g>
    <g transform="matrix(-1.02031e-17,-0.0555429,0.0557885,-1.02482e-17,-1.22713,35.1264)">
        <rect x="217.892" y="224.188" width="93.333" height="25.812"/>
    </g>
</svg>
