<?xml version="1.0" encoding="UTF-8" standalone="no"?>
<!DOCTYPE svg PUBLIC "-//W3C//DTD SVG 1.1//EN" "http://www.w3.org/Graphics/SVG/1.1/DTD/svg11.dtd">
<svg width="100%" height="100%" viewBox="0 0 24 24" version="1.1" xmlns="http://www.w3.org/2000/svg" xmlns:xlink="http://www.w3.org/1999/xlink" xml:space="preserve" xmlns:serif="http://www.serif.com/" style="fill-rule:evenodd;clip-rule:evenodd;stroke-linejoin:round;stroke-miterlimit:2;">
    <g transform="matrix(0.048,0,0,0.048,0,0)">
        <path d="M20.855,446.531C37.646,419.206 129.132,357.196 250.02,357.196C368.714,357.196 459.362,418.475 478.529,445.869C480.639,448.453 481.906,451.753 481.906,455.347C481.906,463.626 475.184,470.347 466.906,470.347L32.989,470.347C24.71,470.347 17.989,463.626 17.989,455.347C17.989,452.054 19.052,449.007 20.855,446.531ZM422.449,440.347L76.961,440.347C112.234,416.06 175.023,387.196 250.02,387.196C324.57,387.196 387.058,416.115 422.449,440.347Z"/>
    </g>
    <g transform="matrix(0.048,0,0,0.048,0,0)">
        <path d="M249.823,57.805C324.331,57.805 384.823,118.296 384.823,192.805C384.823,267.313 324.331,327.805 249.823,327.805C175.314,327.805 114.823,267.313 114.823,192.805C114.823,118.296 175.314,57.805 249.823,57.805ZM249.823,87.805C307.774,87.805 354.823,134.854 354.823,192.805C354.823,250.756 307.774,297.805 249.823,297.805C191.872,297.805 144.823,250.756 144.823,192.805C144.823,134.854 191.872,87.805 249.823,87.805Z"/>
    </g>
    <g transform="matrix(0.048,0,0,0.048,-0.432,0)">
        <path d="M122.529,217.198L92.529,217.198L92.529,251.639C92.529,264.874 103.274,275.619 116.509,275.619L244.623,275.619L241.398,245.619L129.099,245.619C125.473,245.619 122.529,242.675 122.529,239.049L122.529,217.198Z"/>
    </g>
    <g transform="matrix(0.0542524,0,0,0.048,-1.62642,-0.132)">
        <path d="M279.877,263.21C279.877,249.572 270.081,238.5 258.015,238.5L236.485,238.5C224.419,238.5 214.623,249.572 214.623,263.21C214.623,276.847 224.419,287.919 236.485,287.919L258.015,287.919C270.081,287.919 279.877,276.847 279.877,263.21Z"/>
    </g>
    <g transform="matrix(0.048,0,0,0.048,0,0)">
        <path d="M148.188,123.698L107.62,123.698C88.813,123.698 73.544,138.966 73.544,157.773L73.544,201.924C73.544,220.731 88.813,236 107.62,236L131.521,236L131.521,206L113.644,206C108.07,206 103.544,201.474 103.544,195.9L103.544,163.798C103.544,158.223 108.07,153.698 113.644,153.698L148.188,153.698L148.188,123.698Z"/>
    </g>
    <g transform="matrix(-0.048,0,0,0.048,23.7931,0)">
        <path d="M148.188,123.698L107.62,123.698C88.813,123.698 73.544,138.966 73.544,157.773L73.544,201.924C73.544,220.731 88.813,236 107.62,236L131.521,236L131.521,206L113.644,206C108.07,206 103.544,201.474 103.544,195.9L103.544,163.798C103.544,158.223 108.07,153.698 113.644,153.698L148.188,153.698L148.188,123.698Z"/>
    </g>
</svg>
