<?xml version="1.0" encoding="UTF-8" standalone="no"?>
<!DOCTYPE svg PUBLIC "-//W3C//DTD SVG 1.1//EN" "http://www.w3.org/Graphics/SVG/1.1/DTD/svg11.dtd">
<svg width="100%" height="100%" viewBox="0 0 24 24" version="1.1" xmlns="http://www.w3.org/2000/svg" xmlns:xlink="http://www.w3.org/1999/xlink" xml:space="preserve" xmlns:serif="http://www.serif.com/" style="fill-rule:evenodd;clip-rule:evenodd;stroke-linejoin:round;stroke-miterlimit:2;">
    <g transform="matrix(0.048,0,0,0.0788914,-0.686321,-5.18349)">
        <rect x="208.931" y="147.979" width="102.999" height="18.253"/>
    </g>
    <g transform="matrix(0.0223068,0,0,0.0788914,11.5211,-5.45007)">
        <rect x="208.931" y="147.979" width="102.999" height="18.253"/>
    </g>
    <g transform="matrix(0.0223068,0,0,0.0788914,11.5211,-2.34346)">
        <rect x="208.931" y="147.979" width="102.999" height="18.253"/>
    </g>
    <g transform="matrix(0.0223068,0,0,0.0788914,11.5211,-8.55668)">
        <rect x="208.931" y="147.979" width="102.999" height="18.253"/>
    </g>
    <g transform="matrix(0.0223068,0,0,0.0788914,11.5211,0.763159)">
        <rect x="208.931" y="147.979" width="102.999" height="18.253"/>
    </g>
    <g transform="matrix(0.048,0,0,0.048,0,0)">
        <path d="M206.132,279.505L206.132,313.165C185.104,326.461 171.132,349.914 171.132,376.605C171.132,417.999 204.738,451.605 246.132,451.605C287.526,451.605 321.132,417.999 321.132,376.605C321.132,349.914 307.159,326.461 286.132,313.165L286.132,279.505C324.263,295.244 351.132,332.811 351.132,376.605C351.132,434.556 304.083,481.605 246.132,481.605C188.181,481.605 141.132,434.556 141.132,376.605C141.132,332.811 168.001,295.244 206.132,279.505Z"/>
    </g>
    <g transform="matrix(0.048,0,0,0.048,0,0)">
        <path d="M176.132,301.605L206.132,301.605L206.132,82.346C206.132,60.269 224.055,42.346 246.132,42.346C268.208,42.346 286.132,60.269 286.132,82.346L286.132,301.605L316.132,301.605L316.132,82.346C316.132,43.712 284.766,12.346 246.132,12.346C207.498,12.346 176.132,43.712 176.132,82.346L176.132,301.605Z"/>
    </g>
</svg>
