<?xml version="1.0" encoding="UTF-8" standalone="no"?>
<!DOCTYPE svg PUBLIC "-//W3C//DTD SVG 1.1//EN" "http://www.w3.org/Graphics/SVG/1.1/DTD/svg11.dtd">
<svg width="100%" height="100%" viewBox="0 0 24 24" version="1.1" xmlns="http://www.w3.org/2000/svg" xmlns:xlink="http://www.w3.org/1999/xlink" xml:space="preserve" xmlns:serif="http://www.serif.com/" style="fill-rule:evenodd;clip-rule:evenodd;stroke-linejoin:round;stroke-miterlimit:2;">
    <g transform="matrix(0.048,0,0,0.0636218,-0.951095,11.9596)">
        <path d="M474.814,164.266C474.814,158.02 468.093,152.949 459.814,152.949L79.815,152.949C71.536,152.949 64.815,158.02 64.815,164.266C64.815,170.512 71.536,175.583 79.815,175.583L459.814,175.583C468.093,175.583 474.814,170.512 474.814,164.266Z"/>
    </g>
    <g transform="matrix(0.048,0,0,0.048,0,0)">
        <path d="M320.437,316.254L178.917,316.254L138.367,421.941L51.735,421.941L209.023,12L290.332,12L447.62,421.941L360.987,421.941L320.437,316.254ZM381.609,391.941L403.977,391.941L269.71,42L229.645,42L95.378,391.941L117.745,391.941L158.296,286.254L341.059,286.254L381.609,391.941ZM259.205,72.918L332.904,265L166.45,265L240.149,72.918L259.205,72.918ZM210.093,235L289.261,235L249.677,131.832L210.093,235Z"/>
    </g>
</svg>
