<?xml version="1.0" encoding="UTF-8" standalone="no"?>
<!DOCTYPE svg PUBLIC "-//W3C//DTD SVG 1.1//EN" "http://www.w3.org/Graphics/SVG/1.1/DTD/svg11.dtd">
<svg width="100%" height="100%" viewBox="0 0 24 24" version="1.1" xmlns="http://www.w3.org/2000/svg" xmlns:xlink="http://www.w3.org/1999/xlink" xml:space="preserve" xmlns:serif="http://www.serif.com/" style="fill-rule:evenodd;clip-rule:evenodd;stroke-linejoin:round;stroke-miterlimit:2;">
    <g transform="matrix(0.05832,-2.19207e-18,-2.70626e-18,0.0499017,-1.41397,0.0426536)">
        <path d="M74.417,193.441C74.417,185.477 68.885,179.012 62.071,179.012C55.258,179.012 49.726,185.477 49.726,193.441L49.726,416.985C49.726,424.948 55.258,431.413 62.071,431.413C68.885,431.413 74.417,424.948 74.417,416.985L74.417,193.441Z"/>
    </g>
    <g transform="matrix(0.05832,-2.19207e-18,-2.70626e-18,0.0499017,3.19509,0.0426536)">
        <path d="M74.417,193.441C74.417,185.477 68.885,179.012 62.071,179.012C55.258,179.012 49.726,185.477 49.726,193.441L49.726,416.985C49.726,424.948 55.258,431.413 62.071,431.413C68.885,431.413 74.417,424.948 74.417,416.985L74.417,193.441Z"/>
    </g>
    <g transform="matrix(5.1732e-18,0.05832,-0.0239661,5.58292e-19,11.8253,6.07568)">
        <path d="M74.417,209.055C74.417,192.474 68.885,179.012 62.071,179.012C55.258,179.012 49.726,192.474 49.726,209.055L49.726,401.37C49.726,417.951 55.258,431.413 62.071,431.413C68.885,431.413 74.417,417.951 74.417,401.37L74.417,209.055Z"/>
    </g>
    <g transform="matrix(5.5069e-18,0.05832,-0.0639339,7.31556e-19,29.0679,17.2309)">
        <path d="M74.417,190.274C74.417,184.059 68.885,179.012 62.071,179.012C55.258,179.012 49.726,184.059 49.726,190.274L49.726,420.151C49.726,426.367 55.258,431.413 62.071,431.413C68.885,431.413 74.417,426.367 74.417,420.151L74.417,190.274Z"/>
    </g>
    <g transform="matrix(-0.048,0,0,-0.048,23.664,23.88)">
        <path d="M235.913,417.75L343.63,289.369C348.951,283.026 358.421,282.198 364.763,287.519C371.105,292.84 371.934,302.309 366.612,308.651L258.165,437.903C257.56,438.625 256.901,439.275 256.199,439.852C250.103,445.757 241.794,449.394 232.642,449.394C213.946,449.394 198.767,434.215 198.767,415.519C198.767,411.542 199.454,407.725 200.714,404.181L224.737,314.526L79.9,314.526C79.535,314.526 79.173,314.513 78.814,314.488C78.182,314.513 77.548,314.526 76.912,314.526C51.55,314.526 30.959,293.936 30.959,268.574C30.959,261.787 32.434,255.342 35.081,249.539C35.197,249.239 35.324,248.941 35.462,248.646L124.741,56.78C128.234,49.274 137.163,46.015 144.669,49.508C152.175,53.001 155.433,61.93 151.941,69.436L63.95,258.534C63.656,259.165 63.402,259.803 63.188,260.447C61.774,262.827 60.962,265.606 60.962,268.574C60.962,277.127 67.709,284.116 76.166,284.506C76.539,284.602 76.918,284.684 77.302,284.751C78.146,284.603 79.014,284.526 79.9,284.526L240.539,284.526C243.001,283.863 245.666,283.819 248.305,284.526C255.09,286.345 259.539,292.546 259.423,299.268C259.424,299.354 259.425,299.44 259.425,299.526C259.425,301.584 259.01,303.545 258.259,305.33L229.25,413.594C229.208,413.668 229.168,413.744 229.13,413.822C229.058,414.021 228.982,414.217 228.901,414.412C228.798,414.763 228.742,415.134 228.742,415.519C228.742,417.671 230.489,419.419 232.642,419.419C233.825,419.419 234.885,418.891 235.6,418.059C235.712,417.968 235.817,417.865 235.913,417.75Z"/>
    </g>
</svg>
