<?xml version="1.0" encoding="UTF-8" standalone="no"?>
<!DOCTYPE svg PUBLIC "-//W3C//DTD SVG 1.1//EN" "http://www.w3.org/Graphics/SVG/1.1/DTD/svg11.dtd">
<svg width="100%" height="100%" viewBox="0 0 24 24" version="1.1" xmlns="http://www.w3.org/2000/svg" xmlns:xlink="http://www.w3.org/1999/xlink" xml:space="preserve" xmlns:serif="http://www.serif.com/" style="fill-rule:evenodd;clip-rule:evenodd;stroke-linejoin:round;stroke-miterlimit:2;">
    <g transform="matrix(0.0455343,-0.0262892,0.00915789,0.0158619,-1.82387,10.3333)">
        <rect x="134.129" y="126.404" width="27.388" height="106.742"/>
    </g>
    <g transform="matrix(0.0455343,-0.0262892,0.0118421,0.0205111,-0.705636,12.2701)">
        <rect x="134.129" y="126.404" width="27.388" height="106.742"/>
    </g>
    <g transform="matrix(0.0455343,-0.0262892,0.0118421,0.0205111,1.03841,15.2909)">
        <rect x="134.129" y="126.404" width="27.388" height="106.742"/>
    </g>
    <g transform="matrix(0.0455343,-0.0262892,0.00947368,0.0164089,3.08183,18.8302)">
        <rect x="134.129" y="126.404" width="27.388" height="106.742"/>
    </g>
    <g transform="matrix(0.0403486,-0.0232953,0.0215613,0.0373453,-3.88033,8.00456)">
        <rect x="42.181" y="111.111" width="420.439" height="33.393"/>
    </g>
    <g transform="matrix(0.0403486,-0.0232953,0.0215613,0.0373453,2.00091,18.1912)">
        <rect x="42.181" y="111.111" width="420.439" height="33.393"/>
    </g>
    <g transform="matrix(0.0415692,-0.024,0.024,0.0415692,-4.38788,7.60651)">
        <path d="M45.953,174.355C47.225,174.291 48.509,174.258 49.8,174.258C91.194,174.258 124.8,207.864 124.8,249.258C124.8,290.652 91.194,324.258 49.8,324.258C48.509,324.258 47.225,324.225 45.953,324.161L45.953,294.095C47.22,294.203 48.504,294.258 49.8,294.258C74.637,294.258 94.8,274.094 94.8,249.258C94.8,224.422 74.637,204.258 49.8,204.258C48.504,204.258 47.22,204.313 45.953,204.421L45.953,174.355Z"/>
    </g>
    <g transform="matrix(0.0415692,-0.024,0.024,0.0415692,-4.38788,7.60651)">
        <path d="M454.047,324.031C452.109,324.182 450.152,324.258 448.177,324.258C406.784,324.258 373.177,290.652 373.177,249.258C373.177,207.864 406.784,174.258 448.177,174.258C450.152,174.258 452.109,174.334 454.047,174.485L454.047,204.638C452.126,204.387 450.167,204.258 448.177,204.258C423.341,204.258 403.177,224.422 403.177,249.258C403.177,274.094 423.341,294.258 448.177,294.258C450.167,294.258 452.126,294.129 454.047,293.878L454.047,324.031Z"/>
    </g>
    <g transform="matrix(0.0415692,-0.024,0.024,0.0415692,-4.38788,7.60651)">
        <path d="M454.047,294.258L424.047,294.258L424.047,387.341L454.047,387.341L454.047,294.258ZM454.047,204.258L454.047,112.29L424.047,112.29L424.047,204.258L454.047,204.258Z"/>
    </g>
    <g transform="matrix(0.0415692,-0.024,0.024,0.0415692,-4.38788,7.60651)">
        <path d="M75.953,294.258L45.953,294.258L45.953,387.341L75.953,387.341L75.953,294.258ZM75.953,204.258L75.953,112.29L45.953,112.29L45.953,204.258L75.953,204.258Z"/>
    </g>
</svg>
