<?xml version="1.0" encoding="UTF-8" standalone="no"?>
<!DOCTYPE svg PUBLIC "-//W3C//DTD SVG 1.1//EN" "http://www.w3.org/Graphics/SVG/1.1/DTD/svg11.dtd">
<svg width="100%" height="100%" viewBox="0 0 24 24" version="1.1" xmlns="http://www.w3.org/2000/svg" xmlns:xlink="http://www.w3.org/1999/xlink" xml:space="preserve" xmlns:serif="http://www.serif.com/" style="fill-rule:evenodd;clip-rule:evenodd;stroke-linejoin:round;stroke-miterlimit:2;">
    <g transform="matrix(0.048,0,0,0.0597643,0,-0.176465)">
        <rect x="70" y="15" width="360" height="24.095"/>
    </g>
    <g transform="matrix(0.048,0,0,0.0597643,0,20.9435)">
        <rect x="70" y="15" width="360" height="24.095"/>
    </g>
    <g transform="matrix(3.83723e-18,-0.0626667,0.0597643,3.65951e-18,2.46354,27.6667)">
        <rect x="70" y="15" width="360" height="24.095"/>
    </g>
    <g transform="matrix(3.83723e-18,-0.0626667,0.0597643,3.65951e-18,18.3035,27.6667)">
        <rect x="70" y="15" width="360" height="24.095"/>
    </g>
    <g transform="matrix(0.0190667,0,0,0.0597643,10.1049,3.66354)">
        <rect x="70" y="15" width="360" height="24.095"/>
    </g>
    <g transform="matrix(0.0217482,0.0217482,-0.0436643,0.0436643,10.2009,-7.62885)">
        <path d="M309.824,196.159C309.824,189.724 299.335,184.499 286.414,184.499L216.825,184.499C203.905,184.499 193.416,189.724 193.416,196.159C193.416,202.594 203.905,207.819 216.825,207.819L286.414,207.819C299.335,207.819 309.824,202.594 309.824,196.159Z"/>
    </g>
    <g transform="matrix(-0.0239772,0.0415417,0.0534814,0.0308687,4.47515,-11.1504)">
        <path d="M309.824,196.159C309.824,189.724 303.098,184.499 294.813,184.499L208.427,184.499C200.142,184.499 193.416,189.724 193.416,196.159C193.416,202.594 200.142,207.819 208.427,207.819L294.813,207.819C303.098,207.819 309.824,202.594 309.824,196.159Z"/>
    </g>
    <g transform="matrix(0.0190667,0,0,0.0597643,10.1049,10.3895)">
        <rect x="70" y="15" width="360" height="24.095"/>
    </g>
    <g transform="matrix(0.0217482,0.0217482,-0.0436643,0.0436643,10.2009,-0.902928)">
        <path d="M309.824,196.159C309.824,189.724 299.335,184.499 286.414,184.499L216.825,184.499C203.905,184.499 193.416,189.724 193.416,196.159C193.416,202.594 203.905,207.819 216.825,207.819L286.414,207.819C299.335,207.819 309.824,202.594 309.824,196.159Z"/>
    </g>
    <g transform="matrix(-0.0239772,0.0415417,0.0534814,0.0308687,4.47515,-4.42448)">
        <path d="M309.824,196.159C309.824,189.724 303.098,184.499 294.813,184.499L208.427,184.499C200.142,184.499 193.416,189.724 193.416,196.159C193.416,202.594 200.142,207.819 208.427,207.819L294.813,207.819C303.098,207.819 309.824,202.594 309.824,196.159Z"/>
    </g>
    <g transform="matrix(0.0190667,0,0,0.0597643,10.1049,17.1154)">
        <rect x="70" y="15" width="360" height="24.095"/>
    </g>
    <g transform="matrix(0.0217482,0.0217482,-0.0436643,0.0436643,10.2009,5.82299)">
        <path d="M309.824,196.159C309.824,189.724 299.335,184.499 286.414,184.499L216.825,184.499C203.905,184.499 193.416,189.724 193.416,196.159C193.416,202.594 203.905,207.819 216.825,207.819L286.414,207.819C299.335,207.819 309.824,202.594 309.824,196.159Z"/>
    </g>
    <g transform="matrix(-0.0239772,0.0415417,0.0534814,0.0308687,4.47515,2.30145)">
        <path d="M309.824,196.159C309.824,189.724 303.098,184.499 294.813,184.499L208.427,184.499C200.142,184.499 193.416,189.724 193.416,196.159C193.416,202.594 200.142,207.819 208.427,207.819L294.813,207.819C303.098,207.819 309.824,202.594 309.824,196.159Z"/>
    </g>
</svg>
