<?xml version="1.0" encoding="UTF-8" standalone="no"?>
<!DOCTYPE svg PUBLIC "-//W3C//DTD SVG 1.1//EN" "http://www.w3.org/Graphics/SVG/1.1/DTD/svg11.dtd">
<svg width="100%" height="100%" viewBox="0 0 24 24" version="1.1" xmlns="http://www.w3.org/2000/svg" xmlns:xlink="http://www.w3.org/1999/xlink" xml:space="preserve" xmlns:serif="http://www.serif.com/" style="fill-rule:evenodd;clip-rule:evenodd;stroke-linejoin:round;stroke-miterlimit:2;">
    <g transform="matrix(0.048,0,0,0.048,0,0)">
        <path d="M485.5,250C485.5,184.874 432.626,132 367.5,132L132.5,132C67.374,132 14.5,184.874 14.5,250C14.5,315.126 67.374,368 132.5,368L367.5,368C432.626,368 485.5,315.126 485.5,250ZM455.5,250C455.5,201.431 416.069,162 367.5,162L132.5,162C83.931,162 44.5,201.431 44.5,250C44.5,298.569 83.931,338 132.5,338L367.5,338C416.069,338 455.5,298.569 455.5,250Z"/>
    </g>
    <g transform="matrix(0.048,0,0,0.048,0,0)">
        <path d="M60.961,250C60.961,210.516 93.016,178.461 132.5,178.461C171.984,178.461 204.039,210.516 204.039,250C204.039,289.484 171.984,321.539 132.5,321.539C93.016,321.539 60.961,289.484 60.961,250ZM90.961,250C90.961,227.074 109.574,208.461 132.5,208.461C155.426,208.461 174.039,227.074 174.039,250C174.039,272.926 155.426,291.539 132.5,291.539C109.574,291.539 90.961,272.926 90.961,250Z"/>
    </g>
</svg>
