<?xml version="1.0" encoding="UTF-8" standalone="no"?>
<!DOCTYPE svg PUBLIC "-//W3C//DTD SVG 1.1//EN" "http://www.w3.org/Graphics/SVG/1.1/DTD/svg11.dtd">
<svg width="100%" height="100%" viewBox="0 0 24 24" version="1.1" xmlns="http://www.w3.org/2000/svg" xmlns:xlink="http://www.w3.org/1999/xlink" xml:space="preserve" xmlns:serif="http://www.serif.com/" style="fill-rule:evenodd;clip-rule:evenodd;stroke-linejoin:round;stroke-miterlimit:2;">
    <g transform="matrix(0.121283,0,0,0.0436277,-7.76902,8.10772)">
        <rect x="75.49" y="56.209" width="33.007" height="33.007"/>
    </g>
    <g transform="matrix(0.261006,0,0,0.0436277,-12.1363,8.10772)">
        <rect x="75.49" y="56.209" width="33.007" height="33.007"/>
    </g>
    <g transform="matrix(0.116531,0,0,0.0436277,9.98582,8.10772)">
        <rect x="75.49" y="56.209" width="33.007" height="33.007"/>
    </g>
    <g transform="matrix(0.048,0,0,0.048,0,-1.36424e-15)">
        <path d="M481.046,137.829C481.046,126.843 472.127,117.925 461.142,117.925L38.858,117.925C27.873,117.925 18.954,126.843 18.954,137.829L18.954,431.354C18.954,442.34 27.873,451.258 38.858,451.258L461.142,451.258C472.127,451.258 481.046,442.34 481.046,431.354L481.046,137.829ZM451.046,153.745C451.046,150.533 448.438,147.925 445.226,147.925L54.774,147.925C51.562,147.925 48.954,150.533 48.954,153.745L48.954,415.438C48.954,418.65 51.562,421.258 54.774,421.258L445.226,421.258C448.438,421.258 451.046,418.65 451.046,415.438L451.046,153.745Z"/>
    </g>
    <g transform="matrix(0.048,0,0,0.048,0,-1.36424e-15)">
        <path d="M175.209,201.673C175.209,189.23 165.107,179.127 152.664,179.127L115.833,179.127C103.39,179.127 93.288,189.23 93.288,201.673L93.288,269.863C93.288,282.306 103.39,292.408 115.833,292.408L152.664,292.408C165.107,292.408 175.209,282.306 175.209,269.863L175.209,201.673ZM145.209,209.127L123.288,209.127L123.288,262.408L145.209,262.408L145.209,209.127Z"/>
    </g>
    <g transform="matrix(0.048,0,0,0.048,11.1122,-1.36424e-15)">
        <path d="M175.209,201.673C175.209,189.23 165.107,179.127 152.664,179.127L115.833,179.127C103.39,179.127 93.288,189.23 93.288,201.673L93.288,269.863C93.288,282.306 103.39,292.408 115.833,292.408L152.664,292.408C165.107,292.408 175.209,282.306 175.209,269.863L175.209,201.673ZM145.209,209.127L123.288,209.127L123.288,262.408L145.209,262.408L145.209,209.127Z"/>
    </g>
    <g transform="matrix(0.048,0,0,0.048,0,-1.36424e-15)">
        <path d="M130.392,130.316L160.392,130.316L160.392,85.976C160.392,81.983 163.634,78.742 167.626,78.742L327.145,78.742C331.138,78.742 334.379,81.983 334.379,85.976L334.379,130.316L364.379,130.316L364.379,82.469C364.379,63.854 349.267,48.742 330.652,48.742L164.119,48.742C145.505,48.742 130.392,63.854 130.392,82.469L130.392,130.316Z"/>
    </g>
</svg>
