<?xml version="1.0" encoding="UTF-8" standalone="no"?>
<!DOCTYPE svg PUBLIC "-//W3C//DTD SVG 1.1//EN" "http://www.w3.org/Graphics/SVG/1.1/DTD/svg11.dtd">
<svg width="100%" height="100%" viewBox="0 0 24 24" version="1.1" xmlns="http://www.w3.org/2000/svg" xmlns:xlink="http://www.w3.org/1999/xlink" xml:space="preserve" xmlns:serif="http://www.serif.com/" style="fill-rule:evenodd;clip-rule:evenodd;stroke-linejoin:round;stroke-miterlimit:2;">
    <g transform="matrix(0.048,0,0,0.048,-0.232602,-0.032)">
        <path d="M180.25,430.23L329.748,430.23L387.343,103.591L416.887,108.8L354.921,460.23L155.077,460.23L92.805,107.064L122.349,101.854L180.25,430.23Z"/>
    </g>
    <g transform="matrix(6.41532e-18,-0.0866259,-0.0518853,-1.17675e-17,24.7853,15.4439)">
        <rect x="110.169" y="65.841" width="16.623" height="361.147"/>
    </g>
    <g transform="matrix(0.0866259,5.12084e-18,5.83894e-18,-0.0310628,1.73647,20.4827)">
        <rect x="110.169" y="65.841" width="16.623" height="361.147"/>
    </g>
    <g transform="matrix(0.0866259,5.12084e-18,0.00440699,-0.0310628,3.74471,20.4827)">
        <rect x="110.169" y="65.841" width="16.623" height="361.147"/>
    </g>
    <g transform="matrix(-0.0866259,5.12084e-18,-0.00440699,-0.0310628,20.2553,20.4827)">
        <rect x="110.169" y="65.841" width="16.623" height="361.147"/>
    </g>
    <g transform="matrix(0.048,0,0,0.048,0.0542882,-0.032)">
        <path d="M184.43,103.373L214.43,103.373L214.43,77.124C214.43,73.801 217.128,71.103 220.45,71.103L277.287,71.103C280.61,71.103 283.308,73.801 283.308,77.124L283.308,103.373L313.308,103.373L313.308,73.3C313.308,55.53 298.881,41.103 281.112,41.103L216.626,41.103C198.856,41.103 184.43,55.53 184.43,73.3L184.43,103.373Z"/>
    </g>
</svg>
