<?xml version="1.0" encoding="UTF-8" standalone="no"?>
<!DOCTYPE svg PUBLIC "-//W3C//DTD SVG 1.1//EN" "http://www.w3.org/Graphics/SVG/1.1/DTD/svg11.dtd">
<svg width="100%" height="100%" viewBox="0 0 24 24" version="1.1" xmlns="http://www.w3.org/2000/svg" xmlns:xlink="http://www.w3.org/1999/xlink" xml:space="preserve" xmlns:serif="http://www.serif.com/" style="fill-rule:evenodd;clip-rule:evenodd;stroke-linejoin:round;stroke-miterlimit:2;">
    <g transform="matrix(0.048,0,0,0.048,0,0)">
        <path d="M229.345,333.029C267.972,332.894 299.441,364.144 299.576,402.77C299.711,441.396 268.462,472.866 229.835,473.001C191.209,473.136 159.74,441.886 159.604,403.26C159.469,364.634 190.719,333.164 229.345,333.029ZM229.45,363.023C251.522,362.946 269.505,380.803 269.582,402.875C269.659,424.947 251.802,442.93 229.73,443.007C207.658,443.084 189.676,425.227 189.598,403.155C189.521,381.083 207.378,363.1 229.45,363.023Z"/>
    </g>
    <g transform="matrix(0.0351577,-0.0102347,0.0208328,0.0715639,-3.15645,-2.09286)">
        <path d="M224.719,90.418C224.719,85.087 215.908,80.758 205.056,80.758C194.204,80.758 185.393,85.087 185.393,90.418L185.393,291.604C185.393,296.936 194.204,301.264 205.056,301.264C215.908,301.264 224.719,296.936 224.719,291.604L224.719,90.418Z"/>
    </g>
    <g transform="matrix(-0.000128169,-0.0366169,0.021926,-7.6747e-05,0.0616451,9.79514)">
        <path d="M224.719,113.596C224.719,95.472 215.908,80.758 205.056,80.758C194.204,80.758 185.393,95.472 185.393,113.596L185.393,268.427C185.393,286.55 194.204,301.264 205.056,301.264C215.908,301.264 224.719,286.55 224.719,268.427L224.719,113.596Z"/>
    </g>
    <g transform="matrix(0.046103,-0.013361,0.013361,0.046103,-2.76426,2.00601)">
        <path d="M434.494,202.8C434.508,191.462 425.315,182.244 413.976,182.229L211.09,181.965C199.751,181.951 190.533,191.144 190.519,202.483L190.305,366.841C190.29,378.18 199.484,387.397 210.823,387.412L413.709,387.676C425.048,387.691 434.265,378.497 434.28,367.158L434.494,202.8ZM404.696,212.045L220.292,211.806L220.103,357.596L404.506,357.836L404.696,212.045Z"/>
    </g>
    <g transform="matrix(0.046103,-0.013361,0.013361,0.046103,-2.76426,2.00601)">
        <path d="M262.444,186.712L262.316,264.942L362.444,265.059L362.444,186.829L332.444,186.79L332.381,235.02L292.381,234.981L292.444,186.751L262.444,186.712Z"/>
    </g>
    <g transform="matrix(0.0100738,0.0352042,-0.0403062,0.0115337,22.6386,7.11677)">
        <path d="M224.719,97.932C224.719,88.454 215.908,80.758 205.056,80.758C194.204,80.758 185.393,88.454 185.393,97.932L185.393,284.09C185.393,293.569 194.204,301.264 205.056,301.264C215.908,301.264 224.719,293.569 224.719,284.09L224.719,97.932Z"/>
    </g>
</svg>
