<?xml version="1.0" encoding="UTF-8" standalone="no"?>
<!DOCTYPE svg PUBLIC "-//W3C//DTD SVG 1.1//EN" "http://www.w3.org/Graphics/SVG/1.1/DTD/svg11.dtd">
<svg width="100%" height="100%" viewBox="0 0 24 24" version="1.1" xmlns="http://www.w3.org/2000/svg" xmlns:xlink="http://www.w3.org/1999/xlink" xml:space="preserve" xmlns:serif="http://www.serif.com/" style="fill-rule:evenodd;clip-rule:evenodd;stroke-linejoin:round;stroke-miterlimit:2;">
    <g transform="matrix(0.0419904,0,0,0.0461315,0.238782,0.0602064)">
        <path d="M61.043,112.054C61.043,103.44 53.359,96.447 43.896,96.447C34.432,96.447 26.749,103.44 26.749,112.054L26.749,361.622C26.749,370.236 34.432,377.229 43.896,377.229C53.359,377.229 61.043,370.236 61.043,361.622L61.043,112.054Z"/>
    </g>
    <g transform="matrix(2.57117e-18,0.0419904,-0.0493928,3.02444e-18,19.9944,3.38625)">
        <path d="M61.043,111.024C61.043,102.979 53.359,96.447 43.896,96.447C34.432,96.447 26.749,102.979 26.749,111.024L26.749,362.652C26.749,370.697 34.432,377.229 43.896,377.229C53.359,377.229 61.043,370.697 61.043,362.652L61.043,111.024Z"/>
    </g>
    <g transform="matrix(2.57117e-18,0.0419904,-0.0234279,1.43455e-18,22.6283,6.15168)">
        <path d="M61.043,127.179C61.043,110.218 53.359,96.447 43.896,96.447C34.432,96.447 26.749,110.218 26.749,127.179L26.749,346.497C26.749,363.458 34.432,377.229 43.896,377.229C53.359,377.229 61.043,363.458 61.043,346.497L61.043,127.179Z"/>
    </g>
    <g transform="matrix(2.57117e-18,0.0419904,-0.020901,1.27982e-18,24.6539,10.4644)">
        <path d="M61.043,130.895C61.043,111.882 53.359,96.447 43.896,96.447C34.432,96.447 26.749,111.882 26.749,130.895L26.749,342.781C26.749,361.793 34.432,377.229 43.896,377.229C53.359,377.229 61.043,361.793 61.043,342.781L61.043,130.895Z"/>
    </g>
    <g transform="matrix(-0.0419904,0,0,-0.0461315,16.3538,21.9116)">
        <path d="M61.043,112.054C61.043,103.44 53.359,96.447 43.896,96.447C34.432,96.447 26.749,103.44 26.749,112.054L26.749,361.622C26.749,370.236 34.432,377.229 43.896,377.229C53.359,377.229 61.043,370.236 61.043,361.622L61.043,112.054Z"/>
    </g>
    <g transform="matrix(-0.0419904,2.81006e-18,3.08719e-18,-0.0209227,23.7612,19.4803)">
        <path d="M61.043,130.859C61.043,111.866 53.359,96.447 43.896,96.447C34.432,96.447 26.749,111.866 26.749,130.859L26.749,342.817C26.749,361.809 34.432,377.229 43.896,377.229C53.359,377.229 61.043,361.809 61.043,342.817L61.043,130.859Z"/>
    </g>
    <g transform="matrix(-0.0419904,2.85848e-18,3.14039e-18,-0.0204883,19.3326,15.0037)">
        <path d="M61.043,131.589C61.043,112.193 53.359,96.447 43.896,96.447C34.432,96.447 26.749,112.193 26.749,131.589L26.749,342.087C26.749,361.482 34.432,377.229 43.896,377.229C53.359,377.229 61.043,361.482 61.043,342.087L61.043,131.589Z"/>
    </g>
    <g transform="matrix(-0.0371826,0.0195102,-0.0104116,-0.0198425,24.8888,14.0025)">
        <path d="M61.043,128.578C61.043,110.844 53.359,96.447 43.896,96.447C34.432,96.447 26.749,110.844 26.749,128.578L26.749,345.098C26.749,362.832 34.432,377.229 43.896,377.229C53.359,377.229 61.043,362.832 61.043,345.098L61.043,128.578Z"/>
    </g>
    <g transform="matrix(0.048,0,0,0.048,0.0780317,-0.12)">
        <path d="M125.752,298.553C156.108,298.553 180.752,323.198 180.752,353.553C180.752,383.909 156.108,408.553 125.752,408.553C95.397,408.553 70.752,383.909 70.752,353.553C70.752,323.198 95.397,298.553 125.752,298.553ZM125.752,328.553C139.55,328.553 150.752,339.755 150.752,353.553C150.752,367.351 139.55,378.553 125.752,378.553C111.955,378.553 100.752,367.351 100.752,353.553C100.752,339.755 111.955,328.553 125.752,328.553Z"/>
    </g>
    <g transform="matrix(0.048,0,0,0.048,12.318,-0.12)">
        <path d="M125.752,298.553C156.108,298.553 180.752,323.198 180.752,353.553C180.752,383.909 156.108,408.553 125.752,408.553C95.397,408.553 70.752,383.909 70.752,353.553C70.752,323.198 95.397,298.553 125.752,298.553ZM125.752,328.553C139.55,328.553 150.752,339.755 150.752,353.553C150.752,367.351 139.55,378.553 125.752,378.553C111.955,378.553 100.752,367.351 100.752,353.553C100.752,339.755 111.955,328.553 125.752,328.553Z"/>
    </g>
    <g transform="matrix(0.048,0,0,0.048,0.0780317,-0.12)">
        <path d="M88.368,336.299L41.749,336.299C33.47,336.299 26.749,343.021 26.749,351.299C26.749,359.578 33.47,366.299 41.749,366.299L88.368,366.299L88.368,336.299ZM339.868,366.299L159.368,366.299L159.368,336.299L339.868,336.299L339.868,366.299ZM410.868,336.299L410.868,366.299L455,366.299C463.278,366.299 470,359.578 470,351.299C470,343.021 463.278,336.299 455,336.299L410.868,336.299Z"/>
    </g>
</svg>
