<?xml version="1.0" encoding="UTF-8" standalone="no"?>
<!DOCTYPE svg PUBLIC "-//W3C//DTD SVG 1.1//EN" "http://www.w3.org/Graphics/SVG/1.1/DTD/svg11.dtd">
<svg width="100%" height="100%" viewBox="0 0 24 24" version="1.1" xmlns="http://www.w3.org/2000/svg" xmlns:xlink="http://www.w3.org/1999/xlink" xml:space="preserve" xmlns:serif="http://www.serif.com/" style="fill-rule:evenodd;clip-rule:evenodd;stroke-linejoin:round;stroke-miterlimit:2;">
    <g transform="matrix(0.048,0,0,0.048,1.63709e-14,-0.0136574)">
        <path d="M448.019,15.022C456.298,15.022 463.019,21.743 463.019,30.022L463.019,120.405C463.019,128.683 456.298,135.405 448.019,135.405C442.283,135.405 437.294,132.178 434.772,127.442C426.822,118.11 407.728,105.585 389.866,105.585L321.506,105.585L321.259,105.213L294.647,105.213L294.647,366.803C294.647,384.907 305.269,395.53 323.374,395.53L365.019,395.53C373.298,395.53 380.019,402.251 380.019,410.53L380.019,470.547C380.019,473.969 378.871,477.124 376.939,479.649L376.929,479.663C376.929,479.663 376.916,479.679 376.916,479.679C374.174,483.246 369.863,485.547 365.019,485.547L134.981,485.547C130.137,485.547 125.826,483.246 123.084,479.679L123.071,479.663C123.071,479.663 123.061,479.649 123.061,479.649C121.129,477.124 119.981,473.969 119.981,470.547L119.981,410.53C119.981,402.251 126.702,395.53 134.981,395.53L176.707,395.53C194.812,395.53 205.434,384.907 205.434,366.803L205.434,105.213L178.741,105.213L178.494,105.585L110.134,105.585C92.272,105.585 73.178,118.11 65.228,127.442C62.706,132.178 57.717,135.405 51.981,135.405C43.702,135.405 36.981,128.683 36.981,120.405L36.981,30.022C36.981,21.743 43.702,15.022 51.981,15.022L448.019,15.022ZM350.019,425.53L317.15,425.53C285.173,425.53 264.647,399.254 264.647,373.027L264.647,91.782C264.594,91.267 264.566,90.743 264.566,90.213C264.566,81.935 271.287,75.213 279.566,75.213L385.495,75.213C403.537,75.213 420.135,80.832 433.019,87.884L433.019,45.022L66.981,45.022L66.981,87.884C79.865,80.832 96.463,75.213 114.505,75.213L220.434,75.213C228.713,75.213 235.434,81.935 235.434,90.213L235.434,373.027C235.434,399.254 214.908,425.53 182.931,425.53L149.981,425.53L149.981,455.547L350.019,455.547L350.019,425.53Z"/>
    </g>
</svg>
