<?xml version="1.0" encoding="UTF-8" standalone="no"?>
<!DOCTYPE svg PUBLIC "-//W3C//DTD SVG 1.1//EN" "http://www.w3.org/Graphics/SVG/1.1/DTD/svg11.dtd">
<svg width="100%" height="100%" viewBox="0 0 24 24" version="1.1" xmlns="http://www.w3.org/2000/svg" xmlns:xlink="http://www.w3.org/1999/xlink" xml:space="preserve" xmlns:serif="http://www.serif.com/" style="fill-rule:evenodd;clip-rule:evenodd;stroke-linejoin:round;stroke-miterlimit:2;">
    <g transform="matrix(0.048,0,0,0.048,0,0)">
        <path d="M351.36,194.425C362.191,177.429 381.207,166.146 402.838,166.146C436.505,166.146 463.838,193.479 463.838,227.146C463.838,235.425 457.117,242.146 448.838,242.146C440.56,242.146 433.838,235.425 433.838,227.146C433.838,210.037 419.948,196.146 402.838,196.146C385.729,196.146 371.838,210.037 371.838,227.146C371.838,249.091 330.881,249.091 330.881,227.146C330.881,210.037 316.991,196.146 299.881,196.146C282.772,196.146 268.881,210.037 268.881,227.146C268.881,249.091 228.795,249.091 228.795,227.146C228.795,210.037 214.905,196.146 197.795,196.146C180.686,196.146 166.795,210.037 166.795,227.146C166.795,247.425 125.838,250.425 125.838,227.146C125.838,210.037 111.948,196.146 94.838,196.146C77.729,196.146 63.838,210.037 63.838,227.146C63.838,235.425 57.117,242.146 48.838,242.146C40.56,242.146 33.838,235.425 33.838,227.146C33.838,193.479 61.172,166.146 94.838,166.146C116.469,166.146 135.486,177.429 146.317,194.425C157.148,177.429 176.164,166.146 197.795,166.146C219.14,166.146 237.939,177.133 248.838,193.751C259.738,177.133 278.536,166.146 299.881,166.146C321.512,166.146 340.529,177.429 351.36,194.425Z"/>
    </g>
    <g transform="matrix(0.048,0,0,0.048,0,0)">
        <path d="M142.129,409.761C142.129,401.483 148.85,394.761 157.129,394.761C165.407,394.761 172.129,401.483 172.129,409.761L172.129,425.91C172.129,443.387 186.318,457.576 203.795,457.576C221.273,457.576 235.462,443.387 235.462,425.91L235.462,221.428C235.462,203.951 265.462,187.393 265.462,221.428L265.462,425.91C265.462,459.945 237.83,487.576 203.795,487.576C169.761,487.576 142.129,459.945 142.129,425.91L142.129,409.761Z"/>
    </g>
    <g transform="matrix(0.048,0,0,0.048,0,0)">
        <path d="M33.838,227.431C33.838,108.769 130.177,12.431 248.838,12.431C367.5,12.431 463.838,108.769 463.838,227.431L433.838,227.431C433.838,125.327 350.943,42.431 248.838,42.431C146.734,42.431 63.838,125.327 63.838,227.431L33.838,227.431Z"/>
    </g>
</svg>
