<?xml version="1.0" encoding="UTF-8" standalone="no"?>
<!DOCTYPE svg PUBLIC "-//W3C//DTD SVG 1.1//EN" "http://www.w3.org/Graphics/SVG/1.1/DTD/svg11.dtd">
<svg width="100%" height="100%" viewBox="0 0 24 24" version="1.1" xmlns="http://www.w3.org/2000/svg" xmlns:xlink="http://www.w3.org/1999/xlink" xml:space="preserve" xmlns:serif="http://www.serif.com/" style="fill-rule:evenodd;clip-rule:evenodd;stroke-linejoin:round;stroke-miterlimit:2;">
    <g transform="matrix(0.048,0,0,0.048,0,0)">
        <path d="M250,50.899C296.913,50.899 335,88.986 335,135.899C335,182.812 296.913,220.899 250,220.899C203.087,220.899 165,182.812 165,135.899C165,88.986 203.087,50.899 250,50.899ZM250,80.899C280.355,80.899 305,105.544 305,135.899C305,166.254 280.355,190.899 250,190.899C219.645,190.899 195,166.254 195,135.899C195,105.544 219.645,80.899 250,80.899Z"/>
    </g>
    <g transform="matrix(0.048,0,0,0.048,0,0)">
        <path d="M250,239.157C343.601,239.157 429.593,305.155 429.593,374.129C429.593,418.524 343.601,449.101 250,449.101C156.399,449.101 70.407,424.142 70.407,374.129C70.407,305.155 156.399,239.157 250,239.157ZM250,269.157C337.7,269.157 399.593,330.768 399.593,371.068C399.593,392.8 320.828,419.101 250,419.101C179.172,419.101 100.407,398.137 100.407,371.068C100.407,329.003 162.3,269.157 250,269.157Z"/>
    </g>
</svg>
