<?xml version="1.0" encoding="UTF-8" standalone="no"?>
<!DOCTYPE svg PUBLIC "-//W3C//DTD SVG 1.1//EN" "http://www.w3.org/Graphics/SVG/1.1/DTD/svg11.dtd">
<svg width="100%" height="100%" viewBox="0 0 24 24" version="1.1" xmlns="http://www.w3.org/2000/svg" xmlns:xlink="http://www.w3.org/1999/xlink" xml:space="preserve" xmlns:serif="http://www.serif.com/" style="fill-rule:evenodd;clip-rule:evenodd;stroke-linejoin:round;stroke-miterlimit:2;">
    <g transform="matrix(0.0443757,0,0,0.0552505,-1.67018,-0.0845398)">
        <path d="M441.358,24.691C441.358,17.499 434.088,11.66 425.133,11.66L85.155,11.66C76.2,11.66 68.93,17.499 68.93,24.691C68.93,31.884 76.2,37.723 85.155,37.723L425.133,37.723C434.088,37.723 441.358,31.884 441.358,24.691Z"/>
    </g>
    <g transform="matrix(0.0136934,0,0,0.0552505,3.03066,2.66901)">
        <path d="M441.358,24.691C441.358,17.499 417.798,11.66 388.778,11.66L121.51,11.66C92.49,11.66 68.93,17.499 68.93,24.691C68.93,31.884 92.49,37.723 121.51,37.723L388.778,37.723C417.798,37.723 441.358,31.884 441.358,24.691Z"/>
    </g>
    <g transform="matrix(7.9741e-19,0.0130227,-0.0552505,3.38312e-18,6.05876,2.41557)">
        <path d="M441.358,24.691C441.358,17.499 416.584,11.66 386.07,11.66L124.218,11.66C93.704,11.66 68.93,17.499 68.93,24.691C68.93,31.884 93.704,37.723 124.218,37.723L386.07,37.723C416.584,37.723 441.358,31.884 441.358,24.691Z"/>
    </g>
    <g transform="matrix(-0.0136934,0,0,-0.0552505,10.0182,8.80745)">
        <path d="M441.358,24.691C441.358,17.499 417.798,11.66 388.778,11.66L121.51,11.66C92.49,11.66 68.93,17.499 68.93,24.691C68.93,31.884 92.49,37.723 121.51,37.723L388.778,37.723C417.798,37.723 441.358,31.884 441.358,24.691Z"/>
    </g>
    <g transform="matrix(-7.9741e-19,-0.0130227,0.0552505,-3.38312e-18,6.99013,9.06089)">
        <path d="M441.358,24.691C441.358,17.499 416.584,11.66 386.07,11.66L124.218,11.66C93.704,11.66 68.93,17.499 68.93,24.691C68.93,31.884 93.704,37.723 124.218,37.723L386.07,37.723C416.584,37.723 441.358,31.884 441.358,24.691Z"/>
    </g>
    <g transform="matrix(0.0136934,0,0,0.0552505,9.2858,2.66901)">
        <path d="M441.358,24.691C441.358,17.499 417.798,11.66 388.778,11.66L121.51,11.66C92.49,11.66 68.93,17.499 68.93,24.691C68.93,31.884 92.49,37.723 121.51,37.723L388.778,37.723C417.798,37.723 441.358,31.884 441.358,24.691Z"/>
    </g>
    <g transform="matrix(7.9741e-19,0.0130227,-0.0552505,3.38312e-18,12.3139,2.41557)">
        <path d="M441.358,24.691C441.358,17.499 416.584,11.66 386.07,11.66L124.218,11.66C93.704,11.66 68.93,17.499 68.93,24.691C68.93,31.884 93.704,37.723 124.218,37.723L386.07,37.723C416.584,37.723 441.358,31.884 441.358,24.691Z"/>
    </g>
    <g transform="matrix(-0.0136934,0,0,-0.0552505,16.2734,8.80745)">
        <path d="M441.358,24.691C441.358,17.499 417.798,11.66 388.778,11.66L121.51,11.66C92.49,11.66 68.93,17.499 68.93,24.691C68.93,31.884 92.49,37.723 121.51,37.723L388.778,37.723C417.798,37.723 441.358,31.884 441.358,24.691Z"/>
    </g>
    <g transform="matrix(-7.9741e-19,-0.0130227,0.0552505,-3.38312e-18,13.2453,9.06089)">
        <path d="M441.358,24.691C441.358,17.499 416.584,11.66 386.07,11.66L124.218,11.66C93.704,11.66 68.93,17.499 68.93,24.691C68.93,31.884 93.704,37.723 124.218,37.723L386.07,37.723C416.584,37.723 441.358,31.884 441.358,24.691Z"/>
    </g>
    <g transform="matrix(0.0136934,0,0,0.0552505,3.03066,8.93078)">
        <path d="M441.358,24.691C441.358,17.499 417.798,11.66 388.778,11.66L121.51,11.66C92.49,11.66 68.93,17.499 68.93,24.691C68.93,31.884 92.49,37.723 121.51,37.723L388.778,37.723C417.798,37.723 441.358,31.884 441.358,24.691Z"/>
    </g>
    <g transform="matrix(7.9741e-19,0.0130227,-0.0552505,3.38312e-18,6.05876,8.67734)">
        <path d="M441.358,24.691C441.358,17.499 416.584,11.66 386.07,11.66L124.218,11.66C93.704,11.66 68.93,17.499 68.93,24.691C68.93,31.884 93.704,37.723 124.218,37.723L386.07,37.723C416.584,37.723 441.358,31.884 441.358,24.691Z"/>
    </g>
    <g transform="matrix(-0.0136934,0,0,-0.0552505,10.0182,15.0692)">
        <path d="M441.358,24.691C441.358,17.499 417.798,11.66 388.778,11.66L121.51,11.66C92.49,11.66 68.93,17.499 68.93,24.691C68.93,31.884 92.49,37.723 121.51,37.723L388.778,37.723C417.798,37.723 441.358,31.884 441.358,24.691Z"/>
    </g>
    <g transform="matrix(-7.9741e-19,-0.0130227,0.0552505,-3.38312e-18,6.99013,15.3227)">
        <path d="M441.358,24.691C441.358,17.499 416.584,11.66 386.07,11.66L124.218,11.66C93.704,11.66 68.93,17.499 68.93,24.691C68.93,31.884 93.704,37.723 124.218,37.723L386.07,37.723C416.584,37.723 441.358,31.884 441.358,24.691Z"/>
    </g>
    <g transform="matrix(0.0136934,0,0,0.0552505,9.2858,8.93078)">
        <path d="M441.358,24.691C441.358,17.499 417.798,11.66 388.778,11.66L121.51,11.66C92.49,11.66 68.93,17.499 68.93,24.691C68.93,31.884 92.49,37.723 121.51,37.723L388.778,37.723C417.798,37.723 441.358,31.884 441.358,24.691Z"/>
    </g>
    <g transform="matrix(7.9741e-19,0.0130227,-0.0552505,3.38312e-18,12.3139,8.67734)">
        <path d="M441.358,24.691C441.358,17.499 416.584,11.66 386.07,11.66L124.218,11.66C93.704,11.66 68.93,17.499 68.93,24.691C68.93,31.884 93.704,37.723 124.218,37.723L386.07,37.723C416.584,37.723 441.358,31.884 441.358,24.691Z"/>
    </g>
    <g transform="matrix(-0.0136934,0,0,-0.0552505,16.2734,15.0692)">
        <path d="M441.358,24.691C441.358,17.499 417.798,11.66 388.778,11.66L121.51,11.66C92.49,11.66 68.93,17.499 68.93,24.691C68.93,31.884 92.49,37.723 121.51,37.723L388.778,37.723C417.798,37.723 441.358,31.884 441.358,24.691Z"/>
    </g>
    <g transform="matrix(0.0163453,0,0,0.0552505,5.55293,15.2188)">
        <path d="M441.358,24.691C441.358,17.499 421.62,11.66 397.309,11.66L112.979,11.66C88.668,11.66 68.93,17.499 68.93,24.691C68.93,31.884 88.668,37.723 112.979,37.723L397.309,37.723C421.62,37.723 441.358,31.884 441.358,24.691Z"/>
    </g>
    <g transform="matrix(-1.87552e-18,-0.0197268,0.0552505,-5.50752e-19,6.0354,24.5696)">
        <path d="M441.358,24.691C441.358,17.499 425.004,11.66 404.859,11.66L105.429,11.66C85.284,11.66 68.93,17.499 68.93,24.691C68.93,31.884 85.284,37.723 105.429,37.723L404.859,37.723C425.004,37.723 441.358,31.884 441.358,24.691Z"/>
    </g>
    <g transform="matrix(3.72401e-18,0.0608177,-0.0552505,3.38312e-18,3.47285,-3.63249)">
        <path d="M441.358,24.691C441.358,17.499 436.053,11.66 429.519,11.66L80.769,11.66C74.235,11.66 68.93,17.499 68.93,24.691C68.93,31.884 74.235,37.723 80.769,37.723L429.519,37.723C436.053,37.723 441.358,31.884 441.358,24.691Z"/>
    </g>
    <g transform="matrix(0.048,0,0,0.048,0,0.166639)">
        <path d="M345.545,177.067C381.241,177.067 410.223,206.049 410.223,241.746C410.223,277.443 381.241,306.424 345.545,306.424C309.848,306.424 280.866,277.443 280.866,241.746C280.866,206.049 309.848,177.067 345.545,177.067ZM345.545,207.067C364.684,207.067 380.223,222.606 380.223,241.746C380.223,260.885 364.684,276.424 345.545,276.424C326.405,276.424 310.866,260.885 310.866,241.746C310.866,222.606 326.405,207.067 345.545,207.067Z"/>
    </g>
    <g transform="matrix(0.048,0,0,0.048,0,0.166639)">
        <path d="M345.789,320.317L346.034,320.317C417.257,320.317 482.69,370.536 482.69,423.02C482.69,461.076 417.257,480.067 346.034,480.067L345.545,480.067C274.322,480.067 208.889,461.076 208.889,423.02C208.889,370.536 274.322,320.317 345.545,320.317L345.789,320.317ZM345.789,350.317C285.124,350.317 238.889,389.021 238.889,420.69C238.889,432.273 277.12,450.067 345.789,450.067C414.458,450.067 452.69,430.773 452.69,420.69C452.69,387.499 406.455,350.421 345.789,350.317Z"/>
    </g>
    <g transform="matrix(0.048,0,0,0.048,-1.92,0)">
        <path d="M354.317,453.539C361.101,465.635 372.006,475.566 385.789,483.539L83.93,483.539C75.651,483.539 68.93,476.818 68.93,468.539C68.93,460.26 75.651,453.539 83.93,453.539L354.317,453.539Z"/>
    </g>
    <g transform="matrix(0.048,0,0,0.048,-1.92,0)">
        <path d="M383.237,190.172L383.237,26.66C383.237,18.381 389.959,11.66 398.237,11.66C406.516,11.66 413.237,18.381 413.237,26.66L413.237,197.731C404.716,189.073 394.546,195.071 383.237,190.172Z"/>
    </g>
    <g transform="matrix(0.048,0,0,0.048,-1.92,0)">
        <path d="M383.237,338.32L383.237,296.158C383.237,287.88 389.959,281.158 398.237,281.158C406.516,281.158 413.237,287.88 413.237,296.158L413.237,345.879C404.716,337.221 394.546,343.219 383.237,338.32Z"/>
    </g>
</svg>
