<?xml version="1.0" encoding="UTF-8" standalone="no"?>
<!DOCTYPE svg PUBLIC "-//W3C//DTD SVG 1.1//EN" "http://www.w3.org/Graphics/SVG/1.1/DTD/svg11.dtd">
<svg width="100%" height="100%" viewBox="0 0 24 24" version="1.1" xmlns="http://www.w3.org/2000/svg" xmlns:xlink="http://www.w3.org/1999/xlink" xml:space="preserve" xmlns:serif="http://www.serif.com/" style="fill-rule:evenodd;clip-rule:evenodd;stroke-linejoin:round;stroke-miterlimit:2;">
    <g transform="matrix(0.072255,0,0,0.0510584,0.227284,-3.3193)">
        <path d="M301.44,164.307C301.44,156.524 296.975,150.206 291.476,150.206L49.402,150.206C43.903,150.206 39.438,156.524 39.438,164.307C39.438,172.09 43.903,178.409 49.402,178.409L291.476,178.409C296.975,178.409 301.44,172.09 301.44,164.307Z"/>
    </g>
    <g transform="matrix(0.072255,0,0,0.0510584,0.227284,10.5408)">
        <path d="M301.44,164.307C301.44,156.524 296.975,150.206 291.476,150.206L49.402,150.206C43.903,150.206 39.438,156.524 39.438,164.307C39.438,172.09 43.903,178.409 49.402,178.409L291.476,178.409C296.975,178.409 301.44,172.09 301.44,164.307Z"/>
    </g>
    <g transform="matrix(3.57576e-18,0.0583966,-0.0510584,3.12642e-18,29.6771,2.04694)">
        <path d="M301.44,164.307C301.44,156.524 295.916,150.206 289.111,150.206L51.767,150.206C44.962,150.206 39.438,156.524 39.438,164.307C39.438,172.09 44.962,178.409 51.767,178.409L289.111,178.409C295.916,178.409 301.44,172.09 301.44,164.307Z"/>
    </g>
    <g transform="matrix(1.20502e-18,0.0196795,-0.0510584,3.12642e-18,12.1861,3.57385)">
        <path d="M301.44,164.307C301.44,156.524 285.047,150.206 264.854,150.206L76.024,150.206C55.831,150.206 39.438,156.524 39.438,164.307C39.438,172.09 55.831,178.409 76.024,178.409L264.854,178.409C285.047,178.409 301.44,172.09 301.44,164.307Z"/>
    </g>
    <g transform="matrix(1.2125e-18,0.0198016,-0.0510584,3.12642e-18,12.1861,13.681)">
        <path d="M301.44,164.307C301.44,156.524 285.148,150.206 265.08,150.206L75.798,150.206C55.73,150.206 39.438,156.524 39.438,164.307C39.438,172.09 55.73,178.409 75.798,178.409L265.08,178.409C285.148,178.409 301.44,172.09 301.44,164.307Z"/>
    </g>
    <g transform="matrix(0.048,0,0,0.048,0.0832922,-0.0449304)">
        <path d="M188.965,171.122L188.965,171.121C233.016,171.121 268.78,206.885 268.78,250.936C268.78,294.987 233.016,330.751 188.965,330.751L188.965,330.75C188.929,330.751 188.894,330.751 188.858,330.751L42.768,330.751C38.316,330.751 34.315,328.808 31.567,325.724L31.542,325.696C29.194,323.048 27.768,319.565 27.768,315.751L27.768,186.121C27.771,184.951 27.903,183.784 28.173,182.645C28.737,180.275 29.887,178.074 31.486,176.239L31.546,176.172C31.546,176.172 31.567,176.148 31.567,176.148C34.315,173.064 38.316,171.121 42.768,171.121L188.858,171.121C188.894,171.121 188.929,171.121 188.965,171.122ZM188.965,201.121C188.929,201.121 188.894,201.121 188.858,201.121L57.768,201.121L57.768,300.751L188.858,300.751C188.894,300.751 188.929,300.751 188.965,300.751L188.965,300.751C216.459,300.751 238.78,278.43 238.78,250.936C238.78,223.443 216.459,201.121 188.965,201.121L188.965,201.121Z"/>
    </g>
    <g transform="matrix(0.0396763,0,0,0.0396763,2.80609,1.63622)">
        <circle cx="159.881" cy="261.208" r="28.833"/>
    </g>
</svg>
