<?xml version="1.0" encoding="UTF-8" standalone="no"?>
<!DOCTYPE svg PUBLIC "-//W3C//DTD SVG 1.1//EN" "http://www.w3.org/Graphics/SVG/1.1/DTD/svg11.dtd">
<svg width="100%" height="100%" viewBox="0 0 24 24" version="1.1" xmlns="http://www.w3.org/2000/svg" xmlns:xlink="http://www.w3.org/1999/xlink" xml:space="preserve" xmlns:serif="http://www.serif.com/" style="fill-rule:evenodd;clip-rule:evenodd;stroke-linejoin:round;stroke-miterlimit:2;">
    <g transform="matrix(0.00899442,0,0,0.0709603,1.83499,-9.86439)">
        <path d="M454.171,429.214C454.171,423.614 418.302,419.067 374.122,419.067L125.878,419.067C81.698,419.067 45.829,423.614 45.829,429.214C45.829,434.814 81.698,439.36 125.878,439.36L374.122,439.36C418.302,439.36 454.171,434.814 454.171,429.214Z"/>
    </g>
    <g transform="matrix(0.00899442,0,0,0.0709603,17.7626,-9.86439)">
        <path d="M454.171,429.214C454.171,423.614 418.302,419.067 374.122,419.067L125.878,419.067C81.698,419.067 45.829,423.614 45.829,429.214C45.829,434.814 81.698,439.36 125.878,439.36L374.122,439.36C418.302,439.36 454.171,434.814 454.171,429.214Z"/>
    </g>
    <g transform="matrix(0.048,0,0,0.0709603,0.0474188,-22.2305)">
        <path d="M454.171,429.214C454.171,423.614 447.45,419.067 439.171,419.067L60.829,419.067C52.55,419.067 45.829,423.614 45.829,429.214C45.829,434.814 52.55,439.36 60.829,439.36L439.171,439.36C447.45,439.36 454.171,434.814 454.171,429.214Z"/>
    </g>
    <g transform="matrix(0.025405,-0.0146676,0.0354802,0.0614535,-14.144,-17.1184)">
        <path d="M454.171,429.214C454.171,423.614 443.174,419.067 429.627,419.067L70.373,419.067C56.826,419.067 45.829,423.614 45.829,429.214C45.829,434.814 56.826,439.36 70.373,439.36L429.627,439.36C443.174,439.36 454.171,434.814 454.171,429.214Z"/>
    </g>
    <g transform="matrix(-0.0253718,-0.0146484,-0.0354802,0.0614535,38.1425,-17.1193)">
        <path d="M454.171,429.214C454.171,423.614 443.159,419.067 429.595,419.067L70.405,419.067C56.841,419.067 45.829,423.614 45.829,429.214C45.829,434.814 56.841,439.36 70.405,439.36L429.595,439.36C443.159,439.36 454.171,434.814 454.171,429.214Z"/>
    </g>
    <g transform="matrix(2.07027e-18,0.03381,-0.0709603,4.34507e-18,33.3295,5.95723)">
        <path d="M454.171,429.214C454.171,423.614 444.629,419.067 432.876,419.067L67.124,419.067C55.371,419.067 45.829,423.614 45.829,429.214C45.829,434.814 55.371,439.36 67.124,439.36L432.876,439.36C444.629,439.36 454.171,434.814 454.171,429.214Z"/>
    </g>
    <g transform="matrix(2.07027e-18,0.03381,-0.0709603,4.34507e-18,51.5848,5.95723)">
        <path d="M454.171,429.214C454.171,423.614 444.629,419.067 432.876,419.067L67.124,419.067C55.371,419.067 45.829,423.614 45.829,429.214C45.829,434.814 55.371,439.36 67.124,439.36L432.876,439.36C444.629,439.36 454.171,434.814 454.171,429.214Z"/>
    </g>
    <g transform="matrix(1.54075e-18,0.0251624,-0.0709603,4.34507e-18,49.2572,9.88473)">
        <path d="M454.171,429.214C454.171,423.614 441.35,419.067 425.557,419.067L74.443,419.067C58.65,419.067 45.829,423.614 45.829,429.214C45.829,434.814 58.65,439.36 74.443,439.36L425.557,439.36C441.35,439.36 454.171,434.814 454.171,429.214Z"/>
    </g>
    <g transform="matrix(1.50476e-18,0.0245746,-0.0709603,4.34507e-18,35.6572,9.91167)">
        <path d="M454.171,429.214C454.171,423.614 441.043,419.067 424.873,419.067L75.127,419.067C58.957,419.067 45.829,423.614 45.829,429.214C45.829,434.814 58.957,439.36 75.127,439.36L424.873,439.36C441.043,439.36 454.171,434.814 454.171,429.214Z"/>
    </g>
    <g transform="matrix(-0.0368318,4.5106e-18,-8.69014e-18,-0.0709603,21.208,42.215)">
        <path d="M454.171,429.214C454.171,423.614 445.412,419.067 434.623,419.067L65.377,419.067C54.588,419.067 45.829,423.614 45.829,429.214C45.829,434.814 54.588,439.36 65.377,439.36L434.623,439.36C445.412,439.36 454.171,434.814 454.171,429.214Z"/>
    </g>
    <g transform="matrix(0.048,0,0,0.048,0,0)">
        <rect x="170.061" y="414.016" width="161.215" height="30"/>
    </g>
    <g transform="matrix(1.81685e-18,0.0296714,-0.048,2.93915e-18,29.2357,11.4834)">
        <rect x="170.061" y="414.016" width="161.215" height="30"/>
    </g>
    <g transform="matrix(1.81685e-18,0.0296714,-0.048,2.93915e-18,35.9499,11.4834)">
        <rect x="170.061" y="414.016" width="161.215" height="30"/>
    </g>
    <g transform="matrix(1.81685e-18,0.0296714,-0.048,2.93915e-18,32.5928,11.4834)">
        <rect x="170.061" y="414.016" width="161.215" height="30"/>
    </g>
    <g transform="matrix(0.048,0,0,0.048,0,-3.34347)">
        <rect x="170.061" y="414.016" width="161.215" height="30"/>
    </g>
    <g transform="matrix(0.0297558,0,0,0.048,4.54116,-3.36774)">
        <rect x="170.061" y="414.016" width="161.215" height="30"/>
    </g>
    <g transform="matrix(1.81685e-18,0.0296714,-0.048,2.93915e-18,34.2713,8.11562)">
        <rect x="170.061" y="414.016" width="161.215" height="30"/>
    </g>
    <g transform="matrix(1.81685e-18,0.0296714,-0.048,2.93915e-18,30.9142,8.11562)">
        <rect x="170.061" y="414.016" width="161.215" height="30"/>
    </g>
    <g transform="matrix(0.0297558,0,0,0.048,4.54116,-6.71121)">
        <rect x="170.061" y="414.016" width="161.215" height="30"/>
    </g>
</svg>
