<?xml version="1.0" encoding="UTF-8" standalone="no"?>
<!DOCTYPE svg PUBLIC "-//W3C//DTD SVG 1.1//EN" "http://www.w3.org/Graphics/SVG/1.1/DTD/svg11.dtd">
<svg width="100%" height="100%" viewBox="0 0 24 24" version="1.1" xmlns="http://www.w3.org/2000/svg" xmlns:xlink="http://www.w3.org/1999/xlink" xml:space="preserve" xmlns:serif="http://www.serif.com/" style="fill-rule:evenodd;clip-rule:evenodd;stroke-linejoin:round;stroke-miterlimit:2;">
    <g transform="matrix(0.048,0,0,-0.048,0.495645,24)">
        <path d="M250,468.657C250,468.657 405.476,309.596 405.476,186.819C405.476,101.01 335.809,31.343 250,31.343C164.191,31.343 94.524,101.01 94.524,186.819C94.524,309.596 250,468.657 250,468.657ZM250,423.864C250,423.864 375.476,286.907 375.476,186.819C375.476,118.714 318.105,61.343 250,61.343C181.895,61.343 124.524,118.714 124.524,186.819C124.524,286.241 250,423.864 250,423.864Z"/>
    </g>
</svg>
