<?xml version="1.0" encoding="UTF-8" standalone="no"?>
<!DOCTYPE svg PUBLIC "-//W3C//DTD SVG 1.1//EN" "http://www.w3.org/Graphics/SVG/1.1/DTD/svg11.dtd">
<svg width="100%" height="100%" viewBox="0 0 24 24" version="1.1" xmlns="http://www.w3.org/2000/svg" xmlns:xlink="http://www.w3.org/1999/xlink" xml:space="preserve" xmlns:serif="http://www.serif.com/" style="fill-rule:evenodd;clip-rule:evenodd;stroke-linejoin:round;stroke-miterlimit:2;">
    <g transform="matrix(0.059801,0,0,0.0502036,-3.63073,-0.988451)">
        <path d="M439.048,420.469C439.048,412.554 433.653,406.128 427.008,406.128L95.808,406.128C89.163,406.128 83.768,412.554 83.768,420.469C83.768,428.385 89.163,434.811 95.808,434.811L427.008,434.811C433.653,434.811 439.048,428.385 439.048,420.469Z"/>
    </g>
    <g transform="matrix(0.0424148,0,0,0.0502036,0.908996,-12.4129)">
        <path d="M439.048,420.469C439.048,412.554 431.442,406.128 422.073,406.128L100.743,406.128C91.374,406.128 83.768,412.554 83.768,420.469C83.768,428.385 91.374,434.811 100.743,434.811L422.073,434.811C431.442,434.811 439.048,428.385 439.048,420.469Z"/>
    </g>
    <g transform="matrix(-0.00963164,0.0359458,-0.048493,-0.0129937,26.531,10.4709)">
        <path d="M439.048,420.469C439.048,412.554 430.379,406.128 419.701,406.128L103.116,406.128C92.437,406.128 83.768,412.554 83.768,420.469C83.768,428.385 92.437,434.811 103.116,434.811L419.701,434.811C430.379,434.811 439.048,428.385 439.048,420.469Z"/>
    </g>
    <g transform="matrix(0.048,0,0,0.048,0,0)">
        <path d="M249.684,75.82C280.039,75.82 304.684,100.465 304.684,130.82C304.684,161.175 280.039,185.82 249.684,185.82C219.329,185.82 194.684,161.175 194.684,130.82C194.684,100.465 219.329,75.82 249.684,75.82ZM249.684,105.82C263.482,105.82 274.684,117.022 274.684,130.82C274.684,144.618 263.482,155.82 249.684,155.82C235.886,155.82 224.684,144.618 224.684,130.82C224.684,117.022 235.886,105.82 249.684,105.82Z"/>
    </g>
    <g transform="matrix(0.00962572,0.0359237,0.048493,-0.0129937,-2.52496,10.4936)">
        <path d="M439.048,420.469C439.048,412.554 430.374,406.128 419.689,406.128L103.127,406.128C92.443,406.128 83.768,412.554 83.768,420.469C83.768,428.385 92.443,434.811 103.127,434.811L419.689,434.811C430.374,434.811 439.048,428.385 439.048,420.469Z"/>
    </g>
</svg>
