<?xml version="1.0" encoding="UTF-8" standalone="no"?>
<!DOCTYPE svg PUBLIC "-//W3C//DTD SVG 1.1//EN" "http://www.w3.org/Graphics/SVG/1.1/DTD/svg11.dtd">
<svg width="100%" height="100%" viewBox="0 0 24 24" version="1.1" xmlns="http://www.w3.org/2000/svg" xmlns:xlink="http://www.w3.org/1999/xlink" xml:space="preserve" xmlns:serif="http://www.serif.com/" style="fill-rule:evenodd;clip-rule:evenodd;stroke-linejoin:round;stroke-miterlimit:2;">
    <g transform="matrix(0.048,0,0,0.048,0,0)">
        <path d="M460,24.89L459.89,24.89C217.048,24.89 19.89,222.048 19.89,464.89L49.89,464.89L49.892,463.565C49.971,446.991 50.985,430.433 53.026,413.984C56.474,386.191 62.786,358.759 71.852,332.26C81.793,303.205 95.036,275.292 111.224,249.197C127.893,222.325 147.673,197.393 170.033,175.033C192.393,152.673 217.325,132.893 244.197,116.224C270.292,100.036 298.205,86.793 327.26,76.852C354.167,67.647 382.036,61.281 410.268,57.868C426.734,55.878 443.306,54.917 459.89,54.89L460,54.89L460,24.89ZM460,84.89L459.89,84.89C250.163,84.89 79.89,255.163 79.89,464.89L109.89,464.89L109.892,463.759C109.959,449.611 110.825,435.476 112.567,421.434C115.511,397.708 120.899,374.291 128.638,351.67C137.124,326.867 148.429,303.038 162.248,280.762C176.478,257.822 193.364,236.539 212.451,217.451C231.539,198.364 252.822,181.478 275.762,167.248C298.038,153.429 321.867,142.124 346.67,133.638C369.639,125.78 393.429,120.346 417.529,117.433C431.586,115.734 445.733,114.913 459.89,114.89L460,114.89L460,84.89ZM460,144.89L459.89,144.89C283.277,144.89 139.89,288.277 139.89,464.89L169.89,464.89L169.892,463.953C169.948,452.23 170.664,440.518 172.108,428.883C174.547,409.225 179.012,389.822 185.424,371.079C192.456,350.528 201.823,330.784 213.272,312.327C225.063,293.32 239.054,275.685 254.87,259.87C270.685,244.054 288.32,230.063 307.327,218.272C325.784,206.823 345.528,197.456 366.079,190.424C385.111,183.913 404.822,179.41 424.791,176.997C436.438,175.589 448.16,174.909 459.89,174.89L460,174.89L460,144.89ZM460,204.89L459.89,204.89C316.392,204.89 199.89,321.392 199.89,464.89L229.89,464.89L229.891,464.147C229.936,454.849 230.504,445.561 231.649,436.333C233.584,420.742 237.125,405.353 242.21,390.488C253.54,357.373 272.544,327.031 297.288,302.288C322.031,277.544 352.373,258.54 385.488,247.21C400.582,242.046 416.216,238.475 432.053,236.561C441.29,235.445 450.587,234.905 459.89,234.89L460,234.89L460,204.89ZM460,265L459.89,265C349.568,265 260,354.568 260,464.89L289.89,464.89L289.891,464.341C289.979,445.841 293.006,427.407 298.997,409.897C307.371,385.421 321.417,362.994 339.706,344.706C357.994,326.417 380.421,312.371 404.897,303.997C422.582,297.946 441.207,294.92 459.89,294.89L460,294.89L460,265ZM460,324.891L460,354.891L459.89,354.89C455.671,354.904 451.459,355.128 447.267,355.608C439.345,356.515 431.524,358.288 423.988,360.892C408.691,366.178 394.64,374.891 383.063,386.196C371.015,397.96 361.714,412.468 356.114,428.352C353.466,435.865 351.645,443.668 350.689,451.577C350.184,455.76 349.933,459.966 349.893,464.179L349.89,464.89L319.89,464.89C319.89,387.622 382.622,324.89 459.89,324.89L460,324.891ZM460,384.891L460,464.89L379.89,464.89C379.89,420.737 415.737,384.89 459.89,384.89L460,384.891Z"/>
    </g>
    <g transform="matrix(0.048,0,0,0.048,0,0)">
        <path d="M100.881,435L19.89,435L19.89,465L100.881,465L100.881,435ZM228,465L144.881,465L144.881,435L228,435L228,465ZM342,465L272,465L272,435L342,435L342,465ZM386,435L386,465L460,465L460,435L386,435Z"/>
    </g>
    <g transform="matrix(0.048,0,0,0.048,0,0)">
        <path d="M460,392.56L430,392.56L430,465L460,465L460,392.56ZM460,348.56L430,348.56L430,278.56L460,278.56L460,348.56ZM460,234.56L430,234.56L430,151.44L460,151.44L460,234.56ZM460,107.44L460,24.89L430,24.89L430,107.44L460,107.44Z"/>
    </g>
</svg>
