<?xml version="1.0" encoding="UTF-8" standalone="no"?>
<!DOCTYPE svg PUBLIC "-//W3C//DTD SVG 1.1//EN" "http://www.w3.org/Graphics/SVG/1.1/DTD/svg11.dtd">
<svg width="100%" height="100%" viewBox="0 0 24 24" version="1.1" xmlns="http://www.w3.org/2000/svg" xmlns:xlink="http://www.w3.org/1999/xlink" xml:space="preserve" xmlns:serif="http://www.serif.com/" style="fill-rule:evenodd;clip-rule:evenodd;stroke-linejoin:round;stroke-miterlimit:2;">
    <g transform="matrix(0.048,0,0,0.0654545,0.476596,-6.01895)">
        <path d="M412.071,430.047C412.071,423.976 405.35,419.047 397.071,419.047L83.071,419.047C74.792,419.047 68.071,423.976 68.071,430.047C68.071,436.118 74.792,441.047 83.071,441.047L397.071,441.047C405.35,441.047 412.071,436.118 412.071,430.047Z"/>
    </g>
    <g transform="matrix(6.32259e-19,0.0103256,-0.0654545,4.00793e-18,32.6125,18.5947)">
        <path d="M412.071,430.047C412.071,423.976 380.826,419.047 342.341,419.047L137.801,419.047C99.316,419.047 68.071,423.976 68.071,430.047C68.071,436.118 99.316,441.047 137.801,441.047L342.341,441.047C380.826,441.047 412.071,436.118 412.071,430.047Z"/>
    </g>
    <g transform="matrix(6.32259e-19,0.0103256,-0.0654545,4.00793e-18,47.683,18.5947)">
        <path d="M412.071,430.047C412.071,423.976 380.826,419.047 342.341,419.047L137.801,419.047C99.316,419.047 68.071,423.976 68.071,430.047C68.071,436.118 99.316,441.047 137.801,441.047L342.341,441.047C380.826,441.047 412.071,436.118 412.071,430.047Z"/>
    </g>
    <g transform="matrix(9.99653e-19,-0.0163256,0.0654545,4.00793e-18,-16.1485,7.30174)">
        <path d="M412.071,430.047C412.071,423.976 392.309,419.047 367.968,419.047L112.173,419.047C87.833,419.047 68.071,423.976 68.071,430.047C68.071,436.118 87.833,441.047 112.173,441.047L367.968,441.047C392.309,441.047 412.071,436.118 412.071,430.047Z"/>
    </g>
    <g transform="matrix(-0.00881039,-0.00881039,0.0462834,-0.0462834,-4.78261,24.3197)">
        <path d="M412.071,430.047C412.071,423.976 386.178,419.047 354.285,419.047L125.857,419.047C93.964,419.047 68.071,423.976 68.071,430.047C68.071,436.118 93.964,441.047 125.857,441.047L354.285,441.047C386.178,441.047 412.071,436.118 412.071,430.047Z"/>
    </g>
    <g transform="matrix(0.00881039,-0.00881039,0.0462834,0.0462834,-11.0254,-15.4883)">
        <path d="M412.071,430.047C412.071,423.976 386.178,419.047 354.285,419.047L125.857,419.047C93.964,419.047 68.071,423.976 68.071,430.047C68.071,436.118 93.964,441.047 125.857,441.047L354.285,441.047C386.178,441.047 412.071,436.118 412.071,430.047Z"/>
    </g>
    <g transform="matrix(-0.048,-5.8783e-18,5.8783e-18,-0.048,24.0944,22.224)">
        <path d="M251.968,28.968C340.274,28.968 411.968,100.661 411.968,188.968C411.968,277.274 340.274,348.968 251.968,348.968C163.661,348.968 91.968,277.274 91.968,188.968C91.968,100.661 163.661,28.968 251.968,28.968ZM251.968,58.968C323.716,58.968 381.968,117.219 381.968,188.968C381.968,260.716 323.716,318.968 251.968,318.968C180.219,318.968 121.968,260.716 121.968,188.968C121.968,117.219 180.219,58.968 251.968,58.968Z"/>
    </g>
    <g transform="matrix(0.048,1.17566e-17,-1.17566e-17,0.048,0.0408001,3.98712)">
        <path d="M220.796,191.069C220.796,191.069 228.798,161.069 250.575,161.069C282.31,161.069 308.075,186.834 308.075,218.569C308.075,250.305 282.31,276.069 250.575,276.069C220.892,276.069 196.432,253.529 193.393,224.645C193.183,222.648 193.075,220.621 193.075,218.569C193.075,202.237 223.075,202.237 223.075,218.569C223.075,220.67 223.311,222.717 223.758,224.683C226.541,236.922 237.498,246.069 250.575,246.069C265.753,246.069 278.075,233.747 278.075,218.569C278.075,203.392 265.753,191.069 250.575,191.069C250.382,191.069 250.19,191.071 250,191.075L250,191.069L220.796,191.069Z"/>
    </g>
    <g transform="matrix(0.0601161,1.47242e-17,-1.17566e-17,0.048,-2.31623,3.98712)">
        <path d="M250,176.069C250,167.791 244.633,161.069 238.023,161.069L206.513,161.069C199.903,161.069 194.537,167.791 194.537,176.069C194.537,184.348 199.903,191.069 206.513,191.069L238.023,191.069C244.633,191.069 250,184.348 250,176.069Z"/>
    </g>
    <g transform="matrix(-1.42953e-17,0.0754694,-0.048,-9.09207e-18,18.5499,-5.70889)">
        <path d="M250,176.069C250,167.791 245.725,161.069 240.46,161.069L204.077,161.069C198.812,161.069 194.537,167.791 194.537,176.069C194.537,184.348 198.812,191.069 204.077,191.069L240.46,191.069C245.725,191.069 250,184.348 250,176.069Z"/>
    </g>
    <g transform="matrix(-0.0893163,-1.13699e-17,6.20331e-18,-0.048,31.7076,18.144)">
        <path d="M250,176.069C250,167.791 246.388,161.069 241.939,161.069L202.598,161.069C198.149,161.069 194.537,167.791 194.537,176.069C194.537,184.348 198.149,191.069 202.598,191.069L241.939,191.069C246.388,191.069 250,184.348 250,176.069Z"/>
    </g>
</svg>
