<?xml version="1.0" encoding="UTF-8"?>
<!DOCTYPE svg PUBLIC "-//W3C//DTD SVG 1.1//EN" "http://www.w3.org/Graphics/SVG/1.1/DTD/svg11.dtd">
<svg version="1.1" id="Layer_1" xmlns="http://www.w3.org/2000/svg" xmlns:xlink="http://www.w3.org/1999/xlink" x="0px" y="0px" width="24px" height="24px" viewBox="0 0 24 24" enable-background="new 0 0 24 24" xml:space="preserve">
  <g id="icon">
    <circle cx="12" cy="4" r="2" fill="#212121"/>
    <path d="M19,13v-2c-1.54,0.02,-3.09,-0.75,-4.07,-1.83l-1.29,-1.43c-0.17,-0.19,-0.38,-0.34,-0.61,-0.45,-0.01,0,-0.01,-0.01,-0.02,-0.01H13c-0.35,-0.2,-0.75,-0.3,-1.19,-0.26C10.76,7.11,10,8.04,10,9.09V15c0,1.1,0.9,2,2,2h5v5h2v-5.5c0,-1.1,-0.9,-2,-2,-2h-3v-3.45c1.29,1.07,3.25,1.94,5,1.95zm-9,7c-1.66,0,-3,-1.34,-3,-3,0,-1.31,0.84,-2.41,2,-2.83V12.1c-2.28,0.46,-4,2.48,-4,4.9,0,2.76,2.24,5,5,5,2.42,0,4.44,-1.72,4.9,-4h-2.07c-0.41,1.16,-1.52,2,-2.83,2z" fill="#212121"/>
  </g>
</svg>
