<?xml version="1.0" encoding="UTF-8"?>
<!DOCTYPE svg PUBLIC "-//W3C//DTD SVG 1.1//EN" "http://www.w3.org/Graphics/SVG/1.1/DTD/svg11.dtd">
<svg version="1.1" id="Layer_1" xmlns="http://www.w3.org/2000/svg" xmlns:xlink="http://www.w3.org/1999/xlink" x="0px" y="0px" width="24px" height="24px" viewBox="0 0 24 24" enable-background="new 0 0 24 24" xml:space="preserve">
  <g id="icon">
    <path d="M3,5v14c0,1.1,0.89,2,2,2h14c1.1,0,2,-0.9,2,-2V5c0,-1.1,-0.9,-2,-2,-2H5c-1.11,0,-2,0.9,-2,2zm12,4c0,1.66,-1.34,3,-3,3s-3,-1.34,-3,-3,1.34,-3,3,-3,3,1.34,3,3zm-9,8c0,-2,4,-3.1,6,-3.1s6,1.1,6,3.1v1H6v-1z" fill="#212121"/>
  </g>
</svg>
