<?xml version="1.0" encoding="UTF-8"?>
<!DOCTYPE svg PUBLIC "-//W3C//DTD SVG 1.1//EN" "http://www.w3.org/Graphics/SVG/1.1/DTD/svg11.dtd">
<svg version="1.1" id="Layer_1" xmlns="http://www.w3.org/2000/svg" xmlns:xlink="http://www.w3.org/1999/xlink" x="0px" y="0px" width="24px" height="24px" viewBox="0 0 24 24" enable-background="new 0 0 24 24" xml:space="preserve">
  <g id="icon">
    <path d="M12,2C6.48,2,2,6.48,2,12s4.48,10,10,10,10,-4.48,10,-10S17.52,2,12,2zm0,3c1.66,0,3,1.34,3,3s-1.34,3,-3,3,-3,-1.34,-3,-3,1.34,-3,3,-3zm0,14.2c-2.5,0,-4.71,-1.28,-6,-3.22,0.03,-1.99,4,-3.08,6,-3.08,1.99,0,5.97,1.09,6,3.08,-1.29,1.94,-3.5,3.22,-6,3.22z" fill="#212121"/>
  </g>
</svg>
