<?xml version="1.0" encoding="UTF-8"?>
<!DOCTYPE svg PUBLIC "-//W3C//DTD SVG 1.1//EN" "http://www.w3.org/Graphics/SVG/1.1/DTD/svg11.dtd">
<svg version="1.1" id="Layer_1" xmlns="http://www.w3.org/2000/svg" xmlns:xlink="http://www.w3.org/1999/xlink" x="0px" y="0px" width="24px" height="24px" viewBox="0 0 24 24" enable-background="new 0 0 24 24" xml:space="preserve">
  <g id="icon">
    <path d="M21,7.28V5c0,-1.1,-0.9,-2,-2,-2H5c-1.11,0,-2,0.9,-2,2v14c0,1.1,0.89,2,2,2h14c1.1,0,2,-0.9,2,-2v-2.28c0.59,-0.35,1,-0.98,1,-1.72V9c0,-0.74,-0.41,-1.37,-1,-1.72zM20,9v6h-7V9h7zM5,19V5h14v2h-6c-1.1,0,-2,0.9,-2,2v6c0,1.1,0.9,2,2,2h6v2H5z" fill="#212121"/>
    <circle cx="16" cy="12" r="1.5" fill="#212121"/>
  </g>
</svg>
