<?xml version="1.0" encoding="UTF-8"?>
<!DOCTYPE svg PUBLIC "-//W3C//DTD SVG 1.1//EN" "http://www.w3.org/Graphics/SVG/1.1/DTD/svg11.dtd">
<svg version="1.1" id="Layer_1" xmlns="http://www.w3.org/2000/svg" xmlns:xlink="http://www.w3.org/1999/xlink" x="0px" y="0px" width="24px" height="24px" viewBox="0 0 24 24" enable-background="new 0 0 24 24" xml:space="preserve">
  <g id="icon">
    <path d="M19,5v14H5V5h14m0,-2H5c-1.11,0,-2,0.9,-2,2v14c0,1.1,0.89,2,2,2h14c1.1,0,2,-0.9,2,-2V5c0,-1.1,-0.9,-2,-2,-2zm-7,9c-1.65,0,-3,-1.35,-3,-3s1.35,-3,3,-3,3,1.35,3,3,-1.35,3,-3,3zm0,-4c-0.55,0,-1,0.45,-1,1s0.45,1,1,1,1,-0.45,1,-1,-0.45,-1,-1,-1zm6,10H6v-1.53c0,-2.5,3.97,-3.58,6,-3.58s6,1.08,6,3.58V18zm-9.69,-2h7.38c-0.69,-0.56,-2.38,-1.12,-3.69,-1.12s-3.01,0.56,-3.69,1.12z" fill="#212121"/>
  </g>
</svg>
