<?xml version="1.0" encoding="UTF-8"?>
<!DOCTYPE svg PUBLIC "-//W3C//DTD SVG 1.1//EN" "http://www.w3.org/Graphics/SVG/1.1/DTD/svg11.dtd">
<svg version="1.1" id="Layer_1" xmlns="http://www.w3.org/2000/svg" xmlns:xlink="http://www.w3.org/1999/xlink" x="0px" y="0px" width="24px" height="24px" viewBox="0 0 24 24" enable-background="new 0 0 24 24" xml:space="preserve">
  <g id="icon">
    <path d="M21,18v1c0,1.1,-0.9,2,-2,2H5c-1.11,0,-2,-0.9,-2,-2V5c0,-1.1,0.89,-2,2,-2h14c1.1,0,2,0.9,2,2v1h-9c-1.11,0,-2,0.9,-2,2v8c0,1.1,0.89,2,2,2h9zm-9,-2h10V8H12v8zm4,-2.5c-0.83,0,-1.5,-0.67,-1.5,-1.5s0.67,-1.5,1.5,-1.5,1.5,0.67,1.5,1.5,-0.67,1.5,-1.5,1.5z" fill="#212121"/>
  </g>
</svg>
