<?xml version="1.0" encoding="UTF-8"?>
<!DOCTYPE svg PUBLIC "-//W3C//DTD SVG 1.1//EN" "http://www.w3.org/Graphics/SVG/1.1/DTD/svg11.dtd">
<svg version="1.1" id="Layer_1" xmlns="http://www.w3.org/2000/svg" xmlns:xlink="http://www.w3.org/1999/xlink" x="0px" y="0px" width="24px" height="24px" viewBox="0 0 24 24" enable-background="new 0 0 24 24" xml:space="preserve">
  <g id="icon">
    <path d="M10.01,21.01c0,1.1,0.89,1.99,1.99,1.99s1.99,-0.89,1.99,-1.99h-3.98zm8.87,-4.19V11c0,-3.25,-2.25,-5.97,-5.29,-6.69v-0.72C13.59,2.71,12.88,2,12,2s-1.59,0.71,-1.59,1.59v0.72C7.37,5.03,5.12,7.75,5.12,11v5.82L3,18.94V20h18v-1.06l-2.12,-2.12zM16,13.01h-3v3h-2v-3H8V11h3V8h2v3h3v2.01z" fill="#212121"/>
  </g>
</svg>
