<?xml version="1.0" encoding="UTF-8"?>
<!DOCTYPE svg PUBLIC "-//W3C//DTD SVG 1.1//EN" "http://www.w3.org/Graphics/SVG/1.1/DTD/svg11.dtd">
<svg version="1.1" id="Layer_1" xmlns="http://www.w3.org/2000/svg" xmlns:xlink="http://www.w3.org/1999/xlink" x="0px" y="0px" width="24px" height="24px" viewBox="0 0 24 24" enable-background="new 0 0 24 24" xml:space="preserve">
  <g id="icon">
    <path d="M19,11c0.17,0,0.33,0.01,0.49,0.02L15,3H9l5.68,9.84C15.77,11.71,17.3,11,19,11z" fill="#212121"/>
    <polygon points="8.15,4.52 2,15.5 5,21 11.33,10.03" fill="#212121" stroke-linejoin="miter"/>
    <path d="M13.2,15.5H9.9L6.73,21h7.81C13.58,19.94,13,18.54,13,17C13,16.48,13.07,15.98,13.2,15.5z" fill="#212121"/>
    <polygon points="20,16 20,13 18,13 18,16 15,16 15,18 18,18 18,21 19,21 20,21 20,18 23,18 23,16" fill="#212121" stroke-linejoin="miter"/>
  </g>
</svg>
