<?xml version="1.0" encoding="UTF-8"?>
<!DOCTYPE svg PUBLIC "-//W3C//DTD SVG 1.1//EN" "http://www.w3.org/Graphics/SVG/1.1/DTD/svg11.dtd">
<svg version="1.1" id="Layer_1" xmlns="http://www.w3.org/2000/svg" xmlns:xlink="http://www.w3.org/1999/xlink" x="0px" y="0px" width="24px" height="24px" viewBox="0 0 24 24" enable-background="new 0 0 24 24" xml:space="preserve">
  <g id="icon">
    <path d="M10.54,14.53L8.41,12.4l-1.06,1.06,3.18,3.18,6,-6,-1.06,-1.06zm6.797,-12.72l4.607,3.845,-1.28,1.535,-4.61,-3.843zm-10.674,0l1.282,1.536L3.337,7.19l-1.28,-1.536zM12,4c-4.97,0,-9,4.03,-9,9s4.03,9,9,9,9,-4.03,9,-9,-4.03,-9,-9,-9zm0,16c-3.86,0,-7,-3.14,-7,-7s3.14,-7,7,-7,7,3.14,7,7,-3.14,7,-7,7z" fill="#212121"/>
  </g>
</svg>
