<?xml version="1.0" encoding="UTF-8"?>
<!DOCTYPE svg PUBLIC "-//W3C//DTD SVG 1.1//EN" "http://www.w3.org/Graphics/SVG/1.1/DTD/svg11.dtd">
<svg version="1.1" id="Layer_1" xmlns="http://www.w3.org/2000/svg" xmlns:xlink="http://www.w3.org/1999/xlink" x="0px" y="0px" width="24px" height="24px" viewBox="0 0 24 24" enable-background="new 0 0 24 24" xml:space="preserve">
  <g id="icon">
    <path d="M4,4v4l4,-4zm12,0l4,4V4zm4,16v-4l-4,4zM4,20h4l-4,-4zm15,-8c0,-3.87,-3.13,-7,-7,-7s-7,3.13,-7,7,3.13,7,7,7,7,-3.13,7,-7zm-7,5c-2.76,0,-5,-2.24,-5,-5s2.24,-5,5,-5,5,2.24,5,5,-2.24,5,-5,5z" fill="#212121"/>
  </g>
</svg>
