<?xml version="1.0" encoding="UTF-8"?>
<!DOCTYPE svg PUBLIC "-//W3C//DTD SVG 1.1//EN" "http://www.w3.org/Graphics/SVG/1.1/DTD/svg11.dtd">
<svg version="1.1" id="Layer_1" xmlns="http://www.w3.org/2000/svg" xmlns:xlink="http://www.w3.org/1999/xlink" x="0px" y="0px" width="24px" height="24px" viewBox="0 0 24 24" enable-background="new 0 0 24 24" xml:space="preserve">
  <g id="icon">
    <path d="M19,3H5c-1.1,0,-2,0.9,-2,2v7c0,1.1,0.9,2,2,2h14c1.1,0,2,-0.9,2,-2V5c0,-1.1,-0.9,-2,-2,-2zm0,6h-4c0,1.62,-1.38,3,-3,3s-3,-1.38,-3,-3H5V5h14v4zm-4,7h6v3c0,1.1,-0.9,2,-2,2H5c-1.1,0,-2,-0.9,-2,-2v-3h6c0,1.66,1.34,3,3,3s3,-1.34,3,-3z" fill="#212121"/>
  </g>
</svg>
