<?xml version="1.0" encoding="UTF-8"?>
<!DOCTYPE svg PUBLIC "-//W3C//DTD SVG 1.1//EN" "http://www.w3.org/Graphics/SVG/1.1/DTD/svg11.dtd">
<svg version="1.1" id="Layer_1" xmlns="http://www.w3.org/2000/svg" xmlns:xlink="http://www.w3.org/1999/xlink" x="0px" y="0px" width="24px" height="24px" viewBox="0 0 24 24" enable-background="new 0 0 24 24" xml:space="preserve">
  <g id="icon">
    <path d="M14,12l-2,2l-2,-2l2,-2L14,12zM12,6l2.12,2.12l2.5,-2.5L12,1L7.38,5.62l2.5,2.5L12,6zM6,12l2.12,-2.12l-2.5,-2.5L1,12l4.62,4.62l2.5,-2.5L6,12zM18,12l-2.12,2.12l2.5,2.5L23,12l-4.62,-4.62l-2.5,2.5L18,12zM12,18l-2.12,-2.12l-2.5,2.5L12,23l4.62,-4.62l-2.5,-2.5L12,18z" fill="#212121"/>
  </g>
</svg>
