<?xml version="1.0" encoding="UTF-8"?>
<!DOCTYPE svg PUBLIC "-//W3C//DTD SVG 1.1//EN" "http://www.w3.org/Graphics/SVG/1.1/DTD/svg11.dtd">
<svg version="1.1" id="Layer_1" xmlns="http://www.w3.org/2000/svg" xmlns:xlink="http://www.w3.org/1999/xlink" x="0px" y="0px" width="24px" height="24px" viewBox="0 0 24 24" enable-background="new 0 0 24 24" xml:space="preserve">
  <g id="icon">
    <path d="M18,8c-2.21,0,-4,1.79,-4,4s1.79,4,4,4,4,-1.79,4,-4,-1.79,-4,-4,-4zm-2.5,4c0,-1.38,1.12,-2.5,2.5,-2.5,0.42,0,0.8,0.11,1.15,0.29l-3.36,3.36c-0.18,-0.35,-0.29,-0.73,-0.29,-1.15zm2.5,2.5c-0.42,0,-0.8,-0.11,-1.15,-0.29l3.36,-3.36c0.18,0.35,0.29,0.73,0.29,1.15,0,1.38,-1.12,2.5,-2.5,2.5zM17,18H7V6h10v1h2V3c0,-1.1,-0.9,-2,-2,-2H7c-1.1,0,-2,0.9,-2,2v18c0,1.1,0.9,2,2,2h10c1.1,0,2,-0.9,2,-2v-4h-2v1z" fill="#212121"/>
  </g>
</svg>
