<?xml version="1.0" encoding="UTF-8"?>
<!DOCTYPE svg PUBLIC "-//W3C//DTD SVG 1.1//EN" "http://www.w3.org/Graphics/SVG/1.1/DTD/svg11.dtd">
<svg version="1.1" id="Layer_1" xmlns="http://www.w3.org/2000/svg" xmlns:xlink="http://www.w3.org/1999/xlink" x="0px" y="0px" width="24px" height="24px" viewBox="0 0 24 24" enable-background="new 0 0 24 24" xml:space="preserve">
  <g id="icon">
    <path d="M2,12c0,5.52,4.48,10,10,10c5.52,0,10,-4.48,10,-10S17.52,2,12,2C6.48,2,2,6.48,2,12zM20,12c0,4.42,-3.58,8,-8,8c-4.42,0,-8,-3.58,-8,-8s3.58,-8,8,-8C16.42,4,20,7.58,20,12zM8,12l4,-4l1.41,1.41L11.83,11H16v2h-4.17l1.59,1.59L12,16L8,12z" fill="#212121"/>
  </g>
</svg>
