<?xml version="1.0" encoding="UTF-8"?>
<!DOCTYPE svg PUBLIC "-//W3C//DTD SVG 1.1//EN" "http://www.w3.org/Graphics/SVG/1.1/DTD/svg11.dtd">
<svg version="1.1" id="Layer_1" xmlns="http://www.w3.org/2000/svg" xmlns:xlink="http://www.w3.org/1999/xlink" x="0px" y="0px" width="24px" height="24px" viewBox="0 0 24 24" enable-background="new 0 0 24 24" xml:space="preserve">
  <g id="icon">
    <path d="M22,12c0,-5.52,-4.48,-10,-10,-10C6.48,2,2,6.48,2,12s4.48,10,10,10C17.52,22,22,17.52,22,12zM4,12c0,-4.42,3.58,-8,8,-8c4.42,0,8,3.58,8,8s-3.58,8,-8,8C7.58,20,4,16.42,4,12zM16,12l-4,4l-1.41,-1.41L12.17,13H8v-2h4.17l-1.59,-1.59L12,8L16,12z" fill="#212121"/>
  </g>
</svg>
