<?xml version="1.0" encoding="UTF-8"?>
<!DOCTYPE svg PUBLIC "-//W3C//DTD SVG 1.1//EN" "http://www.w3.org/Graphics/SVG/1.1/DTD/svg11.dtd">
<svg version="1.1" id="Layer_1" xmlns="http://www.w3.org/2000/svg" xmlns:xlink="http://www.w3.org/1999/xlink" x="0px" y="0px" width="24px" height="24px" viewBox="0 0 24 24" enable-background="new 0 0 24 24" xml:space="preserve">
  <g id="icon">
    <path d="M19,3h-4.18C14.4,1.84,13.3,1,12,1s-2.4,0.84,-2.82,2H5c-1.1,0,-2,0.9,-2,2v14c0,1.1,0.9,2,2,2h14c1.1,0,2,-0.9,2,-2V5c0,-1.1,-0.9,-2,-2,-2zm-7,-0.25c0.22,0,0.41,0.1,0.55,0.25,0.12,0.13,0.2,0.31,0.2,0.5,0,0.41,-0.34,0.75,-0.75,0.75s-0.75,-0.34,-0.75,-0.75c0,-0.19,0.08,-0.37,0.2,-0.5,0.14,-0.15,0.33,-0.25,0.55,-0.25zM19,19H5V5h14v14zM12,6c-1.65,0,-3,1.35,-3,3s1.35,3,3,3,3,-1.35,3,-3,-1.35,-3,-3,-3zm0,4c-0.55,0,-1,-0.45,-1,-1s0.45,-1,1,-1,1,0.45,1,1,-0.45,1,-1,1zm-6,6.47V18h12v-1.53c0,-2.5,-3.97,-3.58,-6,-3.58s-6,1.07,-6,3.58zM8.31,16c0.69,-0.56,2.38,-1.12,3.69,-1.12s3.01,0.56,3.69,1.12H8.31z" fill="#212121"/>
  </g>
</svg>
