<?xml version="1.0" encoding="UTF-8"?>
<!DOCTYPE svg PUBLIC "-//W3C//DTD SVG 1.1//EN" "http://www.w3.org/Graphics/SVG/1.1/DTD/svg11.dtd">
<svg version="1.1" id="Layer_1" xmlns="http://www.w3.org/2000/svg" xmlns:xlink="http://www.w3.org/1999/xlink" x="0px" y="0px" width="24px" height="24px" viewBox="0 0 24 24" enable-background="new 0 0 24 24" xml:space="preserve">
  <g id="icon">
    <path d="M19,3h-4.18C14.4,1.84,13.3,1,12,1c-1.3,0,-2.4,0.84,-2.82,2H5c-1.1,0,-2,0.9,-2,2v14c0,1.1,0.9,2,2,2h14c1.1,0,2,-0.9,2,-2V5c0,-1.1,-0.9,-2,-2,-2zm-6,15h-2v-2h2v2zm0,-4h-2V8h2v6zm-1,-9c-0.55,0,-1,-0.45,-1,-1s0.45,-1,1,-1,1,0.45,1,1,-0.45,1,-1,1z" fill="#212121"/>
  </g>
</svg>
