<?xml version="1.0" encoding="UTF-8"?>
<!DOCTYPE svg PUBLIC "-//W3C//DTD SVG 1.1//EN" "http://www.w3.org/Graphics/SVG/1.1/DTD/svg11.dtd">
<svg version="1.1" id="Layer_1" xmlns="http://www.w3.org/2000/svg" xmlns:xlink="http://www.w3.org/1999/xlink" x="0px" y="0px" width="24px" height="24px" viewBox="0 0 24 24" enable-background="new 0 0 24 24" xml:space="preserve">
  <g id="icon">
    <rect x="5" y="10" width="2" height="7" fill="#212121"/>
    <rect x="11" y="10" width="2" height="7" fill="#212121"/>
    <polygon points="22,6 12,1 2,6 2,8 22,8" fill="#212121" stroke-linejoin="miter"/>
    <path d="M2,19v2h12.4c-0.21,-0.64,-0.32,-1.31,-0.36,-2H2z" fill="#212121"/>
    <polygon points="19,12.26 19,10 17,10 17,13.26" fill="#212121" stroke-linejoin="miter"/>
    <path d="M20,14l-4,2v2.55c0,2.52,1.71,4.88,4,5.45c2.29,-0.57,4,-2.93,4,-5.45V16L20,14zM19.28,21l-2.03,-2.03l1.06,-1.06l0.97,0.97l2.41,-2.38l1.06,1.06L19.28,21z" fill="#212121"/>
  </g>
</svg>
