<?xml version="1.0" encoding="UTF-8"?>
<!DOCTYPE svg PUBLIC "-//W3C//DTD SVG 1.1//EN" "http://www.w3.org/Graphics/SVG/1.1/DTD/svg11.dtd">
<svg version="1.1" id="Layer_1" xmlns="http://www.w3.org/2000/svg" xmlns:xlink="http://www.w3.org/1999/xlink" x="0px" y="0px" width="24px" height="24px" viewBox="0 0 24 24" enable-background="new 0 0 24 24" xml:space="preserve">
  <g id="icon">
    <path d="M12,6v3l4,-4,-4,-4v3c-4.42,0,-8,3.58,-8,8,0,1.57,0.46,3.03,1.24,4.26L6.7,14.8c-0.45,-0.83,-0.7,-1.79,-0.7,-2.8,0,-3.31,2.69,-6,6,-6zm6.76,1.74L17.3,9.2c0.44,0.84,0.7,1.79,0.7,2.8,0,3.31,-2.69,6,-6,6v-3l-4,4,4,4v-3c4.42,0,8,-3.58,8,-8,0,-1.57,-0.46,-3.03,-1.24,-4.26z" fill="#212121"/>
  </g>
</svg>
