<?xml version="1.0" encoding="UTF-8"?>
<!DOCTYPE svg PUBLIC "-//W3C//DTD SVG 1.1//EN" "http://www.w3.org/Graphics/SVG/1.1/DTD/svg11.dtd">
<svg version="1.1" id="Layer_1" xmlns="http://www.w3.org/2000/svg" xmlns:xlink="http://www.w3.org/1999/xlink" x="0px" y="0px" width="24px" height="24px" viewBox="0 0 24 24" enable-background="new 0 0 24 24" xml:space="preserve">
  <g id="icon">
    <polygon points="15,2 11.5,2 10.5,1 5.5,1 4.5,2 1,2 1,4 15,4" fill="#212121" stroke-linejoin="miter"/>
    <path d="M16,9c-0.7,0,-1.37,0.1,-2,0.29V5H2v12c0,1.1,0.9,2,2,2h5.68c1.12,2.36,3.53,4,6.32,4c3.87,0,7,-3.13,7,-7C23,12.13,19.87,9,16,9zM16,21c-2.76,0,-5,-2.24,-5,-5s2.24,-5,5,-5s5,2.24,5,5S18.76,21,16,21z" fill="#212121"/>
    <polygon points="16.5,12 15,12 15,17 18.6,19.1 19.4,17.9 16.5,16.2" fill="#212121" stroke-linejoin="miter"/>
  </g>
</svg>
