<?xml version="1.0" encoding="UTF-8"?>
<!DOCTYPE svg PUBLIC "-//W3C//DTD SVG 1.1//EN" "http://www.w3.org/Graphics/SVG/1.1/DTD/svg11.dtd">
<svg version="1.1" id="Layer_1" xmlns="http://www.w3.org/2000/svg" xmlns:xlink="http://www.w3.org/1999/xlink" x="0px" y="0px" width="24px" height="24px" viewBox="0 0 24 24" enable-background="new 0 0 24 24" xml:space="preserve">
  <g id="icon">
    <path d="M20,6v14H6v2h14c1.1,0,2,-0.9,2,-2V6H20z" fill="#212121"/>
    <path d="M16,2H4C2.9,2,2,2.9,2,4v12c0,1.1,0.9,2,2,2h12c1.1,0,2,-0.9,2,-2V4C18,2.9,17.1,2,16,2zM9,16H4v-5h5V16zM16,16h-5v-5h5V16zM16,9H4V4h12V9z" fill="#212121"/>
  </g>
</svg>
