<?xml version="1.0" encoding="UTF-8"?>
<!DOCTYPE svg PUBLIC "-//W3C//DTD SVG 1.1//EN" "http://www.w3.org/Graphics/SVG/1.1/DTD/svg11.dtd">
<svg version="1.1" id="Layer_1" xmlns="http://www.w3.org/2000/svg" xmlns:xlink="http://www.w3.org/1999/xlink" x="0px" y="0px" width="24px" height="24px" viewBox="0 0 24 24" enable-background="new 0 0 24 24" xml:space="preserve">
  <g id="icon">
    <path d="M17,4H7V3h10V4zM17,21H7v-1h10V21zM17,1H7C5.9,1,5,1.9,5,3v18c0,1.1,0.9,2,2,2h10c1.1,0,2,-0.9,2,-2V3C19,1.9,18.1,1,17,1L17,1zM7,6h10v12H7V6zM16,11V9.14C16,8.51,15.55,8,15,8H9C8.45,8,8,8.51,8,9.14l0,1.96c0.55,0,1,0.45,1,1c0,0.55,-0.45,1,-1,1l0,1.76C8,15.49,8.45,16,9,16h6c0.55,0,1,-0.51,1,-1.14V13c-0.55,0,-1,-0.45,-1,-1C15,11.45,15.45,11,16,11zM12.5,14.5h-1v-1h1V14.5zM12.5,12.5h-1v-1h1V12.5zM12.5,10.5h-1v-1h1V10.5z" fill="#212121"/>
  </g>
</svg>
