<?xml version="1.0" encoding="UTF-8"?>
<!DOCTYPE svg PUBLIC "-//W3C//DTD SVG 1.1//EN" "http://www.w3.org/Graphics/SVG/1.1/DTD/svg11.dtd">
<svg version="1.1" id="Layer_1" xmlns="http://www.w3.org/2000/svg" xmlns:xlink="http://www.w3.org/1999/xlink" x="0px" y="0px" width="24px" height="24px" viewBox="0 0 24 24" enable-background="new 0 0 24 24" xml:space="preserve">
  <g id="icon">
    <path d="M9,3c-4.97,0,-9,4.03,-9,9s4.03,9,9,9s9,-4.03,9,-9S13.97,3,9,3zM9,19c-3.86,0,-7,-3.14,-7,-7s3.14,-7,7,-7s7,3.14,7,7S12.86,19,9,19z" fill="#212121"/>
    <polygon points="10,7 8,7 8,12.41 11.79,16.21 13.21,14.79 10,11.59" fill="#212121" stroke-linejoin="miter"/>
    <path d="M17.99,3.52v2.16C20.36,6.8,22,9.21,22,12c0,2.79,-1.64,5.2,-4.01,6.32v2.16C21.48,19.24,24,15.91,24,12C24,8.09,21.48,4.76,17.99,3.52z" fill="#212121"/>
  </g>
</svg>
