<?xml version="1.0" encoding="UTF-8"?>
<!DOCTYPE svg PUBLIC "-//W3C//DTD SVG 1.1//EN" "http://www.w3.org/Graphics/SVG/1.1/DTD/svg11.dtd">
<svg version="1.1" id="Layer_1" xmlns="http://www.w3.org/2000/svg" xmlns:xlink="http://www.w3.org/1999/xlink" x="0px" y="0px" width="24px" height="24px" viewBox="0 0 24 24" enable-background="new 0 0 24 24" xml:space="preserve">
  <g id="icon">
    <path d="M19,4h-1V2h-2v2H8V2H6v2H5C3.89,4,3.01,4.9,3.01,6L3,20c0,1.1,0.89,2,2,2h14c1.1,0,2,-0.9,2,-2V6C21,4.9,20.1,4,19,4zM19,20H5V10h14V20zM19,8H5V6h14V8zM9,14H7v-2h2V14zM13,14h-2v-2h2V14zM17,14h-2v-2h2V14zM9,18H7v-2h2V18zM13,18h-2v-2h2V18zM17,18h-2v-2h2V18z" fill="#212121"/>
  </g>
</svg>
