<?xml version="1.0" encoding="UTF-8"?>
<!DOCTYPE svg PUBLIC "-//W3C//DTD SVG 1.1//EN" "http://www.w3.org/Graphics/SVG/1.1/DTD/svg11.dtd">
<svg version="1.1" id="Layer_1" xmlns="http://www.w3.org/2000/svg" xmlns:xlink="http://www.w3.org/1999/xlink" x="0px" y="0px" width="24px" height="24px" viewBox="0 0 24 24" enable-background="new 0 0 24 24" xml:space="preserve">
  <g id="icon">
    <path d="M9,3L7.17,5H4c-1.1,0,-2,0.9,-2,2v12c0,1.1,0.9,2,2,2h16c1.1,0,2,-0.9,2,-2V7c0,-1.1,-0.9,-2,-2,-2h-3.17L15,3H9zm3,15c-2.76,0,-5,-2.24,-5,-5s2.24,-5,5,-5,5,2.24,5,5,-2.24,5,-5,5z" fill="#212121"/>
    <path d="M12,17l1.25,-2.75L16,13l-2.75,-1.25L12,9l-1.25,2.75L8,13l2.75,1.25z" fill="#212121"/>
  </g>
</svg>
