<?xml version="1.0" encoding="UTF-8"?>
<!DOCTYPE svg PUBLIC "-//W3C//DTD SVG 1.1//EN" "http://www.w3.org/Graphics/SVG/1.1/DTD/svg11.dtd">
<svg version="1.1" id="Layer_1" xmlns="http://www.w3.org/2000/svg" xmlns:xlink="http://www.w3.org/1999/xlink" x="0px" y="0px" width="24px" height="24px" viewBox="0 0 24 24" enable-background="new 0 0 24 24" xml:space="preserve">
  <g id="icon">
    <path d="M12,10l-0.94,2.06L9,13l2.06,0.94L12,16l0.94,-2.06L15,13l-2.06,-0.94zm8,-5h-3.17L15,3H9L7.17,5H4c-1.1,0,-2,0.9,-2,2v12c0,1.1,0.9,2,2,2h16c1.1,0,2,-0.9,2,-2V7c0,-1.1,-0.9,-2,-2,-2zm0,14H4V7h4.05l0.59,-0.65L9.88,5h4.24l1.24,1.35,0.59,0.65H20v12zM12,8c-2.76,0,-5,2.24,-5,5s2.24,5,5,5,5,-2.24,5,-5,-2.24,-5,-5,-5zm0,8c-1.65,0,-3,-1.35,-3,-3s1.35,-3,3,-3,3,1.35,3,3,-1.35,3,-3,3z" fill="#212121"/>
  </g>
</svg>
