<?xml version="1.0" encoding="UTF-8"?>
<!DOCTYPE svg PUBLIC "-//W3C//DTD SVG 1.1//EN" "http://www.w3.org/Graphics/SVG/1.1/DTD/svg11.dtd">
<svg version="1.1" id="Layer_1" xmlns="http://www.w3.org/2000/svg" xmlns:xlink="http://www.w3.org/1999/xlink" x="0px" y="0px" width="24px" height="24px" viewBox="0 0 24 24" enable-background="new 0 0 24 24" xml:space="preserve">
  <g id="icon">
    <path d="M16.5,9c-0.42,0,-0.83,0.04,-1.24,0.11L1.01,3L1,10l9,2l-9,2l0.01,7l8.07,-3.46C9.59,21.19,12.71,24,16.5,24c4.14,0,7.5,-3.36,7.5,-7.5S20.64,9,16.5,9zM16.5,22c-3.03,0,-5.5,-2.47,-5.5,-5.5s2.47,-5.5,5.5,-5.5s5.5,2.47,5.5,5.5S19.53,22,16.5,22z" fill="#212121"/>
    <polygon points="18.27,14.03 16.5,15.79 14.73,14.03 14.03,14.73 15.79,16.5 14.03,18.27 14.73,18.97 16.5,17.21 18.27,18.97 18.97,18.27 17.21,16.5 18.97,14.73" fill="#212121" stroke-linejoin="miter"/>
  </g>
</svg>
