<?xml version="1.0" encoding="UTF-8"?>
<!DOCTYPE svg PUBLIC "-//W3C//DTD SVG 1.1//EN" "http://www.w3.org/Graphics/SVG/1.1/DTD/svg11.dtd">
<svg version="1.1" id="Layer_1" xmlns="http://www.w3.org/2000/svg" xmlns:xlink="http://www.w3.org/1999/xlink" x="0px" y="0px" width="24px" height="24px" viewBox="0 0 24 24" enable-background="new 0 0 24 24" xml:space="preserve">
  <g id="icon">
    <path d="M20,6h-2.18c0.11,-0.31,0.18,-0.65,0.18,-1,0,-1.66,-1.34,-3,-3,-3,-1.05,0,-1.96,0.54,-2.5,1.35l-0.5,0.67,-0.5,-0.68C10.96,2.54,10.05,2,9,2,7.34,2,6,3.34,6,5c0,0.35,0.07,0.69,0.18,1H4c-1.11,0,-1.99,0.89,-1.99,2L2,19c0,1.11,0.89,2,2,2h16c1.11,0,2,-0.89,2,-2V8c0,-1.11,-0.89,-2,-2,-2zm-5,-2c0.55,0,1,0.45,1,1s-0.45,1,-1,1,-1,-0.45,-1,-1,0.45,-1,1,-1zM9,4c0.55,0,1,0.45,1,1s-0.45,1,-1,1,-1,-0.45,-1,-1,0.45,-1,1,-1zm11,15H4v-2h16v2zm0,-5H4V8h5.08L7,10.83,8.62,12,12,7.4l3.38,4.6L17,10.83,14.92,8H20v6z" fill="#212121"/>
  </g>
</svg>
