<?xml version="1.0" encoding="UTF-8"?>
<!DOCTYPE svg PUBLIC "-//W3C//DTD SVG 1.1//EN" "http://www.w3.org/Graphics/SVG/1.1/DTD/svg11.dtd">
<svg version="1.1" id="Layer_1" xmlns="http://www.w3.org/2000/svg" xmlns:xlink="http://www.w3.org/1999/xlink" x="0px" y="0px" width="24px" height="24px" viewBox="0 0 24 24" enable-background="new 0 0 24 24" xml:space="preserve">
  <g id="icon">
    <path d="M20,6h-3V4c0,-1.11,-0.89,-2,-2,-2H9c-1.11,0,-2,0.89,-2,2v2H4c-1.11,0,-2,0.89,-2,2v11c0,1.11,0.89,2,2,2h16c1.11,0,2,-0.89,2,-2V8c0,-1.11,-0.89,-2,-2,-2zM9,4h6v2H9V4zm11,15H4v-2h16v2zm0,-5H4V8h3v2h2V8h6v2h2V8h3v6z" fill="#212121"/>
  </g>
</svg>
