<?xml version="1.0" encoding="UTF-8"?>
<!DOCTYPE svg PUBLIC "-//W3C//DTD SVG 1.1//EN" "http://www.w3.org/Graphics/SVG/1.1/DTD/svg11.dtd">
<svg version="1.1" id="Layer_1" xmlns="http://www.w3.org/2000/svg" xmlns:xlink="http://www.w3.org/1999/xlink" x="0px" y="0px" width="24px" height="24px" viewBox="0 0 24 24" enable-background="new 0 0 24 24" xml:space="preserve">
  <g id="icon">
    <path d="M12,2C6.48,2,2,6.48,2,12c0,5.52,4.48,10,10,10s10,-4.48,10,-10C22,6.48,17.52,2,12,2zM8.46,14.45L7.1,13.83c0.28,-0.61,0.41,-1.24,0.4,-1.86c-0.01,-0.63,-0.14,-1.24,-0.4,-1.8l1.36,-0.63c0.35,0.75,0.53,1.56,0.54,2.4C9.01,12.8,8.83,13.64,8.46,14.45zM11.53,16.01l-1.3,-0.74c0.52,-0.92,0.78,-1.98,0.78,-3.15c0,-1.19,-0.27,-2.33,-0.8,-3.4l1.34,-0.67c0.64,1.28,0.96,2.65,0.96,4.07C12.51,13.55,12.18,14.86,11.53,16.01zM14.67,17.33l-1.35,-0.66c0.78,-1.6,1.18,-3.18,1.18,-4.69c0,-1.51,-0.4,-3.07,-1.18,-4.64l1.34,-0.67C15.56,8.45,16,10.23,16,11.98C16,13.72,15.56,15.52,14.67,17.33z" fill="#212121"/>
  </g>
</svg>
