<?xml version="1.0" encoding="UTF-8"?>
<!DOCTYPE svg PUBLIC "-//W3C//DTD SVG 1.1//EN" "http://www.w3.org/Graphics/SVG/1.1/DTD/svg11.dtd">
<svg version="1.1" id="Layer_1" xmlns="http://www.w3.org/2000/svg" xmlns:xlink="http://www.w3.org/1999/xlink" x="0px" y="0px" width="24px" height="24px" viewBox="0 0 24 24" enable-background="new 0 0 24 24" xml:space="preserve">
  <g id="icon">
    <path d="M6.83,4H20c1.11,0,2,0.89,2,2v12c0,0.34,-0.08,0.66,-0.23,0.94L20,17.17V12h-5.17l-4,-4H20V6H8.83L6.83,4zM20.49,23.31L17.17,20H4c-1.11,0,-2,-0.89,-2,-2L2.01,6c0,-0.34,0.08,-0.66,0.23,-0.93L0.69,3.51L2.1,2.1l19.8,19.8L20.49,23.31zM4,6.83V8h1.17L4,6.83zM15.17,18l-6,-6H4v6H15.17z" fill="#212121"/>
  </g>
</svg>
