<?xml version="1.0" encoding="UTF-8"?>
<!DOCTYPE svg PUBLIC "-//W3C//DTD SVG 1.1//EN" "http://www.w3.org/Graphics/SVG/1.1/DTD/svg11.dtd">
<svg version="1.1" id="Layer_1" xmlns="http://www.w3.org/2000/svg" xmlns:xlink="http://www.w3.org/1999/xlink" x="0px" y="0px" width="24px" height="24px" viewBox="0 0 24 24" enable-background="new 0 0 24 24" xml:space="preserve">
  <g id="icon">
    <path d="M3,11h8V3H3V11zM5,5h4v4H5V5z" fill="#212121"/>
    <path d="M13,3v8h8V3H13zM19,9h-4V5h4V9z" fill="#212121"/>
    <path d="M3,21h8v-8H3V21zM5,15h4v4H5V15z" fill="#212121"/>
    <polygon points="18,13 16,13 16,16 13,16 13,18 16,18 16,21 18,21 18,18 21,18 21,16 18,16" fill="#212121" stroke-linejoin="miter"/>
  </g>
</svg>
