<?xml version="1.0" encoding="UTF-8"?>
<!DOCTYPE svg PUBLIC "-//W3C//DTD SVG 1.1//EN" "http://www.w3.org/Graphics/SVG/1.1/DTD/svg11.dtd">
<svg version="1.1" id="Layer_1" xmlns="http://www.w3.org/2000/svg" xmlns:xlink="http://www.w3.org/1999/xlink" x="0px" y="0px" width="24px" height="24px" viewBox="0 0 24 24" enable-background="new 0 0 24 24" xml:space="preserve">
  <g id="icon">
    <path d="M19,3H5C3.9,3,3,3.9,3,5v14c0,1.1,0.9,2,2,2h14c1.1,0,2,-0.9,2,-2V5C21,3.9,20.1,3,19,3zM19,19h-1.73L19,17.27V19zM19,16h-0.85l-3,3h-1.62l3,-3h-2.12l-3,3H9.8l3,-3h-2.12l-3,3H5.84l3,-3H6.72L5,17.72V5h14V16z" fill="#212121"/>
    <polygon points="10.67,11 12.67,13 17.75,7.91 16.34,6.5 12.67,10.17 10.67,8.17 6.25,12.59 7.66,14" fill="#212121" stroke-linejoin="miter"/>
  </g>
</svg>
