<?xml version="1.0" encoding="UTF-8"?>
<!DOCTYPE svg PUBLIC "-//W3C//DTD SVG 1.1//EN" "http://www.w3.org/Graphics/SVG/1.1/DTD/svg11.dtd">
<svg version="1.1" id="Layer_1" xmlns="http://www.w3.org/2000/svg" xmlns:xlink="http://www.w3.org/1999/xlink" x="0px" y="0px" width="24px" height="24px" viewBox="0 0 24 24" enable-background="new 0 0 24 24" xml:space="preserve">
  <g id="icon">
    <path d="M7,11h2v2H7v-2zm14,-5v14c0,1.1,-0.9,2,-2,2H5c-1.11,0,-2,-0.9,-2,-2l0.01,-14c0,-1.1,0.88,-2,1.99,-2h1V2h2v2h8V2h2v2h1c1.1,0,2,0.9,2,2zM5,8h14V6H5v2zm14,12V10H5v10h14zm-4,-7h2v-2h-2v2zm-4,0h2v-2h-2v2z" fill="#212121"/>
  </g>
</svg>
