<?xml version="1.0" encoding="UTF-8"?>
<!DOCTYPE svg PUBLIC "-//W3C//DTD SVG 1.1//EN" "http://www.w3.org/Graphics/SVG/1.1/DTD/svg11.dtd">
<svg version="1.1" id="Layer_1" xmlns="http://www.w3.org/2000/svg" xmlns:xlink="http://www.w3.org/1999/xlink" x="0px" y="0px" width="24px" height="24px" viewBox="0 0 24 24" enable-background="new 0 0 24 24" xml:space="preserve">
  <g id="icon">
    <path d="M20,3H4C2.89,3,2,3.89,2,5v12c0,1.1,0.89,2,2,2h4v2h8v-2h4c1.1,0,2,-0.9,2,-2V5C22,3.89,21.1,3,20,3zM20,17H4V5h16V17z" fill="#212121"/>
    <rect x="6" y="8.25" width="8" height="1.5" fill="#212121"/>
    <polygon points="16.5,9.75 18,9.75 18,8.25 16.5,8.25 16.5,7 15,7 15,11 16.5,11" fill="#212121" stroke-linejoin="miter"/>
    <rect x="10" y="12.25" width="8" height="1.5" fill="#212121"/>
    <polygon points="7.5,15 9,15 9,11 7.5,11 7.5,12.25 6,12.25 6,13.75 7.5,13.75" fill="#212121" stroke-linejoin="miter"/>
  </g>
</svg>
