<?xml version="1.0" encoding="UTF-8"?>
<!DOCTYPE svg PUBLIC "-//W3C//DTD SVG 1.1//EN" "http://www.w3.org/Graphics/SVG/1.1/DTD/svg11.dtd">
<svg version="1.1" id="Layer_1" xmlns="http://www.w3.org/2000/svg" xmlns:xlink="http://www.w3.org/1999/xlink" x="0px" y="0px" width="24px" height="24px" viewBox="0 0 24 24" enable-background="new 0 0 24 24" xml:space="preserve">
  <g id="icon">
    <path d="M20,13H4c-0.55,0,-1,0.45,-1,1v6c0,0.55,0.45,1,1,1h16c0.55,0,1,-0.45,1,-1v-6c0,-0.55,-0.45,-1,-1,-1zM7,19c-1.1,0,-2,-0.9,-2,-2s0.9,-2,2,-2,2,0.9,2,2,-0.9,2,-2,2zM20,3H4c-0.55,0,-1,0.45,-1,1v6c0,0.55,0.45,1,1,1h16c0.55,0,1,-0.45,1,-1V4c0,-0.55,-0.45,-1,-1,-1zM7,9c-1.1,0,-2,-0.9,-2,-2s0.9,-2,2,-2,2,0.9,2,2,-0.9,2,-2,2z" fill="#212121"/>
  </g>
</svg>
