<?xml version="1.0" encoding="UTF-8"?>
<!DOCTYPE svg PUBLIC "-//W3C//DTD SVG 1.1//EN" "http://www.w3.org/Graphics/SVG/1.1/DTD/svg11.dtd">
<svg version="1.1" id="Layer_1" xmlns="http://www.w3.org/2000/svg" xmlns:xlink="http://www.w3.org/1999/xlink" x="0px" y="0px" width="24px" height="24px" viewBox="0 0 24 24" enable-background="new 0 0 24 24" xml:space="preserve">
  <g id="icon">
    <path d="M19,15v4H5v-4h14m1,-2H4c-0.55,0,-1,0.45,-1,1v6c0,0.55,0.45,1,1,1h16c0.55,0,1,-0.45,1,-1v-6c0,-0.55,-0.45,-1,-1,-1zM7,18.5c-0.82,0,-1.5,-0.67,-1.5,-1.5s0.68,-1.5,1.5,-1.5,1.5,0.67,1.5,1.5,-0.67,1.5,-1.5,1.5zM19,5v4H5V5h14m1,-2H4c-0.55,0,-1,0.45,-1,1v6c0,0.55,0.45,1,1,1h16c0.55,0,1,-0.45,1,-1V4c0,-0.55,-0.45,-1,-1,-1zM7,8.5c-0.82,0,-1.5,-0.67,-1.5,-1.5S6.18,5.5,7,5.5s1.5,0.68,1.5,1.5S7.83,8.5,7,8.5z" fill="#212121"/>
  </g>
</svg>
