<?xml version="1.0" encoding="UTF-8"?>
<!DOCTYPE svg PUBLIC "-//W3C//DTD SVG 1.1//EN" "http://www.w3.org/Graphics/SVG/1.1/DTD/svg11.dtd">
<svg version="1.1" id="Layer_1" xmlns="http://www.w3.org/2000/svg" xmlns:xlink="http://www.w3.org/1999/xlink" x="0px" y="0px" width="24px" height="24px" viewBox="0 0 24 24" enable-background="new 0 0 24 24" xml:space="preserve">
  <g id="icon">
    <path d="M13,5.08c3.06,0.44,5.48,2.86,5.92,5.92h3.03c-0.47,-4.72,-4.23,-8.48,-8.95,-8.95v3.03zM18.92,13c-0.44,3.06,-2.86,5.48,-5.92,5.92v3.03c4.72,-0.47,8.48,-4.23,8.95,-8.95h-3.03zM11,18.92c-3.39,-0.49,-6,-3.4,-6,-6.92s2.61,-6.43,6,-6.92V2.05c-5.05,0.5,-9,4.76,-9,9.95,0,5.19,3.95,9.45,9,9.95v-3.03z" fill="#212121"/>
  </g>
</svg>
