<?xml version="1.0" encoding="UTF-8"?>
<!DOCTYPE svg PUBLIC "-//W3C//DTD SVG 1.1//EN" "http://www.w3.org/Graphics/SVG/1.1/DTD/svg11.dtd">
<svg version="1.1" id="Layer_1" xmlns="http://www.w3.org/2000/svg" xmlns:xlink="http://www.w3.org/1999/xlink" x="0px" y="0px" width="24px" height="24px" viewBox="0 0 24 24" enable-background="new 0 0 24 24" xml:space="preserve">
  <g id="icon">
    <path d="M11,9.16V2c-5,0.5,-9,4.79,-9,10s4,9.5,9,10v-7.16c-1,-0.41,-2,-1.52,-2,-2.84s1,-2.43,2,-2.84zM14.86,11H22c-0.48,-4.75,-4,-8.53,-9,-9v7.16c1,0.3,1.52,0.98,1.86,1.84zM13,14.84V22c5,-0.47,8.52,-4.25,9,-9h-7.14c-0.34,0.86,-0.86,1.54,-1.86,1.84z" fill="#212121"/>
  </g>
</svg>
