<?xml version="1.0" encoding="UTF-8"?>
<!DOCTYPE svg PUBLIC "-//W3C//DTD SVG 1.1//EN" "http://www.w3.org/Graphics/SVG/1.1/DTD/svg11.dtd">
<svg version="1.1" id="Layer_1" xmlns="http://www.w3.org/2000/svg" xmlns:xlink="http://www.w3.org/1999/xlink" x="0px" y="0px" width="24px" height="24px" viewBox="0 0 24 24" enable-background="new 0 0 24 24" xml:space="preserve">
  <g id="icon">
    <path d="M17,20v-9h-2V4h7l-2,5h2L17,20zM15,13v7H4c-1.1,0,-2,-0.9,-2,-2v-3c0,-1.1,0.9,-2,2,-2H15zM6.25,15.75h-1.5v1.5h1.5V15.75zM13,4v7H4c-1.1,0,-2,-0.9,-2,-2V6c0,-1.1,0.9,-2,2,-2H13zM6.25,6.75h-1.5v1.5h1.5V6.75z" fill="#212121"/>
  </g>
</svg>
