<?xml version="1.0" encoding="UTF-8"?>
<!DOCTYPE svg PUBLIC "-//W3C//DTD SVG 1.1//EN" "http://www.w3.org/Graphics/SVG/1.1/DTD/svg11.dtd">
<svg version="1.1" id="Layer_1" xmlns="http://www.w3.org/2000/svg" xmlns:xlink="http://www.w3.org/1999/xlink" x="0px" y="0px" width="24px" height="24px" viewBox="0 0 24 24" enable-background="new 0 0 24 24" xml:space="preserve">
  <g id="icon">
    <path d="M13,11H4c-1.1,0,-2,-0.9,-2,-2V6c0,-1.1,0.9,-2,2,-2h9V11zM4,9h7V6H4V9zM15,20H4c-1.1,0,-2,-0.9,-2,-2v-3c0,-1.1,0.9,-2,2,-2h11V20zM4,18h9v-3H4V18zM22,9h-2l2,-5h-7v7h2v9L22,9zM4.75,17.25h1.5v-1.5h-1.5V17.25zM4.75,8.25h1.5v-1.5h-1.5V8.25z" fill="#212121"/>
  </g>
</svg>
