<?xml version="1.0" encoding="UTF-8"?>
<!DOCTYPE svg PUBLIC "-//W3C//DTD SVG 1.1//EN" "http://www.w3.org/Graphics/SVG/1.1/DTD/svg11.dtd">
<svg version="1.1" id="Layer_1" xmlns="http://www.w3.org/2000/svg" xmlns:xlink="http://www.w3.org/1999/xlink" x="0px" y="0px" width="24px" height="24px" viewBox="0 0 24 24" enable-background="new 0 0 24 24" xml:space="preserve">
  <g id="icon">
    <path d="M12,22H5c-1.11,0,-2,-0.9,-2,-2L3.01,6c0,-1.1,0.88,-2,1.99,-2h1V2h2v2h8V2h2v2h1c1.1,0,2,0.9,2,2v6h-2v-2H5v10h7V22zM22.13,16.99l0.71,-0.71c0.39,-0.39,0.39,-1.02,0,-1.41l-0.71,-0.71c-0.39,-0.39,-1.02,-0.39,-1.41,0l-0.71,0.71L22.13,16.99zM21.42,17.7l-5.3,5.3H14v-2.12l5.3,-5.3L21.42,17.7z" fill="#212121"/>
  </g>
</svg>
