<?xml version="1.0" encoding="UTF-8"?>
<!DOCTYPE svg PUBLIC "-//W3C//DTD SVG 1.1//EN" "http://www.w3.org/Graphics/SVG/1.1/DTD/svg11.dtd">
<svg version="1.1" id="Layer_1" xmlns="http://www.w3.org/2000/svg" xmlns:xlink="http://www.w3.org/1999/xlink" x="0px" y="0px" width="24px" height="24px" viewBox="0 0 24 24" enable-background="new 0 0 24 24" xml:space="preserve">
  <g id="icon">
    <path d="M19,4h-1V2h-2v2H8V2H6v2H5c-1.11,0,-1.99,0.9,-1.99,2L3,20c0,1.1,0.89,2,2,2h14c1.1,0,2,-0.9,2,-2V6c0,-1.1,-0.9,-2,-2,-2zm0,16H5V10h14v10zm0,-12H5V6h14v2zm-7,5h5v5h-5z" fill="#212121"/>
  </g>
</svg>
