<?xml version="1.0" encoding="UTF-8"?>
<!DOCTYPE svg PUBLIC "-//W3C//DTD SVG 1.1//EN" "http://www.w3.org/Graphics/SVG/1.1/DTD/svg11.dtd">
<svg version="1.1" id="Layer_1" xmlns="http://www.w3.org/2000/svg" xmlns:xlink="http://www.w3.org/1999/xlink" x="0px" y="0px" width="24px" height="24px" viewBox="0 0 24 24" enable-background="new 0 0 24 24" xml:space="preserve">
  <g id="icon">
    <path d="M21,12V6c0,-1.1,-0.9,-2,-2,-2h-1V2h-2v2H8V2H6v2H5C3.9,4,3,4.9,3,6v14c0,1.1,0.9,2,2,2h7v-2H5V10h14v2H21zM15.64,20c0.43,1.45,1.77,2.5,3.36,2.5c1.93,0,3.5,-1.57,3.5,-3.5s-1.57,-3.5,-3.5,-3.5c-0.95,0,-1.82,0.38,-2.45,1l1.45,0V18h-4v-4h1.5l0,1.43C16.4,14.55,17.64,14,19,14c2.76,0,5,2.24,5,5s-2.24,5,-5,5c-2.42,0,-4.44,-1.72,-4.9,-4L15.64,20z" fill="#212121"/>
  </g>
</svg>
