<?xml version="1.0" encoding="UTF-8"?>
<!DOCTYPE svg PUBLIC "-//W3C//DTD SVG 1.1//EN" "http://www.w3.org/Graphics/SVG/1.1/DTD/svg11.dtd">
<svg version="1.1" id="Layer_1" xmlns="http://www.w3.org/2000/svg" xmlns:xlink="http://www.w3.org/1999/xlink" x="0px" y="0px" width="24px" height="24px" viewBox="0 0 24 24" enable-background="new 0 0 24 24" xml:space="preserve">
  <g id="icon">
    <path d="M12,2C6.48,2,2,6.48,2,12s4.48,10,10,10,10,-4.48,10,-10S17.52,2,12,2zm0,18c-4.41,0,-8,-3.59,-8,-8s3.59,-8,8,-8,8,3.59,8,8,-3.59,8,-8,8zm-5.5,-2.5l7.51,-3.49L17.5,6.5,9.99,9.99,6.5,17.5zm5.5,-6.6c0.61,0,1.1,0.49,1.1,1.1s-0.49,1.1,-1.1,1.1,-1.1,-0.49,-1.1,-1.1,0.49,-1.1,1.1,-1.1z" fill="#212121"/>
  </g>
</svg>
