<?xml version="1.0" encoding="UTF-8"?>
<!DOCTYPE svg PUBLIC "-//W3C//DTD SVG 1.1//EN" "http://www.w3.org/Graphics/SVG/1.1/DTD/svg11.dtd">
<svg version="1.1" id="Layer_1" xmlns="http://www.w3.org/2000/svg" xmlns:xlink="http://www.w3.org/1999/xlink" x="0px" y="0px" width="24px" height="24px" viewBox="0 0 24 24" enable-background="new 0 0 24 24" xml:space="preserve">
  <g id="icon">
    <path d="M9,11.75c-0.69,0,-1.25,0.56,-1.25,1.25s0.56,1.25,1.25,1.25,1.25,-0.56,1.25,-1.25,-0.56,-1.25,-1.25,-1.25zm6,0c-0.69,0,-1.25,0.56,-1.25,1.25s0.56,1.25,1.25,1.25,1.25,-0.56,1.25,-1.25,-0.56,-1.25,-1.25,-1.25zM12,2C6.48,2,2,6.48,2,12s4.48,10,10,10,10,-4.48,10,-10S17.52,2,12,2zm0,18c-4.41,0,-8,-3.59,-8,-8,0,-0.29,0.02,-0.58,0.05,-0.86,2.36,-1.05,4.23,-2.98,5.21,-5.37C11.07,8.33,14.05,10,17.42,10c0.78,0,1.53,-0.09,2.25,-0.26,0.21,0.71,0.33,1.47,0.33,2.26,0,4.41,-3.59,8,-8,8z" fill="#212121"/>
  </g>
</svg>
