<?xml version="1.0" encoding="UTF-8"?>
<!DOCTYPE svg PUBLIC "-//W3C//DTD SVG 1.1//EN" "http://www.w3.org/Graphics/SVG/1.1/DTD/svg11.dtd">
<svg version="1.1" id="Layer_1" xmlns="http://www.w3.org/2000/svg" xmlns:xlink="http://www.w3.org/1999/xlink" x="0px" y="0px" width="24px" height="24px" viewBox="0 0 24 24" enable-background="new 0 0 24 24" xml:space="preserve">
  <g id="icon">
    <path d="M20,3H4C2.9,3,2,3.9,2,5v14c0,1.1,0.9,2,2,2h16c1.1,0,2,-0.9,2,-2V5C22,3.9,21.1,3,20,3zM10,17H5v-2h5V17zM10,13H5v-2h5V13zM10,9H5V7h5V9zM14.82,15L12,12.16l1.41,-1.41l1.41,1.42L17.99,9l1.42,1.42L14.82,15z" fill-rule="evenodd" fill="#212121"/>
  </g>
</svg>
