<?xml version="1.0" encoding="UTF-8"?>
<!DOCTYPE svg PUBLIC "-//W3C//DTD SVG 1.1//EN" "http://www.w3.org/Graphics/SVG/1.1/DTD/svg11.dtd">
<svg version="1.1" id="Layer_1" xmlns="http://www.w3.org/2000/svg" xmlns:xlink="http://www.w3.org/1999/xlink" x="0px" y="0px" width="24px" height="24px" viewBox="0 0 24 24" enable-background="new 0 0 24 24" xml:space="preserve">
  <g id="icon">
    <path d="M20,3H4C2.9,3,2,3.9,2,5v14c0,1.1,0.9,2,2,2h16c1.1,0,2,-0.9,2,-2V5C22,3.9,21.1,3,20,3zM20,19H4V5h16V19z" fill-rule="evenodd" fill="#212121"/>
    <polygon points="19.41,10.42 17.99,9 14.82,12.17 13.41,10.75 12,12.16 14.82,15" fill-rule="evenodd" fill="#212121" stroke-linejoin="miter"/>
    <rect x="5" y="7" width="5" height="2" fill-rule="evenodd" fill="#212121"/>
    <rect x="5" y="11" width="5" height="2" fill-rule="evenodd" fill="#212121"/>
    <rect x="5" y="15" width="5" height="2" fill-rule="evenodd" fill="#212121"/>
  </g>
</svg>
