<?xml version="1.0" encoding="UTF-8"?>
<!DOCTYPE svg PUBLIC "-//W3C//DTD SVG 1.1//EN" "http://www.w3.org/Graphics/SVG/1.1/DTD/svg11.dtd">
<svg version="1.1" id="Layer_1" xmlns="http://www.w3.org/2000/svg" xmlns:xlink="http://www.w3.org/1999/xlink" x="0px" y="0px" width="24px" height="24px" viewBox="0 0 24 24" enable-background="new 0 0 24 24" xml:space="preserve">
  <g id="icon">
    <path d="M19,9h-1V4H8v14.5V20h14v-8C22,10.34,20.66,9,19,9zM10,6h6v3h-6V6zM14,17h-4v-5h4V17zM16,17c-0.55,0,-1,-0.45,-1,-1c0,-0.55,0.45,-1,1,-1s1,0.45,1,1C17,16.55,16.55,17,16,17zM16,14c-0.55,0,-1,-0.45,-1,-1c0,-0.55,0.45,-1,1,-1s1,0.45,1,1C17,13.55,16.55,14,16,14zM19,17c-0.55,0,-1,-0.45,-1,-1c0,-0.55,0.45,-1,1,-1s1,0.45,1,1C20,16.55,19.55,17,19,17zM19,14c-0.55,0,-1,-0.45,-1,-1c0,-0.55,0.45,-1,1,-1s1,0.45,1,1C20,13.55,19.55,14,19,14z" fill="#212121"/>
    <path d="M4.5,8C3.12,8,2,9.12,2,10.5v8C2,19.88,3.12,21,4.5,21S7,19.88,7,18.5v-8C7,9.12,5.88,8,4.5,8z" fill="#212121"/>
  </g>
</svg>
