<?xml version="1.0" encoding="UTF-8"?>
<!DOCTYPE svg PUBLIC "-//W3C//DTD SVG 1.1//EN" "http://www.w3.org/Graphics/SVG/1.1/DTD/svg11.dtd">
<svg version="1.1" id="Layer_1" xmlns="http://www.w3.org/2000/svg" xmlns:xlink="http://www.w3.org/1999/xlink" x="0px" y="0px" width="24px" height="24px" viewBox="0 0 24 24" enable-background="new 0 0 24 24" xml:space="preserve">
  <g id="icon">
    <path d="M19,9h-1V4H8v5H7.22C6.67,8.39,5.89,8,5,8c-1.66,0,-3,1.34,-3,3v7c0,1.66,1.34,3,3,3c0.89,0,1.67,-0.39,2.22,-1H22v-8C22,10.34,20.66,9,19,9zM6,18c0,0.55,-0.45,1,-1,1s-1,-0.45,-1,-1v-7c0,-0.55,0.45,-1,1,-1s1,0.45,1,1V18zM10,6h6v3h-6V6zM20,18H8v-7h11c0.55,0,1,0.45,1,1V18z" fill="#212121"/>
    <circle cx="15" cy="13" r="1" fill="#212121"/>
    <circle cx="18" cy="13" r="1" fill="#212121"/>
    <circle cx="15" cy="16" r="1" fill="#212121"/>
    <circle cx="18" cy="16" r="1" fill="#212121"/>
    <rect x="9" y="12" width="4" height="5" fill="#212121"/>
  </g>
</svg>
