<?xml version="1.0" encoding="UTF-8"?>
<!DOCTYPE svg PUBLIC "-//W3C//DTD SVG 1.1//EN" "http://www.w3.org/Graphics/SVG/1.1/DTD/svg11.dtd">
<svg version="1.1" id="Layer_1" xmlns="http://www.w3.org/2000/svg" xmlns:xlink="http://www.w3.org/1999/xlink" x="0px" y="0px" width="24px" height="24px" viewBox="0 0 24 24" enable-background="new 0 0 24 24" xml:space="preserve">
  <g id="icon">
    <path d="M14,2H6c-1.1,0,-1.99,0.9,-1.99,2L4,20c0,1.1,0.89,2,1.99,2H18c1.1,0,2,-0.9,2,-2V8l-6,-6zM6,4h7l5,5v8.58l-1.84,-1.84c1.28,-1.94,1.07,-4.57,-0.64,-6.28C14.55,8.49,13.28,8,12,8c-1.28,0,-2.55,0.49,-3.53,1.46,-1.95,1.95,-1.95,5.11,0,7.05,0.97,0.97,2.25,1.46,3.53,1.46,0.96,0,1.92,-0.28,2.75,-0.83L17.6,20H6V4zm8.11,11.1c-0.56,0.56,-1.31,0.88,-2.11,0.88s-1.55,-0.31,-2.11,-0.88c-0.56,-0.56,-0.88,-1.31,-0.88,-2.11s0.31,-1.55,0.88,-2.11c0.56,-0.57,1.31,-0.88,2.11,-0.88s1.55,0.31,2.11,0.88c0.56,0.56,0.88,1.31,0.88,2.11s-0.31,1.55,-0.88,2.11z" fill="#212121"/>
  </g>
</svg>
