<?xml version="1.0" encoding="UTF-8"?>
<!DOCTYPE svg PUBLIC "-//W3C//DTD SVG 1.1//EN" "http://www.w3.org/Graphics/SVG/1.1/DTD/svg11.dtd">
<svg version="1.1" id="Layer_1" xmlns="http://www.w3.org/2000/svg" xmlns:xlink="http://www.w3.org/1999/xlink" x="0px" y="0px" width="24px" height="24px" viewBox="0 0 24 24" enable-background="new 0 0 24 24" xml:space="preserve">
  <g id="icon">
    <path d="M11,6c1.38,0,2.63,0.56,3.54,1.46L12,10h6V4l-2.05,2.05C14.68,4.78,12.93,4,11,4c-3.53,0,-6.43,2.61,-6.92,6H6.1c0.46,-2.28,2.48,-4,4.9,-4zm5.64,9.14c0.66,-0.9,1.12,-1.97,1.28,-3.14H15.9c-0.46,2.28,-2.48,4,-4.9,4,-1.38,0,-2.63,-0.56,-3.54,-1.46L10,12H4v6l2.05,-2.05C7.32,17.22,9.07,18,11,18c1.55,0,2.98,-0.51,4.14,-1.36L20,21.49,21.49,20l-4.85,-4.86z" fill="#212121"/>
  </g>
</svg>
