<?xml version="1.0" encoding="UTF-8"?>
<!DOCTYPE svg PUBLIC "-//W3C//DTD SVG 1.1//EN" "http://www.w3.org/Graphics/SVG/1.1/DTD/svg11.dtd">
<svg version="1.1" id="Layer_1" xmlns="http://www.w3.org/2000/svg" xmlns:xlink="http://www.w3.org/1999/xlink" x="0px" y="0px" width="24px" height="24px" viewBox="0 0 24 24" enable-background="new 0 0 24 24" xml:space="preserve">
  <g id="icon">
    <path d="M20,19.59V8l-6,-6H6c-1.1,0,-1.99,0.9,-1.99,2L4,20c0,1.1,0.89,2,1.99,2H18c0.45,0,0.85,-0.15,1.19,-0.4l-4.43,-4.43c-0.8,0.52,-1.74,0.83,-2.76,0.83,-2.76,0,-5,-2.24,-5,-5s2.24,-5,5,-5,5,2.24,5,5c0,1.02,-0.31,1.96,-0.83,2.75L20,19.59zM9,13c0,1.66,1.34,3,3,3s3,-1.34,3,-3,-1.34,-3,-3,-3,-3,1.34,-3,3z" fill="#212121"/>
  </g>
</svg>
