<?xml version="1.0" encoding="UTF-8"?>
<!DOCTYPE svg PUBLIC "-//W3C//DTD SVG 1.1//EN" "http://www.w3.org/Graphics/SVG/1.1/DTD/svg11.dtd">
<svg version="1.1" id="Layer_1" xmlns="http://www.w3.org/2000/svg" xmlns:xlink="http://www.w3.org/1999/xlink" x="0px" y="0px" width="24px" height="24px" viewBox="0 0 24 24" enable-background="new 0 0 24 24" xml:space="preserve">
  <g id="icon">
    <path d="M6,16h12V8H6V16zM8,10h8v4H8V10zM4,15H2v3c0,1.1,0.9,2,2,2h3v-2H4V15zM4,6h3V4H4C2.9,4,2,4.9,2,6v3h2V6zM20,4h-3v2h3v3h2V6C22,4.9,21.1,4,20,4zM20,18h-3v2h3c1.1,0,2,-0.9,2,-2v-3h-2V18z" fill="#212121"/>
  </g>
</svg>
