<?xml version="1.0" encoding="UTF-8"?>
<!DOCTYPE svg PUBLIC "-//W3C//DTD SVG 1.1//EN" "http://www.w3.org/Graphics/SVG/1.1/DTD/svg11.dtd">
<svg version="1.1" id="Layer_1" xmlns="http://www.w3.org/2000/svg" xmlns:xlink="http://www.w3.org/1999/xlink" x="0px" y="0px" width="24px" height="24px" viewBox="0 0 24 24" enable-background="new 0 0 24 24" xml:space="preserve">
  <g id="icon">
    <path d="M17,4h3c1.1,0,2,0.9,2,2v2h-2V6h-3V4zM4,8V6h3V4H4c-1.1,0,-2,0.9,-2,2v2h2zm16,8v2h-3v2h3c1.1,0,2,-0.9,2,-2v-2h-2zM7,18H4v-2H2v2c0,1.1,0.9,2,2,2h3v-2zM18,8H6v8h12V8z" fill="#212121"/>
  </g>
</svg>
