<?xml version="1.0" encoding="UTF-8"?>
<!DOCTYPE svg PUBLIC "-//W3C//DTD SVG 1.1//EN" "http://www.w3.org/Graphics/SVG/1.1/DTD/svg11.dtd">
<svg version="1.1" id="Layer_1" xmlns="http://www.w3.org/2000/svg" xmlns:xlink="http://www.w3.org/1999/xlink" x="0px" y="0px" width="24px" height="24px" viewBox="0 0 24 24" enable-background="new 0 0 24 24" xml:space="preserve">
  <g id="icon">
    <path d="M14.05,17.58l-0.01,0.01l-2.4,-2.4l1.06,-1.06l1.35,1.35L16.54,13l1.06,1.06l-3.54,3.54L14.05,17.58zM12,2C6.5,2,2,6.5,2,12s4.5,10,10,10s10,-4.5,10,-10S17.5,2,12,2zM7.34,6.28l1.41,1.41l1.41,-1.41l1.06,1.06L9.81,8.75l1.41,1.41l-1.06,1.06L8.75,9.81l-1.41,1.41l-1.06,-1.06l1.41,-1.41L6.28,7.34L7.34,6.28zM12,20c-2.2,0,-4.2,-0.9,-5.7,-2.3L17.7,6.3C19.1,7.8,20,9.8,20,12C20,16.4,16.4,20,12,20z" fill-rule="evenodd" fill="#212121"/>
  </g>
</svg>
