<?xml version="1.0" encoding="UTF-8"?>
<!DOCTYPE svg PUBLIC "-//W3C//DTD SVG 1.1//EN" "http://www.w3.org/Graphics/SVG/1.1/DTD/svg11.dtd">
<svg version="1.1" id="Layer_1" xmlns="http://www.w3.org/2000/svg" xmlns:xlink="http://www.w3.org/1999/xlink" x="0px" y="0px" width="24px" height="24px" viewBox="0 0 24 24" enable-background="new 0 0 24 24" xml:space="preserve">
  <g id="icon">
    <path d="M3,13h2v-2H3v2zm0,4h2v-2H3v2zm2,4v-2H3c0,1.1,0.89,2,2,2zM3,9h2V7H3v2zm12,12h2v-2h-2v2zm4,-18H9c-1.11,0,-2,0.9,-2,2v10c0,1.1,0.89,2,2,2h10c1.1,0,2,-0.9,2,-2V5c0,-1.1,-0.9,-2,-2,-2zm0,12H9V5h10v10zm-8,6h2v-2h-2v2zm-4,0h2v-2H7v2z" fill="#212121"/>
  </g>
</svg>
