<?xml version="1.0" encoding="UTF-8"?>
<!DOCTYPE svg PUBLIC "-//W3C//DTD SVG 1.1//EN" "http://www.w3.org/Graphics/SVG/1.1/DTD/svg11.dtd">
<svg version="1.1" id="Layer_1" xmlns="http://www.w3.org/2000/svg" xmlns:xlink="http://www.w3.org/1999/xlink" x="0px" y="0px" width="24px" height="24px" viewBox="0 0 24 24" enable-background="new 0 0 24 24" xml:space="preserve">
  <g id="icon">
    <path d="M19,19H5V5h14V19zM5,3C3.9,3,3,3.9,3,5v14c0,1.1,0.9,2,2,2h14c1.1,0,2,-0.9,2,-2V5c0,-1.1,-0.9,-2,-2,-2H5zM11.5,14h1v-4h-1V14zM13.5,14h1v-1.5H16v-1h-1.5V11h2v-1h-3V14zM9.5,12v1h-1v-2h2c0,-0.55,-0.45,-1,-1,-1h-1c-0.55,0,-1,0.45,-1,1v2c0,0.55,0.45,1,1,1h1c0.55,0,1,-0.45,1,-1v-1H9.5z" fill="#212121"/>
  </g>
</svg>
