<?xml version="1.0" encoding="UTF-8"?>
<!DOCTYPE svg PUBLIC "-//W3C//DTD SVG 1.1//EN" "http://www.w3.org/Graphics/SVG/1.1/DTD/svg11.dtd">
<svg version="1.1" id="Layer_1" xmlns="http://www.w3.org/2000/svg" xmlns:xlink="http://www.w3.org/1999/xlink" x="0px" y="0px" width="24px" height="24px" viewBox="0 0 24 24" enable-background="new 0 0 24 24" xml:space="preserve">
  <g id="icon">
    <path d="M19,3H5C3.9,3,3,3.9,3,5v14c0,1.1,0.9,2,2,2h14c1.1,0,2,-0.9,2,-2V5C21,3.9,20.1,3,19,3zM9.5,13v-1h1v1c0,0.55,-0.45,1,-1,1h-1c-0.55,0,-1,-0.45,-1,-1v-2c0,-0.55,0.45,-1,1,-1h1c0.55,0,1,0.45,1,1h-2v2H9.5zM12.5,14h-1v-4h1V14zM16.5,11h-2v0.5H16v1h-1.5V14h-1v-4h3V11z" fill="#212121"/>
  </g>
</svg>
