<?xml version="1.0" encoding="UTF-8"?>
<!DOCTYPE svg PUBLIC "-//W3C//DTD SVG 1.1//EN" "http://www.w3.org/Graphics/SVG/1.1/DTD/svg11.dtd">
<svg version="1.1" id="Layer_1" xmlns="http://www.w3.org/2000/svg" xmlns:xlink="http://www.w3.org/1999/xlink" x="0px" y="0px" width="24px" height="24px" viewBox="0 0 24 24" enable-background="new 0 0 24 24" xml:space="preserve">
  <g id="icon">
    <path d="M12,7.13l0.97,2.29,0.47,1.11,1.2,0.1,2.47,0.21,-1.88,1.63,-0.91,0.79,0.27,1.18,0.56,2.41,-2.12,-1.28,-1.03,-0.64,-1.03,0.62,-2.12,1.28,0.56,-2.41,0.27,-1.18,-0.91,-0.79,-1.88,-1.63,2.47,-0.21,1.2,-0.1,0.47,-1.11,0.97,-2.27M12,2L9.19,8.63,2,9.24l5.46,4.73L5.82,21,12,17.27,18.18,21l-1.64,-7.03L22,9.24l-7.19,-0.61L12,2z" fill="#212121"/>
  </g>
</svg>
