<?xml version="1.0" encoding="UTF-8"?>
<!DOCTYPE svg PUBLIC "-//W3C//DTD SVG 1.1//EN" "http://www.w3.org/Graphics/SVG/1.1/DTD/svg11.dtd">
<svg version="1.1" id="Layer_1" xmlns="http://www.w3.org/2000/svg" xmlns:xlink="http://www.w3.org/1999/xlink" x="0px" y="0px" width="24px" height="24px" viewBox="0 0 24 24" enable-background="new 0 0 24 24" xml:space="preserve">
  <g id="icon">
    <path d="M12,2C6.48,2,2,6.48,2,12s4.48,10,10,10,10,-4.48,10,-10S17.52,2,12,2zM8,17.5c-1.38,0,-2.5,-1.12,-2.5,-2.5s1.12,-2.5,2.5,-2.5,2.5,1.12,2.5,2.5,-1.12,2.5,-2.5,2.5zM9.5,8c0,-1.38,1.12,-2.5,2.5,-2.5s2.5,1.12,2.5,2.5,-1.12,2.5,-2.5,2.5S9.5,9.38,9.5,8zm6.5,9.5c-1.38,0,-2.5,-1.12,-2.5,-2.5s1.12,-2.5,2.5,-2.5,2.5,1.12,2.5,2.5,-1.12,2.5,-2.5,2.5z" fill="#212121"/>
  </g>
</svg>
