<?xml version="1.0" encoding="UTF-8"?>
<!DOCTYPE svg PUBLIC "-//W3C//DTD SVG 1.1//EN" "http://www.w3.org/Graphics/SVG/1.1/DTD/svg11.dtd">
<svg version="1.1" id="Layer_1" xmlns="http://www.w3.org/2000/svg" xmlns:xlink="http://www.w3.org/1999/xlink" x="0px" y="0px" width="24px" height="24px" viewBox="0 0 24 24" enable-background="new 0 0 24 24" xml:space="preserve">
  <g id="icon">
    <path d="M17,5h-2V3h2V5zM15,15v6l2.29,-2.29L19.59,21L21,19.59l-2.29,-2.29L21,15H15zM19,9h2V7h-2V9zM19,13h2v-2h-2V13zM11,21h2v-2h-2V21zM7,5h2V3H7V5zM3,17h2v-2H3V17zM5,21v-2H3C3,20.1,3.9,21,5,21zM19,3v2h2C21,3.9,20.1,3,19,3zM11,5h2V3h-2V5zM3,9h2V7H3V9zM7,21h2v-2H7V21zM3,13h2v-2H3V13zM3,5h2V3C3.9,3,3,3.9,3,5z" fill="#212121"/>
  </g>
</svg>
