<?xml version="1.0" encoding="UTF-8"?>
<!DOCTYPE svg PUBLIC "-//W3C//DTD SVG 1.1//EN" "http://www.w3.org/Graphics/SVG/1.1/DTD/svg11.dtd">
<svg version="1.1" id="Layer_1" xmlns="http://www.w3.org/2000/svg" xmlns:xlink="http://www.w3.org/1999/xlink" x="0px" y="0px" width="24px" height="24px" viewBox="0 0 24 24" enable-background="new 0 0 24 24" xml:space="preserve">
  <g id="icon">
    <path d="M13,3c-4.97,0,-9,4.03,-9,9H1l3.89,3.89,0.07,0.14L9,12H6c0,-3.87,3.13,-7,7,-7s7,3.13,7,7,-3.13,7,-7,7c-1.93,0,-3.68,-0.79,-4.94,-2.06l-1.42,1.42C8.27,19.99,10.51,21,13,21c4.97,0,9,-4.03,9,-9s-4.03,-9,-9,-9zm-1,5v5l4.25,2.52,0.77,-1.28,-3.52,-2.09V8z" fill="#212121"/>
  </g>
</svg>
