<?xml version="1.0" encoding="UTF-8"?>
<!DOCTYPE svg PUBLIC "-//W3C//DTD SVG 1.1//EN" "http://www.w3.org/Graphics/SVG/1.1/DTD/svg11.dtd">
<svg version="1.1" id="Layer_1" xmlns="http://www.w3.org/2000/svg" xmlns:xlink="http://www.w3.org/1999/xlink" x="0px" y="0px" width="24px" height="24px" viewBox="0 0 24 24" enable-background="new 0 0 24 24" xml:space="preserve">
  <g id="icon">
    <path d="M17.83,15h1.67c0.55,0,1,-0.45,1,-1v-1.5c0,-0.55,-0.45,-1,-1,-1H17v-1h2V11h1.5v-1c0,-0.55,-0.45,-1,-1,-1h-3c-0.55,0,-1,0.45,-1,1v1.5c0,0.55,0.45,1,1,1H19v1h-2V13h-1.17L17.83,15zM8,10.83V15H6.5v-2.5h-2V15H3V9h1.5v2h2V9.33L1.39,4.22l1.41,-1.41l18.38,18.38l-1.41,1.41L12.17,15H10v-2.17L8,10.83z" fill="#212121"/>
  </g>
</svg>
