<?xml version="1.0" encoding="UTF-8"?>
<!DOCTYPE svg PUBLIC "-//W3C//DTD SVG 1.1//EN" "http://www.w3.org/Graphics/SVG/1.1/DTD/svg11.dtd">
<svg version="1.1" id="Layer_1" xmlns="http://www.w3.org/2000/svg" xmlns:xlink="http://www.w3.org/1999/xlink" x="0px" y="0px" width="24px" height="24px" viewBox="0 0 24 24" enable-background="new 0 0 24 24" xml:space="preserve">
  <g id="icon">
    <path d="M3.5,9H5v6H3.5v-2.5h-2V15H0V9h1.5v2h2V9zM17.5,9H13c-0.55,0,-1,0.45,-1,1v5h1.5v-4.5h1V14H16v-3.51h1V15h1.5v-5C18.5,9.45,18.05,9,17.5,9zM11,9H6v1.5h1.75V15h1.5v-4.5H11V9zM24,15v-1.5h-2.5V9H20v6H24z" fill="#212121"/>
  </g>
</svg>
