<?xml version="1.0" encoding="UTF-8"?>
<!DOCTYPE svg PUBLIC "-//W3C//DTD SVG 1.1//EN" "http://www.w3.org/Graphics/SVG/1.1/DTD/svg11.dtd">
<svg version="1.1" id="Layer_1" xmlns="http://www.w3.org/2000/svg" xmlns:xlink="http://www.w3.org/1999/xlink" x="0px" y="0px" width="24px" height="24px" viewBox="0 0 24 24" enable-background="new 0 0 24 24" xml:space="preserve">
  <g id="icon">
    <path d="M4.5,11h-2V9H1v6h1.5v-2.5h2V15H6V9H4.5v2zm2.5,-0.5h1.5V15H10v-4.5h1.5V9H7v1.5zm5.5,0H14V15h1.5v-4.5H17V9h-4.5v1.5zm9,-1.5H18v6h1.5v-2h2c0.8,0,1.5,-0.7,1.5,-1.5v-1c0,-0.8,-0.7,-1.5,-1.5,-1.5zm0,2.5h-2v-1h2v1z" fill="#212121"/>
  </g>
</svg>
