<?xml version="1.0" encoding="UTF-8"?>
<!DOCTYPE svg PUBLIC "-//W3C//DTD SVG 1.1//EN" "http://www.w3.org/Graphics/SVG/1.1/DTD/svg11.dtd">
<svg version="1.1" id="Layer_1" xmlns="http://www.w3.org/2000/svg" xmlns:xlink="http://www.w3.org/1999/xlink" x="0px" y="0px" width="24px" height="24px" viewBox="0 0 24 24" enable-background="new 0 0 24 24" xml:space="preserve">
  <g id="icon">
    <path d="M21,3.01H3c-1.1,0,-2,0.9,-2,2V9h2V4.99h18v14.03H3V15H1v4.01c0,1.1,0.9,1.98,2,1.98h18c1.1,0,2,-0.88,2,-1.98v-14c0,-1.11,-0.9,-2,-2,-2zM11,16l4,-4,-4,-4v3H1v2h10v3zM21,3.01H3c-1.1,0,-2,0.9,-2,2V9h2V4.99h18v14.03H3V15H1v4.01c0,1.1,0.9,1.98,2,1.98h18c1.1,0,2,-0.88,2,-1.98v-14c0,-1.11,-0.9,-2,-2,-2zM11,16l4,-4,-4,-4v3H1v2h10v3z" fill="#212121"/>
  </g>
</svg>
