<?xml version="1.0" encoding="UTF-8"?>
<!DOCTYPE svg PUBLIC "-//W3C//DTD SVG 1.1//EN" "http://www.w3.org/Graphics/SVG/1.1/DTD/svg11.dtd">
<svg version="1.1" id="Layer_1" xmlns="http://www.w3.org/2000/svg" xmlns:xlink="http://www.w3.org/1999/xlink" x="0px" y="0px" width="24px" height="24px" viewBox="0 0 24 24" enable-background="new 0 0 24 24" xml:space="preserve">
  <g id="icon">
    <path d="M17,18H7V6h7V4H7V3h7V1.01L7,1C5.9,1,5,1.9,5,3v18c0,1.1,0.9,2,2,2h10c1.1,0,2,-0.9,2,-2v-5h-2V18zM17,21H7v-1h10V21z" fill="#212121"/>
    <polygon points="18,14 23,9 21.59,7.59 19,10.17 19,3 17,3 17,10.17 14.41,7.59 13,9" fill="#212121" stroke-linejoin="miter"/>
  </g>
</svg>
