<?xml version="1.0" encoding="UTF-8"?>
<!DOCTYPE svg PUBLIC "-//W3C//DTD SVG 1.1//EN" "http://www.w3.org/Graphics/SVG/1.1/DTD/svg11.dtd">
<svg version="1.1" id="Layer_1" xmlns="http://www.w3.org/2000/svg" xmlns:xlink="http://www.w3.org/1999/xlink" x="0px" y="0px" width="24px" height="24px" viewBox="0 0 24 24" enable-background="new 0 0 24 24" xml:space="preserve">
  <g id="icon">
    <path d="M16,7l3.55,5,-1.63,2.29,1.43,1.43L22,12l-4.37,-6.16C17.27,5.33,16.67,5,16,5l-7.37,0.01,2,1.99H16zM2,4.03l1.58,1.58C3.22,5.96,3,6.46,3,7v10c0,1.1,0.9,1.99,2,1.99L16,19c0.28,0,0.55,-0.07,0.79,-0.18L18.97,21l1.41,-1.41L3.41,2.62,2,4.03zM14.97,17H5V7.03L14.97,17z" fill="#212121"/>
  </g>
</svg>
