<?xml version="1.0" encoding="UTF-8"?>
<!DOCTYPE svg PUBLIC "-//W3C//DTD SVG 1.1//EN" "http://www.w3.org/Graphics/SVG/1.1/DTD/svg11.dtd">
<svg version="1.1" id="Layer_1" xmlns="http://www.w3.org/2000/svg" xmlns:xlink="http://www.w3.org/1999/xlink" x="0px" y="0px" width="24px" height="24px" viewBox="0 0 24 24" enable-background="new 0 0 24 24" xml:space="preserve">
  <g id="icon">
    <path d="M9,21c0,0.5,0.4,1,1,1h4c0.6,0,1,-0.5,1,-1v-1H9v1zm3,-19C8.1,2,5,5.1,5,9c0,2.4,1.2,4.5,3,5.7V17c0,0.5,0.4,1,1,1h6c0.6,0,1,-0.5,1,-1v-2.3c1.8,-1.3,3,-3.4,3,-5.7,0,-3.9,-3.1,-7,-7,-7z" fill="#212121"/>
  </g>
</svg>
