<?xml version="1.0" encoding="UTF-8"?>
<!DOCTYPE svg PUBLIC "-//W3C//DTD SVG 1.1//EN" "http://www.w3.org/Graphics/SVG/1.1/DTD/svg11.dtd">
<svg version="1.1" id="Layer_1" xmlns="http://www.w3.org/2000/svg" xmlns:xlink="http://www.w3.org/1999/xlink" x="0px" y="0px" width="24px" height="24px" viewBox="0 0 24 24" enable-background="new 0 0 24 24" xml:space="preserve">
  <g id="icon">
    <path d="M12,2C6.48,2,2,6.48,2,12c0,5.52,4.48,10,10,10s10,-4.48,10,-10C22,6.48,17.52,2,12,2zM12,19c-0.83,0,-1.5,-0.67,-1.5,-1.5h3C13.5,18.33,12.83,19,12,19zM15,16.5H9V15h6V16.5zM14.97,14H9.03C7.8,13.09,7,11.64,7,10c0,-2.76,2.24,-5,5,-5s5,2.24,5,5C17,11.64,16.2,13.09,14.97,14z" fill="#212121"/>
  </g>
</svg>
