<?xml version="1.0" encoding="UTF-8"?>
<!DOCTYPE svg PUBLIC "-//W3C//DTD SVG 1.1//EN" "http://www.w3.org/Graphics/SVG/1.1/DTD/svg11.dtd">
<svg version="1.1" id="Layer_1" xmlns="http://www.w3.org/2000/svg" xmlns:xlink="http://www.w3.org/1999/xlink" x="0px" y="0px" width="24px" height="24px" viewBox="0 0 24 24" enable-background="new 0 0 24 24" xml:space="preserve">
  <g id="icon">
    <path d="M3,16h5v-2H3v2zm6.5,0h5v-2h-5v2zm6.5,0h5v-2h-5v2zM3,20h2v-2H3v2zm4,0h2v-2H7v2zm4,0h2v-2h-2v2zm4,0h2v-2h-2v2zm4,0h2v-2h-2v2zM3,12h8v-2H3v2zm10,0h8v-2h-8v2zM3,4v4h18V4H3z" fill="#212121"/>
  </g>
</svg>
