<?xml version="1.0" encoding="UTF-8"?>
<!DOCTYPE svg PUBLIC "-//W3C//DTD SVG 1.1//EN" "http://www.w3.org/Graphics/SVG/1.1/DTD/svg11.dtd">
<svg version="1.1" id="Layer_1" xmlns="http://www.w3.org/2000/svg" xmlns:xlink="http://www.w3.org/1999/xlink" x="0px" y="0px" width="24px" height="24px" viewBox="0 0 24 24" enable-background="new 0 0 24 24" xml:space="preserve">
  <g id="icon">
    <path d="M3,13h2v-2H3v2zm0,4h2v-2H3v2zm0,-8h2V7H3v2zm4,4h14v-2H7v2zm0,4h14v-2H7v2zM7,7v2h14V7H7zm-4,6h2v-2H3v2zm0,4h2v-2H3v2zm0,-8h2V7H3v2zm4,4h14v-2H7v2zm0,4h14v-2H7v2zM7,7v2h14V7H7z" fill="#212121"/>
  </g>
</svg>
