<?xml version="1.0" encoding="UTF-8"?>
<!DOCTYPE svg PUBLIC "-//W3C//DTD SVG 1.1//EN" "http://www.w3.org/Graphics/SVG/1.1/DTD/svg11.dtd">
<svg version="1.1" id="Layer_1" xmlns="http://www.w3.org/2000/svg" xmlns:xlink="http://www.w3.org/1999/xlink" x="0px" y="0px" width="24px" height="24px" viewBox="0 0 24 24" enable-background="new 0 0 24 24" xml:space="preserve">
  <g id="icon">
    <path d="M18,8h-1V6c0,-2.76,-2.24,-5,-5,-5S7,3.24,7,6h2c0,-1.66,1.34,-3,3,-3s3,1.34,3,3v2H6c-1.1,0,-2,0.9,-2,2v10c0,1.1,0.9,2,2,2h12c1.1,0,2,-0.9,2,-2V10c0,-1.1,-0.9,-2,-2,-2zm0,12H6V10h12v10zm-6,-3c1.1,0,2,-0.9,2,-2s-0.9,-2,-2,-2,-2,0.9,-2,2,0.9,2,2,2z" fill="#212121"/>
  </g>
</svg>
