<?xml version="1.0" encoding="UTF-8"?>
<!DOCTYPE svg PUBLIC "-//W3C//DTD SVG 1.1//EN" "http://www.w3.org/Graphics/SVG/1.1/DTD/svg11.dtd">
<svg version="1.1" id="Layer_1" xmlns="http://www.w3.org/2000/svg" xmlns:xlink="http://www.w3.org/1999/xlink" x="0px" y="0px" width="24px" height="24px" viewBox="0 0 24 24" enable-background="new 0 0 24 24" xml:space="preserve">
  <g id="icon">
    <path d="M16.23,7h2.6c-0.06,-0.47,-0.36,-0.94,-0.79,-1.17L10.5,2L2.8,5.83C2.32,6.09,2,6.64,2,7.17V15c0,1.1,0.9,2,2,2V7.4L10.5,4L16.23,7z" fill="#212121"/>
    <path d="M20,8H7c-1.1,0,-2,0.9,-2,2v9c0,1.1,0.9,2,2,2h13c1.1,0,2,-0.9,2,-2v-9C22,8.9,21.1,8,20,8zM20,19H7v-7l6.5,3.33L20,12V19zM13.5,13.33L7,10h13L13.5,13.33z" fill="#212121"/>
  </g>
</svg>
