<?xml version="1.0" encoding="UTF-8"?>
<!DOCTYPE svg PUBLIC "-//W3C//DTD SVG 1.1//EN" "http://www.w3.org/Graphics/SVG/1.1/DTD/svg11.dtd">
<svg version="1.1" id="Layer_1" xmlns="http://www.w3.org/2000/svg" xmlns:xlink="http://www.w3.org/1999/xlink" x="0px" y="0px" width="24px" height="24px" viewBox="0 0 24 24" enable-background="new 0 0 24 24" xml:space="preserve">
  <g id="icon">
    <path d="M10.01,21.01c0,1.1,0.89,1.99,1.99,1.99s1.99,-0.89,1.99,-1.99h-3.98zM12,6c2.76,0,5,2.24,5,5v7H7v-7c0,-2.76,2.24,-5,5,-5zm0,-4.5c-0.83,0,-1.5,0.67,-1.5,1.5v1.17C7.36,4.85,5,7.65,5,11v6l-2,2v1h18v-1l-2,-2v-6c0,-3.35,-2.36,-6.15,-5.5,-6.83V3c0,-0.83,-0.67,-1.5,-1.5,-1.5zM11,8h2v4h-2zm0,6h2v2h-2z" fill="#212121"/>
  </g>
</svg>
