<?xml version="1.0" encoding="UTF-8"?>
<!DOCTYPE svg PUBLIC "-//W3C//DTD SVG 1.1//EN" "http://www.w3.org/Graphics/SVG/1.1/DTD/svg11.dtd">
<svg version="1.1" id="Layer_1" xmlns="http://www.w3.org/2000/svg" xmlns:xlink="http://www.w3.org/1999/xlink" x="0px" y="0px" width="24px" height="24px" viewBox="0 0 24 24" enable-background="new 0 0 24 24" xml:space="preserve">
  <g id="icon">
    <path d="M18,16v-5c0,-3.07,-1.64,-5.64,-4.5,-6.32V4c0,-0.83,-0.67,-1.5,-1.5,-1.5s-1.5,0.67,-1.5,1.5v0.68C7.63,5.36,6,7.92,6,11v5l-2,2v1h16v-1l-2,-2zm-5,0h-2v-2h2v2zm0,-4h-2V8h2v4zm-1,10c1.1,0,2,-0.9,2,-2h-4c0,1.1,0.89,2,2,2z" fill="#212121"/>
  </g>
</svg>
