<?xml version="1.0" encoding="UTF-8"?>
<!DOCTYPE svg PUBLIC "-//W3C//DTD SVG 1.1//EN" "http://www.w3.org/Graphics/SVG/1.1/DTD/svg11.dtd">
<svg version="1.1" id="Layer_1" xmlns="http://www.w3.org/2000/svg" xmlns:xlink="http://www.w3.org/1999/xlink" x="0px" y="0px" width="24px" height="24px" viewBox="0 0 24 24" enable-background="new 0 0 24 24" xml:space="preserve">
  <g id="icon">
    <path d="M12,2C6.5,2,2,6.5,2,12s4.5,10,10,10,10,-4.5,10,-10S17.5,2,12,2zm0,18c-4.41,0,-8,-3.59,-8,-8s3.59,-8,8,-8,8,3.59,8,8,-3.59,8,-8,8zm-5,-5h10v2H7zm3.3,-3.8L8.4,9.3,7,10.7l3.3,3.3L17,7.3l-1.4,-1.4z" fill="#212121"/>
  </g>
</svg>
