<?xml version="1.0" encoding="UTF-8"?>
<!DOCTYPE svg PUBLIC "-//W3C//DTD SVG 1.1//EN" "http://www.w3.org/Graphics/SVG/1.1/DTD/svg11.dtd">
<svg version="1.1" id="Layer_1" xmlns="http://www.w3.org/2000/svg" xmlns:xlink="http://www.w3.org/1999/xlink" x="0px" y="0px" width="24px" height="24px" viewBox="0 0 24 24" enable-background="new 0 0 24 24" xml:space="preserve">
  <g id="icon">
    <polygon points="11,9.83 11,14 13,14 13,9.83 14.59,11.41 16,10 12,6 8,10 9.41,11.41" fill="#212121" stroke-linejoin="miter"/>
    <path d="M19,3H5C3.9,3,3,3.9,3,5v14c0,1.1,0.9,2,2,2h14c1.1,0,2,-0.9,2,-2V5C21,3.9,20.1,3,19,3zM19,19H5v-3h3.02c0.91,1.21,2.35,2,3.98,2s3.06,-0.79,3.98,-2H19V19zM19,14h-4.18c-0.41,1.16,-1.51,2,-2.82,2s-2.4,-0.84,-2.82,-2H5V5h14V14z" fill="#212121"/>
  </g>
</svg>
