<?xml version="1.0" encoding="UTF-8"?>
<!DOCTYPE svg PUBLIC "-//W3C//DTD SVG 1.1//EN" "http://www.w3.org/Graphics/SVG/1.1/DTD/svg11.dtd">
<svg version="1.1" id="Layer_1" xmlns="http://www.w3.org/2000/svg" xmlns:xlink="http://www.w3.org/1999/xlink" x="0px" y="0px" width="24px" height="24px" viewBox="0 0 24 24" enable-background="new 0 0 24 24" xml:space="preserve">
  <g id="icon">
    <path d="M12,4c4.41,0,8,3.59,8,8s-3.59,8,-8,8s-8,-3.59,-8,-8S7.59,4,12,4M12,2C6.48,2,2,6.48,2,12c0,5.52,4.48,10,10,10s10,-4.48,10,-10C22,6.48,17.52,2,12,2L12,2zM13.88,11.54l-4.96,4.96l-1.41,-1.41l4.96,-4.96L10.34,8l5.65,0.01L16,13.66L13.88,11.54z" fill="#212121"/>
  </g>
</svg>
