<?xml version="1.0" encoding="UTF-8"?>
<!DOCTYPE svg PUBLIC "-//W3C//DTD SVG 1.1//EN" "http://www.w3.org/Graphics/SVG/1.1/DTD/svg11.dtd">
<svg version="1.1" id="Layer_1" xmlns="http://www.w3.org/2000/svg" xmlns:xlink="http://www.w3.org/1999/xlink" x="0px" y="0px" width="24px" height="24px" viewBox="0 0 24 24" enable-background="new 0 0 24 24" xml:space="preserve">
  <g id="icon">
    <path d="M12,2C6.48,2,2,6.48,2,12c0,5.52,4.48,10,10,10s10,-4.48,10,-10C22,6.48,17.52,2,12,2zM9,12c-0.55,0,-1,-0.45,-1,-1V8c0,-0.55,0.45,-1,1,-1s1,0.45,1,1v3C10,11.55,9.55,12,9,12zM14,18h-4v-2c0,-1.1,0.9,-2,2,-2c1.1,0,2,0.9,2,2V18zM16,11c0,0.55,-0.45,1,-1,1c-0.55,0,-1,-0.45,-1,-1V8c0,-0.55,0.45,-1,1,-1c0.55,0,1,0.45,1,1V11z" fill="#212121"/>
  </g>
</svg>
