<?xml version="1.0" encoding="UTF-8"?>
<!DOCTYPE svg PUBLIC "-//W3C//DTD SVG 1.1//EN" "http://www.w3.org/Graphics/SVG/1.1/DTD/svg11.dtd">
<svg version="1.1" id="Layer_1" xmlns="http://www.w3.org/2000/svg" xmlns:xlink="http://www.w3.org/1999/xlink" x="0px" y="0px" width="24px" height="24px" viewBox="0 0 24 24" enable-background="new 0 0 24 24" xml:space="preserve">
  <g id="icon">
    <polygon points="17,17 22,12 17,7 15.59,8.41 18.17,11 9,11 9,13 18.17,13 15.59,15.59" fill="#212121" stroke-linejoin="miter"/>
    <path d="M19,19H5V5h14v2h2V5c0,-1.1,-0.89,-2,-2,-2H5C3.9,3,3,3.9,3,5v14c0,1.1,0.9,2,2,2h14c1.11,0,2,-0.9,2,-2v-2h-2V19z" fill="#212121"/>
  </g>
</svg>
