<?xml version="1.0" encoding="UTF-8"?>
<!DOCTYPE svg PUBLIC "-//W3C//DTD SVG 1.1//EN" "http://www.w3.org/Graphics/SVG/1.1/DTD/svg11.dtd">
<svg version="1.1" id="Layer_1" xmlns="http://www.w3.org/2000/svg" xmlns:xlink="http://www.w3.org/1999/xlink" x="0px" y="0px" width="24px" height="24px" viewBox="0 0 24 24" enable-background="new 0 0 24 24" xml:space="preserve">
  <g id="icon">
    <path d="M11.49,16c0.88,0,1.7,-0.26,2.39,-0.7l2.44,2.44,1.42,-1.42,-2.44,-2.43c0.44,-0.7,0.7,-1.51,0.7,-2.39C16,9.01,13.99,7,11.5,7S7,9.01,7,11.5,9.01,16,11.49,16zm0.01,-7c1.38,0,2.5,1.12,2.5,2.5S12.88,14,11.5,14,9,12.88,9,11.5,10.12,9,11.5,9zM20,4H4c-1.1,0,-2,0.9,-2,2v12c0,1.1,0.9,2,2,2h16c1.1,0,2,-0.9,2,-2V6c0,-1.1,-0.9,-2,-2,-2zm0,14H4V6h16v12z" fill="#212121"/>
  </g>
</svg>
