<?xml version="1.0" encoding="UTF-8"?>
<!DOCTYPE svg PUBLIC "-//W3C//DTD SVG 1.1//EN" "http://www.w3.org/Graphics/SVG/1.1/DTD/svg11.dtd">
<svg version="1.1" id="Layer_1" xmlns="http://www.w3.org/2000/svg" xmlns:xlink="http://www.w3.org/1999/xlink" x="0px" y="0px" width="24px" height="24px" viewBox="0 0 24 24" enable-background="new 0 0 24 24" xml:space="preserve">
  <g id="icon">
    <path d="M18.89,11.77l-3.8,-1.67C14.96,10.04,14.81,10,14.65,10H14V5.5C14,4.12,12.88,3,11.5,3S9,4.12,9,5.5v8.15l-1.87,-0.4c-0.19,-0.03,-1.02,-0.15,-1.73,0.56L4,15.22l5.12,5.19C9.49,20.79,10,21,10.53,21h6.55c0.98,0,1.81,-0.7,1.97,-1.67l0.92,-5.44C20.12,13.03,19.68,12.17,18.89,11.77zM17.08,19h-6.55l-3.7,-3.78L11,16.11V5.5C11,5.22,11.22,5,11.5,5S12,5.22,12,5.5v6.18h1.76L18,13.56L17.08,19z" fill="#212121"/>
  </g>
</svg>
