<?xml version="1.0" encoding="UTF-8"?>
<!DOCTYPE svg PUBLIC "-//W3C//DTD SVG 1.1//EN" "http://www.w3.org/Graphics/SVG/1.1/DTD/svg11.dtd">
<svg version="1.1" id="Layer_1" xmlns="http://www.w3.org/2000/svg" xmlns:xlink="http://www.w3.org/1999/xlink" x="0px" y="0px" width="24px" height="24px" viewBox="0 0 24 24" enable-background="new 0 0 24 24" xml:space="preserve">
  <g id="icon">
    <path d="M12,2C6.48,2,2,6.48,2,12c0,5.52,4.48,10,10,10s10,-4.48,10,-10C22,6.48,17.52,2,12,2zM7,13.5c-0.83,0,-1.5,-0.67,-1.5,-1.5c0,-0.83,0.67,-1.5,1.5,-1.5s1.5,0.67,1.5,1.5C8.5,12.83,7.83,13.5,7,13.5zM12,13.5c-0.83,0,-1.5,-0.67,-1.5,-1.5c0,-0.83,0.67,-1.5,1.5,-1.5s1.5,0.67,1.5,1.5C13.5,12.83,12.83,13.5,12,13.5zM17,13.5c-0.83,0,-1.5,-0.67,-1.5,-1.5c0,-0.83,0.67,-1.5,1.5,-1.5s1.5,0.67,1.5,1.5C18.5,12.83,17.83,13.5,17,13.5z" fill="#212121"/>
  </g>
</svg>
