<?xml version="1.0" encoding="UTF-8"?>
<!DOCTYPE svg PUBLIC "-//W3C//DTD SVG 1.1//EN" "http://www.w3.org/Graphics/SVG/1.1/DTD/svg11.dtd">
<svg version="1.1" id="Layer_1" xmlns="http://www.w3.org/2000/svg" xmlns:xlink="http://www.w3.org/1999/xlink" x="0px" y="0px" width="24px" height="24px" viewBox="0 0 24 24" enable-background="new 0 0 24 24" xml:space="preserve">
  <g id="icon">
    <path d="M12,2C6.48,2,2,6.48,2,12c0,5.52,4.48,10,10,10s10,-4.48,10,-10C22,6.48,17.52,2,12,2zM12,20c-4.42,0,-8,-3.58,-8,-8c0,-4.42,3.58,-8,8,-8s8,3.58,8,8C20,16.42,16.42,20,12,20z" fill="#212121"/>
    <circle cx="7" cy="12" r="1.5" fill="#212121"/>
    <circle cx="12" cy="12" r="1.5" fill="#212121"/>
    <circle cx="17" cy="12" r="1.5" fill="#212121"/>
  </g>
</svg>
