<?xml version="1.0" encoding="UTF-8"?>
<!DOCTYPE svg PUBLIC "-//W3C//DTD SVG 1.1//EN" "http://www.w3.org/Graphics/SVG/1.1/DTD/svg11.dtd">
<svg version="1.1" id="Layer_1" xmlns="http://www.w3.org/2000/svg" xmlns:xlink="http://www.w3.org/1999/xlink" x="0px" y="0px" width="24px" height="24px" viewBox="0 0 24 24" enable-background="new 0 0 24 24" xml:space="preserve">
  <g id="icon">
    <path d="M7.5,4C5.57,4,4,5.57,4,7.5S5.57,11,7.5,11S11,9.43,11,7.5S9.43,4,7.5,4zM7.5,9C6.67,9,6,8.33,6,7.5S6.67,6,7.5,6S9,6.67,9,7.5S8.33,9,7.5,9zM16.5,13c-1.93,0,-3.5,1.57,-3.5,3.5s1.57,3.5,3.5,3.5s3.5,-1.57,3.5,-3.5S18.43,13,16.5,13zM16.5,18c-0.83,0,-1.5,-0.67,-1.5,-1.5s0.67,-1.5,1.5,-1.5s1.5,0.67,1.5,1.5S17.33,18,16.5,18zM5.41,20L4,18.59L18.59,4L20,5.41L5.41,20z" fill="#212121"/>
  </g>
</svg>
