<?xml version="1.0" encoding="UTF-8"?>
<!DOCTYPE svg PUBLIC "-//W3C//DTD SVG 1.1//EN" "http://www.w3.org/Graphics/SVG/1.1/DTD/svg11.dtd">
<svg version="1.1" id="Layer_1" xmlns="http://www.w3.org/2000/svg" xmlns:xlink="http://www.w3.org/1999/xlink" x="0px" y="0px" width="24px" height="24px" viewBox="0 0 24 24" enable-background="new 0 0 24 24" xml:space="preserve">
  <g id="icon">
    <path d="M12,6c1.1,0,2,0.9,2,2s-0.9,2,-2,2,-2,-0.9,-2,-2,0.9,-2,2,-2m0,9c2.7,0,5.8,1.29,6,2v1H6v-0.99c0.2,-0.72,3.3,-2.01,6,-2.01m0,-11C9.79,4,8,5.79,8,8s1.79,4,4,4,4,-1.79,4,-4,-1.79,-4,-4,-4zm0,9c-2.67,0,-8,1.34,-8,4v3h16v-3c0,-2.66,-5.33,-4,-8,-4z" fill="#212121"/>
  </g>
</svg>
