<?xml version="1.0" encoding="UTF-8"?>
<!DOCTYPE svg PUBLIC "-//W3C//DTD SVG 1.1//EN" "http://www.w3.org/Graphics/SVG/1.1/DTD/svg11.dtd">
<svg version="1.1" id="Layer_1" xmlns="http://www.w3.org/2000/svg" xmlns:xlink="http://www.w3.org/1999/xlink" x="0px" y="0px" width="24px" height="24px" viewBox="0 0 24 24" enable-background="new 0 0 24 24" xml:space="preserve">
  <g id="icon">
    <path d="M20,15.5c-1.25,0,-2.45,-0.2,-3.57,-0.57,-0.35,-0.11,-0.74,-0.03,-1.02,0.24l-2.2,2.2c-2.83,-1.44,-5.15,-3.75,-6.59,-6.58l2.2,-2.21c0.28,-0.27,0.36,-0.66,0.25,-1.01C8.7,6.45,8.5,5.25,8.5,4c0,-0.55,-0.45,-1,-1,-1H4c-0.55,0,-1,0.45,-1,1,0,9.39,7.61,17,17,17,0.55,0,1,-0.45,1,-1v-3.5c0,-0.55,-0.45,-1,-1,-1zM12,3v10l3,-3h6V3h-9z" fill="#212121"/>
  </g>
</svg>
