<?xml version="1.0" encoding="UTF-8"?>
<!DOCTYPE svg PUBLIC "-//W3C//DTD SVG 1.1//EN" "http://www.w3.org/Graphics/SVG/1.1/DTD/svg11.dtd">
<svg version="1.1" id="Layer_1" xmlns="http://www.w3.org/2000/svg" xmlns:xlink="http://www.w3.org/1999/xlink" x="0px" y="0px" width="24px" height="24px" viewBox="0 0 24 24" enable-background="new 0 0 24 24" xml:space="preserve">
  <g id="icon">
    <path d="M2,6H0v5h0.01L0,20c0,1.1,0.9,2,2,2h18v-2H2V6zm5,9h14l-3.5,-4.5,-2.5,3.01L11.5,9zM22,4h-8l-2,-2H6c-1.1,0,-1.99,0.9,-1.99,2L4,16c0,1.1,0.9,2,2,2h16c1.1,0,2,-0.9,2,-2V6c0,-1.1,-0.9,-2,-2,-2zm0,12H6V4h5.17l1.41,1.41,0.59,0.59H22v10z" fill="#212121"/>
  </g>
</svg>
