<?xml version="1.0" encoding="UTF-8"?>
<!DOCTYPE svg PUBLIC "-//W3C//DTD SVG 1.1//EN" "http://www.w3.org/Graphics/SVG/1.1/DTD/svg11.dtd">
<svg version="1.1" id="Layer_1" xmlns="http://www.w3.org/2000/svg" xmlns:xlink="http://www.w3.org/1999/xlink" x="0px" y="0px" width="24px" height="24px" viewBox="0 0 24 24" enable-background="new 0 0 24 24" xml:space="preserve">
  <g id="icon">
    <path d="M12,6c-1.1,0,-2,0.9,-2,2v4c0,1.1,0.9,2,2,2s2,-0.9,2,-2V8c0,-1.1,-0.9,-2,-2,-2zm8,-1h-3.17l-1.86,-2H8.96L7.17,5H4c-1.1,0,-2,0.9,-2,2v12c0,1.1,0.9,2,2,2h16c1.1,0,2,-0.9,2,-2V7c0,-1.1,-0.9,-2,-2,-2zm0,14h-7v-1.09c2.83,-0.48,5,-2.94,5,-5.91h-2c0,2.21,-1.79,4,-4,4s-4,-1.79,-4,-4H6c0,2.97,2.17,5.43,5,5.91V19H4V7h4.21l0.59,-0.65L10.04,5h4.24l1.24,1.35,0.59,0.65H20v12z" fill="#212121"/>
  </g>
</svg>
