<?xml version="1.0" encoding="UTF-8"?>
<!DOCTYPE svg PUBLIC "-//W3C//DTD SVG 1.1//EN" "http://www.w3.org/Graphics/SVG/1.1/DTD/svg11.dtd">
<svg version="1.1" id="Layer_1" xmlns="http://www.w3.org/2000/svg" xmlns:xlink="http://www.w3.org/1999/xlink" x="0px" y="0px" width="24px" height="24px" viewBox="0 0 24 24" enable-background="new 0 0 24 24" xml:space="preserve">
  <g id="icon">
    <path d="M11,7h2v2h-2zm0,4h2v6h-2zm6,-9.99L7,1c-1.1,0,-2,0.9,-2,2v18c0,1.1,0.9,2,2,2h10c1.1,0,2,-0.9,2,-2V3c0,-1.1,-0.9,-1.99,-2,-1.99zM17,21H7v-1h10v1zm0,-3H7V6h10v12zM7,4V3h10v1H7z" fill="#212121"/>
  </g>
</svg>
