<?xml version="1.0" encoding="UTF-8"?>
<!DOCTYPE svg PUBLIC "-//W3C//DTD SVG 1.1//EN" "http://www.w3.org/Graphics/SVG/1.1/DTD/svg11.dtd">
<svg version="1.1" id="Layer_1" xmlns="http://www.w3.org/2000/svg" xmlns:xlink="http://www.w3.org/1999/xlink" x="0px" y="0px" width="24px" height="24px" viewBox="0 0 24 24" enable-background="new 0 0 24 24" xml:space="preserve">
  <g id="icon">
    <path d="M20,12V6H4v12h10l0,2H4c-1.1,0,-2,-0.9,-2,-2V6c0,-1.1,0.9,-2,2,-2h16c1.1,0,2,0.9,2,2v6H20zM19,14c-1.66,0,-3,1.34,-3,3s1.34,3,3,3c1.66,0,3,-1.34,3,-3S20.66,14,19,14zM14.66,8H9v5.66h2v-2.24l2.95,2.95l1.41,-1.41L12.41,10h2.24V8z" fill="#212121"/>
  </g>
</svg>
