<?xml version="1.0" encoding="UTF-8"?>
<!DOCTYPE svg PUBLIC "-//W3C//DTD SVG 1.1//EN" "http://www.w3.org/Graphics/SVG/1.1/DTD/svg11.dtd">
<svg version="1.1" id="Layer_1" xmlns="http://www.w3.org/2000/svg" xmlns:xlink="http://www.w3.org/1999/xlink" x="0px" y="0px" width="24px" height="24px" viewBox="0 0 24 24" enable-background="new 0 0 24 24" xml:space="preserve">
  <g id="icon">
    <path d="M22,12v6c0,1.1,-0.9,2,-2,2H4c-1.1,0,-2,-0.9,-2,-2V6c0,-1.1,0.9,-2,2,-2h10l0,2H4v12h16v-6H22zM22,7c0,-1.66,-1.34,-3,-3,-3c-1.66,0,-3,1.34,-3,3s1.34,3,3,3C20.66,10,22,8.66,22,7zM9.34,12h2.24l-2.95,2.95l1.41,1.41L13,13.42v2.24h2V10H9.34V12z" fill="#212121"/>
  </g>
</svg>
