<?xml version="1.0" encoding="UTF-8"?>
<!DOCTYPE svg PUBLIC "-//W3C//DTD SVG 1.1//EN" "http://www.w3.org/Graphics/SVG/1.1/DTD/svg11.dtd">
<svg version="1.1" id="Layer_1" xmlns="http://www.w3.org/2000/svg" xmlns:xlink="http://www.w3.org/1999/xlink" x="0px" y="0px" width="24px" height="24px" viewBox="0 0 24 24" enable-background="new 0 0 24 24" xml:space="preserve">
  <g id="icon">
    <path d="M6,2.5V1h5v5H9.5V3.56L3.56,9.5H6V11H1V6h1.5v2.44L8.44,2.5H6zM22.98,16.82l-0.63,4.46C22.21,22.27,21.36,23,20.37,23h-6.16c-0.53,0,-1.29,-0.21,-1.66,-0.59L8,17.62l0.83,-0.84c0.24,-0.24,0.58,-0.35,0.92,-0.28L13,17.24V6.5C13,5.67,13.67,5,14.5,5S16,5.67,16,6.5v6h0.91c0.31,0,0.62,0.07,0.89,0.21l4.09,2.04C22.66,15.14,23.1,15.97,22.98,16.82z" fill="#212121"/>
  </g>
</svg>
