<?xml version="1.0" encoding="UTF-8"?>
<!DOCTYPE svg PUBLIC "-//W3C//DTD SVG 1.1//EN" "http://www.w3.org/Graphics/SVG/1.1/DTD/svg11.dtd">
<svg version="1.1" id="Layer_1" xmlns="http://www.w3.org/2000/svg" xmlns:xlink="http://www.w3.org/1999/xlink" x="0px" y="0px" width="24px" height="24px" viewBox="0 0 24 24" enable-background="new 0 0 24 24" xml:space="preserve">
  <g id="icon">
    <path d="M19,3H5C3.89,3,3,3.9,3,5v14c0,1.1,0.89,2,2,2h14c1.1,0,2,-0.9,2,-2V5C21,3.9,20.11,3,19,3zM19,19H5V7h14V19zM13.5,13c0,0.83,-0.67,1.5,-1.5,1.5s-1.5,-0.67,-1.5,-1.5c0,-0.83,0.67,-1.5,1.5,-1.5S13.5,12.17,13.5,13zM12,9c-2.73,0,-5.06,1.66,-6,4c0.94,2.34,3.27,4,6,4s5.06,-1.66,6,-4C17.06,10.66,14.73,9,12,9zM12,15.5c-1.38,0,-2.5,-1.12,-2.5,-2.5c0,-1.38,1.12,-2.5,2.5,-2.5c1.38,0,2.5,1.12,2.5,2.5C14.5,14.38,13.38,15.5,12,15.5z" fill="#212121"/>
  </g>
</svg>
