<?xml version="1.0" encoding="UTF-8"?>
<!DOCTYPE svg PUBLIC "-//W3C//DTD SVG 1.1//EN" "http://www.w3.org/Graphics/SVG/1.1/DTD/svg11.dtd">
<svg version="1.1" id="Layer_1" xmlns="http://www.w3.org/2000/svg" xmlns:xlink="http://www.w3.org/1999/xlink" x="0px" y="0px" width="24px" height="24px" viewBox="0 0 24 24" enable-background="new 0 0 24 24" xml:space="preserve">
  <g id="icon">
    <path d="M19,8h-1V3H6v5H5c-1.66,0,-3,1.34,-3,3v6h4v4h12v-4h4v-6c0,-1.66,-1.34,-3,-3,-3zM8,5h8v3H8V5zm8,12v2H8v-4h8v2zm2,-2v-2H6v2H4v-4c0,-0.55,0.45,-1,1,-1h14c0.55,0,1,0.45,1,1v4h-2z" fill="#212121"/>
    <circle cx="18" cy="11.5" r="1" fill="#212121"/>
  </g>
</svg>
