<?xml version="1.0" encoding="UTF-8"?>
<!DOCTYPE svg PUBLIC "-//W3C//DTD SVG 1.1//EN" "http://www.w3.org/Graphics/SVG/1.1/DTD/svg11.dtd">
<svg version="1.1" id="Layer_1" xmlns="http://www.w3.org/2000/svg" xmlns:xlink="http://www.w3.org/1999/xlink" x="0px" y="0px" width="24px" height="24px" viewBox="0 0 24 24" enable-background="new 0 0 24 24" xml:space="preserve">
  <g id="icon">
    <path d="M13,10h-2V8h2V10zM13,6h-2V1h2V6zM7,18c-1.1,0,-1.99,0.9,-1.99,2S5.9,22,7,22s2,-0.9,2,-2S8.1,18,7,18zM17,18c-1.1,0,-1.99,0.9,-1.99,2s0.89,2,1.99,2s2,-0.9,2,-2S18.1,18,17,18zM8.1,13h7.45c0.75,0,1.41,-0.41,1.75,-1.03L21,4.96L19.25,4l-3.7,7H8.53L4.27,2H1v2h2l3.6,7.59l-1.35,2.44C4.52,15.37,5.48,17,7,17h12v-2H7L8.1,13z" fill="#212121"/>
  </g>
</svg>
