<?xml version="1.0" encoding="UTF-8"?>
<!DOCTYPE svg PUBLIC "-//W3C//DTD SVG 1.1//EN" "http://www.w3.org/Graphics/SVG/1.1/DTD/svg11.dtd">
<svg version="1.1" id="Layer_1" xmlns="http://www.w3.org/2000/svg" xmlns:xlink="http://www.w3.org/1999/xlink" x="0px" y="0px" width="24px" height="24px" viewBox="0 0 24 24" enable-background="new 0 0 24 24" xml:space="preserve">
  <g id="icon">
    <path d="M18.6,19.5H21v2h-6v-6h2v2.73c1.83,-1.47,3,-3.71,3,-6.23c0,-4.07,-3.06,-7.44,-7,-7.93V2.05c5.05,0.5,9,4.76,9,9.95C22,14.99,20.68,17.67,18.6,19.5zM4,12c0,-2.52,1.17,-4.77,3,-6.23V8.5h2v-6H3v2h2.4C3.32,6.33,2,9.01,2,12c0,5.19,3.95,9.45,9,9.95v-2.02C7.06,19.44,4,16.07,4,12zM16.24,8.11l-5.66,5.66l-2.83,-2.83l-1.41,1.41l4.24,4.24l7.07,-7.07L16.24,8.11z" fill="#212121"/>
  </g>
</svg>
