<?xml version="1.0" encoding="UTF-8"?>
<!DOCTYPE svg PUBLIC "-//W3C//DTD SVG 1.1//EN" "http://www.w3.org/Graphics/SVG/1.1/DTD/svg11.dtd">
<svg version="1.1" id="Layer_1" xmlns="http://www.w3.org/2000/svg" xmlns:xlink="http://www.w3.org/1999/xlink" x="0px" y="0px" width="24px" height="24px" viewBox="0 0 24 24" enable-background="new 0 0 24 24" xml:space="preserve">
  <g id="icon">
    <path d="M19.5,3.5L18,2l-1.5,1.5L15,2l-1.5,1.5L12,2l-1.5,1.5L9,2,7.5,3.5,6,2,4.5,3.5,3,2v20l1.5,-1.5L6,22l1.5,-1.5L9,22l1.5,-1.5L12,22l1.5,-1.5L15,22l1.5,-1.5L18,22l1.5,-1.5L21,22V2l-1.5,1.5zM19,19.09H5V4.91h14v14.18zM6,15h12v2H6zm0,-4h12v2H6zm0,-4h12v2H6z" fill="#212121"/>
  </g>
</svg>
