<?xml version="1.0" encoding="UTF-8"?>
<!DOCTYPE svg PUBLIC "-//W3C//DTD SVG 1.1//EN" "http://www.w3.org/Graphics/SVG/1.1/DTD/svg11.dtd">
<svg version="1.1" id="Layer_1" xmlns="http://www.w3.org/2000/svg" xmlns:xlink="http://www.w3.org/1999/xlink" x="0px" y="0px" width="24px" height="24px" viewBox="0 0 24 24" enable-background="new 0 0 24 24" xml:space="preserve">
  <g id="icon">
    <circle cx="9" cy="9" r="4" fill="#212121"/>
    <path d="M9,15c-2.67,0,-8,1.34,-8,4v2h16v-2c0,-2.66,-5.33,-4,-8,-4zm7.76,-9.64l-1.68,1.69c0.84,1.18,0.84,2.71,0,3.89l1.68,1.69c2.02,-2.02,2.02,-5.07,0,-7.27zM20.07,2l-1.63,1.63c2.77,3.02,2.77,7.56,0,10.74L20.07,16c3.9,-3.89,3.91,-9.95,0,-14z" fill="#212121"/>
  </g>
</svg>
