<?xml version="1.0" encoding="UTF-8"?>
<!DOCTYPE svg PUBLIC "-//W3C//DTD SVG 1.1//EN" "http://www.w3.org/Graphics/SVG/1.1/DTD/svg11.dtd">
<svg version="1.1" id="Layer_1" xmlns="http://www.w3.org/2000/svg" xmlns:xlink="http://www.w3.org/1999/xlink" x="0px" y="0px" width="24px" height="24px" viewBox="0 0 24 24" enable-background="new 0 0 24 24" xml:space="preserve">
  <g id="icon">
    <path d="M13.17,4L18,8.83V20H6V4H13.17M14,2H6C4.9,2,4,2.9,4,4v16c0,1.1,0.9,2,2,2h12c1.1,0,2,-0.9,2,-2V8L14,2L14,2zM15,11h-4v1h3c0.55,0,1,0.45,1,1v3c0,0.55,-0.45,1,-1,1h-1v1h-2v-1H9v-2h4v-1h-3c-0.55,0,-1,-0.45,-1,-1v-3c0,-0.55,0.45,-1,1,-1h1V8h2v1h2V11z" fill="#212121"/>
  </g>
</svg>
