<?xml version="1.0" encoding="UTF-8"?>
<!DOCTYPE svg PUBLIC "-//W3C//DTD SVG 1.1//EN" "http://www.w3.org/Graphics/SVG/1.1/DTD/svg11.dtd">
<svg version="1.1" id="Layer_1" xmlns="http://www.w3.org/2000/svg" xmlns:xlink="http://www.w3.org/1999/xlink" x="0px" y="0px" width="24px" height="24px" viewBox="0 0 24 24" enable-background="new 0 0 24 24" xml:space="preserve">
  <g id="icon">
    <path d="M14.73,13.31C15.52,12.24,16,10.93,16,9.5C16,5.91,13.09,3,9.5,3S3,5.91,3,9.5C3,13.09,5.91,16,9.5,16c1.43,0,2.74,-0.48,3.81,-1.27L19.59,21L21,19.59L14.73,13.31zM9.5,14C7.01,14,5,11.99,5,9.5S7.01,5,9.5,5S14,7.01,14,9.5S11.99,14,9.5,14z" fill="#212121"/>
    <polygon points="10.29,8.44 9.5,6 8.71,8.44 6.25,8.44 8.26,10.03 7.49,12.5 9.5,10.97 11.51,12.5 10.74,10.03 12.75,8.44" fill="#212121" stroke-linejoin="miter"/>
  </g>
</svg>
