<?xml version="1.0" encoding="UTF-8"?>
<!DOCTYPE svg PUBLIC "-//W3C//DTD SVG 1.1//EN" "http://www.w3.org/Graphics/SVG/1.1/DTD/svg11.dtd">
<svg version="1.1" id="Layer_1" xmlns="http://www.w3.org/2000/svg" xmlns:xlink="http://www.w3.org/1999/xlink" x="0px" y="0px" width="24px" height="24px" viewBox="0 0 24 24" enable-background="new 0 0 24 24" xml:space="preserve">
  <g id="icon">
    <path d="M21,3H3c-1.1,0,-2,0.9,-2,2v14c0,1.1,0.9,2,2,2h18c1.1,0,2,-0.9,2,-2V5c0,-1.1,-0.9,-2,-2,-2zm0,16.01H3V4.99h18v14.02zM8,16h2.5l1.5,1.5,1.5,-1.5H16v-2.5l1.5,-1.5,-1.5,-1.5V8h-2.5L12,6.5,10.5,8H8v2.5L6.5,12,8,13.5V16zm4,-7c1.66,0,3,1.34,3,3s-1.34,3,-3,3V9z" fill="#212121"/>
  </g>
</svg>
