<?xml version="1.0" encoding="UTF-8"?>
<!DOCTYPE svg PUBLIC "-//W3C//DTD SVG 1.1//EN" "http://www.w3.org/Graphics/SVG/1.1/DTD/svg11.dtd">
<svg version="1.1" id="Layer_1" xmlns="http://www.w3.org/2000/svg" xmlns:xlink="http://www.w3.org/1999/xlink" x="0px" y="0px" width="24px" height="24px" viewBox="0 0 24 24" enable-background="new 0 0 24 24" xml:space="preserve">
  <g id="icon">
    <path d="M7,22h2v2H7zm4,0h2v2h-2zm4,0h2v2h-2zM16,0.01L8,0C6.9,0,6,0.9,6,2v16c0,1.1,0.9,2,2,2h8c1.1,0,2,-0.9,2,-2V2c0,-1.1,-0.9,-1.99,-2,-1.99zM16,18H8v-1h8v1zm0,-3H8V5h8v10zm0,-12H8V2h8v1z" fill="#212121"/>
  </g>
</svg>
