<?xml version="1.0" encoding="UTF-8"?>
<!DOCTYPE svg PUBLIC "-//W3C//DTD SVG 1.1//EN" "http://www.w3.org/Graphics/SVG/1.1/DTD/svg11.dtd">
<svg version="1.1" id="Layer_1" xmlns="http://www.w3.org/2000/svg" xmlns:xlink="http://www.w3.org/1999/xlink" x="0px" y="0px" width="24px" height="24px" viewBox="0 0 24 24" enable-background="new 0 0 24 24" xml:space="preserve">
  <g id="icon">
    <path d="M11,24h2v-2h-2v2zm-4,0h2v-2H7v2zm8,0h2v-2h-2v2zm2.71,-18.29L12,0h-1v7.59L6.41,3,5,4.41,10.59,10,5,15.59,6.41,17,11,12.41V20h1l5.71,-5.71,-4.3,-4.29,4.3,-4.29zM13,3.83l1.88,1.88L13,7.59V3.83zm1.88,10.46L13,16.17v-3.76l1.88,1.88z" fill="#212121"/>
  </g>
</svg>
