<?xml version="1.0" encoding="UTF-8"?>
<!DOCTYPE svg PUBLIC "-//W3C//DTD SVG 1.1//EN" "http://www.w3.org/Graphics/SVG/1.1/DTD/svg11.dtd">
<svg version="1.1" id="Layer_1" xmlns="http://www.w3.org/2000/svg" xmlns:xlink="http://www.w3.org/1999/xlink" x="0px" y="0px" width="24px" height="24px" viewBox="0 0 24 24" enable-background="new 0 0 24 24" xml:space="preserve">
  <g id="icon">
    <path d="M15,9H9c-0.55,0,-1,0.45,-1,1v12c0,0.55,0.45,1,1,1h6c0.55,0,1,-0.45,1,-1V10c0,-0.55,-0.45,-1,-1,-1zm-3,6c-1.1,0,-2,-0.9,-2,-2s0.9,-2,2,-2,2,0.9,2,2,-0.9,2,-2,2zM7.05,6.05l1.41,1.41C9.37,6.56,10.62,6,12,6s2.63,0.56,3.54,1.46l1.41,-1.41C15.68,4.78,13.93,4,12,4s-3.68,0.78,-4.95,2.05zM12,0C8.96,0,6.21,1.23,4.22,3.22l1.41,1.41C7.26,3.01,9.51,2,12,2s4.74,1.01,6.36,2.64l1.41,-1.41C17.79,1.23,15.04,0,12,0z" fill="#212121"/>
  </g>
</svg>
