<?xml version="1.0" encoding="UTF-8"?>
<!DOCTYPE svg PUBLIC "-//W3C//DTD SVG 1.1//EN" "http://www.w3.org/Graphics/SVG/1.1/DTD/svg11.dtd">
<svg version="1.1" id="Layer_1" xmlns="http://www.w3.org/2000/svg" xmlns:xlink="http://www.w3.org/1999/xlink" x="0px" y="0px" width="24px" height="24px" viewBox="0 0 24 24" enable-background="new 0 0 24 24" xml:space="preserve">
  <g id="icon">
    <path d="M20.5,4c-2.61,0.7,-5.67,1,-8.5,1S6.11,4.7,3.5,4L3,6c1.86,0.5,4,0.83,6,1v12h2v-6h2v6h2V7c2,-0.17,4.14,-0.5,6,-1L20.5,4zM12,4c1.1,0,2,-0.9,2,-2s-0.9,-2,-2,-2s-2,0.9,-2,2S10.9,4,12,4zM7,24h2v-2H7V24zM11,24h2v-2h-2V24zM15,24h2v-2h-2V24z" fill="#212121"/>
  </g>
</svg>
