<?xml version="1.0" encoding="UTF-8"?>
<!DOCTYPE svg PUBLIC "-//W3C//DTD SVG 1.1//EN" "http://www.w3.org/Graphics/SVG/1.1/DTD/svg11.dtd">
<svg version="1.1" id="Layer_1" xmlns="http://www.w3.org/2000/svg" xmlns:xlink="http://www.w3.org/1999/xlink" x="0px" y="0px" width="24px" height="24px" viewBox="0 0 24 24" enable-background="new 0 0 24 24" xml:space="preserve">
  <g id="icon">
    <path d="M14,12c0,-1.1,-0.9,-2,-2,-2s-2,0.9,-2,2,0.9,2,2,2,2,-0.9,2,-2zm-2,-9c-4.97,0,-9,4.03,-9,9H0l4,4,4,-4H5c0,-3.87,3.13,-7,7,-7s7,3.13,7,7,-3.13,7,-7,7c-1.51,0,-2.91,-0.49,-4.06,-1.3l-1.42,1.44C8.04,20.3,9.94,21,12,21c4.97,0,9,-4.03,9,-9s-4.03,-9,-9,-9z" fill="#212121"/>
  </g>
</svg>
