<?xml version="1.0" encoding="UTF-8"?>
<!DOCTYPE svg PUBLIC "-//W3C//DTD SVG 1.1//EN" "http://www.w3.org/Graphics/SVG/1.1/DTD/svg11.dtd">
<svg version="1.1" id="Layer_1" xmlns="http://www.w3.org/2000/svg" xmlns:xlink="http://www.w3.org/1999/xlink" x="0px" y="0px" width="24px" height="24px" viewBox="0 0 24 24" enable-background="new 0 0 24 24" xml:space="preserve">
  <g id="icon">
    <path d="M18,6h-2c0,-2.21,-1.79,-4,-4,-4S8,3.79,8,6H6C4.9,6,4,6.9,4,8v12c0,1.1,0.9,2,2,2h12c1.1,0,2,-0.9,2,-2V8C20,6.9,19.1,6,18,6zM12,4c1.1,0,2,0.9,2,2h-4C10,4.9,10.9,4,12,4zM18,20H6V8h2v2c0,0.55,0.45,1,1,1s1,-0.45,1,-1V8h4v2c0,0.55,0.45,1,1,1s1,-0.45,1,-1V8h2V20z" fill="#212121"/>
  </g>
</svg>
