<?xml version="1.0" encoding="UTF-8"?>
<!DOCTYPE svg PUBLIC "-//W3C//DTD SVG 1.1//EN" "http://www.w3.org/Graphics/SVG/1.1/DTD/svg11.dtd">
<svg version="1.1" id="Layer_1" xmlns="http://www.w3.org/2000/svg" xmlns:xlink="http://www.w3.org/1999/xlink" x="0px" y="0px" width="24px" height="24px" viewBox="0 0 24 24" enable-background="new 0 0 24 24" xml:space="preserve">
  <g id="icon">
    <path d="M3,9H1v11c0,1.11,0.89,2,2,2h16v-2H3V9z" fill="#212121"/>
    <path d="M18,5V3c0,-1.11,-0.89,-2,-2,-2h-4c-1.11,0,-2,0.89,-2,2v2H5v11c0,1.11,0.89,2,2,2h14c1.11,0,2,-0.89,2,-2V5H18zM12,3h4v2h-4V3zM21,16H7V7h14V16z" fill="#212121"/>
    <polygon points="12,8 12,15 17.5,11.5" fill="#212121" stroke-linejoin="miter"/>
  </g>
</svg>
