<?xml version="1.0" encoding="UTF-8"?>
<!DOCTYPE svg PUBLIC "-//W3C//DTD SVG 1.1//EN" "http://www.w3.org/Graphics/SVG/1.1/DTD/svg11.dtd">
<svg version="1.1" id="Layer_1" xmlns="http://www.w3.org/2000/svg" xmlns:xlink="http://www.w3.org/1999/xlink" x="0px" y="0px" width="24px" height="24px" viewBox="0 0 24 24" enable-background="new 0 0 24 24" xml:space="preserve">
  <g id="icon">
    <path d="M22,9v6c0,1.1,-0.9,2,-2,2h-1l0,-2h1V9H4v6h6v2H4c-1.1,0,-2,-0.9,-2,-2V9c0,-1.1,0.9,-2,2,-2h16C21.1,7,22,7.9,22,9zM14.5,19l1.09,-2.41L18,15.5l-2.41,-1.09L14.5,12l-1.09,2.41L11,15.5l2.41,1.09L14.5,19zM17,14l0.62,-1.38L19,12l-1.38,-0.62L17,10l-0.62,1.38L15,12l1.38,0.62L17,14zM14.5,19l1.09,-2.41L18,15.5l-2.41,-1.09L14.5,12l-1.09,2.41L11,15.5l2.41,1.09L14.5,19zM17,14l0.62,-1.38L19,12l-1.38,-0.62L17,10l-0.62,1.38L15,12l1.38,0.62L17,14z" fill="#212121"/>
  </g>
</svg>
