<?xml version="1.0" encoding="UTF-8"?>
<!DOCTYPE svg PUBLIC "-//W3C//DTD SVG 1.1//EN" "http://www.w3.org/Graphics/SVG/1.1/DTD/svg11.dtd">
<svg version="1.1" id="Layer_1" xmlns="http://www.w3.org/2000/svg" xmlns:xlink="http://www.w3.org/1999/xlink" x="0px" y="0px" width="24px" height="24px" viewBox="0 0 24 24" enable-background="new 0 0 24 24" xml:space="preserve">
  <g id="icon">
    <path d="M20,2H4c-1.1,0,-1.99,0.9,-1.99,2L2,22l4,-4h14c1.1,0,2,-0.9,2,-2V4c0,-1.1,-0.9,-2,-2,-2zm0,14H5.17l-0.59,0.59,-0.58,0.58V4h16v12zM6,12h2v2H6zm0,-3h2v2H6zm0,-3h2v2H6zm4,6h5v2h-5zm0,-3h8v2h-8zm0,-3h8v2h-8z" fill="#212121"/>
  </g>
</svg>
