<?xml version="1.0" encoding="UTF-8"?>
<!DOCTYPE svg PUBLIC "-//W3C//DTD SVG 1.1//EN" "http://www.w3.org/Graphics/SVG/1.1/DTD/svg11.dtd">
<svg version="1.1" id="Layer_1" xmlns="http://www.w3.org/2000/svg" xmlns:xlink="http://www.w3.org/1999/xlink" x="0px" y="0px" width="24px" height="24px" viewBox="0 0 24 24" enable-background="new 0 0 24 24" xml:space="preserve">
  <g id="icon">
    <path d="M20,4v12h-1.34l1.91,1.91C21.39,17.66,22,16.9,22,16V4c0,-1.1,-0.9,-2,-2,-2H4.66l2,2H20zM6,12h2v2H6zm12,-3h-6.34l2,2H18zm0,-3h-8v1.34l0.66,0.66H18zM1.41,1.59L0,3l2.01,2.01L2,22l4,-4h9l5.73,5.73,1.41,-1.41L1.41,1.59zM5.17,16L4,17.17V7l2,2v2h2l5,5H5.17z" fill="#212121"/>
  </g>
</svg>
