<?xml version="1.0" encoding="UTF-8"?>
<!DOCTYPE svg PUBLIC "-//W3C//DTD SVG 1.1//EN" "http://www.w3.org/Graphics/SVG/1.1/DTD/svg11.dtd">
<svg version="1.1" id="Layer_1" xmlns="http://www.w3.org/2000/svg" xmlns:xlink="http://www.w3.org/1999/xlink" x="0px" y="0px" width="24px" height="24px" viewBox="0 0 24 24" enable-background="new 0 0 24 24" xml:space="preserve">
  <g id="icon">
    <path d="M11.99,2C6.47,2,2,6.48,2,12s4.47,10,9.99,10C17.52,22,22,17.52,22,12S17.52,2,11.99,2zm7.48,7.16l-5.01,-0.43,-2,-4.71c3.21,0.19,5.91,2.27,7.01,5.14zm-5.07,6.26L12,13.98l-2.39,1.44,0.63,-2.72,-2.11,-1.83,2.78,-0.24L12,8.06l1.09,2.56,2.78,0.24,-2.11,1.83,0.64,2.73zm-2.86,-11.4l-2,4.72,-5.02,0.43c1.1,-2.88,3.8,-4.97,7.02,-5.15zM4,12c0,-0.64,0.08,-1.26,0.23,-1.86l3.79,3.28,-1.11,4.75C5.13,16.7,4,14.48,4,12zm3.84,6.82L12,16.31l4.16,2.5c-1.22,0.75,-2.64,1.19,-4.17,1.19,-1.52,0,-2.94,-0.44,-4.15,-1.18zm9.25,-0.65l-1.11,-4.75,3.79,-3.28c0.14,0.59,0.23,1.22,0.23,1.86,0,2.48,-1.14,4.7,-2.91,6.17z" fill="#212121"/>
  </g>
</svg>
