<?xml version="1.0" encoding="UTF-8"?>
<!DOCTYPE svg PUBLIC "-//W3C//DTD SVG 1.1//EN" "http://www.w3.org/Graphics/SVG/1.1/DTD/svg11.dtd">
<svg version="1.1" id="Layer_1" xmlns="http://www.w3.org/2000/svg" xmlns:xlink="http://www.w3.org/1999/xlink" x="0px" y="0px" width="24px" height="24px" viewBox="0 0 24 24" enable-background="new 0 0 24 24" xml:space="preserve">
  <g id="icon">
    <path d="M20,4H6.83l8,8H20v2h-3.17l4.93,4.93C21.91,18.65,22,18.34,22,18V6C22,4.9,21.1,4,20,4z" fill="#212121"/>
    <path d="M1.04,3.87l1.2,1.2C2.09,5.35,2,5.66,2,6v12c0,1.1,0.9,2,2,2h13.17l2.96,2.96l1.41,-1.41L2.45,2.45L1.04,3.87zM8,12v2H4v-2H8zM14,16.83V18H4v-2h9.17L14,16.83z" fill="#212121"/>
  </g>
</svg>
