<?xml version="1.0" encoding="UTF-8"?>
<!DOCTYPE svg PUBLIC "-//W3C//DTD SVG 1.1//EN" "http://www.w3.org/Graphics/SVG/1.1/DTD/svg11.dtd">
<svg version="1.1" id="Layer_1" xmlns="http://www.w3.org/2000/svg" xmlns:xlink="http://www.w3.org/1999/xlink" x="0px" y="0px" width="24px" height="24px" viewBox="0 0 24 24" enable-background="new 0 0 24 24" xml:space="preserve">
  <g id="icon">
    <path d="M7.06,8.94L5,8l2.06,-0.94L8,5l0.94,2.06L11,8L8.94,8.94L8,11L7.06,8.94zM8,21l0.94,-2.06L11,18l-2.06,-0.94L8,15l-0.94,2.06L5,18l2.06,0.94L8,21zM4.37,12.37L3,13l1.37,0.63L5,15l0.63,-1.37L7,13l-1.37,-0.63L5,11L4.37,12.37zM12,12c0,-3.09,1.38,-5.94,3.44,-8L12,4V2h7v7h-2l0,-3.72c-1.8,1.74,-3,4.2,-3,6.72c0,3.32,2.1,6.36,5,7.82L19,22C14.91,20.41,12,16.35,12,12z" fill="#212121"/>
  </g>
</svg>
