<?xml version="1.0" encoding="UTF-8"?>
<!DOCTYPE svg PUBLIC "-//W3C//DTD SVG 1.1//EN" "http://www.w3.org/Graphics/SVG/1.1/DTD/svg11.dtd">
<svg version="1.1" id="Layer_1" xmlns="http://www.w3.org/2000/svg" xmlns:xlink="http://www.w3.org/1999/xlink" x="0px" y="0px" width="24px" height="24px" viewBox="0 0 24 24" enable-background="new 0 0 24 24" xml:space="preserve">
  <g id="icon">
    <path d="M1,9h2V7H1v2zm0,4h2v-2H1v2zm0,-8h2V3c-1.1,0,-2,0.9,-2,2zm8,16h2v-2H9v2zm-8,-4h2v-2H1v2zm2,4v-2H1c0,1.1,0.9,2,2,2zM21,3h-8v6h10V5c0,-1.1,-0.9,-2,-2,-2zm0,14h2v-2h-2v2zM9,5h2V3H9v2zM5,21h2v-2H5v2zM5,5h2V3H5v2zm16,16c1.1,0,2,-0.9,2,-2h-2v2zm0,-8h2v-2h-2v2zm-8,8h2v-2h-2v2zm4,0h2v-2h-2v2z" fill="#212121"/>
  </g>
</svg>
