<?xml version="1.0" encoding="UTF-8"?>
<!DOCTYPE svg PUBLIC "-//W3C//DTD SVG 1.1//EN" "http://www.w3.org/Graphics/SVG/1.1/DTD/svg11.dtd">
<svg version="1.1" id="Layer_1" xmlns="http://www.w3.org/2000/svg" xmlns:xlink="http://www.w3.org/1999/xlink" x="0px" y="0px" width="24px" height="24px" viewBox="0 0 24 24" enable-background="new 0 0 24 24" xml:space="preserve">
  <g id="icon">
    <path d="M19,7H9C7.9,7,7,7.9,7,9v10c0,1.1,0.9,2,2,2h10c1.1,0,2,-0.9,2,-2V9C21,7.9,20.1,7,19,7zM19,9v2H9V9H19zM13,15v-2h2v2H13zM15,17v2h-2v-2H15zM11,15H9v-2h2V15zM17,13h2v2h-2V13zM9,17h2v2H9V17zM17,19v-2h2v2H17zM6,17H5c-1.1,0,-2,-0.9,-2,-2V5c0,-1.1,0.9,-2,2,-2h10c1.1,0,2,0.9,2,2v1h-2V5H5v10h1V17z" fill="#212121"/>
  </g>
</svg>
