<?xml version="1.0" encoding="UTF-8"?>
<!DOCTYPE svg PUBLIC "-//W3C//DTD SVG 1.1//EN" "http://www.w3.org/Graphics/SVG/1.1/DTD/svg11.dtd">
<svg version="1.1" id="Layer_1" xmlns="http://www.w3.org/2000/svg" xmlns:xlink="http://www.w3.org/1999/xlink" x="0px" y="0px" width="24px" height="24px" viewBox="0 0 24 24" enable-background="new 0 0 24 24" xml:space="preserve">
  <g id="icon">
    <path d="M20,4H4C2.89,4,2,4.9,2,6v12c0,1.1,0.89,2,2,2h16c1.1,0,2,-0.9,2,-2V6C22,4.9,21.11,4,20,4zM20,18H4V8h16V18zM18,17h-6v-2h6V17zM7.5,17l-1.41,-1.41L8.67,13l-2.59,-2.59L7.5,9l4,4L7.5,17z" fill="#212121"/>
  </g>
</svg>
