<?xml version="1.0" encoding="UTF-8"?>
<!DOCTYPE svg PUBLIC "-//W3C//DTD SVG 1.1//EN" "http://www.w3.org/Graphics/SVG/1.1/DTD/svg11.dtd">
<svg version="1.1" id="Layer_1" xmlns="http://www.w3.org/2000/svg" xmlns:xlink="http://www.w3.org/1999/xlink" x="0px" y="0px" width="24px" height="24px" viewBox="0 0 24 24" enable-background="new 0 0 24 24" xml:space="preserve">
  <g id="icon">
    <path d="M15,3H6c-0.83,0,-1.54,0.5,-1.84,1.22l-3.02,7.05c-0.09,0.23,-0.14,0.47,-0.14,0.73v2c0,1.1,0.9,2,2,2h6.31l-0.95,4.57,-0.03,0.32c0,0.41,0.17,0.79,0.44,1.06L9.83,23l6.59,-6.59c0.36,-0.36,0.58,-0.86,0.58,-1.41V5c0,-1.1,-0.9,-2,-2,-2zm4,0v12h4V3h-4z" fill="#212121"/>
  </g>
</svg>
