<?xml version="1.0" encoding="UTF-8"?>
<!DOCTYPE svg PUBLIC "-//W3C//DTD SVG 1.1//EN" "http://www.w3.org/Graphics/SVG/1.1/DTD/svg11.dtd">
<svg version="1.1" id="Layer_1" xmlns="http://www.w3.org/2000/svg" xmlns:xlink="http://www.w3.org/1999/xlink" x="0px" y="0px" width="24px" height="24px" viewBox="0 0 24 24" enable-background="new 0 0 24 24" xml:space="preserve">
  <g id="icon">
    <path d="M12,6c0,-0.55,-0.45,-1,-1,-1H5.82l0.66,-3.18,0.02,-0.23c0,-0.31,-0.13,-0.59,-0.33,-0.8L5.38,0,0.44,4.94C0.17,5.21,0,5.59,0,6v6.5c0,0.83,0.67,1.5,1.5,1.5h6.75c0.62,0,1.15,-0.38,1.38,-0.91l2.26,-5.29c0.07,-0.17,0.11,-0.36,0.11,-0.55V6zm10.5,4h-6.75c-0.62,0,-1.15,0.38,-1.38,0.91l-2.26,5.29c-0.07,0.17,-0.11,0.36,-0.11,0.55V18c0,0.55,0.45,1,1,1h5.18l-0.66,3.18,-0.02,0.24c0,0.31,0.13,0.59,0.33,0.8l0.79,0.78,4.94,-4.94c0.27,-0.27,0.44,-0.65,0.44,-1.06v-6.5c0,-0.83,-0.67,-1.5,-1.5,-1.5z" fill="#212121"/>
  </g>
</svg>
