<?xml version="1.0" encoding="UTF-8"?>
<!DOCTYPE svg PUBLIC "-//W3C//DTD SVG 1.1//EN" "http://www.w3.org/Graphics/SVG/1.1/DTD/svg11.dtd">
<svg version="1.1" id="Layer_1" xmlns="http://www.w3.org/2000/svg" xmlns:xlink="http://www.w3.org/1999/xlink" x="0px" y="0px" width="24px" height="24px" viewBox="0 0 24 24" enable-background="new 0 0 24 24" xml:space="preserve">
  <g id="icon">
    <path d="M9,21h9c0.83,0,1.54,-0.5,1.84,-1.22l3.02,-7.05c0.09,-0.23,0.14,-0.47,0.14,-0.73v-2c0,-1.1,-0.9,-2,-2,-2h-6.31l0.95,-4.57,0.03,-0.32c0,-0.41,-0.17,-0.79,-0.44,-1.06L14.17,1,7.58,7.59C7.22,7.95,7,8.45,7,9v10c0,1.1,0.9,2,2,2zM9,9l4.34,-4.34L12,10h9v2l-3,7H9V9zM1,9h4v12H1z" fill="#212121"/>
  </g>
</svg>
