<?xml version="1.0" encoding="UTF-8"?>
<!DOCTYPE svg PUBLIC "-//W3C//DTD SVG 1.1//EN" "http://www.w3.org/Graphics/SVG/1.1/DTD/svg11.dtd">
<svg version="1.1" id="Layer_1" xmlns="http://www.w3.org/2000/svg" xmlns:xlink="http://www.w3.org/1999/xlink" x="0px" y="0px" width="24px" height="24px" viewBox="0 0 24 24" enable-background="new 0 0 24 24" xml:space="preserve">
  <g id="icon">
    <path d="M15,4c-4.42,0,-8,3.58,-8,8s3.58,8,8,8,8,-3.58,8,-8,-3.58,-8,-8,-8zm0,14c-3.31,0,-6,-2.69,-6,-6s2.69,-6,6,-6,6,2.69,6,6,-2.69,6,-6,6zM3,12c0,-2.61,1.67,-4.83,4,-5.65V4.26C3.55,5.15,1,8.27,1,12s2.55,6.85,6,7.74v-2.09c-2.33,-0.82,-4,-3.04,-4,-5.65z" fill="#212121"/>
  </g>
</svg>
