<?xml version="1.0" encoding="UTF-8"?>
<!DOCTYPE svg PUBLIC "-//W3C//DTD SVG 1.1//EN" "http://www.w3.org/Graphics/SVG/1.1/DTD/svg11.dtd">
<svg version="1.1" id="Layer_1" xmlns="http://www.w3.org/2000/svg" xmlns:xlink="http://www.w3.org/1999/xlink" x="0px" y="0px" width="24px" height="24px" viewBox="0 0 24 24" enable-background="new 0 0 24 24" xml:space="preserve">
  <g id="icon">
    <path d="M21,4h-8h-1H7V2H5v2v10v8h2v-8h4h1h9l-2,-5L21,4zM17.14,9.74l0.9,2.26H12h-1H7V6h5h1h5.05l-0.9,2.26L16.85,9L17.14,9.74zM14,9c0,1.1,-0.9,2,-2,2s-2,-0.9,-2,-2s0.9,-2,2,-2S14,7.9,14,9z" fill="#212121"/>
  </g>
</svg>
