<?xml version="1.0" encoding="UTF-8"?>
<!DOCTYPE svg PUBLIC "-//W3C//DTD SVG 1.1//EN" "http://www.w3.org/Graphics/SVG/1.1/DTD/svg11.dtd">
<svg version="1.1" id="Layer_1" xmlns="http://www.w3.org/2000/svg" xmlns:xlink="http://www.w3.org/1999/xlink" x="0px" y="0px" width="24px" height="24px" viewBox="0 0 24 24" enable-background="new 0 0 24 24" xml:space="preserve">
  <g id="icon">
    <path d="M11,8v5l4.25,2.52l0.77,-1.28l-3.52,-2.09V8H11zM21,10V3l-2.64,2.64C16.74,4.01,14.49,3,12,3c-4.97,0,-9,4.03,-9,9s4.03,9,9,9s9,-4.03,9,-9h-2c0,3.86,-3.14,7,-7,7s-7,-3.14,-7,-7s3.14,-7,7,-7c1.93,0,3.68,0.79,4.95,2.05L14,10H21z" fill="#212121"/>
  </g>
</svg>
