<?xml version="1.0" encoding="UTF-8"?>
<!DOCTYPE svg PUBLIC "-//W3C//DTD SVG 1.1//EN" "http://www.w3.org/Graphics/SVG/1.1/DTD/svg11.dtd">
<svg version="1.1" id="Layer_1" xmlns="http://www.w3.org/2000/svg" xmlns:xlink="http://www.w3.org/1999/xlink" x="0px" y="0px" width="24px" height="24px" viewBox="0 0 24 24" enable-background="new 0 0 24 24" xml:space="preserve">
  <g id="icon">
    <path d="M19,13H5c-1.1,0,-2,0.9,-2,2v4c0,1.1,0.9,2,2,2h14c1.1,0,2,-0.9,2,-2v-4C21,13.9,20.1,13,19,13z" fill="#212121"/>
    <path d="M19,3H5C3.9,3,3,3.9,3,5v4c0,1.1,0.9,2,2,2h14c1.1,0,2,-0.9,2,-2V5C21,3.9,20.1,3,19,3z" fill="#212121"/>
  </g>
</svg>
