<?xml version="1.0" encoding="UTF-8"?>
<!DOCTYPE svg PUBLIC "-//W3C//DTD SVG 1.1//EN" "http://www.w3.org/Graphics/SVG/1.1/DTD/svg11.dtd">
<svg version="1.1" id="Layer_1" xmlns="http://www.w3.org/2000/svg" xmlns:xlink="http://www.w3.org/1999/xlink" x="0px" y="0px" width="24px" height="24px" viewBox="0 0 24 24" enable-background="new 0 0 24 24" xml:space="preserve">
  <g id="icon">
    <path d="M4,19V8h16v3.29c0.72,0.22,1.4,0.54,2,0.97V8c0,-1.11,-0.89,-2,-2,-2h-4V4c0,-1.11,-0.89,-2,-2,-2h-4C8.89,2,8,2.89,8,4v2H4C2.89,6,2.01,6.89,2.01,8L2,19c0,1.11,0.89,2,2,2h7.68c-0.3,-0.62,-0.5,-1.29,-0.6,-2H4zM10,4h4v2h-4V4z" fill="#212121"/>
    <path d="M18,13c-2.76,0,-5,2.24,-5,5s2.24,5,5,5s5,-2.24,5,-5S20.76,13,18,13zM19.65,20.35l-2.15,-2.15V15h1v2.79l1.85,1.85L19.65,20.35z" fill="#212121"/>
  </g>
</svg>
