<?xml version="1.0" encoding="UTF-8" standalone="no"?>
<!DOCTYPE svg PUBLIC "-//W3C//DTD SVG 1.1//EN" "http://www.w3.org/Graphics/SVG/1.1/DTD/svg11.dtd">
<svg width="100%" height="100%" viewBox="0 0 24 24" version="1.1" xmlns="http://www.w3.org/2000/svg" xmlns:xlink="http://www.w3.org/1999/xlink" xml:space="preserve" xmlns:serif="http://www.serif.com/" style="fill-rule:evenodd;clip-rule:evenodd;stroke-linecap:round;stroke-linejoin:round;stroke-miterlimit:1.5;">
    <g transform="matrix(0.0531621,0,2.53229e-18,0.0457007,-0.359102,0.270104)">
        <path d="M129.252,47.743L129.252,91.803C129.252,96.951 132.844,101.13 137.269,101.13L153.304,101.13C157.729,101.13 161.322,96.951 161.322,91.803L161.322,29.609" style="fill:none;stroke:rgb(120,120,120);stroke-width:6.05px;"/>
    </g>
    <g transform="matrix(0.0531621,0,2.53229e-18,0.0457007,8.91162,0.270104)">
        <path d="M129.252,29.609L129.252,91.803C129.252,96.951 132.844,101.13 137.269,101.13L153.304,101.13C157.729,101.13 161.322,96.951 161.322,91.803L161.322,47.41" style="fill:none;stroke:rgb(120,120,120);stroke-width:6.05px;"/>
    </g>
    <g transform="matrix(0.0456177,0,0,0.0456177,0.547839,0.358752)">
        <path d="M384.579,75.021C403.003,75.021 417.962,89.979 417.962,108.404L417.962,345.888C417.962,364.313 403.003,379.271 384.579,379.271L117.514,379.271C99.089,379.271 84.131,364.313 84.131,345.888L84.131,108.404C84.131,89.979 99.089,75.021 117.514,75.021L130.746,75.021L130.746,90.027C130.746,95.184 134.933,99.37 140.09,99.37L158.777,99.37C163.933,99.37 168.12,95.184 168.12,90.027L168.12,75.021L333.973,75.021L333.973,90.027C333.973,95.184 338.159,99.37 343.316,99.37L362.003,99.37C367.16,99.37 371.346,95.184 371.346,90.027L371.346,75.021L384.579,75.021Z" style="fill:none;stroke:rgb(120,120,120);stroke-width:6.58px;"/>
    </g>
    <g transform="matrix(0.0456177,0,0,0.0456177,0.547839,0.358752)">
        <path d="M371.346,75.021L384.579,75.021C403.004,75.021 417.962,89.98 417.962,108.404L417.962,136.371L84.131,136.371L84.131,108.404C84.131,89.98 99.089,75.021 117.514,75.021L130.746,75.021L130.746,90.027C130.746,95.184 134.933,99.37 140.09,99.37L158.777,99.37C163.933,99.37 168.12,95.184 168.12,90.027L168.12,75.021L333.973,75.021L333.973,90.027C333.973,95.184 338.159,99.37 343.316,99.37L362.003,99.37C367.16,99.37 371.346,95.184 371.346,90.027L371.346,75.021Z" style="fill:none;stroke:rgb(120,120,120);stroke-width:6.58px;"/>
    </g>
    <g transform="matrix(0.0453761,2.15442e-17,-2.15442e-17,0.0453761,0.655982,0.471631)">
        <path d="M70.167,408.868C32.732,366.532 10,310.9 10,250C10,117.54 117.54,10 250,10C382.46,10 490,117.54 490,250C490,310.9 467.268,366.532 429.833,408.868" style="fill:none;stroke:rgb(120,120,120);stroke-width:6.61px;"/>
    </g>
    <g transform="matrix(0.114223,0.0189392,-0.0189392,0.114223,5.13473,-29.9379)">
        <circle cx="118.076" cy="439.747" r="8.26" style="fill:rgb(250,145,145);"/>
    </g>
    <g transform="matrix(0.0678609,-0.00982111,0.00982111,0.0678609,1.38828,-6.13308)">
        <circle cx="118.076" cy="439.747" r="8.26" style="fill:rgb(250,145,145);"/>
    </g>
    <g transform="matrix(0.0809911,-0.0375063,0.0375063,0.0809911,-9.42057,-9.58239)">
        <circle cx="118.076" cy="439.747" r="8.26" style="fill:rgb(250,145,145);"/>
    </g>
    <g transform="matrix(0.0634007,0.0290569,-0.0290569,0.0634007,12.3097,-9.82767)">
        <circle cx="118.076" cy="439.747" r="8.26" style="fill:rgb(250,145,145);"/>
    </g>
    <g transform="matrix(0.048,0,0,0.048,0,0)">
        <path d="M341.108,181.272L270.486,181.272L270.486,233.986L305.637,233.986" style="fill:none;stroke:rgb(250,145,145);stroke-width:6.25px;"/>
    </g>
    <g transform="matrix(0.0497288,0,0,0.0497288,-0.403416,-1.7642)">
        <path d="M302.358,261.328C325.125,261.328 343.608,279.811 343.608,302.578C343.608,325.344 325.125,343.828 302.358,343.828C279.592,343.828 261.108,325.344 261.108,302.578" style="fill:none;stroke:rgb(250,145,145);stroke-width:6.03px;"/>
    </g>
    <g transform="matrix(-0.0111532,-0.0416242,0.0416242,-0.0111532,-0.199158,26.426)">
        <path d="M309.687,261.978C328.963,265.44 343.608,282.312 343.608,302.578C343.608,325.344 325.125,343.828 302.358,343.828C291.648,343.828 281.176,341.295 271.16,331.543C263.146,323.74 203.702,235.774 203.702,235.774L181.193,319.779" style="fill:none;stroke:rgb(250,145,145);stroke-width:6.96px;"/>
    </g>
</svg>
