<?xml version="1.0" encoding="UTF-8" standalone="no"?>
<!DOCTYPE svg PUBLIC "-//W3C//DTD SVG 1.1//EN" "http://www.w3.org/Graphics/SVG/1.1/DTD/svg11.dtd">
<svg width="100%" height="100%" viewBox="0 0 24 24" version="1.1" xmlns="http://www.w3.org/2000/svg" xmlns:xlink="http://www.w3.org/1999/xlink" xml:space="preserve" xmlns:serif="http://www.serif.com/" style="fill-rule:evenodd;clip-rule:evenodd;stroke-linecap:round;stroke-linejoin:round;stroke-miterlimit:1.5;">
    <g transform="matrix(0.048,2.71946e-17,-2.71946e-17,0.048,-1.43504e-08,-5.65543e-07)">
        <path d="M70.167,408.868C32.732,366.532 10,310.9 10,250C10,117.54 117.54,10 250,10C382.46,10 490,117.54 490,250C490,310.9 467.268,366.532 429.833,408.868" style="fill:none;stroke:rgb(120,120,120);stroke-width:6.25px;"/>
    </g>
    <g transform="matrix(0.048,0,0,0.048,0,0)">
        <path d="M241.982,55.919C242.226,55.76 242.474,55.608 242.725,55.463L242.789,55.426C245.395,53.933 248.24,53.225 251.046,53.228C253.853,53.225 256.697,53.933 259.303,55.426L259.368,55.463C260.066,55.866 260.737,56.322 261.374,56.828C260.424,59.402 259.368,61.713 259.368,61.713C261.227,61.713 262.934,60.893 264.093,59.555C264.614,60.216 265.081,60.914 265.492,61.64L427.56,342.351C428.352,343.703 428.958,345.177 429.342,346.738L429.352,346.775C429.669,348.074 429.824,349.393 429.824,350.703L429.824,350.776C429.822,351.421 429.783,352.056 429.708,352.681C429.483,352.9 429.352,353.025 429.352,353.025L429.667,353.016C429.525,354.037 429.291,355.028 428.971,355.981C427.264,353.906 423.581,349.57 423.574,350.702L428.941,356.07C428.858,356.316 428.769,356.56 428.674,356.801C427.527,356.501 425.78,355.813 424.66,354.294C424.489,354.044 424.337,353.782 424.206,353.511C423.921,352.962 423.716,352.325 423.629,351.589L423.574,350.702C423.574,349.888 423.478,349.068 423.281,348.261L428.882,352.655L423.277,348.246L424.451,349.164L423.275,348.237L423.478,348.396L423.275,348.237L429.342,352.988L423.274,348.234C423.035,347.264 422.658,346.348 422.166,345.507L260.053,64.718C259.539,63.81 258.884,62.973 258.097,62.243C258.096,62.243 258.095,62.242 258.094,62.241C257.525,61.713 256.903,61.257 256.243,60.876C257.193,61.425 258.271,61.713 259.368,61.713L258.95,61.6C258.218,61.44 256.576,61.065 256.219,60.862L256.617,60.967L256.21,60.857L257.088,61.092L256.2,60.852L259.016,61.601L258.454,61.45L256.196,60.849C254.573,59.919 252.802,59.476 251.054,59.478C251.049,59.478 251.044,59.478 251.038,59.478C249.29,59.476 247.52,59.919 245.896,60.849L245.849,60.876C245.189,61.257 244.568,61.713 243.999,62.241C243.998,62.242 243.997,62.243 243.996,62.244C243.209,62.973 242.554,63.81 242.04,64.718L79.926,345.507C79.434,346.348 79.058,347.264 78.818,348.234L78.812,348.261C78.614,349.068 78.518,349.888 78.518,350.702L78.518,350.729C78.519,350.774 78.513,350.822 78.519,350.825C78.537,352.699 79.053,354.456 79.943,355.966C79.946,355.971 79.949,355.975 79.951,355.98C80.788,357.407 81.979,358.65 83.484,359.567C83.487,359.568 83.49,359.57 83.493,359.572C84.416,360.136 85.435,360.56 86.519,360.813L86.648,360.842C87.38,361.004 88.122,361.082 88.859,361.082L88.728,361.085L88.878,361.082L413.213,361.082C409.199,361.095 409.2,364.214 410.207,367.332L95.128,367.332C95.128,363.881 92.331,361.083 88.881,361.082C89.348,361.084 89.605,361.715 89.722,362.693C90.84,363.921 91.458,365.582 91.335,367.332L88.859,367.332C87.619,367.332 86.372,367.194 85.142,366.909L85.101,366.9C84.349,366.725 83.617,366.499 82.909,366.222L82.807,365.766C82.775,365.892 82.746,366.02 82.721,366.149C81.853,365.805 81.021,365.386 80.233,364.904C77.816,363.432 75.904,361.433 74.56,359.141C73.459,357.274 72.713,355.173 72.416,352.932L72.606,352.984L72.706,352.977L72.412,352.9L72.359,352.471L72.352,352.392L72.681,352.924L72.72,352.98C72.67,352.898 72.541,352.685 72.351,352.379C72.298,351.852 72.27,351.317 72.268,350.776L72.268,350.703C72.268,349.393 72.423,348.074 72.741,346.775L72.75,346.738C73.135,345.177 73.741,343.703 74.532,342.351L236.601,61.64C237.325,60.36 238.224,59.167 239.288,58.103C239.681,58.617 240.098,59.097 240.502,59.53C241.546,60.651 242.501,61.446 242.733,61.634L242.733,61.631C242.496,61.438 241.543,60.645 240.502,59.53C240.099,59.097 239.682,58.616 239.289,58.102L239.748,57.659C240.442,57.016 241.184,56.439 241.964,55.93C242.449,58.665 242.751,61.365 242.783,61.653L242.787,61.67C242.771,61.513 242.473,58.733 241.982,55.919ZM414.691,361.09L415.574,360.813C416.658,360.56 417.677,360.136 418.6,359.572C418.603,359.57 418.606,359.568 418.609,359.567C420.114,358.65 421.305,357.407 422.141,355.98C422.144,355.975 422.147,355.971 422.149,355.966C423.051,354.437 423.568,352.657 423.574,350.756L423.587,351.153C423.653,352.472 424.069,353.498 424.66,354.294C424.875,354.613 425.122,354.912 425.398,355.189C426.285,356.079 427.413,356.674 428.629,356.91C428.32,357.685 427.952,358.43 427.533,359.141C426.189,361.433 424.277,363.432 421.86,364.904C420.385,365.806 418.759,366.484 417.029,366.891C416.966,364.704 416.783,362.533 416.34,361.472L416.336,361.463L416.276,361.326L416.179,361.151L416.074,361.008L415.999,360.934L415.979,360.918L415.961,360.902L415.943,360.891L415.922,360.875L415.851,360.838C415.822,360.825 415.792,360.815 415.762,360.809L415.756,360.808L415.712,360.802L415.68,360.802L415.762,360.809L415.841,360.832L415.943,360.891L415.979,360.918L416.073,361.01L416.199,361.187L416.34,361.472C416.772,362.514 416.955,364.627 417.018,366.773L417.018,366.893L416.951,366.909C415.72,367.193 414.473,367.332 413.233,367.332L410.718,367.332C410.567,365.157 411.561,363.123 413.234,361.885L413.234,361.082C414.005,361.082 414.78,360.996 415.545,360.82L414.894,361.004L414.691,361.09L414.566,361.129L414.372,361.223L414.238,361.279C413.882,361.451 413.546,361.654 413.234,361.885L413.234,362.012C413.452,361.778 413.72,361.567 414.043,361.383L414.372,361.223L414.691,361.09ZM415.66,360.802L415.667,360.801L415.68,360.802L415.66,360.802L415.575,360.813L415.576,360.813C415.604,360.806 415.632,360.802 415.66,360.802ZM423.285,348.277C423.593,349.491 429.029,352.826 429.337,353.014L429.352,353.025C426.478,353.025 423.975,351.066 423.285,348.277ZM72.741,353.023L72.606,352.984L72.582,352.983L72.741,353.023ZM72.724,352.987L72.743,353.018L72.724,352.987ZM242.741,61.704L242.738,61.675L242.706,61.675L242.741,61.704ZM259.352,61.704L259.033,61.618L259.352,61.704ZM242.851,61.674L242.741,61.704L242.851,61.674ZM242.733,61.631L242.785,61.675L242.783,61.653L242.701,61.343L242.733,61.631Z" style="fill:rgb(250,145,145);"/>
    </g>
    <g transform="matrix(0.0611468,0,0,0.0611468,-3.63092,-3.20432)">
        <path d="M265.792,160.086C265.792,157.282 263.515,155.005 260.711,155.005L250.548,155.005C247.744,155.005 245.467,157.282 245.467,160.086L245.467,266.542C245.467,269.346 247.744,271.623 250.548,271.623L260.711,271.623C263.515,271.623 265.792,269.346 265.792,266.542L265.792,160.086Z" style="fill:none;stroke:rgb(120,120,120);stroke-width:4.91px;"/>
    </g>
    <g transform="matrix(0.0611468,0,0,0.0611468,-3.90087,-2.81806)">
        <circle cx="260.044" cy="297.376" r="14.577" style="fill:none;stroke:rgb(120,120,120);stroke-width:4.91px;"/>
    </g>
    <g transform="matrix(0.122478,2.99984e-17,-2.99984e-17,0.122478,-7.40142,-32.2707)">
        <circle cx="118.076" cy="439.747" r="8.26" style="fill:rgb(250,145,145);"/>
    </g>
    <g transform="matrix(0.0725329,1.77654e-17,-1.77654e-17,0.0725329,6.51308,-9.84261)">
        <circle cx="118.076" cy="439.747" r="8.26" style="fill:rgb(250,145,145);"/>
    </g>
    <g transform="matrix(0.0944153,2.31251e-17,-2.31251e-17,0.0944153,7.1456,-20.2452)">
        <circle cx="118.076" cy="439.747" r="8.26" style="fill:rgb(250,145,145);"/>
    </g>
    <g transform="matrix(0.073775,1.80697e-17,-1.80697e-17,0.073775,2.77999,-11.7781)">
        <circle cx="118.076" cy="439.747" r="8.26" style="fill:rgb(250,145,145);"/>
    </g>
</svg>
