<?xml version="1.0" encoding="UTF-8" standalone="no"?>
<!DOCTYPE svg PUBLIC "-//W3C//DTD SVG 1.1//EN" "http://www.w3.org/Graphics/SVG/1.1/DTD/svg11.dtd">
<svg width="100%" height="100%" viewBox="0 0 24 24" version="1.1" xmlns="http://www.w3.org/2000/svg" xmlns:xlink="http://www.w3.org/1999/xlink" xml:space="preserve" xmlns:serif="http://www.serif.com/" style="fill-rule:evenodd;clip-rule:evenodd;stroke-linecap:round;stroke-linejoin:round;stroke-miterlimit:1.5;">
    <g transform="matrix(0.0343072,-0.0343072,0.0343072,0.0343072,-5.63802,11.7376)">
        <path d="M316.148,440.29L170.082,440.29C152.807,440.29 138.782,426.265 138.782,408.99L138.782,231.007C138.782,230.8 138.786,230.592 138.794,230.384C138.613,225.367 140.436,220.291 144.263,216.465L229.874,130.854C233.516,127.211 238.291,125.384 243.069,125.373L243.115,125.373C243.115,125.373 243.161,125.373 243.161,125.373C247.94,125.384 252.714,127.211 256.357,130.854L339.295,213.792L339.313,213.81L339.369,213.866L341.967,216.465C345.889,220.386 347.706,225.62 347.419,230.758C347.439,231.126 347.448,231.495 347.448,231.864L347.448,408.99C347.448,426.265 333.424,440.29 316.148,440.29ZM229.61,160.376C236.586,153.4 247.913,153.4 254.889,160.376C261.865,167.352 261.865,178.679 254.889,185.655C247.913,192.631 236.586,192.631 229.61,185.655C222.634,178.679 222.634,167.352 229.61,160.376Z" style="fill:none;stroke:rgb(120,120,120);stroke-width:6.18px;"/>
    </g>
    <g transform="matrix(0.0455514,0,0,0.0455514,0.641795,0.64806)">
        <path d="M173.615,187.278C173.615,187.278 236.492,76.196 141.948,105.223C70.692,127.1 78.948,96.945 89.615,72.611" style="fill:none;stroke:rgb(185,225,157);stroke-width:6.59px;"/>
    </g>
    <g transform="matrix(0.0277331,0.0277331,-0.0286066,0.0286066,19.4419,0.78757)">
        <path d="M179.492,391.751C167.094,402.001 151.195,408.163 133.868,408.163C94.311,408.163 62.196,376.048 62.196,336.492C62.196,296.935 94.311,264.82 133.868,264.82C151.331,264.82 167.343,271.079 179.783,281.474" style="fill:none;stroke:rgb(120,120,120);stroke-width:7.53px;"/>
    </g>
    <g transform="matrix(0.0322097,0.0322097,-0.0322097,0.0322097,19.8357,-0.33343)">
        <path d="M46.469,307.094L145.287,307.094" style="fill:none;stroke:rgb(120,120,120);stroke-width:6.59px;"/>
    </g>
    <g transform="matrix(0.0322097,0.0322097,-0.0322097,0.0322097,18.9436,0.558675)">
        <path d="M46.469,307.094L132.653,307.094" style="fill:none;stroke:rgb(120,120,120);stroke-width:6.59px;"/>
    </g>
    <g transform="matrix(-0.0320857,-0.0320857,0.0320857,-0.0320857,11.9765,28.0675)">
        <path d="M70.167,408.868C32.732,366.532 10,310.9 10,250C10,117.54 117.54,10 250,10C382.46,10 490,117.54 490,250C490,310.9 467.268,366.532 429.833,408.868" style="fill:none;stroke:rgb(120,120,120);stroke-width:6.61px;"/>
    </g>
    <g transform="matrix(-0.0673757,-0.0941598,0.0941598,-0.0673757,-12.6933,46.4033)">
        <circle cx="118.076" cy="439.747" r="8.26" style="fill:rgb(185,225,157);"/>
    </g>
    <g transform="matrix(-0.0549295,-0.0410403,0.0410403,-0.0549295,6.78842,32.2199)">
        <circle cx="118.076" cy="439.747" r="8.26" style="fill:rgb(185,225,157);"/>
    </g>
    <g transform="matrix(-0.0837903,-0.0307484,0.0307484,-0.0837903,11.9924,42.3019)">
        <circle cx="118.076" cy="439.747" r="8.26" style="fill:rgb(185,225,157);"/>
    </g>
    <g transform="matrix(-0.0242847,-0.0653774,0.0653774,-0.0242847,-3.54667,27.1097)">
        <circle cx="118.076" cy="439.747" r="8.26" style="fill:rgb(185,225,157);"/>
    </g>
</svg>
