<?xml version="1.0" encoding="UTF-8" standalone="no"?>
<!DOCTYPE svg PUBLIC "-//W3C//DTD SVG 1.1//EN" "http://www.w3.org/Graphics/SVG/1.1/DTD/svg11.dtd">
<svg width="100%" height="100%" viewBox="0 0 24 24" version="1.1" xmlns="http://www.w3.org/2000/svg" xmlns:xlink="http://www.w3.org/1999/xlink" xml:space="preserve" xmlns:serif="http://www.serif.com/" style="fill-rule:evenodd;clip-rule:evenodd;stroke-linecap:round;stroke-linejoin:round;stroke-miterlimit:1.5;">
    <g transform="matrix(-0.048,-2.13163e-17,2.13163e-17,-0.048,24,23.9937)">
        <path d="M70.167,408.868C32.732,366.532 10,310.9 10,250C10,117.54 117.54,10 250,10C382.46,10 490,117.54 490,250C490,310.9 467.268,366.532 429.833,408.868" style="fill:none;stroke:rgb(120,120,120);stroke-width:6.25px;"/>
    </g>
    <g transform="matrix(0.0267874,0,0,0.0287647,5.72098,6.56489)">
        <path d="M234.667,0L42.667,80.327L42.667,213.333C42.667,331.84 124.48,442.346 234.667,469.333C344.854,442.346 426.667,331.84 426.667,213.333L426.667,80.327L234.667,0Z" style="fill:none;fill-rule:nonzero;stroke:rgb(120,120,120);stroke-width:10.79px;"/>
    </g>
    <g transform="matrix(0.0439542,0,0,0.0439542,1.01206,1.1223)">
        <path d="M250.148,93.269L99.498,160.224L99.498,260.657C99.498,353.641 163.692,440.348 250.148,461.523C336.605,440.348 400.798,353.641 400.798,260.657L400.798,160.224L250.148,93.269Z" style="fill:none;stroke:rgb(171,196,233);stroke-width:6.83px;"/>
    </g>
    <g transform="matrix(-0.122478,-1.49992e-17,1.49992e-17,-0.122478,31.5019,56.2707)">
        <circle cx="118.076" cy="439.747" r="8.26" style="fill:rgb(171,196,233);"/>
    </g>
    <g transform="matrix(-0.0725329,-8.88272e-18,8.88272e-18,-0.0725329,17.5874,33.8426)">
        <circle cx="118.076" cy="439.747" r="8.26" style="fill:rgb(171,196,233);"/>
    </g>
    <g transform="matrix(-0.0944153,-1.15625e-17,1.15625e-17,-0.0944153,16.9548,44.2452)">
        <circle cx="118.076" cy="439.747" r="8.26" style="fill:rgb(171,196,233);"/>
    </g>
    <g transform="matrix(-0.073775,-9.03483e-18,9.03483e-18,-0.073775,21.3205,35.7781)">
        <circle cx="118.076" cy="439.747" r="8.26" style="fill:rgb(171,196,233);"/>
    </g>
</svg>
