<?xml version="1.0" encoding="UTF-8" standalone="no"?>
<!DOCTYPE svg PUBLIC "-//W3C//DTD SVG 1.1//EN" "http://www.w3.org/Graphics/SVG/1.1/DTD/svg11.dtd">
<svg width="100%" height="100%" viewBox="0 0 24 24" version="1.1" xmlns="http://www.w3.org/2000/svg" xmlns:xlink="http://www.w3.org/1999/xlink" xml:space="preserve" xmlns:serif="http://www.serif.com/" style="fill-rule:evenodd;clip-rule:evenodd;stroke-linecap:round;stroke-linejoin:round;stroke-miterlimit:1.5;">
    <g transform="matrix(0.0941598,-0.0673757,0.0673757,0.0941598,-22.4451,-12.6432)">
        <circle cx="118.076" cy="439.747" r="8.26" style="fill:rgb(251,187,116);"/>
    </g>
    <g transform="matrix(0.0410403,-0.0549295,0.0549295,0.0410403,-8.26163,6.83856)">
        <circle cx="118.076" cy="439.747" r="8.26" style="fill:rgb(251,187,116);"/>
    </g>
    <g transform="matrix(0.0307484,-0.0837903,0.0837903,0.0307484,-18.3437,12.0425)">
        <circle cx="118.076" cy="439.747" r="8.26" style="fill:rgb(251,187,116);"/>
    </g>
    <g transform="matrix(0.0653774,-0.0242847,0.0242847,0.0653774,-3.15149,-3.49652)">
        <circle cx="118.076" cy="439.747" r="8.26" style="fill:rgb(251,187,116);"/>
    </g>
    <g transform="matrix(0.0185579,0,0,0.0185579,-1.91772,-2.29085)">
        <path d="M750,1015.36L750,531.778C702.613,391.381 525.266,420.942 351.166,446.259L351.166,970.262C501.176,947.97 650.304,927.605 750,1015.36Z" style="fill:none;stroke:rgb(120,120,120);stroke-width:16.17px;"/>
    </g>
    <g transform="matrix(-0.0185579,0,0,0.0185579,25.9192,-2.29085)">
        <path d="M750,1015.36L750,531.778C702.613,391.381 525.266,420.942 351.166,446.259L351.166,970.262C501.176,947.97 650.304,927.605 750,1015.36Z" style="fill:none;stroke:rgb(120,120,120);stroke-width:16.17px;"/>
    </g>
    <g transform="matrix(0.0185579,0,0,0.0185579,-1.91772,-2.29085)">
        <path d="M750,1055.78C726.289,1055.77 701.917,1049.6 676.142,1030.36L290.525,1057.34L290.525,488.241L351.166,478.912" style="fill:none;stroke:rgb(120,120,120);stroke-width:16.17px;"/>
    </g>
    <g transform="matrix(-0.0185579,0,0,0.0185579,25.9192,-2.29085)">
        <path d="M750,1055.78C726.289,1055.77 701.917,1049.6 676.142,1030.36L290.525,1057.34L290.525,488.241L351.166,478.912" style="fill:none;stroke:rgb(120,120,120);stroke-width:16.17px;"/>
    </g>
    <g transform="matrix(0.0320857,-0.0320857,0.0320857,0.0320857,-4.1092,12.0266)">
        <path d="M70.167,408.868C32.732,366.532 10,310.9 10,250C10,117.54 117.54,10 250,10C382.46,10 490,117.54 490,250C490,310.9 467.268,366.532 429.833,408.868" style="fill:none;stroke:rgb(120,120,120);stroke-width:6.61px;"/>
    </g>
    <g transform="matrix(0.038905,0,0,0.038905,1.21051,-1.92261)">
        <path d="M250,273.372C250,265.97 243.991,259.961 236.589,259.961L126.628,259.961C119.226,259.961 113.217,265.97 113.217,273.372L113.217,380.661C113.217,388.063 119.226,394.072 126.628,394.072L236.589,394.072C243.991,394.072 250,388.063 250,380.661L250,273.372Z" style="fill:none;stroke:rgb(120,120,120);stroke-width:7.71px;"/>
    </g>
    <g transform="matrix(0.038905,0,0,0.038905,-1.45026,3.29497)">
        <rect x="229.835" y="125.85" width="40.33" height="23.324" style="fill:none;stroke:rgb(251,187,116);stroke-width:7.71px;"/>
    </g>
    <g transform="matrix(0.0268355,0,0,-0.0268355,8.91328,16.8903)">
        <path d="M265.792,160.086C265.792,157.282 263.515,155.005 260.711,155.005L250.548,155.005C247.744,155.005 245.467,157.282 245.467,160.086L245.467,266.542C245.467,269.346 247.744,271.623 250.548,271.623L260.711,271.623C263.515,271.623 265.792,269.346 265.792,266.542L265.792,160.086Z" style="fill:none;stroke:rgb(120,120,120);stroke-width:11.18px;"/>
    </g>
    <g transform="matrix(0.0268355,0,0,-0.0268355,8.79481,16.7208)">
        <circle cx="260.044" cy="297.376" r="14.577" style="fill:none;stroke:rgb(120,120,120);stroke-width:11.18px;"/>
    </g>
    <g transform="matrix(0.048,0,0,0.048,-0.390332,0.336)">
        <circle cx="336.741" cy="214.831" r="64.458" style="fill:none;stroke:rgb(251,187,116);stroke-width:6.25px;"/>
    </g>
</svg>
