<?xml version="1.0" encoding="UTF-8" standalone="no"?>
<!DOCTYPE svg PUBLIC "-//W3C//DTD SVG 1.1//EN" "http://www.w3.org/Graphics/SVG/1.1/DTD/svg11.dtd">
<svg width="100%" height="100%" viewBox="0 0 24 24" version="1.1" xmlns="http://www.w3.org/2000/svg" xmlns:xlink="http://www.w3.org/1999/xlink" xml:space="preserve" xmlns:serif="http://www.serif.com/" style="fill-rule:evenodd;clip-rule:evenodd;stroke-linecap:round;stroke-linejoin:round;stroke-miterlimit:1.5;">
    <g transform="matrix(0.0673757,0.0941598,-0.0941598,0.0673757,36.7342,-22.3511)">
        <circle cx="118.076" cy="439.747" r="8.26" style="fill:rgb(185,225,157);"/>
    </g>
    <g transform="matrix(0.0549295,0.0410403,-0.0410403,0.0549295,17.2525,-8.16772)">
        <circle cx="118.076" cy="439.747" r="8.26" style="fill:rgb(185,225,157);"/>
    </g>
    <g transform="matrix(0.0837903,0.0307484,-0.0307484,0.0837903,12.0485,-18.2498)">
        <circle cx="118.076" cy="439.747" r="8.26" style="fill:rgb(185,225,157);"/>
    </g>
    <g transform="matrix(0.0242847,0.0653774,-0.0653774,0.0242847,27.5876,-3.05758)">
        <circle cx="118.076" cy="439.747" r="8.26" style="fill:rgb(185,225,157);"/>
    </g>
    <g transform="matrix(0.0320857,0.0320857,-0.0320857,0.0320857,12.0645,-4.0153)">
        <path d="M70.167,408.868C32.732,366.532 10,310.9 10,250C10,117.54 117.54,10 250,10C382.46,10 490,117.54 490,250C490,310.9 467.268,366.532 429.833,408.868" style="fill:none;stroke:rgb(120,120,120);stroke-width:6.61px;"/>
    </g>
    <g transform="matrix(0.048,0,0,0.048,0.32234,0.0779249)">
        <path d="M310.481,199.255C320.572,213.027 326.533,230.011 326.533,248.377C326.533,249.744 326.5,251.104 326.435,252.456" style="fill:none;stroke:rgb(120,120,120);stroke-width:6.25px;"/>
    </g>
    <g transform="matrix(0.048,0,0,0.048,0.32234,0.0779249)">
        <path d="M314.575,291.359C299.991,315.475 273.515,331.61 243.3,331.61C197.362,331.61 160.067,294.314 160.067,248.377C160.067,202.439 197.362,165.143 243.3,165.143C260.493,165.143 276.475,170.368 289.745,179.314" style="fill:none;stroke:rgb(120,120,120);stroke-width:6.25px;"/>
    </g>
    <g transform="matrix(0.0704911,0,0,0.0704911,-5.14974,-5.50833)">
        <path d="M269.59,327.366C261.325,330.119 252.485,331.61 243.3,331.61C197.362,331.61 160.067,294.314 160.067,248.377C160.067,230.74 165.564,214.377 174.938,200.909" style="fill:none;stroke:rgb(120,120,120);stroke-width:4.26px;"/>
    </g>
    <g transform="matrix(0.0704911,0,0,0.0704911,-5.14974,-5.50833)">
        <path d="M206.884,173.524C217.886,168.156 230.244,165.143 243.3,165.143C262.182,165.143 279.604,171.445 293.577,182.057" style="fill:none;stroke:rgb(120,120,120);stroke-width:4.26px;"/>
    </g>
    <g transform="matrix(0.0704911,0,0,0.0704911,-5.14974,-5.50833)">
        <path d="M307.453,195.369C319.369,209.77 326.533,228.243 326.533,248.377C326.533,250.458 326.457,252.522 326.306,254.566" style="fill:none;stroke:rgb(120,120,120);stroke-width:4.26px;"/>
    </g>
    <g transform="matrix(0.0704911,0,0,0.0704911,-5.14974,-5.50833)">
        <path d="M315.963,288.976C314.116,292.272 312.051,295.43 309.788,298.431" style="fill:none;stroke:rgb(120,120,120);stroke-width:4.26px;"/>
    </g>
    <g transform="matrix(0.0932475,0,0,0.0932475,-10.6864,-11.1605)">
        <path d="M305.71,193.329C318.667,208.005 326.533,227.28 326.533,248.377C326.533,264.759 321.79,280.042 313.603,292.927" style="fill:none;stroke:rgb(120,120,120);stroke-width:3.22px;"/>
    </g>
    <g transform="matrix(0.0932475,0,0,0.0932475,-10.6864,-11.1605)">
        <path d="M279.9,323.14C268.852,328.563 256.429,331.61 243.3,331.61C197.362,331.61 160.067,294.314 160.067,248.377C160.067,233.945 163.748,220.366 170.221,208.529" style="fill:none;stroke:rgb(120,120,120);stroke-width:3.22px;"/>
    </g>
    <g transform="matrix(0.0932475,0,0,0.0932475,-10.6864,-11.1605)">
        <path d="M192.814,182.217C206.821,171.508 224.323,165.143 243.3,165.143C262.901,165.143 280.928,171.933 295.157,183.288" style="fill:none;stroke:rgb(120,120,120);stroke-width:3.22px;"/>
    </g>
    <g transform="matrix(0.0177681,0,0,0.0177681,0.512548,-0.21118)">
        <circle cx="393.753" cy="245.762" r="64.765" style="fill:none;stroke:rgb(120,120,120);stroke-width:16.88px;"/>
    </g>
    <g transform="matrix(0.0195883,0,0,0.0371096,1.1025,-5.70271)">
        <path d="M450.923,376.306C450.923,340.252 395.47,310.982 327.168,310.982C258.866,310.982 203.413,340.252 203.413,376.306C203.413,376.306 258.866,385.979 327.168,385.979C395.47,385.979 450.923,376.306 450.923,376.306Z" style="fill:none;stroke:rgb(120,120,120);stroke-width:10.11px;"/>
    </g>
    <g transform="matrix(0.0222227,0,0,0.0222227,7.97689,7.97775)">
        <circle cx="393.753" cy="245.762" r="64.765" style="fill:none;stroke:rgb(120,120,120);stroke-width:13.5px;"/>
    </g>
    <g transform="matrix(0.0244992,0,0,0.0464132,8.71475,1.10944)">
        <path d="M450.923,376.306C450.923,340.252 395.47,310.982 327.168,310.982C258.866,310.982 203.413,340.252 203.413,376.306C203.413,376.306 258.866,385.979 327.168,385.979C395.47,385.979 450.923,376.306 450.923,376.306Z" style="fill:none;stroke:rgb(120,120,120);stroke-width:8.08px;"/>
    </g>
    <g transform="matrix(0.034769,0.0330925,-0.0330925,0.034769,11.6043,-4.95601)">
        <path d="M236.75,230.71L236.75,74.973C236.75,67.66 242.687,61.723 250,61.723C257.313,61.723 263.25,67.66 263.25,74.973L263.25,230.69C269.736,234.988 274.015,242.353 274.015,250.709C274.015,263.955 263.261,274.709 250.015,274.709C236.77,274.709 226.015,263.955 226.015,250.709C226.015,242.366 230.282,235.011 236.75,230.71Z" style="fill:none;stroke:rgb(185,225,157);stroke-width:6.25px;"/>
    </g>
</svg>
