<?xml version="1.0" encoding="UTF-8" standalone="no"?>
<!DOCTYPE svg PUBLIC "-//W3C//DTD SVG 1.1//EN" "http://www.w3.org/Graphics/SVG/1.1/DTD/svg11.dtd">
<svg width="100%" height="100%" viewBox="0 0 24 24" version="1.1" xmlns="http://www.w3.org/2000/svg" xmlns:xlink="http://www.w3.org/1999/xlink" xml:space="preserve" xmlns:serif="http://www.serif.com/" style="fill-rule:evenodd;clip-rule:evenodd;stroke-linecap:round;stroke-linejoin:round;stroke-miterlimit:1.5;">
    <g transform="matrix(0.0725444,0,0,0.0725444,-16.5461,-8.61571)">
        <circle cx="393.753" cy="245.762" r="64.765" style="fill:none;stroke:rgb(120,120,120);stroke-width:4.14px;"/>
    </g>
    <g transform="matrix(-0.114223,-0.0189392,0.0189392,-0.114223,18.866,53.7876)">
        <circle cx="118.076" cy="439.747" r="8.26" style="fill:rgb(171,196,233);"/>
    </g>
    <g transform="matrix(-0.0678609,0.00982111,-0.00982111,-0.0678609,22.6125,29.9828)">
        <circle cx="118.076" cy="439.747" r="8.26" style="fill:rgb(171,196,233);"/>
    </g>
    <g transform="matrix(-0.0809911,0.0375063,-0.0375063,-0.0809911,33.4213,33.4321)">
        <circle cx="118.076" cy="439.747" r="8.26" style="fill:rgb(171,196,233);"/>
    </g>
    <g transform="matrix(-0.0634007,-0.0290569,0.0290569,-0.0634007,11.691,33.6773)">
        <circle cx="118.076" cy="439.747" r="8.26" style="fill:rgb(171,196,233);"/>
    </g>
    <g transform="matrix(0.0407011,0,0,0.0446914,3.40812,3.95883)">
        <path d="M17.244,347.585C50.38,297.815 127.693,262.877 217.687,262.877C302.961,262.877 376.849,294.246 412.556,339.879" style="fill:none;stroke:rgb(171,196,233);stroke-width:7.02px;"/>
    </g>
    <g transform="matrix(-0.0453761,-1.59872e-17,1.59872e-17,-0.0453761,23.3448,23.378)">
        <path d="M70.167,408.868C32.732,366.532 10,310.9 10,250C10,117.54 117.54,10 250,10C382.46,10 490,117.54 490,250C490,310.9 467.268,366.532 429.833,408.868" style="fill:none;stroke:rgb(120,120,120);stroke-width:6.61px;"/>
    </g>
</svg>
