<?xml version="1.0" encoding="UTF-8" standalone="no"?>
<!DOCTYPE svg PUBLIC "-//W3C//DTD SVG 1.1//EN" "http://www.w3.org/Graphics/SVG/1.1/DTD/svg11.dtd">
<svg width="100%" height="100%" viewBox="0 0 24 24" version="1.1" xmlns="http://www.w3.org/2000/svg" xmlns:xlink="http://www.w3.org/1999/xlink" xml:space="preserve" xmlns:serif="http://www.serif.com/" style="fill-rule:evenodd;clip-rule:evenodd;stroke-linecap:round;stroke-linejoin:round;stroke-miterlimit:1.5;">
    <g transform="matrix(0.0453761,4.79616e-17,-4.79616e-17,0.0453761,0.631396,0.632447)">
        <path d="M70.167,408.868C32.732,366.532 10,310.9 10,250C10,117.54 117.54,10 250,10C382.46,10 490,117.54 490,250C490,310.9 467.268,366.532 429.833,408.868" style="fill:none;stroke:rgb(120,120,120);stroke-width:6.61px;"/>
    </g>
    <g transform="matrix(0.114223,0.0189392,-0.0189392,0.114223,5.11015,-29.7771)">
        <circle cx="118.076" cy="439.747" r="8.26" style="fill:rgb(185,225,157);"/>
    </g>
    <g transform="matrix(0.0678609,-0.00982111,0.00982111,0.0678609,1.36369,-5.97227)">
        <circle cx="118.076" cy="439.747" r="8.26" style="fill:rgb(185,225,157);"/>
    </g>
    <g transform="matrix(0.0809911,-0.0375063,0.0375063,0.0809911,-9.44516,-9.42158)">
        <circle cx="118.076" cy="439.747" r="8.26" style="fill:rgb(185,225,157);"/>
    </g>
    <g transform="matrix(0.0634007,0.0290569,-0.0290569,0.0634007,12.2851,-9.66686)">
        <circle cx="118.076" cy="439.747" r="8.26" style="fill:rgb(185,225,157);"/>
    </g>
    <g transform="matrix(0.048,0,0,0.048,-0.453125,-0.770325)">
        <path d="M36.764,298.355C66.904,289.916 129.417,272.685 150.632,273.081C178.449,273.6 256.839,298.944 278.426,308.066C290.643,313.229 289.489,332.25 275.51,337.707C246.052,349.206 183.188,334.305 183.188,334.305C183.188,334.305 185.895,357.215 265.306,357.629C297.263,357.795 354.946,335.642 374.636,323.615C394.979,311.189 406.598,328.465 399.417,344.509C386.142,374.167 278.959,425.833 269.193,425.656C211.249,424.607 123.985,404.332 91.351,399.417C87.951,398.905 83.043,401.253 79.009,403.709" style="fill:none;stroke:rgb(120,120,120);stroke-width:6.25px;"/>
    </g>
    <g transform="matrix(-0.0341476,-4.18187e-18,4.18187e-18,-0.0341476,24.5697,14.7369)">
        <circle cx="365.937" cy="201.682" r="57.333" style="fill:none;stroke:rgb(120,120,120);stroke-width:6.25px;"/>
    </g>
    <g transform="matrix(0.048,0,0,0.048,0.321045,-0.144)">
        <path d="M359.832,106.85C359.832,98.5 353.052,91.72 344.702,91.72L141.952,91.72C133.602,91.72 126.822,98.5 126.822,106.85L126.822,226.232C126.822,234.583 133.602,241.362 141.952,241.362L344.702,241.362C353.052,241.362 359.832,234.583 359.832,226.232L359.832,106.85Z" style="fill:none;stroke:rgb(120,120,120);stroke-width:6.25px;"/>
    </g>
    <g transform="matrix(0.048,0,0,0.048,0.321045,-0.144)">
        <path d="M313.383,108.794C313.383,126.11 325.442,138.169 342.758,138.169L342.758,194.913C325.442,194.913 313.383,206.972 313.383,224.288L173.271,224.288C173.271,206.972 161.212,194.913 143.896,194.913L143.896,138.169C161.213,138.169 173.271,126.11 173.271,108.794L313.383,108.794Z" style="fill:none;stroke:rgb(185,225,157);stroke-width:6.25px;"/>
    </g>
    <g transform="matrix(0.048,0,0,0.048,0.337967,-0.106914)">
        <circle cx="244.498" cy="165.768" r="40.25" style="fill:none;stroke:rgb(120,120,120);stroke-width:6.25px;"/>
    </g>
    <g transform="matrix(0.0160994,0,0,0.0160994,4.83668,5.1812)">
        <circle cx="244.498" cy="165.768" r="40.25" style="fill:none;stroke:rgb(120,120,120);stroke-width:18.63px;"/>
    </g>
    <g transform="matrix(0.0160994,0,0,0.0160994,11.4385,5.1812)">
        <circle cx="244.498" cy="165.768" r="40.25" style="fill:none;stroke:rgb(120,120,120);stroke-width:18.63px;"/>
    </g>
</svg>
