<?xml version="1.0" encoding="UTF-8" standalone="no"?>
<!DOCTYPE svg PUBLIC "-//W3C//DTD SVG 1.1//EN" "http://www.w3.org/Graphics/SVG/1.1/DTD/svg11.dtd">
<svg width="100%" height="100%" viewBox="0 0 24 24" version="1.1" xmlns="http://www.w3.org/2000/svg" xmlns:xlink="http://www.w3.org/1999/xlink" xml:space="preserve" xmlns:serif="http://www.serif.com/" style="fill-rule:evenodd;clip-rule:evenodd;stroke-linecap:round;stroke-linejoin:round;stroke-miterlimit:1.5;">
    <g transform="matrix(-0.048,-2.13163e-17,2.13163e-17,-0.048,24,23.9937)">
        <path d="M70.167,408.868C32.732,366.532 10,310.9 10,250C10,117.54 117.54,10 250,10C382.46,10 490,117.54 490,250C490,310.9 467.268,366.532 429.833,408.868" style="fill:none;stroke:rgb(120,120,120);stroke-width:6.25px;"/>
    </g>
    <g transform="matrix(0.032299,0,0,0.032299,3.784,3.14381)">
        <circle cx="254.373" cy="289.359" r="70.7" style="fill:none;stroke:black;stroke-width:6.25px;"/>
    </g>
    <g transform="matrix(0.0502621,0,0,0.0502621,-0.78532,-2.05396)">
        <circle cx="254.373" cy="289.359" r="95.724" style="fill:none;stroke:rgb(120,120,120);stroke-width:6.25px;"/>
    </g>
    <g transform="matrix(0.0502621,0,0,0.0502621,-0.78532,-2.05396)">
        <path d="M254.373,193.635C307.205,193.635 350.097,236.527 350.097,289.359C350.097,342.19 307.205,385.083 254.373,385.083C201.542,385.083 158.649,342.19 158.649,289.359C158.649,236.527 201.542,193.635 254.373,193.635ZM254.373,218.659C293.393,218.659 325.073,250.338 325.073,289.359C325.073,328.379 293.393,360.058 254.373,360.058C215.353,360.058 183.673,328.379 183.673,289.359C183.673,250.338 215.353,218.659 254.373,218.659ZM254.373,243.926C279.448,243.926 299.806,264.284 299.806,289.359C299.806,314.433 279.448,334.791 254.373,334.791C229.298,334.791 208.941,314.433 208.941,289.359C208.941,264.284 229.298,243.926 254.373,243.926Z" style="fill:none;"/>
    </g>
    <g transform="matrix(0.0502621,0,0,0.0502621,-0.78532,-2.05396)">
        <circle cx="254.373" cy="289.359" r="95.724" style="fill:none;stroke:rgb(171,196,233);stroke-width:5.97px;"/>
    </g>
    <g transform="matrix(0.0502621,0,0,0.0502621,-0.78532,-2.05396)">
        <path d="M275.601,452.246L233.145,452.246C228.124,452.246 224.047,448.169 224.047,443.148L224.047,410.864C200.952,405.11 180.384,392.936 164.352,376.35L136.351,392.516C132.002,395.027 126.433,393.535 123.923,389.186L102.695,352.418C100.184,348.07 101.676,342.501 106.025,339.99L133.982,323.849C130.844,312.891 129.164,301.319 129.164,289.359C129.164,277.398 130.844,265.827 133.982,254.868L106.025,238.727C101.676,236.216 100.184,230.648 102.695,226.299L123.923,189.531C126.433,185.182 132.002,183.69 136.351,186.201L164.352,202.367C180.384,185.781 200.952,173.607 224.047,167.853L224.047,135.569C224.047,130.548 228.124,126.472 233.145,126.471L275.601,126.471C280.623,126.472 284.699,130.548 284.699,135.569L284.699,167.853C307.795,173.607 328.363,185.781 344.394,202.367L372.396,186.201C376.744,183.69 382.313,185.182 384.824,189.531L406.052,226.299C408.562,230.648 407.07,236.216 402.722,238.727L374.764,254.868C377.902,265.827 379.583,277.398 379.583,289.359C379.583,301.319 377.902,312.891 374.764,323.849L402.722,339.99C407.07,342.501 408.562,348.07 406.052,352.418L384.824,389.186C382.313,393.535 376.744,395.027 372.396,392.516L344.394,376.35C328.363,392.936 307.795,405.11 284.699,410.864L284.699,443.148C284.699,448.168 280.624,452.245 275.601,452.246Z" style="fill:none;stroke:rgb(120,120,120);stroke-width:5.97px;"/>
    </g>
    <g transform="matrix(0.0502621,0,0,0.0502621,-0.78532,-2.05396)">
        <circle cx="254.373" cy="289.359" r="45.432" style="fill:none;stroke:rgb(120,120,120);stroke-width:5.97px;"/>
    </g>
    <g transform="matrix(-0.122478,-1.49992e-17,1.49992e-17,-0.122478,31.5019,56.2707)">
        <circle cx="118.076" cy="439.747" r="8.26" style="fill:rgb(171,196,233);"/>
    </g>
    <g transform="matrix(-0.0725329,-8.88272e-18,8.88272e-18,-0.0725329,17.5874,33.8426)">
        <circle cx="118.076" cy="439.747" r="8.26" style="fill:rgb(171,196,233);"/>
    </g>
    <g transform="matrix(-0.0944153,-1.15625e-17,1.15625e-17,-0.0944153,16.9548,44.2452)">
        <circle cx="118.076" cy="439.747" r="8.26" style="fill:rgb(171,196,233);"/>
    </g>
    <g transform="matrix(-0.073775,-9.03483e-18,9.03483e-18,-0.073775,21.3205,35.7781)">
        <circle cx="118.076" cy="439.747" r="8.26" style="fill:rgb(171,196,233);"/>
    </g>
</svg>
