<?xml version="1.0" encoding="UTF-8" standalone="no"?>
<!DOCTYPE svg PUBLIC "-//W3C//DTD SVG 1.1//EN" "http://www.w3.org/Graphics/SVG/1.1/DTD/svg11.dtd">
<svg width="100%" height="100%" viewBox="0 0 24 24" version="1.1" xmlns="http://www.w3.org/2000/svg" xmlns:xlink="http://www.w3.org/1999/xlink" xml:space="preserve" xmlns:serif="http://www.serif.com/" style="fill-rule:evenodd;clip-rule:evenodd;stroke-linecap:round;stroke-linejoin:round;stroke-miterlimit:1.5;">
    <g transform="matrix(0.048,0,0,0.048,0,0)">
        <path d="M43.494,344.712L43.494,290.027C43.494,279.166 52.312,270.348 63.174,270.347L102.532,270.347C113.394,270.348 122.212,279.166 122.212,290.027L122.212,438.147C88.168,414.877 60.775,382.579 43.494,344.712Z" style="fill:none;stroke:rgb(120,120,120);stroke-width:5.99px;"/>
    </g>
    <g transform="matrix(0.048,0,0,0.048,0,0)">
        <path d="M154.926,456.731L154.926,134.05C154.926,123.189 163.743,114.371 174.605,114.371L213.964,114.371C224.825,114.371 233.643,123.189 233.643,134.05L233.643,477.006C205.706,475.01 179.162,467.946 154.926,456.731Z" style="fill:none;stroke:rgb(120,120,120);stroke-width:6.15px;"/>
    </g>
    <g transform="matrix(0.048,0,0,0.048,0,0)">
        <path d="M266.357,477.008L266.357,240.464C266.357,229.603 275.175,220.785 286.036,220.785L325.395,220.785C336.257,220.785 345.074,229.603 345.074,240.464L345.074,456.745C320.837,467.957 294.293,475.016 266.357,477.008Z" style="fill:none;stroke:rgb(120,120,120);stroke-width:6.11px;"/>
    </g>
    <g transform="matrix(0.048,0,0,0.048,0,0)">
        <path d="M377.788,438.168L377.788,313.836C377.788,302.975 386.606,294.157 397.468,294.157L436.826,294.157C447.688,294.157 456.506,302.975 456.506,313.836L456.506,344.78C439.218,382.629 411.826,414.911 377.788,438.168Z" style="fill:none;stroke:rgb(120,120,120);stroke-width:5.95px;"/>
    </g>
    <g transform="matrix(0.048,0,0,0.048,0,0)">
        <path d="M82.853,235.977L194.284,124.545L305.716,235.977L417.396,310.321" style="fill:none;stroke:rgb(250,145,145);stroke-width:6.25px;"/>
    </g>
    <g transform="matrix(0.048,0,0,0.048,0.0640932,0.08)">
        <circle cx="81.755" cy="233.586" r="8" style="fill:rgb(250,145,145);"/>
    </g>
    <g transform="matrix(0.048,0,0,0.048,5.4014,-5.13798)">
        <circle cx="81.755" cy="233.586" r="8" style="fill:rgb(250,145,145);"/>
    </g>
    <g transform="matrix(0.048,0,0,0.048,10.7501,0.08)">
        <circle cx="81.755" cy="233.586" r="8" style="fill:rgb(250,145,145);"/>
    </g>
    <g transform="matrix(0.048,0,0,0.048,16.1107,3.68324)">
        <circle cx="81.755" cy="233.586" r="8" style="fill:rgb(250,145,145);"/>
    </g>
    <g transform="matrix(-0.0453761,-1.59872e-17,1.59872e-17,-0.0453761,23.3448,23.378)">
        <path d="M70.167,408.868C32.732,366.532 10,310.9 10,250C10,117.54 117.54,10 250,10C382.46,10 490,117.54 490,250C490,310.9 467.268,366.532 429.833,408.868" style="fill:none;stroke:rgb(120,120,120);stroke-width:6.61px;"/>
    </g>
    <g transform="matrix(-0.114223,-0.0189392,0.0189392,-0.114223,18.866,53.7876)">
        <circle cx="118.076" cy="439.747" r="8.26" style="fill:rgb(250,145,145);"/>
    </g>
    <g transform="matrix(-0.0678609,0.00982111,-0.00982111,-0.0678609,22.6125,29.9828)">
        <circle cx="118.076" cy="439.747" r="8.26" style="fill:rgb(250,145,145);"/>
    </g>
    <g transform="matrix(-0.0809911,0.0375063,-0.0375063,-0.0809911,33.4213,33.4321)">
        <circle cx="118.076" cy="439.747" r="8.26" style="fill:rgb(250,145,145);"/>
    </g>
    <g transform="matrix(-0.0634007,-0.0290569,0.0290569,-0.0634007,11.691,33.6773)">
        <circle cx="118.076" cy="439.747" r="8.26" style="fill:rgb(250,145,145);"/>
    </g>
</svg>
