<?xml version="1.0" encoding="UTF-8" standalone="no"?>
<!DOCTYPE svg PUBLIC "-//W3C//DTD SVG 1.1//EN" "http://www.w3.org/Graphics/SVG/1.1/DTD/svg11.dtd">
<svg width="100%" height="100%" viewBox="0 0 24 24" version="1.1" xmlns="http://www.w3.org/2000/svg" xmlns:xlink="http://www.w3.org/1999/xlink" xml:space="preserve" xmlns:serif="http://www.serif.com/" style="fill-rule:evenodd;clip-rule:evenodd;stroke-linecap:round;stroke-linejoin:round;stroke-miterlimit:1.5;">
    <g transform="matrix(0.0503622,0,0,0.0503622,-0.139131,-0.474108)">
        <path d="M334.682,340.96L208.596,340.96" style="fill:none;stroke:rgb(120,120,120);stroke-width:5.81px;"/>
    </g>
    <g transform="matrix(0.0503622,0,0,0.0503622,-0.139131,-0.474108)">
        <path d="M147.997,340.96L131.08,340.96C124.756,340.96 119.622,335.826 119.622,329.502L119.622,148.814C119.622,142.49 124.756,137.355 131.08,137.355L325.761,137.355C336.999,137.355 345.501,142.69 350.622,157.716L370.622,221.688L370.622,221.824L413.775,239.158C419.06,241.491 423.955,245.886 423.955,251.505L423.955,330.78C423.955,336.399 419.394,340.96 413.775,340.96L395.963,340.96" style="fill:none;stroke:rgb(120,120,120);stroke-width:5.81px;"/>
    </g>
    <g transform="matrix(0.038513,0,0,0.038513,1.33307,3.32293)">
        <circle cx="194.906" cy="347.271" r="38.784" style="fill:none;stroke:rgb(120,120,120);stroke-width:7.59px;"/>
    </g>
    <g transform="matrix(0.038513,0,0,0.038513,10.7508,3.32293)">
        <circle cx="194.906" cy="347.271" r="38.784" style="fill:none;stroke:rgb(120,120,120);stroke-width:7.59px;"/>
    </g>
    <g transform="matrix(0.0503622,0,0,0.0503622,-0.139131,-0.474108)">
        <path d="M332.722,160.728C330.925,156.221 326.568,154.378 322.736,154.255L291.622,154.255L291.622,222.055L352.622,222.055L332.722,160.728Z" style="fill:none;stroke:rgb(171,196,233);stroke-width:5.81px;"/>
    </g>
    <g transform="matrix(0.0503622,0,0,0.0503622,-0.382548,0.0966631)">
        <path d="M66.989,173.322L154.989,173.322" style="fill:none;stroke:rgb(120,120,120);stroke-width:5.81px;"/>
    </g>
    <g transform="matrix(0.0503622,0,0,0.0503622,0.824464,2.01602)">
        <path d="M66.989,173.322L133.989,173.322" style="fill:none;stroke:rgb(120,120,120);stroke-width:5.81px;"/>
    </g>
    <g transform="matrix(0.0503622,0,0,0.0503622,-1.18834,3.93538)">
        <path d="M66.989,173.322L177.989,173.322" style="fill:none;stroke:rgb(120,120,120);stroke-width:5.81px;"/>
    </g>
    <g transform="matrix(0.0503622,0,0,0.0503622,1.20386,5.85474)">
        <path d="M66.989,173.322L112.989,173.322" style="fill:none;stroke:rgb(120,120,120);stroke-width:5.81px;"/>
    </g>
    <g transform="matrix(-1.81514e-17,0.0453761,-0.0453761,-1.81514e-17,23.3183,0.651924)">
        <path d="M70.167,408.868C32.732,366.532 10,310.9 10,250C10,117.54 117.54,10 250,10C382.46,10 490,117.54 490,250C490,310.9 467.268,366.532 429.833,408.868" style="fill:none;stroke:rgb(120,120,120);stroke-width:6.61px;"/>
    </g>
    <g transform="matrix(-0.0189392,0.114223,-0.114223,-0.0189392,53.7279,5.13067)">
        <circle cx="118.076" cy="439.747" r="8.26" style="fill:rgb(171,196,233);"/>
    </g>
    <g transform="matrix(0.00982111,0.0678609,-0.0678609,0.00982111,29.9231,1.38422)">
        <circle cx="118.076" cy="439.747" r="8.26" style="fill:rgb(171,196,233);"/>
    </g>
    <g transform="matrix(0.0375063,0.0809911,-0.0809911,0.0375063,33.3724,-9.42463)">
        <circle cx="118.076" cy="439.747" r="8.26" style="fill:rgb(171,196,233);"/>
    </g>
    <g transform="matrix(-0.0290569,0.0634007,-0.0634007,-0.0290569,33.6177,12.3056)">
        <circle cx="118.076" cy="439.747" r="8.26" style="fill:rgb(171,196,233);"/>
    </g>
</svg>
