<?xml version="1.0" encoding="UTF-8" standalone="no"?>
<!DOCTYPE svg PUBLIC "-//W3C//DTD SVG 1.1//EN" "http://www.w3.org/Graphics/SVG/1.1/DTD/svg11.dtd">
<svg width="100%" height="100%" viewBox="0 0 24 24" version="1.1" xmlns="http://www.w3.org/2000/svg" xmlns:xlink="http://www.w3.org/1999/xlink" xml:space="preserve" xmlns:serif="http://www.serif.com/" style="fill-rule:evenodd;clip-rule:evenodd;stroke-linecap:round;stroke-linejoin:round;stroke-miterlimit:1.5;">
    <g transform="matrix(0.0320857,-0.0320857,0.0320857,0.0320857,-4.06745,11.9765)">
        <path d="M70.167,408.868C32.732,366.532 10,310.9 10,250C10,117.54 117.54,10 250,10C382.46,10 490,117.54 490,250C490,310.9 467.268,366.532 429.833,408.868" style="fill:none;stroke:rgb(120,120,120);stroke-width:6.61px;"/>
    </g>
    <g transform="matrix(0.0941598,-0.0673757,0.0673757,0.0941598,-22.4033,-12.6933)">
        <circle cx="118.076" cy="439.747" r="8.26" style="fill:rgb(185,225,157);"/>
    </g>
    <g transform="matrix(0.0410403,-0.0549295,0.0549295,0.0410403,-8.21988,6.78842)">
        <circle cx="118.076" cy="439.747" r="8.26" style="fill:rgb(185,225,157);"/>
    </g>
    <g transform="matrix(0.0307484,-0.0837903,0.0837903,0.0307484,-18.3019,11.9924)">
        <circle cx="118.076" cy="439.747" r="8.26" style="fill:rgb(185,225,157);"/>
    </g>
    <g transform="matrix(0.0653774,-0.0242847,0.0242847,0.0653774,-3.10973,-3.54667)">
        <circle cx="118.076" cy="439.747" r="8.26" style="fill:rgb(185,225,157);"/>
    </g>
    <g transform="matrix(0.048,0,0,0.048,-0.374179,-0.192)">
        <path d="M300.959,159.688C355.006,174.575 394.049,217.021 394.049,267.002C394.049,329.368 333.258,380.002 258.382,380.002C183.505,380.002 122.715,329.368 122.715,267.002C122.715,216.04 163.305,172.913 219.003,158.843" style="fill:none;stroke:rgb(120,120,120);stroke-width:6.25px;"/>
    </g>
    <g transform="matrix(0.048,0,0,0.048,-0.310179,-0.224)">
        <path d="M142.715,206.668C94.053,253.347 75.205,188.342 112.715,188.002" style="fill:none;stroke:rgb(120,120,120);stroke-width:6.25px;"/>
    </g>
    <g transform="matrix(0.048,0,0,0.048,-0.470179,0.0912922)">
        <path d="M389.453,298.532C391.566,299.057 393.775,299.335 396.049,299.335C411.134,299.335 423.382,287.087 423.382,272.002L423.382,250.198C423.382,235.112 411.134,222.864 396.049,222.864C393.963,222.864 391.931,223.098 389.979,223.542" style="fill:none;stroke:rgb(120,120,120);stroke-width:6.25px;"/>
    </g>
    <g transform="matrix(0.048,0,0,0.048,-0.374179,-0.192)">
        <path d="M154.715,340.57L154.715,378.668C154.715,384.923 159.794,390.002 166.049,390.002L188.715,390.002C194.97,390.002 200.049,384.923 200.049,378.668L200.049,371.186" style="fill:none;stroke:rgb(120,120,120);stroke-width:6.25px;"/>
    </g>
    <g transform="matrix(0.048,0,0,0.048,7.30582,-0.192)">
        <path d="M154.715,371.77L154.715,378.668C154.715,384.923 159.794,390.002 166.049,390.002L188.715,390.002C194.97,390.002 200.049,384.923 200.049,378.668L200.049,342.37" style="fill:none;stroke:rgb(120,120,120);stroke-width:6.25px;"/>
    </g>
    <g transform="matrix(0.048,0,0,0.048,-0.374179,-0.192)">
        <path d="M360.049,191.935L350.049,124.668C330.524,123.648 311.712,141.529 314.715,164.002" style="fill:none;stroke:rgb(120,120,120);stroke-width:6.25px;"/>
    </g>
    <g transform="matrix(0.048,0,0,0.048,-0.374179,-0.192)">
        <ellipse cx="343.969" cy="230.334" rx="6.746" ry="19.666" style="fill:none;stroke:rgb(120,120,120);stroke-width:6.25px;"/>
    </g>
    <g transform="matrix(0.048,0,0,0.048,-0.374179,-0.1088)">
        <path d="M410.449,252.468L410.449,278.068" style="fill:none;stroke:rgb(120,120,120);stroke-width:6.25px;"/>
    </g>
    <g transform="matrix(0.0339201,0,0,0.0339201,4.95503,1.35031)">
        <path d="M161.684,203.08C157.243,195.027 154.715,185.774 154.715,175.935C154.715,144.844 179.957,119.602 211.049,119.602C242.14,119.602 267.382,144.844 267.382,175.935C267.382,185.018 265.228,193.601 261.403,201.203" style="fill:none;stroke:rgb(185,225,157);stroke-width:8.84px;"/>
    </g>
    <g transform="matrix(0.0252574,0,0,0.0252574,3.89761,-0.459287)">
        <circle cx="211.049" cy="175.935" r="56.333" style="fill:none;stroke:rgb(185,225,157);stroke-width:11.88px;"/>
    </g>
    <g transform="matrix(0.048,0,0,0.048,-0.374179,-0.512)">
        <path d="M220.358,184.626C246.195,176.703 272.715,175.594 300.249,184.626" style="fill:none;stroke:rgb(120,120,120);stroke-width:6.25px;"/>
    </g>
</svg>
