<?xml version="1.0" encoding="UTF-8" standalone="no"?>
<!DOCTYPE svg PUBLIC "-//W3C//DTD SVG 1.1//EN" "http://www.w3.org/Graphics/SVG/1.1/DTD/svg11.dtd">
<svg width="100%" height="100%" viewBox="0 0 24 24" version="1.1" xmlns="http://www.w3.org/2000/svg" xmlns:xlink="http://www.w3.org/1999/xlink" xml:space="preserve" xmlns:serif="http://www.serif.com/" style="fill-rule:evenodd;clip-rule:evenodd;stroke-linecap:round;stroke-linejoin:round;stroke-miterlimit:1.5;">
    <g transform="matrix(0.0438148,0,0,0.0438148,1.01748,0.612455)">
        <path d="M237.419,360.297C228.635,355.57 222.658,346.289 222.658,335.623C222.658,320.17 235.205,307.623 250.658,307.623C266.112,307.623 278.658,320.17 278.658,335.623C278.658,346.289 272.682,355.57 263.897,360.297L276.424,420.29L224.893,420.29L237.419,360.297Z" style="fill:none;stroke:rgb(120,120,120);stroke-width:7.06px;"/>
    </g>
    <g transform="matrix(0.0494949,0,0,0.0494949,-0.577992,-1.81784)">
        <path d="M211.33,286.29L172.46,286.29L172.46,191.787C172.46,146.714 209.054,110.12 254.127,110.12C299.2,110.12 335.794,146.714 335.794,191.787L335.794,220.957L296.924,220.957L296.924,191.787C296.924,168.167 277.747,148.99 254.127,148.99C230.507,148.99 211.33,168.167 211.33,191.787L211.33,286.29Z" style="fill:none;stroke:rgb(120,120,120);stroke-width:6.25px;"/>
    </g>
    <g transform="matrix(0.0470432,0,0,0.0390749,0.0450661,3.06694)">
        <path d="M361.794,269.923C361.794,252.096 349.772,237.623 334.965,237.623L173.289,237.623C158.482,237.623 146.46,252.096 146.46,269.923L146.46,420.657C146.46,438.483 158.482,452.957 173.289,452.957L334.965,452.957C349.772,452.957 361.794,438.483 361.794,420.657L361.794,269.923Z" style="fill:none;stroke:rgb(251,187,116);stroke-width:6.94px;"/>
    </g>
    <g transform="matrix(-0.0320857,0.0320857,-0.0320857,-0.0320857,28.0675,12.0235)">
        <path d="M70.167,408.868C32.732,366.532 10,310.9 10,250C10,117.54 117.54,10 250,10C382.46,10 490,117.54 490,250C490,310.9 467.268,366.532 429.833,408.868" style="fill:none;stroke:rgb(120,120,120);stroke-width:6.61px;"/>
    </g>
    <g transform="matrix(-0.0941598,0.0673757,-0.0673757,-0.0941598,46.4033,36.6933)">
        <circle cx="118.076" cy="439.747" r="8.26" style="fill:rgb(251,187,116);"/>
    </g>
    <g transform="matrix(-0.0410403,0.0549295,-0.0549295,-0.0410403,32.2199,17.2116)">
        <circle cx="118.076" cy="439.747" r="8.26" style="fill:rgb(251,187,116);"/>
    </g>
    <g transform="matrix(-0.0307484,0.0837903,-0.0837903,-0.0307484,42.3019,12.0076)">
        <circle cx="118.076" cy="439.747" r="8.26" style="fill:rgb(251,187,116);"/>
    </g>
    <g transform="matrix(-0.0653774,0.0242847,-0.0242847,-0.0653774,27.1097,27.5467)">
        <circle cx="118.076" cy="439.747" r="8.26" style="fill:rgb(251,187,116);"/>
    </g>
</svg>
