<?xml version="1.0" encoding="UTF-8" standalone="no"?>
<!DOCTYPE svg PUBLIC "-//W3C//DTD SVG 1.1//EN" "http://www.w3.org/Graphics/SVG/1.1/DTD/svg11.dtd">
<svg width="100%" height="100%" viewBox="0 0 24 24" version="1.1" xmlns="http://www.w3.org/2000/svg" xmlns:xlink="http://www.w3.org/1999/xlink" xml:space="preserve" xmlns:serif="http://www.serif.com/" style="fill-rule:evenodd;clip-rule:evenodd;stroke-linecap:round;stroke-linejoin:round;stroke-miterlimit:1.5;">
    <g transform="matrix(0.0504183,0.0135095,-0.0140099,0.0522857,2.19194,-5.53573)">
        <path d="M321.479,177.213L160.476,177.213L160.476,420.213L373.598,420.213L373.598,226.888" style="fill:none;stroke:rgb(120,120,120);stroke-width:5.64px;"/>
    </g>
    <g transform="matrix(0.0359648,0.00963674,-0.00963674,0.0359648,6.51968,-1.27618)">
        <path d="M309.476,177.213L381.858,249.596L309.476,249.596L309.476,177.213Z" style="fill:none;stroke:rgb(251,187,116);stroke-width:8.06px;"/>
    </g>
    <g transform="matrix(0.0504183,0.0135095,-0.0135095,0.0504183,2.1566,-5.19052)">
        <path d="M188.482,213.041L273.476,213.041" style="fill:none;stroke:rgb(120,120,120);stroke-width:5.75px;"/>
    </g>
    <g transform="matrix(0.0919423,0.0246359,-0.0135095,0.0504183,-6.33864,-4.79192)">
        <path d="M188.482,213.041L273.476,213.041" style="fill:none;stroke:rgb(120,120,120);stroke-width:3.91px;"/>
    </g>
    <g transform="matrix(0.0919423,0.0246359,-0.0135095,0.0504183,-6.68989,-3.48105)">
        <path d="M188.482,213.041L273.476,213.041" style="fill:none;stroke:rgb(120,120,120);stroke-width:3.91px;"/>
    </g>
    <g transform="matrix(0.0919423,0.0246359,-0.0135095,0.0504183,-7.04114,-2.17017)">
        <path d="M188.482,213.041L273.476,213.041" style="fill:none;stroke:rgb(120,120,120);stroke-width:3.91px;"/>
    </g>
    <g transform="matrix(0.0919423,0.0246359,-0.0135095,0.0504183,-7.39239,-0.859293)">
        <path d="M188.482,213.041L273.476,213.041" style="fill:none;stroke:rgb(120,120,120);stroke-width:3.91px;"/>
    </g>
    <g transform="matrix(0.0919423,0.0246359,-0.0135095,0.0504183,-7.74364,0.451583)">
        <path d="M188.482,213.041L273.476,213.041" style="fill:none;stroke:rgb(120,120,120);stroke-width:3.91px;"/>
    </g>
    <g transform="matrix(0.0919423,0.0246359,-0.0135095,0.0504183,-8.09489,1.76246)">
        <path d="M188.482,213.041L273.476,213.041" style="fill:none;stroke:rgb(120,120,120);stroke-width:3.91px;"/>
    </g>
    <g transform="matrix(0.0504183,0.0135095,-0.0135095,0.0504183,3.96127,-6.27752)">
        <path d="M344.862,429.213L373.598,429.213L373.598,177.213L160.476,177.213L160.476,205.553" style="fill:none;stroke:rgb(120,120,120);stroke-width:5.75px;"/>
    </g>
    <g transform="matrix(-0.0453761,-1.59872e-17,1.59872e-17,-0.0453761,23.3448,23.378)">
        <path d="M70.167,408.868C32.732,366.532 10,310.9 10,250C10,117.54 117.54,10 250,10C382.46,10 490,117.54 490,250C490,310.9 467.268,366.532 429.833,408.868" style="fill:none;stroke:rgb(120,120,120);stroke-width:6.61px;"/>
    </g>
    <g transform="matrix(-0.114223,-0.0189392,0.0189392,-0.114223,18.866,53.7876)">
        <circle cx="118.076" cy="439.747" r="8.26" style="fill:rgb(251,187,116);"/>
    </g>
    <g transform="matrix(-0.0678609,0.00982111,-0.00982111,-0.0678609,22.6125,29.9828)">
        <circle cx="118.076" cy="439.747" r="8.26" style="fill:rgb(251,187,116);"/>
    </g>
    <g transform="matrix(-0.0809911,0.0375063,-0.0375063,-0.0809911,33.4213,33.4321)">
        <circle cx="118.076" cy="439.747" r="8.26" style="fill:rgb(251,187,116);"/>
    </g>
    <g transform="matrix(-0.0634007,-0.0290569,0.0290569,-0.0634007,11.691,33.6773)">
        <circle cx="118.076" cy="439.747" r="8.26" style="fill:rgb(251,187,116);"/>
    </g>
</svg>
