<?xml version="1.0" encoding="UTF-8" standalone="no"?>
<!DOCTYPE svg PUBLIC "-//W3C//DTD SVG 1.1//EN" "http://www.w3.org/Graphics/SVG/1.1/DTD/svg11.dtd">
<svg width="100%" height="100%" viewBox="0 0 24 24" version="1.1" xmlns="http://www.w3.org/2000/svg" xmlns:xlink="http://www.w3.org/1999/xlink" xml:space="preserve" xmlns:serif="http://www.serif.com/" style="fill-rule:evenodd;clip-rule:evenodd;stroke-linecap:round;stroke-linejoin:round;stroke-miterlimit:1.5;">
    <g transform="matrix(0.048,0,0,0.048,-0.212618,-0.402472)">
        <path d="M335.277,416.278C335.277,427.622 326.067,436.832 314.723,436.832L185.277,436.832C173.933,436.832 164.723,427.622 164.723,416.278L164.723,404.276L335.277,404.276L335.277,416.278ZM164.723,376.669L164.723,212.755C164.723,179.809 191.471,153.062 224.417,153.061L275.583,153.061C308.529,153.062 335.277,179.809 335.277,212.755L335.277,376.669L164.723,376.669Z" style="fill:none;stroke:rgb(250,145,145);stroke-width:6.06px;"/>
    </g>
    <g transform="matrix(0.048,0,0,0.048,-0.212618,-0.402472)">
        <path d="M249.967,109.77L152.343,109.77L152.343,117.822L219.642,133.349" style="fill:none;stroke:rgb(120,120,120);stroke-width:6.25px;"/>
    </g>
    <g transform="matrix(0.048,0,0,0.048,-0.212618,-0.402472)">
        <path d="M219.642,142.349L156.948,142.349" style="fill:none;stroke:rgb(120,120,120);stroke-width:6.25px;"/>
    </g>
    <g transform="matrix(0.0420615,0,0,0.048,1.4519,-0.402472)">
        <rect x="280.292" y="121.559" width="54.985" height="20.789" style="fill:none;stroke:rgb(120,120,120);stroke-width:6.25px;"/>
    </g>
    <g transform="matrix(0.048,0,0,0.048,-0.212618,-0.402472)">
        <path d="M378.037,306.122L378.037,162.566C378.037,145.671 364.32,131.954 347.425,131.954L329.615,131.954" style="fill:none;stroke:rgb(120,120,120);stroke-width:6.25px;"/>
    </g>
    <g transform="matrix(0.048,0,0,0.048,-0.212618,-0.402472)">
        <path d="M347.386,394.636L357.386,327.745C357.386,316.348 366.639,307.094 378.037,307.094C389.435,307.094 398.688,316.348 398.688,327.745L408.688,394.636L347.386,394.636Z" style="fill:none;stroke:rgb(120,120,120);stroke-width:5.43px;"/>
    </g>
    <g transform="matrix(0.048,0,0,0.048,-0.212618,-0.402472)">
        <path d="M396.016,326.531L359.086,326.531" style="fill:none;stroke:rgb(120,120,120);stroke-width:6.25px;"/>
    </g>
    <g transform="matrix(0.048,0,0,0.048,-0.212618,-0.402472)">
        <path d="M265.129,109.77C273.498,109.77 280.292,116.564 280.292,124.932L280.292,153.245C278.738,153.123 277.168,153.061 275.583,153.061L224.417,153.061C222.81,153.061 221.217,153.125 219.642,153.25L219.642,124.932C219.642,116.564 226.436,109.77 234.805,109.77L265.129,109.77Z" style="fill:none;stroke:rgb(120,120,120);stroke-width:6.25px;"/>
    </g>
    <g transform="matrix(0.048,0,0,0.0313468,-0.212618,6.33003)">
        <rect x="164.723" y="362.002" width="170.554" height="42.274" style="fill:none;stroke:rgb(120,120,120);stroke-width:7.4px;"/>
    </g>
    <g transform="matrix(-0.0320857,0.0320857,-0.0320857,-0.0320857,28.0675,12.0235)">
        <path d="M70.167,408.868C32.732,366.532 10,310.9 10,250C10,117.54 117.54,10 250,10C382.46,10 490,117.54 490,250C490,310.9 467.268,366.532 429.833,408.868" style="fill:none;stroke:rgb(120,120,120);stroke-width:6.61px;"/>
    </g>
    <g transform="matrix(-0.0941598,0.0673757,-0.0673757,-0.0941598,46.4033,36.6933)">
        <circle cx="118.076" cy="439.747" r="8.26" style="fill:rgb(250,145,145);"/>
    </g>
    <g transform="matrix(-0.0410403,0.0549295,-0.0549295,-0.0410403,32.2199,17.2116)">
        <circle cx="118.076" cy="439.747" r="8.26" style="fill:rgb(250,145,145);"/>
    </g>
    <g transform="matrix(-0.0307484,0.0837903,-0.0837903,-0.0307484,42.3019,12.0076)">
        <circle cx="118.076" cy="439.747" r="8.26" style="fill:rgb(250,145,145);"/>
    </g>
    <g transform="matrix(-0.0653774,0.0242847,-0.0242847,-0.0653774,27.1097,27.5467)">
        <circle cx="118.076" cy="439.747" r="8.26" style="fill:rgb(250,145,145);"/>
    </g>
</svg>
