<?xml version="1.0" encoding="UTF-8" standalone="no"?>
<!DOCTYPE svg PUBLIC "-//W3C//DTD SVG 1.1//EN" "http://www.w3.org/Graphics/SVG/1.1/DTD/svg11.dtd">
<svg width="100%" height="100%" viewBox="0 0 24 24" version="1.1" xmlns="http://www.w3.org/2000/svg" xmlns:xlink="http://www.w3.org/1999/xlink" xml:space="preserve" xmlns:serif="http://www.serif.com/" style="fill-rule:evenodd;clip-rule:evenodd;stroke-linecap:round;stroke-linejoin:round;stroke-miterlimit:1.5;">
    <g transform="matrix(-1.81514e-17,0.0453761,-0.0453761,-1.81514e-17,23.3183,0.651924)">
        <path d="M70.167,408.868C32.732,366.532 10,310.9 10,250C10,117.54 117.54,10 250,10C382.46,10 490,117.54 490,250C490,310.9 467.268,366.532 429.833,408.868" style="fill:none;stroke:rgb(120,120,120);stroke-width:6.61px;"/>
    </g>
    <g transform="matrix(0.041038,0,0,0.041038,2.11973,-1.33542)">
        <path d="M159.985,422.529C112.626,392.606 81.147,339.789 81.147,279.677C81.147,186.484 156.807,110.824 250,110.824C255.554,110.824 261.045,111.092 266.462,111.618C224.84,132.831 196.307,176.102 196.307,225.984C196.307,296.784 253.787,354.264 324.587,354.264C359.663,354.264 391.469,340.156 414.637,317.309C405.24,358.526 380.744,394.025 347.285,417.668" style="fill:none;stroke:rgb(120,120,120);stroke-width:7.31px;"/>
    </g>
    <g transform="matrix(0.0542435,0,0,0.0542435,-2.28809,-0.216974)">
        <path d="M223.032,371.234C201.578,371.234 184.159,353.816 184.159,332.362C184.159,310.907 201.578,293.489 223.032,293.489C227.491,293.489 231.775,294.241 235.766,295.626C235.381,293.432 235.18,291.176 235.18,288.873C235.18,267.418 252.598,250 274.052,250C294.42,250 311.149,265.698 312.793,285.644C315.692,284.589 318.822,284.014 322.084,284.014C336.122,284.014 347.692,294.667 349.142,308.324C353.132,306.595 357.533,305.637 362.155,305.637C380.257,305.637 394.954,320.333 394.954,338.435C394.954,356.538 380.257,371.234 362.155,371.234L223.032,371.234Z" style="fill:none;stroke:rgb(171,196,233);stroke-width:5.53px;"/>
    </g>
    <g transform="matrix(-0.0189392,0.114223,-0.114223,-0.0189392,53.7279,5.13067)">
        <circle cx="118.076" cy="439.747" r="8.26" style="fill:rgb(171,196,233);"/>
    </g>
    <g transform="matrix(0.00982111,0.0678609,-0.0678609,0.00982111,29.9231,1.38422)">
        <circle cx="118.076" cy="439.747" r="8.26" style="fill:rgb(171,196,233);"/>
    </g>
    <g transform="matrix(0.0375063,0.0809911,-0.0809911,0.0375063,33.3724,-9.42463)">
        <circle cx="118.076" cy="439.747" r="8.26" style="fill:rgb(171,196,233);"/>
    </g>
    <g transform="matrix(-0.0290569,0.0634007,-0.0634007,-0.0290569,33.6177,12.3056)">
        <circle cx="118.076" cy="439.747" r="8.26" style="fill:rgb(171,196,233);"/>
    </g>
</svg>
