<?xml version="1.0" encoding="UTF-8" standalone="no"?>
<!DOCTYPE svg PUBLIC "-//W3C//DTD SVG 1.1//EN" "http://www.w3.org/Graphics/SVG/1.1/DTD/svg11.dtd">
<svg width="100%" height="100%" viewBox="0 0 24 24" version="1.1" xmlns="http://www.w3.org/2000/svg" xmlns:xlink="http://www.w3.org/1999/xlink" xml:space="preserve" xmlns:serif="http://www.serif.com/" style="fill-rule:evenodd;clip-rule:evenodd;stroke-linecap:round;stroke-linejoin:round;stroke-miterlimit:1.5;">
    <g transform="matrix(0.0409638,0,0,0.0409638,0.954602,2.09885)">
        <circle cx="270.579" cy="242.148" r="147.631" style="fill:none;stroke:rgb(251,187,116);stroke-width:7.04px;"/>
    </g>
    <g transform="matrix(0.0461316,0,0,0.0461316,1.42827,-0.206079)">
        <path d="M381.093,264.986L418.601,264.986" style="fill:none;stroke:rgb(120,120,120);stroke-width:6.25px;"/>
    </g>
    <g transform="matrix(0.0461316,0,0,0.0461316,-15.6263,-0.206079)">
        <path d="M411.093,264.986L448.601,264.986" style="fill:none;stroke:rgb(120,120,120);stroke-width:6.25px;"/>
    </g>
    <g transform="matrix(0.0399512,0.0230658,-0.0230658,0.0399512,8.9619,-3.87348)">
        <path d="M381.093,264.986L403.601,264.986" style="fill:none;stroke:rgb(120,120,120);stroke-width:6.25px;"/>
    </g>
    <g transform="matrix(0.0399512,0.0230658,-0.0230658,0.0399512,-5.80777,-12.4008)">
        <path d="M426.093,264.986L448.601,264.986" style="fill:none;stroke:rgb(120,120,120);stroke-width:6.25px;"/>
    </g>
    <g transform="matrix(0.0230658,0.0399512,-0.0399512,0.0230658,17.3199,-3.28273)">
        <path d="M381.093,264.986L403.601,264.986" style="fill:none;stroke:rgb(120,120,120);stroke-width:6.25px;"/>
    </g>
    <g transform="matrix(0.0230658,0.0399512,-0.0399512,0.0230658,8.79264,-18.0524)">
        <path d="M426.093,264.986L448.601,264.986" style="fill:none;stroke:rgb(120,120,120);stroke-width:6.25px;"/>
    </g>
    <g transform="matrix(-0.0230658,0.0399512,-0.0399512,-0.0230658,27.9302,8.94152)">
        <path d="M381.093,264.986L403.601,264.986" style="fill:none;stroke:rgb(120,120,120);stroke-width:6.25px;"/>
    </g>
    <g transform="matrix(-0.0230658,0.0399512,-0.0399512,-0.0230658,36.4575,-5.82816)">
        <path d="M426.093,264.986L448.601,264.986" style="fill:none;stroke:rgb(120,120,120);stroke-width:6.25px;"/>
    </g>
    <g transform="matrix(-0.0399512,0.0230658,-0.0230658,-0.0399512,27.3394,17.2995)">
        <path d="M381.093,264.986L403.601,264.986" style="fill:none;stroke:rgb(120,120,120);stroke-width:6.25px;"/>
    </g>
    <g transform="matrix(-0.0399512,0.0230658,-0.0230658,-0.0399512,42.1091,8.77226)">
        <path d="M426.093,264.986L448.601,264.986" style="fill:none;stroke:rgb(120,120,120);stroke-width:6.25px;"/>
    </g>
    <g transform="matrix(2.82475e-18,0.0461316,-0.0461316,2.82475e-18,24.2628,1.40789)">
        <path d="M381.093,264.986L418.601,264.986" style="fill:none;stroke:rgb(120,120,120);stroke-width:6.25px;"/>
    </g>
    <g transform="matrix(2.82475e-18,0.0461316,-0.0461316,2.82475e-18,24.2628,-15.6467)">
        <path d="M411.093,264.986L448.601,264.986" style="fill:none;stroke:rgb(120,120,120);stroke-width:6.25px;"/>
    </g>
    <g transform="matrix(-0.0320857,0.0320857,-0.0320857,-0.0320857,28.0675,12.0235)">
        <path d="M70.167,408.868C32.732,366.532 10,310.9 10,250C10,117.54 117.54,10 250,10C382.46,10 490,117.54 490,250C490,310.9 467.268,366.532 429.833,408.868" style="fill:none;stroke:rgb(120,120,120);stroke-width:6.61px;"/>
    </g>
    <g transform="matrix(-0.0941598,0.0673757,-0.0673757,-0.0941598,46.4033,36.6933)">
        <circle cx="118.076" cy="439.747" r="8.26" style="fill:rgb(251,187,116);"/>
    </g>
    <g transform="matrix(-0.0410403,0.0549295,-0.0549295,-0.0410403,32.2199,17.2116)">
        <circle cx="118.076" cy="439.747" r="8.26" style="fill:rgb(251,187,116);"/>
    </g>
    <g transform="matrix(-0.0307484,0.0837903,-0.0837903,-0.0307484,42.3019,12.0076)">
        <circle cx="118.076" cy="439.747" r="8.26" style="fill:rgb(251,187,116);"/>
    </g>
    <g transform="matrix(-0.0653774,0.0242847,-0.0242847,-0.0653774,27.1097,27.5467)">
        <circle cx="118.076" cy="439.747" r="8.26" style="fill:rgb(251,187,116);"/>
    </g>
</svg>
