<?xml version="1.0" encoding="UTF-8" standalone="no"?>
<!DOCTYPE svg PUBLIC "-//W3C//DTD SVG 1.1//EN" "http://www.w3.org/Graphics/SVG/1.1/DTD/svg11.dtd">
<svg width="100%" height="100%" viewBox="0 0 24 24" version="1.1" xmlns="http://www.w3.org/2000/svg" xmlns:xlink="http://www.w3.org/1999/xlink" xml:space="preserve" xmlns:serif="http://www.serif.com/" style="fill-rule:evenodd;clip-rule:evenodd;stroke-linecap:round;stroke-linejoin:round;stroke-miterlimit:1.5;">
    <g transform="matrix(1.81514e-17,0.0453761,0.0453761,-1.81514e-17,0.0387566,0.655982)">
        <path d="M70.167,408.868C32.732,366.532 10,310.9 10,250C10,117.54 117.54,10 250,10C382.46,10 490,117.54 490,250C490,310.9 467.268,366.532 429.833,408.868" style="fill:none;stroke:rgb(120,120,120);stroke-width:6.61px;"/>
    </g>
    <g transform="matrix(0.0189392,0.114223,0.114223,-0.0189392,-30.3708,5.13473)">
        <circle cx="118.076" cy="439.747" r="8.26" style="fill:rgb(171,196,233);"/>
    </g>
    <g transform="matrix(-0.00982111,0.0678609,0.0678609,0.00982111,-6.56596,1.38828)">
        <circle cx="118.076" cy="439.747" r="8.26" style="fill:rgb(171,196,233);"/>
    </g>
    <g transform="matrix(-0.0375063,0.0809911,0.0809911,0.0375063,-10.0153,-9.42057)">
        <circle cx="118.076" cy="439.747" r="8.26" style="fill:rgb(171,196,233);"/>
    </g>
    <g transform="matrix(0.0290569,0.0634007,0.0634007,-0.0290569,-10.2605,12.3097)">
        <circle cx="118.076" cy="439.747" r="8.26" style="fill:rgb(171,196,233);"/>
    </g>
    <g transform="matrix(0.0513876,0,0,0.0513876,0.013179,-0.954695)">
        <path d="M184.134,146.662C184.134,139.787 178.553,134.206 171.679,134.206L92.795,134.206C85.921,134.206 80.34,139.787 80.34,146.662L80.34,225.545C80.34,232.419 85.921,238 92.795,238L171.679,238C178.553,238 184.134,232.419 184.134,225.545L184.134,146.662Z" style="fill:none;stroke:rgb(120,120,120);stroke-width:5.84px;"/>
    </g>
    <g transform="matrix(0.048,0,0,0.048,-0.712773,-1.01613)">
        <path d="M234.877,200.517L402.174,200.517" style="fill:none;stroke:rgb(120,120,120);stroke-width:6.25px;"/>
    </g>
    <g transform="matrix(0.0513876,0,0,0.0513876,0.013179,5.82791)">
        <path d="M184.134,146.662C184.134,139.787 178.553,134.206 171.679,134.206L92.795,134.206C85.921,134.206 80.34,139.787 80.34,146.662L80.34,225.545C80.34,232.419 85.921,238 92.795,238L171.679,238C178.553,238 184.134,232.419 184.134,225.545L184.134,146.662Z" style="fill:none;stroke:rgb(120,120,120);stroke-width:5.84px;"/>
    </g>
    <g transform="matrix(0.048,0,0,0.048,-0.712773,5.76648)">
        <path d="M234.877,200.517L402.174,200.517" style="fill:none;stroke:rgb(120,120,120);stroke-width:6.25px;"/>
    </g>
    <g transform="matrix(0.048,0,0,0.048,0,0)">
        <path d="M129.344,193.766L174.055,149.055C176.975,146.135 181.717,146.135 184.637,149.055C187.557,151.976 187.557,156.718 184.637,159.638L134.635,209.64C133.089,211.186 131.033,211.913 129.008,211.823L128.985,211.822C128.985,211.822 128.971,211.821 128.971,211.821C127.181,211.733 125.418,211.006 124.052,209.64C124.052,209.64 99.051,184.639 99.051,184.639C96.131,181.719 96.131,176.977 99.051,174.057C101.972,171.136 106.713,171.136 109.634,174.057L129.344,193.766Z" style="fill:none;stroke:rgb(171,196,233);stroke-width:6.25px;"/>
    </g>
</svg>
