<?xml version="1.0" encoding="UTF-8" standalone="no"?>
<!DOCTYPE svg PUBLIC "-//W3C//DTD SVG 1.1//EN" "http://www.w3.org/Graphics/SVG/1.1/DTD/svg11.dtd">
<svg width="100%" height="100%" viewBox="0 0 24 24" version="1.1" xmlns="http://www.w3.org/2000/svg" xmlns:xlink="http://www.w3.org/1999/xlink" xml:space="preserve" xmlns:serif="http://www.serif.com/" style="fill-rule:evenodd;clip-rule:evenodd;stroke-linecap:round;stroke-linejoin:round;stroke-miterlimit:1.5;">
    <g transform="matrix(0.0453761,-3.19744e-17,-3.19744e-17,-0.0453761,0.440856,23.7724)">
        <path d="M70.167,408.868C32.732,366.532 10,310.9 10,250C10,117.54 117.54,10 250,10C382.46,10 490,117.54 490,250C490,310.9 467.268,366.532 429.833,408.868" style="fill:none;stroke:rgb(120,120,120);stroke-width:6.61px;"/>
    </g>
    <g transform="matrix(0.114223,-0.0189392,-0.0189392,-0.114223,4.91961,54.1819)">
        <circle cx="118.076" cy="439.747" r="8.26" style="fill:rgb(171,196,233);"/>
    </g>
    <g transform="matrix(0.0678609,0.00982111,0.00982111,-0.0678609,1.17315,30.3771)">
        <circle cx="118.076" cy="439.747" r="8.26" style="fill:rgb(171,196,233);"/>
    </g>
    <g transform="matrix(0.0809911,0.0375063,0.0375063,-0.0809911,-9.6357,33.8264)">
        <circle cx="118.076" cy="439.747" r="8.26" style="fill:rgb(171,196,233);"/>
    </g>
    <g transform="matrix(0.0634007,-0.0290569,-0.0290569,-0.0634007,12.0946,34.0717)">
        <circle cx="118.076" cy="439.747" r="8.26" style="fill:rgb(171,196,233);"/>
    </g>
    <g transform="matrix(0.0531304,0,0,0.0517314,-3.03773,-2.12717)">
        <rect x="194.335" y="200.922" width="169.302" height="230.567" style="fill:none;stroke:rgb(120,120,120);stroke-width:5.72px;"/>
    </g>
    <g transform="matrix(0.0531304,0,0,0.0517314,-3.03773,-2.12717)">
        <path d="M344.809,200.922L344.809,162.248L194.335,200.922" style="fill:none;stroke:rgb(120,120,120);stroke-width:5.72px;"/>
    </g>
    <g transform="matrix(0.0531304,0,0,0.0517314,-3.03773,-2.12717)">
        <path d="M325.981,166.202L325.981,133.243L194.335,200.922" style="fill:none;stroke:rgb(120,120,120);stroke-width:5.72px;"/>
    </g>
    <g transform="matrix(0.048,0,0,0.048,-0.144923,1.51504)">
        <path d="M176.698,297.272L208.032,297.272" style="fill:none;stroke:rgb(120,120,120);stroke-width:6.25px;"/>
    </g>
    <g transform="matrix(0.048,0,0,0.048,5.24764,1.51504)">
        <path d="M124.032,297.272L208.032,297.272" style="fill:none;stroke:rgb(120,120,120);stroke-width:6.25px;"/>
    </g>
    <g transform="matrix(0.0451594,0,0,0.0451594,0.502553,0.726093)">
        <circle cx="202.101" cy="223.974" r="12.755" style="fill:none;stroke:rgb(171,196,233);stroke-width:6.64px;"/>
    </g>
    <g transform="matrix(0.0451594,0,0,0.0451594,2.87325,-0.112887)">
        <circle cx="202.101" cy="223.974" r="12.755" style="fill:none;stroke:rgb(171,196,233);stroke-width:6.64px;"/>
    </g>
    <g transform="matrix(0.048,0,0,0.048,-0.144923,2.85058)">
        <path d="M176.698,297.272L320.377,297.272" style="fill:none;stroke:rgb(120,120,120);stroke-width:6.25px;"/>
    </g>
    <g transform="matrix(0.048,0,0,0.048,-0.144923,4.18612)">
        <path d="M176.698,297.272L320.377,297.272" style="fill:none;stroke:rgb(120,120,120);stroke-width:6.25px;"/>
    </g>
    <g transform="matrix(0.048,0,0,0.048,1.19671,-0.453882)">
        <path d="M225.069,229.824L225.069,307.886" style="fill:none;stroke:rgb(171,196,233);stroke-width:6.25px;"/>
    </g>
    <g transform="matrix(-0.048,0,0,0.048,21.2814,-0.453882)">
        <path d="M234.472,247.302L220.069,268.855L220.069,307.886" style="fill:none;stroke:rgb(171,196,233);stroke-width:6.25px;"/>
    </g>
    <g transform="matrix(-0.0451594,0,0,0.0451594,23.4974,0.726093)">
        <circle cx="202.101" cy="223.974" r="12.755" style="fill:none;stroke:rgb(171,196,233);stroke-width:6.64px;"/>
    </g>
    <g transform="matrix(0.048,0,0,0.048,2.71863,-0.453882)">
        <path d="M234.472,247.302L220.069,268.855L220.069,307.886" style="fill:none;stroke:rgb(171,196,233);stroke-width:6.25px;"/>
    </g>
</svg>
