<?xml version="1.0" encoding="UTF-8" standalone="no"?>
<!DOCTYPE svg PUBLIC "-//W3C//DTD SVG 1.1//EN" "http://www.w3.org/Graphics/SVG/1.1/DTD/svg11.dtd">
<svg width="100%" height="100%" viewBox="0 0 24 24" version="1.1" xmlns="http://www.w3.org/2000/svg" xmlns:xlink="http://www.w3.org/1999/xlink" xml:space="preserve" xmlns:serif="http://www.serif.com/" style="fill-rule:evenodd;clip-rule:evenodd;stroke-linecap:round;stroke-linejoin:round;stroke-miterlimit:1.5;">
    <g transform="matrix(0.0673757,0.0941598,-0.0941598,0.0673757,36.7342,-22.3511)">
        <circle cx="118.076" cy="439.747" r="8.26" style="fill:rgb(185,225,157);"/>
    </g>
    <g transform="matrix(0.0549295,0.0410403,-0.0410403,0.0549295,17.2525,-8.16772)">
        <circle cx="118.076" cy="439.747" r="8.26" style="fill:rgb(185,225,157);"/>
    </g>
    <g transform="matrix(0.0837903,0.0307484,-0.0307484,0.0837903,12.0485,-18.2498)">
        <circle cx="118.076" cy="439.747" r="8.26" style="fill:rgb(185,225,157);"/>
    </g>
    <g transform="matrix(0.0242847,0.0653774,-0.0653774,0.0242847,27.5876,-3.05758)">
        <circle cx="118.076" cy="439.747" r="8.26" style="fill:rgb(185,225,157);"/>
    </g>
    <g transform="matrix(0.0320857,0.0320857,-0.0320857,0.0320857,12.0645,-4.0153)">
        <path d="M70.167,408.868C32.732,366.532 10,310.9 10,250C10,117.54 117.54,10 250,10C382.46,10 490,117.54 490,250C490,310.9 467.268,366.532 429.833,408.868" style="fill:none;stroke:rgb(120,120,120);stroke-width:6.61px;"/>
    </g>
    <g transform="matrix(0.0836517,0,0,0.0836517,-5.59507,-9.33369)">
        <path d="M143.882,254.822C139.468,245.465 137,235.013 137,223.989C137,184.014 169.454,151.56 209.429,151.56C249.403,151.56 281.857,184.014 281.857,223.989C281.857,234.99 279.399,245.421 275.003,254.764C274.757,255.974 219.779,351.621 219.779,351.621C217.017,356.406 211.389,358.513 206.311,357.028C203.348,356.273 200.681,354.372 199.034,351.518C199.034,351.518 144.13,256.012 143.882,254.822Z" style="fill:none;stroke:rgb(185,225,157);stroke-width:3.59px;"/>
    </g>
    <g transform="matrix(0.0812199,0,0,0.0812199,-9.30793,-8.93988)">
        <circle cx="261.428" cy="225.488" r="57.333" style="fill:none;stroke:rgb(185,225,157);stroke-width:3.69px;"/>
    </g>
    <g transform="matrix(0.0197695,0,0,0.0197695,4.21382,2.50983)">
        <circle cx="393.753" cy="245.762" r="64.765" style="fill:none;stroke:rgb(120,120,120);stroke-width:15.17px;"/>
    </g>
    <g transform="matrix(0.0217947,0,0,0.0412895,4.87022,-3.60025)">
        <path d="M450.923,376.306C450.923,340.252 395.47,310.982 327.168,310.982C258.866,310.982 203.413,340.252 203.413,376.306C203.413,376.306 258.866,385.979 327.168,385.979C395.47,385.979 450.923,376.306 450.923,376.306Z" style="fill:none;stroke:rgb(120,120,120);stroke-width:9.09px;"/>
    </g>
</svg>
