<?xml version="1.0" encoding="UTF-8" standalone="no"?>
<!DOCTYPE svg PUBLIC "-//W3C//DTD SVG 1.1//EN" "http://www.w3.org/Graphics/SVG/1.1/DTD/svg11.dtd">
<svg width="100%" height="100%" viewBox="0 0 24 24" version="1.1" xmlns="http://www.w3.org/2000/svg" xmlns:xlink="http://www.w3.org/1999/xlink" xml:space="preserve" xmlns:serif="http://www.serif.com/" style="fill-rule:evenodd;clip-rule:evenodd;stroke-linecap:round;stroke-linejoin:round;stroke-miterlimit:1.5;">
    <g transform="matrix(0.0453761,4.79616e-17,-4.79616e-17,0.0453761,0.631396,0.632447)">
        <path d="M70.167,408.868C32.732,366.532 10,310.9 10,250C10,117.54 117.54,10 250,10C382.46,10 490,117.54 490,250C490,310.9 467.268,366.532 429.833,408.868" style="fill:none;stroke:rgb(120,120,120);stroke-width:6.61px;"/>
    </g>
    <g transform="matrix(0.114223,0.0189392,-0.0189392,0.114223,5.11015,-29.7771)">
        <circle cx="118.076" cy="439.747" r="8.26" style="fill:rgb(250,145,145);"/>
    </g>
    <g transform="matrix(0.0678609,-0.00982111,0.00982111,0.0678609,1.36369,-5.97227)">
        <circle cx="118.076" cy="439.747" r="8.26" style="fill:rgb(250,145,145);"/>
    </g>
    <g transform="matrix(0.0809911,-0.0375063,0.0375063,0.0809911,-9.44516,-9.42158)">
        <circle cx="118.076" cy="439.747" r="8.26" style="fill:rgb(250,145,145);"/>
    </g>
    <g transform="matrix(0.0634007,0.0290569,-0.0290569,0.0634007,12.2851,-9.66686)">
        <circle cx="118.076" cy="439.747" r="8.26" style="fill:rgb(250,145,145);"/>
    </g>
    <g transform="matrix(0.0446358,0,0,0.0446358,0.636482,0.319909)">
        <path d="M254.599,119.342C341.49,119.342 412.034,189.886 412.034,276.776C412.034,363.666 341.49,434.21 254.599,434.21C167.709,434.21 97.165,363.666 97.165,276.776C97.165,189.886 167.709,119.342 254.599,119.342ZM254.599,152.383C323.253,152.383 378.992,208.122 378.992,276.776C378.992,345.43 323.253,401.169 254.599,401.169C185.945,401.169 130.207,345.43 130.207,276.776C130.207,208.122 185.945,152.383 254.599,152.383Z" style="fill:none;stroke:rgb(120,120,120);stroke-width:6.25px;"/>
    </g>
    <g transform="matrix(0.0446358,0,0,0.0446358,0.641525,-0.510072)">
        <circle cx="254.486" cy="295.371" r="24.425" style="fill:rgb(250,145,145);"/>
    </g>
    <g transform="matrix(0.0446358,0,0,0.0446358,0.636482,0.319909)">
        <path d="M254.599,185.668C304.883,185.668 345.707,226.492 345.707,276.776C345.707,327.06 304.883,367.884 254.599,367.884C204.315,367.884 163.491,327.06 163.491,276.776C163.491,226.492 204.315,185.668 254.599,185.668ZM254.599,218.727C286.637,218.727 312.648,244.738 312.648,276.776C312.648,308.814 286.637,334.825 254.599,334.825C222.561,334.825 196.55,308.814 196.55,276.776C196.55,244.738 222.561,218.727 254.599,218.727Z" style="fill:none;stroke:rgb(120,120,120);stroke-width:6.03px;"/>
    </g>
    <g transform="matrix(0.0446358,0,0,0.0446358,0.636482,0.319909)">
        <path d="M254.599,276.776L406.211,125.164" style="fill:none;stroke:rgb(120,120,120);stroke-width:6.25px;"/>
    </g>
    <g transform="matrix(0.0446358,0,0,0.0446358,0.376594,-2.84706)">
        <path d="M412.034,161.616L412.034,196.115L446.533,196.115" style="fill:none;stroke:rgb(120,120,120);stroke-width:6.25px;"/>
    </g>
    <g transform="matrix(0.0446358,0,0,0.0446358,-0.136711,-2.33699)">
        <path d="M412.034,161.616L412.034,196.115L446.533,196.115" style="fill:none;stroke:rgb(120,120,120);stroke-width:6.25px;"/>
    </g>
    <g transform="matrix(0.0446358,0,0,0.0446358,-0.650016,-1.83814)">
        <path d="M412.034,161.616L412.034,196.115L446.533,196.115" style="fill:none;stroke:rgb(120,120,120);stroke-width:6.25px;"/>
    </g>
    <g transform="matrix(0.0446358,0,0,0.0446358,-1.16332,-1.30714)">
        <path d="M412.034,161.616L412.034,196.115L446.533,196.115" style="fill:none;stroke:rgb(120,120,120);stroke-width:6.25px;"/>
    </g>
    <g transform="matrix(0.0446358,0,0,0.0446358,0.690728,0.319909)">
        <path d="M157.92,433.929L174.046,412.587" style="fill:none;stroke:rgb(120,120,120);stroke-width:6.25px;"/>
    </g>
    <g transform="matrix(-0.0446358,0,0,0.0446358,23.5428,0.319909)">
        <path d="M157.92,433.929L174.046,412.587" style="fill:none;stroke:rgb(120,120,120);stroke-width:6.25px;"/>
    </g>
</svg>
