<?xml version="1.0" encoding="UTF-8" standalone="no"?>
<!DOCTYPE svg PUBLIC "-//W3C//DTD SVG 1.1//EN" "http://www.w3.org/Graphics/SVG/1.1/DTD/svg11.dtd">
<svg width="100%" height="100%" viewBox="0 0 24 24" version="1.1" xmlns="http://www.w3.org/2000/svg" xmlns:xlink="http://www.w3.org/1999/xlink" xml:space="preserve" xmlns:serif="http://www.serif.com/" style="fill-rule:evenodd;clip-rule:evenodd;stroke-linecap:round;stroke-linejoin:round;stroke-miterlimit:1.5;">
    <g transform="matrix(0.0320857,0.0320857,-0.0320857,0.0320857,11.9997,-4.05696)">
        <path d="M70.167,408.868C32.732,366.532 10,310.9 10,250C10,117.54 117.54,10 250,10C382.46,10 490,117.54 490,250C490,310.9 467.268,366.532 429.833,408.868" style="fill:none;stroke:rgb(120,120,120);stroke-width:6.61px;"/>
    </g>
    <g transform="matrix(0.0673757,0.0941598,-0.0941598,0.0673757,36.6695,-22.3928)">
        <circle cx="118.076" cy="439.747" r="8.26" style="fill:rgb(171,196,233);"/>
    </g>
    <g transform="matrix(0.0549295,0.0410403,-0.0410403,0.0549295,17.1877,-8.20939)">
        <circle cx="118.076" cy="439.747" r="8.26" style="fill:rgb(171,196,233);"/>
    </g>
    <g transform="matrix(0.0837903,0.0307484,-0.0307484,0.0837903,11.9838,-18.2914)">
        <circle cx="118.076" cy="439.747" r="8.26" style="fill:rgb(171,196,233);"/>
    </g>
    <g transform="matrix(0.0242847,0.0653774,-0.0653774,0.0242847,27.5228,-3.09924)">
        <circle cx="118.076" cy="439.747" r="8.26" style="fill:rgb(171,196,233);"/>
    </g>
    <g transform="matrix(0.048,0,0,0.048,-0.0413828,0.406642)">
        <path d="M262.897,91.096L152.923,91.096C139.726,91.096 129.011,101.81 129.011,115.007L129.011,383.85C129.011,397.048 139.726,407.762 152.923,407.762L344.219,407.762C357.416,407.762 368.13,397.048 368.13,383.85L368.13,166.251" style="fill:none;stroke:rgb(120,120,120);stroke-width:6.25px;"/>
    </g>
    <g transform="matrix(0.048,0,0,0.0500817,-0.0622623,-0.409285)">
        <path d="M262.335,131.857L143.464,131.857L143.464,362.441L354.13,362.441L354.13,175.646" style="fill:none;stroke:rgb(120,120,120);stroke-width:6.25px;"/>
    </g>
    <g transform="matrix(0.048,0,0,0.048,-0.174262,0.377199)">
        <path d="M207.464,106.429L262.96,106.429" style="fill:none;stroke:rgb(120,120,120);stroke-width:6.25px;"/>
    </g>
    <g transform="matrix(0.048,0,0,0.048,-0.246096,0.338727)">
        <circle cx="252.627" cy="385.592" r="11.83" style="fill:none;stroke:rgb(120,120,120);stroke-width:6.25px;"/>
    </g>
    <g transform="matrix(0.048,0,0,0.048,0.227558,0.19556)">
        <path d="M289.536,171.186C314.123,186.684 330.472,214.081 330.472,245.266C330.472,293.561 291.263,332.771 242.968,332.771C194.673,332.771 155.464,293.561 155.464,245.266C155.464,196.971 194.673,157.762 242.968,157.762C247.512,157.762 251.975,158.109 256.333,158.778" style="fill:none;stroke:rgb(120,120,120);stroke-width:6.25px;"/>
    </g>
    <g transform="matrix(0.048,0,0,0.048,-0.12,0.345199)">
        <path d="M250.209,154.645L250.209,329.653" style="fill:none;stroke:rgb(120,120,120);stroke-width:6.25px;"/>
    </g>
    <g transform="matrix(2.93915e-18,0.048,-0.048,2.93915e-18,23.5132,-0.0416759)">
        <path d="M250.209,154.645L250.209,329.653" style="fill:none;stroke:rgb(120,120,120);stroke-width:6.25px;"/>
    </g>
    <g transform="matrix(2.93915e-18,0.048,-0.048,2.93915e-18,23.5132,-2.14178)">
        <path d="M250.209,167.645L250.209,317.653" style="fill:none;stroke:rgb(120,120,120);stroke-width:6.25px;"/>
    </g>
    <g transform="matrix(2.93915e-18,0.048,-0.048,2.93915e-18,23.5132,2.05842)">
        <path d="M250.209,167.645L250.209,317.653" style="fill:none;stroke:rgb(120,120,120);stroke-width:6.25px;"/>
    </g>
    <g transform="matrix(-0.048,5.8783e-18,-5.8783e-18,-0.048,26.0001,23.5915)">
        <path d="M293.961,154.645C293.961,154.645 250.209,182.044 250.209,241.545C250.209,267.085 258.27,286.933 267.472,301.27" style="fill:none;stroke:rgb(120,120,120);stroke-width:6.25px;"/>
    </g>
    <g transform="matrix(-0.048,5.8783e-18,-5.8783e-18,-0.048,26.0001,23.5915)">
        <path d="M280.415,317.779C287.966,325.734 293.961,329.653 293.961,329.653" style="fill:none;stroke:rgb(120,120,120);stroke-width:6.25px;"/>
    </g>
    <g transform="matrix(0.048,5.8783e-18,5.8783e-18,-0.048,-2.23012,23.5915)">
        <path d="M293.961,154.645C293.961,154.645 250.209,182.044 250.209,241.545C250.209,301.046 293.961,329.653 293.961,329.653" style="fill:none;stroke:rgb(120,120,120);stroke-width:6.25px;"/>
    </g>
    <g transform="matrix(0.0194401,0,0,0.0194401,10.8059,2.48229)">
        <path d="M90.948,134.792C90.948,104.077 115.885,79.14 146.601,79.14L361.296,79.14C392.012,79.14 416.948,104.077 416.948,134.792L416.948,246.097C416.948,276.812 392.012,301.749 361.296,301.749L154.774,301.749L107.164,349.359C106.044,350.48 104.713,351.261 103.298,351.705C102.415,351.982 101.477,352.134 100.504,352.14L100.448,352.14C100.407,352.14 100.367,352.14 100.326,352.139L100.276,352.138L100.219,352.137L100.162,352.136L100.105,352.134L100.048,352.132L99.991,352.129L99.96,352.128L99.899,352.124L99.839,352.121L99.818,352.119C99.493,352.098 99.173,352.06 98.858,352.007L98.826,352.002L98.768,351.991L98.709,351.981L98.703,351.98C96.88,351.641 95.138,350.768 93.729,349.359C92.32,347.951 91.447,346.208 91.109,344.385L91.101,344.344L91.097,344.321L91.087,344.262L91.081,344.231C91.028,343.916 90.99,343.595 90.969,343.271L90.968,343.25L90.964,343.189L90.961,343.129L90.958,343.068L90.957,343.041L90.955,342.984L90.953,342.927L90.951,342.87L90.95,342.813L90.949,342.762C90.949,342.722 90.948,342.681 90.948,342.641L90.948,342.64L90.948,134.792Z" style="fill:none;stroke:rgb(171,196,233);stroke-width:15.43px;"/>
    </g>
    <g transform="matrix(0.048,0,0,0.048,-0.0359871,0.135499)">
        <path d="M311.747,114.012C311.747,114.012 309.905,97.439 328.305,96.762C340.694,96.307 345.673,104.651 345.747,112.762C345.863,125.346 333.442,131.707 333.442,131.707C327.371,134.963 328.057,141.839 328.305,145.012" style="fill:none;stroke:rgb(120,120,120);stroke-width:6.25px;"/>
    </g>
    <g transform="matrix(0.0770873,0,0,0.0770873,-9.39165,-4.43115)">
        <circle cx="325.79" cy="156.611" r="2.182" style="fill:rgb(120,120,120);"/>
    </g>
</svg>
