<?xml version="1.0" encoding="UTF-8" standalone="no"?>
<!DOCTYPE svg PUBLIC "-//W3C//DTD SVG 1.1//EN" "http://www.w3.org/Graphics/SVG/1.1/DTD/svg11.dtd">
<svg width="100%" height="100%" viewBox="0 0 24 24" version="1.1" xmlns="http://www.w3.org/2000/svg" xmlns:xlink="http://www.w3.org/1999/xlink" xml:space="preserve" xmlns:serif="http://www.serif.com/" style="fill-rule:evenodd;clip-rule:evenodd;stroke-linecap:round;stroke-linejoin:round;stroke-miterlimit:1.5;">
    <g transform="matrix(0.0453761,2.15442e-17,-2.15442e-17,0.0453761,0.656725,-0.0881358)">
        <path d="M70.167,408.868C32.732,366.532 10,310.9 10,250C10,117.54 117.54,10 250,10C382.46,10 490,117.54 490,250C490,310.9 467.268,366.532 429.833,408.868" style="fill:none;stroke:rgb(120,120,120);stroke-width:6.61px;"/>
    </g>
    <g transform="matrix(0.114223,0.0189392,-0.0189392,0.114223,5.13548,-30.4977)">
        <circle cx="118.076" cy="439.747" r="8.26" style="fill:rgb(185,225,157);"/>
    </g>
    <g transform="matrix(0.0678609,-0.00982111,0.00982111,0.0678609,1.38902,-6.69285)">
        <circle cx="118.076" cy="439.747" r="8.26" style="fill:rgb(185,225,157);"/>
    </g>
    <g transform="matrix(0.0809911,-0.0375063,0.0375063,0.0809911,-9.41983,-10.1422)">
        <circle cx="118.076" cy="439.747" r="8.26" style="fill:rgb(185,225,157);"/>
    </g>
    <g transform="matrix(0.0634007,0.0290569,-0.0290569,0.0634007,12.3104,-10.3874)">
        <circle cx="118.076" cy="439.747" r="8.26" style="fill:rgb(185,225,157);"/>
    </g>
    <g transform="matrix(0.048,0,0,0.048,0,0)">
        <path d="M176.919,187.55L323.081,187.55C307.745,215.893 293.378,238.586 266.178,259.439L266.178,283.839L233.822,303.839L233.822,259.439C206.623,238.586 192.255,215.893 176.919,187.55Z" style="fill:none;stroke:rgb(120,120,120);stroke-width:5.83px;"/>
    </g>
    <g transform="matrix(0.048,0,0,0.048,0.322347,-0.350536)">
        <g transform="matrix(0.489006,0.00112983,-0.00116541,0.504408,183.376,202.683)">
            <path d="M179.492,391.751C167.094,402.001 151.195,408.163 133.868,408.163C94.311,408.163 62.196,376.048 62.196,336.492C62.196,296.935 94.311,264.82 133.868,264.82C151.331,264.82 167.343,271.079 179.783,281.474" style="fill:none;stroke:rgb(120,120,120);stroke-width:11.74px;"/>
        </g>
        <g transform="matrix(0.56794,0.0013122,-0.0013122,0.56794,176.996,189.313)">
            <path d="M46.469,307.094L145.287,307.094" style="fill:none;stroke:rgb(120,120,120);stroke-width:10.27px;"/>
        </g>
        <g transform="matrix(0.56794,0.0013122,-0.0013122,0.56794,176.959,205.044)">
            <path d="M46.469,307.094L132.653,307.094" style="fill:none;stroke:rgb(120,120,120);stroke-width:10.27px;"/>
        </g>
    </g>
    <g transform="matrix(0.048,0,0,0.048,0,0)">
        <path d="M323.081,187.55L176.919,187.55L156.919,150.321L343.081,150.321L323.081,187.55Z" style="fill:none;stroke:rgb(120,120,120);stroke-width:5.81px;"/>
    </g>
    <g transform="matrix(0.0583136,0,0,0.048,-2.57841,-1.787)">
        <path d="M343.081,150.321L326.618,187.55L173.382,187.55L156.919,150.321" style="fill:none;stroke:rgb(120,120,120);stroke-width:5.24px;"/>
    </g>
    <g transform="matrix(0.0686272,0,0,0.048,-5.15681,-3.574)">
        <path d="M329.092,187.55L170.908,187.55L156.919,150.321L343.081,150.321L329.092,187.55Z" style="fill:none;stroke:rgb(185,225,157);stroke-width:4.73px;"/>
    </g>
</svg>
