<?xml version="1.0" encoding="UTF-8" standalone="no"?>
<!DOCTYPE svg PUBLIC "-//W3C//DTD SVG 1.1//EN" "http://www.w3.org/Graphics/SVG/1.1/DTD/svg11.dtd">
<svg width="100%" height="100%" viewBox="0 0 24 24" version="1.1" xmlns="http://www.w3.org/2000/svg" xmlns:xlink="http://www.w3.org/1999/xlink" xml:space="preserve" xmlns:serif="http://www.serif.com/" style="fill-rule:evenodd;clip-rule:evenodd;stroke-linecap:round;stroke-linejoin:round;stroke-miterlimit:1.5;">
    <g transform="matrix(0.0504183,0.0135095,-0.0140099,0.0522857,2.19194,-5.53573)">
        <path d="M321.479,177.213L160.476,177.213L160.476,420.213L373.598,420.213L373.598,226.888" style="fill:none;stroke:rgb(120,120,120);stroke-width:5.64px;"/>
    </g>
    <g transform="matrix(0.0359648,0.00963674,-0.00963674,0.0359648,6.51968,-1.27618)">
        <path d="M309.476,177.213L381.858,249.596L309.476,249.596L309.476,177.213Z" style="fill:none;stroke:rgb(251,187,116);stroke-width:8.06px;"/>
    </g>
    <g transform="matrix(0.0504183,0.0135095,-0.0135095,0.0504183,2.1566,-5.19052)">
        <path d="M188.482,213.041L273.476,213.041" style="fill:none;stroke:rgb(120,120,120);stroke-width:5.75px;"/>
    </g>
    <g transform="matrix(0.0271235,0.0075056,-0.0075056,0.0271235,11.8034,3.00382)">
        <path d="M250,273.372C250,265.97 243.991,259.961 236.589,259.961L126.628,259.961C119.226,259.961 113.217,265.97 113.217,273.372L113.217,380.661C113.217,388.063 119.226,394.072 126.628,394.072L236.589,394.072C243.991,394.072 250,388.063 250,380.661L250,273.372Z" style="fill:none;stroke:rgb(120,120,120);stroke-width:10.66px;"/>
    </g>
    <g transform="matrix(0.0271235,0.0075056,-0.0075056,0.0271235,8.94488,6.11653)">
        <rect x="229.835" y="125.85" width="40.33" height="23.324" style="fill:none;stroke:rgb(120,120,120);stroke-width:10.66px;"/>
    </g>
    <g transform="matrix(0.0271235,0.0075056,-0.0075056,0.0271235,10.5457,7.77346)">
        <path d="M250,273.372C250,265.97 243.991,259.961 236.589,259.961L126.628,259.961C119.226,259.961 113.217,265.97 113.217,273.372L113.217,380.661C113.217,388.063 119.226,394.072 126.628,394.072L236.589,394.072C243.991,394.072 250,388.063 250,380.661L250,273.372Z" style="fill:none;stroke:rgb(120,120,120);stroke-width:10.66px;"/>
    </g>
    <g transform="matrix(0.0271235,0.0075056,-0.0075056,0.0271235,7.68409,10.8977)">
        <rect x="229.835" y="125.85" width="40.33" height="23.324" style="fill:none;stroke:rgb(120,120,120);stroke-width:10.66px;"/>
    </g>
    <g transform="matrix(0.0504183,0.0135095,-0.0135095,0.0504183,3.96127,-6.27752)">
        <path d="M344.862,429.213L373.598,429.213L373.598,177.213L160.476,177.213L160.476,205.553" style="fill:none;stroke:rgb(120,120,120);stroke-width:5.75px;"/>
    </g>
    <g transform="matrix(-0.0320857,0.0320857,-0.0320857,-0.0320857,28.0675,12.0235)">
        <path d="M70.167,408.868C32.732,366.532 10,310.9 10,250C10,117.54 117.54,10 250,10C382.46,10 490,117.54 490,250C490,310.9 467.268,366.532 429.833,408.868" style="fill:none;stroke:rgb(120,120,120);stroke-width:6.61px;"/>
    </g>
    <g transform="matrix(-0.0941598,0.0673757,-0.0673757,-0.0941598,46.4033,36.6933)">
        <circle cx="118.076" cy="439.747" r="8.26" style="fill:rgb(251,187,116);"/>
    </g>
    <g transform="matrix(-0.0410403,0.0549295,-0.0549295,-0.0410403,32.2199,17.2116)">
        <circle cx="118.076" cy="439.747" r="8.26" style="fill:rgb(251,187,116);"/>
    </g>
    <g transform="matrix(-0.0307484,0.0837903,-0.0837903,-0.0307484,42.3019,12.0076)">
        <circle cx="118.076" cy="439.747" r="8.26" style="fill:rgb(251,187,116);"/>
    </g>
    <g transform="matrix(-0.0653774,0.0242847,-0.0242847,-0.0653774,27.1097,27.5467)">
        <circle cx="118.076" cy="439.747" r="8.26" style="fill:rgb(251,187,116);"/>
    </g>
    <g transform="matrix(0.0464134,0.0122392,-0.0122392,0.0464134,-0.076639,-7.17036)">
        <path d="M331.39,334.858L250.727,334.858" style="fill:none;stroke:rgb(120,120,120);stroke-width:6.25px;"/>
    </g>
    <g transform="matrix(0.0464134,0.0122392,-0.0122392,0.0464134,-1.33439,-2.40072)">
        <path d="M331.39,334.858L250.727,334.858" style="fill:none;stroke:rgb(120,120,120);stroke-width:6.25px;"/>
    </g>
</svg>
