<?xml version="1.0" encoding="UTF-8" standalone="no"?>
<!DOCTYPE svg PUBLIC "-//W3C//DTD SVG 1.1//EN" "http://www.w3.org/Graphics/SVG/1.1/DTD/svg11.dtd">
<svg width="100%" height="100%" viewBox="0 0 24 24" version="1.1" xmlns="http://www.w3.org/2000/svg" xmlns:xlink="http://www.w3.org/1999/xlink" xml:space="preserve" xmlns:serif="http://www.serif.com/" style="fill-rule:evenodd;clip-rule:evenodd;stroke-linecap:round;stroke-linejoin:round;stroke-miterlimit:1.5;">
    <g transform="matrix(-0.0410078,5.02201e-18,5.02201e-18,0.0410078,25.2176,1.92389)">
        <circle cx="365.937" cy="201.682" r="57.333" style="fill:none;stroke:rgb(120,120,120);stroke-width:6.25px;"/>
    </g>
    <g transform="matrix(0.0466546,0,0,-0.0431907,-1.66226,20.9921)">
        <path d="M396.563,173.045C396.563,160.404 387.063,150.142 375.361,150.142L133.64,150.142C121.938,150.142 112.438,160.404 112.438,173.045L112.438,326.955C112.438,339.596 121.938,349.858 133.64,349.858L375.361,349.858C387.063,349.858 396.563,339.596 396.563,326.955L396.563,173.045Z" style="fill:none;stroke:rgb(120,120,120);stroke-width:6.67px;"/>
    </g>
    <g transform="matrix(0.0431907,0,0,-0.0431907,-0.288597,20.9921)">
        <path d="M335.13,172.929C335.605,193.852 352.74,210.692 373.776,210.692L373.776,288.414C352.441,288.414 335.12,305.735 335.119,327.071L151.095,327.071C151.095,305.736 133.773,288.414 112.438,288.414L112.438,210.692C133.474,210.692 150.609,193.852 151.085,172.929L335.13,172.929Z" style="fill:none;stroke:rgb(120,120,120);stroke-width:6.95px;"/>
    </g>
    <g transform="matrix(0.106938,0,0,-0.106938,-4.15369,31.0283)">
        <circle cx="134.331" cy="194.822" r="21.893" style="fill:none;stroke:rgb(120,120,120);stroke-width:2.81px;"/>
    </g>
    <g transform="matrix(0.0399594,0,0,-0.0399594,8.82594,17.9794)">
        <circle cx="134.331" cy="194.822" r="21.893" style="fill:none;stroke:rgb(120,120,120);stroke-width:7.51px;"/>
    </g>
    <g transform="matrix(0.0399594,0,0,-0.0399594,0.869497,17.9794)">
        <circle cx="134.331" cy="194.822" r="21.893" style="fill:none;stroke:rgb(120,120,120);stroke-width:7.51px;"/>
    </g>
    <g transform="matrix(0.048,0,0,-0.048,-0.288,23.8038)">
        <path d="M382.863,107.329C385.274,107.314 387.69,108.225 389.528,110.063C389.828,110.363 390.103,110.679 390.354,111.007L442.142,162.795C445.788,166.441 445.788,172.361 442.142,176.007C438.496,179.653 432.576,179.653 428.93,176.007L392.149,139.226L392.149,375.156C392.149,380.312 387.962,384.498 382.806,384.498C377.65,384.498 373.464,380.312 373.464,375.156L373.464,139.34L336.797,176.007C333.15,179.653 327.23,179.653 323.584,176.007C319.938,172.361 319.938,166.441 323.584,162.795L375.372,111.007C375.623,110.679 375.898,110.363 376.198,110.063C378.036,108.225 380.452,107.314 382.863,107.329Z" style="fill:none;stroke:rgb(185,225,157);stroke-width:6.25px;"/>
    </g>
    <g transform="matrix(0.0453761,2.15442e-17,-2.15442e-17,0.0453761,0.650055,0.26691)">
        <path d="M70.167,408.868C32.732,366.532 10,310.9 10,250C10,117.54 117.54,10 250,10C382.46,10 490,117.54 490,250C490,310.9 467.268,366.532 429.833,408.868" style="fill:none;stroke:rgb(120,120,120);stroke-width:6.61px;"/>
    </g>
    <g transform="matrix(0.114223,0.0189392,-0.0189392,0.114223,5.1288,-30.1426)">
        <circle cx="118.076" cy="439.747" r="8.26" style="fill:rgb(185,225,157);"/>
    </g>
    <g transform="matrix(0.0678609,-0.00982111,0.00982111,0.0678609,1.38235,-6.33781)">
        <circle cx="118.076" cy="439.747" r="8.26" style="fill:rgb(185,225,157);"/>
    </g>
    <g transform="matrix(0.0809911,-0.0375063,0.0375063,0.0809911,-9.4265,-9.78711)">
        <circle cx="118.076" cy="439.747" r="8.26" style="fill:rgb(185,225,157);"/>
    </g>
    <g transform="matrix(0.0634007,0.0290569,-0.0290569,0.0634007,12.3038,-10.0324)">
        <circle cx="118.076" cy="439.747" r="8.26" style="fill:rgb(185,225,157);"/>
    </g>
</svg>
