<?xml version="1.0" encoding="UTF-8" standalone="no"?>
<!DOCTYPE svg PUBLIC "-//W3C//DTD SVG 1.1//EN" "http://www.w3.org/Graphics/SVG/1.1/DTD/svg11.dtd">
<svg width="100%" height="100%" viewBox="0 0 24 24" version="1.1" xmlns="http://www.w3.org/2000/svg" xmlns:xlink="http://www.w3.org/1999/xlink" xml:space="preserve" xmlns:serif="http://www.serif.com/" style="fill-rule:evenodd;clip-rule:evenodd;stroke-linecap:round;stroke-linejoin:round;stroke-miterlimit:1.5;">
    <g transform="matrix(0.0455741,1.11624e-17,-1.11624e-17,0.0455741,-0.497106,1.66709)">
        <circle cx="365.937" cy="201.682" r="57.333" style="fill:none;stroke:rgb(120,120,120);stroke-width:6.25px;"/>
    </g>
    <g transform="matrix(0.0455741,1.11624e-17,-1.11624e-17,0.0455741,0.553014,2.08515)">
        <path d="M205.27,209.268L205.27,151.842C227.627,151.842 245.777,133.692 245.777,111.336L440.013,111.336C440.013,133.692 458.163,151.842 480.519,151.842L480.519,233.176C458.163,233.176 440.013,251.326 440.013,273.682L245.777,273.682C245.777,262.854 241.518,253.012 234.586,245.741" style="fill:none;stroke:rgb(120,120,120);stroke-width:6.24px;"/>
    </g>
    <g transform="matrix(0.0455741,1.11624e-17,-1.11624e-17,0.0455741,0.56629,2.48742)">
        <path d="M225.812,190.773C225.029,188.554 224.603,186.167 224.603,183.682C224.603,171.908 234.163,162.349 245.937,162.349C257.711,162.349 267.27,171.908 267.27,183.682C267.27,195.456 257.711,205.016 245.937,205.016" style="fill:none;stroke:rgb(120,120,120);stroke-width:6.25px;"/>
    </g>
    <g transform="matrix(0.0455741,1.11624e-17,-1.11624e-17,0.0455741,9.37729,2.48742)">
        <circle cx="245.937" cy="183.682" r="21.333" style="fill:none;stroke:rgb(120,120,120);stroke-width:6.25px;"/>
    </g>
    <g transform="matrix(0.0455741,1.11624e-17,-1.11624e-17,0.0455741,0.553014,0.201422)">
        <path d="M181.27,273.428L181.27,151.704C181.27,138.991 191.591,128.67 204.305,128.669L457.074,128.669C477.998,164.278 490,205.748 490,250C490,281.445 483.94,311.485 472.924,339.016L204.305,339.016C198.55,339.016 193.286,336.901 189.247,333.407" style="fill:none;stroke:rgb(120,120,120);stroke-width:6.11px;"/>
    </g>
    <g transform="matrix(-0.048,-5.8783e-18,5.8783e-18,-0.048,23.9948,23.645)">
        <path d="M344.427,457.043L344.427,198.997L290.165,253.258C281.823,261.6 268.277,261.6 259.935,253.258C251.593,244.916 251.593,231.37 259.935,223.028L350.331,132.632C350.447,132.51 350.564,132.39 350.683,132.271C353.853,129.102 357.774,127.136 361.875,126.375L361.889,126.373L361.92,126.367L361.968,126.358L361.991,126.354L362.021,126.349L362.073,126.34L362.152,126.326L362.223,126.314C362.932,126.194 363.653,126.109 364.383,126.061L364.431,126.058L364.499,126.054L364.567,126.05L364.619,126.047L364.645,126.046L364.666,126.044L364.703,126.042L364.743,126.041L364.773,126.039L364.805,126.038L364.84,126.036L364.869,126.035L364.901,126.033L364.945,126.032L364.977,126.03L364.998,126.03L365.029,126.028L365.086,126.027L365.114,126.026L365.157,126.024L365.228,126.022L365.285,126.021L365.389,126.019L365.414,126.018L365.528,126.016C365.619,126.015 365.71,126.015 365.801,126.015L365.805,126.015C365.896,126.015 365.986,126.015 366.077,126.016L366.192,126.018L366.32,126.021L366.354,126.022L366.377,126.022L366.448,126.024L366.491,126.026L366.52,126.027L366.576,126.028L366.607,126.03L366.628,126.03L366.661,126.032L366.704,126.033L366.736,126.035L366.765,126.036L366.801,126.038L366.833,126.039L366.862,126.041L366.902,126.042L366.939,126.044L366.961,126.046L366.986,126.047L367.038,126.05L367.089,126.053L367.106,126.054L367.175,126.058L367.222,126.061C367.953,126.109 368.673,126.194 369.382,126.314L369.453,126.326L369.584,126.349L369.614,126.354L369.638,126.358L369.685,126.367L369.716,126.373L369.73,126.375C373.831,127.136 377.752,129.102 380.922,132.271C381.041,132.39 381.158,132.51 381.274,132.632L471.67,223.028C473.447,224.805 474.846,226.818 475.866,228.967C476.368,234.241 476.689,239.567 476.824,244.939C475.808,247.981 474.09,250.838 471.67,253.258C463.328,261.6 449.782,261.6 441.44,253.258L387.179,198.997L387.179,431.395C373.983,441.431 359.657,450.056 344.427,457.043Z" style="fill:none;stroke:rgb(185,225,157);stroke-width:5.56px;"/>
    </g>
    <g transform="matrix(0.0453761,2.15442e-17,-2.15442e-17,0.0453761,0.650055,0.26691)">
        <path d="M70.167,408.868C32.732,366.532 10,310.9 10,250C10,117.54 117.54,10 250,10C382.46,10 490,117.54 490,250C490,310.9 467.268,366.532 429.833,408.868" style="fill:none;stroke:rgb(120,120,120);stroke-width:6.61px;"/>
    </g>
    <g transform="matrix(0.114223,0.0189392,-0.0189392,0.114223,5.1288,-30.1426)">
        <circle cx="118.076" cy="439.747" r="8.26" style="fill:rgb(185,225,157);"/>
    </g>
    <g transform="matrix(0.0678609,-0.00982111,0.00982111,0.0678609,1.38235,-6.33781)">
        <circle cx="118.076" cy="439.747" r="8.26" style="fill:rgb(185,225,157);"/>
    </g>
    <g transform="matrix(0.0809911,-0.0375063,0.0375063,0.0809911,-9.4265,-9.78711)">
        <circle cx="118.076" cy="439.747" r="8.26" style="fill:rgb(185,225,157);"/>
    </g>
    <g transform="matrix(0.0634007,0.0290569,-0.0290569,0.0634007,12.3038,-10.0324)">
        <circle cx="118.076" cy="439.747" r="8.26" style="fill:rgb(185,225,157);"/>
    </g>
</svg>
