<?xml version="1.0" encoding="UTF-8" standalone="no"?>
<!DOCTYPE svg PUBLIC "-//W3C//DTD SVG 1.1//EN" "http://www.w3.org/Graphics/SVG/1.1/DTD/svg11.dtd">
<svg width="100%" height="100%" viewBox="0 0 24 24" version="1.1" xmlns="http://www.w3.org/2000/svg" xmlns:xlink="http://www.w3.org/1999/xlink" xml:space="preserve" xmlns:serif="http://www.serif.com/" style="fill-rule:evenodd;clip-rule:evenodd;stroke-linecap:round;stroke-linejoin:round;stroke-miterlimit:1.5;">
    <g transform="matrix(-0.114223,-0.0189392,0.0189392,-0.114223,18.8243,53.8377)">
        <circle cx="118.076" cy="439.747" r="8.26" style="fill:rgb(171,196,233);"/>
    </g>
    <g transform="matrix(-0.0678609,0.00982111,-0.00982111,-0.0678609,22.5707,30.0329)">
        <circle cx="118.076" cy="439.747" r="8.26" style="fill:rgb(171,196,233);"/>
    </g>
    <g transform="matrix(-0.0809911,0.0375063,-0.0375063,-0.0809911,33.3796,33.4822)">
        <circle cx="118.076" cy="439.747" r="8.26" style="fill:rgb(171,196,233);"/>
    </g>
    <g transform="matrix(-0.0634007,-0.0290569,0.0290569,-0.0634007,11.6493,33.7275)">
        <circle cx="118.076" cy="439.747" r="8.26" style="fill:rgb(171,196,233);"/>
    </g>
    <g transform="matrix(-0.0453761,-5.06262e-17,5.06262e-17,-0.0453761,23.303,23.4282)">
        <path d="M70.167,408.868C32.732,366.532 10,310.9 10,250C10,117.54 117.54,10 250,10C382.46,10 490,117.54 490,250C490,310.9 467.268,366.532 429.833,408.868" style="fill:none;stroke:rgb(120,120,120);stroke-width:6.61px;"/>
    </g>
    <g transform="matrix(0.048,0,0,0.048,1.73039,-0.768)">
        <path d="M352.936,173.106C352.936,154.727 338.014,139.806 319.636,139.806L108.265,139.806C89.886,139.806 74.965,154.727 74.965,173.106L74.965,328.506C74.965,346.885 89.886,361.806 108.265,361.806L319.636,361.806C338.014,361.806 352.936,346.885 352.936,328.506L352.936,173.106Z" style="fill:none;stroke:rgb(120,120,120);stroke-width:6.25px;"/>
    </g>
    <g transform="matrix(0.048,0,0,0.016,1.73039,15.4178)">
        <path d="M352.936,210.846C352.936,171.638 342.325,139.806 329.256,139.806L98.645,139.806C85.576,139.806 74.965,171.638 74.965,210.846L74.965,290.766C74.965,329.974 85.576,361.806 98.645,361.806L329.256,361.806C342.325,361.806 352.936,329.974 352.936,290.766L352.936,210.846Z" style="fill:none;stroke:rgb(120,120,120);stroke-width:8.39px;"/>
    </g>
    <g transform="matrix(0.048,0,0,0.048,0.243308,-0.039796)">
        <circle cx="244.947" cy="405.635" r="19.829" style="fill:none;stroke:rgb(120,120,120);stroke-width:6.25px;"/>
    </g>
    <g transform="matrix(0.048474,0,0,0.0484273,-0.0741233,-0.0640126)">
        <rect x="137.204" y="149.806" width="223.761" height="168.5" style="fill:none;stroke:rgb(171,196,233);stroke-width:6.25px;"/>
    </g>
    <g transform="matrix(0.048,0,0,0.048,-0.717576,0)">
        <rect x="209.465" y="345.806" width="111" height="22" style="fill:none;stroke:rgb(120,120,120);stroke-width:6.25px;"/>
    </g>
    <g transform="matrix(0.048,0,0,0.048,0,-0.192)">
        <path d="M407.465,191.046C407.465,185.946 403.325,181.806 398.225,181.806C393.126,181.806 388.985,185.946 388.985,191.046L388.985,286.566C388.985,291.666 393.126,295.806 398.225,295.806C403.325,295.806 407.465,291.666 407.465,286.566L407.465,191.046Z" style="fill:none;stroke:rgb(120,120,120);stroke-width:6.25px;"/>
    </g>
    <g transform="matrix(0.048,0,0,0.048,-1.36424e-15,0.0159999)">
        <path d="M250.015,394.973L250.015,413.973" style="fill:none;stroke:rgb(171,196,233);stroke-width:6.25px;"/>
    </g>
</svg>
