<?xml version="1.0" encoding="UTF-8" standalone="no"?>
<!DOCTYPE svg PUBLIC "-//W3C//DTD SVG 1.1//EN" "http://www.w3.org/Graphics/SVG/1.1/DTD/svg11.dtd">
<svg width="100%" height="100%" viewBox="0 0 24 24" version="1.1" xmlns="http://www.w3.org/2000/svg" xmlns:xlink="http://www.w3.org/1999/xlink" xml:space="preserve" xmlns:serif="http://www.serif.com/" style="fill-rule:evenodd;clip-rule:evenodd;stroke-linecap:round;stroke-linejoin:round;stroke-miterlimit:1.5;">
    <g transform="matrix(0.0673757,0.0941598,-0.0941598,0.0673757,36.7342,-22.3511)">
        <circle cx="118.076" cy="439.747" r="8.26" style="fill:rgb(250,145,145);"/>
    </g>
    <g transform="matrix(0.0549295,0.0410403,-0.0410403,0.0549295,17.2525,-8.16772)">
        <circle cx="118.076" cy="439.747" r="8.26" style="fill:rgb(250,145,145);"/>
    </g>
    <g transform="matrix(0.0837903,0.0307484,-0.0307484,0.0837903,12.0485,-18.2498)">
        <circle cx="118.076" cy="439.747" r="8.26" style="fill:rgb(250,145,145);"/>
    </g>
    <g transform="matrix(0.0242847,0.0653774,-0.0653774,0.0242847,27.5876,-3.05758)">
        <circle cx="118.076" cy="439.747" r="8.26" style="fill:rgb(250,145,145);"/>
    </g>
    <g transform="matrix(0.0320857,0.0320857,-0.0320857,0.0320857,12.0645,-4.0153)">
        <path d="M70.167,408.868C32.732,366.532 10,310.9 10,250C10,117.54 117.54,10 250,10C382.46,10 490,117.54 490,250C490,310.9 467.268,366.532 429.833,408.868" style="fill:none;stroke:rgb(120,120,120);stroke-width:6.61px;"/>
    </g>
    <g transform="matrix(0.0563769,0,0,0.0563769,-2.46895,-1.16708)">
        <circle cx="255.298" cy="232.81" r="143.25" style="fill:none;stroke:rgb(120,120,120);stroke-width:5.32px;"/>
    </g>
    <g transform="matrix(0.0430393,0,0,0.0430393,0.936109,1.93804)">
        <circle cx="255.298" cy="232.81" r="143.25" style="fill:none;stroke:rgb(120,120,120);stroke-width:6.97px;"/>
    </g>
    <g transform="matrix(0.036724,-0.036724,0.0253694,0.0253694,-0.770466,18.9189)">
        <path d="M227.548,332.682L227.548,414.015" style="fill:none;stroke:rgb(120,120,120);stroke-width:6.72px;"/>
    </g>
    <g transform="matrix(0.036724,-0.036724,0.0253694,0.0253694,0.19833,17.9677)">
        <path d="M281.548,413.826L281.548,332.115" style="fill:none;stroke:rgb(120,120,120);stroke-width:6.72px;"/>
    </g>
    <g transform="matrix(0.0519356,0,0,0.0519356,1.04717,-1.26106)">
        <path d="M143.882,254.822C139.468,245.465 137,235.013 137,223.989C137,184.014 169.454,151.56 209.429,151.56C249.403,151.56 281.857,184.014 281.857,223.989C281.857,234.99 279.399,245.421 275.003,254.764C274.757,255.974 219.779,351.621 219.779,351.621C217.017,356.406 211.389,358.513 206.311,357.028C203.348,356.273 200.681,354.372 199.034,351.518C199.034,351.518 144.13,256.012 143.882,254.822Z" style="fill:none;stroke:rgb(250,145,145);stroke-width:5.78px;"/>
    </g>
    <g transform="matrix(0.0504259,0,0,0.0504259,-1.25798,-1.01656)">
        <circle cx="261.428" cy="225.488" r="57.333" style="fill:none;stroke:rgb(250,145,145);stroke-width:5.95px;"/>
    </g>
    <g transform="matrix(0.0261332,0,0,0.0269563,8.44296,1.28328)">
        <path d="M179.492,391.751C167.094,402.001 151.195,408.163 133.868,408.163C94.311,408.163 62.196,376.048 62.196,336.492C62.196,296.935 94.311,264.82 133.868,264.82C151.331,264.82 167.343,271.079 179.783,281.474" style="fill:none;stroke:rgb(120,120,120);stroke-width:11.3px;"/>
    </g>
</svg>
