<?xml version="1.0" encoding="UTF-8" standalone="no"?>
<!DOCTYPE svg PUBLIC "-//W3C//DTD SVG 1.1//EN" "http://www.w3.org/Graphics/SVG/1.1/DTD/svg11.dtd">
<svg width="100%" height="100%" viewBox="0 0 24 24" version="1.1" xmlns="http://www.w3.org/2000/svg" xmlns:xlink="http://www.w3.org/1999/xlink" xml:space="preserve" xmlns:serif="http://www.serif.com/" style="fill-rule:evenodd;clip-rule:evenodd;stroke-linecap:round;stroke-linejoin:round;stroke-miterlimit:1.5;">
    <g transform="matrix(0.0452036,0,0,0.0452036,0.195712,0.0401417)">
        <path d="M309.524,290.087C270.702,349.208 270.862,434.762 319.728,431.487C298.808,444.186 117.959,385.781 100.583,363.46C66.403,319.551 65.68,271.875 75.316,223.032L309.524,290.087Z" style="fill:none;stroke:rgb(120,120,120);stroke-width:6.64px;"/>
    </g>
    <g transform="matrix(0.0452036,0,0,0.0452036,0.195712,0.0401417)">
        <path d="M445.108,108.519C434.475,223.436 399.135,409.902 319.728,431.487" style="fill:none;stroke:rgb(120,120,120);stroke-width:6.64px;"/>
    </g>
    <g transform="matrix(0.0452036,0,0,0.0452036,0.195712,0.0401417)">
        <path d="M202.255,31.736C193.182,124.879 185.593,227.921 165.723,249" style="fill:none;stroke:rgb(120,120,120);stroke-width:6.64px;"/>
    </g>
    <g transform="matrix(0.0320857,0.0320857,-0.0320857,0.0320857,12.0197,-4.13161)">
        <path d="M70.167,408.868C32.732,366.532 10,310.9 10,250C10,117.54 117.54,10 250,10C382.46,10 490,117.54 490,250C490,310.9 467.268,366.532 429.833,408.868" style="fill:none;stroke:rgb(120,120,120);stroke-width:6.61px;"/>
    </g>
    <g transform="matrix(0.0673757,0.0941598,-0.0941598,0.0673757,36.6895,-22.4675)">
        <circle cx="118.076" cy="439.747" r="8.26" style="fill:rgb(185,225,157);"/>
    </g>
    <g transform="matrix(0.0549295,0.0410403,-0.0410403,0.0549295,17.2078,-8.28404)">
        <circle cx="118.076" cy="439.747" r="8.26" style="fill:rgb(185,225,157);"/>
    </g>
    <g transform="matrix(0.0837903,0.0307484,-0.0307484,0.0837903,12.0038,-18.3661)">
        <circle cx="118.076" cy="439.747" r="8.26" style="fill:rgb(185,225,157);"/>
    </g>
    <g transform="matrix(0.0242847,0.0653774,-0.0653774,0.0242847,27.5429,-3.17389)">
        <circle cx="118.076" cy="439.747" r="8.26" style="fill:rgb(185,225,157);"/>
    </g>
    <g transform="matrix(0.0289457,0.00562272,-0.00579982,0.0298574,15.07,-4.79075)">
        <path d="M179.492,391.751C167.094,402.001 151.195,408.163 133.868,408.163C94.311,408.163 62.196,376.048 62.196,336.492C62.196,296.935 94.311,264.82 133.868,264.82C151.331,264.82 167.343,271.079 179.783,281.474" style="fill:none;stroke:rgb(120,120,120);stroke-width:10.02px;"/>
    </g>
    <g transform="matrix(0.033618,0.00653033,-0.00653033,0.033618,14.844,-5.65499)">
        <path d="M46.469,307.094L145.287,307.094" style="fill:none;stroke:rgb(120,120,120);stroke-width:8.76px;"/>
    </g>
    <g transform="matrix(0.033618,0.00653033,-0.00653033,0.033618,14.6632,-4.72387)">
        <path d="M46.469,307.094L132.653,307.094" style="fill:none;stroke:rgb(120,120,120);stroke-width:8.76px;"/>
    </g>
    <g transform="matrix(0.0471064,0.00921896,-0.00921896,0.0471064,3.05537,-6.61394)">
        <path d="M196.307,198.251L259.475,198.251" style="fill:none;stroke:rgb(185,225,157);stroke-width:6.25px;"/>
    </g>
    <g transform="matrix(0.0289457,0.00562272,-0.00579982,0.0298574,14.0173,0.588256)">
        <path d="M179.492,391.751C167.094,402.001 151.195,408.163 133.868,408.163C94.311,408.163 62.196,376.048 62.196,336.492C62.196,296.935 94.311,264.82 133.868,264.82C151.331,264.82 167.343,271.079 179.783,281.474" style="fill:none;stroke:rgb(120,120,120);stroke-width:10.02px;"/>
    </g>
    <g transform="matrix(0.033618,0.00653033,-0.00653033,0.033618,13.7913,-0.275978)">
        <path d="M46.469,307.094L145.287,307.094" style="fill:none;stroke:rgb(120,120,120);stroke-width:8.76px;"/>
    </g>
    <g transform="matrix(0.033618,0.00653033,-0.00653033,0.033618,13.6105,0.655134)">
        <path d="M46.469,307.094L132.653,307.094" style="fill:none;stroke:rgb(120,120,120);stroke-width:8.76px;"/>
    </g>
    <g transform="matrix(0.0471064,0.00921896,-0.00921896,0.0471064,2.00267,-1.23493)">
        <path d="M196.307,198.251L259.475,198.251" style="fill:none;stroke:rgb(185,225,157);stroke-width:6.25px;"/>
    </g>
</svg>
