<?xml version="1.0" encoding="UTF-8" standalone="no"?>
<!DOCTYPE svg PUBLIC "-//W3C//DTD SVG 1.1//EN" "http://www.w3.org/Graphics/SVG/1.1/DTD/svg11.dtd">
<svg width="100%" height="100%" viewBox="0 0 24 24" version="1.1" xmlns="http://www.w3.org/2000/svg" xmlns:xlink="http://www.w3.org/1999/xlink" xml:space="preserve" xmlns:serif="http://www.serif.com/" style="fill-rule:evenodd;clip-rule:evenodd;stroke-linecap:round;stroke-linejoin:round;stroke-miterlimit:1.5;">
    <g transform="matrix(0.0520059,0,0,0.0520059,-3.32965,-2.35398)">
        <circle cx="369.278" cy="172.015" r="52.236" style="fill:none;stroke:rgb(120,120,120);stroke-width:5.77px;"/>
    </g>
    <g transform="matrix(0.0463534,0,0,0.0463534,0.189101,0.132936)">
        <path d="M138.447,262.808L153.932,205.018C139.049,193.926 131.623,174.489 136.716,155.48C141.44,137.849 155.676,125.285 172.423,121.829L162.491,158.898C160.998,164.469 164.309,170.205 169.881,171.697L190.07,177.107C195.641,178.6 201.377,175.289 202.87,169.717L212.802,132.648C225.578,144.016 231.624,162.014 226.9,179.645C221.807,198.654 205.657,211.773 187.222,213.938L171.696,271.879L154.94,264.677C149.544,262.358 143.826,261.822 138.447,262.808Z" style="fill:none;stroke:rgb(251,187,116);stroke-width:6.47px;"/>
    </g>
    <g transform="matrix(0.0463534,0,0,0.0463534,0.189101,0.132936)">
        <path d="M319.39,298.327L264.168,353.548C260.292,357.424 255.581,359.961 250.612,361.158C244.405,362.99 237.548,362.75 231.144,359.998L132.241,317.487C117.668,311.223 110.922,294.306 117.186,279.733C123.45,265.159 140.367,258.413 154.94,264.677L236.634,299.791L305.944,231.681" style="fill:none;stroke:rgb(120,120,120);stroke-width:6.47px;"/>
    </g>
    <g transform="matrix(0.0463534,0,0,0.0683549,-0.564142,-5.83741)">
        <path d="M296.043,317.036L296.043,417.548" style="fill:none;stroke:rgb(120,120,120);stroke-width:5.14px;"/>
    </g>
    <g transform="matrix(0.0463534,0,0,0.0683549,-0.564142,-5.83741)">
        <path d="M413.253,380.316L413.253,277.522C413.253,255.588 386.993,237.78 354.648,237.78C342.933,237.78 329.683,239.89 322.857,244.138" style="fill:none;stroke:rgb(120,120,120);stroke-width:5.14px;"/>
    </g>
    <g transform="matrix(1.81514e-17,0.0453761,0.0453761,-1.81514e-17,0.0387566,0.655982)">
        <path d="M70.167,408.868C32.732,366.532 10,310.9 10,250C10,117.54 117.54,10 250,10C382.46,10 490,117.54 490,250C490,310.9 467.268,366.532 429.833,408.868" style="fill:none;stroke:rgb(120,120,120);stroke-width:6.61px;"/>
    </g>
    <g transform="matrix(0.0189392,0.114223,0.114223,-0.0189392,-30.3708,5.13473)">
        <circle cx="118.076" cy="439.747" r="8.26" style="fill:rgb(251,187,116);"/>
    </g>
    <g transform="matrix(-0.00982111,0.0678609,0.0678609,0.00982111,-6.56596,1.38828)">
        <circle cx="118.076" cy="439.747" r="8.26" style="fill:rgb(251,187,116);"/>
    </g>
    <g transform="matrix(-0.0375063,0.0809911,0.0809911,0.0375063,-10.0153,-9.42057)">
        <circle cx="118.076" cy="439.747" r="8.26" style="fill:rgb(251,187,116);"/>
    </g>
    <g transform="matrix(0.0290569,0.0634007,0.0634007,-0.0290569,-10.2605,12.3097)">
        <circle cx="118.076" cy="439.747" r="8.26" style="fill:rgb(251,187,116);"/>
    </g>
</svg>
