<?xml version="1.0" encoding="UTF-8" standalone="no"?>
<!DOCTYPE svg PUBLIC "-//W3C//DTD SVG 1.1//EN" "http://www.w3.org/Graphics/SVG/1.1/DTD/svg11.dtd">
<svg width="100%" height="100%" viewBox="0 0 24 24" version="1.1" xmlns="http://www.w3.org/2000/svg" xmlns:xlink="http://www.w3.org/1999/xlink" xml:space="preserve" xmlns:serif="http://www.serif.com/" style="fill-rule:evenodd;clip-rule:evenodd;stroke-linecap:round;stroke-linejoin:round;stroke-miterlimit:1.5;">
    <g transform="matrix(1.81514e-17,0.0453761,0.0453761,-1.81514e-17,0.0387566,0.655982)">
        <path d="M70.167,408.868C32.732,366.532 10,310.9 10,250C10,117.54 117.54,10 250,10C382.46,10 490,117.54 490,250C490,310.9 467.268,366.532 429.833,408.868" style="fill:none;stroke:rgb(120,120,120);stroke-width:6.61px;"/>
    </g>
    <g transform="matrix(0.0189392,0.114223,0.114223,-0.0189392,-30.3708,5.13473)">
        <circle cx="118.076" cy="439.747" r="8.26" style="fill:rgb(251,187,116);"/>
    </g>
    <g transform="matrix(-0.00982111,0.0678609,0.0678609,0.00982111,-6.56596,1.38828)">
        <circle cx="118.076" cy="439.747" r="8.26" style="fill:rgb(251,187,116);"/>
    </g>
    <g transform="matrix(-0.0375063,0.0809911,0.0809911,0.0375063,-10.0153,-9.42057)">
        <circle cx="118.076" cy="439.747" r="8.26" style="fill:rgb(251,187,116);"/>
    </g>
    <g transform="matrix(0.0290569,0.0634007,0.0634007,-0.0290569,-10.2605,12.3097)">
        <circle cx="118.076" cy="439.747" r="8.26" style="fill:rgb(251,187,116);"/>
    </g>
    <g transform="matrix(0.0339411,-0.0339411,0.0339411,0.0339411,-4.61625,12.1165)">
        <path d="M197.207,227.704C161.719,213.287 136.669,178.453 136.669,137.814C136.669,99.894 158.479,67.028 190.228,51.087L190.228,130.814C190.228,142.797 199.956,152.525 211.939,152.525L255.362,152.525C267.344,152.525 277.073,142.797 277.073,130.814L277.073,51.087C308.822,67.028 330.632,99.894 330.632,137.814C330.632,178.453 305.582,213.287 270.094,227.704L270.094,374.276C270.094,394.39 253.764,410.719 233.65,410.719C213.537,410.719 197.207,394.39 197.207,374.276L197.207,227.704Z" style="fill:none;stroke:rgb(120,120,120);stroke-width:6.25px;"/>
    </g>
    <g transform="matrix(0.0281983,-0.0281983,0.0281983,0.0281983,-2.24063,12.3196)">
        <circle cx="242.711" cy="404.519" r="19.679" style="fill:none;stroke:rgb(251,187,116);stroke-width:7.52px;"/>
    </g>
</svg>
