<?xml version="1.0" encoding="UTF-8" standalone="no"?>
<!DOCTYPE svg PUBLIC "-//W3C//DTD SVG 1.1//EN" "http://www.w3.org/Graphics/SVG/1.1/DTD/svg11.dtd">
<svg width="100%" height="100%" viewBox="0 0 24 24" version="1.1" xmlns="http://www.w3.org/2000/svg" xmlns:xlink="http://www.w3.org/1999/xlink" xml:space="preserve" xmlns:serif="http://www.serif.com/" style="fill-rule:evenodd;clip-rule:evenodd;stroke-linecap:round;stroke-linejoin:round;stroke-miterlimit:1.5;">
    <g transform="matrix(0.0554323,0,0,0.0554323,-1.8446,-3.99437)">
        <path d="M94.266,404.762L405.248,404.762" style="fill:none;stroke:rgb(120,120,120);stroke-width:5.41px;"/>
    </g>
    <g transform="matrix(0.0554323,0,0,0.0554323,-1.69,-3.4018)">
        <rect x="121.477" y="394.072" width="40.33" height="22.838" style="fill:none;stroke:rgb(120,120,120);stroke-width:5.41px;"/>
    </g>
    <g transform="matrix(0.0554323,0,0,0.0554323,4.14844,-3.4018)">
        <rect x="121.477" y="394.072" width="40.33" height="22.838" style="fill:none;stroke:rgb(120,120,120);stroke-width:5.41px;"/>
    </g>
    <g transform="matrix(0.0554323,0,0,0.0554323,9.98688,-3.4018)">
        <rect x="121.477" y="394.072" width="40.33" height="22.838" style="fill:none;stroke:rgb(120,120,120);stroke-width:5.41px;"/>
    </g>
    <g transform="matrix(0.0554323,0,0,0.0554323,-1.85807,-3.4018)">
        <path d="M250,273.372C250,265.97 243.991,259.961 236.589,259.961L126.628,259.961C119.226,259.961 113.217,265.97 113.217,273.372L113.217,380.661C113.217,388.063 119.226,394.072 126.628,394.072L236.589,394.072C243.991,394.072 250,388.063 250,380.661L250,273.372Z" style="fill:none;stroke:rgb(120,120,120);stroke-width:5.41px;"/>
    </g>
    <g transform="matrix(0.0554323,0,0,0.0554323,5.72414,-3.4018)">
        <path d="M250,273.372C250,265.97 243.991,259.961 236.589,259.961L126.628,259.961C119.226,259.961 113.217,265.97 113.217,273.372L113.217,380.661C113.217,388.063 119.226,394.072 126.628,394.072L236.589,394.072C243.991,394.072 250,388.063 250,380.661L250,273.372Z" style="fill:none;stroke:rgb(120,120,120);stroke-width:5.41px;"/>
    </g>
    <g transform="matrix(0.0554323,0,0,0.0554323,1.93303,-10.8359)">
        <path d="M250,273.372C250,265.97 243.991,259.961 236.589,259.961L126.628,259.961C119.226,259.961 113.217,265.97 113.217,273.372L113.217,380.661C113.217,388.063 119.226,394.072 126.628,394.072L236.589,394.072C243.991,394.072 250,388.063 250,380.661L250,273.372Z" style="fill:none;stroke:rgb(120,120,120);stroke-width:5.41px;"/>
    </g>
    <g transform="matrix(0.0554323,0,0,0.0554323,-1.85807,-3.4018)">
        <rect x="229.835" y="125.85" width="40.33" height="23.324" style="fill:none;stroke:rgb(251,187,116);stroke-width:5.41px;"/>
    </g>
    <g transform="matrix(0.0554323,0,0,0.0554323,-5.64918,4.03227)">
        <rect x="229.835" y="125.85" width="40.33" height="23.324" style="fill:none;stroke:rgb(251,187,116);stroke-width:5.41px;"/>
    </g>
    <g transform="matrix(0.0554323,0,0,0.0554323,1.93303,4.03227)">
        <rect x="229.835" y="125.85" width="40.33" height="23.324" style="fill:none;stroke:rgb(251,187,116);stroke-width:5.41px;"/>
    </g>
    <g transform="matrix(0.0453761,2.15442e-17,-2.15442e-17,0.0453761,0.655982,0.471631)">
        <path d="M70.167,408.868C32.732,366.532 10,310.9 10,250C10,117.54 117.54,10 250,10C382.46,10 490,117.54 490,250C490,310.9 467.268,366.532 429.833,408.868" style="fill:none;stroke:rgb(120,120,120);stroke-width:6.61px;"/>
    </g>
    <g transform="matrix(0.114223,0.0189392,-0.0189392,0.114223,5.13473,-29.9379)">
        <circle cx="118.076" cy="439.747" r="8.26" style="fill:rgb(251,187,116);"/>
    </g>
    <g transform="matrix(0.0678609,-0.00982111,0.00982111,0.0678609,1.38828,-6.13308)">
        <circle cx="118.076" cy="439.747" r="8.26" style="fill:rgb(251,187,116);"/>
    </g>
    <g transform="matrix(0.0809911,-0.0375063,0.0375063,0.0809911,-9.42057,-9.58239)">
        <circle cx="118.076" cy="439.747" r="8.26" style="fill:rgb(251,187,116);"/>
    </g>
    <g transform="matrix(0.0634007,0.0290569,-0.0290569,0.0634007,12.3097,-9.82767)">
        <circle cx="118.076" cy="439.747" r="8.26" style="fill:rgb(251,187,116);"/>
    </g>
</svg>
