<?xml version="1.0" encoding="UTF-8" standalone="no"?>
<!DOCTYPE svg PUBLIC "-//W3C//DTD SVG 1.1//EN" "http://www.w3.org/Graphics/SVG/1.1/DTD/svg11.dtd">
<svg width="100%" height="100%" viewBox="0 0 24 24" version="1.1" xmlns="http://www.w3.org/2000/svg" xmlns:xlink="http://www.w3.org/1999/xlink" xml:space="preserve" xmlns:serif="http://www.serif.com/" style="fill-rule:evenodd;clip-rule:evenodd;stroke-linecap:round;stroke-linejoin:round;stroke-miterlimit:1.5;">
    <g transform="matrix(-0.0320857,0.0320857,-0.0320857,-0.0320857,28.0436,12.034)">
        <path d="M70.167,408.868C32.732,366.532 10,310.9 10,250C10,117.54 117.54,10 250,10C382.46,10 490,117.54 490,250C490,310.9 467.268,366.532 429.833,408.868" style="fill:none;stroke:rgb(120,120,120);stroke-width:6.61px;"/>
    </g>
    <g transform="matrix(-0.0941598,0.0673757,-0.0673757,-0.0941598,46.3795,36.7038)">
        <circle cx="118.076" cy="439.747" r="8.26" style="fill:rgb(251,187,116);"/>
    </g>
    <g transform="matrix(-0.0410403,0.0549295,-0.0549295,-0.0410403,32.196,17.2221)">
        <circle cx="118.076" cy="439.747" r="8.26" style="fill:rgb(251,187,116);"/>
    </g>
    <g transform="matrix(-0.0307484,0.0837903,-0.0837903,-0.0307484,42.2781,12.0181)">
        <circle cx="118.076" cy="439.747" r="8.26" style="fill:rgb(251,187,116);"/>
    </g>
    <g transform="matrix(-0.0653774,0.0242847,-0.0242847,-0.0653774,27.0859,27.5572)">
        <circle cx="118.076" cy="439.747" r="8.26" style="fill:rgb(251,187,116);"/>
    </g>
    <g transform="matrix(0.0446509,0,0,0.0446509,-5.57283,-2.72981)">
        <path d="M454.258,222.629C457.01,229.815 458.518,237.614 458.518,245.762C458.518,281.507 429.498,310.527 393.753,310.527C358.009,310.527 328.989,281.507 328.989,245.762C328.989,237.996 330.359,230.548 332.869,223.646" style="fill:none;stroke:rgb(120,120,120);stroke-width:6.72px;"/>
    </g>
    <g transform="matrix(0.0512168,0,0,0.095855,-4.49212,-19.4342)">
        <path d="M434.646,375.175C418.056,350.508 373.868,332.847 322.021,332.847C270.727,332.847 226.93,350.133 209.936,374.387" style="fill:none;stroke:rgb(120,120,120);stroke-width:3.9px;"/>
    </g>
    <g transform="matrix(0.101612,0,0,0.101612,-6.44491,-9.87359)">
        <path d="M250,298.119L250,273.372C250,265.97 243.991,259.961 236.589,259.961L126.628,259.961C119.226,259.961 113.217,265.97 113.217,273.372L113.217,297.675" style="fill:none;stroke:rgb(120,120,120);stroke-width:2.95px;"/>
    </g>
    <g transform="matrix(0.101612,0,0,0.101612,-13.3943,3.75364)">
        <rect x="229.835" y="125.85" width="40.33" height="23.324" style="fill:none;stroke:rgb(251,187,116);stroke-width:2.95px;"/>
    </g>
    <g transform="matrix(0.0463799,0,0,0.0463799,0.405031,0.223295)">
        <path d="M187.464,142.012L187.464,107.346C187.464,107.346 209.405,82.012 250,82.012C290.595,82.012 312.536,107.346 312.536,107.346L312.536,142.012C312.536,142.012 287.095,132.762 250,132.762C212.905,132.762 187.464,142.012 187.464,142.012Z" style="fill:none;stroke:rgb(251,187,116);stroke-width:6.25px;"/>
    </g>
    <g transform="matrix(0.0494903,0,0,0.0463799,-0.462635,-0.955527)">
        <path d="M310.425,167.429C310.425,167.429 310.415,189.429 251.988,189.429C193.561,189.429 193.214,167.429 193.214,167.429" style="fill:none;stroke:rgb(251,187,116);stroke-width:6.25px;"/>
    </g>
</svg>
