<?xml version="1.0" encoding="UTF-8" standalone="no"?>
<!DOCTYPE svg PUBLIC "-//W3C//DTD SVG 1.1//EN" "http://www.w3.org/Graphics/SVG/1.1/DTD/svg11.dtd">
<svg width="100%" height="100%" viewBox="0 0 24 24" version="1.1" xmlns="http://www.w3.org/2000/svg" xmlns:xlink="http://www.w3.org/1999/xlink" xml:space="preserve" xmlns:serif="http://www.serif.com/" style="fill-rule:evenodd;clip-rule:evenodd;stroke-linecap:round;stroke-linejoin:round;stroke-miterlimit:1.5;">
    <g transform="matrix(0.0427735,0,0,0.0427735,1.306,0.145389)">
        <path d="M351.798,123.907C351.798,123.907 287.062,111.206 257.532,121.963C221.736,135.002 183.197,183.322 169.096,213.8C162.121,228.876 173.715,254.726 204.568,241.011C238.259,226.033 280.855,196.793 280.855,196.793L402.304,304.263L436.832,279.397" style="fill:none;stroke:rgb(120,120,120);stroke-width:7.01px;"/>
    </g>
    <g transform="matrix(0.0427735,0,0,0.0427735,1.306,0.145389)">
        <path d="M240.525,129.738C217.685,118.604 178.749,116.94 149.174,125.85" style="fill:none;stroke:rgb(120,120,120);stroke-width:7.01px;"/>
    </g>
    <g transform="matrix(0.0433872,0.0288549,-0.0288549,0.0433872,12.4454,-6.77808)">
        <path d="M240.525,375.85C240.525,366.598 233.013,359.086 223.761,359.086C214.509,359.086 206.997,366.598 206.997,375.85L206.997,403.547C206.997,412.799 214.509,420.311 223.761,420.311C233.013,420.311 240.525,412.799 240.525,403.547L240.525,375.85Z" style="fill:none;stroke:rgb(120,120,120);stroke-width:5.76px;"/>
    </g>
    <g transform="matrix(0.0433872,0.0288549,-0.0288549,0.0433872,10.9908,-7.74552)">
        <path d="M240.525,375.85C240.525,366.598 233.013,359.086 223.761,359.086C214.509,359.086 206.997,366.598 206.997,375.85L206.997,403.547C206.997,412.799 214.509,420.311 223.761,420.311C233.013,420.311 240.525,412.799 240.525,403.547L240.525,375.85Z" style="fill:none;stroke:rgb(120,120,120);stroke-width:5.76px;"/>
    </g>
    <g transform="matrix(0.0433872,0.0288549,-0.0288549,0.0433872,9.53609,-8.71295)">
        <path d="M240.525,375.85C240.525,366.598 233.013,359.086 223.761,359.086C214.509,359.086 206.997,366.598 206.997,375.85L206.997,403.547C206.997,412.799 214.509,420.311 223.761,420.311C233.013,420.311 240.525,412.799 240.525,403.547L240.525,375.85Z" style="fill:none;stroke:rgb(120,120,120);stroke-width:5.76px;"/>
    </g>
    <g transform="matrix(0.0433872,0.0288549,-0.0288549,0.0433872,8.08141,-9.68039)">
        <path d="M240.525,375.85C240.525,366.598 233.013,359.086 223.761,359.086C214.509,359.086 206.997,366.598 206.997,375.85L206.997,403.547C206.997,412.799 214.509,420.311 223.761,420.311C233.013,420.311 240.525,412.799 240.525,403.547L240.525,375.85Z" style="fill:none;stroke:rgb(120,120,120);stroke-width:5.76px;"/>
    </g>
    <g transform="matrix(0.0427735,0,0,0.0427735,1.306,0.145389)">
        <path d="M402.631,304.673C402.631,304.673 412.318,312.345 402.881,322.449C281.339,452.578 235.881,405.949 235.881,405.949" style="fill:none;stroke:rgb(120,120,120);stroke-width:7.01px;"/>
    </g>
    <g transform="matrix(0.0427735,0,0,0.0427735,1.306,0.145389)">
        <path d="M103.631,306.949C89.17,297.429 81.781,277.305 77.381,252.699" style="fill:none;stroke:rgb(120,120,120);stroke-width:7.01px;"/>
    </g>
    <g transform="matrix(0.048,0,0,0.048,0,0)">
        <path d="M103.27,60.12L166.661,99.13L72.267,270.598L10.618,232.66C15.634,162.542 50.829,100.717 103.27,60.12Z" style="fill:none;stroke:rgb(185,225,157);stroke-width:6.25px;"/>
    </g>
    <g transform="matrix(0.048,0,0,0.048,0,0)">
        <path d="M397.37,60.617C449.67,101.387 484.671,163.33 489.441,233.515L427.733,271.489L333.339,100.021L397.37,60.617Z" style="fill:none;stroke:rgb(185,225,157);stroke-width:6.25px;"/>
    </g>
    <g transform="matrix(0.048,2.93099e-17,-2.93099e-17,0.048,2.43787e-07,-1.52893e-06)">
        <path d="M70.167,408.868C32.732,366.532 10,310.9 10,250C10,117.54 117.54,10 250,10C382.46,10 490,117.54 490,250C490,310.9 467.268,366.532 429.833,408.868" style="fill:none;stroke:rgb(120,120,120);stroke-width:6.25px;"/>
    </g>
    <g transform="matrix(0.122478,2.99984e-17,-2.99984e-17,0.122478,-7.40142,-32.2707)">
        <circle cx="118.076" cy="439.747" r="8.26" style="fill:rgb(184,225,157);"/>
    </g>
    <g transform="matrix(0.0725329,1.77654e-17,-1.77654e-17,0.0725329,6.51308,-9.84261)">
        <circle cx="118.076" cy="439.747" r="8.26" style="fill:rgb(184,225,157);"/>
    </g>
    <g transform="matrix(0.0944153,2.31251e-17,-2.31251e-17,0.0944153,7.1456,-20.2452)">
        <circle cx="118.076" cy="439.747" r="8.26" style="fill:rgb(184,225,157);"/>
    </g>
    <g transform="matrix(0.073775,1.80697e-17,-1.80697e-17,0.073775,2.77999,-11.7781)">
        <circle cx="118.076" cy="439.747" r="8.26" style="fill:rgb(184,225,157);"/>
    </g>
</svg>
