<?xml version="1.0" encoding="UTF-8" standalone="no"?>
<!DOCTYPE svg PUBLIC "-//W3C//DTD SVG 1.1//EN" "http://www.w3.org/Graphics/SVG/1.1/DTD/svg11.dtd">
<svg width="100%" height="100%" viewBox="0 0 24 24" version="1.1" xmlns="http://www.w3.org/2000/svg" xmlns:xlink="http://www.w3.org/1999/xlink" xml:space="preserve" xmlns:serif="http://www.serif.com/" style="fill-rule:evenodd;clip-rule:evenodd;stroke-linecap:round;stroke-linejoin:round;stroke-miterlimit:1.5;">
    <g transform="matrix(-0.114223,-0.0189392,0.0189392,-0.114223,18.8243,53.8377)">
        <circle cx="118.076" cy="439.747" r="8.26" style="fill:rgb(171,196,233);"/>
    </g>
    <g transform="matrix(-0.0678609,0.00982111,-0.00982111,-0.0678609,22.5707,30.0329)">
        <circle cx="118.076" cy="439.747" r="8.26" style="fill:rgb(171,196,233);"/>
    </g>
    <g transform="matrix(-0.0809911,0.0375063,-0.0375063,-0.0809911,33.3796,33.4822)">
        <circle cx="118.076" cy="439.747" r="8.26" style="fill:rgb(171,196,233);"/>
    </g>
    <g transform="matrix(-0.0634007,-0.0290569,0.0290569,-0.0634007,11.6493,33.7275)">
        <circle cx="118.076" cy="439.747" r="8.26" style="fill:rgb(171,196,233);"/>
    </g>
    <g transform="matrix(0.0409656,0,0,0.0409656,1.76363,3.72849)">
        <path d="M351.798,123.907C351.798,123.907 287.062,111.206 257.532,121.963C221.736,135.002 183.197,183.322 169.096,213.8C162.121,228.876 173.715,254.726 204.568,241.011C238.259,226.033 280.855,196.793 280.855,196.793L402.304,304.263L436.832,279.397" style="fill:none;stroke:rgb(120,120,120);stroke-width:7.01px;"/>
    </g>
    <g transform="matrix(0.0409656,0,0,0.0409656,1.76363,3.72849)">
        <path d="M240.525,129.738C217.685,118.604 178.749,116.94 149.174,125.85" style="fill:none;stroke:rgb(120,120,120);stroke-width:7.01px;"/>
    </g>
    <g transform="matrix(0.0415533,0.0276354,-0.0276354,0.0415533,12.4322,-2.90235)">
        <path d="M240.525,375.85C240.525,366.598 233.013,359.086 223.761,359.086C214.509,359.086 206.997,366.598 206.997,375.85L206.997,403.547C206.997,412.799 214.509,420.311 223.761,420.311C233.013,420.311 240.525,412.799 240.525,403.547L240.525,375.85Z" style="fill:none;stroke:rgb(120,120,120);stroke-width:5.76px;"/>
    </g>
    <g transform="matrix(0.0415533,0.0276354,-0.0276354,0.0415533,11.039,-3.8289)">
        <path d="M240.525,375.85C240.525,366.598 233.013,359.086 223.761,359.086C214.509,359.086 206.997,366.598 206.997,375.85L206.997,403.547C206.997,412.799 214.509,420.311 223.761,420.311C233.013,420.311 240.525,412.799 240.525,403.547L240.525,375.85Z" style="fill:none;stroke:rgb(120,120,120);stroke-width:5.76px;"/>
    </g>
    <g transform="matrix(0.0415533,0.0276354,-0.0276354,0.0415533,9.64584,-4.75545)">
        <path d="M240.525,375.85C240.525,366.598 233.013,359.086 223.761,359.086C214.509,359.086 206.997,366.598 206.997,375.85L206.997,403.547C206.997,412.799 214.509,420.311 223.761,420.311C233.013,420.311 240.525,412.799 240.525,403.547L240.525,375.85Z" style="fill:none;stroke:rgb(120,120,120);stroke-width:5.76px;"/>
    </g>
    <g transform="matrix(0.0415533,0.0276354,-0.0276354,0.0415533,8.25268,-5.682)">
        <path d="M240.525,375.85C240.525,366.598 233.013,359.086 223.761,359.086C214.509,359.086 206.997,366.598 206.997,375.85L206.997,403.547C206.997,412.799 214.509,420.311 223.761,420.311C233.013,420.311 240.525,412.799 240.525,403.547L240.525,375.85Z" style="fill:none;stroke:rgb(120,120,120);stroke-width:5.76px;"/>
    </g>
    <g transform="matrix(0.0409656,0,0,0.0409656,1.76363,3.72849)">
        <path d="M402.631,304.673C402.631,304.673 412.318,312.345 402.881,322.449C281.339,452.578 235.881,405.949 235.881,405.949" style="fill:none;stroke:rgb(120,120,120);stroke-width:7.01px;"/>
    </g>
    <g transform="matrix(0.0409656,0,0,0.0409656,1.76363,3.72849)">
        <path d="M103.631,306.949C89.17,297.429 81.781,277.305 77.381,252.699" style="fill:none;stroke:rgb(120,120,120);stroke-width:7.01px;"/>
    </g>
    <g transform="matrix(0.0459712,0,0,0.0459712,0.512826,3.58924)">
        <path d="M65.772,37.044L166.661,99.13L72.267,270.598L19.924,238.387" style="fill:none;stroke:rgb(171,196,233);stroke-width:6.25px;"/>
    </g>
    <g transform="matrix(0.0459712,0,0,0.0459712,0.512826,3.58924)">
        <path d="M478.183,240.443L427.733,271.489L333.339,100.021L433.62,38.309" style="fill:none;stroke:rgb(171,196,233);stroke-width:6.25px;"/>
    </g>
    <g transform="matrix(-0.0453761,-5.06262e-17,5.06262e-17,-0.0453761,23.303,23.4282)">
        <path d="M70.167,408.868C32.732,366.532 10,310.9 10,250C10,117.54 117.54,10 250,10C382.46,10 490,117.54 490,250C490,310.9 467.268,366.532 429.833,408.868" style="fill:none;stroke:rgb(120,120,120);stroke-width:6.61px;"/>
    </g>
</svg>
