<?xml version="1.0" encoding="UTF-8" standalone="no"?>
<!DOCTYPE svg PUBLIC "-//W3C//DTD SVG 1.1//EN" "http://www.w3.org/Graphics/SVG/1.1/DTD/svg11.dtd">
<svg width="100%" height="100%" viewBox="0 0 24 24" version="1.1" xmlns="http://www.w3.org/2000/svg" xmlns:xlink="http://www.w3.org/1999/xlink" xml:space="preserve" xmlns:serif="http://www.serif.com/" style="fill-rule:evenodd;clip-rule:evenodd;stroke-linecap:round;stroke-linejoin:round;stroke-miterlimit:1.5;">
    <g transform="matrix(-0.0673757,-0.0941598,0.0941598,-0.0673757,-12.735,46.4534)">
        <circle cx="118.076" cy="439.747" r="8.26" style="fill:rgb(171,196,233);"/>
    </g>
    <g transform="matrix(-0.0549295,-0.0410403,0.0410403,-0.0549295,6.74666,32.27)">
        <circle cx="118.076" cy="439.747" r="8.26" style="fill:rgb(171,196,233);"/>
    </g>
    <g transform="matrix(-0.0837903,-0.0307484,0.0307484,-0.0837903,11.9506,42.3521)">
        <circle cx="118.076" cy="439.747" r="8.26" style="fill:rgb(171,196,233);"/>
    </g>
    <g transform="matrix(-0.0242847,-0.0653774,0.0653774,-0.0242847,-3.58842,27.1599)">
        <circle cx="118.076" cy="439.747" r="8.26" style="fill:rgb(171,196,233);"/>
    </g>
    <g transform="matrix(0.0384582,0,0,0.0384582,-3.14743,-4.43156)">
        <circle cx="393.753" cy="245.762" r="64.765" style="fill:none;stroke:rgb(120,120,120);stroke-width:9.23px;"/>
    </g>
    <g transform="matrix(0.0423979,0,0,0.0803219,-1.8705,-16.3177)">
        <path d="M358.767,385.317C411.784,383.133 450.923,376.306 450.923,376.306C450.923,340.252 395.47,310.982 327.168,310.982C258.866,310.982 203.413,340.252 203.413,376.306C203.413,376.306 228.071,380.607 264.755,383.473" style="fill:none;stroke:rgb(120,120,120);stroke-width:5.53px;"/>
    </g>
    <g transform="matrix(-0.0320857,-0.0320857,0.0320857,-0.0320857,11.9347,28.1176)">
        <path d="M70.167,408.868C32.732,366.532 10,310.9 10,250C10,117.54 117.54,10 250,10C382.46,10 490,117.54 490,250C490,310.9 467.268,366.532 429.833,408.868" style="fill:none;stroke:rgb(120,120,120);stroke-width:6.61px;"/>
    </g>
    <g transform="matrix(0.0387153,0.022133,-0.0285363,0.0499161,11.6021,-5.07631)">
        <path d="M223.032,231.778L324.587,408.163L223.525,361.03L121.477,408.163L223.032,231.778Z" style="fill:none;stroke:rgb(171,196,233);stroke-width:5.83px;"/>
    </g>
</svg>
