<?xml version="1.0" encoding="UTF-8" standalone="no"?>
<!DOCTYPE svg PUBLIC "-//W3C//DTD SVG 1.1//EN" "http://www.w3.org/Graphics/SVG/1.1/DTD/svg11.dtd">
<svg width="100%" height="100%" viewBox="0 0 24 24" version="1.1" xmlns="http://www.w3.org/2000/svg" xmlns:xlink="http://www.w3.org/1999/xlink" xml:space="preserve" xmlns:serif="http://www.serif.com/" style="fill-rule:evenodd;clip-rule:evenodd;stroke-linejoin:round;stroke-miterlimit:2;">
    <g transform="matrix(1.46072e-17,0.10674,-0.09204,3.54007e-17,24.54,-5.0826)">
        <path d="M257.171,136.245C257.171,131.928 254.148,128.422 250.425,128.422L69.653,128.422C65.93,128.422 62.907,131.928 62.907,136.245C62.907,140.563 65.93,144.068 69.653,144.068L250.425,144.068C254.148,144.068 257.171,140.563 257.171,136.245Z"/>
    </g>
    <g transform="matrix(-0.10674,-2.55797e-18,-2.05995e-17,-0.09204,29.0826,24.54)">
        <path d="M257.171,136.245C257.171,131.928 254.148,128.422 250.425,128.422L69.653,128.422C65.93,128.422 62.907,131.928 62.907,136.245C62.907,140.563 65.93,144.068 69.653,144.068L250.425,144.068C254.148,144.068 257.171,140.563 257.171,136.245Z"/>
    </g>
</svg>
