<?xml version="1.0" encoding="UTF-8" standalone="no"?>
<!DOCTYPE svg PUBLIC "-//W3C//DTD SVG 1.1//EN" "http://www.w3.org/Graphics/SVG/1.1/DTD/svg11.dtd">
<svg width="100%" height="100%" viewBox="0 0 24 24" version="1.1" xmlns="http://www.w3.org/2000/svg" xmlns:xlink="http://www.w3.org/1999/xlink" xml:space="preserve" xmlns:serif="http://www.serif.com/" style="fill-rule:evenodd;clip-rule:evenodd;stroke-linejoin:round;stroke-miterlimit:2;">
    <g transform="matrix(0.048,0,0,0.048,0,0)">
        <path d="M117.5,411.039L87.5,411.039L87.5,463.145C87.5,471.423 94.221,478.145 102.5,478.145C110.779,478.145 117.5,471.423 117.5,463.145L117.5,411.039ZM87.5,344.579L117.5,344.579L117.5,36.855C117.5,28.577 110.779,21.855 102.5,21.855C94.221,21.855 87.5,28.577 87.5,36.855L87.5,344.579Z"/>
    </g>
    <g transform="matrix(0.048,0,0,0.048,14.16,0)">
        <path d="M117.5,411.039L87.5,411.039L87.5,463.145C87.5,471.423 94.221,478.145 102.5,478.145C110.779,478.145 117.5,471.423 117.5,463.145L117.5,411.039ZM87.5,344.579L117.5,344.579L117.5,36.855C117.5,28.577 110.779,21.855 102.5,21.855C94.221,21.855 87.5,28.577 87.5,36.855L87.5,344.579Z"/>
    </g>
    <g transform="matrix(0.048,0,0,-0.048,7.08,24)">
        <path d="M117.5,411.039L87.5,411.039L87.5,463.145C87.5,471.423 94.221,478.145 102.5,478.145C110.779,478.145 117.5,471.423 117.5,463.145L117.5,411.039ZM87.5,344.579L117.5,344.579L117.5,36.855C117.5,28.577 110.779,21.855 102.5,21.855C94.221,21.855 87.5,28.577 87.5,36.855L87.5,344.579Z"/>
    </g>
    <g transform="matrix(0.048,0,0,0.048,0,0)">
        <path d="M292.214,73.961C294.303,73.961 296.294,74.389 298.102,75.162L298.138,75.178C303.474,77.477 307.214,82.786 307.214,88.961L307.214,145.421C307.214,151.596 303.474,156.905 298.138,159.204L298.102,159.22C296.294,159.993 294.303,160.421 292.214,160.421L207.786,160.421C205.697,160.421 203.706,159.993 201.898,159.22L201.862,159.204C196.526,156.905 192.786,151.596 192.786,145.421L192.786,88.961C192.786,82.786 196.526,77.477 201.862,75.178L201.898,75.162C203.706,74.389 205.697,73.961 207.786,73.961L292.214,73.961Z"/>
    </g>
    <g transform="matrix(0.048,0,0,0.048,-7.08,12.7497)">
        <path d="M292.214,73.961C294.303,73.961 296.294,74.389 298.102,75.162L298.138,75.178C303.474,77.477 307.214,82.786 307.214,88.961L307.214,145.421C307.214,151.596 303.474,156.905 298.138,159.204L298.102,159.22C296.294,159.993 294.303,160.421 292.214,160.421L207.786,160.421C205.697,160.421 203.706,159.993 201.898,159.22L201.862,159.204C196.526,156.905 192.786,151.596 192.786,145.421L192.786,88.961C192.786,82.786 196.526,77.477 201.862,75.178L201.898,75.162C203.706,74.389 205.697,73.961 207.786,73.961L292.214,73.961Z"/>
    </g>
    <g transform="matrix(0.048,0,0,0.048,7.08,12.7497)">
        <path d="M292.214,73.961C294.303,73.961 296.294,74.389 298.102,75.162L298.138,75.178C303.474,77.477 307.214,82.786 307.214,88.961L307.214,145.421C307.214,151.596 303.474,156.905 298.138,159.204L298.102,159.22C296.294,159.993 294.303,160.421 292.214,160.421L207.786,160.421C205.697,160.421 203.706,159.993 201.898,159.22L201.862,159.204C196.526,156.905 192.786,151.596 192.786,145.421L192.786,88.961C192.786,82.786 196.526,77.477 201.862,75.178L201.898,75.162C203.706,74.389 205.697,73.961 207.786,73.961L292.214,73.961Z"/>
    </g>
</svg>
