<?xml version="1.0" encoding="UTF-8" standalone="no"?>
<!DOCTYPE svg PUBLIC "-//W3C//DTD SVG 1.1//EN" "http://www.w3.org/Graphics/SVG/1.1/DTD/svg11.dtd">
<svg width="100%" height="100%" viewBox="0 0 24 24" version="1.1" xmlns="http://www.w3.org/2000/svg" xmlns:xlink="http://www.w3.org/1999/xlink" xml:space="preserve" xmlns:serif="http://www.serif.com/" style="fill-rule:evenodd;clip-rule:evenodd;stroke-linejoin:round;stroke-miterlimit:2;">
    <g transform="matrix(0.048009,-2.93971e-18,3.15251e-18,-0.0772267,0.196672,37.3406)">
        <path d="M465.815,463.052C465.815,457.907 459.095,453.729 450.818,453.729L40.895,453.729C32.618,453.729 25.898,457.907 25.898,463.052C25.898,468.198 32.618,472.376 40.895,472.376L450.818,472.376C459.095,472.376 465.815,468.198 465.815,463.052Z"/>
    </g>
    <g transform="matrix(0.048,0,0,0.048,0,0)">
        <path d="M213.978,67.928C222.18,67.928 228.853,74.525 228.976,82.697L228.977,82.734C228.977,82.734 228.977,82.749 228.977,82.749C228.978,82.809 228.978,82.869 228.978,82.928L228.978,458.729C228.978,458.789 228.978,458.848 228.977,458.909L228.977,458.923C228.977,458.923 228.976,458.96 228.976,458.96C228.853,467.132 222.18,473.729 213.978,473.729L45,473.729C36.798,473.729 30.125,467.132 30.002,458.961L30.001,458.923C30.001,458.923 30.001,458.909 30.001,458.909C30,458.85 30,458.79 30,458.729L30,82.928C30,82.868 30,82.807 30.001,82.748L30.001,82.734C30.001,82.734 30.002,82.697 30.002,82.697C30.125,74.525 36.798,67.928 45,67.928L213.978,67.928Z"/>
    </g>
    <g transform="matrix(0.048,0,0,0.048,0,0)">
        <path d="M455,67.928C460.041,67.928 464.504,70.42 467.225,74.239L467.247,74.27C468.981,76.717 470,79.704 470,82.928L470,215.635C470,218.859 468.981,221.847 467.247,224.294L467.225,224.324C464.504,228.143 460.041,230.635 455,230.635L286.022,230.635C280.981,230.635 276.518,228.143 273.797,224.324L273.775,224.294C272.041,221.847 271.022,218.859 271.022,215.635L271.022,82.928C271.022,79.704 272.041,76.717 273.775,74.27L273.797,74.239C276.518,70.42 280.981,67.928 286.022,67.928L455,67.928Z"/>
    </g>
</svg>
