<?xml version="1.0" encoding="UTF-8" standalone="no"?>
<!DOCTYPE svg PUBLIC "-//W3C//DTD SVG 1.1//EN" "http://www.w3.org/Graphics/SVG/1.1/DTD/svg11.dtd">
<svg width="100%" height="100%" viewBox="0 0 24 24" version="1.1" xmlns="http://www.w3.org/2000/svg" xmlns:xlink="http://www.w3.org/1999/xlink" xml:space="preserve" xmlns:serif="http://www.serif.com/" style="fill-rule:evenodd;clip-rule:evenodd;stroke-linejoin:round;stroke-miterlimit:2;">
    <g transform="matrix(0.048009,2.93971e-18,3.15251e-18,0.0772267,0.196672,-13.741)">
        <path d="M465.815,463.052C465.815,457.907 459.095,453.729 450.818,453.729L40.895,453.729C32.618,453.729 25.898,457.907 25.898,463.052C25.898,468.198 32.618,472.376 40.895,472.376L450.818,472.376C459.095,472.376 465.815,468.198 465.815,463.052Z"/>
    </g>
    <g transform="matrix(0.048,0,0,0.048,0,0)">
        <path d="M213.978,17.928L45,17.928C36.798,17.928 30.125,24.525 30.002,32.697L30.001,32.734C30.001,32.734 30.001,32.748 30.001,32.748C30,32.807 30,32.868 30,32.928L30,408.729C30,408.79 30,408.85 30.001,408.909L30.001,408.923L30.003,409.02C30.039,410.648 30.328,412.264 30.88,413.798C31.666,415.987 32.97,417.98 34.653,419.585C36.206,421.066 38.075,422.21 40.104,422.911C41.679,423.455 43.335,423.724 45,423.729L213.978,423.729C222.18,423.729 228.853,417.132 228.976,408.96L228.977,408.923C228.977,408.923 228.977,408.909 228.977,408.909C228.978,408.848 228.978,408.789 228.978,408.729L228.978,32.928C228.978,32.869 228.978,32.809 228.977,32.749L228.977,32.734C228.977,32.734 228.976,32.697 228.976,32.697C228.853,24.525 222.18,17.928 213.978,17.928Z"/>
    </g>
    <g transform="matrix(0.048,0,0,0.048,0,0)">
        <path d="M455,261.022L286.022,261.022C280.981,261.022 276.518,263.514 273.797,267.333L273.775,267.364C272.041,269.811 271.022,272.798 271.022,276.022L271.022,408.729C271.022,411.953 272.041,414.941 273.775,417.388L273.797,417.418L273.844,417.484C274.496,418.383 275.241,419.213 276.073,419.951C277.797,421.481 279.87,422.606 282.096,423.209C283.376,423.556 284.697,423.725 286.022,423.729L455,423.729C460.041,423.729 464.504,421.237 467.225,417.418L467.247,417.388L467.283,417.336C468.383,415.761 469.183,413.988 469.616,412.115C469.872,411.005 469.996,409.869 470,408.729L470,276.022C470,272.798 468.981,269.811 467.247,267.364L467.225,267.333C464.504,263.514 460.041,261.022 455,261.022Z"/>
    </g>
</svg>
