<?xml version="1.0" encoding="UTF-8" standalone="no"?>
<!DOCTYPE svg PUBLIC "-//W3C//DTD SVG 1.1//EN" "http://www.w3.org/Graphics/SVG/1.1/DTD/svg11.dtd">
<svg width="100%" height="100%" viewBox="0 0 24 24" version="1.1" xmlns="http://www.w3.org/2000/svg" xmlns:xlink="http://www.w3.org/1999/xlink" xml:space="preserve" xmlns:serif="http://www.serif.com/" style="fill-rule:evenodd;clip-rule:evenodd;stroke-linejoin:round;stroke-miterlimit:2;">
    <g transform="matrix(-0.048009,-2.93971e-18,-3.15251e-18,-0.0772267,23.8033,37.8206)">
        <path d="M465.815,463.052C465.815,457.907 459.095,453.729 450.818,453.729L40.895,453.729C32.618,453.729 25.898,457.907 25.898,463.052C25.898,468.198 32.618,472.376 40.895,472.376L450.818,472.376C459.095,472.376 465.815,468.198 465.815,463.052Z"/>
    </g>
    <g transform="matrix(-0.048009,-2.93971e-18,-3.15251e-18,-0.0772267,23.8033,57.1969)">
        <path d="M465.815,463.052C465.815,457.907 459.095,453.729 450.818,453.729L40.895,453.729C32.618,453.729 25.898,457.907 25.898,463.052C25.898,468.198 32.618,472.376 40.895,472.376L450.818,472.376C459.095,472.376 465.815,468.198 465.815,463.052Z"/>
    </g>
    <g transform="matrix(-0.048009,-2.93971e-18,-3.15251e-18,-0.0772267,23.8033,47.5087)">
        <path d="M465.815,463.052C465.815,457.907 459.095,453.729 450.818,453.729L40.895,453.729C32.618,453.729 25.898,457.907 25.898,463.052C25.898,468.198 32.618,472.376 40.895,472.376L450.818,472.376C459.095,472.376 465.815,468.198 465.815,463.052Z"/>
    </g>
    <g transform="matrix(-0.048009,-5.14412e-18,-7.51663e-18,-0.0772267,23.8033,42.6646)">
        <path d="M465.815,463.052C465.815,457.907 459.095,453.729 450.818,453.729L40.895,453.729C32.618,453.729 25.898,457.907 25.898,463.052C25.898,468.198 32.618,472.376 40.895,472.376L450.818,472.376C459.095,472.376 465.815,468.198 465.815,463.052Z"/>
    </g>
    <g transform="matrix(-0.048009,-5.14412e-18,-7.51663e-18,-0.0772267,23.8033,52.3528)">
        <path d="M465.815,463.052C465.815,457.907 459.095,453.729 450.818,453.729L40.895,453.729C32.618,453.729 25.898,457.907 25.898,463.052C25.898,468.198 32.618,472.376 40.895,472.376L450.818,472.376C459.095,472.376 465.815,468.198 465.815,463.052Z"/>
    </g>
</svg>
