<?xml version="1.0" encoding="UTF-8" standalone="no"?>
<!DOCTYPE svg PUBLIC "-//W3C//DTD SVG 1.1//EN" "http://www.w3.org/Graphics/SVG/1.1/DTD/svg11.dtd">
<svg width="100%" height="100%" viewBox="0 0 24 24" version="1.1" xmlns="http://www.w3.org/2000/svg" xmlns:xlink="http://www.w3.org/1999/xlink" xml:space="preserve" xmlns:serif="http://www.serif.com/" style="fill-rule:evenodd;clip-rule:evenodd;stroke-linejoin:round;stroke-miterlimit:2;">
    <g transform="matrix(6.33745e-18,0.0405287,0.0772267,-5.9387e-19,-23.76,4.2811)">
        <path d="M465.815,463.052C465.815,457.907 457.855,453.729 448.05,453.729L43.663,453.729C33.858,453.729 25.898,457.907 25.898,463.052C25.898,468.198 33.858,472.376 43.663,472.376L448.05,472.376C457.855,472.376 465.815,468.198 465.815,463.052Z"/>
    </g>
    <g transform="matrix(-0.0189227,8.81912e-18,2.48512e-18,0.0772267,16.6523,-25.9313)">
        <path d="M465.815,463.052C465.815,457.907 448.765,453.729 427.765,453.729L63.947,453.729C42.947,453.729 25.898,457.907 25.898,463.052C25.898,468.198 42.947,472.376 63.947,472.376L427.765,472.376C448.765,472.376 465.815,468.198 465.815,463.052Z"/>
    </g>
    <g transform="matrix(0.048,0,0,0.048,0,0)">
        <path d="M250,17.5C283.115,17.5 310,44.385 310,77.5C310,110.615 283.115,137.5 250,137.5C216.885,137.5 190,110.615 190,77.5C190,44.385 216.885,17.5 250,17.5ZM250,47.5C266.557,47.5 280,60.943 280,77.5C280,94.057 266.557,107.5 250,107.5C233.443,107.5 220,94.057 220,77.5C220,60.943 233.443,47.5 250,47.5Z"/>
    </g>
    <g transform="matrix(0.048,0,0,0.048,0,0)">
        <path d="M430,239.903C430.052,231.669 436.754,225 445,225C453.279,225 460,231.721 460,240L460,272.5C460,388.402 365.902,482.5 250,482.5C134.098,482.5 40,388.402 40,272.5L40,240L40,239.903C40.052,231.669 46.754,225 55,225C63.279,225 70,231.721 70,240L70,272.5C70,371.845 150.655,452.5 250,452.5C349.345,452.5 430,371.845 430,272.5L430,240L430,239.903Z"/>
    </g>
</svg>
