<?xml version="1.0" encoding="UTF-8" standalone="no"?>
<!DOCTYPE svg PUBLIC "-//W3C//DTD SVG 1.1//EN" "http://www.w3.org/Graphics/SVG/1.1/DTD/svg11.dtd">
<svg width="100%" height="100%" viewBox="0 0 24 24" version="1.1" xmlns="http://www.w3.org/2000/svg" xmlns:xlink="http://www.w3.org/1999/xlink" xml:space="preserve" xmlns:serif="http://www.serif.com/" style="fill-rule:evenodd;clip-rule:evenodd;stroke-linejoin:round;stroke-miterlimit:2;">
    <g transform="matrix(0.048,0,0,0.048,0,0)">
        <path d="M250,30C371.421,30 470,128.579 470,250C470,371.421 371.421,470 250,470C128.579,470 30,371.421 30,250C30,128.579 128.579,30 250,30ZM107.257,210.833L333.119,132.759C338.71,130.826 344.671,132.397 348.605,136.306L348.694,136.395C352.603,140.329 354.174,146.29 352.241,151.881L274.167,377.743C274.024,378.177 273.862,378.603 273.681,379.02L273.62,379.159C272.855,380.882 271.795,382.4 270.521,383.67C268.422,385.774 265.679,387.277 262.532,387.835C259.193,388.427 255.915,387.863 253.108,386.43L252.994,386.371C251.608,385.652 250.371,384.735 249.308,383.669C247.204,381.57 245.702,378.828 245.145,375.683L224.697,260.303L109.317,239.855C106.172,239.298 103.43,237.796 101.331,235.692C100.265,234.629 99.348,233.392 98.629,232.006L98.57,231.892C97.137,229.085 96.573,225.807 97.165,222.468C97.723,219.321 99.226,216.578 101.33,214.479C102.601,213.205 104.118,212.144 105.841,211.38L105.98,211.319C106.397,211.138 106.823,210.976 107.257,210.833Z"/>
    </g>
</svg>
