<?xml version="1.0" encoding="UTF-8" standalone="no"?>
<!DOCTYPE svg PUBLIC "-//W3C//DTD SVG 1.1//EN" "http://www.w3.org/Graphics/SVG/1.1/DTD/svg11.dtd">
<svg width="100%" height="100%" viewBox="0 0 24 24" version="1.1" xmlns="http://www.w3.org/2000/svg" xmlns:xlink="http://www.w3.org/1999/xlink" xml:space="preserve" xmlns:serif="http://www.serif.com/" style="fill-rule:evenodd;clip-rule:evenodd;stroke-linejoin:round;stroke-miterlimit:2;">
    <g transform="matrix(0.0418253,0,0,0.06,2.24598,-4.84167)">
        <path d="M466.418,410.94C466.418,404.317 458.704,398.94 449.203,398.94L17.214,398.94C7.714,398.94 0,404.317 0,410.94C0,417.563 7.714,422.94 17.214,422.94L449.203,422.94C458.704,422.94 466.418,417.563 466.418,410.94Z"/>
    </g>
    <g transform="matrix(0.0486175,0,0,0.06,0.661976,-2.68167)">
        <path d="M466.418,410.94C466.418,404.317 459.782,398.94 451.608,398.94L14.809,398.94C6.636,398.94 0,404.317 0,410.94C0,417.563 6.636,422.94 14.809,422.94L451.608,422.94C459.782,422.94 466.418,417.563 466.418,410.94Z"/>
    </g>
    <g transform="matrix(0.048,0,0,0.048,0,0)">
        <path d="M44.789,152.338C44.623,146.99 47.328,141.723 52.282,138.863L242.219,29.203C246.084,26.972 250.534,26.658 254.462,27.966C255.8,28.296 257.115,28.818 258.368,29.542L447.718,138.863C452.672,141.723 455.377,146.99 455.211,152.338C455.216,152.493 455.219,152.649 455.219,152.807C455.219,161.085 448.497,167.807 440.219,167.807L59.781,167.807C51.503,167.807 44.781,161.085 44.781,152.807C44.781,152.649 44.784,152.493 44.789,152.338Z"/>
    </g>
    <g transform="matrix(0.048,0,0,0.048,0,0)">
        <rect x="77.709" y="156.379" width="80" height="256.428"/>
    </g>
    <g transform="matrix(0.048,0,0,0.048,6.816,0)">
        <rect x="67.709" y="156.379" width="80" height="256.428"/>
    </g>
    <g transform="matrix(0.048,0,0,0.048,13.152,0)">
        <rect x="67.709" y="156.379" width="80" height="256.428"/>
    </g>
</svg>
