<?xml version="1.0" encoding="UTF-8" standalone="no"?>
<!DOCTYPE svg PUBLIC "-//W3C//DTD SVG 1.1//EN" "http://www.w3.org/Graphics/SVG/1.1/DTD/svg11.dtd">
<svg width="100%" height="100%" viewBox="0 0 24 24" version="1.1" xmlns="http://www.w3.org/2000/svg" xmlns:xlink="http://www.w3.org/1999/xlink" xml:space="preserve" xmlns:serif="http://www.serif.com/" style="fill-rule:evenodd;clip-rule:evenodd;stroke-linejoin:round;stroke-miterlimit:2;">
    <g transform="matrix(0.0446897,0,0,0.048,-0.595655,0)">
        <path d="M171.546,63.83C171.546,55.552 164.327,48.83 155.435,48.83C146.543,48.83 139.324,55.552 139.324,63.83L139.324,436.17C139.324,444.448 146.543,451.17 155.435,451.17C164.327,451.17 171.546,444.448 171.546,436.17L171.546,63.83Z"/>
    </g>
    <g transform="matrix(-0.0446897,0,0,0.048,19.9877,0)">
        <path d="M171.546,63.83C171.546,55.552 164.327,48.83 155.435,48.83C146.543,48.83 139.324,55.552 139.324,63.83L139.324,436.17C139.324,444.448 146.543,451.17 155.435,451.17C164.327,451.17 171.546,444.448 171.546,436.17L171.546,63.83Z"/>
    </g>
    <g transform="matrix(-0.0446897,0,0,0.048,22.0997,0)">
        <path d="M171.546,63.83C171.546,55.552 164.327,48.83 155.435,48.83C146.543,48.83 139.324,55.552 139.324,63.83L139.324,436.17C139.324,444.448 146.543,451.17 155.435,451.17C164.327,451.17 171.546,444.448 171.546,436.17L171.546,63.83Z"/>
    </g>
    <g transform="matrix(0.048,0,0,0.048,-0.24,0)">
        <path d="M101.361,63.654C101.361,55.473 94.719,48.83 86.537,48.83L36.185,48.83C28.003,48.83 21.361,55.473 21.361,63.654L21.361,436.346C21.361,444.527 28.003,451.17 36.185,451.17L86.537,451.17C94.719,451.17 101.361,444.527 101.361,436.346L101.361,63.654Z"/>
    </g>
    <g transform="matrix(0.048,0,0,0.048,18.3493,0)">
        <path d="M101.361,63.654C101.361,55.473 94.719,48.83 86.537,48.83L-21.428,48.83C-29.61,48.83 -36.252,55.473 -36.252,63.654L-36.252,436.346C-36.252,444.527 -29.61,451.17 -21.428,451.17L86.537,451.17C94.719,451.17 101.361,444.527 101.361,436.346L101.361,63.654Z"/>
    </g>
    <g transform="matrix(0.048,0,0,0.048,6.88,0)">
        <path d="M98.361,63.654C98.361,55.473 91.719,48.83 83.537,48.83L39.185,48.83C31.003,48.83 24.361,55.473 24.361,63.654L24.361,436.346C24.361,444.527 31.003,451.17 39.185,451.17L83.537,451.17C91.719,451.17 98.361,444.527 98.361,436.346L98.361,63.654Z"/>
    </g>
</svg>
