<?xml version="1.0" encoding="UTF-8" standalone="no"?>
<!DOCTYPE svg PUBLIC "-//W3C//DTD SVG 1.1//EN" "http://www.w3.org/Graphics/SVG/1.1/DTD/svg11.dtd">
<svg width="100%" height="100%" viewBox="0 0 24 24" version="1.1" xmlns="http://www.w3.org/2000/svg" xmlns:xlink="http://www.w3.org/1999/xlink" xml:space="preserve" xmlns:serif="http://www.serif.com/" style="fill-rule:evenodd;clip-rule:evenodd;stroke-linejoin:round;stroke-miterlimit:2;">
    <g transform="matrix(0.048,0,0,0.048,0,0.216)">
        <path d="M386,104.819C386,83.308 368.536,65.844 347.025,65.844L152.975,65.844C131.464,65.844 114,83.308 114,104.819L114,432.849C114,454.36 131.464,471.824 152.975,471.824L347.025,471.824C368.536,471.824 386,454.36 386,432.849L386,104.819ZM356,109.444C356,102.113 350.048,96.162 342.717,96.162L157.283,96.162C149.952,96.162 144,102.113 144,109.444L144,428.224C144,435.555 149.952,441.506 157.283,441.506L342.717,441.506C350.048,441.506 356,435.555 356,428.224L356,109.444Z"/>
    </g>
    <g transform="matrix(0.048,0,0,0.048,0,0)">
        <path d="M197.989,38.676L197.989,80.088C197.989,88.367 204.71,95.088 212.989,95.088L286.147,95.088C294.426,95.088 301.147,88.367 301.147,80.088L301.147,38.676C301.147,30.397 294.426,23.676 286.147,23.676L212.989,23.676C204.71,23.676 197.989,30.397 197.989,38.676Z"/>
    </g>
    <g transform="matrix(0.048,0,0,0.048,0,0)">
        <path d="M314.5,176.382L314.5,375.991C314.5,384.27 307.779,390.991 299.5,390.991C291.221,390.991 284.5,384.27 284.5,375.991L284.5,176.382L120.667,176.382L120.667,456.104L367.97,456.104L367.97,176.382L314.5,176.382Z"/>
    </g>
</svg>
