<?xml version="1.0" encoding="UTF-8" standalone="no"?>
<!DOCTYPE svg PUBLIC "-//W3C//DTD SVG 1.1//EN" "http://www.w3.org/Graphics/SVG/1.1/DTD/svg11.dtd">
<svg width="100%" height="100%" viewBox="0 0 24 24" version="1.1" xmlns="http://www.w3.org/2000/svg" xmlns:xlink="http://www.w3.org/1999/xlink" xml:space="preserve" xmlns:serif="http://www.serif.com/" style="fill-rule:evenodd;clip-rule:evenodd;stroke-linejoin:round;stroke-miterlimit:2;">
    <g transform="matrix(0.048,0,0,0.048,0,0)">
        <path d="M407.15,170.333C407.15,84.235 337.249,14.333 251.15,14.333C165.051,14.333 95.15,84.235 95.15,170.333L95.15,329.667C95.15,415.765 165.051,485.667 251.15,485.667C337.249,485.667 407.15,415.765 407.15,329.667L407.15,170.333ZM224.819,214.027L224.819,102.319C224.819,94.04 231.54,87.319 239.819,87.319C239.917,87.319 240.014,87.32 240.112,87.322C243.567,87.255 247.062,88.375 249.935,90.744L342.069,166.714C343.569,167.95 344.766,169.418 345.653,171.024C349.22,177.248 347.893,185.328 342.173,190.044L268.954,250.418L342.173,310.792C347.893,315.509 349.22,323.589 345.653,329.813C344.766,331.418 343.569,332.886 342.069,334.123L249.935,410.093C247.062,412.462 243.567,413.581 240.112,413.515C240.014,413.516 239.917,413.517 239.819,413.517C231.54,413.517 224.819,406.796 224.819,398.517L224.819,286.81L183.355,320.999C176.967,326.266 167.506,325.356 162.239,318.969C156.972,312.582 157.882,303.12 164.269,297.853L221.797,250.418L164.269,202.983C157.882,197.717 156.972,188.255 162.239,181.868C167.506,175.48 176.967,174.57 183.355,179.837L224.819,214.027ZM254.819,367.182L309.112,322.415L254.819,277.647L254.819,367.182ZM254.819,223.19L309.112,178.422L254.819,133.654L254.819,223.19Z"/>
    </g>
</svg>
