<?xml version="1.0" encoding="UTF-8" standalone="no"?>
<!DOCTYPE svg PUBLIC "-//W3C//DTD SVG 1.1//EN" "http://www.w3.org/Graphics/SVG/1.1/DTD/svg11.dtd">
<svg width="100%" height="100%" viewBox="0 0 24 24" version="1.1" xmlns="http://www.w3.org/2000/svg" xmlns:xlink="http://www.w3.org/1999/xlink" xml:space="preserve" xmlns:serif="http://www.serif.com/" style="fill-rule:evenodd;clip-rule:evenodd;stroke-linejoin:round;stroke-miterlimit:2;">
    <g transform="matrix(0.048,0,0,0.048,0,0)">
        <path d="M393.441,17.556C398.126,17.556 402.312,19.709 405.063,23.077L405.087,23.106C407.184,25.686 408.441,28.976 408.441,32.556L408.441,467.444L408.441,467.461C408.441,468.581 408.316,469.707 408.059,470.818L408.055,470.835L408.051,470.855C407.684,472.43 407.069,473.91 406.249,475.251C404.919,477.434 403.114,479.16 401.043,480.375C398.826,481.682 396.245,482.435 393.49,482.444L393.441,482.444L393.424,482.444C392.24,482.444 391.05,482.304 389.877,482.017L389.843,482.009C388.433,481.661 387.102,481.114 385.881,480.399L250,401.949L114.119,480.399C112.898,481.114 111.567,481.661 110.157,482.009L110.123,482.017C108.951,482.304 107.76,482.444 106.576,482.444L106.559,482.444L106.51,482.444C103.755,482.435 101.173,481.681 98.957,480.375C96.886,479.161 95.081,477.434 93.751,475.251C92.931,473.91 92.316,472.43 91.949,470.855L91.941,470.818C91.684,469.707 91.559,468.581 91.559,467.461L91.559,467.444L91.559,32.556C91.559,28.976 92.816,25.686 94.913,23.106L94.937,23.077C97.688,19.709 101.874,17.556 106.559,17.556L393.441,17.556Z"/>
    </g>
</svg>
