<?xml version="1.0" encoding="UTF-8" standalone="no"?>
<!DOCTYPE svg PUBLIC "-//W3C//DTD SVG 1.1//EN" "http://www.w3.org/Graphics/SVG/1.1/DTD/svg11.dtd">
<svg width="100%" height="100%" viewBox="0 0 24 24" version="1.1" xmlns="http://www.w3.org/2000/svg" xmlns:xlink="http://www.w3.org/1999/xlink" xml:space="preserve" xmlns:serif="http://www.serif.com/" style="fill-rule:evenodd;clip-rule:evenodd;stroke-linejoin:round;stroke-miterlimit:2;">
    <g transform="matrix(0.056608,0,0,0.048,-3.26519,0)">
        <path d="M416.728,42.388C416.728,34.109 411.028,27.388 404.008,27.388C396.989,27.388 391.289,34.109 391.289,42.388L391.289,457.612C391.289,465.891 396.989,472.612 404.008,472.612C411.028,472.612 416.728,465.891 416.728,457.612L416.728,42.388Z"/>
    </g>
    <g transform="matrix(0.048,0,0,0.048,0,0)">
        <path d="M408.436,27.388L129.12,27.388C103.816,27.388 83.272,47.931 83.272,73.235L83.272,426.765C83.272,452.069 103.816,472.612 129.12,472.612L408.436,472.612L408.436,442.612L135.141,442.612L135,442.612C122.995,442.536 113.272,432.766 113.272,420.744L113.272,416.019C113.272,403.949 123.072,394.15 135.141,394.15L408.436,394.15C416.715,394.15 423.436,387.429 423.436,379.15L423.436,42.388C423.436,34.109 416.715,27.388 408.436,27.388ZM319.333,110.012L180.667,110.012C177.022,110.012 173.68,111.314 171.08,113.478L171.051,113.502C167.761,116.255 165.667,120.39 165.667,125.012L165.667,172.345C165.667,176.966 167.761,181.102 171.051,183.855L171.08,183.878C173.68,186.043 177.022,187.345 180.667,187.345L319.333,187.345C322.978,187.345 326.32,186.043 328.92,183.878L328.949,183.855C332.239,181.102 334.333,176.966 334.333,172.345L334.333,125.012C334.333,120.39 332.239,116.255 328.949,113.502L328.92,113.478C326.32,111.314 322.978,110.012 319.333,110.012Z"/>
    </g>
</svg>
