<?xml version="1.0" encoding="UTF-8" standalone="no"?>
<!DOCTYPE svg PUBLIC "-//W3C//DTD SVG 1.1//EN" "http://www.w3.org/Graphics/SVG/1.1/DTD/svg11.dtd">
<svg width="100%" height="100%" viewBox="0 0 24 24" version="1.1" xmlns="http://www.w3.org/2000/svg" xmlns:xlink="http://www.w3.org/1999/xlink" xml:space="preserve" xmlns:serif="http://www.serif.com/" style="fill-rule:evenodd;clip-rule:evenodd;stroke-linejoin:round;stroke-miterlimit:2;">
    <g transform="matrix(4.40873e-18,0.072,-0.039349,2.40943e-18,19.1632,12.6352)">
        <path d="M65.829,80.53C65.829,70.431 61.348,62.232 55.829,62.232C50.31,62.232 45.829,70.431 45.829,80.53L45.829,161.56C45.829,171.659 50.31,179.858 55.829,179.858C61.348,179.858 65.829,171.659 65.829,161.56L65.829,80.53Z"/>
    </g>
    <g transform="matrix(0.048,0,0,0.048,0,0)">
        <path d="M449.171,48.171L50.829,48.171C49.051,48.171 47.346,48.481 45.763,49.05L45.725,49.064C39.956,51.153 35.829,56.684 35.829,63.171L35.829,135.201C35.829,141.688 39.956,147.219 45.725,149.309L45.763,149.323C47.346,149.891 49.051,150.201 50.829,150.201L449.171,150.201C450.949,150.201 452.654,149.891 454.237,149.323L454.275,149.309C460.044,147.219 464.171,141.688 464.171,135.201L464.171,63.171C464.171,56.684 460.044,51.153 454.275,49.064L454.237,49.05C452.654,48.481 450.949,48.171 449.171,48.171Z"/>
    </g>
    <g transform="matrix(0.048,0,0,0.048,0,0)">
        <path d="M429.171,170.201L70.829,170.201C65.202,170.201 60.296,173.305 57.729,177.892L57.711,177.926C56.512,180.081 55.829,182.562 55.829,185.201L55.829,436.829C55.829,439.468 56.512,441.949 57.711,444.104L57.729,444.138C60.296,448.724 65.202,451.829 70.829,451.829L429.171,451.829C434.798,451.829 439.704,448.724 442.271,444.138L442.289,444.104C443.488,441.949 444.171,439.468 444.171,436.829L444.171,185.201C444.171,182.562 443.488,180.081 442.289,177.926L442.271,177.892C439.704,173.305 434.798,170.201 429.171,170.201ZM379.171,302.842L220.838,302.842L220.838,391.111L379.171,391.111L379.171,302.842Z"/>
    </g>
</svg>
