<?xml version="1.0" encoding="UTF-8" standalone="no"?>
<!DOCTYPE svg PUBLIC "-//W3C//DTD SVG 1.1//EN" "http://www.w3.org/Graphics/SVG/1.1/DTD/svg11.dtd">
<svg width="100%" height="100%" viewBox="0 0 24 24" version="1.1" xmlns="http://www.w3.org/2000/svg" xmlns:xlink="http://www.w3.org/1999/xlink" xml:space="preserve" xmlns:serif="http://www.serif.com/" style="fill-rule:evenodd;clip-rule:evenodd;stroke-linejoin:round;stroke-miterlimit:2;">
    <g transform="matrix(0.048,0,0,0.048,0,0)">
        <path d="M481.046,198.452L290.294,308.582L290.294,337.614C290.289,339.218 290.04,340.813 289.535,342.336C288.381,345.814 285.933,348.799 282.758,350.626C281.512,351.343 280.167,351.872 278.771,352.209L278.674,352.231C277.588,352.482 276.456,352.614 275.294,352.614L224.706,352.614C223.544,352.614 222.412,352.482 221.326,352.231L221.285,352.222C214.653,350.673 209.706,344.717 209.706,337.614L209.706,310.02L18.954,199.889L18.954,436.258C18.954,444.537 25.676,451.258 33.954,451.258L466.046,451.258C474.324,451.258 481.046,444.537 481.046,436.258L481.046,198.452ZM260.294,280L239.706,280L239.706,322.614L260.294,322.614L260.294,280ZM18.954,165.248L209.706,275.379L209.706,265C209.706,257.898 214.653,251.942 221.285,250.393L221.326,250.383C222.412,250.132 223.544,250 224.706,250L275.294,250C276.404,250.004 277.506,250.124 278.589,250.364L278.715,250.393C285.347,251.942 290.294,257.898 290.294,265L290.294,273.941L481.046,163.811L481.046,132.925C481.046,124.646 474.324,117.925 466.046,117.925L33.954,117.925C25.676,117.925 18.954,124.646 18.954,132.925L18.954,165.248Z"/>
    </g>
    <g transform="matrix(0.048,0,0,0.048,0,0)">
        <path d="M150.392,132.925L180.404,132.925C180.396,132.78 180.392,132.634 180.392,132.488L180.392,85.658C180.392,81.103 184.09,77.406 188.644,77.406L305.836,77.406C310.39,77.406 314.087,81.103 314.087,85.658L314.087,132.488C314.087,132.634 314.083,132.78 314.076,132.925L344.087,132.925L344.087,82.165C344.087,62.981 328.512,47.406 309.328,47.406L185.152,47.406C165.967,47.406 150.392,62.981 150.392,82.165L150.392,132.925Z"/>
    </g>
</svg>
