<?xml version="1.0" encoding="UTF-8" standalone="no"?>
<!DOCTYPE svg PUBLIC "-//W3C//DTD SVG 1.1//EN" "http://www.w3.org/Graphics/SVG/1.1/DTD/svg11.dtd">
<svg width="100%" height="100%" viewBox="0 0 24 24" version="1.1" xmlns="http://www.w3.org/2000/svg" xmlns:xlink="http://www.w3.org/1999/xlink" xml:space="preserve" xmlns:serif="http://www.serif.com/" style="fill-rule:evenodd;clip-rule:evenodd;stroke-linejoin:round;stroke-miterlimit:2;">
    <g transform="matrix(0.048,0,0,0.048,0,0)">
        <path d="M439.926,60.835L260,60.835L260,240L439.926,240L439.926,60.835ZM409.296,150.418C409.296,142.139 402.575,135.418 394.296,135.418L305.63,135.418C297.351,135.418 290.63,142.139 290.63,150.418C290.63,158.696 297.351,165.418 305.63,165.418L394.296,165.418C402.575,165.418 409.296,158.696 409.296,150.418Z"/>
    </g>
    <g transform="matrix(0.048,0,0,0.048,0,0)">
        <path d="M260,260L260,439.165L439.926,439.165L439.926,260L260,260ZM409.296,374.582C409.296,366.304 402.575,359.582 394.296,359.582L305.63,359.582C297.351,359.582 290.63,366.304 290.63,374.582C290.63,382.861 297.351,389.582 305.63,389.582L394.296,389.582C402.575,389.582 409.296,382.861 409.296,374.582ZM409.296,324.582C409.296,316.304 402.575,309.582 394.296,309.582L305.63,309.582C297.351,309.582 290.63,316.304 290.63,324.582C290.63,332.861 297.351,339.582 305.63,339.582L394.296,339.582C402.575,339.582 409.296,332.861 409.296,324.582Z"/>
    </g>
    <g transform="matrix(0.048,0,0,0.048,0,0)">
        <path d="M60.074,60.835L60.074,240L240,240L240,60.835L60.074,60.835ZM165.037,135.275L165.037,105.942C165.037,97.663 158.316,90.942 150.037,90.942C141.758,90.942 135.037,97.663 135.037,105.942L135.037,135.275L105.704,135.275C97.425,135.275 90.704,141.996 90.704,150.275C90.704,158.554 97.425,165.275 105.704,165.275L135.037,165.275L135.037,194.609C135.037,202.887 141.758,209.609 150.037,209.609C158.316,209.609 165.037,202.887 165.037,194.609L165.037,165.275L194.37,165.275C202.649,165.275 209.37,158.554 209.37,150.275C209.37,141.996 202.649,135.275 194.37,135.275L165.037,135.275Z"/>
    </g>
    <g transform="matrix(0.048,0,0,0.048,0,0)">
        <path d="M60.074,260L60.074,439.165L240,439.165L240,260L60.074,260ZM171.25,350.082L191.992,329.341C197.846,323.487 197.846,313.981 191.992,308.127C186.138,302.273 176.633,302.273 170.779,308.127L150.037,328.869L129.295,308.127C123.441,302.273 113.936,302.273 108.082,308.127C102.228,313.981 102.228,323.487 108.082,329.341L128.824,350.082L108.082,370.824C102.228,376.678 102.228,386.183 108.082,392.037C113.936,397.891 123.441,397.891 129.295,392.037L150.037,371.296L170.779,392.037C176.633,397.891 186.138,397.891 191.992,392.037C197.846,386.183 197.846,376.678 191.992,370.824L171.25,350.082Z"/>
    </g>
</svg>
