<?xml version="1.0" encoding="UTF-8" standalone="no"?>
<!DOCTYPE svg PUBLIC "-//W3C//DTD SVG 1.1//EN" "http://www.w3.org/Graphics/SVG/1.1/DTD/svg11.dtd">
<svg width="100%" height="100%" viewBox="0 0 24 24" version="1.1" xmlns="http://www.w3.org/2000/svg" xmlns:xlink="http://www.w3.org/1999/xlink" xml:space="preserve" xmlns:serif="http://www.serif.com/" style="fill-rule:evenodd;clip-rule:evenodd;stroke-linejoin:round;stroke-miterlimit:2;">
    <g transform="matrix(0.0339411,0.0339411,-0.0339411,0.0339411,11.9775,-5.49108)">
        <path d="M408.358,360.549C372.599,376.699 310.608,389.179 250,388.399C194.186,387.681 139.545,374.958 107.642,360.549C20.546,321.212 34.85,232.017 37.842,215.692C39.141,208.604 49.446,199.334 58.509,192.882C64.751,188.438 68.357,185.007 78.176,189.215C95.676,196.715 161.727,225.923 163.509,237.882C166.52,258.094 163.304,279.011 169.509,285.215C175.368,291.074 211.695,299.194 250,299.574C293.626,300.007 339.819,291.888 346.491,285.215C352.696,279.011 349.48,258.094 352.491,237.882C354.273,225.923 420.324,196.715 437.824,189.215C447.643,185.007 451.249,188.438 457.491,192.882C466.554,199.334 476.859,208.604 478.158,215.692C481.15,232.017 495.454,321.212 408.358,360.549Z"/>
    </g>
</svg>
