<?xml version="1.0" encoding="UTF-8" standalone="no"?>
<!DOCTYPE svg PUBLIC "-//W3C//DTD SVG 1.1//EN" "http://www.w3.org/Graphics/SVG/1.1/DTD/svg11.dtd">
<svg width="100%" height="100%" viewBox="0 0 24 24" version="1.1" xmlns="http://www.w3.org/2000/svg" xmlns:xlink="http://www.w3.org/1999/xlink" xml:space="preserve" xmlns:serif="http://www.serif.com/" style="fill-rule:evenodd;clip-rule:evenodd;stroke-linejoin:round;stroke-miterlimit:2;">
    <g transform="matrix(0.048,0,0,0.048,0,0)">
        <path d="M148.063,121.851L199.846,70.068C202.84,67.074 206.788,65.612 210.715,65.68C210.803,65.678 210.889,65.678 210.976,65.678L290.59,65.678C290.668,65.678 290.745,65.678 290.822,65.68C294.739,65.62 298.674,67.083 301.66,70.068L353.443,121.851L454.246,121.851C470.255,121.851 483.253,134.849 483.253,150.858L483.253,397.845C483.253,413.854 470.255,426.851 454.246,426.851L47.26,426.851C31.25,426.851 18.253,413.854 18.253,397.845L18.253,150.858C18.253,134.849 31.25,121.851 47.26,121.851L148.063,121.851ZM250,168.95C308.016,168.95 355.117,216.052 355.117,274.068C355.117,332.084 308.016,379.185 250,379.185C191.984,379.185 144.883,332.084 144.883,274.068C144.883,216.052 191.984,168.95 250,168.95ZM250,199.068C291.394,199.068 325,232.674 325,274.068C325,315.461 291.394,349.068 250,349.068C208.606,349.068 175,315.461 175,274.068C175,232.674 208.606,199.068 250,199.068Z"/>
    </g>
</svg>
