<?xml version="1.0" encoding="UTF-8" standalone="no"?>
<!DOCTYPE svg PUBLIC "-//W3C//DTD SVG 1.1//EN" "http://www.w3.org/Graphics/SVG/1.1/DTD/svg11.dtd">
<svg width="100%" height="100%" viewBox="0 0 24 24" version="1.1" xmlns="http://www.w3.org/2000/svg" xmlns:xlink="http://www.w3.org/1999/xlink" xml:space="preserve" xmlns:serif="http://www.serif.com/" style="fill-rule:evenodd;clip-rule:evenodd;stroke-linejoin:round;stroke-miterlimit:2;">
    <g transform="matrix(0.048,0,0,0.048,0,0)">
        <path d="M410.206,191.039C424.139,225.447 440.285,266.174 440.285,270.118L440.285,344.653C440.285,359.493 428.237,371.541 413.397,371.541L86.603,371.541C71.763,371.541 59.715,359.493 59.715,344.653L59.715,270.118C59.715,266.174 75.861,225.447 89.794,191.039L109.088,238.373L392.456,232.719L410.206,191.039ZM143.401,272.498C157.199,272.498 168.401,283.7 168.401,297.498C168.401,311.296 157.199,322.498 143.401,322.498C129.603,322.498 118.401,311.296 118.401,297.498C118.401,283.7 129.603,272.498 143.401,272.498ZM356.599,272.498C370.397,272.498 381.599,283.7 381.599,297.498C381.599,311.296 370.397,322.498 356.599,322.498C342.801,322.498 331.599,311.296 331.599,297.498C331.599,283.7 342.801,272.498 356.599,272.498Z"/>
    </g>
    <g transform="matrix(0.048,0,0,0.048,0,2.4)">
        <path d="M153.618,304.498L69.715,298.498L69.715,344.653C69.715,359.493 81.763,371.541 96.603,371.541L126.73,371.541C141.57,371.541 153.618,359.493 153.618,344.653L153.618,304.498Z"/>
    </g>
    <g transform="matrix(-0.048,0,0,0.048,24,2.4)">
        <path d="M153.618,304.498L69.715,298.498L69.715,344.653C69.715,359.493 81.763,371.541 96.603,371.541L126.73,371.541C141.57,371.541 153.618,359.493 153.618,344.653L153.618,304.498Z"/>
    </g>
    <g transform="matrix(0.048,0,0,0.048,0,0)">
        <path d="M94.995,197.581L49.401,197.581C35.603,197.581 24.401,208.784 24.401,222.581C24.401,236.379 35.603,247.581 49.401,247.581L94.995,247.581L94.995,197.581Z"/>
    </g>
    <g transform="matrix(-0.048,0,0,0.048,24,0)">
        <path d="M94.995,197.581L49.401,197.581C35.603,197.581 24.401,208.784 24.401,222.581C24.401,236.379 35.603,247.581 49.401,247.581L94.995,247.581L94.995,197.581Z"/>
    </g>
    <g transform="matrix(0.048,0,0,0.048,0,0)">
        <path d="M116.741,251.79C99.352,251.79 84.792,239.576 81.182,223.268C80.641,220.824 80.346,218.289 80.325,215.689C80.325,210.957 89.797,189.32 89.797,189.32C89.797,189.32 106.069,150.529 108.975,143.493C117.88,114.184 143.673,92.199 175.002,88.891C177.321,88.625 179.891,88.476 182.73,88.46L183.229,88.459L316.511,88.459L317.01,88.46C319.849,88.476 322.419,88.625 324.737,88.891C356.067,92.199 381.86,114.184 390.764,143.493C393.671,150.529 409.943,189.32 409.943,189.32C409.943,189.32 419.415,210.957 419.415,215.689C419.393,218.289 419.098,220.824 418.557,223.268C414.947,239.576 400.388,251.79 382.999,251.79L116.741,251.79ZM379.608,221.79C389.331,221.79 385.378,212.733 385.378,212.733L362.378,154.468C362.335,154.445 362.313,154.431 362.311,154.424C356.549,133.693 337.521,118.459 314.963,118.459L184.777,118.459C162.219,118.459 143.191,133.693 137.429,154.424C137.427,154.431 137.404,154.445 137.362,154.468L114.361,212.733C114.361,212.733 110.409,221.79 120.132,221.79L379.608,221.79Z"/>
    </g>
</svg>
