<?xml version="1.0" encoding="UTF-8" standalone="no"?>
<!DOCTYPE svg PUBLIC "-//W3C//DTD SVG 1.1//EN" "http://www.w3.org/Graphics/SVG/1.1/DTD/svg11.dtd">
<svg width="100%" height="100%" viewBox="0 0 24 24" version="1.1" xmlns="http://www.w3.org/2000/svg" xmlns:xlink="http://www.w3.org/1999/xlink" xml:space="preserve" xmlns:serif="http://www.serif.com/" style="fill-rule:evenodd;clip-rule:evenodd;stroke-linejoin:round;stroke-miterlimit:2;">
    <g transform="matrix(0.0404878,0,0,0.0404878,1.86818,1.66871)">
        <circle cx="250.244" cy="257.103" r="35.566"/>
    </g>
    <g transform="matrix(0.048,0,0,0.048,0,0)">
        <path d="M250,36.63C368.662,36.63 465,132.968 465,251.63C465,370.291 368.662,466.63 250,466.63C131.338,466.63 35,370.291 35,251.63C35,132.968 131.338,36.63 250,36.63ZM280.981,226.339L340.245,123.691C344.384,116.522 341.924,107.34 334.755,103.201C327.585,99.061 318.404,101.522 314.264,108.691L254.676,211.901C253.14,211.722 251.581,211.63 250,211.63C227.923,211.63 210,229.553 210,251.63C210,251.992 210.005,252.353 210.014,252.71L140.328,286.482C132.879,290.092 129.761,299.072 133.372,306.522C136.982,313.972 145.962,317.089 153.412,313.478L222.037,280.221C229.25,287.277 239.121,291.63 250,291.63C272.077,291.63 290,273.706 290,251.63C290,242.04 286.618,233.233 280.981,226.339Z"/>
    </g>
</svg>
