<?xml version="1.0" encoding="UTF-8" standalone="no"?>
<!DOCTYPE svg PUBLIC "-//W3C//DTD SVG 1.1//EN" "http://www.w3.org/Graphics/SVG/1.1/DTD/svg11.dtd">
<svg width="100%" height="100%" viewBox="0 0 24 24" version="1.1" xmlns="http://www.w3.org/2000/svg" xmlns:xlink="http://www.w3.org/1999/xlink" xml:space="preserve" xmlns:serif="http://www.serif.com/" style="fill-rule:evenodd;clip-rule:evenodd;stroke-linejoin:round;stroke-miterlimit:2;">
    <g transform="matrix(0.048,0,0,0.048,-4.09273e-15,0.00170563)">
        <path d="M411.244,249.964L315.113,346.096C309.259,351.949 309.259,361.455 315.113,367.309C320.967,373.163 330.472,373.163 336.326,367.309L443.028,260.607C445.964,257.671 447.428,253.817 447.419,249.964C447.428,246.112 445.964,242.258 443.028,239.322L336.326,132.62C330.472,126.766 320.967,126.766 315.113,132.62C309.259,138.474 309.259,147.979 315.113,153.833L411.244,249.964Z"/>
    </g>
    <g transform="matrix(0.048,0,0,0.048,-4.09273e-15,0.00170563)">
        <path d="M52.581,249.964C52.572,246.112 54.036,242.258 56.972,239.322L163.674,132.62C169.528,126.766 179.033,126.766 184.887,132.62C190.741,138.474 190.741,147.979 184.887,153.833L88.756,249.964L184.887,346.096C190.741,351.949 190.741,361.455 184.887,367.309C179.033,373.163 169.528,373.163 163.674,367.309L56.972,260.607C54.036,257.671 52.572,253.817 52.581,249.964Z"/>
    </g>
</svg>
