<?xml version="1.0" encoding="UTF-8" standalone="no"?>
<!DOCTYPE svg PUBLIC "-//W3C//DTD SVG 1.1//EN" "http://www.w3.org/Graphics/SVG/1.1/DTD/svg11.dtd">
<svg width="100%" height="100%" viewBox="0 0 24 24" version="1.1" xmlns="http://www.w3.org/2000/svg" xmlns:xlink="http://www.w3.org/1999/xlink" xml:space="preserve" xmlns:serif="http://www.serif.com/" style="fill-rule:evenodd;clip-rule:evenodd;stroke-linejoin:round;stroke-miterlimit:2;">
    <g transform="matrix(0.048,0,0,0.048,0,0)">
        <path d="M18.415,106.307L18.415,426.726L18.448,427.72C18.481,428.233 18.541,428.739 18.625,429.236L18.668,429.48C19.202,432.357 20.581,435.109 22.805,437.334C25.03,439.558 27.782,440.937 30.659,441.471L30.903,441.514C31.401,441.598 31.906,441.658 32.419,441.691L33.222,441.723L33.503,441.724C35.039,441.715 36.52,441.475 37.914,441.037C40.147,440.337 42.25,439.103 44.019,437.334L148.705,332.647L439.434,332.647C463.967,332.647 483.885,312.73 483.885,288.197L483.885,106.307C483.885,81.774 463.967,61.857 439.434,61.857L62.865,61.857C38.333,61.857 18.415,81.774 18.415,106.307ZM402.57,255.932C402.57,247.653 395.849,240.932 387.57,240.932L114.729,240.932C106.451,240.932 99.729,247.653 99.729,255.932C99.729,264.211 106.451,270.932 114.729,270.932L387.57,270.932C395.849,270.932 402.57,264.211 402.57,255.932ZM402.57,197.252C402.57,188.973 395.849,182.252 387.57,182.252L114.729,182.252C106.451,182.252 99.729,188.973 99.729,197.252C99.729,205.531 106.451,212.252 114.729,212.252L387.57,212.252C395.849,212.252 402.57,205.531 402.57,197.252ZM402.57,138.572C402.57,130.293 395.849,123.572 387.57,123.572L114.729,123.572C106.451,123.572 99.729,130.293 99.729,138.572C99.729,146.851 106.451,153.572 114.729,153.572L387.57,153.572C395.849,153.572 402.57,146.851 402.57,138.572Z"/>
    </g>
</svg>
