<?xml version="1.0" encoding="UTF-8" standalone="no"?>
<!DOCTYPE svg PUBLIC "-//W3C//DTD SVG 1.1//EN" "http://www.w3.org/Graphics/SVG/1.1/DTD/svg11.dtd">
<svg width="100%" height="100%" viewBox="0 0 24 24" version="1.1" xmlns="http://www.w3.org/2000/svg" xmlns:xlink="http://www.w3.org/1999/xlink" xml:space="preserve" xmlns:serif="http://www.serif.com/" style="fill-rule:evenodd;clip-rule:evenodd;stroke-linejoin:round;stroke-miterlimit:2;">
    <g transform="matrix(-0.0417853,0.0417853,0.0243537,0.0243537,16.5654,-0.235454)">
        <path d="M214.012,88.159C214.012,76.622 208.552,67.254 201.827,67.254C195.103,67.254 189.643,76.622 189.643,88.159L189.643,229.904C189.643,241.442 195.103,250.809 201.827,250.809C208.552,250.809 214.012,241.442 214.012,229.904L214.012,88.159Z"/>
    </g>
    <g transform="matrix(0.048,0,0,0.048,0,0)">
        <path d="M265,16.232C383.136,23.275 477.893,117.778 485.337,235.809L410.542,235.809C402.263,235.809 395.542,242.531 395.542,250.809C395.542,259.088 402.263,265.809 410.542,265.809L485.337,265.809C477.897,383.835 383.142,478.34 265,485.387L265,411.351C265,403.073 258.279,396.351 250,396.351C241.721,396.351 235,403.073 235,411.351L235,485.285C117.607,477.464 23.695,383.295 16.281,265.809L89.458,265.809C97.737,265.809 104.458,259.088 104.458,250.809C104.458,242.531 97.737,235.809 89.458,235.809L16.281,235.809C23.688,118.324 117.612,24.144 235,16.334L235,90.267C235,98.546 241.721,105.267 250,105.267C258.279,105.267 265,98.546 265,90.267L265,16.232ZM221.567,221.891C222.228,221.161 222.972,220.486 223.796,219.879L363.681,116.898C370.348,111.99 379.746,113.418 384.654,120.085C387.87,124.454 388.366,129.997 386.447,134.68C385.983,135.851 385.362,136.981 384.582,138.042L281.704,277.787C281.097,278.611 280.422,279.355 279.692,280.016C279.031,280.745 278.287,281.421 277.463,282.027L137.968,384.721C131.301,389.629 121.904,388.201 116.996,381.534C115.32,379.257 114.383,376.662 114.141,374.036C113.734,370.414 114.637,366.637 116.965,363.474L219.555,224.12C220.162,223.296 220.837,222.552 221.567,221.891Z"/>
    </g>
</svg>
