<?xml version="1.0" encoding="UTF-8" standalone="no"?>
<!DOCTYPE svg PUBLIC "-//W3C//DTD SVG 1.1//EN" "http://www.w3.org/Graphics/SVG/1.1/DTD/svg11.dtd">
<svg width="100%" height="100%" viewBox="0 0 24 24" version="1.1" xmlns="http://www.w3.org/2000/svg" xmlns:xlink="http://www.w3.org/1999/xlink" xml:space="preserve" xmlns:serif="http://www.serif.com/" style="fill-rule:evenodd;clip-rule:evenodd;stroke-linejoin:round;stroke-miterlimit:2;">
    <g transform="matrix(0.048,0,0,0.072,1.36424e-15,-11.224)">
        <path d="M446.667,462.667C446.667,457.148 439.945,452.667 431.667,452.667L68.333,452.667C60.055,452.667 53.333,457.148 53.333,462.667C53.333,468.186 60.055,472.667 68.333,472.667L431.667,472.667C439.945,472.667 446.667,468.186 446.667,462.667Z"/>
    </g>
    <g transform="matrix(0.048,0,0,0.048,0,0)">
        <path d="M384.5,24.833L115.5,24.833C108.144,24.833 102.017,30.141 100.743,37.132C100.583,38.008 100.5,38.911 100.5,39.833L100.5,450.167C100.5,458.445 107.221,465.167 115.5,465.167L384.5,465.167C392.779,465.167 399.5,458.445 399.5,450.167L399.5,39.833C399.5,38.911 399.417,38.008 399.257,37.132C397.983,30.141 391.856,24.833 384.5,24.833ZM316.167,343.487L183.833,343.487C179.694,343.487 176.333,346.848 176.333,350.987L176.333,445.167C176.333,445.167 323.667,445.167 323.667,445.167L323.667,350.987C323.667,346.848 320.306,343.487 316.167,343.487ZM334.167,211.487L165.833,211.487C161.694,211.487 158.333,214.848 158.333,218.987L158.333,285.689C158.333,289.829 161.694,293.189 165.833,293.189L334.167,293.189C338.306,293.189 341.667,289.829 341.667,285.689L341.667,218.987C341.667,214.848 338.306,211.487 334.167,211.487ZM334.167,84.487L165.833,84.487C161.694,84.487 158.333,87.848 158.333,91.987L158.333,158.689C158.333,162.829 161.694,166.189 165.833,166.189L334.167,166.189C338.306,166.189 341.667,162.829 341.667,158.689L341.667,91.987C341.667,87.848 338.306,84.487 334.167,84.487Z"/>
    </g>
    <g transform="matrix(0.0475774,0,0,0.0519448,3.13052,-2.07498)">
        <path d="M196.511,352.728C196.511,347.628 191.99,343.487 186.422,343.487C180.854,343.487 176.333,347.628 176.333,352.728L176.333,455.926C176.333,461.026 180.854,465.167 186.422,465.167C191.99,465.167 196.511,461.026 196.511,455.926L196.511,352.728Z"/>
    </g>
</svg>
