<?xml version="1.0" encoding="UTF-8" standalone="no"?>
<!DOCTYPE svg PUBLIC "-//W3C//DTD SVG 1.1//EN" "http://www.w3.org/Graphics/SVG/1.1/DTD/svg11.dtd">
<svg width="100%" height="100%" viewBox="0 0 24 24" version="1.1" xmlns="http://www.w3.org/2000/svg" xmlns:xlink="http://www.w3.org/1999/xlink" xml:space="preserve" xmlns:serif="http://www.serif.com/" style="fill-rule:evenodd;clip-rule:evenodd;stroke-linejoin:round;stroke-miterlimit:2;">
    <g transform="matrix(3.11493e-18,-0.0508706,0.0407238,2.49361e-18,3.50868,23.1237)">
        <path d="M49.726,74.562C49.726,64.804 43.384,56.882 35.572,56.882C27.761,56.882 21.419,64.804 21.419,74.562L21.419,340.803C21.419,350.561 27.761,358.483 35.572,358.483C43.384,358.483 49.726,350.561 49.726,340.803L49.726,74.562Z"/>
    </g>
    <g transform="matrix(0.0571376,0,0,0.048,-1.73614,0)">
        <rect x="190" y="338.483" width="100.809" height="105.562"/>
    </g>
    <g transform="matrix(0.048,0,0,0.048,0,0)">
        <path d="M31.419,51.882C23.563,51.882 17.11,57.934 16.471,65.626L16.467,65.672C16.435,66.071 16.419,66.475 16.419,66.882L16.419,348.483C16.419,348.89 16.435,349.294 16.467,349.693L16.471,349.739C17.11,357.431 23.563,363.483 31.419,363.483L467.177,363.483C475.033,363.483 481.486,357.431 482.125,349.739L482.129,349.693C482.161,349.294 482.177,348.89 482.177,348.483L482.177,66.882C482.177,66.475 482.161,66.071 482.129,65.672L482.125,65.626C481.486,57.934 475.033,51.882 467.177,51.882L31.419,51.882ZM423.262,305.934C425.716,304.111 427.307,301.19 427.307,297.902L427.307,116.434C427.307,113.145 425.716,110.225 423.262,108.401C421.598,107.165 419.538,106.434 417.307,106.434L81.288,106.434C79.058,106.434 76.997,107.165 75.334,108.401C72.879,110.225 71.288,113.145 71.288,116.434L71.288,297.902C71.288,301.19 72.879,304.111 75.334,305.934C76.997,307.17 79.058,307.902 81.288,307.902L417.307,307.902C419.538,307.902 421.598,307.17 423.262,305.934Z"/>
    </g>
</svg>
