<?xml version="1.0" encoding="UTF-8" standalone="no"?>
<!DOCTYPE svg PUBLIC "-//W3C//DTD SVG 1.1//EN" "http://www.w3.org/Graphics/SVG/1.1/DTD/svg11.dtd">
<svg width="100%" height="100%" viewBox="0 0 24 24" version="1.1" xmlns="http://www.w3.org/2000/svg" xmlns:xlink="http://www.w3.org/1999/xlink" xml:space="preserve" xmlns:serif="http://www.serif.com/" style="fill-rule:evenodd;clip-rule:evenodd;stroke-linejoin:round;stroke-miterlimit:2;">
    <g transform="matrix(4.28528e-18,0.069984,-0.0427108,2.61528e-18,23.4191,-1.52312)">
        <path d="M55.898,103.277C55.898,93.973 51.289,86.42 45.61,86.42C39.932,86.42 35.322,93.973 35.322,103.277L35.322,442.676C35.322,451.98 39.932,459.534 45.61,459.534C51.289,459.534 55.898,451.98 55.898,442.676L55.898,103.277Z"/>
    </g>
    <g transform="matrix(4.28528e-18,0.069984,-0.0427108,2.61528e-18,23.4191,19.1391)">
        <path d="M55.898,103.277C55.898,93.973 51.289,86.42 45.61,86.42C39.932,86.42 35.322,93.973 35.322,103.277L35.322,442.676C35.322,451.98 39.932,459.534 45.61,459.534C51.289,459.534 55.898,451.98 55.898,442.676L55.898,103.277Z"/>
    </g>
    <g transform="matrix(0.048,0,0,0.048,0,0)">
        <path d="M60,430.232L440,430.232C448.279,430.232 455,423.51 455,415.232L455,84.768C455,76.49 448.279,69.768 440,69.768L60,69.768C51.721,69.768 45,76.49 45,84.768L45,415.232C45,423.51 51.721,430.232 60,430.232ZM250,244.815C304.613,244.815 354.786,283.323 354.786,323.567C354.786,349.47 304.613,367.31 250,367.31C195.387,367.31 145.214,352.748 145.214,323.567C145.214,283.323 195.387,244.815 250,244.815ZM250,132.69C274.836,132.69 295,152.853 295,177.69C295,202.526 274.836,222.69 250,222.69C225.164,222.69 205,202.526 205,177.69C205,152.853 225.164,132.69 250,132.69Z"/>
    </g>
</svg>
