<?xml version="1.0" encoding="UTF-8" standalone="no"?>
<!DOCTYPE svg PUBLIC "-//W3C//DTD SVG 1.1//EN" "http://www.w3.org/Graphics/SVG/1.1/DTD/svg11.dtd">
<svg width="100%" height="100%" viewBox="0 0 24 24" version="1.1" xmlns="http://www.w3.org/2000/svg" xmlns:xlink="http://www.w3.org/1999/xlink" xml:space="preserve" xmlns:serif="http://www.serif.com/" style="fill-rule:evenodd;clip-rule:evenodd;stroke-linejoin:round;stroke-miterlimit:2;">
    <g transform="matrix(0.048,0,0,0.048,0,0)">
        <path d="M234.911,35.516L234.911,464.484C123.234,456.771 34.911,363.619 34.911,250C34.911,136.381 123.234,43.229 234.911,35.516ZM463.261,276.739L276.65,463.35C373.951,451.258 451.168,374.041 463.261,276.739ZM458.447,197.513C461.358,209.094 463.328,221.054 464.271,233.303L264.911,432.663L264.911,391.049L458.447,197.513ZM433.616,138.304C438.961,147.07 443.696,156.248 447.76,165.773L264.911,348.623L264.911,307.009L433.616,138.304ZM395.775,92.105C402.988,98.771 409.743,105.925 415.984,113.509L264.911,264.583L264.911,222.969L395.775,92.105ZM346.129,57.711C355.219,62.272 363.941,67.459 372.239,73.215L264.911,180.543L264.911,138.929L346.129,57.711ZM264.911,35.516C282.623,36.739 299.747,40.112 316.036,45.377L264.911,96.503L264.911,35.516Z"/>
    </g>
</svg>
