<?xml version="1.0" encoding="UTF-8" standalone="no"?>
<!DOCTYPE svg PUBLIC "-//W3C//DTD SVG 1.1//EN" "http://www.w3.org/Graphics/SVG/1.1/DTD/svg11.dtd">
<svg width="100%" height="100%" viewBox="0 0 24 24" version="1.1" xmlns="http://www.w3.org/2000/svg" xmlns:xlink="http://www.w3.org/1999/xlink" xml:space="preserve" xmlns:serif="http://www.serif.com/" style="fill-rule:evenodd;clip-rule:evenodd;stroke-linejoin:round;stroke-miterlimit:2;">
    <g transform="matrix(0.048,0,0,0.048,0,0)">
        <path d="M233,99.121L69.679,99.121C62.82,99.121 57.251,104.689 57.251,111.548L57.251,477.645C57.251,484.504 62.82,490.073 69.679,490.073L330.082,490.073C336.941,490.073 342.51,484.504 342.51,477.645L342.51,209.387L248,209.387C239.721,209.387 233,202.665 233,194.387L233,99.121ZM332.898,179.387L263,179.387L263,109.489L332.898,179.387Z"/>
    </g>
    <g transform="matrix(0.048,0,0,0.048,0,0)">
        <path d="M146.316,69.121L258,69.121C258.158,69.121 258.316,69.123 258.472,69.128C262.432,69.033 266.423,70.495 269.442,73.514L368.116,172.188C371.117,175.189 372.579,179.148 372.504,183.084C372.508,183.222 372.51,183.361 372.51,183.5L372.51,401.008L419.147,401.008C426.006,401.008 431.575,395.44 431.575,388.581L431.575,120.322L337.065,120.322C328.786,120.322 322.065,113.601 322.065,105.322L322.065,10.056L158.743,10.056C151.885,10.056 146.316,15.625 146.316,22.484L146.316,69.121ZM421.962,90.322L352.065,90.322L352.065,20.424L421.962,90.322Z"/>
    </g>
</svg>
