<?xml version="1.0" encoding="UTF-8" standalone="no"?>
<!DOCTYPE svg PUBLIC "-//W3C//DTD SVG 1.1//EN" "http://www.w3.org/Graphics/SVG/1.1/DTD/svg11.dtd">
<svg width="100%" height="100%" viewBox="0 0 24 24" version="1.1" xmlns="http://www.w3.org/2000/svg" xmlns:xlink="http://www.w3.org/1999/xlink" xml:space="preserve" xmlns:serif="http://www.serif.com/" style="fill-rule:evenodd;clip-rule:evenodd;stroke-linejoin:round;stroke-miterlimit:2;">
    <g transform="matrix(0.0526936,0,0,0.0443286,1.11093,0.652675)">
        <path d="M88.82,45.676C88.82,36.712 82.698,29.434 75.156,29.434C67.615,29.434 61.493,36.712 61.493,45.676L61.493,384.992C61.493,393.957 67.615,401.235 75.156,401.235C82.698,401.235 88.82,393.957 88.82,384.992L88.82,45.676Z"/>
    </g>
    <g transform="matrix(0.0526936,0,0,0.0443286,14.9685,4.25638)">
        <path d="M88.82,45.676C88.82,36.712 82.698,29.434 75.156,29.434C67.615,29.434 61.493,36.712 61.493,45.676L61.493,384.992C61.493,393.957 67.615,401.235 75.156,401.235C82.698,401.235 88.82,393.957 88.82,384.992L88.82,45.676Z"/>
    </g>
    <g transform="matrix(3.22655e-18,0.0526936,-0.0508373,3.11289e-18,21.1452,2.32089)">
        <path d="M88.82,43.597C88.82,35.78 82.698,29.434 75.156,29.434C67.615,29.434 61.493,35.78 61.493,43.597L61.493,387.072C61.493,394.888 67.615,401.235 75.156,401.235C82.698,401.235 88.82,394.888 88.82,387.072L88.82,43.597Z"/>
    </g>
    <g transform="matrix(3.22655e-18,0.0526936,-0.0508373,3.11289e-18,24.7489,13.7586)">
        <path d="M88.82,43.597C88.82,35.78 82.698,29.434 75.156,29.434C67.615,29.434 61.493,35.78 61.493,43.597L61.493,387.072C61.493,394.888 67.615,401.235 75.156,401.235C82.698,401.235 88.82,394.888 88.82,387.072L88.82,43.597Z"/>
    </g>
</svg>
