<?xml version="1.0" encoding="UTF-8" standalone="no"?>
<!DOCTYPE svg PUBLIC "-//W3C//DTD SVG 1.1//EN" "http://www.w3.org/Graphics/SVG/1.1/DTD/svg11.dtd">
<svg width="100%" height="100%" viewBox="0 0 24 24" version="1.1" xmlns="http://www.w3.org/2000/svg" xmlns:xlink="http://www.w3.org/1999/xlink" xml:space="preserve" xmlns:serif="http://www.serif.com/" style="fill-rule:evenodd;clip-rule:evenodd;stroke-linejoin:round;stroke-miterlimit:2;">
    <g transform="matrix(0.048,0,0,0.048,0,0)">
        <path d="M195.896,208.727C192.003,208.769 188.096,207.306 185.127,204.338L37.894,57.105C32.04,51.251 32.04,41.745 37.894,35.892C43.748,30.038 53.253,30.038 59.107,35.892L195.896,172.681L254.069,114.508C257.045,111.532 260.965,110.069 264.869,110.119C268.772,110.069 272.692,111.532 275.668,114.508L435.917,274.757L436.5,250.21C436.697,241.933 443.576,235.374 451.853,235.571C460.129,235.767 466.689,242.647 466.492,250.923L465.066,310.906C464.967,315.038 463.204,318.741 460.433,321.39L460.419,321.403C460.419,321.403 460.406,321.416 460.406,321.416C457.628,324.058 453.845,325.643 449.713,325.545C449.713,325.545 389.73,324.119 389.73,324.119C381.454,323.922 374.894,317.043 375.091,308.766C375.288,300.49 382.167,293.93 390.443,294.127L413.407,294.673L264.869,146.135L206.666,204.338C203.697,207.306 199.79,208.769 195.896,208.727Z"/>
    </g>
    <g transform="matrix(0.0543871,0,0,0.0448076,-0.441025,1.56317)">
        <path d="M84.079,135.01C84.079,128.717 79.87,123.608 74.685,123.608L55.898,123.608C50.713,123.608 46.504,128.717 46.504,135.01L46.504,455.59C46.504,461.883 50.713,466.992 55.898,466.992L74.685,466.992C79.87,466.992 84.079,461.883 84.079,455.59L84.079,135.01Z"/>
    </g>
    <g transform="matrix(0.0543871,0,0,0.0331196,3.93198,7.02134)">
        <path d="M84.079,139.034C84.079,130.52 79.87,123.608 74.685,123.608L55.898,123.608C50.713,123.608 46.504,130.52 46.504,139.034L46.504,451.566C46.504,460.08 50.713,466.992 55.898,466.992L74.685,466.992C79.87,466.992 84.079,460.08 84.079,451.566L84.079,139.034Z"/>
    </g>
    <g transform="matrix(0.0543871,0,0,0.0345175,8.30498,6.36855)">
        <path d="M84.079,138.409C84.079,130.24 79.87,123.608 74.685,123.608L55.898,123.608C50.713,123.608 46.504,130.24 46.504,138.409L46.504,452.191C46.504,460.36 50.713,466.992 55.898,466.992L74.685,466.992C79.87,466.992 84.079,460.36 84.079,452.191L84.079,138.409Z"/>
    </g>
    <g transform="matrix(0.0543871,0,0,0.0266117,12.678,10.0605)">
        <path d="M84.079,142.806C84.079,132.21 79.87,123.608 74.685,123.608L55.898,123.608C50.713,123.608 46.504,132.21 46.504,142.806L46.504,447.794C46.504,458.39 50.713,466.992 55.898,466.992L74.685,466.992C79.87,466.992 84.079,458.39 84.079,447.794L84.079,142.806Z"/>
    </g>
    <g transform="matrix(0.0543871,0,0,0.0161135,17.051,14.9631)">
        <path d="M84.079,155.315C84.079,137.815 79.87,123.608 74.685,123.608L55.898,123.608C50.713,123.608 46.504,137.815 46.504,155.315L46.504,435.285C46.504,452.785 50.713,466.992 55.898,466.992L74.685,466.992C79.87,466.992 84.079,452.785 84.079,435.285L84.079,155.315Z"/>
    </g>
</svg>
