<?xml version="1.0" encoding="UTF-8" standalone="no"?>
<!DOCTYPE svg PUBLIC "-//W3C//DTD SVG 1.1//EN" "http://www.w3.org/Graphics/SVG/1.1/DTD/svg11.dtd">
<svg width="100%" height="100%" viewBox="0 0 24 24" version="1.1" xmlns="http://www.w3.org/2000/svg" xmlns:xlink="http://www.w3.org/1999/xlink" xml:space="preserve" xmlns:serif="http://www.serif.com/" style="fill-rule:evenodd;clip-rule:evenodd;stroke-linejoin:round;stroke-miterlimit:2;">
    <g transform="matrix(0.048,0,0,0.0338028,-0.401473,0.596154)">
        <path d="M214.944,206.848C214.944,197.051 209.343,189.098 202.444,189.098L38.111,189.098C31.212,189.098 25.611,197.051 25.611,206.848C25.611,216.644 31.212,224.598 38.111,224.598L202.444,224.598C209.343,224.598 214.944,216.644 214.944,206.848Z"/>
    </g>
    <g transform="matrix(0.048,0,0,0.048,0,0)">
        <path d="M164.067,138.087L194.124,138.087C205.163,138.087 214.124,147.049 214.124,158.087C214.124,169.126 205.163,178.087 194.124,178.087L163.852,178.087L163.852,230L222.931,230C233.969,230 242.931,238.962 242.931,250C242.931,261.038 233.969,270 222.931,270L163.852,270L163.852,321.913L194.124,321.913C205.163,321.913 214.124,330.874 214.124,341.913C214.124,352.951 205.163,361.913 194.124,361.913L164.067,361.913C165.713,374.6 176.57,384.413 189.702,384.413L456.903,384.413C471.17,384.413 482.754,372.83 482.754,358.563L482.754,141.437C482.754,127.17 471.17,115.587 456.903,115.587L189.702,115.587C176.57,115.587 165.713,125.4 164.067,138.087ZM373.303,145.587L273.303,145.587L273.303,202.515L373.303,202.515L373.303,145.587Z"/>
    </g>
    <g transform="matrix(0.048,0,0,0.0338028,-0.401473,9.41978)">
        <path d="M214.944,206.848C214.944,197.051 209.343,189.098 202.444,189.098L38.111,189.098C31.212,189.098 25.611,197.051 25.611,206.848C25.611,216.644 31.212,224.598 38.111,224.598L202.444,224.598C209.343,224.598 214.944,216.644 214.944,206.848Z"/>
    </g>
    <g transform="matrix(0.0370063,0,0,0.0338028,3.35061,5.00797)">
        <path d="M214.944,206.848C214.944,197.051 207.679,189.098 198.73,189.098L41.824,189.098C32.876,189.098 25.611,197.051 25.611,206.848C25.611,216.644 32.876,224.598 41.824,224.598L198.73,224.598C207.679,224.598 214.944,216.644 214.944,206.848Z"/>
    </g>
    <g transform="matrix(0.0194522,0,0,0.0338028,1.9587,2.80206)">
        <path d="M214.944,206.848C214.944,197.051 201.123,189.098 184.099,189.098L56.455,189.098C39.432,189.098 25.611,197.051 25.611,206.848C25.611,216.644 39.432,224.598 56.455,224.598L184.099,224.598C201.123,224.598 214.944,216.644 214.944,206.848Z"/>
    </g>
    <g transform="matrix(0.0194522,0,0,0.0338028,1.9587,7.21387)">
        <path d="M214.944,206.848C214.944,197.051 201.123,189.098 184.099,189.098L56.455,189.098C39.432,189.098 25.611,197.051 25.611,206.848C25.611,216.644 39.432,224.598 56.455,224.598L184.099,224.598C201.123,224.598 214.944,216.644 214.944,206.848Z"/>
    </g>
</svg>
