<?xml version="1.0" encoding="UTF-8" standalone="no"?>
<!DOCTYPE svg PUBLIC "-//W3C//DTD SVG 1.1//EN" "http://www.w3.org/Graphics/SVG/1.1/DTD/svg11.dtd">
<svg width="100%" height="100%" viewBox="0 0 24 24" version="1.1" xmlns="http://www.w3.org/2000/svg" xmlns:xlink="http://www.w3.org/1999/xlink" xml:space="preserve" xmlns:serif="http://www.serif.com/" style="fill-rule:evenodd;clip-rule:evenodd;stroke-linejoin:round;stroke-miterlimit:2;">
    <g transform="matrix(0.048,0,0,0.0654545,0.476596,-6.01895)">
        <path d="M412.071,430.047C412.071,423.976 405.35,419.047 397.071,419.047L83.071,419.047C74.792,419.047 68.071,423.976 68.071,430.047C68.071,436.118 74.792,441.047 83.071,441.047L397.071,441.047C405.35,441.047 412.071,436.118 412.071,430.047Z"/>
    </g>
    <g transform="matrix(6.32259e-19,0.0103256,-0.0654545,4.00793e-18,32.6125,18.5947)">
        <path d="M412.071,430.047C412.071,423.976 380.826,419.047 342.341,419.047L137.801,419.047C99.316,419.047 68.071,423.976 68.071,430.047C68.071,436.118 99.316,441.047 137.801,441.047L342.341,441.047C380.826,441.047 412.071,436.118 412.071,430.047Z"/>
    </g>
    <g transform="matrix(6.32259e-19,0.0103256,-0.0654545,4.00793e-18,47.683,18.5947)">
        <path d="M412.071,430.047C412.071,423.976 380.826,419.047 342.341,419.047L137.801,419.047C99.316,419.047 68.071,423.976 68.071,430.047C68.071,436.118 99.316,441.047 137.801,441.047L342.341,441.047C380.826,441.047 412.071,436.118 412.071,430.047Z"/>
    </g>
    <g transform="matrix(9.99653e-19,0.0163256,-0.0654545,4.00793e-18,40.1485,14.6823)">
        <path d="M412.071,430.047C412.071,423.976 392.309,419.047 367.968,419.047L112.173,419.047C87.833,419.047 68.071,423.976 68.071,430.047C68.071,436.118 87.833,441.047 112.173,441.047L367.968,441.047C392.309,441.047 412.071,436.118 412.071,430.047Z"/>
    </g>
    <g transform="matrix(0.00881039,0.00881039,-0.0462834,0.0462834,28.7826,-2.33569)">
        <path d="M412.071,430.047C412.071,423.976 386.178,419.047 354.285,419.047L125.857,419.047C93.964,419.047 68.071,423.976 68.071,430.047C68.071,436.118 93.964,441.047 125.857,441.047L354.285,441.047C386.178,441.047 412.071,436.118 412.071,430.047Z"/>
    </g>
    <g transform="matrix(-0.00881039,0.00881039,-0.0462834,-0.0462834,35.0254,37.4723)">
        <path d="M412.071,430.047C412.071,423.976 386.178,419.047 354.285,419.047L125.857,419.047C93.964,419.047 68.071,423.976 68.071,430.047C68.071,436.118 93.964,441.047 125.857,441.047L354.285,441.047C386.178,441.047 412.071,436.118 412.071,430.047Z"/>
    </g>
    <g transform="matrix(0.048,0,0,0.048,0,0)">
        <path d="M250,23.968C338.306,23.968 410,95.661 410,183.968C410,272.274 338.306,343.968 250,343.968C161.694,343.968 90,272.274 90,183.968C90,95.661 161.694,23.968 250,23.968ZM209.537,98.866L282.74,98.866C291.019,98.866 297.74,105.587 297.74,113.866C297.74,122.144 291.019,128.866 282.74,128.866L224.537,128.866L224.537,156.069L249,156.069C249.235,156.069 249.469,156.075 249.702,156.086C249.99,156.075 250.281,156.069 250.575,156.069C282.31,156.069 308.075,181.834 308.075,213.569C308.075,245.305 282.31,271.069 250.575,271.069C220.892,271.069 196.432,248.529 193.393,219.645C193.183,217.648 193.075,215.621 193.075,213.569C193.075,197.237 223.075,197.237 223.075,213.569C223.075,215.67 223.311,217.717 223.758,219.683C226.541,231.922 237.498,241.069 250.575,241.069C265.753,241.069 278.075,228.747 278.075,213.569C278.075,198.392 265.753,186.069 250.575,186.069C250.382,186.069 250.19,186.071 250,186.075L250,186.069L209.537,186.069C203.116,186.069 197.632,182.026 195.493,176.348L195.479,176.311C194.87,174.68 194.537,172.913 194.537,171.069L194.537,113.866C194.537,105.587 201.258,98.866 209.537,98.866Z"/>
    </g>
</svg>
