<?xml version="1.0" encoding="UTF-8" standalone="no"?>
<!DOCTYPE svg PUBLIC "-//W3C//DTD SVG 1.1//EN" "http://www.w3.org/Graphics/SVG/1.1/DTD/svg11.dtd">
<svg width="100%" height="100%" viewBox="0 0 24 24" version="1.1" xmlns="http://www.w3.org/2000/svg" xmlns:xlink="http://www.w3.org/1999/xlink" xml:space="preserve" xmlns:serif="http://www.serif.com/" style="fill-rule:evenodd;clip-rule:evenodd;stroke-linejoin:round;stroke-miterlimit:2;">
    <g transform="matrix(0.048,0,0,0.048,0,0)">
        <path d="M45.958,170.396C47.171,167.42 49.345,164.809 52.341,163.08L242.484,53.301C247.119,50.625 252.595,50.707 257.006,53.037C257.272,53.17 257.537,53.313 257.799,53.464L447.659,163.08C450.655,164.809 452.829,167.42 454.042,170.396L454.05,170.415L454.061,170.444L454.077,170.481L454.087,170.508C454.739,172.133 455.115,173.898 455.155,175.745L455.158,175.889L455.158,175.918L455.158,175.931L455.159,176.002L455.159,176.083L455.159,433.709C455.159,441.988 448.438,448.709 440.159,448.709L386.667,448.709L386.667,258.94C386.667,253.421 382.186,248.94 376.667,248.94L123.333,248.94C117.814,248.94 113.333,253.421 113.333,258.94L113.333,448.709L59.841,448.709C51.562,448.709 44.841,441.988 44.841,433.709L44.841,176.083L44.841,176.002L44.842,175.931L44.842,175.918L44.842,175.889L44.844,175.769L44.845,175.745C44.885,173.898 45.261,172.133 45.913,170.508L45.923,170.481L45.939,170.444L45.95,170.415L45.958,170.396Z"/>
    </g>
    <g transform="matrix(-0.024819,3.03945e-18,-8.69014e-18,-0.0709603,18.2522,44.3743)">
        <path d="M454.171,429.214C454.171,423.614 441.172,419.067 425.161,419.067L74.839,419.067C58.828,419.067 45.829,423.614 45.829,429.214C45.829,434.814 58.828,439.36 74.839,439.36L425.161,439.36C441.172,439.36 454.171,434.814 454.171,429.214Z"/>
    </g>
    <g transform="matrix(-0.024819,3.03945e-18,-8.69014e-18,-0.0709603,18.2522,47.2007)">
        <path d="M454.171,429.214C454.171,423.614 441.172,419.067 425.161,419.067L74.839,419.067C58.828,419.067 45.829,423.614 45.829,429.214C45.829,434.814 58.828,439.36 74.839,439.36L425.161,439.36C441.172,439.36 454.171,434.814 454.171,429.214Z"/>
    </g>
    <g transform="matrix(-0.024819,3.03945e-18,-8.69014e-18,-0.0709603,18.2522,50.0272)">
        <path d="M454.171,429.214C454.171,423.614 441.172,419.067 425.161,419.067L74.839,419.067C58.828,419.067 45.829,423.614 45.829,429.214C45.829,434.814 58.828,439.36 74.839,439.36L425.161,439.36C441.172,439.36 454.171,434.814 454.171,429.214Z"/>
    </g>
</svg>
