<?xml version="1.0" encoding="UTF-8" standalone="no"?>
<!DOCTYPE svg PUBLIC "-//W3C//DTD SVG 1.1//EN" "http://www.w3.org/Graphics/SVG/1.1/DTD/svg11.dtd">
<svg width="100%" height="100%" viewBox="0 0 24 24" version="1.1" xmlns="http://www.w3.org/2000/svg" xmlns:xlink="http://www.w3.org/1999/xlink" xml:space="preserve" xmlns:serif="http://www.serif.com/" style="fill-rule:evenodd;clip-rule:evenodd;stroke-linejoin:round;stroke-miterlimit:2;">
    <g transform="matrix(0.048,0,0,0.048,0,0)">
        <path d="M232.679,44.699C237.009,40.655 242.713,38.407 248.638,38.407C254.562,38.407 260.266,40.655 264.596,44.699L290.17,68.578C291.129,69.474 292.302,70.11 293.577,70.424C294.852,70.738 296.186,70.721 297.452,70.373L331.193,61.114C336.907,59.546 343.002,60.205 348.248,62.958C353.494,65.712 357.499,70.354 359.455,75.946L371.001,108.975C371.435,110.214 372.178,111.322 373.161,112.193C374.144,113.063 375.333,113.668 376.615,113.948L410.795,121.43C416.582,122.697 421.673,126.113 425.039,130.989C428.405,135.865 429.794,141.837 428.926,147.697L423.801,182.309C423.609,183.607 423.752,184.934 424.218,186.161C424.683,187.389 425.456,188.477 426.461,189.322L453.248,211.83C457.784,215.641 460.704,221.032 461.418,226.914C462.133,232.795 460.588,238.728 457.096,243.515L436.473,271.78C435.699,272.84 435.21,274.081 435.051,275.385C434.893,276.688 435.071,278.01 435.569,279.225L448.828,311.604C451.073,317.087 451.153,323.218 449.052,328.757C446.952,334.297 442.826,338.833 437.51,341.448L406.114,356.891C404.936,357.471 403.926,358.342 403.18,359.423C402.434,360.503 401.977,361.757 401.853,363.064L398.546,397.896C397.986,403.794 395.208,409.26 390.774,413.189C386.339,417.117 380.578,419.216 374.656,419.061L339.679,418.146C338.367,418.111 337.067,418.413 335.905,419.024C334.742,419.634 333.755,420.531 333.038,421.631L313.923,450.937C310.686,455.899 305.686,459.447 299.933,460.865C294.181,462.283 288.105,461.464 282.933,458.575L252.388,441.51C251.242,440.869 249.951,440.533 248.638,440.533C247.325,440.533 246.034,440.869 244.888,441.51L214.343,458.575C209.171,461.464 203.094,462.283 197.342,460.865C191.589,459.447 186.59,455.899 183.353,450.937L164.237,421.631C163.52,420.531 162.533,419.634 161.371,419.024C160.208,418.413 158.909,418.111 157.596,418.146L122.619,419.061C116.697,419.216 110.936,417.117 106.502,413.189C102.067,409.26 99.289,403.794 98.729,397.896L95.422,363.064C95.298,361.757 94.841,360.503 94.095,359.423C93.35,358.342 92.339,357.471 91.161,356.891L59.765,341.448C54.449,338.833 50.324,334.297 48.223,328.757C46.122,323.218 46.202,317.087 48.447,311.604L61.706,279.225C62.204,278.01 62.382,276.688 62.224,275.385C62.066,274.081 61.576,272.84 60.802,271.78L40.18,243.515C36.688,238.728 35.143,232.795 35.857,226.914C36.571,221.032 39.491,215.641 44.027,211.83L70.815,189.322C71.82,188.477 72.592,187.389 73.058,186.161C73.523,184.934 73.667,183.607 73.474,182.309L68.349,147.697C67.482,141.837 68.871,135.865 72.236,130.989C75.602,126.113 80.693,122.697 86.48,121.43L120.66,113.948C121.943,113.668 123.132,113.063 124.115,112.193C125.097,111.322 125.841,110.214 126.274,108.975L137.821,75.946C139.776,70.354 143.781,65.712 149.027,62.958C154.273,60.205 160.369,59.546 166.082,61.114L199.823,70.373C201.09,70.721 202.424,70.738 203.698,70.424C204.973,70.11 206.146,69.474 207.106,68.578L232.679,44.699ZM309.483,256.364C338.458,256.364 361.983,279.888 361.983,308.864C361.983,337.839 338.458,361.364 309.483,361.364C280.507,361.364 256.983,337.839 256.983,308.864C256.983,279.888 280.507,256.364 309.483,256.364ZM325.66,152.353C319.164,147.22 309.724,148.327 304.591,154.822L169.719,325.505C164.587,332.001 165.693,341.441 172.189,346.574C178.684,351.707 188.125,350.6 193.258,344.105L328.129,173.422C333.262,166.926 332.155,157.486 325.66,152.353ZM309.483,286.364C321.901,286.364 331.983,296.445 331.983,308.864C331.983,321.282 321.901,331.364 309.483,331.364C297.065,331.364 286.983,321.282 286.983,308.864C286.983,296.445 297.065,286.364 309.483,286.364ZM187.792,138.636C216.768,138.636 240.292,162.161 240.292,191.136C240.292,220.112 216.768,243.636 187.792,243.636C158.817,243.636 135.292,220.112 135.292,191.136C135.292,162.161 158.817,138.636 187.792,138.636ZM187.792,168.636C200.211,168.636 210.292,178.718 210.292,191.136C210.292,203.555 200.211,213.636 187.792,213.636C175.374,213.636 165.292,203.555 165.292,191.136C165.292,178.718 175.374,168.636 187.792,168.636Z"/>
    </g>
</svg>
