<?xml version="1.0" encoding="UTF-8" standalone="no"?>
<!DOCTYPE svg PUBLIC "-//W3C//DTD SVG 1.1//EN" "http://www.w3.org/Graphics/SVG/1.1/DTD/svg11.dtd">
<svg width="100%" height="100%" viewBox="0 0 24 24" version="1.1" xmlns="http://www.w3.org/2000/svg" xmlns:xlink="http://www.w3.org/1999/xlink" xml:space="preserve" xmlns:serif="http://www.serif.com/" style="fill-rule:evenodd;clip-rule:evenodd;stroke-linejoin:round;stroke-miterlimit:2;">
    <g transform="matrix(0.048,0,0,0.048,0,0)">
        <path d="M314.125,130.388L314.125,30.202L97.172,30.202L97.172,469.647L413.961,469.647L413.961,130.388L314.125,130.388ZM351.527,364.535L351.527,334.535L162.606,334.535L162.606,364.535L351.527,364.535ZM307.527,292.202L307.527,262.202L162.606,262.202L162.606,292.202L307.527,292.202ZM351.527,219.869L351.527,189.869L162.606,189.869L162.606,219.869L351.527,219.869ZM413.961,110.211L413.961,110.388L334.125,110.388L334.125,30.374L413.961,110.211Z"/>
    </g>
</svg>
