<?xml version="1.0" encoding="UTF-8" standalone="no"?>
<!DOCTYPE svg PUBLIC "-//W3C//DTD SVG 1.1//EN" "http://www.w3.org/Graphics/SVG/1.1/DTD/svg11.dtd">
<svg width="100%" height="100%" viewBox="0 0 24 24" version="1.1" xmlns="http://www.w3.org/2000/svg" xmlns:xlink="http://www.w3.org/1999/xlink" xml:space="preserve" xmlns:serif="http://www.serif.com/" style="fill-rule:evenodd;clip-rule:evenodd;stroke-linejoin:round;stroke-miterlimit:2;">
    <g transform="matrix(-1.81339e-17,-0.0918598,0.09204,-1.61183e-17,-0.440542,24.5944)">
        <path d="M257.171,136.245C257.171,131.928 253.659,128.422 249.333,128.422L70.745,128.422C66.42,128.422 62.907,131.928 62.907,136.245C62.907,140.563 66.42,144.068 70.745,144.068L249.333,144.068C253.659,144.068 257.171,140.563 257.171,136.245Z"/>
    </g>
    <g transform="matrix(0.0918598,-3.36176e-18,1.31713e-18,0.09204,-2.6017,8.97921)">
        <path d="M257.171,136.245C257.171,131.928 253.659,128.422 249.333,128.422L70.745,128.422C66.42,128.422 62.907,131.928 62.907,136.245C62.907,140.563 66.42,144.068 70.745,144.068L249.333,144.068C253.659,144.068 257.171,140.563 257.171,136.245Z"/>
    </g>
    <g transform="matrix(-0.0316062,-0.0316062,0.0650821,-0.0650821,5.72972,29.4604)">
        <path d="M257.171,136.245C257.171,131.928 249.953,128.422 241.063,128.422L79.016,128.422C70.125,128.422 62.907,131.928 62.907,136.245C62.907,140.563 70.125,144.068 79.016,144.068L241.063,144.068C249.953,144.068 257.171,140.563 257.171,136.245Z"/>
    </g>
    <g transform="matrix(0.0316062,-0.0316062,0.0650821,0.0650821,0.734954,11.7262)">
        <path d="M257.171,136.245C257.171,131.928 249.953,128.422 241.063,128.422L79.016,128.422C70.125,128.422 62.907,131.928 62.907,136.245C62.907,140.563 70.125,144.068 79.016,144.068L241.063,144.068C249.953,144.068 257.171,140.563 257.171,136.245Z"/>
    </g>
</svg>
