<?xml version="1.0" encoding="UTF-8" standalone="no"?>
<!DOCTYPE svg PUBLIC "-//W3C//DTD SVG 1.1//EN" "http://www.w3.org/Graphics/SVG/1.1/DTD/svg11.dtd">
<svg width="100%" height="100%" viewBox="0 0 24 24" version="1.1" xmlns="http://www.w3.org/2000/svg" xmlns:xlink="http://www.w3.org/1999/xlink" xml:space="preserve" xmlns:serif="http://www.serif.com/" style="fill-rule:evenodd;clip-rule:evenodd;stroke-linejoin:round;stroke-miterlimit:2;">
    <g transform="matrix(0.0539689,0.0539689,-0.0543426,0.0543426,9.12779,-14.6307)">
        <path d="M282.236,202.784C282.236,197.614 278.009,193.416 272.802,193.416C267.596,193.416 263.369,197.614 263.369,202.784L263.369,387.751C263.369,392.921 267.596,397.119 272.802,397.119C278.009,397.119 282.236,392.921 282.236,387.751L282.236,202.784Z"/>
    </g>
    <g transform="matrix(0.048,0,0,0.048,0,0)">
        <path d="M113.016,350.436L249.408,214.043C259.165,204.287 275.007,204.287 284.764,214.043C294.52,223.8 294.52,239.642 284.764,249.399L148.371,385.791C217.934,438.158 317.349,432.68 380.678,369.35C473.568,276.46 452.706,46.101 452.706,46.101C452.706,46.101 222.347,25.239 129.457,118.129C66.127,181.458 60.649,280.873 113.016,350.436Z"/>
    </g>
</svg>
