<?xml version="1.0" encoding="UTF-8" standalone="no"?>
<!DOCTYPE svg PUBLIC "-//W3C//DTD SVG 1.1//EN" "http://www.w3.org/Graphics/SVG/1.1/DTD/svg11.dtd">
<svg width="100%" height="100%" viewBox="0 0 24 24" version="1.1" xmlns="http://www.w3.org/2000/svg" xmlns:xlink="http://www.w3.org/1999/xlink" xml:space="preserve" xmlns:serif="http://www.serif.com/" style="fill-rule:evenodd;clip-rule:evenodd;stroke-linejoin:round;stroke-miterlimit:2;">
    <g transform="matrix(0.048,0,0,0.048,0,0)">
        <path d="M84.647,333.173C84.484,333.611 84.341,334.06 84.218,334.521L59.272,427.62C58.003,432.356 59.153,437.175 61.963,440.762C65.445,445.917 71.936,448.555 78.279,446.856L172.96,421.486L84.647,333.173ZM394.628,204.792L189.589,409.831L97.241,317.482L302.279,112.444L394.628,204.792ZM316.421,98.301L408.77,190.65L441.995,157.425C447.848,151.571 447.848,142.066 441.995,136.212L370.86,65.077C365.006,59.223 355.5,59.223 349.646,65.077L316.421,98.301Z"/>
    </g>
</svg>
