<?xml version="1.0" encoding="UTF-8" standalone="no"?>
<!DOCTYPE svg PUBLIC "-//W3C//DTD SVG 1.1//EN" "http://www.w3.org/Graphics/SVG/1.1/DTD/svg11.dtd">
<svg width="100%" height="100%" viewBox="0 0 24 24" version="1.1" xmlns="http://www.w3.org/2000/svg" xmlns:xlink="http://www.w3.org/1999/xlink" xml:space="preserve" xmlns:serif="http://www.serif.com/" style="fill-rule:evenodd;clip-rule:evenodd;stroke-linejoin:round;stroke-miterlimit:2;">
    <g transform="matrix(0.048,0,0,0.0524702,0,1.13678)">
        <path d="M417.644,341.399C417.644,333.826 410.923,327.677 402.644,327.677L97.356,327.677C89.077,327.677 82.356,333.826 82.356,341.399C82.356,348.972 89.077,355.121 97.356,355.121L402.644,355.121C410.923,355.121 417.644,348.972 417.644,341.399Z"/>
    </g>
    <g transform="matrix(0.048,0,0,0.048,0,0)">
        <path d="M244.398,97.672C250.56,95.127 257.902,96.943 262.1,102.513L414.625,304.91C416.658,307.608 417.642,310.772 417.644,313.913L417.644,313.935L417.644,313.974C417.639,315.956 417.248,317.848 416.544,319.579L416.531,319.611C415.544,322.034 413.912,324.229 411.673,325.916C408.974,327.951 405.807,328.934 402.665,328.935L402.644,328.935L97.356,328.935L97.335,328.935C94.193,328.934 91.026,327.951 88.327,325.916C86.088,324.229 84.456,322.034 83.469,319.611L83.456,319.579C82.751,317.848 82.361,315.956 82.356,313.974L82.356,313.935L82.356,313.913C82.358,310.772 83.342,307.608 85.375,304.91L237.8,102.646C239.555,100.317 241.859,98.645 244.398,97.672Z"/>
    </g>
</svg>
