<?xml version="1.0" encoding="UTF-8" standalone="no"?>
<!DOCTYPE svg PUBLIC "-//W3C//DTD SVG 1.1//EN" "http://www.w3.org/Graphics/SVG/1.1/DTD/svg11.dtd">
<svg width="100%" height="100%" viewBox="0 0 24 24" version="1.1" xmlns="http://www.w3.org/2000/svg" xmlns:xlink="http://www.w3.org/1999/xlink" xml:space="preserve" xmlns:serif="http://www.serif.com/" style="fill-rule:evenodd;clip-rule:evenodd;stroke-linejoin:round;stroke-miterlimit:2;">
    <g transform="matrix(0.0496457,0,0,0.046336,-2.00464,-3.73808)">
        <path d="M223.412,104.282L262.086,156.077L184.738,156.077L223.412,104.282Z"/>
    </g>
    <g transform="matrix(0.0496457,0,0,-0.046336,3.82178,8.32592)">
        <path d="M223.412,104.282L262.086,156.077L184.738,156.077L223.412,104.282Z"/>
    </g>
    <g transform="matrix(0.048,0,0,0.048,0,0)">
        <path d="M425,117.737C425,107.262 416.495,98.757 406.02,98.757L93.98,98.757C83.505,98.757 75,107.262 75,117.737L75,464.777C75,475.252 83.505,483.757 93.98,483.757L406.02,483.757C416.495,483.757 425,475.252 425,464.777L425,117.737ZM195.149,337.112C195.146,337.22 195.145,337.329 195.145,337.438C195.145,345.717 201.866,352.438 210.145,352.438L215.093,352.438L215.093,426.934C215.093,435.213 221.815,441.934 230.093,441.934L270.052,441.934C278.331,441.934 285.052,435.213 285.052,426.934L285.052,352.438L290,352.438C298.279,352.438 305,345.717 305,337.438C305,336.996 304.981,336.558 304.943,336.125C304.981,335.571 305,334.985 305,334.369L305,243.551C305,227.402 291.889,214.291 275.739,214.291L224.261,214.291C208.111,214.291 195,227.402 195,243.551L195,334.369C195,335.37 195.05,336.283 195.149,337.112ZM250,140.58C266.557,140.58 280,154.023 280,170.58C280,187.137 266.557,200.58 250,200.58C233.443,200.58 220,187.137 220,170.58C220,154.023 233.443,140.58 250,140.58Z"/>
    </g>
</svg>
