<?xml version="1.0" encoding="UTF-8" standalone="no"?>
<!DOCTYPE svg PUBLIC "-//W3C//DTD SVG 1.1//EN" "http://www.w3.org/Graphics/SVG/1.1/DTD/svg11.dtd">
<svg width="100%" height="100%" viewBox="0 0 24 24" version="1.1" xmlns="http://www.w3.org/2000/svg" xmlns:xlink="http://www.w3.org/1999/xlink" xml:space="preserve" xmlns:serif="http://www.serif.com/" style="fill-rule:evenodd;clip-rule:evenodd;stroke-linejoin:round;stroke-miterlimit:2;">
    <g transform="matrix(-0.105835,-1.06581e-17,-4.72785e-17,0.09204,28.9378,-4.39528)">
        <path d="M257.171,136.245C257.171,131.928 254.122,128.422 250.368,128.422L69.71,128.422C65.956,128.422 62.907,131.928 62.907,136.245C62.907,140.563 65.956,144.068 69.71,144.068L250.368,144.068C254.122,144.068 257.171,140.563 257.171,136.245Z"/>
    </g>
    <g transform="matrix(-0.105835,-1.06581e-17,-4.72785e-17,0.09204,28.9378,3.31528)">
        <path d="M257.171,136.245C257.171,131.928 254.122,128.422 250.368,128.422L69.71,128.422C65.956,128.422 62.907,131.928 62.907,136.245C62.907,140.563 65.956,144.068 69.71,144.068L250.368,144.068C254.122,144.068 257.171,140.563 257.171,136.245Z"/>
    </g>
</svg>
