<?xml version="1.0" encoding="UTF-8" standalone="no"?>
<!DOCTYPE svg PUBLIC "-//W3C//DTD SVG 1.1//EN" "http://www.w3.org/Graphics/SVG/1.1/DTD/svg11.dtd">
<svg width="100%" height="100%" viewBox="0 0 24 24" version="1.1" xmlns="http://www.w3.org/2000/svg" xmlns:xlink="http://www.w3.org/1999/xlink" xml:space="preserve" xmlns:serif="http://www.serif.com/" style="fill-rule:evenodd;clip-rule:evenodd;stroke-linejoin:round;stroke-miterlimit:2;">
    <g transform="matrix(0.048,0,0,0.048,0,0)">
        <path d="M250,34.447C252.535,34.444 255.103,35.084 257.456,36.432L257.515,36.466C258.473,37.019 259.376,37.682 260.202,38.448C261.346,39.508 262.298,40.724 263.045,42.043L474.601,408.468C475.315,409.69 475.862,411.021 476.21,412.43L476.218,412.464C476.505,413.637 476.645,414.827 476.645,416.011L476.645,416.077C476.636,418.833 475.883,421.414 474.576,423.631C473.362,425.701 471.635,427.506 469.453,428.836C468.111,429.656 466.631,430.271 465.056,430.638L465.02,430.647C463.908,430.903 462.782,431.028 461.662,431.028L461.645,431.028L38.354,431.028L38.337,431.028C37.218,431.028 36.091,430.903 34.98,430.647L34.943,430.638C33.368,430.271 31.888,429.656 30.547,428.836C28.364,427.507 26.638,425.702 25.424,423.631C24.116,421.413 23.363,418.832 23.354,416.077L23.354,416.011C23.354,414.828 23.494,413.637 23.781,412.464L23.789,412.43C24.137,411.021 24.684,409.689 25.399,408.468L236.954,42.043C237.701,40.724 238.653,39.508 239.797,38.448C240.623,37.682 241.526,37.019 242.485,36.466L242.543,36.432C244.897,35.083 247.465,34.444 250,34.447ZM250,331.808C259.658,331.808 267.5,339.649 267.5,349.308C267.5,358.966 259.658,366.808 250,366.808C240.341,366.808 232.5,358.966 232.5,349.308C232.5,339.649 240.341,331.808 250,331.808ZM250,133.192C241.721,133.192 235,139.913 235,148.192L235,296.192C235,304.471 241.721,311.192 250,311.192C258.278,311.192 265,304.471 265,296.192L265,148.192C265,139.913 258.278,133.192 250,133.192Z"/>
    </g>
</svg>
