<?xml version="1.0" encoding="UTF-8" standalone="no"?>
<!DOCTYPE svg PUBLIC "-//W3C//DTD SVG 1.1//EN" "http://www.w3.org/Graphics/SVG/1.1/DTD/svg11.dtd">
<svg width="100%" height="100%" viewBox="0 0 24 24" version="1.1" xmlns="http://www.w3.org/2000/svg" xmlns:xlink="http://www.w3.org/1999/xlink" xml:space="preserve" xmlns:serif="http://www.serif.com/" style="fill-rule:evenodd;clip-rule:evenodd;stroke-linejoin:round;stroke-miterlimit:2;">
    <g transform="matrix(0.048,0,0,0.048,0,0)">
        <path d="M51.966,32.434C47.833,32.434 44.089,34.109 41.374,36.817L41.348,36.843C38.641,39.557 36.966,43.302 36.966,47.434L36.966,447.65C36.966,451.782 38.641,455.527 41.348,458.241L41.374,458.267C44.089,460.975 47.833,462.65 51.966,462.65L452.181,462.65C456.314,462.65 460.058,460.975 462.772,458.267L462.799,458.241C465.506,455.527 467.181,451.782 467.181,447.65L467.181,47.434C467.181,43.302 465.506,39.557 462.799,36.843L462.772,36.817C460.058,34.109 456.314,32.434 452.181,32.434L51.966,32.434ZM421.854,62.434L308.685,62.434C300.406,62.434 293.685,69.156 293.685,77.434C293.685,85.713 300.406,92.434 308.685,92.434L386.533,92.434L242.035,236.933C236.181,242.786 236.181,252.292 242.035,258.146C247.889,264 257.394,264 263.248,258.146L406.854,114.539L406.854,190.604C406.854,198.883 413.576,205.604 421.854,205.604C430.133,205.604 436.854,198.883 436.854,190.604L436.854,81.12C437.644,77.391 437.002,73.417 434.93,70.083C434.259,68.893 433.43,67.803 432.472,66.843L432.459,66.83C432.459,66.83 432.446,66.817 432.446,66.817C429.732,64.109 425.987,62.434 421.854,62.434Z"/>
    </g>
</svg>
