<?xml version="1.0" encoding="UTF-8" standalone="no"?>
<!DOCTYPE svg PUBLIC "-//W3C//DTD SVG 1.1//EN" "http://www.w3.org/Graphics/SVG/1.1/DTD/svg11.dtd">
<svg width="100%" height="100%" viewBox="0 0 24 24" version="1.1" xmlns="http://www.w3.org/2000/svg" xmlns:xlink="http://www.w3.org/1999/xlink" xml:space="preserve" xmlns:serif="http://www.serif.com/" style="fill-rule:evenodd;clip-rule:evenodd;stroke-linejoin:round;stroke-miterlimit:2;">
    <g transform="matrix(0.048,0,0,0.048,0,0)">
        <path d="M325.906,447.518L384.057,56.285L429.455,56.285L487.606,447.518L476.284,447.417L476.284,447.518L325.906,447.518Z"/>
    </g>
    <g transform="matrix(0.048,0,0,0.048,0,0)">
        <path d="M340.495,213.329L340.495,154.303L194.161,203.673L194.161,154.303L17.05,214.057L17.222,214.568L17.05,214.568L17.05,447.518L305.686,447.518L340.495,213.329ZM115.05,279.947C134.367,279.947 150.05,295.63 150.05,314.947C150.05,334.264 134.367,349.947 115.05,349.947C95.733,349.947 80.05,334.264 80.05,314.947C80.05,295.63 95.733,279.947 115.05,279.947ZM243.05,279.947C262.367,279.947 278.05,295.63 278.05,314.947C278.05,334.264 262.367,349.947 243.05,349.947C223.733,349.947 208.05,334.264 208.05,314.947C208.05,295.63 223.733,279.947 243.05,279.947Z"/>
    </g>
</svg>
