<?xml version="1.0" encoding="UTF-8" standalone="no"?>
<!DOCTYPE svg PUBLIC "-//W3C//DTD SVG 1.1//EN" "http://www.w3.org/Graphics/SVG/1.1/DTD/svg11.dtd">
<svg width="100%" height="100%" viewBox="0 0 24 24" version="1.1" xmlns="http://www.w3.org/2000/svg" xmlns:xlink="http://www.w3.org/1999/xlink" xml:space="preserve" xmlns:serif="http://www.serif.com/" style="fill-rule:evenodd;clip-rule:evenodd;stroke-linejoin:round;stroke-miterlimit:2;">
    <g transform="matrix(0.0512972,0,0,0.0510584,0.116395,10.4079)">
        <path d="M301.44,164.307C301.44,156.524 295.151,150.206 287.404,150.206L53.473,150.206C45.727,150.206 39.438,156.524 39.438,164.307C39.438,172.09 45.727,178.409 53.473,178.409L287.404,178.409C295.151,178.409 301.44,172.09 301.44,164.307Z"/>
    </g>
    <g transform="matrix(0.0512972,0,0,0.0510584,0.116395,12.8079)">
        <path d="M301.44,164.307C301.44,156.524 295.151,150.206 287.404,150.206L53.473,150.206C45.727,150.206 39.438,156.524 39.438,164.307C39.438,172.09 45.727,178.409 53.473,178.409L287.404,178.409C295.151,178.409 301.44,172.09 301.44,164.307Z"/>
    </g>
    <g transform="matrix(1.07309e-18,0.017525,-0.0510584,3.12642e-18,24.274,1.39166)">
        <path d="M301.44,164.307C301.44,156.524 283.031,150.206 260.356,150.206L80.522,150.206C57.847,150.206 39.438,156.524 39.438,164.307C39.438,172.09 57.847,178.409 80.522,178.409L260.356,178.409C283.031,178.409 301.44,172.09 301.44,164.307Z"/>
    </g>
    <g transform="matrix(0.048,0,0,0.048,0,0)">
        <path d="M44.572,341.156C44.822,264.089 107.458,201.608 184.571,201.608C261.84,201.608 324.571,264.34 324.571,341.608C324.571,349.887 317.85,356.608 309.571,356.608L59.571,356.608C51.293,356.608 44.571,349.887 44.571,341.608L44.572,341.156Z"/>
    </g>
    <g transform="matrix(0.048,0,0,0.048,0,0)">
        <path d="M211.15,173.678L206.563,125.999C206.48,125.361 206.437,124.711 206.437,124.05L206.437,124.009C206.416,116.356 212.234,109.797 220.002,109.05C220.983,108.955 221.952,108.958 222.898,109.05L438.968,109.05C439.914,108.958 440.883,108.955 441.864,109.05C449.632,109.797 455.45,116.356 455.428,124.009L455.429,124.05C455.426,124.689 455.387,125.325 455.308,125.959L455.303,125.999L425.11,439.832C425.179,440.414 425.215,441.007 425.215,441.608C425.215,449.887 418.493,456.608 410.215,456.608L354.571,456.608L354.571,341.608C354.571,256.827 292.376,186.459 211.15,173.678Z"/>
    </g>
</svg>
