<?xml version="1.0" encoding="UTF-8" standalone="no"?>
<!DOCTYPE svg PUBLIC "-//W3C//DTD SVG 1.1//EN" "http://www.w3.org/Graphics/SVG/1.1/DTD/svg11.dtd">
<svg width="100%" height="100%" viewBox="0 0 24 24" version="1.1" xmlns="http://www.w3.org/2000/svg" xmlns:xlink="http://www.w3.org/1999/xlink" xml:space="preserve" xmlns:serif="http://www.serif.com/" style="fill-rule:evenodd;clip-rule:evenodd;stroke-linejoin:round;stroke-miterlimit:2;">
    <g transform="matrix(0.048,0,0,0.048,0,0)">
        <path d="M162.914,152.772L236.457,34.281C240.823,27.247 250.078,25.08 257.112,29.446C257.944,29.962 258.708,30.547 259.401,31.189C260.589,32.177 261.642,33.367 262.507,34.745L336.7,152.956L470.969,186.203C472.549,186.594 474.008,187.223 475.318,188.043C476.144,188.5 476.938,189.043 477.689,189.672C484.034,194.99 484.867,204.459 479.549,210.804L389.711,317.99L399.054,455.642C399.165,457.266 399.011,458.847 398.631,460.345C398.448,461.271 398.173,462.194 397.804,463.101C394.679,470.767 385.918,474.454 378.251,471.329L249.437,418.819L120.622,471.329C112.956,474.454 104.194,470.767 101.069,463.101C100.7,462.194 100.425,461.271 100.242,460.345C99.862,458.847 99.709,457.266 99.819,455.642L109.162,317.99L19.324,210.804C14.006,204.459 14.84,194.99 21.184,189.672C21.935,189.043 22.729,188.5 23.555,188.043C24.865,187.223 26.324,186.594 27.904,186.203L162.914,152.772Z"/>
    </g>
</svg>
