<?xml version="1.0" encoding="UTF-8" standalone="no"?>
<!DOCTYPE svg PUBLIC "-//W3C//DTD SVG 1.1//EN" "http://www.w3.org/Graphics/SVG/1.1/DTD/svg11.dtd">
<svg width="100%" height="100%" viewBox="0 0 24 24" version="1.1" xmlns="http://www.w3.org/2000/svg" xmlns:xlink="http://www.w3.org/1999/xlink" xml:space="preserve" xmlns:serif="http://www.serif.com/" style="fill-rule:evenodd;clip-rule:evenodd;stroke-linejoin:round;stroke-miterlimit:2;">
    <g transform="matrix(-0.0423921,-0.0581972,-0.0217077,0.0158123,26.6604,32.6464)">
        <path d="M446.015,124.889C446.015,110.092 441.534,98.08 436.015,98.08C430.496,98.08 426.015,110.092 426.015,124.889L426.015,223.191C426.015,237.987 430.496,250 436.015,250C441.534,250 446.015,237.987 446.015,223.191L446.015,124.889Z"/>
    </g>
    <g transform="matrix(-0.0581972,0.0423921,0.0158123,0.0217077,25.1867,-12.5278)">
        <path d="M446.015,124.889C446.015,110.092 441.534,98.08 436.015,98.08C430.496,98.08 426.015,110.092 426.015,124.889L426.015,223.191C426.015,237.987 430.496,250 436.015,250C441.534,250 446.015,237.987 446.015,223.191L446.015,124.889Z"/>
    </g>
    <g transform="matrix(0.048,0,0,0.048,0,0)">
        <path d="M416,217.448C416,126.382 342.066,52.448 251,52.448C159.934,52.448 86,126.382 86,217.448L86,219.434L56,219.434L56,217.448C56,109.825 143.377,22.448 251,22.448C358.623,22.448 446,109.825 446,217.448L446,219.434C446,227.713 439.279,234.434 431,234.434C422.721,234.434 416,227.713 416,219.434L416,217.448Z"/>
    </g>
    <g transform="matrix(0.0423921,0.0581972,0.0217077,-0.0158123,-2.68856,-8.75217)">
        <path d="M446.015,124.889C446.015,110.092 441.534,98.08 436.015,98.08C430.496,98.08 426.015,110.092 426.015,124.889L426.015,223.191C426.015,237.987 430.496,250 436.015,250C441.534,250 446.015,237.987 446.015,223.191L446.015,124.889Z"/>
    </g>
    <g transform="matrix(0.0581972,-0.0423921,-0.0158123,-0.0217077,-1.21486,36.422)">
        <path d="M446.015,124.889C446.015,110.092 441.534,98.08 436.015,98.08C430.496,98.08 426.015,110.092 426.015,124.889L426.015,223.191C426.015,237.987 430.496,250 436.015,250C441.534,250 446.015,237.987 446.015,223.191L446.015,124.889Z"/>
    </g>
    <g transform="matrix(-0.048,-5.8783e-18,5.8783e-18,-0.048,23.9718,23.8943)">
        <path d="M416,217.448C416,126.382 342.066,52.448 251,52.448C159.934,52.448 86,126.382 86,217.448L86,219.434L56,219.434L56,217.448C56,109.825 143.377,22.448 251,22.448C358.623,22.448 446,109.825 446,217.448L446,219.434C446,227.713 439.279,234.434 431,234.434C422.721,234.434 416,227.713 416,219.434L416,217.448Z"/>
    </g>
    <g transform="matrix(0.0371358,0,0,0.0371358,2.73226,2.71605)">
        <circle cx="251.493" cy="250" r="50"/>
    </g>
</svg>
