<?xml version="1.0" encoding="UTF-8" standalone="no"?>
<!DOCTYPE svg PUBLIC "-//W3C//DTD SVG 1.1//EN" "http://www.w3.org/Graphics/SVG/1.1/DTD/svg11.dtd">
<svg width="100%" height="100%" viewBox="0 0 24 24" version="1.1" xmlns="http://www.w3.org/2000/svg" xmlns:xlink="http://www.w3.org/1999/xlink" xml:space="preserve" xmlns:serif="http://www.serif.com/" style="fill-rule:evenodd;clip-rule:evenodd;stroke-linejoin:round;stroke-miterlimit:2;">
    <g transform="matrix(0.048,0,0,0.048,-0.053945,0.0516375)">
        <path d="M261.243,446.602L261.243,51.246C261.243,42.968 267.964,36.246 276.243,36.246C276.295,36.246 276.346,36.246 276.396,36.247C282.152,36.188 287.68,39.462 290.216,45.033L469.673,439.258C470.673,441.455 471.098,443.767 471.012,446.027C471.019,446.217 471.023,446.409 471.023,446.602C471.023,454.881 464.301,461.602 456.023,461.602L276.243,461.602C273.117,461.602 270.213,460.644 267.81,459.005L267.779,458.984C263.834,456.281 261.243,451.742 261.243,446.602Z"/>
    </g>
    <g transform="matrix(2.93915e-18,-0.048,0.048,2.93915e-18,-0.181861,24)">
        <path d="M291.961,133.407L394.647,236.092L447.678,236.092C455.957,236.092 462.678,229.371 462.678,221.092C462.678,221.041 462.678,220.989 462.677,220.939C462.736,215.183 459.462,209.655 453.891,207.119L291.961,133.407ZM214.084,97.956L352.22,236.092L283.915,236.092L88.705,40.881L214.084,97.956ZM39.287,33.89C38.037,36.079 37.322,38.613 37.322,41.312L37.322,100.23L173.184,236.092L241.489,236.092L39.287,33.89ZM37.322,142.656L37.322,221.092C37.322,224.218 38.28,227.122 39.919,229.525L39.94,229.556C42.643,233.502 47.183,236.092 52.322,236.092L130.758,236.092L37.322,142.656Z"/>
    </g>
</svg>
