<?xml version="1.0" encoding="UTF-8" standalone="no"?>
<!DOCTYPE svg PUBLIC "-//W3C//DTD SVG 1.1//EN" "http://www.w3.org/Graphics/SVG/1.1/DTD/svg11.dtd">
<svg width="100%" height="100%" viewBox="0 0 24 24" version="1.1" xmlns="http://www.w3.org/2000/svg" xmlns:xlink="http://www.w3.org/1999/xlink" xml:space="preserve" xmlns:serif="http://www.serif.com/" style="fill-rule:evenodd;clip-rule:evenodd;stroke-linejoin:round;stroke-miterlimit:2;">
    <g transform="matrix(0.048,0,0,0.048,0,0)">
        <path d="M481.91,169.988L18.09,169.988L18.09,420.259C18.09,428.538 24.811,435.259 33.09,435.259L466.91,435.259C475.189,435.259 481.91,428.538 481.91,420.259L481.91,169.988ZM18.09,149.988L481.91,149.988L481.91,69.741C481.91,61.462 475.189,54.741 466.91,54.741L33.09,54.741C24.811,54.741 18.09,61.462 18.09,69.741L18.09,149.988ZM322.865,87.477C331.144,87.477 337.865,94.198 337.865,102.477C337.865,110.755 331.144,117.477 322.865,117.477C314.586,117.477 307.865,110.755 307.865,102.477C307.865,94.198 314.586,87.477 322.865,87.477ZM369.213,87.477C377.492,87.477 384.213,94.198 384.213,102.477C384.213,110.755 377.492,117.477 369.213,117.477C360.935,117.477 354.213,110.755 354.213,102.477C354.213,94.198 360.935,87.477 369.213,87.477ZM415.562,87.477C423.841,87.477 430.562,94.198 430.562,102.477C430.562,110.755 423.841,117.477 415.562,117.477C407.283,117.477 400.562,110.755 400.562,102.477C400.562,94.198 407.283,87.477 415.562,87.477Z"/>
    </g>
</svg>
