<?xml version="1.0" encoding="UTF-8" standalone="no"?>
<!DOCTYPE svg PUBLIC "-//W3C//DTD SVG 1.1//EN" "http://www.w3.org/Graphics/SVG/1.1/DTD/svg11.dtd">
<svg width="100%" height="100%" viewBox="0 0 24 24" version="1.1" xmlns="http://www.w3.org/2000/svg" xmlns:xlink="http://www.w3.org/1999/xlink" xml:space="preserve" xmlns:serif="http://www.serif.com/" style="fill-rule:evenodd;clip-rule:evenodd;stroke-linejoin:round;stroke-miterlimit:2;">
    <g transform="matrix(0.048,0,0,0.048,0,0)">
        <path d="M239.311,207.422L239.311,97.356L239.311,97.341C239.311,94.209 240.287,91.05 242.31,88.353C243.998,86.103 246.199,84.462 248.63,83.471C250.365,82.76 252.262,82.364 254.249,82.356L254.325,82.356C257.457,82.356 260.615,83.333 263.311,85.355L466.748,237.963C470.681,240.914 472.753,245.431 472.745,250C472.753,254.569 470.681,259.086 466.748,262.037L263.311,414.645C260.615,416.667 257.457,417.644 254.325,417.644L254.249,417.644C252.262,417.636 250.365,417.24 248.63,416.529C246.199,415.538 243.998,413.897 242.31,411.647C240.287,408.95 239.311,405.791 239.311,402.659L239.311,402.644L239.311,292.448L263.591,274.235C271.522,268.285 275.667,259.15 275.583,249.935C275.667,240.72 271.522,231.585 263.591,225.635L239.311,207.422Z"/>
    </g>
    <g transform="matrix(0.048,0,0,0.048,0,0)">
        <path d="M42.269,82.356C45.4,82.356 48.558,83.333 51.254,85.355L254.692,237.963C258.625,240.914 260.696,245.431 260.689,250C260.696,254.569 258.625,259.086 254.692,262.037L51.254,414.645C48.558,416.667 45.4,417.644 42.269,417.644L42.255,417.644L42.193,417.644C40.205,417.636 38.308,417.24 36.573,416.529C34.143,415.538 31.942,413.897 30.254,411.647C28.231,408.95 27.254,405.791 27.255,402.659L27.255,402.644L27.255,97.356L27.255,97.341C27.254,94.209 28.231,91.05 30.254,88.353C31.942,86.103 34.143,84.462 36.573,83.471C38.308,82.76 40.205,82.364 42.193,82.356L42.255,82.356L42.269,82.356Z"/>
    </g>
</svg>
