<?xml version="1.0" encoding="UTF-8" standalone="no"?>
<!DOCTYPE svg PUBLIC "-//W3C//DTD SVG 1.1//EN" "http://www.w3.org/Graphics/SVG/1.1/DTD/svg11.dtd">
<svg width="100%" height="100%" viewBox="0 0 24 24" version="1.1" xmlns="http://www.w3.org/2000/svg" xmlns:xlink="http://www.w3.org/1999/xlink" xml:space="preserve" xmlns:serif="http://www.serif.com/" style="fill-rule:evenodd;clip-rule:evenodd;stroke-linejoin:round;stroke-miterlimit:2;">
    <g transform="matrix(0.048,0,0,0.048,-0.0181502,-0.0527314)">
        <path d="M240.081,296.331C239.62,287.14 235.073,263.092 202.414,240.916C172.126,220.351 146.723,214.446 146.723,164.73C146.723,122.117 188.631,22.199 188.631,22.199L312.125,22.199C312.125,22.199 354.033,122.117 354.033,164.73C354.033,214.446 328.631,220.351 298.342,240.916C265.053,263.519 260.526,288.068 260.033,296.846L260.033,431.534C301.267,433.079 333.167,443.301 333.167,455.665C333.167,469.095 295.528,479.998 249.167,479.998C202.806,479.998 165.167,469.095 165.167,455.665C165.167,443.129 197.959,432.795 240.033,431.474L240.033,296.331L240.081,296.331ZM319.699,94.365C309.923,65.268 300.378,42.199 300.378,42.199L200.378,42.199C200.378,42.199 190.833,65.268 181.057,94.365L319.699,94.365Z"/>
    </g>
</svg>
