<?xml version="1.0" encoding="UTF-8" standalone="no"?>
<!DOCTYPE svg PUBLIC "-//W3C//DTD SVG 1.1//EN" "http://www.w3.org/Graphics/SVG/1.1/DTD/svg11.dtd">
<svg width="100%" height="100%" viewBox="0 0 500 500" version="1.1" xmlns="http://www.w3.org/2000/svg" xmlns:xlink="http://www.w3.org/1999/xlink" xml:space="preserve" xmlns:serif="http://www.serif.com/" style="fill-rule:evenodd;clip-rule:evenodd;stroke-linejoin:round;stroke-miterlimit:2;">
    <g transform="matrix(-0.718116,-0.718116,0.742559,-0.742559,257.419,618.768)">
        <path d="M468.626,241.477C468.626,236.222 464.214,231.955 458.779,231.955L260.847,231.955C255.412,231.955 251,236.222 251,241.477C251,246.733 255.412,251 260.847,251L458.779,251C464.214,251 468.626,246.733 468.626,241.477Z"/>
    </g>
    <path d="M103.963,120.832C139.709,80.46 191.905,55 250,55C357.623,55 445,142.377 445,250C445,357.623 357.623,445 250,445C142.377,445 55,357.623 55,250C55,205.153 70.172,163.822 95.665,130.856L134.995,170.186C119.241,192.83 110,220.345 110,250C110,327.268 172.732,390 250,390C327.268,390 390,327.268 390,250C390,172.732 327.268,110 250,110C207.078,110 168.641,129.358 142.948,159.816L103.963,120.832ZM181.35,198.219C197.058,177.437 221.972,164 250,164C297.465,164 336,202.535 336,250C336,297.465 297.465,336 250,336C202.535,336 164,297.465 164,250C164,235.314 167.689,221.484 174.191,209.382L219.341,254.532C221.527,268.942 233.982,280 249,280C265.557,280 279,266.557 279,250C279,233.443 265.557,220 249,220C236.608,220 225.961,227.529 221.389,238.258L181.35,198.219Z"/>
    <g transform="matrix(0.707107,-0.707107,0.707107,0.707107,-223.72,132.56)">
        <path d="M251,141.6L230.989,121.589C229.81,120.409 228.408,119.586 226.919,119.12C225.99,118.828 225.003,118.668 223.979,118.662L223.919,118.662C223.876,118.662 223.834,118.662 223.791,118.662L223.738,118.663L223.678,118.665L223.618,118.666L223.558,118.668L223.498,118.67L223.469,118.672L223.406,118.675L223.342,118.678L223.278,118.682L223.256,118.683C222.914,118.706 222.577,118.746 222.245,118.802L222.212,118.807L222.151,118.818L222.126,118.822L222.083,118.83C220.164,119.186 218.33,120.106 216.847,121.589C215.364,123.072 214.444,124.906 214.089,126.824L214.081,126.868L214.076,126.892L214.065,126.954L214.06,126.987C214.004,127.319 213.964,127.656 213.942,127.998L213.94,128.02L213.936,128.084L213.933,128.147L213.931,128.18L213.93,128.211L213.929,128.24L213.926,128.3L213.924,128.36L213.923,128.42L213.921,128.48L213.921,128.533C213.92,128.576 213.92,128.618 213.92,128.661L213.92,128.662L213.92,191.787C213.92,191.839 213.92,191.891 213.921,191.943C213.881,194.555 214.856,197.179 216.847,199.169L243.929,226.252C247.832,230.154 254.168,230.154 258.071,226.252C258.071,226.252 285.181,199.142 285.181,199.142C287.168,197.155 288.143,194.537 288.107,191.93C288.107,191.882 288.108,191.835 288.108,191.787L288.108,128.662L288.108,128.647C288.111,126.083 287.136,123.517 285.181,121.561C281.278,117.659 274.941,117.659 271.038,121.561L251,141.6Z"/>
    </g>
</svg>
