<?xml version="1.0" encoding="UTF-8" standalone="no"?>
<!DOCTYPE svg PUBLIC "-//W3C//DTD SVG 1.1//EN" "http://www.w3.org/Graphics/SVG/1.1/DTD/svg11.dtd">
<svg width="100%" height="100%" viewBox="0 0 6 6" version="1.1" xmlns="http://www.w3.org/2000/svg" xmlns:xlink="http://www.w3.org/1999/xlink" xml:space="preserve" xmlns:serif="http://www.serif.com/" style="fill-rule:evenodd;clip-rule:evenodd;stroke-linejoin:round;stroke-miterlimit:2;">
    <g transform="matrix(0.24,0,0,0.24,0,0)">
        <g transform="matrix(0.048,0,0,0.048,0,0)">
            <path d="M28.641,189.491C29.634,188.507 30.85,187.718 32.249,187.209L424.101,44.586C427.913,43.199 432.027,44.278 434.688,47.008C437.417,49.669 438.497,53.782 437.109,57.595L294.498,449.417C293.978,450.844 293.167,452.081 292.156,453.085C291.194,454.05 290.017,454.833 288.663,455.353C283.51,457.33 277.722,454.752 275.744,449.6L208.171,273.515L32.087,205.942C30.742,205.426 29.573,204.651 28.615,203.695L28.595,203.676L28.573,203.653L28.563,203.643L28.554,203.634C27.571,202.641 26.781,201.425 26.272,200.026C25.828,198.806 25.637,197.555 25.671,196.332L25.671,196.327L25.675,196.222L25.675,196.221C25.716,195.154 25.929,194.075 26.333,193.023C26.849,191.679 27.624,190.509 28.58,189.551L28.599,189.532L28.622,189.509L28.632,189.499L28.641,189.491Z"/>
        </g>
    </g>
</svg>
