<?xml version="1.0" encoding="UTF-8" standalone="no"?>
<!DOCTYPE svg PUBLIC "-//W3C//DTD SVG 1.1//EN" "http://www.w3.org/Graphics/SVG/1.1/DTD/svg11.dtd">
<svg width="100%" height="100%" viewBox="0 0 500 500" version="1.1" xmlns="http://www.w3.org/2000/svg" xmlns:xlink="http://www.w3.org/1999/xlink" xml:space="preserve" xmlns:serif="http://www.serif.com/" style="fill-rule:evenodd;clip-rule:evenodd;stroke-linejoin:round;stroke-miterlimit:2;">
    <path d="M237.329,27.507C240.735,24.234 245.276,22.407 250,22.407C254.724,22.407 259.265,24.234 262.671,27.507L283.079,47.115C283.937,47.939 284.996,48.523 286.151,48.808C287.306,49.092 288.515,49.068 289.658,48.737L316.84,40.859C321.377,39.544 326.247,40.035 330.43,42.231C334.613,44.426 337.784,48.155 339.279,52.636L348.237,79.482C348.614,80.61 349.281,81.619 350.171,82.408C351.061,83.197 352.144,83.737 353.309,83.975L381.039,89.632C385.668,90.576 389.751,93.274 392.435,97.162C395.118,101.05 396.193,105.825 395.435,110.488L390.891,138.422C390.7,139.596 390.821,140.799 391.243,141.911C391.665,143.023 392.372,144.005 393.294,144.757L415.219,162.653C418.878,165.64 421.24,169.927 421.809,174.616C422.379,179.306 421.112,184.034 418.273,187.81L401.268,210.432C400.553,211.383 400.102,212.505 399.958,213.686C399.815,214.867 399.985,216.064 400.451,217.158L411.548,243.193C413.401,247.539 413.5,252.433 411.824,256.85C410.149,261.267 406.83,264.864 402.562,266.888L376.991,279.017C375.917,279.527 374.995,280.311 374.32,281.289C373.644,282.268 373.238,283.408 373.143,284.593L370.869,312.803C370.49,317.512 368.303,321.891 364.767,325.023C361.232,328.156 356.621,329.799 351.901,329.608L323.623,328.464C322.434,328.416 321.254,328.682 320.201,329.234C319.148,329.787 318.259,330.607 317.623,331.613L302.501,355.535C299.977,359.528 296.005,362.389 291.419,363.52C286.832,364.65 281.986,363.962 277.895,361.6L253.388,347.445C252.358,346.851 251.189,346.537 250,346.537C248.811,346.537 247.642,346.851 246.612,347.445L222.105,361.6C218.014,363.962 213.168,364.65 208.581,363.52C203.995,362.389 200.023,359.528 197.499,355.535L182.377,331.613C181.741,330.607 180.852,329.787 179.799,329.234C178.746,328.682 177.566,328.416 176.377,328.464L148.099,329.608C143.379,329.799 138.768,328.156 135.233,325.023C131.697,321.891 129.51,317.512 129.131,312.803L126.857,284.593C126.762,283.408 126.356,282.268 125.68,281.289C125.005,280.311 124.083,279.527 123.009,279.017L97.438,266.888C93.17,264.864 89.851,261.267 88.176,256.85C86.5,252.433 86.599,247.539 88.452,243.193L99.549,217.158C100.015,216.064 100.185,214.867 100.042,213.686C99.898,212.505 99.447,211.383 98.732,210.432L81.727,187.81C78.888,184.034 77.621,179.306 78.191,174.616C78.76,169.927 81.122,165.64 84.781,162.653L106.706,144.757C107.628,144.005 108.335,143.023 108.757,141.911C109.179,140.799 109.3,139.596 109.109,138.422L104.565,110.488C103.807,105.825 104.882,101.05 107.565,97.162C110.249,93.274 114.332,90.576 118.961,89.632L146.691,83.975C147.856,83.737 148.939,83.197 149.829,82.408C150.719,81.619 151.386,80.61 151.763,79.482L160.721,52.636C162.216,48.155 165.387,44.426 169.57,42.231C173.753,40.035 178.623,39.544 183.16,40.859L210.342,48.737C211.485,49.068 212.694,49.092 213.849,48.808C215.004,48.523 216.063,47.939 216.921,47.115L237.329,27.507ZM227.166,228.791L180.497,182.122C176.594,178.219 170.257,178.219 166.354,182.122C162.452,186.025 162.452,192.362 166.354,196.264L220.095,250.004C223.586,253.495 229.024,253.864 232.926,251.109C233.386,250.784 233.825,250.416 234.237,250.004C234.237,250.004 333.646,150.596 333.646,150.596C337.548,146.693 337.548,140.356 333.646,136.453C329.743,132.551 323.406,132.551 319.503,136.453L227.166,228.791Z"/>
    <path d="M385.961,315.132L438.384,405.932C438.984,406.97 439.375,408.071 439.573,409.187L439.577,409.213C439.822,410.604 439.774,412.069 439.384,413.522C438.9,415.33 437.948,416.89 436.695,418.105C436.183,418.602 435.611,419.05 434.982,419.438L434.462,419.739C433.811,420.089 433.137,420.36 432.451,420.555C430.772,421.033 428.945,421.078 427.137,420.593L367.812,404.697L351.916,464.022C351.431,465.83 350.48,467.39 349.226,468.605C348.715,469.102 348.143,469.55 347.514,469.938L346.993,470.239C346.342,470.589 345.668,470.86 344.982,471.055C343.303,471.533 341.477,471.578 339.668,471.093C338.215,470.704 336.923,470.013 335.84,469.105L335.82,469.089C334.952,468.359 334.195,467.47 333.595,466.432L285.541,383.199C289.003,384.232 292.706,384.336 296.268,383.458C301.392,382.195 305.828,378.998 308.648,374.538L325.541,347.815C326.251,346.692 327.244,345.776 328.42,345.158C329.597,344.541 330.915,344.244 332.242,344.298L363.831,345.575C369.104,345.789 374.255,343.953 378.205,340.454C382.154,336.955 384.597,332.063 385.021,326.803L385.961,315.132Z"/>
    <path d="M114.039,315.132L114.979,326.803C115.403,332.063 117.846,336.955 121.795,340.454C125.745,343.953 130.896,345.789 136.169,345.575L167.758,344.298C169.085,344.244 170.403,344.541 171.58,345.158C172.756,345.776 173.749,346.692 174.459,347.815L191.352,374.538C194.172,378.998 198.608,382.195 203.732,383.458C207.294,384.336 210.997,384.232 214.459,383.199L166.405,466.432C165.805,467.47 165.048,468.359 164.18,469.089L164.16,469.105C163.077,470.013 161.785,470.704 160.332,471.093C158.523,471.578 156.697,471.533 155.018,471.055C154.332,470.86 153.658,470.589 153.007,470.239L152.486,469.938C151.857,469.55 151.285,469.102 150.774,468.605C149.52,467.39 148.569,465.83 148.084,464.022L132.188,404.697L72.863,420.593C71.055,421.078 69.228,421.033 67.549,420.555C66.863,420.36 66.189,420.089 65.538,419.739L65.018,419.438C64.389,419.05 63.817,418.602 63.305,418.105C62.052,416.89 61.1,415.33 60.616,413.522C60.226,412.069 60.178,410.604 60.423,409.213L60.427,409.187C60.625,408.071 61.016,406.97 61.616,405.932L114.039,315.132Z"/>
</svg>
