<?xml version="1.0" encoding="UTF-8" standalone="no"?>
<!DOCTYPE svg PUBLIC "-//W3C//DTD SVG 1.1//EN" "http://www.w3.org/Graphics/SVG/1.1/DTD/svg11.dtd">
<svg width="100%" height="100%" viewBox="0 0 24 24" version="1.1" xmlns="http://www.w3.org/2000/svg" xmlns:xlink="http://www.w3.org/1999/xlink" xml:space="preserve" xmlns:serif="http://www.serif.com/" style="fill-rule:evenodd;clip-rule:evenodd;stroke-linejoin:round;stroke-miterlimit:2;">
    <g transform="matrix(0.048,0,0,0.0424145,0,1.05182)">
        <path d="M474.814,164.266C474.814,158.02 470.333,152.949 464.814,152.949L74.815,152.949C69.296,152.949 64.815,158.02 64.815,164.266C64.815,170.512 69.296,175.583 74.815,175.583L464.814,175.583C470.333,175.583 474.814,170.512 474.814,164.266Z"/>
    </g>
    <g transform="matrix(0.048,0,0,0.0424145,-1.90219,8.88721)">
        <path d="M474.814,164.266C474.814,158.02 470.333,152.949 464.814,152.949L74.815,152.949C69.296,152.949 64.815,158.02 64.815,164.266C64.815,170.512 69.296,175.583 74.815,175.583L464.814,175.583C470.333,175.583 474.814,170.512 474.814,164.266Z"/>
    </g>
    <g transform="matrix(0.0124233,-0.0463644,0.0409693,0.0109777,-2.59127,22.7065)">
        <path d="M474.814,164.266C474.814,158.02 470.333,152.949 464.814,152.949L74.815,152.949C69.296,152.949 64.815,158.02 64.815,164.266C64.815,170.512 69.296,175.583 74.815,175.583L464.814,175.583C470.333,175.583 474.814,170.512 474.814,164.266Z"/>
    </g>
    <g transform="matrix(0.0124233,-0.0463644,0.0409693,0.0109777,6.33673,22.7065)">
        <path d="M474.814,164.266C474.814,158.02 470.333,152.949 464.814,152.949L74.815,152.949C69.296,152.949 64.815,158.02 64.815,164.266C64.815,170.512 69.296,175.583 74.815,175.583L464.814,175.583C470.333,175.583 474.814,170.512 474.814,164.266Z"/>
    </g>
</svg>
