<?xml version="1.0" encoding="UTF-8" standalone="no"?>
<!DOCTYPE svg PUBLIC "-//W3C//DTD SVG 1.1//EN" "http://www.w3.org/Graphics/SVG/1.1/DTD/svg11.dtd">
<svg width="100%" height="100%" viewBox="0 0 24 24" version="1.1" xmlns="http://www.w3.org/2000/svg" xmlns:xlink="http://www.w3.org/1999/xlink" xml:space="preserve" xmlns:serif="http://www.serif.com/" style="fill-rule:evenodd;clip-rule:evenodd;stroke-linejoin:round;stroke-miterlimit:2;">
    <g transform="matrix(2.93915e-18,0.048,-0.048,2.93915e-18,24,-0.0329218)">
        <path d="M29.589,260C24.07,260 19.589,255.519 19.589,250C19.589,244.481 24.07,240 29.589,240L471.782,240C477.302,240 481.782,244.481 481.782,250C481.782,255.519 477.302,260 471.782,260L29.589,260Z"/>
    </g>
    <g transform="matrix(-0.0246526,0.0246526,0.0433881,0.0433881,7.97778,-6.41333)">
        <path d="M257.171,136.245C257.171,131.928 251.002,128.422 243.403,128.422L76.675,128.422C69.077,128.422 62.907,131.928 62.907,136.245C62.907,140.563 69.077,144.068 76.675,144.068L243.403,144.068C251.002,144.068 257.171,140.563 257.171,136.245Z"/>
    </g>
    <g transform="matrix(0.024658,0.024658,0.0433881,-0.0433881,4.19801,5.4081)">
        <path d="M257.171,136.245C257.171,131.928 251.003,128.422 243.406,128.422L76.672,128.422C69.075,128.422 62.907,131.928 62.907,136.245C62.907,140.563 69.075,144.068 76.672,144.068L243.406,144.068C251.003,144.068 257.171,140.563 257.171,136.245Z"/>
    </g>
    <g transform="matrix(-0.0246526,-0.0246526,0.0433881,-0.0433881,7.97778,30.4133)">
        <path d="M257.171,136.245C257.171,131.928 251.002,128.422 243.403,128.422L76.675,128.422C69.077,128.422 62.907,131.928 62.907,136.245C62.907,140.563 69.077,144.068 76.675,144.068L243.403,144.068C251.002,144.068 257.171,140.563 257.171,136.245Z"/>
    </g>
    <g transform="matrix(0.024658,-0.024658,0.0433881,0.0433881,4.19801,18.5919)">
        <path d="M257.171,136.245C257.171,131.928 251.003,128.422 243.406,128.422L76.672,128.422C69.075,128.422 62.907,131.928 62.907,136.245C62.907,140.563 69.075,144.068 76.672,144.068L243.406,144.068C251.003,144.068 257.171,140.563 257.171,136.245Z"/>
    </g>
</svg>
