<?xml version="1.0" encoding="UTF-8" standalone="no"?>
<!DOCTYPE svg PUBLIC "-//W3C//DTD SVG 1.1//EN" "http://www.w3.org/Graphics/SVG/1.1/DTD/svg11.dtd">
<svg width="100%" height="100%" viewBox="0 0 6 6" version="1.1" xmlns="http://www.w3.org/2000/svg" xmlns:xlink="http://www.w3.org/1999/xlink" xml:space="preserve" xmlns:serif="http://www.serif.com/" style="fill-rule:evenodd;clip-rule:evenodd;stroke-linejoin:round;stroke-miterlimit:2;">
    <g transform="matrix(0.24,0,0,0.24,0,0)">
        <g transform="matrix(0.048,0,0,0.048,0,0)">
            <path d="M183.333,439.36L183.333,265.94L316.667,265.94L316.667,439.36L442.409,439.36C448.901,439.36 454.171,434.09 454.171,427.598L454.171,173.496C454.171,167.004 448.901,161.734 442.409,161.734L57.591,161.734C51.099,161.734 45.829,167.004 45.829,173.496L45.829,427.598C45.829,434.09 51.099,439.36 57.591,439.36L183.333,439.36Z"/>
        </g>
        <g transform="matrix(0.048,0,0,0.048,0,0)">
            <path d="M452.307,176.202C449.547,180.982 50.619,180.982 47.859,176.202C45.1,171.423 46.74,165.302 51.52,162.542L244.825,50.937C246.88,49.751 249.183,49.378 251.36,49.719C252.772,49.84 254.179,50.266 255.486,51.02L448.647,162.542C453.426,165.302 455.067,171.423 452.307,176.202Z"/>
        </g>
    </g>
</svg>
