<?xml version="1.0" encoding="UTF-8" standalone="no"?>
<!DOCTYPE svg PUBLIC "-//W3C//DTD SVG 1.1//EN" "http://www.w3.org/Graphics/SVG/1.1/DTD/svg11.dtd">
<svg width="100%" height="100%" viewBox="0 0 6 6" version="1.1" xmlns="http://www.w3.org/2000/svg" xmlns:xlink="http://www.w3.org/1999/xlink" xml:space="preserve" xmlns:serif="http://www.serif.com/" style="fill-rule:evenodd;clip-rule:evenodd;stroke-linejoin:round;stroke-miterlimit:2;">
    <g transform="matrix(0.24,0,0,0.24,0,0)">
        <g transform="matrix(0.048,0,0,0.048,0,0)">
            <path d="M108.429,51.917L98.429,51.917C92.909,51.917 88.429,47.436 88.429,41.917C88.429,36.398 92.909,31.917 98.429,31.917L401.571,31.917C407.091,31.917 411.571,36.398 411.571,41.917C411.571,47.436 407.091,51.917 401.571,51.917L391.571,51.917L391.571,159.417C391.571,189.42 351.391,227.422 310.844,250C351.394,272.581 391.571,310.581 391.571,340.583L391.571,448.083L401.571,448.083C407.091,448.083 411.571,452.564 411.571,458.083C411.571,463.602 407.091,468.083 401.571,468.083L98.429,468.083C92.909,468.083 88.429,463.602 88.429,458.083C88.429,452.564 92.909,448.083 98.429,448.083L108.429,448.083L108.429,340.583C108.429,310.581 148.606,272.581 189.156,250C148.609,227.422 108.429,189.42 108.429,159.417L108.429,51.917ZM260,238.688L260,337.525C315.104,342.428 355.957,387.255 355.957,433.083L144.043,433.083C144.043,387.255 184.895,342.428 240,337.526L240,238.799C234.042,237.427 228.725,234.94 223.849,232.225C183.303,209.647 143.122,181.646 143.122,154.142L143.122,127.142L356.878,127.142L356.878,154.142C356.878,181.646 316.697,209.647 276.151,232.225C270.349,235.456 264.985,237.522 260,238.688Z"/>
        </g>
    </g>
</svg>
