<?xml version="1.0" encoding="UTF-8" standalone="no"?>
<!DOCTYPE svg PUBLIC "-//W3C//DTD SVG 1.1//EN" "http://www.w3.org/Graphics/SVG/1.1/DTD/svg11.dtd">
<svg width="100%" height="100%" viewBox="0 0 24 24" version="1.1" xmlns="http://www.w3.org/2000/svg" xmlns:xlink="http://www.w3.org/1999/xlink" xml:space="preserve" xmlns:serif="http://www.serif.com/" style="fill-rule:evenodd;clip-rule:evenodd;stroke-linejoin:round;stroke-miterlimit:2;">
    <g transform="matrix(0.048,0,0,0.048,0,0)">
        <path d="M33.677,324.417L175.763,324.417C180.975,360.74 212.249,388.692 250,388.692C287.751,388.692 319.025,360.74 324.237,324.417L466.323,324.417L466.323,435.55L33.677,435.55L33.677,324.417ZM33.677,304.406L33.896,304.25L121.176,64.45L121.285,64.49L121.285,64.45L378.715,64.45L378.715,64.49L378.824,64.45L466.139,304.344L466.323,304.406L304.218,304.406C304.732,307.428 305,310.529 305,313.692C305,344.047 280.355,368.692 250,368.692C219.645,368.692 195,344.047 195,313.692C195,310.529 195.268,307.428 195.782,304.406L33.677,304.406Z"/>
    </g>
</svg>
