<?xml version="1.0" encoding="UTF-8" standalone="no"?>
<!DOCTYPE svg PUBLIC "-//W3C//DTD SVG 1.1//EN" "http://www.w3.org/Graphics/SVG/1.1/DTD/svg11.dtd">
<svg width="100%" height="100%" viewBox="0 0 24 24" version="1.1" xmlns="http://www.w3.org/2000/svg" xmlns:xlink="http://www.w3.org/1999/xlink" xml:space="preserve" xmlns:serif="http://www.serif.com/" style="fill-rule:evenodd;clip-rule:evenodd;stroke-linejoin:round;stroke-miterlimit:2;">
    <g transform="matrix(0.028144,0.028144,0.0308675,-0.0308675,7.02322,13.9481)">
        <path d="M70.188,198.114C70.188,189.011 62.082,181.621 52.098,181.621C42.114,181.621 34.009,189.011 34.009,198.114L34.009,427.066C34.009,436.17 42.114,443.56 52.098,443.56C62.082,443.56 70.188,436.17 70.188,427.066L70.188,198.114Z"/>
    </g>
    <g transform="matrix(0.028144,0.028144,0.0374422,-0.0374422,-6.28794,20.638)">
        <path d="M70.188,195.218C70.188,187.714 62.082,181.621 52.098,181.621C42.114,181.621 34.009,187.714 34.009,195.218L34.009,429.963C34.009,437.467 42.114,443.56 52.098,443.56C62.082,443.56 70.188,437.467 70.188,429.963L70.188,195.218Z"/>
    </g>
    <g transform="matrix(-0.028144,0.028144,-0.0164612,-0.0164612,19.5542,11.3316)">
        <path d="M70.188,212.549C70.188,195.479 62.082,181.621 52.098,181.621C42.114,181.621 34.009,195.479 34.009,212.549L34.009,412.632C34.009,429.702 42.114,443.56 52.098,443.56C62.082,443.56 70.188,429.702 70.188,412.632L70.188,212.549Z"/>
    </g>
    <g transform="matrix(-0.0397904,0.000946237,-0.000392087,-0.0164877,23.9194,8.71051)">
        <path d="M70.188,225.277C70.188,201.183 62.082,181.621 52.098,181.621C42.114,181.621 34.009,201.183 34.009,225.277L34.009,399.904C34.009,423.998 42.114,443.56 52.098,443.56C62.082,443.56 70.188,423.998 70.188,399.904L70.188,225.277Z"/>
    </g>
    <g transform="matrix(0.000946237,0.0397904,0.0164877,-0.000392087,15.0468,0.250095)">
        <path d="M70.188,225.277C70.188,201.183 62.082,181.621 52.098,181.621C42.114,181.621 34.009,201.183 34.009,225.277L34.009,399.904C34.009,423.998 42.114,443.56 52.098,443.56C62.082,443.56 70.188,423.998 70.188,399.904L70.188,225.277Z"/>
    </g>
    <g transform="matrix(-0.0543871,0,0,0.0448076,24.441,1.56317)">
        <path d="M84.079,135.01C84.079,128.717 79.87,123.608 74.685,123.608L55.898,123.608C50.713,123.608 46.504,128.717 46.504,135.01L46.504,455.59C46.504,461.883 50.713,466.992 55.898,466.992L74.685,466.992C79.87,466.992 84.079,461.883 84.079,455.59L84.079,135.01Z"/>
    </g>
    <g transform="matrix(-0.0543871,0,0,0.0331196,20.068,7.02134)">
        <path d="M84.079,139.034C84.079,130.52 79.87,123.608 74.685,123.608L55.898,123.608C50.713,123.608 46.504,130.52 46.504,139.034L46.504,451.566C46.504,460.08 50.713,466.992 55.898,466.992L74.685,466.992C79.87,466.992 84.079,460.08 84.079,451.566L84.079,139.034Z"/>
    </g>
    <g transform="matrix(-0.0543871,0,0,0.0345175,15.695,6.36855)">
        <path d="M84.079,138.409C84.079,130.24 79.87,123.608 74.685,123.608L55.898,123.608C50.713,123.608 46.504,130.24 46.504,138.409L46.504,452.191C46.504,460.36 50.713,466.992 55.898,466.992L74.685,466.992C79.87,466.992 84.079,460.36 84.079,452.191L84.079,138.409Z"/>
    </g>
    <g transform="matrix(-0.0543871,0,0,0.0266117,11.322,10.0605)">
        <path d="M84.079,142.806C84.079,132.21 79.87,123.608 74.685,123.608L55.898,123.608C50.713,123.608 46.504,132.21 46.504,142.806L46.504,447.794C46.504,458.39 50.713,466.992 55.898,466.992L74.685,466.992C79.87,466.992 84.079,458.39 84.079,447.794L84.079,142.806Z"/>
    </g>
    <g transform="matrix(-0.0543871,0,0,0.0161135,6.94901,14.9631)">
        <path d="M84.079,155.315C84.079,137.815 79.87,123.608 74.685,123.608L55.898,123.608C50.713,123.608 46.504,137.815 46.504,155.315L46.504,435.285C46.504,452.785 50.713,466.992 55.898,466.992L74.685,466.992C79.87,466.992 84.079,452.785 84.079,435.285L84.079,155.315Z"/>
    </g>
</svg>
