<?xml version="1.0" encoding="UTF-8" standalone="no"?>
<!DOCTYPE svg PUBLIC "-//W3C//DTD SVG 1.1//EN" "http://www.w3.org/Graphics/SVG/1.1/DTD/svg11.dtd">
<svg width="100%" height="100%" viewBox="0 0 6 6" version="1.1" xmlns="http://www.w3.org/2000/svg" xmlns:xlink="http://www.w3.org/1999/xlink" xml:space="preserve" xmlns:serif="http://www.serif.com/" style="fill-rule:evenodd;clip-rule:evenodd;stroke-linejoin:round;stroke-miterlimit:2;">
    <g transform="matrix(0.24,0,0,0.24,0,0)">
        <g transform="matrix(0.048,0,0,0.048,0,0)">
            <path d="M321.102,356.65C306.426,408.359 286.65,442.402 286.65,442.402L282.147,450.768C274.888,451.924 267.498,452.695 260,453.058L260,356.65L321.102,356.65ZM178.898,356.65L240,356.65L240,453.058C232.814,452.709 225.726,451.987 218.754,450.91L213.35,442.402C213.35,442.402 193.574,408.359 178.898,356.65ZM157.771,356.65C172.542,410.382 193.35,442.402 193.35,442.402L195.917,446.016C145.895,432.223 103.577,399.78 76.925,356.65L157.771,356.65ZM423.075,356.65C396.57,399.541 354.575,431.862 304.914,445.785L306.65,442.402C306.65,442.402 327.458,410.382 342.229,356.65L423.075,356.65ZM143.475,260C144.181,288.208 147.812,313.953 152.819,336.65L66.065,336.65C54.988,313.196 48.266,287.3 46.942,260L143.475,260ZM163.496,260L240,260L240,336.65L173.726,336.65C168.302,313.412 164.295,287.471 163.496,260ZM336.504,260L260,260L260,336.65L326.274,336.65C331.699,313.413 335.706,287.47 336.504,260ZM453.058,260C451.732,287.301 445.011,313.196 433.935,336.65L347.181,336.65C352.189,313.956 355.82,288.208 356.525,260L453.058,260ZM152.632,163.35C147.721,186.279 144.171,212.067 143.475,240L46.942,240C48.268,212.699 54.989,186.804 66.065,163.35L152.632,163.35ZM173.51,163.35L240,163.35L240,240L163.496,240C164.283,212.821 168.194,186.843 173.51,163.35ZM326.49,163.35L260,163.35L260,240L336.504,240C335.717,212.819 331.805,186.837 326.49,163.35ZM433.935,163.35C445.012,186.804 451.734,212.7 453.058,240L356.525,240C355.83,212.076 352.281,186.291 347.368,163.35L433.935,163.35ZM191.522,55.25C188.767,60.667 186.505,65.614 185.631,67.372C178.129,82.466 166.561,108.819 157.419,143.35L76.925,143.35C102.796,101.485 143.424,69.691 191.522,55.25ZM240,46.942L240,143.35L178.507,143.35C189.29,103.898 202.977,73.765 209.524,60.475C209.859,59.793 212.533,54.994 214.905,49.723C223.105,48.293 231.482,47.355 240,46.942ZM260,46.942C268.67,47.363 277.199,48.328 285.56,49.805C287.453,54.501 289.865,59.235 290.476,60.475C297.023,73.765 310.71,103.898 321.493,143.35L260,143.35L260,46.942ZM309.001,55.408C356.876,69.921 397.306,101.64 423.075,143.35L342.581,143.35C333.439,108.819 321.871,82.466 314.369,67.372C313.845,66.318 311.784,61.176 309.001,55.408Z"/>
        </g>
    </g>
</svg>
