<?xml version="1.0" encoding="UTF-8" standalone="no"?>
<!DOCTYPE svg PUBLIC "-//W3C//DTD SVG 1.1//EN" "http://www.w3.org/Graphics/SVG/1.1/DTD/svg11.dtd">
<svg width="100%" height="100%" viewBox="0 0 6 6" version="1.1" xmlns="http://www.w3.org/2000/svg" xmlns:xlink="http://www.w3.org/1999/xlink" xml:space="preserve" xmlns:serif="http://www.serif.com/" style="fill-rule:evenodd;clip-rule:evenodd;stroke-linejoin:round;stroke-miterlimit:2;">
    <g transform="matrix(0.24,0,0,0.24,0,0)">
        <g transform="matrix(0.048,0,0,0.048,0,0)">
            <path d="M188.062,77.392C243.029,109.127 261.89,179.518 230.155,234.485C198.42,289.452 128.029,308.313 73.062,276.578C18.095,244.843 -0.766,174.452 30.969,119.485C62.704,64.518 133.095,45.657 188.062,77.392ZM113.057,127.305C129.438,136.762 135.059,157.74 125.601,174.121C116.144,190.502 95.166,196.123 78.785,186.665C62.404,177.208 56.783,156.23 66.24,139.849C75.698,123.468 96.676,117.847 113.057,127.305Z"/>
        </g>
        <g transform="matrix(0.048,0,0,0.048,0,0)">
            <path d="M265.562,176.985L460.87,289.746C461.073,289.863 461.27,289.987 461.462,290.116C463.959,291.345 465.934,293.603 466.71,296.5L477.534,336.895L310.212,240.292C305.432,237.532 299.311,239.172 296.552,243.952C293.792,248.732 295.432,254.853 300.212,257.612L484.44,363.976C484.44,364.714 484.358,365.442 484.2,366.148C483.989,367.099 483.634,368.034 483.127,368.924L483.097,368.976C483.097,368.976 473.259,386.016 473.259,386.016C473.232,386.063 473.205,386.109 473.177,386.154C471.907,388.438 469.749,390.225 467.028,390.954L402.139,408.341C399.429,409.067 396.679,408.605 394.442,407.275C394.373,407.238 394.304,407.199 394.236,407.16L372.152,394.41C372.053,394.352 371.956,394.294 371.86,394.234C369.528,392.972 367.7,390.791 366.96,388.03L359.046,358.495L329.511,366.409C326.739,367.151 323.924,366.651 321.66,365.25C319.314,363.989 317.473,361.802 316.731,359.03L308.817,329.495L279.281,337.409C276.405,338.179 273.482,337.612 271.177,336.088C270.986,335.994 270.797,335.892 270.611,335.785L198.063,293.899C238.399,270.547 265.562,226.913 265.562,176.985Z"/>
        </g>
    </g>
</svg>
