<?xml version="1.0" encoding="UTF-8" standalone="no"?>
<!DOCTYPE svg PUBLIC "-//W3C//DTD SVG 1.1//EN" "http://www.w3.org/Graphics/SVG/1.1/DTD/svg11.dtd">
<svg width="100%" height="100%" viewBox="0 0 6 6" version="1.1" xmlns="http://www.w3.org/2000/svg" xmlns:xlink="http://www.w3.org/1999/xlink" xml:space="preserve" xmlns:serif="http://www.serif.com/" style="fill-rule:evenodd;clip-rule:evenodd;stroke-linejoin:round;stroke-miterlimit:2;">
    <g transform="matrix(0.24,0,0,0.24,0,0)">
        <g transform="matrix(0.048,0,0,0.048,-0.605404,-0.030015)">
            <path d="M252.43,76.453C253.718,75.901 255.125,75.617 256.56,75.646C258.234,75.612 259.86,76.003 261.305,76.741L482.657,149.1C486.945,150.502 489.643,154.534 489.549,158.824C489.651,163.326 486.679,167.488 482.138,168.705L272.795,224.798C271.507,225.349 270.101,225.633 268.665,225.605C266.991,225.639 265.365,225.248 263.92,224.509L42.569,152.151C38.281,150.749 35.582,146.717 35.676,142.427C35.575,137.925 38.546,133.763 43.088,132.546L252.43,76.453Z"/>
        </g>
        <g transform="matrix(0.048,0,0,0.048,0,0)">
            <path d="M131.69,204.8L251.307,243.903C252.752,244.641 254.379,245.032 256.053,244.998C257.488,245.027 258.894,244.743 260.182,244.191L368.31,215.218L470.044,248.475C474.332,249.876 477.03,253.908 476.936,258.199C477.038,262.701 474.066,266.863 469.525,268.079L260.182,324.173C258.894,324.724 257.488,325.008 256.053,324.979C254.379,325.014 252.752,324.623 251.307,323.884L29.956,251.525C25.668,250.124 22.97,246.092 23.064,241.801C22.962,237.299 25.934,233.137 30.475,231.921L131.69,204.8Z"/>
        </g>
        <g transform="matrix(0.048,0,0,0.048,0,0)">
            <path d="M132.074,304.697L251.307,343.674C252.752,344.413 254.379,344.804 256.053,344.769C257.488,344.798 258.894,344.514 260.182,343.963L367.926,315.093L470.044,348.475C474.332,349.876 477.03,353.908 476.936,358.199C477.038,362.701 474.066,366.863 469.525,368.079L260.182,424.173C258.894,424.724 257.488,425.008 256.053,424.979C254.379,425.014 252.752,424.623 251.307,423.884L29.956,351.525C25.668,350.124 22.97,346.092 23.064,341.801C22.962,337.299 25.934,333.137 30.475,331.921L132.074,304.697Z"/>
        </g>
    </g>
</svg>
