<?xml version="1.0" encoding="UTF-8" standalone="no"?>
<!DOCTYPE svg PUBLIC "-//W3C//DTD SVG 1.1//EN" "http://www.w3.org/Graphics/SVG/1.1/DTD/svg11.dtd">
<svg width="100%" height="100%" viewBox="0 0 6 6" version="1.1" xmlns="http://www.w3.org/2000/svg" xmlns:xlink="http://www.w3.org/1999/xlink" xml:space="preserve" xmlns:serif="http://www.serif.com/" style="fill-rule:evenodd;clip-rule:evenodd;stroke-linejoin:round;stroke-miterlimit:2;">
    <g transform="matrix(0.24,0,0,0.24,0,0)">
        <g transform="matrix(0.048,0,0,0.048,2.72848e-15,-0.133361)">
            <path d="M127.053,321.989C128.719,318.78 132.073,316.586 135.935,316.586L364.065,316.586C367.927,316.586 371.281,318.78 372.947,321.989C373.544,322.992 373.975,324.116 374.194,325.331L400.377,470.53C400.508,471.172 400.577,471.837 400.578,472.518L400.578,472.55C400.578,472.758 400.571,472.965 400.558,473.171L400.556,473.211L400.554,473.24L400.551,473.276C400.342,476.127 398.935,478.648 396.831,480.336L396.798,480.363L396.779,480.378L396.747,480.403C396.512,480.587 396.269,480.762 396.018,480.925L395.99,480.943L395.939,480.976L395.916,480.99L395.882,481.012C394.346,481.975 392.53,482.533 390.585,482.534L390.578,482.534L109.422,482.534L109.415,482.534C107.47,482.533 105.654,481.975 104.118,481.012L104.084,480.99L104.061,480.976L104.01,480.943L103.982,480.925C103.731,480.762 103.487,480.587 103.253,480.403L103.221,480.378L103.202,480.363L103.169,480.336C101.065,478.648 99.658,476.127 99.449,473.276L99.446,473.24L99.444,473.211L99.442,473.171C99.429,472.965 99.422,472.758 99.422,472.55L99.422,472.518C99.423,471.838 99.492,471.173 99.623,470.53L125.806,325.331C126.025,324.116 126.456,322.992 127.053,321.989Z"/>
        </g>
        <g transform="matrix(0.048,0,0,0.048,0,0)">
            <path d="M460.003,17.023C460.344,17.023 460.682,17.04 461.016,17.074L461.07,17.08C463.755,17.366 466.124,18.716 467.746,20.7L467.753,20.71L467.791,20.757L467.799,20.766C468.129,21.176 468.428,21.614 468.691,22.076C469.524,23.536 470,25.224 470,27.023L470,84.911C470,86.709 469.524,88.398 468.691,89.857C468.428,90.32 468.129,90.757 467.799,91.167L467.784,91.186L467.753,91.224L467.746,91.233C466.123,93.218 463.754,94.568 461.07,94.854L461.016,94.86C460.682,94.894 460.344,94.911 460.003,94.911L460,94.911C459.457,94.911 458.924,94.867 458.404,94.784L320.368,75.384C315.324,74.675 311.687,70.31 311.76,65.344C311.759,65.295 311.759,65.245 311.759,65.195L311.759,46.738C311.759,46.688 311.759,46.639 311.76,46.589C311.687,41.624 315.324,37.258 320.368,36.55L458.404,17.15C458.924,17.066 459.457,17.023 460,17.023L460.003,17.023Z"/>
        </g>
        <g transform="matrix(-0.048,0,0,0.048,24,0)">
            <path d="M460.003,17.023C460.344,17.023 460.682,17.04 461.016,17.074L461.07,17.08C463.755,17.366 466.124,18.716 467.746,20.7L467.753,20.71L467.791,20.757L467.799,20.766C468.129,21.176 468.428,21.614 468.691,22.076C469.524,23.536 470,25.224 470,27.023L470,84.911C470,86.709 469.524,88.398 468.691,89.857C468.428,90.32 468.129,90.757 467.799,91.167L467.784,91.186L467.753,91.224L467.746,91.233C466.123,93.218 463.754,94.568 461.07,94.854L461.016,94.86C460.682,94.894 460.344,94.911 460.003,94.911L460,94.911C459.457,94.911 458.924,94.867 458.404,94.784L320.368,75.384C315.324,74.675 311.687,70.31 311.76,65.344C311.759,65.295 311.759,65.245 311.759,65.195L311.759,46.738C311.759,46.688 311.759,46.639 311.76,46.589C311.687,41.624 315.324,37.258 320.368,36.55L458.404,17.15C458.924,17.066 459.457,17.023 460,17.023L460.003,17.023Z"/>
        </g>
        <g transform="matrix(0.048,0,0,0.048,0,0)">
            <path d="M144.671,293.808L162.168,196.78C162.327,195.896 162.599,195.06 162.965,194.285C164.405,190.528 168.046,187.859 172.306,187.859L327.694,187.859C331.708,187.859 335.173,190.229 336.764,193.645C337.254,194.553 337.611,195.551 337.803,196.62L355.329,293.808L144.671,293.808Z"/>
        </g>
        <g transform="matrix(0.048,0,0,0.048,0,0)">
            <path d="M184.671,167.859L198.602,90.606C198.735,89.87 198.945,89.167 199.223,88.504C200.618,84.66 204.304,81.911 208.627,81.911L291.373,81.911C295.892,81.911 299.716,84.916 300.953,89.035C301.159,89.588 301.319,90.166 301.427,90.766L315.329,167.859L184.671,167.859Z"/>
        </g>
        <g transform="matrix(0.048,0,0,0.048,0,0)">
            <path d="M214.755,61.911L220.742,29.243C220.845,28.683 220.993,28.141 221.181,27.622C222.335,23.373 226.222,20.244 230.833,20.244L269.167,20.244C273.778,20.244 277.665,23.373 278.819,27.622C279.007,28.141 279.155,28.683 279.258,29.243L285.245,61.911L214.755,61.911Z"/>
        </g>
    </g>
</svg>
