<?xml version="1.0" encoding="UTF-8" standalone="no"?>
<!DOCTYPE svg PUBLIC "-//W3C//DTD SVG 1.1//EN" "http://www.w3.org/Graphics/SVG/1.1/DTD/svg11.dtd">
<svg width="100%" height="100%" viewBox="0 0 6 6" version="1.1" xmlns="http://www.w3.org/2000/svg" xmlns:xlink="http://www.w3.org/1999/xlink" xml:space="preserve" xmlns:serif="http://www.serif.com/" style="fill-rule:evenodd;clip-rule:evenodd;stroke-linejoin:round;stroke-miterlimit:2;">
    <g transform="matrix(0.24,0,0,0.24,0,0)">
        <g transform="matrix(0.0339411,-0.0339411,0.0339411,0.0339411,-5.10213,15.9213)">
            <path d="M288.272,194.171C288.272,151.731 253.816,117.275 211.376,117.275L105,117.275C62.56,117.275 28.104,151.731 28.104,194.171C28.104,236.611 62.56,271.067 105,271.067L211.376,271.067C253.816,271.067 288.272,236.611 288.272,194.171ZM268.272,194.171C268.272,162.77 242.778,137.275 211.376,137.275L105,137.275C73.598,137.275 48.104,162.77 48.104,194.171C48.104,225.573 73.598,251.067 105,251.067L211.376,251.067C242.778,251.067 268.272,225.573 268.272,194.171Z"/>
        </g>
        <g transform="matrix(0.0339411,-0.0339411,0.0339411,0.0339411,4.50435,6.31486)">
            <path d="M308.272,194.171C308.272,151.731 273.816,117.275 231.376,117.275L125,117.275C82.56,117.275 48.104,151.731 48.104,194.171C48.104,236.611 82.56,271.067 125,271.067L231.376,271.067C273.816,271.067 308.272,236.611 308.272,194.171ZM288.272,194.171C288.272,162.77 262.778,137.275 231.376,137.275L125,137.275C93.598,137.275 68.104,162.77 68.104,194.171C68.104,225.573 93.598,251.067 125,251.067L231.376,251.067C262.778,251.067 288.272,225.573 288.272,194.171Z"/>
        </g>
        <g transform="matrix(0.0339411,-0.0339411,0.0339411,0.0339411,0.970564,14.3897)">
            <path d="M359.199,127.275C359.199,121.756 354.719,117.275 349.199,117.275L46.166,117.275C40.647,117.275 36.166,121.756 36.166,127.275C36.166,132.794 40.647,137.275 46.166,137.275L349.199,137.275C354.719,137.275 359.199,132.794 359.199,127.275Z"/>
        </g>
    </g>
</svg>
