<?xml version="1.0" encoding="UTF-8" standalone="no"?>
<!DOCTYPE svg PUBLIC "-//W3C//DTD SVG 1.1//EN" "http://www.w3.org/Graphics/SVG/1.1/DTD/svg11.dtd">
<svg width="100%" height="100%" viewBox="0 0 24 24" version="1.1" xmlns="http://www.w3.org/2000/svg" xmlns:xlink="http://www.w3.org/1999/xlink" xml:space="preserve" xmlns:serif="http://www.serif.com/" style="fill-rule:evenodd;clip-rule:evenodd;stroke-linejoin:round;stroke-miterlimit:2;">
    <g transform="matrix(0.048,0,0,0.048,-8.19444,-0.228301)">
        <circle cx="251.671" cy="101.464" r="40"/>
    </g>
    <g transform="matrix(0.048,0,0,0.048,-8.19444,14.4877)">
        <circle cx="251.671" cy="101.464" r="40"/>
    </g>
    <g transform="matrix(0.048,0,0,0.048,-8.19444,7.12972)">
        <circle cx="251.671" cy="101.464" r="40"/>
    </g>
    <g transform="matrix(0.048,0,0,0.0504935,0,-0.456206)">
        <path d="M459.046,100.967C459.046,93.097 452.325,86.708 444.046,86.708L166.86,86.708C158.581,86.708 151.86,93.097 151.86,100.967C151.86,108.837 158.581,115.226 166.86,115.226L444.046,115.226C452.325,115.226 459.046,108.837 459.046,100.967Z"/>
    </g>
    <g transform="matrix(0.048,0,0,0.0504935,0,6.90182)">
        <path d="M459.046,100.967C459.046,93.097 452.325,86.708 444.046,86.708L166.86,86.708C158.581,86.708 151.86,93.097 151.86,100.967C151.86,108.837 158.581,115.226 166.86,115.226L444.046,115.226C452.325,115.226 459.046,108.837 459.046,100.967Z"/>
    </g>
    <g transform="matrix(0.048,0,0,0.0504935,0,14.2598)">
        <path d="M459.046,100.967C459.046,93.097 452.325,86.708 444.046,86.708L166.86,86.708C158.581,86.708 151.86,93.097 151.86,100.967C151.86,108.837 158.581,115.226 166.86,115.226L444.046,115.226C452.325,115.226 459.046,108.837 459.046,100.967Z"/>
    </g>
</svg>
