<?xml version="1.0" encoding="UTF-8" standalone="no"?>
<!DOCTYPE svg PUBLIC "-//W3C//DTD SVG 1.1//EN" "http://www.w3.org/Graphics/SVG/1.1/DTD/svg11.dtd">
<svg width="100%" height="100%" viewBox="0 0 6 6" version="1.1" xmlns="http://www.w3.org/2000/svg" xmlns:xlink="http://www.w3.org/1999/xlink" xml:space="preserve" xmlns:serif="http://www.serif.com/" style="fill-rule:evenodd;clip-rule:evenodd;stroke-linejoin:round;stroke-miterlimit:2;">
    <g transform="matrix(0.24,0,0,0.24,0,0)">
        <g transform="matrix(0.048,0,0,0.048,0,0)">
            <path d="M368.866,264.918C368.866,254.477 360.389,246 349.947,246L150.053,246C139.611,246 131.134,254.477 131.134,264.918L131.134,452.31C131.134,462.751 139.611,471.228 150.053,471.228L349.947,471.228C360.389,471.228 368.866,462.751 368.866,452.31L368.866,264.918ZM240,355.351C234.024,351.892 230,345.428 230,338.031C230,326.992 238.962,318.031 250,318.031C261.038,318.031 270,326.992 270,338.031C270,345.428 265.976,351.892 260,355.351L260,389.197C260,394.717 255.519,399.197 250,399.197C244.481,399.197 240,394.717 240,389.197L240,355.351Z"/>
        </g>
        <g transform="matrix(0.048,0,0,0.048,0,-0.192)">
            <path d="M160,262.395L180,262.395L180,184.395C180,145.761 211.366,114.395 250,114.395C288.634,114.395 320,145.761 320,184.395L320,262.395L340,262.395L340,184.395C340,134.723 299.672,94.395 250,94.395C200.328,94.395 160,134.723 160,184.395L160,262.395Z"/>
        </g>
    </g>
</svg>
