<?xml version="1.0" encoding="UTF-8" standalone="no"?>
<!DOCTYPE svg PUBLIC "-//W3C//DTD SVG 1.1//EN" "http://www.w3.org/Graphics/SVG/1.1/DTD/svg11.dtd">
<svg width="100%" height="100%" viewBox="0 0 6 6" version="1.1" xmlns="http://www.w3.org/2000/svg" xmlns:xlink="http://www.w3.org/1999/xlink" xml:space="preserve" xmlns:serif="http://www.serif.com/" style="fill-rule:evenodd;clip-rule:evenodd;stroke-linejoin:round;stroke-miterlimit:2;">
    <g transform="matrix(0.24,0,0,0.24,0,0)">
        <g transform="matrix(0.048,0,0,0.048,0,0)">
            <circle cx="250" cy="250" r="121.84"/>
        </g>
        <g transform="matrix(0.0804141,0,0,0.0306732,8.35765,-1.31344)">
            <path d="M51.264,92.194C51.264,83.557 48.589,76.545 45.295,76.545C42.001,76.545 39.326,83.557 39.326,92.194L39.326,196.43C39.326,205.067 42.001,212.079 45.295,212.079C48.589,212.079 51.264,205.067 51.264,196.43L51.264,92.194Z"/>
        </g>
        <g transform="matrix(0.0804141,0,0,0.0306732,8.35765,16.4604)">
            <path d="M51.264,92.194C51.264,83.557 48.589,76.545 45.295,76.545C42.001,76.545 39.326,83.557 39.326,92.194L39.326,196.43C39.326,205.067 42.001,212.079 45.295,212.079C48.589,212.079 51.264,205.067 51.264,196.43L51.264,92.194Z"/>
        </g>
        <g transform="matrix(0.0568614,0.0568614,-0.0216892,0.0216892,18.8385,0.0104422)">
            <path d="M51.264,92.194C51.264,83.557 48.589,76.545 45.295,76.545C42.001,76.545 39.326,83.557 39.326,92.194L39.326,196.43C39.326,205.067 42.001,212.079 45.295,212.079C48.589,212.079 51.264,205.067 51.264,196.43L51.264,92.194Z"/>
        </g>
        <g transform="matrix(0.0568614,0.0568614,-0.0216892,0.0216892,6.27046,12.5785)">
            <path d="M51.264,92.194C51.264,83.557 48.589,76.545 45.295,76.545C42.001,76.545 39.326,83.557 39.326,92.194L39.326,196.43C39.326,205.067 42.001,212.079 45.295,212.079C48.589,212.079 51.264,205.067 51.264,196.43L51.264,92.194Z"/>
        </g>
        <g transform="matrix(0,0.0804141,-0.0306732,0,25.3134,8.35765)">
            <path d="M51.264,92.194C51.264,83.557 48.589,76.545 45.295,76.545C42.001,76.545 39.326,83.557 39.326,92.194L39.326,196.43C39.326,205.067 42.001,212.079 45.295,212.079C48.589,212.079 51.264,205.067 51.264,196.43L51.264,92.194Z"/>
        </g>
        <g transform="matrix(0,0.0804141,-0.0306732,0,7.53956,8.35765)">
            <path d="M51.264,92.194C51.264,83.557 48.589,76.545 45.295,76.545C42.001,76.545 39.326,83.557 39.326,92.194L39.326,196.43C39.326,205.067 42.001,212.079 45.295,212.079C48.589,212.079 51.264,205.067 51.264,196.43L51.264,92.194Z"/>
        </g>
        <g transform="matrix(-0.0568614,0.0568614,-0.0216892,-0.0216892,23.9896,18.8385)">
            <path d="M51.264,92.194C51.264,83.557 48.589,76.545 45.295,76.545C42.001,76.545 39.326,83.557 39.326,92.194L39.326,196.43C39.326,205.067 42.001,212.079 45.295,212.079C48.589,212.079 51.264,205.067 51.264,196.43L51.264,92.194Z"/>
        </g>
        <g transform="matrix(-0.0568614,0.0568614,-0.0216892,-0.0216892,11.4215,6.27046)">
            <path d="M51.264,92.194C51.264,83.557 48.589,76.545 45.295,76.545C42.001,76.545 39.326,83.557 39.326,92.194L39.326,196.43C39.326,205.067 42.001,212.079 45.295,212.079C48.589,212.079 51.264,205.067 51.264,196.43L51.264,92.194Z"/>
        </g>
    </g>
</svg>
