<?xml version="1.0" encoding="UTF-8" standalone="no"?>
<!DOCTYPE svg PUBLIC "-//W3C//DTD SVG 1.1//EN" "http://www.w3.org/Graphics/SVG/1.1/DTD/svg11.dtd">
<svg width="100%" height="100%" viewBox="0 0 6 6" version="1.1" xmlns="http://www.w3.org/2000/svg" xmlns:xlink="http://www.w3.org/1999/xlink" xml:space="preserve" xmlns:serif="http://www.serif.com/" style="fill-rule:evenodd;clip-rule:evenodd;stroke-linejoin:round;stroke-miterlimit:2;">
    <g transform="matrix(0.24,0,0,0.24,0,0)">
        <g transform="matrix(0.048,0,0,0.048,0,0)">
            <path d="M462.233,108.345L462.233,267.307C462.233,383.209 368.135,477.307 252.233,477.307C136.331,477.307 42.233,383.209 42.233,267.307L42.233,108.345L147.233,108.345L147.233,267.307C147.233,325.258 194.282,372.307 252.233,372.307C310.184,372.307 357.233,325.258 357.233,267.307L357.233,108.345L462.233,108.345ZM42.233,88.345L42.233,49.595C42.233,35.108 53.995,23.345 68.483,23.345L120.983,23.345C135.471,23.345 147.233,35.108 147.233,49.595L147.233,88.345L42.233,88.345ZM357.233,88.345L357.233,49.595C357.233,35.108 368.995,23.345 383.483,23.345L435.983,23.345C450.471,23.345 462.233,35.108 462.233,49.595L462.233,88.345L357.233,88.345Z"/>
        </g>
    </g>
</svg>
