<?xml version="1.0" encoding="UTF-8" standalone="no"?>
<!DOCTYPE svg PUBLIC "-//W3C//DTD SVG 1.1//EN" "http://www.w3.org/Graphics/SVG/1.1/DTD/svg11.dtd">
<svg width="100%" height="100%" viewBox="0 0 6 6" version="1.1" xmlns="http://www.w3.org/2000/svg" xmlns:xlink="http://www.w3.org/1999/xlink" xml:space="preserve" xmlns:serif="http://www.serif.com/" style="fill-rule:evenodd;clip-rule:evenodd;stroke-linejoin:round;stroke-miterlimit:2;">
    <g transform="matrix(0.24,0,0,0.24,0,0)">
        <g transform="matrix(0.048,0,0,0.048,0,0)">
            <path d="M481.91,144.812L481.91,410.259C481.91,415.778 477.429,420.259 471.91,420.259L28.09,420.259C22.571,420.259 18.09,415.778 18.09,410.259L18.09,144.812L244.978,275.806C246.562,276.721 248.293,277.152 250,277.146C251.707,277.152 253.438,276.721 255.022,275.806L481.91,144.812ZM18.09,121.718L250,255.612L481.91,121.718L481.91,89.741C481.91,84.222 477.429,79.741 471.91,79.741L28.09,79.741C22.571,79.741 18.09,84.222 18.09,89.741L18.09,121.718Z"/>
        </g>
    </g>
</svg>
