<?xml version="1.0" encoding="UTF-8" standalone="no"?>
<!DOCTYPE svg PUBLIC "-//W3C//DTD SVG 1.1//EN" "http://www.w3.org/Graphics/SVG/1.1/DTD/svg11.dtd">
<svg width="100%" height="100%" viewBox="0 0 6 6" version="1.1" xmlns="http://www.w3.org/2000/svg" xmlns:xlink="http://www.w3.org/1999/xlink" xml:space="preserve" xmlns:serif="http://www.serif.com/" style="fill-rule:evenodd;clip-rule:evenodd;stroke-linejoin:round;stroke-miterlimit:2;">
    <g transform="matrix(0.24,0,0,0.24,0,0)">
        <g transform="matrix(0.048,0,0,0.048,0,0)">
            <path d="M320,47.186L434.987,114.136C437.248,115.452 438.801,117.521 439.513,119.841C439.831,120.816 440.002,121.857 440.002,122.938L440.002,446.938C440.002,450.618 438.01,453.836 435.047,455.572C432,457.449 428.041,457.627 424.739,455.694L320,394.383L320,47.186ZM180,452.921L64.946,385.572C62.803,384.317 61.299,382.386 60.548,380.208C60.377,379.714 60.243,379.201 60.151,378.675C60.036,378.028 59.985,377.369 60,376.708L60,53.101C59.969,51.336 60.404,49.54 61.357,47.904C62.421,46.076 63.978,44.711 65.761,43.879C66.778,43.402 67.888,43.091 69.056,42.982C71.066,42.789 73.153,43.201 75.03,44.294L180,105.411L180,452.921ZM300,394.384L200,452.921L200,105.411L300,47.188L300,394.384Z"/>
        </g>
    </g>
</svg>
