<?xml version="1.0" encoding="UTF-8" standalone="no"?>
<!DOCTYPE svg PUBLIC "-//W3C//DTD SVG 1.1//EN" "http://www.w3.org/Graphics/SVG/1.1/DTD/svg11.dtd">
<svg width="100%" height="100%" viewBox="0 0 24 24" version="1.1" xmlns="http://www.w3.org/2000/svg" xmlns:xlink="http://www.w3.org/1999/xlink" xml:space="preserve" xmlns:serif="http://www.serif.com/" style="fill-rule:evenodd;clip-rule:evenodd;stroke-linejoin:round;stroke-miterlimit:2;">
    <g transform="matrix(0.048,0,0,0.048,0,0)">
        <path d="M250,40C365.902,40 460,134.098 460,250C460,365.902 365.902,460 250,460C134.098,460 40,365.902 40,250C40,134.098 134.098,40 250,40ZM120.183,268.426C119.961,267.598 119.842,266.728 119.842,265.83C119.842,260.311 124.323,255.83 129.842,255.83L369.842,255.83C375.361,255.83 379.842,260.311 379.842,265.83L380.158,265.83C380.158,337.579 321.907,395.83 250.158,395.83C179.277,395.83 121.569,338.98 120.183,268.426ZM322.702,141.289C342.019,141.289 357.702,156.972 357.702,176.289C357.702,195.606 342.019,211.289 322.702,211.289C303.385,211.289 287.702,195.606 287.702,176.289C287.702,156.972 303.385,141.289 322.702,141.289ZM177.298,141.289C196.615,141.289 212.298,156.972 212.298,176.289C212.298,195.606 196.615,211.289 177.298,211.289C157.981,211.289 142.298,195.606 142.298,176.289C142.298,156.972 157.981,141.289 177.298,141.289Z"/>
    </g>
</svg>
