<?xml version="1.0" encoding="UTF-8" standalone="no"?>
<!DOCTYPE svg PUBLIC "-//W3C//DTD SVG 1.1//EN" "http://www.w3.org/Graphics/SVG/1.1/DTD/svg11.dtd">
<svg width="100%" height="100%" viewBox="0 0 6 6" version="1.1" xmlns="http://www.w3.org/2000/svg" xmlns:xlink="http://www.w3.org/1999/xlink" xml:space="preserve" xmlns:serif="http://www.serif.com/" style="fill-rule:evenodd;clip-rule:evenodd;stroke-linejoin:round;stroke-miterlimit:2;">
    <g transform="matrix(0.24,0,0,0.24,0,0)">
        <g transform="matrix(0.048,0,0,0.048,0,0)">
            <path d="M108.235,469.568L108.235,469.575L390.85,469.575C421.872,469.575 447.059,444.389 447.059,413.366L447.059,220.575L354.641,220.575L354.641,30.425L52.941,30.425L52.941,413.366C52.941,444.085 77.636,469.081 108.235,469.568ZM427.059,240.575L354.641,240.575L354.641,413.366C354.641,433.35 370.865,449.575 390.85,449.575C410.834,449.575 427.059,433.35 427.059,413.366L427.059,240.575ZM188.144,387.425L99.941,387.425L99.941,407.425L188.144,407.425L188.144,387.425ZM299.144,387.425L210.941,387.425L210.941,407.425L299.144,407.425L299.144,387.425ZM188.144,342.425L99.941,342.425L99.941,362.425L188.144,362.425L188.144,342.425ZM299.144,342.425L210.941,342.425L210.941,362.425L299.144,362.425L299.144,342.425ZM188.144,297.425L99.941,297.425L99.941,317.425L188.144,317.425L188.144,297.425ZM299.144,297.425L210.941,297.425L210.941,317.425L299.144,317.425L299.144,297.425ZM188.144,252.425L99.941,252.425L99.941,272.425L188.144,272.425L188.144,252.425ZM299.144,252.425L210.941,252.425L210.941,272.425L299.144,272.425L299.144,252.425ZM188.144,207.425L99.941,207.425L99.941,227.425L188.144,227.425L188.144,207.425ZM299.144,207.425L210.941,207.425L210.941,227.425L299.144,227.425L299.144,207.425ZM299.144,132.425L99.941,132.425L99.941,152.425L299.144,152.425L299.144,132.425ZM299.144,87.425L99.941,87.425L99.941,107.425L299.144,107.425L299.144,87.425Z"/>
        </g>
    </g>
</svg>
