<?xml version="1.0" encoding="UTF-8" standalone="no"?>
<!DOCTYPE svg PUBLIC "-//W3C//DTD SVG 1.1//EN" "http://www.w3.org/Graphics/SVG/1.1/DTD/svg11.dtd">
<svg width="100%" height="100%" viewBox="0 0 24 24" version="1.1" xmlns="http://www.w3.org/2000/svg" xmlns:xlink="http://www.w3.org/1999/xlink" xml:space="preserve" xmlns:serif="http://www.serif.com/" style="fill-rule:evenodd;clip-rule:evenodd;stroke-linejoin:round;stroke-miterlimit:2;">
    <g transform="matrix(0.048,0,0,0.048,-2.07407,-1.28395)">
        <circle cx="250" cy="135.899" r="85"/>
    </g>
    <g transform="matrix(0.048,0,0,0.048,0,0)">
        <path d="M252.738,419.865C237.877,421.497 222.44,422.352 206.79,422.352C113.189,422.352 27.197,397.393 27.197,347.38C27.197,278.406 113.189,212.408 206.79,212.408C248.463,212.408 288.628,225.491 320.366,246.092C272.012,261.584 236.968,306.93 236.968,360.398C236.968,382.028 242.704,402.33 252.738,419.865Z"/>
    </g>
    <g transform="matrix(0.048,0,0,0.048,0,0)">
        <path d="M356.968,260.796C411.94,260.796 456.571,305.426 456.571,360.398C456.571,415.37 411.94,460 356.968,460C301.997,460 257.366,415.37 257.366,360.398C257.366,305.426 301.997,260.796 356.968,260.796ZM371.968,345.398L371.968,305.398C371.968,297.119 365.247,290.398 356.968,290.398C348.69,290.398 341.968,297.119 341.968,305.398L341.968,345.398L301.968,345.398C293.69,345.398 286.968,352.119 286.968,360.398C286.968,368.677 293.69,375.398 301.968,375.398L341.968,375.398L341.968,415.398C341.968,423.677 348.69,430.398 356.968,430.398C365.247,430.398 371.968,423.677 371.968,415.398L371.968,375.398L411.968,375.398C420.247,375.398 426.968,368.677 426.968,360.398C426.968,352.119 420.247,345.398 411.968,345.398L371.968,345.398Z"/>
    </g>
</svg>
