<?xml version="1.0" encoding="UTF-8" standalone="no"?>
<!DOCTYPE svg PUBLIC "-//W3C//DTD SVG 1.1//EN" "http://www.w3.org/Graphics/SVG/1.1/DTD/svg11.dtd">
<svg width="100%" height="100%" viewBox="0 0 24 24" version="1.1" xmlns="http://www.w3.org/2000/svg" xmlns:xlink="http://www.w3.org/1999/xlink" xml:space="preserve" xmlns:serif="http://www.serif.com/" style="fill-rule:evenodd;clip-rule:evenodd;stroke-linejoin:round;stroke-miterlimit:2;">
    <g transform="matrix(0.0283426,-0.0163636,0.0280021,0.048501,1.99038,-0.0865261)">
        <path d="M94.933,56.808C94.933,52.078 88.361,48.237 80.266,48.237C72.171,48.237 65.599,52.078 65.599,56.808L65.599,491.429C65.599,496.16 72.171,500 80.266,500C88.361,500 94.933,496.16 94.933,491.429L94.933,56.808Z"/>
    </g>
    <g transform="matrix(0.048,0,0,0.048,0,0)">
        <path d="M145.18,121.851L185.26,191.272C160.684,210.524 144.883,240.465 144.883,274.068C144.883,332.084 191.984,379.185 250,379.185C263.912,379.185 277.197,376.477 289.349,371.56L320.944,426.284L48.696,426.284C31.894,426.284 18.253,412.643 18.253,395.841L18.253,152.295C18.253,135.493 31.894,121.851 48.696,121.851L145.18,121.851ZM185.114,86.564L195.035,76.643C197.095,74.583 199.833,73.61 202.532,73.725C202.674,73.719 202.817,73.716 202.96,73.716L297.04,73.716C297.193,73.716 297.345,73.719 297.496,73.726C300.205,73.604 302.954,74.576 305.021,76.643L350.229,121.851L451.304,121.851C468.106,121.851 481.747,135.493 481.747,152.295L481.747,395.841C481.747,412.643 468.106,426.284 451.304,426.284L381.252,426.284L331.607,340.298C346.303,322.221 355.117,299.165 355.117,274.068C355.117,216.052 308.016,168.95 250,168.95C244.361,168.95 238.825,169.395 233.431,170.252L185.114,86.564Z"/>
    </g>
</svg>
