<?xml version="1.0" encoding="UTF-8" standalone="no"?>
<!DOCTYPE svg PUBLIC "-//W3C//DTD SVG 1.1//EN" "http://www.w3.org/Graphics/SVG/1.1/DTD/svg11.dtd">
<svg width="100%" height="100%" viewBox="0 0 6 6" version="1.1" xmlns="http://www.w3.org/2000/svg" xmlns:xlink="http://www.w3.org/1999/xlink" xml:space="preserve" xmlns:serif="http://www.serif.com/" style="fill-rule:evenodd;clip-rule:evenodd;stroke-linejoin:round;stroke-miterlimit:2;">
    <g transform="matrix(0.24,0,0,0.24,0,0)">
        <g transform="matrix(0.048,0,0,0.048,-1.36424e-15,0.288311)">
            <path d="M427.373,401.37L72.627,401.37C66.405,401.37 61.353,396.318 61.353,390.096C61.353,381.674 66.418,380.544 71.07,378.822C107.257,365.423 119.511,328.362 119.511,197.412C119.511,33.391 380.489,33.391 380.489,197.412C380.489,328.362 392.743,365.423 428.93,378.822C433.582,380.544 438.647,381.674 438.647,390.096C438.647,396.318 433.595,401.37 427.373,401.37Z"/>
        </g>
        <g transform="matrix(0.048,0,0,0.048,-1.36424e-15,0.372311)">
            <path d="M250,21.91C269.317,21.91 285,37.593 285,56.91C285,76.227 269.317,91.91 250,91.91C230.683,91.91 215,76.227 215,56.91C215,37.593 230.683,21.91 250,21.91ZM250,41.91C258.279,41.91 265,48.631 265,56.91C265,65.189 258.279,71.91 250,71.91C241.721,71.91 235,65.189 235,56.91C235,48.631 241.721,41.91 250,41.91Z"/>
        </g>
        <g transform="matrix(0.048,0,0,0.048,0,0)">
            <path d="M317.819,427.376C305.792,452.761 279.932,470.333 250,470.333C220.068,470.333 194.208,452.761 182.181,427.376L317.819,427.376Z"/>
        </g>
    </g>
</svg>
