<?xml version="1.0" encoding="UTF-8" standalone="no"?>
<!DOCTYPE svg PUBLIC "-//W3C//DTD SVG 1.1//EN" "http://www.w3.org/Graphics/SVG/1.1/DTD/svg11.dtd">
<svg width="100%" height="100%" viewBox="0 0 24 24" version="1.1" xmlns="http://www.w3.org/2000/svg" xmlns:xlink="http://www.w3.org/1999/xlink" xml:space="preserve" xmlns:serif="http://www.serif.com/" style="fill-rule:evenodd;clip-rule:evenodd;stroke-linejoin:round;stroke-miterlimit:2;">
    <g transform="matrix(0.048,0,0,0.048,1.4587,-0.214124)">
        <path d="M432.848,207.385L402.848,207.385L402.848,271.388C402.848,298.984 380.443,321.388 352.848,321.388C325.252,321.388 302.848,298.984 302.848,271.388L302.848,207.385L272.848,207.385L272.848,271.388C272.848,315.541 308.695,351.388 352.848,351.388C397.001,351.388 432.848,315.541 432.848,271.388L432.848,207.385Z"/>
    </g>
    <g transform="matrix(0.048,0,0,0.0389189,0.84079,0.954349)">
        <path d="M465.221,215.885C465.221,205.675 458.5,197.385 450.221,197.385L281.221,197.385C272.942,197.385 266.221,205.675 266.221,215.885C266.221,226.096 272.942,234.385 281.221,234.385L450.221,234.385C458.5,234.385 465.221,226.096 465.221,215.885Z"/>
    </g>
    <g transform="matrix(0.048,0,0,-0.048,1.4587,32.0604)">
        <path d="M432.848,207.385L402.848,207.385L402.848,271.388C402.848,298.984 380.443,321.388 352.848,321.388C325.252,321.388 302.848,298.984 302.848,271.388L302.848,207.385L272.848,207.385L272.848,271.388C272.848,315.541 308.695,351.388 352.848,351.388C397.001,351.388 432.848,315.541 432.848,271.388L432.848,207.385Z"/>
    </g>
    <g transform="matrix(0.048,0,0,-0.0389189,0.84079,30.8919)">
        <path d="M465.221,215.885C465.221,205.675 458.5,197.385 450.221,197.385L281.221,197.385C272.942,197.385 266.221,205.675 266.221,215.885C266.221,226.096 272.942,234.385 281.221,234.385L450.221,234.385C458.5,234.385 465.221,226.096 465.221,215.885Z"/>
    </g>
    <g transform="matrix(0.048,0,0,0.0355305,0.04079,-0.872734)">
        <rect x="330.388" y="424.719" width="104" height="28.82"/>
    </g>
    <g transform="matrix(0.048,0,0,0.0366408,0.04079,5.29582)">
        <rect x="330.388" y="424.719" width="104" height="28.82"/>
    </g>
    <g transform="matrix(2.93915e-18,0.048,-0.0499648,3.05946e-18,40.3364,0.535276)">
        <rect x="330.388" y="424.719" width="104" height="28.82"/>
    </g>
    <g transform="matrix(0.048,0,0,0.048,0,0)">
        <path d="M272.256,483.539C269.7,479.125 268.237,474.001 268.237,468.539C268.237,455.487 276.591,444.37 288.237,440.249L288.237,396.539C288.237,393.084 288.422,389.671 288.783,386.31L186.591,386.31C178.312,386.31 171.591,379.589 171.591,371.31C171.591,363.031 178.312,356.31 186.591,356.31L297.164,356.31C301.411,347.246 307.048,338.961 313.8,331.732C306.808,324.246 301.01,315.624 296.713,306.177L186.591,306.177C178.312,306.177 171.591,299.456 171.591,291.177C171.591,282.899 178.312,276.177 186.591,276.177L288.683,276.177C288.388,273.129 288.237,270.044 288.237,266.925L288.237,226.045L186.591,226.045C178.312,226.045 171.591,219.324 171.591,211.045C171.591,202.766 178.312,196.045 186.591,196.045L268.258,196.045C268.244,195.675 268.237,195.3 268.237,194.925C268.237,178.367 281.68,164.925 298.237,164.925L373.237,164.925L373.237,24.914C373.237,17.599 367.298,11.66 359.983,11.66L42.184,11.66C34.869,11.66 28.93,17.599 28.93,24.914L28.93,470.285C28.93,477.6 34.869,483.539 42.184,483.539L272.256,483.539ZM138.669,371.31C138.669,363.031 131.948,356.31 123.669,356.31L113.889,356.31C105.61,356.31 98.889,363.031 98.889,371.31C98.889,379.589 105.61,386.31 113.889,386.31L123.669,386.31C131.948,386.31 138.669,379.589 138.669,371.31ZM138.669,291.177C138.669,282.899 131.948,276.177 123.669,276.177L113.889,276.177C105.61,276.177 98.889,282.899 98.889,291.177C98.889,299.456 105.61,306.177 113.889,306.177L123.669,306.177C131.948,306.177 138.669,299.456 138.669,291.177ZM138.669,211.045C138.669,202.766 131.948,196.045 123.669,196.045L113.889,196.045C105.61,196.045 98.889,202.766 98.889,211.045C98.889,219.324 105.61,226.045 113.889,226.045L123.669,226.045C131.948,226.045 138.669,219.324 138.669,211.045ZM303.278,106.221C303.278,97.942 296.557,91.221 288.278,91.221L113.889,91.221C105.61,91.221 98.889,97.942 98.889,106.221C98.889,114.5 105.61,121.221 113.889,121.221L288.278,121.221C296.557,121.221 303.278,114.5 303.278,106.221Z"/>
    </g>
</svg>
