<?xml version="1.0" encoding="UTF-8" standalone="no"?>
<!DOCTYPE svg PUBLIC "-//W3C//DTD SVG 1.1//EN" "http://www.w3.org/Graphics/SVG/1.1/DTD/svg11.dtd">
<svg width="100%" height="100%" viewBox="0 0 24 24" version="1.1" xmlns="http://www.w3.org/2000/svg" xmlns:xlink="http://www.w3.org/1999/xlink" xml:space="preserve" xmlns:serif="http://www.serif.com/" style="fill-rule:evenodd;clip-rule:evenodd;stroke-linejoin:round;stroke-miterlimit:2;">
    <g transform="matrix(0.048,0,0,0.048,0,0)">
        <path d="M280.724,404.928C274.724,397.261 270.057,384.595 275.057,370.261C280.057,355.928 293.39,345.595 311.724,345.595C330.057,345.595 376.724,352.928 415.057,328.261C453.39,303.595 472.139,261.107 472.139,226.928C472.139,175.749 449.569,130.107 419.39,99.928C384.351,64.888 334.276,33.265 250,33.265C165.724,33.265 114.587,79.55 78.39,124.595C48.39,161.928 38.328,217.739 38.328,250C38.328,282.261 50.39,341.261 83.057,381.261C115.724,421.261 151.39,449.928 219.057,463.595C262.38,472.345 278.39,460.595 285.39,449.595C297.016,431.326 286.724,412.595 280.724,404.928ZM122.224,178.261C142.92,178.261 159.724,195.065 159.724,215.761C159.724,236.458 142.92,253.261 122.224,253.261C101.527,253.261 84.724,236.458 84.724,215.761C84.724,195.065 101.527,178.261 122.224,178.261ZM388.89,175.956C409.587,175.956 426.39,192.759 426.39,213.456C426.39,234.153 409.587,250.956 388.89,250.956C368.193,250.956 351.39,234.153 351.39,213.456C351.39,192.759 368.193,175.956 388.89,175.956ZM194.89,80.928C215.587,80.928 232.39,97.731 232.39,118.428C232.39,139.125 215.587,155.928 194.89,155.928C174.193,155.928 157.39,139.125 157.39,118.428C157.39,97.731 174.193,80.928 194.89,80.928ZM314.89,80.928C335.587,80.928 352.39,97.731 352.39,118.428C352.39,139.125 335.587,155.928 314.89,155.928C294.193,155.928 277.39,139.125 277.39,118.428C277.39,97.731 294.193,80.928 314.89,80.928Z"/>
    </g>
</svg>
