<?xml version="1.0" encoding="UTF-8" standalone="no"?>
<!DOCTYPE svg PUBLIC "-//W3C//DTD SVG 1.1//EN" "http://www.w3.org/Graphics/SVG/1.1/DTD/svg11.dtd">
<svg width="100%" height="100%" viewBox="0 0 6 6" version="1.1" xmlns="http://www.w3.org/2000/svg" xmlns:xlink="http://www.w3.org/1999/xlink" xml:space="preserve" xmlns:serif="http://www.serif.com/" style="fill-rule:evenodd;clip-rule:evenodd;stroke-linejoin:round;stroke-miterlimit:2;">
    <g transform="matrix(0.24,0,0,0.24,0,0)">
        <g transform="matrix(0.048,0,0,0.048,0,0)">
            <path d="M411.257,33.805C411.257,23.914 403.227,15.884 393.336,15.884L70.753,15.884C60.862,15.884 52.831,23.914 52.831,33.805L52.831,473.101C52.831,482.992 60.862,491.022 70.753,491.022L393.336,491.022C403.227,491.022 411.257,482.992 411.257,473.101L411.257,33.805ZM337.003,417.486L127.086,417.486L127.086,437.486L337.003,437.486L337.003,417.486ZM337.003,378.122L127.086,378.122L127.086,398.122L337.003,398.122L337.003,378.122ZM232.044,72.619C298.282,72.619 352.058,126.395 352.058,192.633C352.058,258.87 298.282,312.646 232.044,312.646C165.807,312.646 112.03,258.87 112.03,192.633C112.03,126.395 165.807,72.619 232.044,72.619ZM289.411,110.735C288.857,113.532 288.014,115.966 286.734,116.992C281.712,121.021 268.881,120.567 257.22,121.078C240.674,121.802 238.608,133.427 240.197,138.506C243.79,149.991 255.436,148.025 264.54,148.379C269.256,148.563 261.551,159.856 255.071,162.466C247.977,165.323 234.87,167.166 223.919,173.323C212.967,179.48 206.243,185.633 207.747,194.406C209.934,207.169 225.744,207.164 237.026,205.641C252.28,203.582 264.859,198.321 272.094,198.321C284.252,198.321 296.948,217.274 306.992,226.273C316.116,234.449 322.641,230.726 325.865,227.291C320.262,242.437 311.092,255.862 299.377,266.541C302.323,259.554 304.72,253.535 306.047,251.413C309.574,245.77 304.283,243.301 298.64,239.775C292.997,236.248 292.177,228.076 285.475,220.669C278.774,213.263 261.731,224.166 251.15,224.166C240.569,224.166 235.687,213.248 220.226,215.717C204.766,218.185 195.011,232.19 201.712,249.471C208.413,266.753 223.99,257.583 233.218,258.289C242.446,258.994 250.562,271.749 251.973,284.093C252.243,286.458 252.757,288.532 253.412,290.34C246.531,291.841 239.379,292.633 232.044,292.633C176.853,292.633 132.044,247.824 132.044,192.633C132.044,185.071 132.885,177.705 134.48,170.619C138.004,169.2 141.679,166.291 144.591,160.679C152.757,144.935 157.803,139.422 176.935,136.016C189.007,133.867 199.622,126.739 201.32,117.546C202.591,110.667 200.12,104.124 196.968,98.968C207.882,94.873 219.703,92.633 232.044,92.633C253.381,92.633 273.166,99.33 289.411,110.735ZM330.826,208.27C330.445,210.697 329.975,213.095 329.422,215.46C327.482,211.269 322.119,209.431 323.845,207.79C324.842,206.842 327.643,207.297 330.826,208.27Z"/>
        </g>
    </g>
</svg>
