<?xml version="1.0" encoding="UTF-8" standalone="no"?>
<!DOCTYPE svg PUBLIC "-//W3C//DTD SVG 1.1//EN" "http://www.w3.org/Graphics/SVG/1.1/DTD/svg11.dtd">
<svg width="100%" height="100%" viewBox="0 0 6 6" version="1.1" xmlns="http://www.w3.org/2000/svg" xmlns:xlink="http://www.w3.org/1999/xlink" xml:space="preserve" xmlns:serif="http://www.serif.com/" style="fill-rule:evenodd;clip-rule:evenodd;stroke-linejoin:round;stroke-miterlimit:2;">
    <g transform="matrix(0.24,0,0,0.24,0,0)">
        <g transform="matrix(0.048,0,0,0.048,0,0)">
            <path d="M482.735,180.442C482.735,154.848 461.956,134.069 436.363,134.069L63.637,134.069C38.044,134.069 17.265,154.848 17.265,180.442L17.265,319.558C17.265,345.152 38.044,365.931 63.637,365.931L436.363,365.931C461.956,365.931 482.735,345.152 482.735,319.558L482.735,180.442ZM202.422,221.79C218.979,221.79 232.422,235.233 232.422,251.79C232.422,268.348 218.979,281.79 202.422,281.79C185.864,281.79 172.422,268.348 172.422,251.79C172.422,235.233 185.864,221.79 202.422,221.79ZM297.578,221.79C314.136,221.79 327.578,235.233 327.578,251.79C327.578,268.348 314.136,281.79 297.578,281.79C281.021,281.79 267.578,268.348 267.578,251.79C267.578,235.233 281.021,221.79 297.578,221.79ZM392.735,221.79C409.292,221.79 422.735,235.233 422.735,251.79C422.735,268.348 409.292,281.79 392.735,281.79C376.177,281.79 362.735,268.348 362.735,251.79C362.735,235.233 376.177,221.79 392.735,221.79ZM107.265,221.79C123.823,221.79 137.265,235.233 137.265,251.79C137.265,268.348 123.823,281.79 107.265,281.79C90.708,281.79 77.265,268.348 77.265,251.79C77.265,235.233 90.708,221.79 107.265,221.79Z"/>
        </g>
    </g>
</svg>
