<?xml version="1.0" encoding="UTF-8" standalone="no"?>
<!DOCTYPE svg PUBLIC "-//W3C//DTD SVG 1.1//EN" "http://www.w3.org/Graphics/SVG/1.1/DTD/svg11.dtd">
<svg width="100%" height="100%" viewBox="0 0 24 24" version="1.1" xmlns="http://www.w3.org/2000/svg" xmlns:xlink="http://www.w3.org/1999/xlink" xml:space="preserve" xmlns:serif="http://www.serif.com/" style="fill-rule:evenodd;clip-rule:evenodd;stroke-linejoin:round;stroke-miterlimit:2;">
    <g transform="matrix(0.048,0,0,0.0338632,2.11043,14.4576)">
        <path d="M426.955,131.687C426.955,119.952 420.233,110.425 411.955,110.425L50.111,110.425C41.832,110.425 35.111,119.952 35.111,131.687C35.111,143.422 41.832,152.949 50.111,152.949L411.955,152.949C420.233,152.949 426.955,143.422 426.955,131.687Z"/>
    </g>
    <g transform="matrix(1.83528e-18,0.0299725,-0.0338632,2.07352e-18,26.3436,6.84006)">
        <path d="M426.955,131.687C426.955,119.952 416.191,110.425 402.933,110.425L59.133,110.425C45.875,110.425 35.111,119.952 35.111,131.687C35.111,143.422 45.875,152.949 59.133,152.949L402.933,152.949C416.191,152.949 426.955,143.422 426.955,131.687Z"/>
    </g>
    <g transform="matrix(0.048,0,0,0.048,0,0)">
        <path d="M405.922,114.425L44.078,114.425C35.799,114.425 29.078,121.147 29.078,129.425L29.078,344.103C29.078,352.382 35.799,359.103 44.078,359.103L405.922,359.103C414.201,359.103 420.922,352.382 420.922,344.103L420.922,129.425C420.922,121.147 414.201,114.425 405.922,114.425ZM225,164.264C265.014,164.264 297.5,196.75 297.5,236.764C297.5,276.778 265.014,309.264 225,309.264C184.986,309.264 152.5,276.778 152.5,236.764C152.5,196.75 184.986,164.264 225,164.264Z"/>
    </g>
</svg>
