<?xml version="1.0" encoding="UTF-8" standalone="no"?>
<!DOCTYPE svg PUBLIC "-//W3C//DTD SVG 1.1//EN" "http://www.w3.org/Graphics/SVG/1.1/DTD/svg11.dtd">
<svg width="100%" height="100%" viewBox="0 0 24 24" version="1.1" xmlns="http://www.w3.org/2000/svg" xmlns:xlink="http://www.w3.org/1999/xlink" xml:space="preserve" xmlns:serif="http://www.serif.com/" style="fill-rule:evenodd;clip-rule:evenodd;stroke-linejoin:round;stroke-miterlimit:2;">
    <g transform="matrix(0.048,0,0,0.048,0,0)">
        <path d="M298.843,141.66C292.029,141.66 286.271,137.107 284.446,130.881L284.438,130.853C284.438,130.853 284.434,130.841 284.434,130.841C284.049,129.514 283.843,128.111 283.843,126.66L283.843,11.66L83.93,11.66C75.651,11.66 68.93,18.381 68.93,26.66L68.93,468.539C68.93,476.818 75.651,483.539 83.93,483.539L398.237,483.539C406.516,483.539 413.237,476.818 413.237,468.539L413.237,141.66L298.843,141.66ZM293.537,298.8C293.53,298.976 293.527,299.155 293.527,299.333L293.527,383.266C293.527,391.545 300.248,398.266 308.527,398.266C316.806,398.266 323.527,391.545 323.527,383.266L323.527,360L342.414,360C350.693,360 357.414,353.279 357.414,345C357.414,336.721 350.693,330 342.414,330L323.527,330L323.527,313.266L353.414,313.266C361.693,313.266 368.414,306.545 368.414,298.266C368.414,289.987 361.693,283.266 353.414,283.266L308.527,283.266C300.248,283.266 293.527,289.987 293.527,298.266C293.527,298.445 293.53,298.623 293.537,298.8ZM218.543,398.265L218.64,398.266L226.027,398.266C257.762,398.266 283.527,372.501 283.527,340.766C283.527,309.031 257.762,283.266 226.027,283.266L218.64,283.266C210.361,283.266 203.64,289.987 203.64,298.266L203.64,383.266C203.64,391.512 210.309,398.213 218.543,398.265ZM128.64,283.8C120.413,283.861 113.753,290.559 113.753,298.8L113.753,382.732C113.753,391.011 120.475,397.732 128.753,397.732C137.032,397.732 143.753,391.011 143.753,382.732L143.753,358.8L156.14,358.8C176.837,358.8 193.64,341.996 193.64,321.3C193.64,300.603 176.837,283.8 156.14,283.8L128.64,283.8L128.64,283.8ZM233.64,314.335L233.64,367.196C245.12,363.891 253.527,353.303 253.527,340.766C253.527,328.229 245.12,317.64 233.64,314.335ZM143.753,328.8L156.14,328.8C160.28,328.8 163.64,325.439 163.64,321.3C163.64,317.16 160.28,313.8 156.14,313.8L143.753,313.8L143.753,328.8ZM404.755,111.66L313.843,111.66L313.843,20.748L404.755,111.66Z"/>
    </g>
</svg>
