<?xml version="1.0" encoding="UTF-8" standalone="no"?>
<!DOCTYPE svg PUBLIC "-//W3C//DTD SVG 1.1//EN" "http://www.w3.org/Graphics/SVG/1.1/DTD/svg11.dtd">
<svg width="100%" height="100%" viewBox="0 0 24 24" version="1.1" xmlns="http://www.w3.org/2000/svg" xmlns:xlink="http://www.w3.org/1999/xlink" xml:space="preserve" xmlns:serif="http://www.serif.com/" style="fill-rule:evenodd;clip-rule:evenodd;stroke-linejoin:round;stroke-miterlimit:2;">
    <g transform="matrix(0.048,0,0,0.048,0.238665,-0.391947)">
        <path d="M180.664,296.959C191.291,282.049 211.386,246.979 247.273,246.904C283.16,246.83 302.374,281.582 313.333,296.959C330.607,321.193 341,309.959 368.333,331.292C387.501,346.253 398.333,385.626 389,419.626C379.667,453.626 357.667,465.626 332.667,465.626C289.816,465.626 279.509,449.626 241.001,449.626C206.485,449.626 191.48,465.626 161.331,465.626C136.331,465.626 114.331,453.626 104.997,419.626C95.664,385.626 106.496,346.253 125.664,331.292C152.997,309.959 163.391,321.193 180.664,296.959Z"/>
    </g>
    <g transform="matrix(0.0477667,0.00472639,-0.00472639,0.0477667,0.965943,-1.85323)">
        <ellipse cx="315.5" cy="128.149" rx="62.5" ry="77.5"/>
    </g>
    <g transform="matrix(0.048,0,0,0.048,0.238665,-0.391947)">
        <path d="M424.223,178.768C452.889,188.752 465.993,226.056 453.468,262.019C440.942,297.982 407.499,319.074 378.833,309.089C350.166,299.105 337.062,261.801 349.588,225.838C362.114,189.875 395.557,168.783 424.223,178.768Z"/>
    </g>
    <g transform="matrix(-0.048,0,0,0.048,23.7613,-0.391947)">
        <path d="M424.223,178.768C452.889,188.752 465.993,226.056 453.468,262.019C440.942,297.982 407.499,319.074 378.833,309.089C350.166,299.105 337.062,261.801 349.588,225.838C362.114,189.875 395.557,168.783 424.223,178.768Z"/>
    </g>
    <g transform="matrix(0.0478972,-0.0031396,0.0031396,0.0478972,-6.85124,0.611767)">
        <ellipse cx="315.5" cy="128.149" rx="62.5" ry="77.5"/>
    </g>
</svg>
