<?xml version="1.0" encoding="UTF-8" standalone="no"?>
<!DOCTYPE svg PUBLIC "-//W3C//DTD SVG 1.1//EN" "http://www.w3.org/Graphics/SVG/1.1/DTD/svg11.dtd">
<svg width="100%" height="100%" viewBox="0 0 6 6" version="1.1" xmlns="http://www.w3.org/2000/svg" xmlns:xlink="http://www.w3.org/1999/xlink" xml:space="preserve" xmlns:serif="http://www.serif.com/" style="fill-rule:evenodd;clip-rule:evenodd;stroke-linejoin:round;stroke-miterlimit:2;">
    <g transform="matrix(0.24,0,0,0.24,0,0)">
        <g transform="matrix(0.048,0,0,0.048,0,0)">
            <path d="M33.677,248.338L33.677,405.476L455.266,405.476L285.986,236.196L220.069,302.113L99.986,182.029L33.677,248.338ZM466.323,388.249L466.323,94.524L33.677,94.524L33.677,220.053L99.986,153.744L220.069,273.828L285.986,207.912L466.323,388.249ZM375.835,134.469C401.568,134.469 422.46,155.361 422.46,181.094C422.46,206.827 401.568,227.719 375.835,227.719C350.102,227.719 329.21,206.827 329.21,181.094C329.21,155.361 350.102,134.469 375.835,134.469Z"/>
        </g>
    </g>
</svg>
