<?xml version="1.0" encoding="UTF-8" standalone="no"?>
<!DOCTYPE svg PUBLIC "-//W3C//DTD SVG 1.1//EN" "http://www.w3.org/Graphics/SVG/1.1/DTD/svg11.dtd">
<svg width="100%" height="100%" viewBox="0 0 6 6" version="1.1" xmlns="http://www.w3.org/2000/svg" xmlns:xlink="http://www.w3.org/1999/xlink" xml:space="preserve" xmlns:serif="http://www.serif.com/" style="fill-rule:evenodd;clip-rule:evenodd;stroke-linejoin:round;stroke-miterlimit:2;">
    <g transform="matrix(0.24,0,0,0.24,0,0)">
        <g transform="matrix(0.048,0,0,0.048,0,0)">
            <path d="M442.635,226.464C486.539,182.56 486.539,111.27 442.635,67.365C398.73,23.461 327.44,23.461 283.536,67.365L77.365,273.536C33.461,317.44 33.461,388.73 77.365,432.635C121.27,476.539 192.56,476.539 236.464,432.635L442.635,226.464ZM334.982,305.833L428.492,212.322C464.592,176.223 464.592,117.607 428.492,81.508C392.393,45.408 333.777,45.408 297.678,81.508L204.167,175.018L290.624,261.476L196.943,355.157C192.78,359.32 192.78,366.08 196.943,370.242C201.105,374.405 207.865,374.405 212.028,370.242L305.709,276.561L334.982,305.833Z"/>
        </g>
    </g>
</svg>
