<?xml version="1.0" encoding="UTF-8" standalone="no"?>
<!DOCTYPE svg PUBLIC "-//W3C//DTD SVG 1.1//EN" "http://www.w3.org/Graphics/SVG/1.1/DTD/svg11.dtd">
<svg width="100%" height="100%" viewBox="0 0 500 500" version="1.1" xmlns="http://www.w3.org/2000/svg" xmlns:xlink="http://www.w3.org/1999/xlink" xml:space="preserve" xmlns:serif="http://www.serif.com/" style="fill-rule:evenodd;clip-rule:evenodd;stroke-linejoin:round;stroke-miterlimit:2;">
    <g transform="matrix(0.707107,0.707107,-0.707107,0.707107,270.095,-137.731)">
        <path d="M171.924,478.892C156.462,478.892 153.424,470.81 153.424,463.392C153.424,451.973 155.642,445.264 172.924,434.392C196.965,419.267 230.174,398.142 230.174,398.142L222.393,277.236C222.393,277.236 90.907,319.491 49.924,333.392C28.674,340.599 25.99,322.034 25.99,311.142C25.99,300.249 31.276,291.653 45.174,280.892C80.803,253.302 217.267,152.945 217.267,151.603C217.267,124.618 210.876,74.399 218.924,48.642C224.434,31.003 242.224,14.479 260,14.575C277.863,14.671 295.712,31.47 301.076,48.642C309.124,74.399 302.733,124.618 302.733,151.603C302.733,152.945 439.197,253.302 474.826,280.892C488.724,291.653 494.01,300.249 494.01,311.142C494.01,322.034 491.326,340.599 470.076,333.392C429.093,319.491 297.607,277.236 297.607,277.236L289.826,398.142C289.826,398.142 323.035,419.267 347.076,434.392C364.358,445.264 366.576,451.973 366.576,463.392C366.576,470.81 363.538,478.892 348.076,478.892L171.924,478.892Z"/>
    </g>
</svg>
