<?xml version="1.0" encoding="UTF-8" standalone="no"?>
<!DOCTYPE svg PUBLIC "-//W3C//DTD SVG 1.1//EN" "http://www.w3.org/Graphics/SVG/1.1/DTD/svg11.dtd">
<svg width="100%" height="100%" viewBox="0 0 6 6" version="1.1" xmlns="http://www.w3.org/2000/svg" xmlns:xlink="http://www.w3.org/1999/xlink" xml:space="preserve" xmlns:serif="http://www.serif.com/" style="fill-rule:evenodd;clip-rule:evenodd;stroke-linejoin:round;stroke-miterlimit:2;">
    <g transform="matrix(0.24,0,0,0.24,0,0)">
        <g transform="matrix(0.048,0,0,0.048,0,0)">
            <path d="M279.386,85.202C281.618,83.886 284.356,83.432 287.054,84.154L459.319,130.313C459.803,130.368 460.29,130.46 460.775,130.59C463.467,131.311 465.608,133.068 466.883,135.317C468.193,137.546 468.644,140.279 467.923,142.971C467.793,143.456 467.629,143.923 467.435,144.37L421.277,316.636C420.554,319.333 418.792,321.477 416.536,322.752C416.474,322.79 416.411,322.827 416.348,322.863L173.887,462.848L173.303,463.161C168.619,465.471 162.875,463.775 160.227,459.188C160.227,459.188 33.074,238.954 33.074,238.954C30.426,234.367 31.83,228.545 36.172,225.644L36.735,225.294C36.735,225.294 279.196,85.309 279.196,85.309C279.259,85.272 279.323,85.237 279.386,85.202ZM162.812,277.349C159.706,260.894 161.279,243.369 168.353,226.824C184.248,189.648 222.908,169.132 261.124,174.578C268.509,175.568 271.161,183.348 268.991,188.423C267.21,192.59 262.925,194.926 258.639,194.426L258.639,194.43C229.049,190.065 199.05,205.903 186.743,234.687C182.295,245.09 180.666,255.995 181.514,266.551L251.989,225.863C256.768,223.103 262.889,224.743 265.649,229.523C268.409,234.303 266.768,240.424 261.989,243.183L186.372,286.841C188.355,291.675 190.896,296.282 193.952,300.555L253.189,266.354C257.969,263.594 264.09,265.234 266.85,270.014C269.609,274.794 267.969,280.915 263.189,283.674L208.399,315.307C212.602,318.445 217.239,321.137 222.271,323.288C256.32,337.847 295.75,322.205 310.605,288.376L310.645,288.392C312.755,281.931 319.012,280.122 324.086,282.292C329.161,284.462 331.519,290.344 329.35,295.418L329.262,295.623C310.276,340.027 258.812,360.664 214.408,341.678C205.172,337.729 196.964,332.375 189.928,325.972L176.171,333.914C171.391,336.674 165.27,335.034 162.511,330.254C159.751,325.474 161.391,319.353 166.171,316.594L176.569,310.591C173.615,306.258 171.061,301.675 168.933,296.909L158.338,303.026C153.558,305.786 147.437,304.146 144.678,299.366C141.918,294.586 143.558,288.465 148.338,285.706L162.812,277.349ZM379.228,165.718C387.592,160.889 398.304,163.759 403.133,172.123C407.962,180.488 405.092,191.2 396.728,196.029C388.363,200.858 377.652,197.988 372.822,189.623C367.993,181.259 370.863,170.547 379.228,165.718Z"/>
        </g>
    </g>
</svg>
