<?xml version="1.0" encoding="UTF-8" standalone="no"?>
<!DOCTYPE svg PUBLIC "-//W3C//DTD SVG 1.1//EN" "http://www.w3.org/Graphics/SVG/1.1/DTD/svg11.dtd">
<svg width="100%" height="100%" viewBox="0 0 24 24" version="1.1" xmlns="http://www.w3.org/2000/svg" xmlns:xlink="http://www.w3.org/1999/xlink" xml:space="preserve" xmlns:serif="http://www.serif.com/" style="fill-rule:evenodd;clip-rule:evenodd;stroke-linejoin:round;stroke-miterlimit:2;">
    <g transform="matrix(0.0282614,-0.0387981,0.0217077,0.0158123,2.43186,25.8493)">
        <path d="M446.015,115.953C446.015,106.088 441.534,98.08 436.015,98.08C430.496,98.08 426.015,106.088 426.015,115.953L426.015,232.127C426.015,241.991 430.496,250 436.015,250C441.534,250 446.015,241.991 446.015,232.127L446.015,115.953Z"/>
    </g>
    <g transform="matrix(0.0387981,0.0282614,-0.0158123,0.0217077,6.54711,-4.75812)">
        <path d="M446.015,115.953C446.015,106.088 441.534,98.08 436.015,98.08C430.496,98.08 426.015,106.088 426.015,115.953L426.015,232.127C426.015,241.991 430.496,250 436.015,250C441.534,250 446.015,241.991 446.015,232.127L446.015,115.953Z"/>
    </g>
    <g transform="matrix(0.048,0,0,0.048,0.216274,-0.288724)">
        <path d="M224.866,446.015C120.003,446.015 34.866,360.879 34.866,256.015C34.866,151.151 120.003,66.015 224.866,66.015C329.73,66.015 414.866,151.151 414.866,256.015C414.866,262.915 394.866,262.93 394.866,256.015C394.866,162.19 318.692,86.015 224.866,86.015C131.041,86.015 54.866,162.19 54.866,256.015C54.866,349.841 131.041,426.015 224.866,426.015C230.386,426.015 234.866,430.496 234.866,436.015C234.866,441.534 230.386,446.015 224.866,446.015Z"/>
    </g>
</svg>
