<?xml version="1.0" encoding="UTF-8" standalone="no"?>
<!DOCTYPE svg PUBLIC "-//W3C//DTD SVG 1.1//EN" "http://www.w3.org/Graphics/SVG/1.1/DTD/svg11.dtd">
<svg width="100%" height="100%" viewBox="0 0 24 24" version="1.1" xmlns="http://www.w3.org/2000/svg" xmlns:xlink="http://www.w3.org/1999/xlink" xml:space="preserve" xmlns:serif="http://www.serif.com/" style="fill-rule:evenodd;clip-rule:evenodd;stroke-linejoin:round;stroke-miterlimit:2;">
    <g transform="matrix(0.0249122,-0.0249122,0.0433881,0.0433881,-5.49833,4.79542)">
        <path d="M257.171,136.245C257.171,131.928 251.066,128.422 243.546,128.422L76.532,128.422C69.012,128.422 62.907,131.928 62.907,136.245C62.907,140.563 69.012,144.068 76.532,144.068L243.546,144.068C251.066,144.068 257.171,140.563 257.171,136.245Z"/>
    </g>
    <g transform="matrix(0.0249147,0.0249147,-0.0433881,0.0433881,6.32434,0.982116)">
        <path d="M257.171,136.245C257.171,131.928 251.067,128.422 243.548,128.422L76.53,128.422C69.012,128.422 62.907,131.928 62.907,136.245C62.907,140.563 69.012,144.068 76.53,144.068L243.548,144.068C251.067,144.068 257.171,140.563 257.171,136.245Z"/>
    </g>
    <g transform="matrix(0.048,0,0,0.048,0,0)">
        <path d="M255.956,193.318C255.742,193.332 255.526,193.339 255.309,193.339L48.328,193.339C42.809,193.339 38.328,188.858 38.328,183.339C38.328,177.82 42.809,173.339 48.328,173.339L255.309,173.339C255.525,173.339 255.739,173.346 255.952,173.359C257.824,173.347 259.729,173.341 261.672,173.341C372.055,173.341 461.672,262.958 461.672,373.341L461.672,403.341C461.672,408.86 457.191,413.341 451.672,413.341C446.153,413.341 441.672,408.86 441.672,403.341L441.672,373.341C441.672,273.996 361.017,193.341 261.672,193.341C259.735,193.341 257.831,193.333 255.956,193.318Z"/>
    </g>
</svg>
