<?xml version="1.0" encoding="UTF-8" standalone="no"?>
<!DOCTYPE svg PUBLIC "-//W3C//DTD SVG 1.1//EN" "http://www.w3.org/Graphics/SVG/1.1/DTD/svg11.dtd">
<svg width="100%" height="100%" viewBox="0 0 6 6" version="1.1" xmlns="http://www.w3.org/2000/svg" xmlns:xlink="http://www.w3.org/1999/xlink" xml:space="preserve" xmlns:serif="http://www.serif.com/" style="fill-rule:evenodd;clip-rule:evenodd;stroke-linejoin:round;stroke-miterlimit:2;">
    <g transform="matrix(0.24,0,0,0.24,0,0)">
        <g transform="matrix(-2.03212e-17,-0.11243,0.06136,-1.14795e-17,3.64,29.9931)">
            <path d="M257.171,136.245C257.171,131.928 255.258,128.422 252.901,128.422L67.177,128.422C64.82,128.422 62.907,131.928 62.907,136.245C62.907,140.563 64.82,144.068 67.177,144.068L252.901,144.068C255.258,144.068 257.171,140.563 257.171,136.245Z"/>
        </g>
        <g transform="matrix(-0.0316062,-0.0316062,0.0433881,-0.0433881,8.41627,30.6797)">
            <path d="M257.171,136.245C257.171,131.928 252.359,128.422 246.432,128.422L73.646,128.422C67.719,128.422 62.907,131.928 62.907,136.245C62.907,140.563 67.719,144.068 73.646,144.068L246.432,144.068C252.359,144.068 257.171,140.563 257.171,136.245Z"/>
        </g>
        <g transform="matrix(0.0316062,-0.0316062,0.0433881,0.0433881,3.76091,18.8568)">
            <path d="M257.171,136.245C257.171,131.928 252.359,128.422 246.432,128.422L73.646,128.422C67.719,128.422 62.907,131.928 62.907,136.245C62.907,140.563 67.719,144.068 73.646,144.068L246.432,144.068C252.359,144.068 257.171,140.563 257.171,136.245Z"/>
        </g>
        <g transform="matrix(0.0316062,0.0316062,-0.0433881,0.0433881,15.5837,-6.67966)">
            <path d="M257.171,136.245C257.171,131.928 252.359,128.422 246.432,128.422L73.646,128.422C67.719,128.422 62.907,131.928 62.907,136.245C62.907,140.563 67.719,144.068 73.646,144.068L246.432,144.068C252.359,144.068 257.171,140.563 257.171,136.245Z"/>
        </g>
        <g transform="matrix(-0.0316062,0.0316062,-0.0433881,-0.0433881,20.2391,5.14317)">
            <path d="M257.171,136.245C257.171,131.928 252.359,128.422 246.432,128.422L73.646,128.422C67.719,128.422 62.907,131.928 62.907,136.245C62.907,140.563 67.719,144.068 73.646,144.068L246.432,144.068C252.359,144.068 257.171,140.563 257.171,136.245Z"/>
        </g>
    </g>
</svg>
