<?xml version="1.0" encoding="UTF-8" standalone="no"?>
<!DOCTYPE svg PUBLIC "-//W3C//DTD SVG 1.1//EN" "http://www.w3.org/Graphics/SVG/1.1/DTD/svg11.dtd">
<svg width="100%" height="100%" viewBox="0 0 6 6" version="1.1" xmlns="http://www.w3.org/2000/svg" xmlns:xlink="http://www.w3.org/1999/xlink" xml:space="preserve" xmlns:serif="http://www.serif.com/" style="fill-rule:evenodd;clip-rule:evenodd;stroke-linejoin:round;stroke-miterlimit:2;">
    <g transform="matrix(0.24,0,0,0.24,0,0)">
        <g transform="matrix(0.028369,0,0,0.0435345,0.323265,1.1261)">
            <path d="M56.285,45.801C56.285,39.715 48.703,34.775 39.365,34.775C30.026,34.775 22.445,39.715 22.445,45.801L22.445,453.753C22.445,459.839 30.026,464.779 39.365,464.779C48.703,464.779 56.285,459.839 56.285,453.753L56.285,45.801Z"/>
        </g>
        <g transform="matrix(0.028369,0,0,0.0435345,21.4433,1.1261)">
            <path d="M56.285,45.801C56.285,39.715 48.703,34.775 39.365,34.775C30.026,34.775 22.445,39.715 22.445,45.801L22.445,453.753C22.445,459.839 30.026,464.779 39.365,464.779C48.703,464.779 56.285,459.839 56.285,453.753L56.285,45.801Z"/>
        </g>
        <g transform="matrix(0.028369,0,0,0.0301392,15.6833,1.59191)">
            <path d="M56.285,50.701C56.285,41.911 48.703,34.775 39.365,34.775C30.026,34.775 22.445,41.911 22.445,50.701L22.445,448.853C22.445,457.643 30.026,464.779 39.365,464.779C48.703,464.779 56.285,457.643 56.285,448.853L56.285,50.701Z"/>
        </g>
        <g transform="matrix(1.7371e-18,0.028369,-0.0513483,3.14418e-18,24.8256,2.00327)">
            <path d="M56.285,44.123C56.285,38.963 48.703,34.775 39.365,34.775C30.026,34.775 22.445,38.963 22.445,44.123L22.445,455.431C22.445,460.59 30.026,464.779 39.365,464.779C48.703,464.779 56.285,460.59 56.285,455.431L56.285,44.123Z"/>
        </g>
        <g transform="matrix(1.7371e-18,0.028369,-0.0513483,3.14418e-18,24.8256,19.7633)">
            <path d="M56.285,44.123C56.285,38.963 48.703,34.775 39.365,34.775C30.026,34.775 22.445,38.963 22.445,44.123L22.445,455.431C22.445,460.59 30.026,464.779 39.365,464.779C48.703,464.779 56.285,460.59 56.285,455.431L56.285,44.123Z"/>
        </g>
        <g transform="matrix(1.7371e-18,0.028369,-0.0379531,2.32396e-18,18.5998,14.0033)">
            <path d="M56.285,47.422C56.285,40.442 48.703,34.775 39.365,34.775C30.026,34.775 22.445,40.442 22.445,47.422L22.445,452.132C22.445,459.112 30.026,464.779 39.365,464.779C48.703,464.779 56.285,459.112 56.285,452.132L56.285,47.422Z"/>
        </g>
        <g transform="matrix(0.048,0,0,0.048,0,0)">
            <path d="M230,55C224.481,55 30,65 30,65C30,65 24.481,205 30,205L230,205C232.063,205 233.981,204.374 235.574,203.302L235.595,203.288C238.252,201.489 240,198.447 240,195L240,65C240,59.481 235.519,55 230,55Z"/>
        </g>
    </g>
</svg>
