<?xml version="1.0" encoding="UTF-8" standalone="no"?>
<!DOCTYPE svg PUBLIC "-//W3C//DTD SVG 1.1//EN" "http://www.w3.org/Graphics/SVG/1.1/DTD/svg11.dtd">
<svg width="100%" height="100%" viewBox="0 0 120 120" version="1.1" xmlns="http://www.w3.org/2000/svg" xmlns:xlink="http://www.w3.org/1999/xlink" xml:space="preserve" xmlns:serif="http://www.serif.com/" style="fill-rule:evenodd;clip-rule:evenodd;stroke-linejoin:round;stroke-miterlimit:2;">
    <g transform="matrix(0.24,0,0,0.24,0,0)">
        <g transform="matrix(-1,-1.22465e-16,1.22465e-16,-1,606.028,500)">
            <path d="M134.734,94.016C134.296,91.414 134.881,88.644 136.585,86.366C139.891,81.946 146.163,81.041 150.582,84.347L360.712,241.501C361.731,242.137 362.652,242.97 363.415,243.99C364.764,245.794 365.412,247.906 365.405,250C365.412,252.094 364.764,254.206 363.415,256.01C362.652,257.03 361.731,257.863 360.712,258.499L150.582,415.653C148.786,416.997 146.683,417.645 144.598,417.644L144.594,417.644C143.298,417.64 142.018,417.391 140.816,416.904L140.796,416.896C139.176,416.233 137.709,415.137 136.585,413.634C135.241,411.837 134.593,409.734 134.594,407.649L134.594,407.644L134.594,95.689C134.594,95.119 134.642,94.56 134.734,94.016Z"/>
        </g>
        <g transform="matrix(-1,-1.22465e-16,1.22465e-16,-1,393.972,500)">
            <path d="M134.734,94.016C134.296,91.414 134.881,88.644 136.585,86.366C139.891,81.946 146.163,81.041 150.582,84.347L360.712,241.501C361.731,242.137 362.652,242.97 363.415,243.99C364.764,245.794 365.412,247.906 365.405,250C365.412,252.094 364.764,254.206 363.415,256.01C362.652,257.03 361.731,257.863 360.712,258.499L150.582,415.653C148.786,416.997 146.683,417.645 144.598,417.644L144.594,417.644C143.298,417.64 142.018,417.391 140.816,416.904L140.796,416.896C139.176,416.233 137.709,415.137 136.585,413.634C135.241,411.837 134.593,409.734 134.594,407.649L134.594,407.644L134.594,95.689C134.594,95.119 134.642,94.56 134.734,94.016Z"/>
        </g>
    </g>
</svg>
