<?xml version="1.0" encoding="UTF-8" standalone="no"?>
<!DOCTYPE svg PUBLIC "-//W3C//DTD SVG 1.1//EN" "http://www.w3.org/Graphics/SVG/1.1/DTD/svg11.dtd">
<svg width="100%" height="100%" viewBox="0 0 24 24" version="1.1" xmlns="http://www.w3.org/2000/svg" xmlns:xlink="http://www.w3.org/1999/xlink" xml:space="preserve" xmlns:serif="http://www.serif.com/" style="fill-rule:evenodd;clip-rule:evenodd;stroke-linejoin:round;stroke-miterlimit:2;">
    <g transform="matrix(0.048,0,0,0.048,0,0)">
        <path d="M165.76,180.034C156.029,164.815 150.386,146.732 150.386,127.341C150.386,73.246 194.304,29.328 248.399,29.328C302.494,29.328 346.413,73.246 346.413,127.341C346.413,146.738 340.766,164.826 331.031,180.047L261.765,300.02C258.924,304.94 253.71,307.642 248.399,307.516C243.089,307.642 237.874,304.94 235.034,300.02L165.76,180.034ZM249.004,82.946C273.84,82.946 294.004,103.11 294.004,127.946C294.004,152.782 273.84,172.946 249.004,172.946C224.168,172.946 204.004,152.782 204.004,127.946C204.004,103.11 224.168,82.946 249.004,82.946Z"/>
    </g>
    <g transform="matrix(0.048,0,0,0.048,-0.0768311,-0.103104)">
        <circle cx="76.601" cy="422.82" r="50"/>
    </g>
    <g transform="matrix(0.048,0,0,0.048,16.7232,-2.5031)">
        <path d="M76.601,372.82C104.196,372.82 126.601,395.224 126.601,422.82C126.601,450.416 104.196,472.82 76.601,472.82C49.005,472.82 26.601,450.416 26.601,422.82C26.601,395.224 49.005,372.82 76.601,372.82ZM76.601,402.82C87.639,402.82 96.601,411.782 96.601,422.82C96.601,433.858 87.639,442.82 76.601,442.82C65.562,442.82 56.601,433.858 56.601,422.82C56.601,411.782 65.562,402.82 76.601,402.82Z"/>
    </g>
    <g transform="matrix(0.048,0,0,0.048,-0.0768311,-0.103104)">
        <path d="M430.154,400.82C416.17,424.144 390.641,439.768 361.491,439.768L114.601,439.768C106.322,439.768 99.601,433.047 99.601,424.768C99.601,416.49 106.322,409.768 114.601,409.768L361.491,408.987C371.596,408.987 381.006,405.982 388.871,400.82L430.154,400.82ZM409.452,344.82C403.336,324.114 384.166,308.987 361.491,308.987L250.605,309.768C250.554,309.768 250.505,309.768 250.455,309.768C242.176,309.768 235.455,303.047 235.455,294.768C235.455,286.695 241.847,280.103 249.843,279.781L249.842,279.768L361.491,279.768C400.535,279.768 433.085,307.8 440.094,344.82L409.452,344.82Z"/>
    </g>
</svg>
