<?xml version="1.0" encoding="UTF-8" standalone="no"?>
<!DOCTYPE svg PUBLIC "-//W3C//DTD SVG 1.1//EN" "http://www.w3.org/Graphics/SVG/1.1/DTD/svg11.dtd">
<svg width="100%" height="100%" viewBox="0 0 6 6" version="1.1" xmlns="http://www.w3.org/2000/svg" xmlns:xlink="http://www.w3.org/1999/xlink" xml:space="preserve" xmlns:serif="http://www.serif.com/" style="fill-rule:evenodd;clip-rule:evenodd;stroke-linejoin:round;stroke-miterlimit:2;">
    <g transform="matrix(0.24,0,0,0.24,0,0)">
        <g transform="matrix(0.0415692,-0.024,0.024,0.0415692,-4.3923,7.6077)">
            <path d="M74.429,332.5L74.429,230.972L94.429,230.972L94.429,332.5L129.679,332.5L129.679,264.544L149.679,264.544L149.679,332.5L184.929,332.5L184.929,264.544L204.929,264.544L204.929,332.5L240.179,332.5L240.179,230.972L260.179,230.972L260.179,332.5L295.429,332.5L295.429,264.544L315.429,264.544L315.429,332.5L350.679,332.5L350.679,264.544L370.679,264.544L370.679,332.5L405.929,332.5L405.929,230.972L425.929,230.972L425.929,332.5L480.5,332.5L480.5,167.5L19.5,167.5L19.5,332.5L74.429,332.5Z"/>
        </g>
    </g>
</svg>
