<?xml version="1.0" encoding="UTF-8" standalone="no"?>
<!DOCTYPE svg PUBLIC "-//W3C//DTD SVG 1.1//EN" "http://www.w3.org/Graphics/SVG/1.1/DTD/svg11.dtd">
<svg width="100%" height="100%" viewBox="0 0 24 24" version="1.1" xmlns="http://www.w3.org/2000/svg" xmlns:xlink="http://www.w3.org/1999/xlink" xml:space="preserve" xmlns:serif="http://www.serif.com/" style="fill-rule:evenodd;clip-rule:evenodd;stroke-linejoin:round;stroke-miterlimit:2;">
    <g transform="matrix(0.048,0,0,0.048,0,0)">
        <path d="M331.237,198.039C405.746,198.039 466.237,258.531 466.237,333.039C466.237,407.548 405.746,468.039 331.237,468.039C256.729,468.039 196.237,407.548 196.237,333.039C196.237,258.531 256.729,198.039 331.237,198.039ZM296.101,388.331C301.955,394.185 311.461,394.185 317.314,388.331L406.684,298.961C412.538,293.107 412.538,283.602 406.684,277.748C400.83,271.894 391.325,271.894 385.471,277.748L306.708,356.511L272.629,322.433C266.776,316.579 257.27,316.579 251.416,322.433C245.562,328.287 245.562,337.792 251.416,343.646L296.101,388.331Z"/>
    </g>
    <g transform="matrix(0.048,0,0,0.048,0,0)">
        <path d="M331.237,483.039C344.533,483.039 43.94,483.539 43.94,483.539C35.656,483.539 28.93,476.813 28.93,468.529L28.93,26.67C28.93,18.386 35.656,11.66 43.94,11.66L358.104,11.66C366.388,11.66 373.114,18.386 373.114,26.67L373.114,188.973C359.816,185.11 345.766,183.039 331.237,183.039C309.464,183.039 288.768,187.688 270.096,196.045L176.591,196.045C168.312,196.045 161.591,202.766 161.591,211.045C161.591,219.324 168.312,226.045 176.591,226.045L226.151,226.045C211.752,240.187 200.19,257.212 192.408,276.177L176.591,276.177C168.312,276.177 161.591,282.899 161.591,291.177C161.591,299.456 168.312,306.177 176.591,306.177L183.641,306.177C182.061,314.901 181.237,323.875 181.237,333.039C181.237,340.954 181.852,348.726 183.036,356.31L176.591,356.31C168.312,356.31 161.591,363.031 161.591,371.31C161.591,379.589 168.312,386.31 176.591,386.31L190.987,386.31C212.498,442.836 267.21,483.039 331.237,483.039ZM138.669,371.31C138.669,363.031 131.948,356.31 123.669,356.31L113.889,356.31C105.61,356.31 98.889,363.031 98.889,371.31C98.889,379.589 105.61,386.31 113.889,386.31L123.669,386.31C131.948,386.31 138.669,379.589 138.669,371.31ZM138.669,291.177C138.669,282.899 131.948,276.177 123.669,276.177L113.889,276.177C105.61,276.177 98.889,282.899 98.889,291.177C98.889,299.456 105.61,306.177 113.889,306.177L123.669,306.177C131.948,306.177 138.669,299.456 138.669,291.177ZM138.669,211.045C138.669,202.766 131.948,196.045 123.669,196.045L113.889,196.045C105.61,196.045 98.889,202.766 98.889,211.045C98.889,219.324 105.61,226.045 113.889,226.045L123.669,226.045C131.948,226.045 138.669,219.324 138.669,211.045ZM303.278,106.221C303.278,97.942 296.557,91.221 288.278,91.221L113.889,91.221C105.61,91.221 98.889,97.942 98.889,106.221C98.889,114.5 105.61,121.221 113.889,121.221L288.278,121.221C296.557,121.221 303.278,114.5 303.278,106.221Z"/>
    </g>
</svg>
