<?xml version="1.0" encoding="UTF-8" standalone="no"?>
<!DOCTYPE svg PUBLIC "-//W3C//DTD SVG 1.1//EN" "http://www.w3.org/Graphics/SVG/1.1/DTD/svg11.dtd">
<svg width="100%" height="100%" viewBox="0 0 6 6" version="1.1" xmlns="http://www.w3.org/2000/svg" xmlns:xlink="http://www.w3.org/1999/xlink" xml:space="preserve" xmlns:serif="http://www.serif.com/" style="fill-rule:evenodd;clip-rule:evenodd;stroke-linejoin:round;stroke-miterlimit:2;">
    <g transform="matrix(0.24,0,0,0.24,0,0)">
        <g transform="matrix(0.048,0,0,0.048,0,0)">
            <path d="M90.171,90.171C162.37,17.972 279.602,17.972 351.801,90.171C423.999,162.37 423.999,279.602 351.801,351.801C279.602,423.999 162.37,423.999 90.171,351.801C17.972,279.602 17.972,162.37 90.171,90.171ZM134.159,134.159C182.08,86.237 259.892,86.237 307.813,134.159C355.734,182.08 355.734,259.892 307.813,307.813C259.892,355.734 182.08,355.734 134.159,307.813C86.237,259.892 86.237,182.08 134.159,134.159Z"/>
        </g>
        <g transform="matrix(0.0591729,-0.0591729,0.0404687,0.0404687,-15.8603,22.8355)">
            <path d="M344.101,315.699C344.101,301.531 336.234,290.028 326.545,290.028C316.855,290.028 308.989,301.531 308.989,315.699L308.989,435.004C308.989,449.172 316.855,460.674 326.545,460.674C336.234,460.674 344.101,449.172 344.101,435.004L344.101,315.699Z"/>
        </g>
    </g>
</svg>
