<?xml version="1.0" encoding="UTF-8" standalone="no"?>
<!DOCTYPE svg PUBLIC "-//W3C//DTD SVG 1.1//EN" "http://www.w3.org/Graphics/SVG/1.1/DTD/svg11.dtd">
<svg width="100%" height="100%" viewBox="0 0 6 6" version="1.1" xmlns="http://www.w3.org/2000/svg" xmlns:xlink="http://www.w3.org/1999/xlink" xml:space="preserve" xmlns:serif="http://www.serif.com/" style="fill-rule:evenodd;clip-rule:evenodd;stroke-linejoin:round;stroke-miterlimit:2;">
    <g transform="matrix(0.24,0,0,0.24,0,0)">
        <g transform="matrix(0.048,0,0,0.048,0,0)">
            <path d="M250,390.751C119.773,390.751 14.045,295.281 14.045,250C14.045,204.719 119.773,109.249 250,109.249L250.763,109.25C380.65,109.63 485.955,204.81 485.955,250C485.955,295.281 380.227,390.751 250,390.751ZM251.333,132.218C317.075,132.218 370.449,185.592 370.449,251.333C370.449,317.075 317.075,370.449 251.333,370.449C185.592,370.449 132.218,317.075 132.218,251.333C132.218,185.592 185.592,132.218 251.333,132.218Z"/>
        </g>
        <g transform="matrix(0.048,0,0,0.048,0,0)">
            <circle cx="251.333" cy="251.333" r="34.333"/>
        </g>
    </g>
</svg>
