<?xml version="1.0" encoding="UTF-8" standalone="no"?>
<!DOCTYPE svg PUBLIC "-//W3C//DTD SVG 1.1//EN" "http://www.w3.org/Graphics/SVG/1.1/DTD/svg11.dtd">
<svg width="100%" height="100%" viewBox="0 0 24 24" version="1.1" xmlns="http://www.w3.org/2000/svg" xmlns:xlink="http://www.w3.org/1999/xlink" xml:space="preserve" xmlns:serif="http://www.serif.com/" style="fill-rule:evenodd;clip-rule:evenodd;stroke-linejoin:round;stroke-miterlimit:2;">
    <g transform="matrix(0.048,0,0,0.048,0,0)">
        <path d="M300.19,43.285C267.209,35.273 232.791,35.273 199.81,43.285L193.157,85.131C172.07,92.406 152.575,103.662 135.731,118.287L96.164,103.125C72.736,127.681 55.526,157.489 45.974,190.056L78.888,216.741C74.645,238.641 74.645,261.152 78.888,283.052L45.974,309.736C55.526,342.304 72.736,372.112 96.164,396.668L135.731,381.506C152.575,396.131 172.07,407.386 193.157,414.661L199.81,456.508C232.791,464.519 267.209,464.519 300.19,456.508L306.843,414.661C327.93,407.386 347.425,396.131 364.269,381.506L403.836,396.668C427.264,372.112 444.474,342.304 454.026,309.736L421.112,283.052C425.355,261.152 425.355,238.641 421.112,216.741L454.026,190.056C444.474,157.489 427.264,127.681 403.836,103.125L364.269,118.287C347.425,103.662 327.93,92.406 306.843,85.131L300.19,43.285ZM250,154.718C302.53,154.718 345.178,197.366 345.178,249.896C345.178,302.426 302.53,345.074 250,345.074C197.47,345.074 154.822,302.426 154.822,249.896C154.822,197.366 197.47,154.718 250,154.718Z"/>
    </g>
</svg>
