<?xml version="1.0" encoding="UTF-8" standalone="no"?>
<!DOCTYPE svg PUBLIC "-//W3C//DTD SVG 1.1//EN" "http://www.w3.org/Graphics/SVG/1.1/DTD/svg11.dtd">
<svg width="100%" height="100%" viewBox="0 0 24 24" version="1.1" xmlns="http://www.w3.org/2000/svg" xmlns:xlink="http://www.w3.org/1999/xlink" xml:space="preserve" xmlns:serif="http://www.serif.com/" style="fill-rule:evenodd;clip-rule:evenodd;stroke-linejoin:round;stroke-miterlimit:2;">
    <g transform="matrix(0.048,0,0,0.048,0,0)">
        <path d="M368.174,362.708C394.39,362.708 415.674,383.992 415.674,410.208C415.674,436.424 394.39,457.708 368.174,457.708C341.958,457.708 320.674,436.424 320.674,410.208C320.674,383.992 341.958,362.708 368.174,362.708ZM368.174,392.708C377.832,392.708 385.674,400.55 385.674,410.208C385.674,419.867 377.832,427.708 368.174,427.708C358.515,427.708 350.674,419.867 350.674,410.208C350.674,400.55 358.515,392.708 368.174,392.708Z"/>
    </g>
    <g transform="matrix(0.048,0,0,0.048,-8.60377,0)">
        <path d="M368.174,362.708C394.39,362.708 415.674,383.992 415.674,410.208C415.674,436.424 394.39,457.708 368.174,457.708C341.958,457.708 320.674,436.424 320.674,410.208C320.674,383.992 341.958,362.708 368.174,362.708ZM368.174,392.708C377.832,392.708 385.674,400.55 385.674,410.208C385.674,419.867 377.832,427.708 368.174,427.708C358.515,427.708 350.674,419.867 350.674,410.208C350.674,400.55 358.515,392.708 368.174,392.708Z"/>
    </g>
    <g transform="matrix(0.048,0,0,0.048,0,0)">
        <path d="M101.951,85.588L40.805,85.588C32.526,85.588 25.805,78.867 25.805,70.588C25.805,62.309 32.526,55.588 40.805,55.588L113.258,55.588C113.529,55.588 113.798,55.595 114.066,55.609C121.683,55.201 128.519,60.648 129.684,68.345L139.273,131.72L454.136,131.72C462.415,131.72 469.136,138.441 469.136,146.72C469.136,148.567 468.801,150.336 468.189,151.971C468.153,152.112 468.115,152.253 468.074,152.394L415.358,335.061C413.453,341.659 407.403,345.945 400.855,345.904C400.821,345.905 400.787,345.905 400.753,345.905L156.512,345.905C148.326,347.143 140.675,341.503 139.437,333.318L101.951,85.588Z"/>
    </g>
</svg>
