<?xml version="1.0" encoding="UTF-8" standalone="no"?>
<!DOCTYPE svg PUBLIC "-//W3C//DTD SVG 1.1//EN" "http://www.w3.org/Graphics/SVG/1.1/DTD/svg11.dtd">
<svg width="100%" height="100%" viewBox="0 0 24 24" version="1.1" xmlns="http://www.w3.org/2000/svg" xmlns:xlink="http://www.w3.org/1999/xlink" xml:space="preserve" xmlns:serif="http://www.serif.com/" style="fill-rule:evenodd;clip-rule:evenodd;stroke-linejoin:round;stroke-miterlimit:2;">
    <g transform="matrix(0.048,0,0,0.048,0,0)">
        <path d="M107.194,156.505C108.864,148.583 116.567,143.382 124.579,144.853L375.421,144.853C383.433,143.382 391.136,148.583 392.806,156.505C392.89,156.874 392.961,157.247 393.017,157.626L446.886,451.036C447.086,452.003 447.194,453.003 447.198,454.027L447.198,454.091L447.198,454.127L447.198,454.19C447.196,454.491 447.185,454.79 447.165,455.088C446.88,459.424 444.749,463.259 441.553,465.814L441.527,465.834L441.506,465.851C441.107,466.168 440.69,466.466 440.256,466.742C437.942,468.22 435.198,469.08 432.255,469.091L432.198,469.091L67.802,469.091L67.745,469.091C64.801,469.08 62.056,468.219 59.744,466.742C59.311,466.466 58.893,466.168 58.494,465.851L58.463,465.827L58.447,465.814C55.25,463.258 53.119,459.423 52.835,455.088C52.815,454.79 52.804,454.491 52.802,454.19L52.802,454.127L52.802,454.091L52.802,454.027C52.806,453.003 52.914,452.002 53.114,451.036L106.983,157.626C107.039,157.247 107.11,156.873 107.194,156.505Z"/>
    </g>
    <g transform="matrix(0.048,0,0,0.048,2.72848e-15,-0.0307819)">
        <path d="M175,160.494L205,160.494L205,106.55C205,81.714 225.164,61.55 250,61.55C274.836,61.55 295,81.714 295,106.55L295,160.494L325,160.494L325,106.55C325,65.156 291.394,31.55 250,31.55C208.606,31.55 175,65.156 175,106.55L175,160.494Z"/>
    </g>
</svg>
