<?xml version="1.0" encoding="UTF-8" standalone="no"?>
<!DOCTYPE svg PUBLIC "-//W3C//DTD SVG 1.1//EN" "http://www.w3.org/Graphics/SVG/1.1/DTD/svg11.dtd">
<svg width="100%" height="100%" viewBox="0 0 24 24" version="1.1" xmlns="http://www.w3.org/2000/svg" xmlns:xlink="http://www.w3.org/1999/xlink" xml:space="preserve" xmlns:serif="http://www.serif.com/" style="fill-rule:evenodd;clip-rule:evenodd;stroke-linejoin:round;stroke-miterlimit:2;">
    <g transform="matrix(9.36669e-18,0.048,0.0524702,-9.23836e-18,-0.13379,5.00691e-15)">
        <path d="M417.644,341.399C417.644,333.826 410.923,327.677 402.644,327.677L97.356,327.677C89.077,327.677 82.356,333.826 82.356,341.399C82.356,348.972 89.077,355.121 97.356,355.121L402.644,355.121C410.923,355.121 417.644,348.972 417.644,341.399Z"/>
    </g>
    <g transform="matrix(0.048,0,0,0.048,0,0)">
        <path d="M121.594,402.291L121.594,97.356C121.594,89.077 128.315,82.356 136.594,82.356C136.696,82.356 136.797,82.357 136.9,82.359C140.131,82.294 143.408,83.268 146.192,85.357L347.739,236.604C349.511,237.595 351.109,238.963 352.405,240.689C354.449,243.414 355.425,246.61 355.405,249.775C355.425,252.939 354.449,256.135 352.405,258.86C351.109,260.587 349.511,261.954 347.739,262.945L145.678,414.578C143.642,416.131 141.198,417.174 138.536,417.519L138.503,417.523L138.427,417.533L138.337,417.544L138.247,417.554L138.218,417.557C137.71,417.612 137.201,417.641 136.692,417.644L136.625,417.644L136.594,417.644L136.535,417.644L136.526,417.644C134.828,417.636 133.197,417.346 131.677,416.818C128.944,415.875 126.454,414.134 124.59,411.649C122.487,408.847 121.514,405.545 121.594,402.291Z"/>
    </g>
</svg>
