<?xml version="1.0" encoding="UTF-8" standalone="no"?>
<!DOCTYPE svg PUBLIC "-//W3C//DTD SVG 1.1//EN" "http://www.w3.org/Graphics/SVG/1.1/DTD/svg11.dtd">
<svg width="100%" height="100%" viewBox="0 0 24 24" version="1.1" xmlns="http://www.w3.org/2000/svg" xmlns:xlink="http://www.w3.org/1999/xlink" xml:space="preserve" xmlns:serif="http://www.serif.com/" style="fill-rule:evenodd;clip-rule:evenodd;stroke-linejoin:round;stroke-miterlimit:2;">
    <g transform="matrix(-9.36669e-18,0.048,-0.0524702,-9.23836e-18,24.3017,-7.61841e-10)">
        <path d="M417.644,341.399C417.644,333.826 410.923,327.677 402.644,327.677L97.356,327.677C89.077,327.677 82.356,333.826 82.356,341.399C82.356,348.972 89.077,355.121 97.356,355.121L402.644,355.121C410.923,355.121 417.644,348.972 417.644,341.399Z"/>
    </g>
    <g transform="matrix(0.048,0,0,0.048,0,0)">
        <path d="M366.598,82.359C366.7,82.357 366.802,82.356 366.904,82.356C375.182,82.356 381.904,89.077 381.904,97.356L381.904,402.291C381.983,405.545 381.01,408.847 378.908,411.649C377.043,414.134 374.554,415.875 371.82,416.818C370.3,417.346 368.669,417.636 366.972,417.644L366.904,417.644L366.873,417.644L366.805,417.644C366.296,417.641 365.787,417.612 365.279,417.557L365.25,417.554L365.16,417.544L365.088,417.535L365.07,417.533L364.994,417.523L364.961,417.519C362.3,417.174 359.856,416.131 357.82,414.578L155.758,262.945C153.986,261.954 152.388,260.587 151.092,258.86C149.048,256.135 148.072,252.939 148.092,249.775C148.072,246.61 149.048,243.414 151.092,240.689C152.388,238.963 153.986,237.595 155.758,236.604L357.306,85.357C360.089,83.268 363.366,82.294 366.598,82.359Z"/>
    </g>
</svg>
