<?xml version="1.0" encoding="UTF-8" standalone="no"?>
<!DOCTYPE svg PUBLIC "-//W3C//DTD SVG 1.1//EN" "http://www.w3.org/Graphics/SVG/1.1/DTD/svg11.dtd">
<svg width="100%" height="100%" viewBox="0 0 24 24" version="1.1" xmlns="http://www.w3.org/2000/svg" xmlns:xlink="http://www.w3.org/1999/xlink" xml:space="preserve" xmlns:serif="http://www.serif.com/" style="fill-rule:evenodd;clip-rule:evenodd;stroke-linejoin:round;stroke-miterlimit:2;">
    <g transform="matrix(0.048,0,0,0.048,0,0)">
        <path d="M115.492,173.197L259.191,44.803C261.801,42.471 265.004,41.22 268.248,41.02C269.03,40.894 269.832,40.829 270.649,40.829L296.829,40.829C300.437,40.829 303.75,42.106 306.339,44.232L306.368,44.256C309.702,47.008 311.829,51.172 311.829,55.829L311.829,444.171C311.829,448.828 309.702,452.992 306.368,455.744L306.339,455.768C303.75,457.894 300.437,459.171 296.829,459.171L270.649,459.171C269.832,459.171 269.03,459.106 268.248,458.98C265.004,458.78 261.801,457.529 259.191,455.197L115.492,326.803L115.492,173.197ZM85.492,320.492L27.671,320.492C26.84,320.492 26.025,320.424 25.23,320.294L25.187,320.286C18.089,319.102 12.671,312.924 12.671,305.492L12.671,194.171C12.671,186.739 18.089,180.562 25.187,179.377L25.23,179.37C26.025,179.239 26.84,179.171 27.671,179.171L85.492,179.171L85.492,320.492Z"/>
    </g>
    <g transform="matrix(0.048,0,0,0.048,-0.0431463,-0.248087)">
        <path d="M338.131,340.165C329.896,340.113 323.228,333.412 323.228,325.166C323.228,316.887 329.949,310.166 338.228,310.166L338.421,310.164C371.298,309.876 397.894,283.103 397.894,250.167C397.894,217.164 371.192,190.35 338.228,190.168L338.228,190.167C329.949,190.167 323.228,183.445 323.228,175.167C323.228,166.888 329.949,160.167 338.228,160.167C338.318,160.167 338.408,160.167 338.498,160.169C387.888,160.489 427.894,200.693 427.894,250.167C427.894,299.685 387.816,339.917 338.368,340.165L338.324,340.165L338.228,340.166L338.131,340.165Z"/>
    </g>
    <g transform="matrix(0.048,0,0,0.048,-0.0431463,-0.248087)">
        <path d="M338.131,400.5C329.896,400.448 323.228,393.746 323.228,385.5C323.228,377.221 329.949,370.5 338.228,370.5L338.615,370.499C404.672,370.285 458.228,316.597 458.228,250.5C458.228,184.27 404.457,130.5 338.228,130.5L338.131,130.5C329.896,130.448 323.228,123.746 323.228,115.5C323.228,107.221 329.949,100.5 338.228,100.5L338.712,100.501C421.283,100.769 488.228,167.878 488.228,250.5C488.228,333.287 421.015,400.5 338.228,400.5L338.131,400.5Z"/>
    </g>
</svg>
