<?xml version="1.0" encoding="UTF-8" standalone="no"?>
<!DOCTYPE svg PUBLIC "-//W3C//DTD SVG 1.1//EN" "http://www.w3.org/Graphics/SVG/1.1/DTD/svg11.dtd">
<svg width="100%" height="100%" viewBox="0 0 24 24" version="1.1" xmlns="http://www.w3.org/2000/svg" xmlns:xlink="http://www.w3.org/1999/xlink" xml:space="preserve" xmlns:serif="http://www.serif.com/" style="fill-rule:evenodd;clip-rule:evenodd;stroke-linejoin:round;stroke-miterlimit:2;">
    <g transform="matrix(0.048,0,0,0.048,0,0)">
        <path d="M232.797,102.585L232.797,140.559C237.747,140.176 242.75,139.981 247.797,139.981C252.844,139.981 257.846,140.176 262.797,140.559L262.797,102.585C281.511,103.792 299.618,107.241 316.839,112.663L302.273,147.827C311.954,150.689 321.316,154.292 330.294,158.573L344.808,123.533C361.8,131.458 377.665,141.398 392.088,153.039L365.125,180.002C373.061,186.135 380.508,192.878 387.393,200.159L414.182,173.371C427.338,187.156 438.801,202.573 448.233,219.283L412.927,233.908C418.045,242.488 422.508,251.492 426.254,260.859L461.258,246.36C468.521,264.405 473.561,283.58 476.038,303.543L437.806,303.543C439.197,312.865 439.918,322.4 439.918,332.102C439.918,332.58 439.916,333.056 439.913,333.543L270.251,333.543C270.281,333.067 270.297,332.587 270.297,332.102C270.297,329.964 269.998,327.895 269.44,325.936L329.421,231.043C333.844,224.045 331.754,214.772 324.756,210.349C317.758,205.926 308.485,208.016 304.062,215.014L244.08,309.909C233.429,311.681 225.297,320.95 225.297,332.102C225.297,332.587 225.312,333.067 225.342,333.543L17.801,333.543L55.681,333.543C55.677,333.056 55.676,332.58 55.676,332.102C55.676,322.4 56.396,312.865 57.788,303.543L19.556,303.543C22.034,283.58 27.073,264.408 34.336,246.36L69.339,260.859C73.087,251.489 77.552,242.482 82.666,233.908L47.36,219.283C56.797,202.57 68.262,187.152 81.412,173.371L108.2,200.159C115.088,192.876 122.532,186.135 130.469,180.002L103.506,153.039C117.935,141.393 133.799,131.454 150.785,123.533L165.299,158.573C174.279,154.291 183.641,150.688 193.32,147.827L178.754,112.663C195.979,107.24 214.084,103.792 232.797,102.585Z"/>
    </g>
</svg>
