<?xml version="1.0" encoding="UTF-8" standalone="no"?>
<!DOCTYPE svg PUBLIC "-//W3C//DTD SVG 1.1//EN" "http://www.w3.org/Graphics/SVG/1.1/DTD/svg11.dtd">
<svg width="100%" height="100%" viewBox="0 0 24 24" version="1.1" xmlns="http://www.w3.org/2000/svg" xmlns:xlink="http://www.w3.org/1999/xlink" xml:space="preserve" xmlns:serif="http://www.serif.com/" style="fill-rule:evenodd;clip-rule:evenodd;stroke-linejoin:round;stroke-miterlimit:2;">
    <g transform="matrix(0.0339411,0.0339411,-0.0493415,0.0493415,19.7394,-12.71)">
        <path d="M422,425.124C422,419.429 415.279,414.806 407,414.806L93,414.806C84.721,414.806 78,419.429 78,425.124C78,430.819 84.721,435.442 93,435.442L407,435.442C415.279,435.442 422,430.819 422,425.124Z"/>
    </g>
    <g transform="matrix(0.048,0,0,0.048,0,0)">
        <path d="M117.968,166.363C121.956,166.914 127.865,168.091 133.617,170.58C148.794,177.149 155.821,184.373 155.821,184.373C183.139,211.691 227.497,211.691 254.816,184.373C269.167,170.022 275.979,150.968 275.252,132.153C275.241,131.869 275.238,131.587 275.244,131.309C273.5,103.642 283.19,75.388 304.313,54.265C343.34,15.239 406.708,15.239 445.735,54.265L446.19,54.724C484.76,93.786 484.609,156.813 445.735,195.687C424.612,216.809 396.358,226.5 368.691,224.756C368.413,224.762 368.131,224.759 367.847,224.748C349.032,224.021 329.978,230.833 315.627,245.184C288.309,272.503 288.309,316.861 315.627,344.179C315.627,344.179 322.851,351.206 329.42,366.383C331.909,372.135 333.086,378.044 333.637,382.032C335.886,396.495 331.444,411.801 320.311,422.934L294.948,448.296L51.704,205.051L77.066,179.689C88.199,168.556 103.505,164.114 117.968,166.363Z"/>
    </g>
</svg>
