<?xml version="1.0" encoding="UTF-8" standalone="no"?>
<!DOCTYPE svg PUBLIC "-//W3C//DTD SVG 1.1//EN" "http://www.w3.org/Graphics/SVG/1.1/DTD/svg11.dtd">
<svg width="100%" height="100%" viewBox="0 0 24 24" version="1.1" xmlns="http://www.w3.org/2000/svg" xmlns:xlink="http://www.w3.org/1999/xlink" xml:space="preserve" xmlns:serif="http://www.serif.com/" style="fill-rule:evenodd;clip-rule:evenodd;stroke-linejoin:round;stroke-miterlimit:2;">
    <g transform="matrix(0.048,0,0,0.048,0,0)">
        <circle cx="250" cy="250" r="121.84"/>
    </g>
    <g transform="matrix(0.120621,0,0,0.0306732,6.53647,-1.31344)">
        <path d="M51.264,100.018C51.264,87.063 48.589,76.545 45.295,76.545C42.001,76.545 39.326,87.063 39.326,100.018L39.326,188.605C39.326,201.561 42.001,212.079 45.295,212.079C48.589,212.079 51.264,201.561 51.264,188.605L51.264,100.018Z"/>
    </g>
    <g transform="matrix(0.120621,0,0,0.0306732,6.53647,16.4604)">
        <path d="M51.264,100.018C51.264,87.063 48.589,76.545 45.295,76.545C42.001,76.545 39.326,87.063 39.326,100.018L39.326,188.605C39.326,201.561 42.001,212.079 45.295,212.079C48.589,212.079 51.264,201.561 51.264,188.605L51.264,100.018Z"/>
    </g>
    <g transform="matrix(2.46197e-18,0.120621,-0.0306732,-9.39095e-19,25.3134,6.53647)">
        <path d="M51.264,100.018C51.264,87.063 48.589,76.545 45.295,76.545C42.001,76.545 39.326,87.063 39.326,100.018L39.326,188.605C39.326,201.561 42.001,212.079 45.295,212.079C48.589,212.079 51.264,201.561 51.264,188.605L51.264,100.018Z"/>
    </g>
    <g transform="matrix(2.46197e-18,0.120621,-0.0306732,-9.39095e-19,7.53956,6.53647)">
        <path d="M51.264,100.018C51.264,87.063 48.589,76.545 45.295,76.545C42.001,76.545 39.326,87.063 39.326,100.018L39.326,188.605C39.326,201.561 42.001,212.079 45.295,212.079C48.589,212.079 51.264,201.561 51.264,188.605L51.264,100.018Z"/>
    </g>
    <g transform="matrix(-0.0852921,0.0852921,-0.0216892,-0.0216892,25.2773,17.5507)">
        <path d="M51.264,100.018C51.264,87.063 48.589,76.545 45.295,76.545C42.001,76.545 39.326,87.063 39.326,100.018L39.326,188.605C39.326,201.561 42.001,212.079 45.295,212.079C48.589,212.079 51.264,201.561 51.264,188.605L51.264,100.018Z"/>
    </g>
    <g transform="matrix(-0.0852921,0.0852921,-0.0216892,-0.0216892,12.7093,4.9827)">
        <path d="M51.264,100.018C51.264,87.063 48.589,76.545 45.295,76.545C42.001,76.545 39.326,87.063 39.326,100.018L39.326,188.605C39.326,201.561 42.001,212.079 45.295,212.079C48.589,212.079 51.264,201.561 51.264,188.605L51.264,100.018Z"/>
    </g>
    <g transform="matrix(0.0852921,0.0852921,-0.0216892,0.0216892,17.5507,-1.27732)">
        <path d="M51.264,100.018C51.264,87.063 48.589,76.545 45.295,76.545C42.001,76.545 39.326,87.063 39.326,100.018L39.326,188.605C39.326,201.561 42.001,212.079 45.295,212.079C48.589,212.079 51.264,201.561 51.264,188.605L51.264,100.018Z"/>
    </g>
    <g transform="matrix(0.0852921,0.0852921,-0.0216892,0.0216892,4.9827,11.2907)">
        <path d="M51.264,100.018C51.264,87.063 48.589,76.545 45.295,76.545C42.001,76.545 39.326,87.063 39.326,100.018L39.326,188.605C39.326,201.561 42.001,212.079 45.295,212.079C48.589,212.079 51.264,201.561 51.264,188.605L51.264,100.018Z"/>
    </g>
</svg>
