<?xml version="1.0" encoding="UTF-8" standalone="no"?>
<!DOCTYPE svg PUBLIC "-//W3C//DTD SVG 1.1//EN" "http://www.w3.org/Graphics/SVG/1.1/DTD/svg11.dtd">
<svg width="100%" height="100%" viewBox="0 0 24 24" version="1.1" xmlns="http://www.w3.org/2000/svg" xmlns:xlink="http://www.w3.org/1999/xlink" xml:space="preserve" xmlns:serif="http://www.serif.com/" style="fill-rule:evenodd;clip-rule:evenodd;stroke-linejoin:round;stroke-miterlimit:2;">
    <g transform="matrix(0.0339411,0.0339411,-0.0339411,0.0339411,23.0024,-9.26893)">
        <path d="M95.882,246.135C97.716,245.335 99.741,244.891 101.868,244.891C110.147,244.891 116.868,251.613 116.868,259.891L116.868,348.441L151.24,382.813L185.612,348.441L185.612,259.891C185.612,251.613 192.333,244.891 200.612,244.891C203.124,244.891 205.492,245.51 207.572,246.603C207.699,246.612 207.817,246.643 207.926,246.698C249.238,267.487 277.612,310.283 277.612,359.655C277.612,429.401 220.986,486.026 151.24,486.026C81.494,486.026 24.868,429.401 24.868,359.655C24.868,309.912 53.67,266.843 95.496,246.229C95.614,246.171 95.742,246.14 95.882,246.135Z"/>
    </g>
    <g transform="matrix(0.048,0,0,0.048,0,0)">
        <path d="M195.233,204.53C208.212,253.328 246.668,291.785 295.469,304.766L162.789,437.447C135.128,465.108 90.214,465.108 62.553,437.447C34.892,409.785 34.892,364.871 62.553,337.21L195.233,204.53Z"/>
    </g>
</svg>
