<?xml version="1.0" encoding="UTF-8" standalone="no"?>
<!DOCTYPE svg PUBLIC "-//W3C//DTD SVG 1.1//EN" "http://www.w3.org/Graphics/SVG/1.1/DTD/svg11.dtd">
<svg width="100%" height="100%" viewBox="0 0 24 24" version="1.1" xmlns="http://www.w3.org/2000/svg" xmlns:xlink="http://www.w3.org/1999/xlink" xml:space="preserve" xmlns:serif="http://www.serif.com/" style="fill-rule:evenodd;clip-rule:evenodd;stroke-linejoin:round;stroke-miterlimit:2;">
    <g transform="matrix(-1.3878e-17,-0.0653946,0.09204,-1.57388e-17,-0.54,26.9194)">
        <path d="M257.171,136.245C257.171,131.928 252.237,128.422 246.161,128.422L73.918,128.422C67.841,128.422 62.907,131.928 62.907,136.245C62.907,140.563 67.841,144.068 73.918,144.068L246.161,144.068C252.237,144.068 257.171,140.563 257.171,136.245Z"/>
    </g>
    <g transform="matrix(-0.0233946,-0.0233946,0.0650821,-0.0650821,5.11444,32.9336)">
        <path d="M257.171,136.245C257.171,131.928 247.42,128.422 235.409,128.422L84.67,128.422C72.659,128.422 62.907,131.928 62.907,136.245C62.907,140.563 72.659,144.068 84.67,144.068L235.409,144.068C247.42,144.068 257.171,140.563 257.171,136.245Z"/>
    </g>
    <g transform="matrix(0.023387,-0.023387,0.0650821,0.0650821,1.15329,15.1989)">
        <path d="M257.171,136.245C257.171,131.928 247.416,128.422 235.402,128.422L84.677,128.422C72.662,128.422 62.907,131.928 62.907,136.245C62.907,140.563 72.662,144.068 84.677,144.068L235.402,144.068C247.416,144.068 257.171,140.563 257.171,136.245Z"/>
    </g>
    <g transform="matrix(0.048,0,0,0.048,0,0)">
        <circle cx="250" cy="124.884" r="100"/>
    </g>
</svg>
