<?xml version="1.0" encoding="UTF-8" standalone="no"?>
<!DOCTYPE svg PUBLIC "-//W3C//DTD SVG 1.1//EN" "http://www.w3.org/Graphics/SVG/1.1/DTD/svg11.dtd">
<svg width="100%" height="100%" viewBox="0 0 24 24" version="1.1" xmlns="http://www.w3.org/2000/svg" xmlns:xlink="http://www.w3.org/1999/xlink" xml:space="preserve" xmlns:serif="http://www.serif.com/" style="fill-rule:evenodd;clip-rule:evenodd;stroke-linejoin:round;stroke-miterlimit:2;">
    <g transform="matrix(0.048,0,0,0.048,0.0150981,-0.00868168)">
        <path d="M360.731,137.952C355.524,132.063 355.737,123.05 361.369,117.417C367.223,111.564 376.729,111.564 382.583,117.417C382.871,117.706 383.145,118.004 383.405,118.308L383.439,118.279C455.756,191.518 455.471,309.694 382.583,382.583C321.702,443.464 229.226,453.692 157.736,413.27L157.749,413.248C156.564,412.587 155.45,411.754 154.444,410.749C148.59,404.895 148.59,395.389 154.444,389.535C159.521,384.459 167.343,383.785 173.15,387.513C233.115,421.038 310.416,412.323 361.369,361.369C422.836,299.903 422.836,200.097 361.369,138.631C361.148,138.409 360.926,138.189 360.707,137.973L360.731,137.952Z"/>
    </g>
    <g transform="matrix(0.0575714,0.0154262,-0.0174198,0.0650114,2.39361,-10.9301)">
        <path d="M335.968,185.666C335.968,179.762 330.555,174.969 323.888,174.969C317.221,174.969 311.808,179.762 311.808,185.666L311.808,246.271C311.808,252.175 317.221,256.969 323.888,256.969C330.555,256.969 335.968,252.175 335.968,246.271L335.968,185.666Z"/>
    </g>
    <g transform="matrix(-0.0154262,0.0575714,0.0650114,0.0174198,10.7441,-15.7442)">
        <path d="M335.968,185.666C335.968,179.762 330.555,174.969 323.888,174.969C317.221,174.969 311.808,179.762 311.808,185.666L311.808,246.271C311.808,252.175 317.221,256.969 323.888,256.969C330.555,256.969 335.968,252.175 335.968,246.271L335.968,185.666Z"/>
    </g>
    <g transform="matrix(-0.048,0,0,-0.048,23.9849,24.0087)">
        <path d="M360.731,137.952C355.524,132.063 355.737,123.05 361.369,117.417C367.223,111.564 376.729,111.564 382.583,117.417C382.871,117.706 383.145,118.004 383.405,118.308L383.439,118.279C455.756,191.518 455.471,309.694 382.583,382.583C321.702,443.464 229.226,453.692 157.736,413.27L157.749,413.248C156.564,412.587 155.45,411.754 154.444,410.749C148.59,404.895 148.59,395.389 154.444,389.535C159.521,384.459 167.343,383.785 173.15,387.513C233.115,421.038 310.416,412.323 361.369,361.369C422.836,299.903 422.836,200.097 361.369,138.631C361.148,138.409 360.926,138.189 360.707,137.973L360.731,137.952Z"/>
    </g>
    <g transform="matrix(-0.0575714,-0.0154262,0.0174198,-0.0650114,21.6064,34.9301)">
        <path d="M335.968,185.666C335.968,179.762 330.555,174.969 323.888,174.969C317.221,174.969 311.808,179.762 311.808,185.666L311.808,246.271C311.808,252.175 317.221,256.969 323.888,256.969C330.555,256.969 335.968,252.175 335.968,246.271L335.968,185.666Z"/>
    </g>
    <g transform="matrix(0.0154262,-0.0575714,-0.0650114,-0.0174198,13.2559,39.7442)">
        <path d="M335.968,185.666C335.968,179.762 330.555,174.969 323.888,174.969C317.221,174.969 311.808,179.762 311.808,185.666L311.808,246.271C311.808,252.175 317.221,256.969 323.888,256.969C330.555,256.969 335.968,252.175 335.968,246.271L335.968,185.666Z"/>
    </g>
</svg>
