<?xml version="1.0" encoding="UTF-8" standalone="no"?>
<!DOCTYPE svg PUBLIC "-//W3C//DTD SVG 1.1//EN" "http://www.w3.org/Graphics/SVG/1.1/DTD/svg11.dtd">
<svg width="100%" height="100%" viewBox="0 0 24 24" version="1.1" xmlns="http://www.w3.org/2000/svg" xmlns:xlink="http://www.w3.org/1999/xlink" xml:space="preserve" xmlns:serif="http://www.serif.com/" style="fill-rule:evenodd;clip-rule:evenodd;stroke-linejoin:round;stroke-miterlimit:2;">
    <g transform="matrix(-0.0563831,-0.0563831,0.0337406,-0.0337406,23.38,15.8566)">
        <path d="M191.015,85.734C191.015,77.406 186.969,70.645 181.985,70.645L88.248,70.645C83.264,70.645 79.218,77.406 79.218,85.734C79.218,94.062 83.264,100.823 88.248,100.823L181.985,100.823C186.969,100.823 191.015,94.062 191.015,85.734Z"/>
    </g>
    <g transform="matrix(0.048,0,0,0.048,0,0)">
        <path d="M258.426,372.896L241.474,389.848C241.367,389.955 241.259,390.059 241.151,390.162C238.414,393.066 234.533,394.88 230.233,394.88L120.811,394.88C116.584,394.88 112.764,393.129 110.036,390.312C107.219,387.584 105.467,383.763 105.467,379.537L105.467,270.115C105.467,265.814 107.281,261.934 110.186,259.197C110.288,259.088 110.393,258.98 110.499,258.874L255.438,113.935L250.757,109.254C244.903,103.4 244.903,93.895 250.757,88.041C256.611,82.187 266.116,82.187 271.97,88.041L411.959,228.03C417.813,233.884 417.813,243.389 411.959,249.243C406.105,255.097 396.6,255.097 390.746,249.243L386.413,244.909L369.442,261.88L317.216,209.654C311.362,203.8 301.857,203.8 296.003,209.654C290.149,215.508 290.149,225.013 296.003,230.867L348.229,283.093L324.541,306.781L272.315,254.555C266.461,248.701 256.956,248.701 251.102,254.555C245.248,260.409 245.248,269.915 251.102,275.768L303.328,327.994L279.64,351.683L227.414,299.457C221.56,293.603 212.054,293.603 206.2,299.457C200.346,305.31 200.346,314.816 206.2,320.67L258.426,372.896Z"/>
    </g>
    <g transform="matrix(0.0336992,-0.0336992,0.0337406,0.0337406,9.83378,8.3808)">
        <path d="M191.015,85.734C191.015,77.406 184.246,70.645 175.907,70.645L94.326,70.645C85.988,70.645 79.218,77.406 79.218,85.734C79.218,94.062 85.988,100.823 94.326,100.823L175.907,100.823C184.246,100.823 191.015,94.062 191.015,85.734Z"/>
    </g>
    <g transform="matrix(-0.0367274,0.0367274,-0.0337406,-0.0337406,12.102,17.6834)">
        <path d="M191.015,85.734C191.015,77.406 184.804,70.645 177.153,70.645L93.08,70.645C85.429,70.645 79.218,77.406 79.218,85.734C79.218,94.062 85.429,100.823 93.08,100.823L177.153,100.823C184.804,100.823 191.015,94.062 191.015,85.734Z"/>
    </g>
</svg>
