<?xml version="1.0" encoding="UTF-8" standalone="no"?>
<!DOCTYPE svg PUBLIC "-//W3C//DTD SVG 1.1//EN" "http://www.w3.org/Graphics/SVG/1.1/DTD/svg11.dtd">
<svg width="100%" height="100%" viewBox="0 0 24 24" version="1.1" xmlns="http://www.w3.org/2000/svg" xmlns:xlink="http://www.w3.org/1999/xlink" xml:space="preserve" xmlns:serif="http://www.serif.com/" style="fill-rule:evenodd;clip-rule:evenodd;stroke-linejoin:round;stroke-miterlimit:2;">
    <g transform="matrix(0.048,0,0,0.048,0,0)">
        <path d="M20.855,446.531C37.646,419.206 129.132,357.196 250.02,357.196C368.714,357.196 459.362,418.475 478.529,445.869C480.639,448.453 481.906,451.753 481.906,455.347C481.906,463.626 475.184,470.347 466.906,470.347L32.989,470.347C24.71,470.347 17.989,463.626 17.989,455.347C17.989,452.054 19.052,449.007 20.855,446.531Z"/>
    </g>
    <g transform="matrix(0.048,0,0,0.048,0,0)">
        <path d="M139.093,245.619C131.441,229.617 127.156,211.707 127.156,192.805C127.156,125.103 182.121,70.138 249.823,70.138C317.524,70.138 372.489,125.103 372.489,192.805C372.489,260.507 317.524,315.472 249.823,315.472C214.029,315.472 181.795,300.108 159.362,275.619L213.897,275.619C218.419,281.429 225.479,285.169 233.405,285.169L257.74,285.169C271.378,285.169 282.45,274.097 282.45,260.46C282.45,246.822 271.378,235.75 257.74,235.75L233.405,235.75C225.334,235.75 218.162,239.628 213.652,245.619L139.093,245.619Z"/>
    </g>
    <g transform="matrix(0.048,0,0,0.048,0,0)">
        <path d="M133.853,123.698C121.77,143.913 114.823,167.554 114.823,192.805C114.823,207.908 117.308,222.435 121.893,236L107.62,236C88.813,236 73.544,220.731 73.544,201.924L73.544,157.773C73.544,138.966 88.813,123.698 107.62,123.698L133.853,123.698Z"/>
    </g>
    <g transform="matrix(0.048,0,0,0.048,0,0)">
        <path d="M365.793,123.698L388.069,123.698C406.876,123.698 422.145,138.966 422.145,157.773L422.145,201.924C422.145,220.731 406.876,236 388.069,236L377.753,236C382.337,222.435 384.823,207.908 384.823,192.805C384.823,167.554 377.875,143.913 365.793,123.698Z"/>
    </g>
</svg>
