<?xml version="1.0" encoding="UTF-8" standalone="no"?>
<!DOCTYPE svg PUBLIC "-//W3C//DTD SVG 1.1//EN" "http://www.w3.org/Graphics/SVG/1.1/DTD/svg11.dtd">
<svg width="100%" height="100%" viewBox="0 0 24 24" version="1.1" xmlns="http://www.w3.org/2000/svg" xmlns:xlink="http://www.w3.org/1999/xlink" xml:space="preserve" xmlns:serif="http://www.serif.com/" style="fill-rule:evenodd;clip-rule:evenodd;stroke-linejoin:round;stroke-miterlimit:2;">
    <g transform="matrix(5.07941e-18,0.082953,-0.09204,5.63582e-18,18.3548,-3.9198)">
        <path d="M257.171,136.245C257.171,131.928 253.282,128.422 248.491,128.422L71.587,128.422C66.797,128.422 62.907,131.928 62.907,136.245C62.907,140.563 66.797,144.068 71.587,144.068L248.491,144.068C253.282,144.068 257.171,140.563 257.171,136.245Z"/>
    </g>
    <g transform="matrix(-0.103409,1.2664e-17,-1.12716e-17,-0.09204,28.4443,33.0145)">
        <path d="M257.171,136.245C257.171,131.928 254.051,128.422 250.208,128.422L69.87,128.422C66.027,128.422 62.907,131.928 62.907,136.245C62.907,140.563 66.027,144.068 69.87,144.068L250.208,144.068C254.051,144.068 257.171,140.563 257.171,136.245Z"/>
    </g>
    <g transform="matrix(0.0226608,0.0226608,-0.0650821,0.0650821,12.7478,-8.78334)">
        <path d="M257.171,136.245C257.171,131.928 247.104,128.422 234.704,128.422L85.374,128.422C72.974,128.422 62.907,131.928 62.907,136.245C62.907,140.563 72.974,144.068 85.374,144.068L234.704,144.068C247.104,144.068 257.171,140.563 257.171,136.245Z"/>
    </g>
    <g transform="matrix(-0.0226667,0.0226667,-0.0650821,-0.0650821,16.6175,8.95053)">
        <path d="M257.171,136.245C257.171,131.928 247.106,128.422 234.71,128.422L85.368,128.422C72.972,128.422 62.907,131.928 62.907,136.245C62.907,140.563 72.972,144.068 85.368,144.068L234.71,144.068C247.106,144.068 257.171,140.563 257.171,136.245Z"/>
    </g>
    <g transform="matrix(5.07941e-18,0.082953,-0.09204,5.63582e-18,30.0358,-3.9198)">
        <path d="M257.171,136.245C257.171,131.928 253.282,128.422 248.491,128.422L71.587,128.422C66.797,128.422 62.907,131.928 62.907,136.245C62.907,140.563 66.797,144.068 71.587,144.068L248.491,144.068C253.282,144.068 257.171,140.563 257.171,136.245Z"/>
    </g>
    <g transform="matrix(0.0226608,0.0226608,-0.0650821,0.0650821,24.4288,-8.78334)">
        <path d="M257.171,136.245C257.171,131.928 247.104,128.422 234.704,128.422L85.374,128.422C72.974,128.422 62.907,131.928 62.907,136.245C62.907,140.563 72.974,144.068 85.374,144.068L234.704,144.068C247.104,144.068 257.171,140.563 257.171,136.245Z"/>
    </g>
    <g transform="matrix(-0.0226667,0.0226667,-0.0650821,-0.0650821,28.2985,8.95053)">
        <path d="M257.171,136.245C257.171,131.928 247.106,128.422 234.71,128.422L85.368,128.422C72.972,128.422 62.907,131.928 62.907,136.245C62.907,140.563 72.972,144.068 85.368,144.068L234.71,144.068C247.106,144.068 257.171,140.563 257.171,136.245Z"/>
    </g>
</svg>
