<?xml version="1.0" encoding="UTF-8" standalone="no"?>
<!DOCTYPE svg PUBLIC "-//W3C//DTD SVG 1.1//EN" "http://www.w3.org/Graphics/SVG/1.1/DTD/svg11.dtd">
<svg width="100%" height="100%" viewBox="0 0 24 24" version="1.1" xmlns="http://www.w3.org/2000/svg" xmlns:xlink="http://www.w3.org/1999/xlink" xml:space="preserve" xmlns:serif="http://www.serif.com/" style="fill-rule:evenodd;clip-rule:evenodd;stroke-linejoin:round;stroke-miterlimit:2;">
    <g transform="matrix(-0.048,0,0,-0.048,24.024,23.88)">
        <path d="M355.781,48.106L355.781,321.56L258.165,437.903C257.56,438.625 256.901,439.275 256.199,439.852C250.103,445.757 241.794,449.394 232.642,449.394C213.946,449.394 198.767,434.215 198.767,415.519C198.767,411.542 199.454,407.725 200.714,404.181L224.737,314.526L79.9,314.526C79.535,314.526 79.173,314.513 78.814,314.488C78.182,314.513 77.548,314.526 76.912,314.526C51.55,314.526 30.959,293.936 30.959,268.574C30.959,261.787 32.434,255.342 35.081,249.539C35.197,249.239 35.324,248.941 35.462,248.646L124.741,56.78C127.468,50.92 133.508,47.649 139.599,48.158C140.013,48.124 140.431,48.106 140.854,48.106L355.781,48.106ZM385.781,48.106L455.04,48.106C458.887,48.106 462.398,49.558 465.054,51.942L465.082,51.967C468.126,54.713 470.04,58.688 470.04,63.106L470.04,295.507C470.04,303.785 463.319,310.507 455.04,310.507L385.781,310.507L385.781,48.106Z"/>
    </g>
</svg>
