<?xml version="1.0" encoding="UTF-8" standalone="no"?>
<!DOCTYPE svg PUBLIC "-//W3C//DTD SVG 1.1//EN" "http://www.w3.org/Graphics/SVG/1.1/DTD/svg11.dtd">
<svg width="100%" height="100%" viewBox="0 0 24 24" version="1.1" xmlns="http://www.w3.org/2000/svg" xmlns:xlink="http://www.w3.org/1999/xlink" xml:space="preserve" xmlns:serif="http://www.serif.com/" style="fill-rule:evenodd;clip-rule:evenodd;stroke-linejoin:round;stroke-miterlimit:2;">
    <g transform="matrix(0.048,0,0,0.048,0,0)">
        <path d="M133.415,158.325L357.947,28.691L404.121,108.668C402.332,109.41 400.571,110.278 398.848,111.273C377.339,123.691 369.959,151.235 382.377,172.744C394.795,194.253 422.339,201.633 443.848,189.215C445.571,188.22 447.203,187.129 448.741,185.951L495.473,266.893L270.94,396.527L242.373,347.047L216.392,362.047L244.96,411.527L142.053,470.94L95.43,390.186C96.581,389.646 97.721,389.052 98.843,388.404C120.352,375.986 127.733,348.441 115.315,326.932C102.896,305.424 75.352,298.043 53.843,310.461C52.721,311.11 51.636,311.799 50.593,312.526L4.527,232.738L107.434,173.325L133.724,218.86L159.704,203.86L133.415,158.325ZM206.039,284.114L180.058,299.114L206.392,344.726L232.373,329.726L206.039,284.114ZM169.704,221.181L143.724,236.181L170.058,281.793L196.039,266.793L169.704,221.181Z"/>
    </g>
</svg>
