<?xml version="1.0" encoding="UTF-8" standalone="no"?>
<!DOCTYPE svg PUBLIC "-//W3C//DTD SVG 1.1//EN" "http://www.w3.org/Graphics/SVG/1.1/DTD/svg11.dtd">
<svg width="100%" height="100%" viewBox="0 0 24 24" version="1.1" xmlns="http://www.w3.org/2000/svg" xmlns:xlink="http://www.w3.org/1999/xlink" xml:space="preserve" xmlns:serif="http://www.serif.com/" style="fill-rule:evenodd;clip-rule:evenodd;stroke-linejoin:round;stroke-miterlimit:2;">
    <g transform="matrix(0.048,0,0,0.048,0,0)">
        <path d="M70,485L430,485L430,15L70,15L70,485ZM160.046,443.187C163.086,441.987 165.757,439.79 167.517,436.741L210.669,361.978C214.807,354.808 212.346,345.626 205.176,341.488C198.006,337.35 188.825,339.811 184.686,346.981L150.957,405.418L132.926,387.387C127.073,381.533 117.567,381.533 111.713,387.387C105.859,393.241 105.859,402.746 111.713,408.6L143.243,440.13C147.784,444.671 154.52,445.69 160.046,443.187ZM391.324,375.247L248.324,375.247L248.324,405.247L391.324,405.247L391.324,375.247ZM160.046,303.064C163.086,301.864 165.757,299.666 167.517,296.618L210.669,221.854C214.807,214.684 212.346,205.503 205.176,201.365C198.006,197.226 188.825,199.687 184.686,206.858L150.957,265.295L132.926,247.264C127.073,241.41 117.567,241.41 111.713,247.264C105.859,253.118 105.859,262.623 111.713,268.477L143.243,300.007C147.784,304.547 154.52,305.566 160.046,303.064ZM391.324,235.123L248.324,235.123L248.324,265.123L391.324,265.123L391.324,235.123ZM160.046,162.941C163.086,161.74 165.757,159.543 167.517,156.494L210.669,81.731C214.807,74.561 212.346,65.38 205.176,61.241C198.006,57.103 188.825,59.564 184.686,66.734L150.957,125.171L132.926,107.14C127.073,101.287 117.567,101.287 111.713,107.14C105.859,112.994 105.859,122.5 111.713,128.354L143.243,159.884C147.784,164.424 154.52,165.443 160.046,162.941ZM391.324,95L248.324,95L248.324,125L391.324,125L391.324,95Z"/>
    </g>
</svg>
