<?xml version="1.0" encoding="UTF-8" standalone="no"?>
<!DOCTYPE svg PUBLIC "-//W3C//DTD SVG 1.1//EN" "http://www.w3.org/Graphics/SVG/1.1/DTD/svg11.dtd">
<svg width="100%" height="100%" viewBox="0 0 24 24" version="1.1" xmlns="http://www.w3.org/2000/svg" xmlns:xlink="http://www.w3.org/1999/xlink" xml:space="preserve" xmlns:serif="http://www.serif.com/" style="fill-rule:evenodd;clip-rule:evenodd;stroke-linejoin:round;stroke-miterlimit:2;">
    <g transform="matrix(0.048,0,0,0.048,0,0)">
        <path d="M14.5,250C14.5,184.874 67.374,132 132.5,132L367.5,132C432.626,132 485.5,184.874 485.5,250C485.5,315.126 432.626,368 367.5,368L132.5,368C67.374,368 14.5,315.126 14.5,250ZM439.039,250C439.039,210.516 406.984,178.461 367.5,178.461C328.016,178.461 295.961,210.516 295.961,250C295.961,289.484 328.016,321.539 367.5,321.539C406.984,321.539 439.039,289.484 439.039,250Z"/>
    </g>
</svg>
