<?xml version="1.0" encoding="UTF-8" standalone="no"?>
<!DOCTYPE svg PUBLIC "-//W3C//DTD SVG 1.1//EN" "http://www.w3.org/Graphics/SVG/1.1/DTD/svg11.dtd">
<svg width="100%" height="100%" viewBox="0 0 24 24" version="1.1" xmlns="http://www.w3.org/2000/svg" xmlns:xlink="http://www.w3.org/1999/xlink" xml:space="preserve" xmlns:serif="http://www.serif.com/" style="fill-rule:evenodd;clip-rule:evenodd;stroke-linejoin:round;stroke-miterlimit:2;">
    <g transform="matrix(0.048,0,0,0.048,0,0)">
        <path d="M130.392,130.316L160.392,130.316L160.392,85.976C160.392,81.983 163.634,78.742 167.626,78.742L327.145,78.742C331.138,78.742 334.379,81.983 334.379,85.976L334.379,130.316L364.379,130.316L364.379,82.469C364.379,63.854 349.267,48.742 330.652,48.742L164.119,48.742C145.505,48.742 130.392,63.854 130.392,82.469L130.392,130.316Z"/>
    </g>
    <g transform="matrix(0.048,0,0,0.048,0,0)">
        <path d="M481.046,250L397.078,250L397.078,270.654C397.078,276.325 392.474,280.929 386.803,280.929L344.7,280.929C339.029,280.929 334.425,276.325 334.425,270.654L334.425,250L165.575,250L165.575,270.654C165.575,276.325 160.971,280.929 155.3,280.929L113.197,280.929C107.526,280.929 102.922,276.325 102.922,270.654L102.922,250L18.954,250L18.954,431.354C18.954,442.34 27.873,451.258 38.858,451.258L461.142,451.258C472.127,451.258 481.046,442.34 481.046,431.354L481.046,250ZM18.954,220L102.922,220L102.922,200.882C102.922,195.211 107.526,190.607 113.197,190.607L155.3,190.607C160.971,190.607 165.575,195.211 165.575,200.882L165.575,220L334.425,220L334.425,200.882C334.425,195.211 339.029,190.607 344.7,190.607L386.803,190.607C392.474,190.607 397.078,195.211 397.078,200.882L397.078,220L481.046,220L481.046,137.829C481.046,126.843 472.127,117.925 461.142,117.925L38.858,117.925C27.873,117.925 18.954,126.843 18.954,137.829L18.954,220Z"/>
    </g>
</svg>
