<?xml version="1.0" encoding="UTF-8" standalone="no"?>
<!DOCTYPE svg PUBLIC "-//W3C//DTD SVG 1.1//EN" "http://www.w3.org/Graphics/SVG/1.1/DTD/svg11.dtd">
<svg width="100%" height="100%" viewBox="0 0 24 24" version="1.1" xmlns="http://www.w3.org/2000/svg" xmlns:xlink="http://www.w3.org/1999/xlink" xml:space="preserve" xmlns:serif="http://www.serif.com/" style="fill-rule:evenodd;clip-rule:evenodd;stroke-linejoin:round;stroke-miterlimit:2;">
    <g transform="matrix(0.048,0,0,0.048,0,0)">
        <path d="M229.345,333.029C267.972,332.894 299.441,364.144 299.576,402.77C299.711,441.396 268.462,472.866 229.835,473.001C191.209,473.136 159.74,441.886 159.604,403.26C159.469,364.634 190.719,333.164 229.345,333.029ZM229.45,363.023C251.522,362.946 269.505,380.803 269.582,402.875C269.659,424.947 251.802,442.93 229.73,443.007C207.658,443.084 189.676,425.227 189.598,403.155C189.521,381.083 207.378,363.1 229.45,363.023Z"/>
    </g>
    <g transform="matrix(0.0351577,-0.0102347,0.0208328,0.0715639,-3.15645,-2.09286)">
        <path d="M224.719,90.418C224.719,85.087 215.908,80.758 205.056,80.758C194.204,80.758 185.393,85.087 185.393,90.418L185.393,291.604C185.393,296.936 194.204,301.264 205.056,301.264C215.908,301.264 224.719,296.936 224.719,291.604L224.719,90.418Z"/>
    </g>
    <g transform="matrix(-0.000128169,-0.0366169,0.021926,-7.6747e-05,0.0616451,9.79514)">
        <path d="M224.719,113.596C224.719,95.472 215.908,80.758 205.056,80.758C194.204,80.758 185.393,95.472 185.393,113.596L185.393,268.427C185.393,286.55 194.204,301.264 205.056,301.264C215.908,301.264 224.719,286.55 224.719,268.427L224.719,113.596Z"/>
    </g>
    <g transform="matrix(0.046062,-0.0135017,0.0135017,0.046062,-2.40431,4.80368)">
        <path d="M444.836,139.28C444.945,140.115 445.001,140.967 445.001,141.832L445.001,307.204C445.001,308.069 444.945,308.921 444.836,309.756L444.774,310.201L444.648,310.929L444.44,311.886L444.24,312.638L443.965,313.516L443.634,314.421L443.331,315.144C443.188,315.469 443.036,315.789 442.876,316.104L442.391,317.001L441.998,317.654L441.502,318.405L440.944,319.17L440.442,319.797L440.041,320.264L439.397,320.955L438.677,321.656L438.194,322.089L437.464,322.691L436.649,323.299L435.921,323.789L435.109,324.283L434.216,324.766L433.624,325.055L432.751,325.437L431.782,325.803L431.156,326.01L430.23,326.273L429.193,326.51L428.525,326.632L427.572,326.764L426.476,326.859L425.78,326.887L425.312,326.893L221.799,326.893L220.787,326.867L219.946,326.807L219.263,326.731L218.316,326.585L217.258,326.366L216.391,326.139L215.488,325.858L214.5,325.493L213.693,325.149L212.839,324.738L211.933,324.242L211.191,323.789L210.405,323.258L209.591,322.647L209.097,322.243L208.39,321.616L207.619,320.857L207.203,320.412L206.761,319.906L206.167,319.17L205.691,318.522L205.581,318.363L205.088,317.612L204.604,316.794L204.236,316.104C204.076,315.789 203.924,315.469 203.78,315.144L203.391,314.196L203.13,313.467L202.858,312.592L202.615,311.648L202.443,310.821L202.338,310.201L202.275,309.756C202.167,308.921 202.111,308.069 202.111,307.204L202.111,141.832C202.111,140.967 202.167,140.115 202.275,139.28L202.338,138.835L202.463,138.107L202.672,137.15L202.872,136.399L203.146,135.52L203.477,134.616L203.78,133.892C203.924,133.567 204.076,133.247 204.236,132.932L204.721,132.035L205.114,131.382L205.609,130.631L206.167,129.866L206.67,129.239L207.07,128.772L207.714,128.081L208.434,127.38L208.918,126.947L209.647,126.345L210.463,125.737L211.191,125.247L212.003,124.753L212.895,124.27L213.487,123.982L214.36,123.599L215.33,123.233L215.956,123.027L216.881,122.764L217.919,122.526L218.587,122.405L219.54,122.272L220.636,122.177L221.332,122.149L221.799,122.143L425.312,122.143L426.325,122.169L427.166,122.23L427.849,122.306L428.795,122.451L429.853,122.671L430.72,122.897L431.624,123.179L432.612,123.543L433.419,123.887L434.272,124.299L435.179,124.794L435.921,125.247L436.706,125.778L437.521,126.389L438.014,126.793L438.721,127.421L439.492,128.179L439.908,128.624L440.351,129.13L440.944,129.866L441.42,130.514L441.531,130.673L442.024,131.424L442.508,132.242L442.876,132.932C443.036,133.247 443.188,133.567 443.331,133.892L443.721,134.84L443.982,135.569L444.253,136.445L444.496,137.388L444.668,138.216L444.774,138.835L444.836,139.28ZM361.638,152.143L285.474,152.143L285.474,193.351L361.638,193.351L361.638,152.143Z"/>
    </g>
    <g transform="matrix(0.0100738,0.0352042,-0.0403062,0.0115337,22.6386,7.11677)">
        <path d="M224.719,97.932C224.719,88.454 215.908,80.758 205.056,80.758C194.204,80.758 185.393,88.454 185.393,97.932L185.393,284.09C185.393,293.569 194.204,301.264 205.056,301.264C215.908,301.264 224.719,293.569 224.719,284.09L224.719,97.932Z"/>
    </g>
</svg>
