<?xml version="1.0" encoding="UTF-8" standalone="no"?>
<!DOCTYPE svg PUBLIC "-//W3C//DTD SVG 1.1//EN" "http://www.w3.org/Graphics/SVG/1.1/DTD/svg11.dtd">
<svg width="100%" height="100%" viewBox="0 0 24 24" version="1.1" xmlns="http://www.w3.org/2000/svg" xmlns:xlink="http://www.w3.org/1999/xlink" xml:space="preserve" xmlns:serif="http://www.serif.com/" style="fill-rule:evenodd;clip-rule:evenodd;stroke-linejoin:round;stroke-miterlimit:2;">
    <g transform="matrix(0.048,0,0,0.048,0,0)">
        <path d="M382.378,300.994C410.007,300.994 432.437,323.425 432.437,351.053C432.437,378.682 410.007,401.112 382.378,401.112C354.75,401.112 332.319,378.682 332.319,351.053C332.319,323.425 354.75,300.994 382.378,300.994ZM382.378,330.994C393.449,330.994 402.437,339.982 402.437,351.053C402.437,362.124 393.449,371.112 382.378,371.112C371.307,371.112 362.319,362.124 362.319,351.053C362.319,339.982 371.307,330.994 382.378,330.994Z"/>
    </g>
    <g transform="matrix(0.048,0,0,0.048,-12.24,0)">
        <path d="M382.378,300.994C410.007,300.994 432.437,323.425 432.437,351.053C432.437,378.682 410.007,401.112 382.378,401.112C354.75,401.112 332.319,378.682 332.319,351.053C332.319,323.425 354.75,300.994 382.378,300.994ZM382.378,330.994C393.449,330.994 402.437,339.982 402.437,351.053C402.437,362.124 393.449,371.112 382.378,371.112C371.307,371.112 362.319,362.124 362.319,351.053C362.319,339.982 371.307,330.994 382.378,330.994Z"/>
    </g>
    <g transform="matrix(0.048,0,0,0.048,0,0)">
        <path d="M68.677,363.799L43.375,363.799C35.096,363.799 28.375,357.078 28.375,348.799L28.375,108.947C28.375,100.668 35.096,93.947 43.375,93.947L277.304,93.947C285.583,93.947 292.304,100.668 292.304,108.947L292.304,348.799C292.304,357.078 285.583,363.799 277.304,363.799L186.08,363.799C186.969,359.689 187.437,355.425 187.437,351.053C187.437,317.906 160.526,290.994 127.378,290.994C94.23,290.994 67.319,317.906 67.319,351.053C67.319,355.425 67.787,359.689 68.677,363.799Z"/>
    </g>
    <g transform="matrix(0.048,0,0,0.048,0,0)">
        <path d="M323.578,363.332C317.099,361.673 312.304,355.792 312.304,348.799L312.304,166.901C312.304,166.844 312.305,166.787 312.305,166.731C312.305,166.674 312.304,166.617 312.304,166.56C312.304,158.281 319.026,151.56 327.304,151.56L409.349,151.56C413.767,151.56 417.741,153.474 420.486,156.516C421.439,157.51 422.27,158.653 422.942,159.933L469.823,249.279C470.559,250.637 471.091,252.12 471.379,253.688L471.393,253.765C471.549,254.637 471.625,255.514 471.625,256.388L471.625,256.409L471.625,348.799C471.625,357.078 464.904,363.799 456.625,363.799L441.08,363.799C441.969,359.689 442.437,355.425 442.437,351.053C442.437,317.906 415.526,290.994 382.378,290.994C349.23,290.994 322.319,317.906 322.319,351.053C322.319,355.26 322.752,359.366 323.578,363.332ZM400.201,181.56L441.994,257.68L364.362,257.68L364.362,181.56L400.201,181.56Z"/>
    </g>
</svg>
