<?xml version="1.0" encoding="UTF-8" standalone="no"?>
<!DOCTYPE svg PUBLIC "-//W3C//DTD SVG 1.1//EN" "http://www.w3.org/Graphics/SVG/1.1/DTD/svg11.dtd">
<svg width="100%" height="100%" viewBox="0 0 24 24" version="1.1" xmlns="http://www.w3.org/2000/svg" xmlns:xlink="http://www.w3.org/1999/xlink" xml:space="preserve" xmlns:serif="http://www.serif.com/" style="fill-rule:evenodd;clip-rule:evenodd;stroke-linejoin:round;stroke-miterlimit:2;">
    <g transform="matrix(0.048,0,0,0.048,1.63709e-14,-0.0136574)">
        <path d="M438.019,25.022C446.298,25.022 453.019,31.743 453.019,40.022L453.019,100.405C453.019,108.683 446.298,115.405 438.019,115.405C432.283,115.405 427.294,112.178 424.772,107.442C416.822,98.11 407.728,95.585 389.866,95.585L311.506,95.585L311.259,95.213L284.647,95.213L284.647,376.803C284.647,389.574 295.269,405.53 313.374,405.53L355.019,405.53C363.298,405.53 370.019,412.251 370.019,420.53L370.019,460.547C370.019,463.969 368.871,467.124 366.939,469.649L366.929,469.663C366.929,469.663 366.916,469.679 366.916,469.679C364.174,473.246 359.863,475.547 355.019,475.547L144.981,475.547C140.137,475.547 135.826,473.246 133.084,469.679L133.071,469.663C133.071,469.663 133.061,469.649 133.061,469.649C131.129,467.124 129.981,463.969 129.981,460.547L129.981,420.53C129.981,412.251 136.702,405.53 144.981,405.53L186.707,405.53C204.812,405.53 215.434,389.907 215.434,376.803L215.434,95.213L188.741,95.213L188.494,95.585L110.134,95.585C92.272,95.585 83.178,98.11 75.228,107.442C72.706,112.178 67.717,115.405 61.981,115.405C53.702,115.405 46.981,108.683 46.981,100.405L46.981,40.022C46.981,31.743 53.702,25.022 61.981,25.022L438.019,25.022Z"/>
    </g>
</svg>
