<?xml version="1.0" encoding="UTF-8" standalone="no"?>
<!DOCTYPE svg PUBLIC "-//W3C//DTD SVG 1.1//EN" "http://www.w3.org/Graphics/SVG/1.1/DTD/svg11.dtd">
<svg width="100%" height="100%" viewBox="0 0 24 24" version="1.1" xmlns="http://www.w3.org/2000/svg" xmlns:xlink="http://www.w3.org/1999/xlink" xml:space="preserve" xmlns:serif="http://www.serif.com/" style="fill-rule:evenodd;clip-rule:evenodd;stroke-linejoin:round;stroke-miterlimit:2;">
    <g transform="matrix(0.048,0,0,0.048,0,0)">
        <path d="M358.866,241L141.134,241C132.856,241 126.134,247.721 126.134,256L126.134,461.228C126.134,469.507 132.856,476.228 141.134,476.228L358.866,476.228C367.144,476.228 373.866,469.507 373.866,461.228L373.866,256C373.866,247.721 367.144,241 358.866,241ZM265,362.788C273.964,357.598 280,347.902 280,336.807C280,320.249 266.557,306.807 250,306.807C233.443,306.807 220,320.249 220,336.807C220,347.902 226.036,357.598 235,362.788L235,395.422C235,403.7 241.721,410.422 250,410.422C258.279,410.422 265,403.7 265,395.422L265,362.788Z"/>
    </g>
    <g transform="matrix(0.048,0,0,0.048,0,-3.60632)">
        <path d="M160,333.931L190,333.931L190,180.395C190,147.28 216.885,120.395 250,120.395C283.115,120.395 310,147.28 310,180.395L310,255.395L340,255.395L340,180.395C340,130.723 299.672,90.395 250,90.395C200.328,90.395 160,130.723 160,180.395L160,333.931Z"/>
    </g>
    <g transform="matrix(0.0552505,0,0,0.0552505,-6.18947,-0.294413)">
        <circle cx="394.376" cy="161.866" r="13.032"/>
    </g>
</svg>
