<?xml version="1.0" encoding="UTF-8" standalone="no"?>
<!DOCTYPE svg PUBLIC "-//W3C//DTD SVG 1.1//EN" "http://www.w3.org/Graphics/SVG/1.1/DTD/svg11.dtd">
<svg width="100%" height="100%" viewBox="0 0 24 24" version="1.1" xmlns="http://www.w3.org/2000/svg" xmlns:xlink="http://www.w3.org/1999/xlink" xml:space="preserve" xmlns:serif="http://www.serif.com/" style="fill-rule:evenodd;clip-rule:evenodd;stroke-linejoin:round;stroke-miterlimit:2;">
    <g transform="matrix(-1.25091e-17,0.0918598,0.09204,1.98755e-17,-0.3,-4.8079)">
        <path d="M257.171,136.245C257.171,131.928 253.659,128.422 249.333,128.422L70.745,128.422C66.42,128.422 62.907,131.928 62.907,136.245C62.907,140.563 66.42,144.068 70.745,144.068L249.333,144.068C253.659,144.068 257.171,140.563 257.171,136.245Z"/>
    </g>
    <g transform="matrix(0.0918598,-3.36176e-18,1.31713e-18,0.09204,-2.70116,9.01213)">
        <path d="M257.171,136.245C257.171,131.928 253.659,128.422 249.333,128.422L70.745,128.422C66.42,128.422 62.907,131.928 62.907,136.245C62.907,140.563 66.42,144.068 70.745,144.068L249.333,144.068C253.659,144.068 257.171,140.563 257.171,136.245Z"/>
    </g>
    <g transform="matrix(-0.0316062,0.0316062,0.0650821,0.0650821,5.87027,-9.67388)">
        <path d="M257.171,136.245C257.171,131.928 249.953,128.422 241.063,128.422L79.016,128.422C70.125,128.422 62.907,131.928 62.907,136.245C62.907,140.563 70.125,144.068 79.016,144.068L241.063,144.068C249.953,144.068 257.171,140.563 257.171,136.245Z"/>
    </g>
    <g transform="matrix(0.0316062,0.0316062,0.0650821,-0.0650821,0.875496,8.06035)">
        <path d="M257.171,136.245C257.171,131.928 249.953,128.422 241.063,128.422L79.016,128.422C70.125,128.422 62.907,131.928 62.907,136.245C62.907,140.563 70.125,144.068 79.016,144.068L241.063,144.068C249.953,144.068 257.171,140.563 257.171,136.245Z"/>
    </g>
</svg>
