<?xml version="1.0" encoding="UTF-8" standalone="no"?>
<!DOCTYPE svg PUBLIC "-//W3C//DTD SVG 1.1//EN" "http://www.w3.org/Graphics/SVG/1.1/DTD/svg11.dtd">
<svg width="100%" height="100%" viewBox="0 0 24 24" version="1.1" xmlns="http://www.w3.org/2000/svg" xmlns:xlink="http://www.w3.org/1999/xlink" xml:space="preserve" xmlns:serif="http://www.serif.com/" style="fill-rule:evenodd;clip-rule:evenodd;stroke-linejoin:round;stroke-miterlimit:2;">
    <g transform="matrix(0.0563049,0,0,0.0563049,-2.86972,1.89994)">
        <circle cx="345.545" cy="241.746" r="34.678"/>
    </g>
    <g transform="matrix(0.048,0,0,0.048,0,0)">
        <path d="M260.647,389.671L260.647,349.764C260.647,341.697 254.491,335.147 246.909,335.147L158.23,335.147C150.648,335.147 144.492,341.697 144.492,349.764L144.492,483.539L43.93,483.539C41.489,483.539 39.184,482.955 37.148,481.919C32.273,479.441 28.93,474.377 28.93,468.539L28.93,26.66C28.93,18.381 35.651,11.66 43.93,11.66L358.237,11.66C366.516,11.66 373.237,18.381 373.237,26.66L373.237,268.785C364.924,264.538 355.512,262.143 345.545,262.143C332.126,262.143 319.713,266.484 309.636,273.838L309.636,214.814C309.636,211.659 307.075,209.099 303.921,209.099L228.562,209.099C225.408,209.099 222.847,211.659 222.847,214.814L222.847,285.186C222.847,288.341 225.408,290.901 228.562,290.901L293.757,290.901C287.913,300.259 284.533,311.315 284.533,323.154C284.533,341.651 292.782,358.236 305.797,369.427C289.148,373.863 273.732,380.888 260.647,389.671ZM179.798,214.814C179.798,211.659 177.237,209.099 174.083,209.099L98.724,209.099C95.57,209.099 93.009,211.659 93.009,214.814L93.009,285.186C93.009,288.341 95.57,290.901 98.724,290.901L174.083,290.901C177.237,290.901 179.798,288.341 179.798,285.186L179.798,214.814ZM309.636,84.36C309.636,81.206 307.075,78.645 303.921,78.645L228.562,78.645C225.408,78.645 222.847,81.206 222.847,84.36L222.847,154.733C222.847,157.887 225.408,160.448 228.562,160.448L303.921,160.448C307.075,160.448 309.636,157.887 309.636,154.733L309.636,84.36ZM179.798,84.36C179.798,81.206 177.237,78.645 174.083,78.645L98.724,78.645C95.57,78.645 93.009,81.206 93.009,84.36L93.009,154.733C93.009,157.887 95.57,160.448 98.724,160.448L174.083,160.448C177.237,160.448 179.798,157.887 179.798,154.733L179.798,84.36Z"/>
    </g>
    <g transform="matrix(0.048,0,0,0.048,0,1.62475)">
        <path d="M345.789,350.317C285.124,350.317 238.889,389.021 238.889,420.69C238.889,432.273 277.12,450.067 345.789,450.067C414.458,450.067 452.69,430.773 452.69,420.69C452.69,387.499 406.455,350.421 345.789,350.317Z"/>
    </g>
</svg>
