<?xml version="1.0" encoding="UTF-8" standalone="no"?>
<!DOCTYPE svg PUBLIC "-//W3C//DTD SVG 1.1//EN" "http://www.w3.org/Graphics/SVG/1.1/DTD/svg11.dtd">
<svg width="100%" height="100%" viewBox="0 0 24 24" version="1.1" xmlns="http://www.w3.org/2000/svg" xmlns:xlink="http://www.w3.org/1999/xlink" xml:space="preserve" xmlns:serif="http://www.serif.com/" style="fill-rule:evenodd;clip-rule:evenodd;stroke-linejoin:round;stroke-miterlimit:2;">
    <g transform="matrix(4.28528e-18,0.069984,-0.0149261,9.13962e-19,8.60148,10.4252)">
        <path d="M55.898,134.657C55.898,108.034 51.289,86.42 45.61,86.42C39.932,86.42 35.322,108.034 35.322,134.657L35.322,411.296C35.322,437.919 39.932,459.534 45.61,459.534C51.289,459.534 55.898,437.919 55.898,411.296L55.898,134.657Z"/>
    </g>
    <g transform="matrix(4.28528e-18,0.069984,-0.0157466,9.64199e-19,23.6184,10.4252)">
        <path d="M55.898,132.144C55.898,106.908 51.289,86.42 45.61,86.42C39.932,86.42 35.322,106.908 35.322,132.144L35.322,413.809C35.322,439.045 39.932,459.534 45.61,459.534C51.289,459.534 55.898,439.045 55.898,413.809L55.898,132.144Z"/>
    </g>
    <g transform="matrix(-0.0657634,0.0239359,-0.00675248,-0.0185523,12.466,20.3964)">
        <path d="M55.898,122.888C55.898,102.761 51.289,86.42 45.61,86.42C39.932,86.42 35.322,102.761 35.322,122.888L35.322,423.065C35.322,443.193 39.932,459.534 45.61,459.534C51.289,459.534 55.898,443.193 55.898,423.065L55.898,122.888Z"/>
    </g>
    <g transform="matrix(0.0657634,0.0239359,0.0153408,-0.0421484,4.07141,22.392)">
        <path d="M55.898,102.472C55.898,93.613 51.289,86.42 45.61,86.42C39.932,86.42 35.322,93.613 35.322,102.472L35.322,443.481C35.322,452.341 39.932,459.534 45.61,459.534C51.289,459.534 55.898,452.341 55.898,443.481L55.898,102.472Z"/>
    </g>
    <g transform="matrix(-0.0657634,0.0239359,-0.00985199,-0.0270681,21.171,15.5057)">
        <path d="M55.898,111.415C55.898,97.62 51.289,86.42 45.61,86.42C39.932,86.42 35.322,97.62 35.322,111.415L35.322,434.538C35.322,448.334 39.932,459.534 45.61,459.534C51.289,459.534 55.898,448.334 55.898,434.538L55.898,111.415Z"/>
    </g>
</svg>
