<?xml version="1.0" encoding="UTF-8" standalone="no"?>
<!DOCTYPE svg PUBLIC "-//W3C//DTD SVG 1.1//EN" "http://www.w3.org/Graphics/SVG/1.1/DTD/svg11.dtd">
<svg width="100%" height="100%" viewBox="0 0 24 24" version="1.1" xmlns="http://www.w3.org/2000/svg" xmlns:xlink="http://www.w3.org/1999/xlink" xml:space="preserve" xmlns:serif="http://www.serif.com/" style="fill-rule:evenodd;clip-rule:evenodd;stroke-linejoin:round;stroke-miterlimit:2;">
    <g transform="matrix(0.048,0,0,0.048,0,0)">
        <path d="M64.101,170.185L64.101,105.624C64.101,97.929 69.908,91.58 77.376,90.722L77.421,90.717C77.972,90.656 78.533,90.624 79.101,90.624L443.497,90.624C444.296,90.624 445.08,90.687 445.845,90.807L445.889,90.814C453.032,91.961 458.497,98.159 458.497,105.624L458.497,394.376C458.492,396.01 458.233,397.636 457.708,399.185C457.116,400.933 456.196,402.567 455.012,403.984C453.681,405.578 452.021,406.891 450.161,407.816C448.838,408.474 447.422,408.927 445.966,409.173L445.845,409.193C445.08,409.313 444.296,409.376 443.497,409.376L79.101,409.376C78.62,409.374 78.141,409.352 77.663,409.308L77.567,409.298C70.008,408.53 64.101,402.137 64.101,394.376L64.101,329.815L190.701,329.815C234.751,329.815 270.515,294.051 270.515,250C270.515,205.949 234.751,170.185 190.701,170.185L190.701,170.186C190.665,170.185 190.629,170.185 190.593,170.185L64.101,170.185Z"/>
    </g>
    <g transform="matrix(0.048,0,0,0.048,0,0)">
        <path d="M190.701,200.185L29.503,200.185L29.503,299.815L190.701,299.815C218.194,299.815 240.515,277.494 240.515,250C240.515,222.506 218.194,200.185 190.701,200.185ZM190.616,226.167C203.77,226.167 214.45,236.846 214.45,250C214.45,263.154 203.77,273.833 190.616,273.833C177.462,273.833 166.783,263.154 166.783,250C166.783,236.846 177.462,226.167 190.616,226.167Z"/>
    </g>
</svg>
