<?xml version="1.0" encoding="UTF-8" standalone="no"?>
<!DOCTYPE svg PUBLIC "-//W3C//DTD SVG 1.1//EN" "http://www.w3.org/Graphics/SVG/1.1/DTD/svg11.dtd">
<svg width="100%" height="100%" viewBox="0 0 24 24" version="1.1" xmlns="http://www.w3.org/2000/svg" xmlns:xlink="http://www.w3.org/1999/xlink" xml:space="preserve" xmlns:serif="http://www.serif.com/" style="fill-rule:evenodd;clip-rule:evenodd;stroke-linejoin:round;stroke-miterlimit:2;">
    <g transform="matrix(0.048,0,0,0.048,0,-0.72)">
        <path d="M46.243,165.047C47.498,162.344 49.567,159.988 52.341,158.386L242.484,48.607C247.119,45.931 252.595,46.014 257.006,48.344C257.272,48.477 257.537,48.619 257.799,48.77L447.659,158.386C450.433,159.988 452.502,162.344 453.757,165.047C454.648,166.954 455.15,169.081 455.159,171.323L455.159,171.383L455.159,171.398C455.159,171.934 455.13,172.471 455.072,173.008L455.067,173.051L455.061,173.104L455.057,173.142L455.054,173.164L455.05,173.198L455.046,173.237C454.725,175.831 453.741,178.221 452.268,180.232C451.244,181.635 450.01,182.815 448.635,183.754C446.225,185.408 443.308,186.377 440.165,186.377L59.835,186.377C56.692,186.377 53.775,185.408 51.365,183.754C49.99,182.815 48.756,181.634 47.732,180.232C46.259,178.222 45.275,175.832 44.954,173.237L44.95,173.198L44.946,173.164L44.943,173.142L44.939,173.104L44.933,173.051L44.928,173.008C44.87,172.472 44.841,171.935 44.841,171.398L44.841,171.383L44.841,171.323C44.85,169.081 45.351,166.955 46.243,165.047Z"/>
    </g>
    <g transform="matrix(0.048,0,0,0.048,0,0)">
        <path d="M44.841,201.371L44.841,429.016C44.841,437.295 51.562,444.016 59.841,444.016C60.173,444.016 60.502,444.005 60.829,443.984C61.155,444.005 61.485,444.016 61.817,444.016L108.333,444.016C116.612,444.016 123.333,437.295 123.333,429.016C123.333,428.164 123.262,427.329 123.125,426.516C123.262,425.703 123.333,424.868 123.333,424.016L123.333,259.956L376.667,259.956L376.667,429.016C376.667,437.295 383.388,444.016 391.667,444.016C391.999,444.016 392.328,444.005 392.655,443.984C392.981,444.005 393.31,444.016 393.642,444.016L440.159,444.016C448.438,444.016 455.159,437.295 455.159,429.016L455.159,201.371C455.159,193.095 448.441,186.377 440.165,186.377L59.835,186.377C51.559,186.377 44.841,193.095 44.841,201.371L44.841,201.371Z"/>
    </g>
    <g transform="matrix(0.0465408,0,0,0.0465408,3.97983,1.09826)">
        <rect x="180.061" y="355.79" width="78.549" height="78.549"/>
    </g>
    <g transform="matrix(0.0465408,0,0,0.0465408,-0.39591,1.09826)">
        <rect x="180.061" y="355.79" width="78.549" height="78.549"/>
    </g>
    <g transform="matrix(0.0465408,0,0,0.0465408,1.78131,-3.27747)">
        <rect x="180.061" y="355.79" width="78.549" height="78.549"/>
    </g>
</svg>
