<?xml version="1.0" encoding="UTF-8" standalone="no"?>
<!DOCTYPE svg PUBLIC "-//W3C//DTD SVG 1.1//EN" "http://www.w3.org/Graphics/SVG/1.1/DTD/svg11.dtd">
<svg width="100%" height="100%" viewBox="0 0 24 24" version="1.1" xmlns="http://www.w3.org/2000/svg" xmlns:xlink="http://www.w3.org/1999/xlink" xml:space="preserve" xmlns:serif="http://www.serif.com/" style="fill-rule:evenodd;clip-rule:evenodd;stroke-linejoin:round;stroke-miterlimit:2;">
    <g transform="matrix(0.048,0,0,0.048,0,0)">
        <path d="M249.684,75.82C280.039,75.82 304.684,100.465 304.684,130.82C304.684,161.175 280.039,185.82 249.684,185.82C219.329,185.82 194.684,161.175 194.684,130.82C194.684,100.465 219.329,75.82 249.684,75.82ZM249.684,105.82C263.482,105.82 274.684,117.022 274.684,130.82C274.684,144.618 263.482,155.82 249.684,155.82C235.886,155.82 224.684,144.618 224.684,130.82C224.684,117.022 235.886,105.82 249.684,105.82Z"/>
    </g>
    <g transform="matrix(0.048,0,0,0.048,0,0)">
        <path d="M100.561,168.121C102.745,166.88 105.269,166.171 107.958,166.171L391.899,166.171C395.777,166.171 399.314,167.646 401.978,170.066C404.519,172.006 406.463,174.77 407.354,178.095L470.836,415.012C471.197,416.359 471.362,417.712 471.349,419.041C471.35,419.087 471.35,419.134 471.35,419.18C471.35,427.459 464.629,434.18 456.35,434.18L43.722,434.18C35.444,434.18 28.722,427.459 28.722,419.18C28.722,419.087 28.723,418.995 28.725,418.901C28.7,417.531 28.864,416.133 29.236,414.742L92.762,177.661C93.919,173.345 96.85,169.973 100.561,168.121Z"/>
    </g>
</svg>
