<?xml version="1.0" encoding="UTF-8" standalone="no"?>
<!DOCTYPE svg PUBLIC "-//W3C//DTD SVG 1.1//EN" "http://www.w3.org/Graphics/SVG/1.1/DTD/svg11.dtd">
<svg width="100%" height="100%" viewBox="0 0 24 24" version="1.1" xmlns="http://www.w3.org/2000/svg" xmlns:xlink="http://www.w3.org/1999/xlink" xml:space="preserve" xmlns:serif="http://www.serif.com/" style="fill-rule:evenodd;clip-rule:evenodd;stroke-linejoin:round;stroke-miterlimit:2;">
    <g transform="matrix(0.11243,-4.08083e-17,1.52367e-17,0.09204,-5.99312,-0.54)">
        <path d="M257.171,136.245C257.171,131.928 254.301,128.422 250.767,128.422L69.311,128.422C65.777,128.422 62.907,131.928 62.907,136.245C62.907,140.563 65.777,144.068 69.311,144.068L250.767,144.068C254.301,144.068 257.171,140.563 257.171,136.245Z"/>
    </g>
    <g transform="matrix(0.0316062,-0.0316062,0.0650821,0.0650821,-9.56511,5.6303)">
        <path d="M257.171,136.245C257.171,131.928 249.953,128.422 241.063,128.422L79.016,128.422C70.125,128.422 62.907,131.928 62.907,136.245C62.907,140.563 70.125,144.068 79.016,144.068L241.063,144.068C249.953,144.068 257.171,140.563 257.171,136.245Z"/>
    </g>
    <g transform="matrix(0.0316062,0.0316062,-0.0650821,0.0650821,8.16919,0.635463)">
        <path d="M257.171,136.245C257.171,131.928 249.953,128.422 241.063,128.422L79.016,128.422C70.125,128.422 62.907,131.928 62.907,136.245C62.907,140.563 70.125,144.068 79.016,144.068L241.063,144.068C249.953,144.068 257.171,140.563 257.171,136.245Z"/>
    </g>
    <g transform="matrix(-0.0316062,-0.0316062,-0.0650821,0.0650821,33.5651,5.6303)">
        <path d="M257.171,136.245C257.171,131.928 249.953,128.422 241.063,128.422L79.016,128.422C70.125,128.422 62.907,131.928 62.907,136.245C62.907,140.563 70.125,144.068 79.016,144.068L241.063,144.068C249.953,144.068 257.171,140.563 257.171,136.245Z"/>
    </g>
    <g transform="matrix(-0.0316062,0.0316062,0.0650821,0.0650821,15.8308,0.635463)">
        <path d="M257.171,136.245C257.171,131.928 249.953,128.422 241.063,128.422L79.016,128.422C70.125,128.422 62.907,131.928 62.907,136.245C62.907,140.563 70.125,144.068 79.016,144.068L241.063,144.068C249.953,144.068 257.171,140.563 257.171,136.245Z"/>
    </g>
</svg>
