<?xml version="1.0" encoding="UTF-8" standalone="no"?>
<!DOCTYPE svg PUBLIC "-//W3C//DTD SVG 1.1//EN" "http://www.w3.org/Graphics/SVG/1.1/DTD/svg11.dtd">
<svg width="100%" height="100%" viewBox="0 0 24 24" version="1.1" xmlns="http://www.w3.org/2000/svg" xmlns:xlink="http://www.w3.org/1999/xlink" xml:space="preserve" xmlns:serif="http://www.serif.com/" style="fill-rule:evenodd;clip-rule:evenodd;stroke-linejoin:round;stroke-miterlimit:2;">
    <g transform="matrix(0.048,0,0,0.048,0,0)">
        <path d="M430,24.89L460,24.89L460,114.89L459.89,114.89C445.733,114.913 431.586,115.734 417.529,117.433C393.429,120.346 369.639,125.78 346.67,133.638C321.867,142.124 298.038,153.429 275.762,167.248C252.822,181.478 231.539,198.364 212.451,217.451C193.364,236.539 176.478,257.822 162.248,280.762C148.429,303.038 137.124,326.867 128.638,351.67C120.899,374.291 115.511,397.708 112.567,421.434C110.825,435.476 109.959,449.611 109.892,463.759L109.89,464.89L100.881,464.89L100.881,465L19.89,465L19.89,435L20.892,435L20.922,434.551C21.339,428.513 21.87,422.484 22.529,416.469C23.835,404.569 25.625,392.722 27.899,380.968C33.092,354.124 40.811,327.774 50.925,302.373C62.015,274.521 75.978,247.821 92.502,222.809C109.379,197.263 128.919,173.483 150.697,151.963C172.322,130.594 196.15,111.457 221.692,94.966C246.518,78.938 272.958,65.416 300.495,54.696C325.358,45.017 351.106,37.625 377.316,32.64C388.627,30.489 400.023,28.785 411.469,27.529C417.484,26.87 423.513,26.339 429.551,25.922L430,25.892L430,24.89ZM144.881,464.89L139.89,464.89C139.89,288.277 283.277,144.89 459.89,144.89L460,144.89L460,234.89L459.89,234.89C450.587,234.905 441.29,235.445 432.053,236.561C416.216,238.475 400.582,242.046 385.488,247.21C352.373,258.54 322.031,277.544 297.288,302.288C272.544,327.031 253.54,357.373 242.21,390.488C237.125,405.353 233.584,420.742 231.649,436.333C230.504,445.561 229.936,454.849 229.891,464.147L229.89,464.89L228,464.89L228,465L144.881,465L144.881,464.89ZM272,464.89L260,464.89C260,354.568 349.568,265 459.89,265L460,265L460,354.891L459.89,354.89C455.671,354.904 451.459,355.128 447.267,355.608C439.345,356.515 431.524,358.288 423.988,360.892C408.691,366.178 394.64,374.891 383.063,386.196C371.015,397.96 361.714,412.468 356.114,428.352C353.466,435.865 351.645,443.668 350.689,451.577C350.184,455.76 349.933,459.966 349.893,464.179L349.89,464.89L342,464.89L342,465L272,465L272,464.89ZM386,464.89L379.89,464.89C379.89,420.737 415.737,384.89 459.89,384.89L460,384.891L460,465L386,465L386,464.89Z"/>
    </g>
</svg>
