<?xml version="1.0" encoding="UTF-8" standalone="no"?>
<!DOCTYPE svg PUBLIC "-//W3C//DTD SVG 1.1//EN" "http://www.w3.org/Graphics/SVG/1.1/DTD/svg11.dtd">
<svg width="100%" height="100%" viewBox="0 0 24 24" version="1.1" xmlns="http://www.w3.org/2000/svg" xmlns:xlink="http://www.w3.org/1999/xlink" xml:space="preserve" xmlns:serif="http://www.serif.com/" style="fill-rule:evenodd;clip-rule:evenodd;stroke-linejoin:round;stroke-miterlimit:2;">
    <g transform="matrix(0.048,0,0,0.0654545,0.476596,-6.01895)">
        <path d="M412.071,430.047C412.071,423.976 405.35,419.047 397.071,419.047L83.071,419.047C74.792,419.047 68.071,423.976 68.071,430.047C68.071,436.118 74.792,441.047 83.071,441.047L397.071,441.047C405.35,441.047 412.071,436.118 412.071,430.047Z"/>
    </g>
    <g transform="matrix(6.32259e-19,0.0103256,-0.0654545,4.00793e-18,32.6125,18.5947)">
        <path d="M412.071,430.047C412.071,423.976 380.826,419.047 342.341,419.047L137.801,419.047C99.316,419.047 68.071,423.976 68.071,430.047C68.071,436.118 99.316,441.047 137.801,441.047L342.341,441.047C380.826,441.047 412.071,436.118 412.071,430.047Z"/>
    </g>
    <g transform="matrix(6.32259e-19,0.0103256,-0.0654545,4.00793e-18,47.683,18.5947)">
        <path d="M412.071,430.047C412.071,423.976 380.826,419.047 342.341,419.047L137.801,419.047C99.316,419.047 68.071,423.976 68.071,430.047C68.071,436.118 99.316,441.047 137.801,441.047L342.341,441.047C380.826,441.047 412.071,436.118 412.071,430.047Z"/>
    </g>
    <g transform="matrix(9.99653e-19,-0.0163256,0.0654545,4.00793e-18,-16.1485,7.30174)">
        <path d="M412.071,430.047C412.071,423.976 392.309,419.047 367.968,419.047L112.173,419.047C87.833,419.047 68.071,423.976 68.071,430.047C68.071,436.118 87.833,441.047 112.173,441.047L367.968,441.047C392.309,441.047 412.071,436.118 412.071,430.047Z"/>
    </g>
    <g transform="matrix(-0.00881039,-0.00881039,0.0462834,-0.0462834,-4.78261,24.3197)">
        <path d="M412.071,430.047C412.071,423.976 386.178,419.047 354.285,419.047L125.857,419.047C93.964,419.047 68.071,423.976 68.071,430.047C68.071,436.118 93.964,441.047 125.857,441.047L354.285,441.047C386.178,441.047 412.071,436.118 412.071,430.047Z"/>
    </g>
    <g transform="matrix(0.00881039,-0.00881039,0.0462834,0.0462834,-11.0254,-15.4883)">
        <path d="M412.071,430.047C412.071,423.976 386.178,419.047 354.285,419.047L125.857,419.047C93.964,419.047 68.071,423.976 68.071,430.047C68.071,436.118 93.964,441.047 125.857,441.047L354.285,441.047C386.178,441.047 412.071,436.118 412.071,430.047Z"/>
    </g>
    <g transform="matrix(0.048,0,0,0.048,0,0)">
        <path d="M250,434.032C161.694,434.032 90,362.339 90,274.032C90,185.726 161.694,114.032 250,114.032C338.306,114.032 410,185.726 410,274.032C410,362.339 338.306,434.032 250,434.032ZM210.387,274.134L250.85,274.134L250.85,274.14C251.04,274.136 251.232,274.134 251.425,274.134C266.603,274.134 278.925,286.457 278.925,301.634C278.925,316.812 266.603,329.134 251.425,329.134C238.348,329.134 227.391,319.987 224.608,307.748C224.161,305.782 223.925,303.735 223.925,301.634C223.925,285.302 193.925,285.302 193.925,301.634C193.925,303.686 194.033,305.713 194.243,307.71C197.282,336.593 221.742,359.134 251.425,359.134C283.16,359.134 308.925,333.369 308.925,301.634C308.925,269.899 283.16,244.134 251.425,244.134C251.131,244.134 250.84,244.14 250.552,244.151C250.319,244.14 250.085,244.134 249.85,244.134L225.387,244.134L225.387,216.931L283.59,216.931C291.869,216.931 298.59,210.209 298.59,201.931C298.59,193.652 291.869,186.931 283.59,186.931L210.387,186.931C202.108,186.931 195.387,193.652 195.387,201.931L195.387,259.134C195.387,260.978 195.72,262.744 196.329,264.376L196.343,264.413C198.482,270.091 203.966,274.134 210.387,274.134Z"/>
    </g>
</svg>
