<?xml version="1.0" encoding="UTF-8" standalone="no"?>
<!DOCTYPE svg PUBLIC "-//W3C//DTD SVG 1.1//EN" "http://www.w3.org/Graphics/SVG/1.1/DTD/svg11.dtd">
<svg width="100%" height="100%" viewBox="0 0 120 120" version="1.1" xmlns="http://www.w3.org/2000/svg" xmlns:xlink="http://www.w3.org/1999/xlink" xml:space="preserve" xmlns:serif="http://www.serif.com/" style="fill-rule:evenodd;clip-rule:evenodd;stroke-linejoin:round;stroke-miterlimit:2;">
    <g transform="matrix(0.24,0,0,0.24,0,0)">
        <g transform="matrix(1,0,0,-1,-18.8062,500)">
            <path d="M131.306,148.174L111.306,148.174L111.306,468.145C111.306,473.664 115.787,478.145 121.306,478.145C126.825,478.145 131.306,473.664 131.306,468.145L131.306,148.174ZM111.306,90.59L131.306,90.59L131.306,31.855C131.306,26.336 126.825,21.855 121.306,21.855C115.787,21.855 111.306,26.336 111.306,31.855L111.306,90.59Z" style="fill:rgb(174,174,174);"/>
        </g>
        <g transform="matrix(1,0,0,-1,276.194,500)">
            <path d="M131.306,148.174L111.306,148.174L111.306,468.145C111.306,473.664 115.787,478.145 121.306,478.145C126.825,478.145 131.306,473.664 131.306,468.145L131.306,148.174ZM111.306,90.59L131.306,90.59L131.306,31.855C131.306,26.336 126.825,21.855 121.306,21.855C115.787,21.855 111.306,26.336 111.306,31.855L111.306,90.59Z" style="fill:rgb(174,174,174);"/>
        </g>
        <g transform="matrix(1,0,0,1,128.694,0)">
            <path d="M131.306,148.174L111.306,148.174L111.306,468.145C111.306,473.664 115.787,478.145 121.306,478.145C126.825,478.145 131.306,473.664 131.306,468.145L131.306,148.174ZM111.306,90.59L131.306,90.59L131.306,31.855C131.306,26.336 126.825,21.855 121.306,21.855C115.787,21.855 111.306,26.336 111.306,31.855L111.306,90.59Z" style="fill:rgb(174,174,174);"/>
        </g>
        <g transform="matrix(1,0,0,-1,-17.2331,474.017)">
            <path d="M182.233,67.697C182.233,60.953 176.758,55.478 170.014,55.478L69.452,55.478C62.708,55.478 57.233,60.953 57.233,67.697L57.233,124.719C57.233,131.463 62.708,136.938 69.452,136.938L170.014,136.938C176.758,136.938 182.233,131.463 182.233,124.719L182.233,67.697Z" style="fill:rgb(224,74,58);"/>
        </g>
        <g transform="matrix(1,0,0,-1,277.767,474.017)">
            <path d="M182.233,67.697C182.233,60.953 176.758,55.478 170.014,55.478L69.452,55.478C62.708,55.478 57.233,60.953 57.233,67.697L57.233,124.719C57.233,131.463 62.708,136.938 69.452,136.938L170.014,136.938C176.758,136.938 182.233,131.463 182.233,124.719L182.233,67.697Z" style="fill:rgb(247,192,26);"/>
        </g>
        <g transform="matrix(1,0,0,1,130.267,25.9831)">
            <path d="M182.233,67.697C182.233,60.953 176.758,55.478 170.014,55.478L69.452,55.478C62.708,55.478 57.233,60.953 57.233,67.697L57.233,124.719C57.233,131.463 62.708,136.938 69.452,136.938L170.014,136.938C176.758,136.938 182.233,131.463 182.233,124.719L182.233,67.697Z" style="fill:rgb(109,219,232);"/>
        </g>
    </g>
</svg>
