<?xml version="1.0" encoding="UTF-8" standalone="no"?>
<!DOCTYPE svg PUBLIC "-//W3C//DTD SVG 1.1//EN" "http://www.w3.org/Graphics/SVG/1.1/DTD/svg11.dtd">
<svg width="100%" height="100%" viewBox="0 0 6 6" version="1.1" xmlns="http://www.w3.org/2000/svg" xmlns:xlink="http://www.w3.org/1999/xlink" xml:space="preserve" xmlns:serif="http://www.serif.com/" style="fill-rule:evenodd;clip-rule:evenodd;stroke-linejoin:round;stroke-miterlimit:2;">
    <g transform="matrix(0.24,0,0,0.24,0,0)">
        <g transform="matrix(0.048009,0,0,-0.0514844,0.196672,25.6606)">
            <path d="M465.815,463.052C465.815,457.907 461.335,453.729 455.817,453.729L35.896,453.729C30.378,453.729 25.898,457.907 25.898,463.052C25.898,468.198 30.378,472.376 35.896,472.376L455.817,472.376C461.335,472.376 465.815,468.198 465.815,463.052Z" style="fill:rgb(49,71,111);"/>
        </g>
        <g transform="matrix(0.048009,0,0,-0.0514844,0.196672,45.5169)">
            <path d="M465.815,463.052C465.815,457.907 461.335,453.729 455.817,453.729L35.896,453.729C30.378,453.729 25.898,457.907 25.898,463.052C25.898,468.198 30.378,472.376 35.896,472.376L455.817,472.376C461.335,472.376 465.815,468.198 465.815,463.052Z" style="fill:rgb(49,71,111);"/>
        </g>
        <g transform="matrix(0.048009,0,0,-0.0514844,0.196672,35.5887)">
            <path d="M465.815,463.052C465.815,457.907 461.335,453.729 455.817,453.729L35.896,453.729C30.378,453.729 25.898,457.907 25.898,463.052C25.898,468.198 30.378,472.376 35.896,472.376L455.817,472.376C461.335,472.376 465.815,468.198 465.815,463.052Z" style="fill:rgb(49,71,111);"/>
        </g>
        <g transform="matrix(0.0260059,-2.69461e-18,2.88967e-18,-0.0514844,0.766505,30.6246)">
            <path d="M465.815,463.052C465.815,457.907 457.544,453.729 447.358,453.729L44.355,453.729C34.168,453.729 25.898,457.907 25.898,463.052C25.898,468.198 34.168,472.376 44.355,472.376L447.358,472.376C457.544,472.376 465.815,468.198 465.815,463.052Z" style="fill:rgb(49,71,111);"/>
        </g>
        <g transform="matrix(0.0260059,-2.69461e-18,2.88967e-18,-0.0514844,0.766505,40.5528)">
            <path d="M465.815,463.052C465.815,457.907 457.544,453.729 447.358,453.729L44.355,453.729C34.168,453.729 25.898,457.907 25.898,463.052C25.898,468.198 34.168,472.376 44.355,472.376L447.358,472.376C457.544,472.376 465.815,468.198 465.815,463.052Z" style="fill:rgb(49,71,111);"/>
        </g>
    </g>
</svg>
