<?xml version="1.0" encoding="UTF-8" standalone="no"?>
<!DOCTYPE svg PUBLIC "-//W3C//DTD SVG 1.1//EN" "http://www.w3.org/Graphics/SVG/1.1/DTD/svg11.dtd">
<svg width="100%" height="100%" viewBox="0 0 6 6" version="1.1" xmlns="http://www.w3.org/2000/svg" xmlns:xlink="http://www.w3.org/1999/xlink" xml:space="preserve" xmlns:serif="http://www.serif.com/" style="fill-rule:evenodd;clip-rule:evenodd;stroke-linejoin:round;stroke-miterlimit:2;">
    <g transform="matrix(0.24,0,0,0.24,0,0)">
        <g transform="matrix(0.048009,0,0,0.0514844,0.196672,-1.58099)">
            <path d="M465.815,463.052C465.815,457.907 461.335,453.729 455.817,453.729L35.896,453.729C30.378,453.729 25.898,457.907 25.898,463.052C25.898,468.198 30.378,472.376 35.896,472.376L455.817,472.376C461.335,472.376 465.815,468.198 465.815,463.052Z" style="fill:rgb(49,52,53);"/>
        </g>
        <g transform="matrix(0.048,0,0,0.048,0,0)">
            <path d="M30,37.928L30,413.729C30,419.248 34.481,423.729 40,423.729L218.978,423.729C224.497,423.729 228.978,419.248 228.978,413.729L228.978,37.928C228.978,32.409 224.497,27.928 218.978,27.928L40,27.928C34.481,27.928 30,32.409 30,37.928Z" style="fill:rgb(247,192,26);"/>
        </g>
        <g transform="matrix(0.048,0,0,0.048,0,0)">
            <path d="M271.022,281.022L271.022,413.729C271.022,419.248 275.503,423.729 281.022,423.729L460,423.729C465.519,423.729 470,419.248 470,413.729L470,281.022C470,275.503 465.519,271.022 460,271.022L281.022,271.022C275.503,271.022 271.022,275.503 271.022,281.022Z" style="fill:rgb(103,103,103);"/>
        </g>
    </g>
</svg>
