<?xml version="1.0" encoding="UTF-8" standalone="no"?>
<!DOCTYPE svg PUBLIC "-//W3C//DTD SVG 1.1//EN" "http://www.w3.org/Graphics/SVG/1.1/DTD/svg11.dtd">
<svg width="100%" height="100%" viewBox="0 0 6 6" version="1.1" xmlns="http://www.w3.org/2000/svg" xmlns:xlink="http://www.w3.org/1999/xlink" xml:space="preserve" xmlns:serif="http://www.serif.com/" style="fill-rule:evenodd;clip-rule:evenodd;stroke-linejoin:round;stroke-miterlimit:2;">
    <g transform="matrix(0.24,0,0,0.24,0,0)">
        <g transform="matrix(3.52108e-18,0.0385145,0.0514844,-1.9056e-18,-11.84,4.86002)">
            <path d="M465.815,463.052C465.815,457.907 460.231,453.729 453.352,453.729L38.361,453.729C31.482,453.729 25.898,457.907 25.898,463.052C25.898,468.198 31.482,472.376 38.361,472.376L453.352,472.376C460.231,472.376 465.815,468.198 465.815,463.052Z" style="fill:rgb(49,71,111);"/>
        </g>
        <g transform="matrix(-0.0189227,5.87941e-18,2.48512e-18,0.0514844,16.6523,-14.2513)">
            <path d="M465.815,463.052C465.815,457.907 454.449,453.729 440.449,453.729L51.264,453.729C37.264,453.729 25.898,457.907 25.898,463.052C25.898,468.198 37.264,472.376 51.264,472.376L440.449,472.376C454.449,472.376 465.815,468.198 465.815,463.052Z" style="fill:rgb(49,71,111);"/>
        </g>
        <g transform="matrix(0.048,0,0,0.048,-0.907624,0.276464)">
            <path d="M268.909,11.74C302.024,11.74 328.909,38.625 328.909,71.74C328.909,104.855 302.024,131.74 268.909,131.74C235.794,131.74 208.909,104.855 208.909,71.74C208.909,38.625 235.794,11.74 268.909,11.74ZM268.909,31.74C290.985,31.74 308.909,49.664 308.909,71.74C308.909,93.817 290.985,111.74 268.909,111.74C246.832,111.74 228.909,93.817 228.909,71.74C228.909,49.664 246.832,31.74 268.909,31.74Z" style="fill:rgb(104,154,238);"/>
        </g>
        <g transform="matrix(0.048,0,0,0.048,-0.907624,0.276464)">
            <path d="M458.909,244.176C458.944,238.686 463.411,234.24 468.909,234.24C474.428,234.24 478.909,238.721 478.909,244.24C478.909,372.561 384.811,476.74 268.909,476.74C153.007,476.74 58.909,372.561 58.909,244.24L58.909,244.176C58.944,238.686 63.411,234.24 68.909,234.24C74.428,234.24 78.909,238.721 78.909,244.24C78.909,361.522 164.045,456.74 268.909,456.74C373.773,456.74 458.909,361.522 458.909,244.24L458.909,244.176Z" style="fill:rgb(49,71,111);"/>
        </g>
    </g>
</svg>
