<?xml version="1.0" encoding="UTF-8" standalone="no"?>
<!DOCTYPE svg PUBLIC "-//W3C//DTD SVG 1.1//EN" "http://www.w3.org/Graphics/SVG/1.1/DTD/svg11.dtd">
<svg width="100%" height="100%" viewBox="0 0 6 6" version="1.1" xmlns="http://www.w3.org/2000/svg" xmlns:xlink="http://www.w3.org/1999/xlink" xml:space="preserve" xmlns:serif="http://www.serif.com/" style="fill-rule:evenodd;clip-rule:evenodd;stroke-linejoin:round;stroke-miterlimit:2;">
    <g transform="matrix(0.24,0,0,0.24,0,0)">
        <g transform="matrix(0.048,0,0,0.048,0.829976,1.488)">
            <rect x="55.418" y="156.94" width="80" height="240" style="fill:rgb(167,167,167);"/>
        </g>
        <g transform="matrix(0.048,0,0,0.048,7.41995,1.488)">
            <rect x="55.418" y="156.94" width="80" height="240" style="fill:rgb(167,167,167);"/>
        </g>
        <g transform="matrix(0.048,0,0,0.048,14.0099,1.488)">
            <rect x="55.418" y="156.94" width="80" height="240" style="fill:rgb(167,167,167);"/>
        </g>
        <g transform="matrix(0.0418253,0,0,0.04,2.24598,3.62352)">
            <path d="M466.418,410.94C466.418,404.317 461.275,398.94 454.941,398.94L11.476,398.94C5.142,398.94 0,404.317 0,410.94C0,417.563 5.142,422.94 11.476,422.94L454.941,422.94C461.275,422.94 466.418,417.563 466.418,410.94Z" style="fill:rgb(39,39,39);"/>
        </g>
        <g transform="matrix(0.048,0,0,0.048,0,0)">
            <path d="M438.209,166.6L61.791,166.6C57.011,169.36 50.89,167.72 48.131,162.94C45.371,158.16 47.011,152.039 51.791,149.28L245.038,37.709C248.511,35.703 252.693,36.021 255.778,38.18L448.209,149.28C452.988,152.039 454.629,158.16 451.869,162.94C449.109,167.72 442.988,169.36 438.209,166.6Z" style="fill:rgb(208,208,208);"/>
        </g>
        <g transform="matrix(0.048,0,0,0.048,0,0)">
            <path d="M443.209,147.94L56.791,147.94C55.919,147.94 55.072,148.052 54.265,148.262C49.967,149.383 46.791,153.293 46.791,157.94L46.791,197.94C46.791,202.587 49.967,206.497 54.265,207.618C55.072,207.828 55.919,207.94 56.791,207.94L443.209,207.94C444.081,207.94 444.928,207.828 445.735,207.618L445.767,207.609C446.67,207.368 447.538,207.004 448.341,206.523C450.383,205.298 451.953,203.348 452.703,201.088C453.039,200.073 453.205,199.009 453.209,197.94L453.209,157.94C453.209,153.293 450.033,149.383 445.735,148.262L445.707,148.255C444.889,148.047 444.052,147.943 443.209,147.94Z" style="fill:rgb(105,105,105);"/>
        </g>
        <g transform="matrix(0.0486175,0,0,0.04,0.661976,5.54352)">
            <path d="M466.418,410.94C466.418,404.317 461.994,398.94 456.545,398.94L9.873,398.94C4.424,398.94 0,404.317 0,410.94C0,417.563 4.424,422.94 9.873,422.94L456.545,422.94C461.994,422.94 466.418,417.563 466.418,410.94Z" style="fill:rgb(39,39,39);"/>
        </g>
    </g>
</svg>
