<?xml version="1.0" encoding="UTF-8" standalone="no"?>
<!DOCTYPE svg PUBLIC "-//W3C//DTD SVG 1.1//EN" "http://www.w3.org/Graphics/SVG/1.1/DTD/svg11.dtd">
<svg width="100%" height="100%" viewBox="0 0 500 500" version="1.1" xmlns="http://www.w3.org/2000/svg" xmlns:xlink="http://www.w3.org/1999/xlink" xml:space="preserve" xmlns:serif="http://www.serif.com/" style="fill-rule:evenodd;clip-rule:evenodd;stroke-linejoin:round;stroke-miterlimit:2;">
    <path d="M373.529,98.269C373.529,84.795 362.59,73.856 349.117,73.856L145.079,73.856C131.606,73.856 120.667,84.795 120.667,98.269L120.667,439.911C120.667,453.385 131.606,464.324 145.079,464.324L349.117,464.324C362.59,464.324 373.529,453.385 373.529,439.911L373.529,98.269Z" style="fill:white;"/>
    <g transform="matrix(1,0,0,1,-10,-0.599116)">
        <path d="M306.5,43.27C306.5,35.27 300.005,28.775 292.005,28.775L227.995,28.775C219.995,28.775 213.5,35.27 213.5,43.27L213.5,72.261C213.5,80.262 219.995,86.757 227.995,86.757L292.005,86.757C300.005,86.757 306.5,80.262 306.5,72.261L306.5,43.27Z" style="fill:rgb(168,167,162);"/>
    </g>
    <g transform="matrix(1,0,0,1,-10,-3.59912)">
        <path d="M299.769,359.423L299.769,180.667L130.667,180.667L130.667,437.922L157.412,467.923L364.648,466.415L389.333,434.654L389.333,180.667L321.103,180.667L321.103,359.423C321.103,365.31 316.323,370.09 310.436,370.09C304.549,370.09 299.769,365.31 299.769,359.423Z" style="fill:rgb(101,152,54);"/>
    </g>
    <g transform="matrix(1,0,0,1,-10,-3.59912)">
        <path d="M396,110.561C396,88.043 377.718,69.761 355.2,69.761L164.8,69.761C142.282,69.761 124,88.043 124,110.561L124,434.623C124,457.142 142.282,475.423 164.8,475.423L355.2,475.423C377.718,475.423 396,457.142 396,434.623L396,110.561ZM376,110.414C376,99.015 366.745,89.761 355.346,89.761L164.654,89.761C153.255,89.761 144,99.015 144,110.414L144,434.77C144,446.169 153.255,455.423 164.654,455.423L355.346,455.423C366.745,455.423 376,446.169 376,434.77L376,110.414Z" style="fill:rgb(34,34,34);"/>
    </g>
</svg>
