<?xml version="1.0" encoding="UTF-8" standalone="no"?>
<!DOCTYPE svg PUBLIC "-//W3C//DTD SVG 1.1//EN" "http://www.w3.org/Graphics/SVG/1.1/DTD/svg11.dtd">
<svg width="100%" height="100%" viewBox="0 0 6 6" version="1.1" xmlns="http://www.w3.org/2000/svg" xmlns:xlink="http://www.w3.org/1999/xlink" xml:space="preserve" xmlns:serif="http://www.serif.com/" style="fill-rule:evenodd;clip-rule:evenodd;stroke-linejoin:round;stroke-miterlimit:2;">
    <g transform="matrix(0.24,0,0,0.24,0,0)">
        <g transform="matrix(0.048,0,0,0.048,-0.0458561,-0.0859365)">
            <path d="M406.955,172.124C406.955,86.025 337.054,16.124 250.955,16.124C164.857,16.124 94.955,86.025 94.955,172.124L94.955,331.457C94.955,417.556 164.857,487.457 250.955,487.457C337.054,487.457 406.955,417.556 406.955,331.457L406.955,172.124Z" style="fill:rgb(49,71,111);"/>
        </g>
        <g transform="matrix(0.048,0,0,0.048,0.0561112,-0.0783633)">
            <path d="M227.669,226.019L227.669,104.115C227.669,98.596 232.15,94.115 237.669,94.115C237.698,94.115 237.727,94.115 237.756,94.116C240.001,94.096 242.264,94.826 244.141,96.349L337.641,172.236C340.711,174.728 341.918,178.669 341.077,182.28C340.632,184.473 339.453,186.53 337.581,188.049L259.231,251.633L337.639,315.263C340.907,317.915 342.064,322.21 340.887,326.001C340.353,327.941 339.231,329.739 337.551,331.102L244.141,406.916C242.264,408.439 240.001,409.169 237.756,409.15C237.727,409.15 237.698,409.15 237.669,409.15C232.15,409.15 227.669,404.669 227.669,399.15L227.669,277.246L172.624,321.916C168.338,325.394 162.036,324.738 158.558,320.453C155.08,316.167 155.736,309.865 160.021,306.387L227.492,251.633L160.021,196.878C155.736,193.401 155.08,187.098 158.558,182.812C162.036,178.527 168.338,177.871 172.624,181.349L227.669,226.019ZM247.669,378.294L315.615,323.147L247.669,268.007L247.669,378.294ZM247.669,235.258L315.615,180.118L247.669,124.971L247.669,235.258Z" style="fill:white;"/>
        </g>
    </g>
</svg>
