<?xml version="1.0" encoding="UTF-8" standalone="no"?>
<!DOCTYPE svg PUBLIC "-//W3C//DTD SVG 1.1//EN" "http://www.w3.org/Graphics/SVG/1.1/DTD/svg11.dtd">
<svg width="100%" height="100%" viewBox="0 0 120 120" version="1.1" xmlns="http://www.w3.org/2000/svg" xmlns:xlink="http://www.w3.org/1999/xlink" xml:space="preserve" xmlns:serif="http://www.serif.com/" style="fill-rule:evenodd;clip-rule:evenodd;stroke-linejoin:round;stroke-miterlimit:2;">
    <g transform="matrix(0.24,0,0,0.24,0,0)">
        <g transform="matrix(1,0,0,1,-29.3118,107.122)">
            <path d="M463.483,64.782C463.483,58.29 458.212,53.02 451.721,53.02L106.903,53.02C100.411,53.02 95.14,58.29 95.14,64.782L95.14,318.883C95.14,325.375 100.411,330.646 106.903,330.646L451.721,330.646C458.212,330.646 463.483,325.375 463.483,318.883L463.483,64.782Z" style="fill:rgb(235,144,72);"/>
        </g>
        <g transform="matrix(1,0,0,1,-2.84217e-14,0.5)">
            <rect x="220.838" y="298.589" width="173.333" height="98.679" style="fill:rgb(226,226,226);"/>
        </g>
        <g transform="matrix(3.47033,0,0,0.698724,165.231,330.578)">
            <rect x="26.685" y="11.236" width="28.624" height="28.624" style="fill:rgb(83,83,83);"/>
        </g>
        <g transform="matrix(1,0,0,1,-29.3118,9.21208)">
            <path d="M483.483,64.782C483.483,58.29 478.212,53.02 471.721,53.02L86.903,53.02C80.411,53.02 75.14,58.29 75.14,64.782L75.14,158.883C75.14,165.375 80.411,170.646 86.903,170.646L471.721,170.646C478.212,170.646 483.483,165.375 483.483,158.883L483.483,64.782Z" style="fill:rgb(241,174,100);"/>
        </g>
    </g>
</svg>
