<?xml version="1.0" encoding="UTF-8" standalone="no"?>
<!DOCTYPE svg PUBLIC "-//W3C//DTD SVG 1.1//EN" "http://www.w3.org/Graphics/SVG/1.1/DTD/svg11.dtd">
<svg width="100%" height="100%" viewBox="0 0 6 6" version="1.1" xmlns="http://www.w3.org/2000/svg" xmlns:xlink="http://www.w3.org/1999/xlink" xml:space="preserve" xmlns:serif="http://www.serif.com/" style="fill-rule:evenodd;clip-rule:evenodd;stroke-linejoin:round;stroke-miterlimit:2;">
    <g transform="matrix(0.24,0,0,0.24,0,0)">
        <g transform="matrix(0.048,0,0,0.048,1.36424e-15,0.483922)">
            <path d="M150.392,119.608L170.392,119.608L170.392,75.006C170.392,65.984 177.716,58.66 186.738,58.66L308.033,58.66C317.055,58.66 324.379,65.984 324.379,75.006L324.379,119.608L344.379,119.608L344.379,73.252C344.379,54.16 328.879,38.66 309.788,38.66L184.984,38.66C165.892,38.66 150.392,54.16 150.392,73.252L150.392,119.608Z" style="fill:rgb(67,37,0);"/>
        </g>
        <g transform="matrix(0.048,0,0,0.048,1.36424e-15,0.483922)">
            <path d="M481.046,127.843C481.046,116.805 472.084,107.843 461.046,107.843L38.954,107.843C27.916,107.843 18.954,116.805 18.954,127.843L18.954,421.176C18.954,432.215 27.916,441.176 38.954,441.176L461.046,441.176C472.084,441.176 481.046,432.215 481.046,421.176L481.046,127.843Z" style="fill:rgb(144,79,0);"/>
        </g>
        <g transform="matrix(0.292668,0.168972,-0.0145426,0.0251885,-19.8863,-5.68538)">
            <path d="M108.497,56.209L73.85,56.209L75.49,89.216L108.497,89.216L108.497,56.209Z" style="fill:rgb(67,37,0);"/>
        </g>
        <g transform="matrix(-0.295577,0.170651,0.0145426,0.0251885,44.1059,-5.86757)">
            <path d="M108.497,56.209L73.866,56.209L75.49,89.216L108.497,89.216L108.497,56.209Z" style="fill:rgb(67,37,0);"/>
        </g>
        <g transform="matrix(0.048,0,0,0.048,6.11765,3.6298)">
            <path d="M157.843,192.026C157.843,182.286 149.936,174.379 140.196,174.379L104.902,174.379C95.162,174.379 87.255,182.286 87.255,192.026L87.255,259.346C87.255,269.086 95.162,276.993 104.902,276.993L140.196,276.993C149.936,276.993 157.843,269.086 157.843,259.346L157.843,192.026Z" style="fill:rgb(247,205,33);"/>
        </g>
    </g>
</svg>
