<?xml version="1.0" encoding="UTF-8" standalone="no"?>
<!DOCTYPE svg PUBLIC "-//W3C//DTD SVG 1.1//EN" "http://www.w3.org/Graphics/SVG/1.1/DTD/svg11.dtd">
<svg width="100%" height="100%" viewBox="0 0 120 120" version="1.1" xmlns="http://www.w3.org/2000/svg" xmlns:xlink="http://www.w3.org/1999/xlink" xml:space="preserve" xmlns:serif="http://www.serif.com/" style="fill-rule:evenodd;clip-rule:evenodd;stroke-linejoin:round;stroke-miterlimit:2;">
    <g transform="matrix(0.24,0,0,0.24,0,0)">
        <path d="M459.926,52.015C459.926,45.424 454.576,40.074 447.985,40.074L52.015,40.074C45.424,40.074 40.074,45.424 40.074,52.015L40.074,447.985C40.074,454.576 45.424,459.926 52.015,459.926L250,459.926L248.059,250L459.926,250L459.926,52.015Z" style="fill:rgb(247,144,1);"/>
        <path d="M459.926,257C459.926,250.409 454.576,245.059 447.985,245.059L260,245.059C253.409,245.059 248.059,250.409 248.059,257L248.059,447.985C248.059,454.576 253.409,459.926 260,459.926L447.985,459.926C454.576,459.926 459.926,454.576 459.926,447.985L459.926,257Z" style="fill:rgb(191,192,197);"/>
        <g transform="matrix(0.712,0,0,1.01863,77.5,-0.746601)">
            <rect x="228.23" y="40.074" width="28.09" height="412.173" style="fill:rgb(34,34,34);"/>
        </g>
        <g transform="matrix(4.35974e-17,0.712,-1.01863,6.23731e-17,500.747,77.5)">
            <rect x="228.23" y="40.074" width="28.09" height="412.173" style="fill:rgb(34,34,34);"/>
        </g>
        <g transform="matrix(0.949333,0,0,0.949333,6.03687,18.7035)">
            <path d="M214.185,138.343C214.185,132.529 209.465,127.809 203.652,127.809L99.719,127.809C93.905,127.809 89.185,132.529 89.185,138.343C89.185,144.156 93.905,148.876 99.719,148.876L203.652,148.876C209.465,148.876 214.185,144.156 214.185,138.343Z" style="fill:white;"/>
        </g>
        <g transform="matrix(0.949333,0,0,0.949333,205.963,18.7035)">
            <path d="M214.185,138.343C214.185,132.529 209.465,127.809 203.652,127.809L99.719,127.809C93.905,127.809 89.185,132.529 89.185,138.343C89.185,144.156 93.905,148.876 99.719,148.876L203.652,148.876C209.465,148.876 214.185,144.156 214.185,138.343Z" style="fill:white;"/>
        </g>
        <g transform="matrix(0.949333,0,0,0.949333,205.963,243.63)">
            <path d="M214.185,138.343C214.185,132.529 209.465,127.809 203.652,127.809L99.719,127.809C93.905,127.809 89.185,132.529 89.185,138.343C89.185,144.156 93.905,148.876 99.719,148.876L203.652,148.876C209.465,148.876 214.185,144.156 214.185,138.343Z" style="fill:rgb(34,34,34);"/>
        </g>
        <g transform="matrix(0.949333,0,0,0.949333,205.963,193.63)">
            <path d="M214.185,138.343C214.185,132.529 209.465,127.809 203.652,127.809L99.719,127.809C93.905,127.809 89.185,132.529 89.185,138.343C89.185,144.156 93.905,148.876 99.719,148.876L203.652,148.876C209.465,148.876 214.185,144.156 214.185,138.343Z" style="fill:rgb(34,34,34);"/>
        </g>
        <g transform="matrix(5.81299e-17,0.949333,-0.949333,5.81299e-17,281.37,6.03687)">
            <path d="M214.185,138.343C214.185,132.529 209.465,127.809 203.652,127.809L99.719,127.809C93.905,127.809 89.185,132.529 89.185,138.343C89.185,144.156 93.905,148.876 99.719,148.876L203.652,148.876C209.465,148.876 214.185,144.156 214.185,138.343Z" style="fill:white;"/>
        </g>
        <g transform="matrix(1,0,0,1,0,-0.916433)">
            <path d="M135.895,350.88L108.082,378.692C104.179,382.595 104.179,388.932 108.082,392.835C111.984,396.737 118.321,396.737 122.224,392.835L150.037,365.022L177.85,392.835C181.752,396.737 188.089,396.737 191.992,392.835C195.894,388.932 195.894,382.595 191.992,378.692L164.179,350.88L191.992,323.067C195.894,319.164 195.894,312.827 191.992,308.925C188.089,305.022 181.752,305.022 177.85,308.925L150.037,336.737L122.224,308.925C118.321,305.022 111.984,305.022 108.082,308.925C104.179,312.827 104.179,319.164 108.082,323.067L135.895,350.88Z" style="fill:white;"/>
        </g>
    </g>
</svg>
