<?xml version="1.0" encoding="UTF-8" standalone="no"?>
<!DOCTYPE svg PUBLIC "-//W3C//DTD SVG 1.1//EN" "http://www.w3.org/Graphics/SVG/1.1/DTD/svg11.dtd">
<svg width="100%" height="100%" viewBox="0 0 6 6" version="1.1" xmlns="http://www.w3.org/2000/svg" xmlns:xlink="http://www.w3.org/1999/xlink" xml:space="preserve" xmlns:serif="http://www.serif.com/" style="fill-rule:evenodd;clip-rule:evenodd;stroke-linejoin:round;stroke-miterlimit:2;">
    <g transform="matrix(0.24,0,0,0.24,0,0)">
        <g transform="matrix(0.048,0,0,0.048,0,2.27801e-07)">
            <path d="M297.496,73.726C300.205,73.604 302.954,74.576 305.021,76.643L352.246,123.868C356.149,127.771 356.149,134.107 352.246,138.01C348.343,141.913 151.712,141.913 147.81,138.01C143.907,134.107 143.907,127.771 147.81,123.868L195.035,76.643C197.095,74.583 199.833,73.61 202.532,73.725C202.674,73.719 202.817,73.716 202.96,73.716L297.04,73.716C297.193,73.716 297.345,73.719 297.496,73.726Z" style="fill:rgb(49,71,111);"/>
        </g>
        <g transform="matrix(0.048,0,0,0.048,-0.0625815,-0.628318)">
            <path d="M483.051,165.385C483.051,148.583 469.41,134.941 452.608,134.941L50,134.941C33.198,134.941 19.557,148.583 19.557,165.385L19.557,408.931C19.557,425.733 33.198,439.374 50,439.374L452.608,439.374C469.41,439.374 483.051,425.733 483.051,408.931L483.051,165.385Z" style="fill:rgb(36,52,83);"/>
        </g>
        <g transform="matrix(0.048,0,0,0.048,-0.0625815,-0.628318)">
            <circle cx="251.304" cy="287.158" r="105.117" style="fill:rgb(159,206,248);"/>
        </g>
    </g>
</svg>
