<?xml version="1.0" encoding="UTF-8" standalone="no"?>
<!DOCTYPE svg PUBLIC "-//W3C//DTD SVG 1.1//EN" "http://www.w3.org/Graphics/SVG/1.1/DTD/svg11.dtd">
<svg width="100%" height="100%" viewBox="0 0 6 6" version="1.1" xmlns="http://www.w3.org/2000/svg" xmlns:xlink="http://www.w3.org/1999/xlink" xml:space="preserve" xmlns:serif="http://www.serif.com/" style="fill-rule:evenodd;clip-rule:evenodd;stroke-linejoin:round;stroke-miterlimit:2;">
    <g transform="matrix(0.24,0,0,0.24,0,0)">
        <g transform="matrix(-0.048,0,0,0.048,24,-0.567805)">
            <path d="M155.715,369.954L59.715,349.287L59.715,396.773C59.715,411.453 71.633,423.371 86.312,423.371L129.118,423.371C143.798,423.371 155.715,411.453 155.715,396.773L155.715,369.954Z" style="fill:rgb(39,39,39);"/>
        </g>
        <g transform="matrix(0.048,0,0,0.048,0,-0.567805)">
            <path d="M155.715,369.954L59.715,349.287L59.715,396.773C59.715,411.453 71.633,423.371 86.312,423.371L129.118,423.371C143.798,423.371 155.715,411.453 155.715,396.773L155.715,369.954Z" style="fill:rgb(39,39,39);"/>
        </g>
        <g transform="matrix(0.048,0,0,0.048,0,-0.567805)">
            <path d="M94.995,205.411L47.446,205.411C31.691,205.411 18.901,218.201 18.901,233.955C18.901,249.71 31.691,262.5 47.446,262.5L78.151,262.5L94.995,205.411Z" style="fill:rgb(157,38,25);"/>
        </g>
        <g transform="matrix(-0.048,0,0,0.048,24,-0.567805)">
            <path d="M94.995,205.411L47.446,205.411C31.691,205.411 18.901,218.201 18.901,233.955C18.901,249.71 31.691,262.5 47.446,262.5L78.151,262.5L94.995,205.411Z" style="fill:rgb(157,38,25);"/>
        </g>
        <g transform="matrix(0.048,0,0,0.048,0,-0.567805)">
            <path d="M86.312,383.371C71.633,383.371 59.715,371.453 59.715,356.773L59.715,292.454C59.715,282.323 60.07,278.47 60.07,278.47L60.075,278.471C60.11,277.362 60.331,276.239 60.758,275.146L84.935,213.297L131.133,156.508C132.146,153.368 133.345,150.311 134.719,147.347C134.815,147.123 134.918,146.903 135.028,146.689C148.043,119.267 151.994,120.955 184.343,120.955L315.657,120.955C348.006,120.955 354.624,119.267 367.638,146.689C367.749,146.903 367.852,147.123 367.947,147.347C369.32,150.308 370.52,153.366 371.533,156.508L411.983,205.411L439.242,275.146C439.669,276.239 439.89,277.362 439.925,278.471L439.93,278.47C439.93,278.47 440.285,282.323 440.285,292.454L440.285,356.773C440.285,371.453 428.367,383.371 413.688,383.371L86.312,383.371Z" style="fill:rgb(224,74,58);"/>
        </g>
        <g transform="matrix(0.048,0,0,0.048,0,0)">
            <path d="M82.603,207.432L107.133,144.679C108.146,141.539 109.345,138.482 110.719,135.518C110.815,135.293 110.918,135.074 111.028,134.86C124.043,107.438 151.994,88.459 184.343,88.459L315.657,88.459C348.006,88.459 375.957,107.438 388.972,134.86C389.082,135.074 389.185,135.294 389.281,135.518C390.654,138.478 391.854,141.537 392.867,144.679L417.717,208.251C417.749,210.847 417.765,213.5 417.766,216.22C417.766,235.234 402.329,250.671 383.315,250.671L116.685,250.671C97.671,250.671 82.234,235.234 82.234,216.22L82.234,212.534L82.603,207.432Z" style="fill:rgb(159,206,248);"/>
        </g>
        <g transform="matrix(-0.0416,0,0,0.0416,23.0822,1.41189)">
            <circle cx="143.401" cy="309.327" r="37.5" style="fill:rgb(247,205,33);"/>
        </g>
        <g transform="matrix(-0.0416,0,0,0.0416,12.8487,1.41189)">
            <circle cx="143.401" cy="309.327" r="37.5" style="fill:rgb(247,205,33);"/>
        </g>
    </g>
</svg>
