<?xml version="1.0" encoding="UTF-8" standalone="no"?>
<!DOCTYPE svg PUBLIC "-//W3C//DTD SVG 1.1//EN" "http://www.w3.org/Graphics/SVG/1.1/DTD/svg11.dtd">
<svg width="100%" height="100%" viewBox="0 0 6 6" version="1.1" xmlns="http://www.w3.org/2000/svg" xmlns:xlink="http://www.w3.org/1999/xlink" xml:space="preserve" xmlns:serif="http://www.serif.com/" style="fill-rule:evenodd;clip-rule:evenodd;stroke-linejoin:round;stroke-miterlimit:2;">
    <g transform="matrix(0.24,0,0,0.24,0,0)">
        <g transform="matrix(-0.048,0,0,0.048,24.6284,0)">
            <circle cx="256.545" cy="243.162" r="210" style="fill:rgb(247,192,26);"/>
        </g>
        <g transform="matrix(0.048,0,0,0.048,0,0)">
            <path d="M86.127,120.491L256.545,243.162L366.991,64.557C334.898,44.656 297.053,33.162 256.545,33.162C186.425,33.162 124.285,67.604 86.127,120.491Z" style="fill:rgb(71,227,246);"/>
        </g>
        <g transform="matrix(0.048,0,0,0.048,0,0)">
            <path d="M365.427,63.597L256.545,243.162L466.545,243.162C466.545,167.107 426.027,100.441 365.427,63.597Z" style="fill:rgb(101,152,54);"/>
        </g>
        <g transform="matrix(0.048,0,0,0.048,0,0)">
            <path d="M466.545,243.162L256.545,243.162L335.888,437.632C412.509,406.302 466.545,330.992 466.545,243.162Z" style="fill:rgb(224,74,58);"/>
        </g>
    </g>
</svg>
