<?xml version="1.0" encoding="UTF-8" standalone="no"?>
<!DOCTYPE svg PUBLIC "-//W3C//DTD SVG 1.1//EN" "http://www.w3.org/Graphics/SVG/1.1/DTD/svg11.dtd">
<svg width="100%" height="100%" viewBox="0 0 120 120" version="1.1" xmlns="http://www.w3.org/2000/svg" xmlns:xlink="http://www.w3.org/1999/xlink" xml:space="preserve" xmlns:serif="http://www.serif.com/" style="fill-rule:evenodd;clip-rule:evenodd;stroke-linejoin:round;stroke-miterlimit:2;">
    <g transform="matrix(0.24,0,0,0.24,0,0)">
        <g transform="matrix(1,0,0,1,5.85881,5.85881)">
            <circle cx="242.837" cy="245.771" r="199.487" style="fill:rgb(216,224,236);"/>
        </g>
        <path d="M248.696,46.284C362.029,46.284 454.042,138.296 454.042,251.63C454.042,364.963 362.029,456.975 248.696,456.975C135.363,456.975 43.351,364.963 43.351,251.63C43.351,138.296 135.363,46.284 248.696,46.284ZM248.696,66.284C350.991,66.284 434.042,149.335 434.042,251.63C434.042,353.925 350.991,436.975 248.696,436.975C146.401,436.975 63.351,353.925 63.351,251.63C63.351,149.335 146.401,66.284 248.696,66.284Z" style="fill:rgb(49,71,111);"/>
        <g transform="matrix(0.937443,-0.44266,0.319513,0.676649,-45.2592,185.299)">
            <path d="M226.532,246.089C226.532,238.713 222.21,232.725 216.886,232.725L115.578,232.725C110.254,232.725 105.932,238.713 105.932,246.089C105.932,253.464 110.254,259.452 115.578,259.452L216.886,259.452C222.21,259.452 226.532,253.464 226.532,246.089Z" style="fill:rgb(224,74,58);"/>
        </g>
        <g transform="matrix(-0.687301,1.19044,-0.64804,-0.374146,563.867,72.4005)">
            <path d="M226.532,246.089C226.532,238.713 223.272,232.725 219.257,232.725L113.207,232.725C109.192,232.725 105.932,238.713 105.932,246.089C105.932,253.464 109.192,259.452 113.207,259.452L219.257,259.452C223.272,259.452 226.532,253.464 226.532,246.089Z" style="fill:rgb(224,74,58);"/>
        </g>
        <g transform="matrix(1.59974,0,0,1.59974,-149.585,-149.935)">
            <circle cx="249.417" cy="250" r="12.5" style="fill:rgb(49,71,111);"/>
        </g>
    </g>
</svg>
