<?xml version="1.0" encoding="UTF-8" standalone="no"?>
<!DOCTYPE svg PUBLIC "-//W3C//DTD SVG 1.1//EN" "http://www.w3.org/Graphics/SVG/1.1/DTD/svg11.dtd">
<svg width="100%" height="100%" viewBox="0 0 6 6" version="1.1" xmlns="http://www.w3.org/2000/svg" xmlns:xlink="http://www.w3.org/1999/xlink" xml:space="preserve" xmlns:serif="http://www.serif.com/" style="fill-rule:evenodd;clip-rule:evenodd;stroke-linejoin:round;stroke-miterlimit:2;">
    <g transform="matrix(0.24,0,0,0.24,0,0)">
        <g transform="matrix(0.048,0,0,0.048,0,0)">
            <circle cx="250.809" cy="250.809" r="235" style="fill:rgb(49,71,111);"/>
        </g>
        <g transform="matrix(0.048,0,0,0.048,0,0)">
            <circle cx="250.809" cy="250.809" r="215" style="fill:rgb(216,224,236);"/>
        </g>
        <g transform="matrix(0.0429896,0,0,0.048,1.77146,0)">
            <path d="M250,25.809C250,20.29 244.997,15.809 238.834,15.809C232.672,15.809 227.669,20.29 227.669,25.809L227.669,95.267C227.669,100.787 232.672,105.267 238.834,105.267C244.997,105.267 250,100.787 250,95.267L250,25.809Z" style="fill:rgb(49,71,111);"/>
        </g>
        <g transform="matrix(0.0429896,0,0,0.048,1.77146,18.266)">
            <path d="M250,25.809C250,20.29 244.997,15.809 238.834,15.809C232.672,15.809 227.669,20.29 227.669,25.809L227.669,95.267C227.669,100.787 232.672,105.267 238.834,105.267C244.997,105.267 250,100.787 250,95.267L250,25.809Z" style="fill:rgb(49,71,111);"/>
        </g>
        <g transform="matrix(2.63235e-18,0.0429896,-0.048,2.93915e-18,24.0777,1.77146)">
            <path d="M250,25.809C250,20.29 244.997,15.809 238.834,15.809C232.672,15.809 227.669,20.29 227.669,25.809L227.669,95.267C227.669,100.787 232.672,105.267 238.834,105.267C244.997,105.267 250,100.787 250,95.267L250,25.809Z" style="fill:rgb(49,71,111);"/>
        </g>
        <g transform="matrix(2.63235e-18,0.0429896,-0.048,2.93915e-18,5.81169,1.77146)">
            <path d="M250,25.809C250,20.29 244.997,15.809 238.834,15.809C232.672,15.809 227.669,20.29 227.669,25.809L227.669,95.267C227.669,100.787 232.672,105.267 238.834,105.267C244.997,105.267 250,100.787 250,95.267L250,25.809Z" style="fill:rgb(49,71,111);"/>
        </g>
        <g transform="matrix(0.0263928,0.0263928,-0.0339411,0.0339411,9.96017,-9.64373)">
            <path d="M450.146,105.238L485.809,288.793L414.483,288.793L450.146,105.238Z" style="fill:rgb(224,74,58);"/>
        </g>
        <g transform="matrix(0.0263928,0.0263928,0.0339411,-0.0339411,-9.64373,9.96017)">
            <path d="M450.146,105.238L485.809,288.793L414.483,288.793L450.146,105.238Z" style="fill:rgb(104,154,238);"/>
        </g>
    </g>
</svg>
