<?xml version="1.0" encoding="UTF-8" standalone="no"?>
<!DOCTYPE svg PUBLIC "-//W3C//DTD SVG 1.1//EN" "http://www.w3.org/Graphics/SVG/1.1/DTD/svg11.dtd">
<svg width="100%" height="100%" viewBox="0 0 6 6" version="1.1" xmlns="http://www.w3.org/2000/svg" xmlns:xlink="http://www.w3.org/1999/xlink" xml:space="preserve" xmlns:serif="http://www.serif.com/" style="fill-rule:evenodd;clip-rule:evenodd;stroke-linejoin:round;stroke-miterlimit:2;">
    <g transform="matrix(0.24,0,0,0.24,0,0)">
        <g transform="matrix(0.048,0,0,0.048,-0.122179,1.36424e-15)">
            <path d="M387.045,27.333L118.045,27.333C115.944,27.333 113.994,27.983 112.384,29.092C109.764,30.896 108.045,33.915 108.045,37.333L108.045,462.667C108.045,468.186 112.526,472.667 118.045,472.667L387.045,472.667C392.565,472.667 397.045,468.186 397.045,462.667L397.045,37.333C397.045,33.915 395.327,30.896 392.707,29.092C391.097,27.983 389.147,27.333 387.045,27.333Z" style="fill:rgb(177,187,210);"/>
        </g>
        <g transform="matrix(0.048,0,0,0.048,0,0)">
            <rect x="176.45" y="347.376" width="145.718" height="115.291" style="fill:white;"/>
        </g>
        <g transform="matrix(0.048,0,0,0.048,4.09273e-15,0.048)">
            <path d="M338.667,77.333L161.333,77.333C155.814,77.333 151.333,81.814 151.333,87.333L151.333,157.333C151.333,162.852 155.814,167.333 161.333,167.333L338.667,167.333C344.186,167.333 348.667,162.852 348.667,157.333L348.667,87.333C348.667,81.814 344.186,77.333 338.667,77.333Z" style="fill:rgb(104,154,238);"/>
        </g>
        <g transform="matrix(0.048,0,0,0.048,4.09273e-15,6.128)">
            <path d="M338.667,77.333L161.333,77.333C155.814,77.333 151.333,81.814 151.333,87.333L151.333,157.333C151.333,162.852 155.814,167.333 161.333,167.333L338.667,167.333C344.186,167.333 348.667,162.852 348.667,157.333L348.667,87.333C348.667,81.814 344.186,77.333 338.667,77.333Z" style="fill:rgb(104,154,238);"/>
        </g>
        <g transform="matrix(2.93915e-18,0.048,-0.048,2.93915e-18,16.18,5.952)">
            <path d="M338.667,77.333L225.333,77.333C219.814,77.333 215.333,81.814 215.333,87.333L215.333,157.333C215.333,162.852 219.814,167.333 225.333,167.333L338.667,167.333C344.186,167.333 348.667,162.852 348.667,157.333L348.667,87.333C348.667,81.814 344.186,77.333 338.667,77.333ZM235.333,97.333L235.333,147.333L328.667,147.333L328.667,97.333L235.333,97.333Z" style="fill:rgb(130,130,130);"/>
        </g>
        <g transform="matrix(2.93915e-18,0.048,-0.048,2.93915e-18,19.564,5.952)">
            <path d="M338.667,77.333L225.333,77.333C219.814,77.333 215.333,81.814 215.333,87.333L215.333,157.333C215.333,162.852 219.814,167.333 225.333,167.333L338.667,167.333C344.186,167.333 348.667,162.852 348.667,157.333L348.667,87.333C348.667,81.814 344.186,77.333 338.667,77.333ZM235.333,97.333L235.333,147.333L328.667,147.333L328.667,97.333L235.333,97.333Z" style="fill:rgb(130,130,130);"/>
        </g>
        <g transform="matrix(2.20436e-18,0.036,-0.0423952,2.59596e-18,22.6481,18.4504)">
            <path d="M117.712,39.817C117.712,33.568 111.738,28.495 104.379,28.495C97.02,28.495 91.045,33.568 91.045,39.817L91.045,462.506C91.045,468.755 97.02,473.828 104.379,473.828C111.738,473.828 117.712,468.755 117.712,462.506L117.712,39.817Z" style="fill:rgb(39,39,39);"/>
        </g>
    </g>
</svg>
