<?xml version="1.0" encoding="UTF-8" standalone="no"?>
<!DOCTYPE svg PUBLIC "-//W3C//DTD SVG 1.1//EN" "http://www.w3.org/Graphics/SVG/1.1/DTD/svg11.dtd">
<svg width="100%" height="100%" viewBox="0 0 120 120" version="1.1" xmlns="http://www.w3.org/2000/svg" xmlns:xlink="http://www.w3.org/1999/xlink" xml:space="preserve" xmlns:serif="http://www.serif.com/" style="fill-rule:evenodd;clip-rule:evenodd;stroke-linejoin:round;stroke-miterlimit:2;">
    <g transform="matrix(0.24,0,0,0.24,0,0)">
        <rect x="200" y="332.026" width="100" height="112.019" style="fill:rgb(168,167,162);"/>
        <path d="M21.419,66.882L21.419,348.483C21.419,354.002 25.899,358.483 31.419,358.483L467.177,358.483C472.696,358.483 477.177,354.002 477.177,348.483L477.177,66.882C477.177,61.363 472.696,56.882 467.177,56.882L31.419,56.882C25.899,56.882 21.419,61.363 21.419,66.882Z" style="fill:rgb(139,139,135);"/>
        <g transform="matrix(-0.527827,6.46402e-17,-1.1626e-16,-0.949333,381.586,508.045)">
            <path d="M477.177,67.416C477.177,61.602 468.688,56.882 458.231,56.882L40.364,56.882C29.908,56.882 21.419,61.602 21.419,67.416C21.419,73.229 29.908,77.949 40.364,77.949L458.231,77.949C468.688,77.949 477.177,73.229 477.177,67.416Z" style="fill:rgb(139,139,135);"/>
        </g>
        <path d="M61.419,106.882L61.419,308.483C61.419,314.002 65.899,318.483 71.419,318.483L427.177,318.483C432.696,318.483 437.177,314.002 437.177,308.483L437.177,106.882C437.177,101.363 432.696,96.882 427.177,96.882L71.419,96.882C65.899,96.882 61.419,101.363 61.419,106.882Z" style="fill:rgb(159,207,248);"/>
    </g>
</svg>
