<?xml version="1.0" encoding="UTF-8" standalone="no"?>
<!DOCTYPE svg PUBLIC "-//W3C//DTD SVG 1.1//EN" "http://www.w3.org/Graphics/SVG/1.1/DTD/svg11.dtd">
<svg width="100%" height="100%" viewBox="0 0 6 6" version="1.1" xmlns="http://www.w3.org/2000/svg" xmlns:xlink="http://www.w3.org/1999/xlink" xml:space="preserve" xmlns:serif="http://www.serif.com/" style="fill-rule:evenodd;clip-rule:evenodd;stroke-linejoin:round;stroke-miterlimit:2;">
    <g transform="matrix(0.24,0,0,0.24,0,0)">
        <g transform="matrix(0.048,0,0,0.048,3.51853,-0.7365)">
            <path d="M409.451,157.336C409.451,142.762 397.619,130.931 383.046,130.931L116.954,130.931C102.381,130.931 90.549,142.762 90.549,157.336L90.549,373.352C90.549,387.925 102.381,399.757 116.954,399.757L383.046,399.757C397.619,399.757 409.451,387.925 409.451,373.352L409.451,157.336Z" style="fill:rgb(235,144,72);"/>
        </g>
        <g transform="matrix(0.048,0,0,0.048,1.27853,-0.9925)">
            <rect x="251.667" y="136.264" width="90" height="74" style="fill:rgb(98,98,98);"/>
        </g>
        <g transform="matrix(0.048,0,0,0.0270423,-0.401473,2.35456)">
            <path d="M214.944,206.848C214.944,197.051 210.463,189.098 204.944,189.098L35.611,189.098C30.091,189.098 25.611,197.051 25.611,206.848C25.611,216.644 30.091,224.598 35.611,224.598L204.944,224.598C210.463,224.598 214.944,216.644 214.944,206.848Z" style="fill:rgb(104,154,238);"/>
        </g>
        <g transform="matrix(0.048,0,0,0.0270423,-0.401473,10.4582)">
            <path d="M214.944,206.848C214.944,197.051 210.463,189.098 204.944,189.098L35.611,189.098C30.091,189.098 25.611,197.051 25.611,206.848C25.611,216.644 30.091,224.598 35.611,224.598L204.944,224.598C210.463,224.598 214.944,216.644 214.944,206.848Z" style="fill:rgb(104,154,238);"/>
        </g>
        <g transform="matrix(0.0370063,0,0,0.0270423,3.35061,6.40637)">
            <path d="M214.944,206.848C214.944,197.051 209.132,189.098 201.973,189.098L38.581,189.098C31.423,189.098 25.611,197.051 25.611,206.848C25.611,216.644 31.423,224.598 38.581,224.598L201.973,224.598C209.132,224.598 214.944,216.644 214.944,206.848Z" style="fill:rgb(104,154,238);"/>
        </g>
        <g transform="matrix(0.0194522,0,0,0.0270423,1.9587,4.38047)">
            <path d="M214.944,206.848C214.944,197.051 203.887,189.098 190.268,189.098L50.286,189.098C36.667,189.098 25.611,197.051 25.611,206.848C25.611,216.644 36.667,224.598 50.286,224.598L190.268,224.598C203.887,224.598 214.944,216.644 214.944,206.848Z" style="fill:rgb(180,208,255);"/>
        </g>
        <g transform="matrix(0.0194522,0,0,0.0270423,1.9587,8.43228)">
            <path d="M214.944,206.848C214.944,197.051 203.887,189.098 190.268,189.098L50.286,189.098C36.667,189.098 25.611,197.051 25.611,206.848C25.611,216.644 36.667,224.598 50.286,224.598L190.268,224.598C203.887,224.598 214.944,216.644 214.944,206.848Z" style="fill:rgb(180,208,255);"/>
        </g>
    </g>
</svg>
