<?xml version="1.0" encoding="UTF-8" standalone="no"?>
<!DOCTYPE svg PUBLIC "-//W3C//DTD SVG 1.1//EN" "http://www.w3.org/Graphics/SVG/1.1/DTD/svg11.dtd">
<svg width="100%" height="100%" viewBox="0 0 500 500" version="1.1" xmlns="http://www.w3.org/2000/svg" xmlns:xlink="http://www.w3.org/1999/xlink" xml:space="preserve" xmlns:serif="http://www.serif.com/" style="fill-rule:evenodd;clip-rule:evenodd;stroke-linejoin:round;stroke-miterlimit:2;">
    <path d="M234.305,44.725C238.524,40.671 244.149,38.407 250,38.407C255.851,38.407 261.476,40.671 265.695,44.725L290.974,69.013C292.036,70.033 293.349,70.756 294.779,71.109C296.21,71.461 297.708,71.431 299.123,71.021L332.793,61.263C338.413,59.634 344.446,60.243 349.627,62.962C354.808,65.682 358.736,70.3 360.588,75.851L371.684,109.104C372.151,110.502 372.977,111.752 374.079,112.729C375.182,113.706 376.523,114.375 377.966,114.67L412.315,121.677C418.048,122.846 423.107,126.189 426.431,131.004C429.754,135.82 431.086,141.735 430.147,147.51L424.518,182.112C424.282,183.566 424.432,185.057 424.955,186.434C425.477,187.812 426.353,189.027 427.494,189.959L454.652,212.126C459.185,215.826 462.111,221.136 462.816,226.945C463.521,232.754 461.952,238.61 458.436,243.287L437.372,271.31C436.487,272.487 435.927,273.877 435.75,275.34C435.572,276.802 435.783,278.286 436.36,279.641L450.106,311.89C452.4,317.273 452.523,323.334 450.448,328.805C448.373,334.277 444.262,338.733 438.975,341.24L407.301,356.264C405.97,356.895 404.829,357.866 403.992,359.078C403.155,360.291 402.652,361.702 402.534,363.171L399.718,398.114C399.248,403.946 396.539,409.37 392.16,413.251C387.78,417.131 382.069,419.166 376.222,418.929L341.194,417.512C339.722,417.453 338.261,417.782 336.956,418.467C335.652,419.151 334.55,420.167 333.763,421.413L315.031,451.045C311.905,455.991 306.986,459.535 301.304,460.935C295.623,462.336 289.62,461.483 284.553,458.557L254.196,441.024C252.921,440.287 251.473,439.899 250,439.899C248.527,439.899 247.079,440.287 245.804,441.024L215.447,458.557C210.38,461.483 204.377,462.336 198.696,460.935C193.014,459.535 188.095,455.991 184.969,451.045L166.237,421.413C165.45,420.167 164.348,419.151 163.044,418.467C161.739,417.782 160.278,417.453 158.806,417.512L123.778,418.929C117.931,419.166 112.22,417.131 107.84,413.251C103.461,409.37 100.752,403.946 100.282,398.114L97.466,363.171C97.348,361.702 96.845,360.291 96.008,359.078C95.171,357.866 94.03,356.895 92.699,356.264L61.025,341.24C55.738,338.733 51.627,334.277 49.552,328.805C47.477,323.334 47.6,317.273 49.894,311.89L63.64,279.641C64.217,278.286 64.428,276.802 64.25,275.34C64.073,273.877 63.513,272.487 62.628,271.31L41.564,243.287C38.048,238.61 36.479,232.754 37.184,226.945C37.889,221.136 40.815,215.826 45.348,212.126L72.506,189.959C73.647,189.027 74.523,187.812 75.045,186.434C75.568,185.057 75.718,183.566 75.482,182.112L69.853,147.51C68.914,141.735 70.246,135.82 73.569,131.004C76.893,126.189 81.952,122.846 87.685,121.677L122.034,114.67C123.477,114.375 124.818,113.706 125.921,112.729C127.023,111.752 127.849,110.502 128.316,109.104L139.412,75.851C141.264,70.3 145.192,65.682 150.373,62.962C155.554,60.243 161.587,59.634 167.207,61.263L200.877,71.021C202.292,71.431 203.79,71.461 205.221,71.109C206.651,70.756 207.964,70.033 209.026,69.013L234.305,44.725Z" style="fill:rgb(224,74,58);"/>
    <g transform="matrix(0.713721,-0.903228,0.631817,0.499255,-172.665,334.12)">
        <path d="M399.346,347.059C399.346,340.205 395.454,334.641 390.66,334.641L179.275,334.641C174.481,334.641 170.588,340.205 170.588,347.059C170.588,353.913 174.481,359.477 179.275,359.477L390.66,359.477C395.454,359.477 399.346,353.913 399.346,347.059Z" style="fill:white;"/>
    </g>
    <g transform="matrix(1,0,0,1,-118.31,199)">
        <path d="M421.947,51C450.457,51 473.603,74.146 473.603,102.655C473.603,131.165 450.457,154.31 421.947,154.31C393.438,154.31 370.292,131.165 370.292,102.655C370.292,74.146 393.438,51 421.947,51ZM421.947,71C439.418,71 453.603,85.184 453.603,102.655C453.603,120.126 439.418,134.31 421.947,134.31C404.476,134.31 390.292,120.126 390.292,102.655C390.292,85.184 404.476,71 421.947,71Z" style="fill:white;"/>
    </g>
    <g transform="matrix(1,0,0,1,-225.584,95.6896)">
        <path d="M421.947,51C450.457,51 473.603,74.146 473.603,102.655C473.603,131.165 450.457,154.31 421.947,154.31C393.438,154.31 370.292,131.165 370.292,102.655C370.292,74.146 393.438,51 421.947,51ZM421.947,71C439.418,71 453.603,85.184 453.603,102.655C453.603,120.126 439.418,134.31 421.947,134.31C404.476,134.31 390.292,120.126 390.292,102.655C390.292,85.184 404.476,71 421.947,71Z" style="fill:white;"/>
    </g>
</svg>
