<?xml version="1.0" encoding="UTF-8" standalone="no"?>
<!DOCTYPE svg PUBLIC "-//W3C//DTD SVG 1.1//EN" "http://www.w3.org/Graphics/SVG/1.1/DTD/svg11.dtd">
<svg width="100%" height="100%" viewBox="0 0 120 120" version="1.1" xmlns="http://www.w3.org/2000/svg" xmlns:xlink="http://www.w3.org/1999/xlink" xml:space="preserve" xmlns:serif="http://www.serif.com/" style="fill-rule:evenodd;clip-rule:evenodd;stroke-linejoin:round;stroke-miterlimit:2;">
    <g transform="matrix(0.24,0,0,0.24,0,0)">
        <g transform="matrix(1,0,0,1,-7.06649,0)">
            <path d="M318.03,35.202L104.628,35.202L104.628,464.798L409.505,464.798L409.505,126.676L318.03,35.202Z" style="fill:white;"/>
        </g>
        <g transform="matrix(1.19614,0,0,1.19614,-87.3887,-6.90471)">
            <path d="M333.03,35.202L333.03,111.676L409.505,111.676L333.03,35.202Z" style="fill:rgb(208,208,208);"/>
        </g>
        <g transform="matrix(3.91377e-17,0.639167,-0.428705,2.62506e-17,361.508,140.494)">
            <rect x="92.894" y="39.765" width="31.291" height="440.678" style="fill:rgb(105,105,105);"/>
        </g>
        <g transform="matrix(3.91377e-17,0.639167,-0.428705,2.62506e-17,361.508,265.16)">
            <rect x="92.894" y="39.765" width="31.291" height="440.678" style="fill:rgb(105,105,105);"/>
        </g>
        <g transform="matrix(3.91377e-17,0.639167,-0.328859,2.01368e-17,313.538,202.827)">
            <rect x="92.894" y="39.765" width="31.291" height="440.678" style="fill:rgb(105,105,105);"/>
        </g>
    </g>
</svg>
