<?xml version="1.0" encoding="UTF-8" standalone="no"?>
<!DOCTYPE svg PUBLIC "-//W3C//DTD SVG 1.1//EN" "http://www.w3.org/Graphics/SVG/1.1/DTD/svg11.dtd">
<svg width="100%" height="100%" viewBox="0 0 120 120" version="1.1" xmlns="http://www.w3.org/2000/svg" xmlns:xlink="http://www.w3.org/1999/xlink" xml:space="preserve" xmlns:serif="http://www.serif.com/" style="fill-rule:evenodd;clip-rule:evenodd;stroke-linejoin:round;stroke-miterlimit:2;">
    <g transform="matrix(0.24,0,0,0.24,0,0)">
        <path d="M240,414.035L143.298,317.332C139.395,313.43 133.058,313.43 129.156,317.332C125.253,321.235 125.253,327.572 129.156,331.475L242.929,445.248C244.253,446.572 245.857,447.446 247.55,447.872C248.241,448.046 248.96,448.148 249.7,448.17L249.742,448.171L249.806,448.173L249.871,448.174L249.94,448.175L250,448.175L250.065,448.175L250.129,448.174L250.194,448.173L250.258,448.171L250.3,448.17C251.04,448.148 251.759,448.046 252.45,447.872C254.143,447.446 255.747,446.572 257.071,445.248C257.071,445.248 370.844,331.475 370.844,331.475C374.747,327.572 374.747,321.235 370.844,317.332C366.942,313.43 360.605,313.43 356.702,317.332L260,414.035L260,61.825C260,56.306 255.519,51.825 250,51.825C244.481,51.825 240,56.306 240,61.825L240,414.035Z" style="fill:rgb(49,71,111);"/>
    </g>
</svg>
