<?xml version="1.0" encoding="UTF-8" standalone="no"?>
<!DOCTYPE svg PUBLIC "-//W3C//DTD SVG 1.1//EN" "http://www.w3.org/Graphics/SVG/1.1/DTD/svg11.dtd">
<svg width="100%" height="100%" viewBox="0 0 120 120" version="1.1" xmlns="http://www.w3.org/2000/svg" xmlns:xlink="http://www.w3.org/1999/xlink" xml:space="preserve" xmlns:serif="http://www.serif.com/" style="fill-rule:evenodd;clip-rule:evenodd;stroke-linejoin:round;stroke-miterlimit:2;">
    <g transform="matrix(0.24,0,0,0.24,0,0)">
        <g transform="matrix(1.91375,-4.6691e-17,2.74402e-17,1.27833,-56.2742,279.836)">
            <path d="M257.171,136.245C257.171,131.928 254.829,128.422 251.945,128.422L68.133,128.422C65.249,128.422 62.907,131.928 62.907,136.245C62.907,140.563 65.249,144.068 68.133,144.068L251.945,144.068C254.829,144.068 257.171,140.563 257.171,136.245Z" style="fill:rgb(49,71,111);"/>
        </g>
        <path d="M240,357.855L143.298,261.153C139.395,257.25 133.058,257.25 129.156,261.153C125.253,265.055 125.253,271.392 129.156,275.295L242.929,389.068C244.253,390.392 245.857,391.266 247.55,391.692C248.241,391.866 248.96,391.969 249.7,391.99L249.742,391.992L249.806,391.993L249.871,391.994L249.94,391.995L250,391.995L250.065,391.995L250.129,391.994L250.194,391.993L250.258,391.992L250.3,391.99C251.04,391.969 251.759,391.866 252.45,391.692C254.143,391.266 255.747,390.392 257.071,389.068C257.071,389.068 370.844,275.295 370.844,275.295C374.747,271.392 374.747,265.055 370.844,261.153C366.942,257.25 360.605,257.25 356.702,261.153L260,357.855L260,30.224C260,24.705 255.519,20.224 250,20.224C244.481,20.224 240,24.705 240,30.224L240,357.855Z" style="fill:rgb(101,152,54);"/>
    </g>
</svg>
