<?xml version="1.0" encoding="UTF-8" standalone="no"?>
<!DOCTYPE svg PUBLIC "-//W3C//DTD SVG 1.1//EN" "http://www.w3.org/Graphics/SVG/1.1/DTD/svg11.dtd">
<svg width="100%" height="100%" viewBox="0 0 120 120" version="1.1" xmlns="http://www.w3.org/2000/svg" xmlns:xlink="http://www.w3.org/1999/xlink" xml:space="preserve" xmlns:serif="http://www.serif.com/" style="fill-rule:evenodd;clip-rule:evenodd;stroke-linejoin:round;stroke-miterlimit:2;">
    <g transform="matrix(0.24,0,0,0.24,0,0)">
        <path d="M50.075,40.075L185.075,40.075C190.594,40.075 195.075,44.556 195.075,50.075C195.075,55.594 190.594,60.075 185.075,60.075L74.217,60.075L250,235.858L425.783,60.075L314.925,60.075C309.406,60.075 304.925,55.594 304.925,50.075C304.925,44.556 309.406,40.075 314.925,40.075L449.925,40.075C451.275,40.075 452.563,40.343 453.738,40.829L453.767,40.84C454.942,41.328 456.042,42.049 456.996,43.004C457.951,43.958 458.672,45.058 459.16,46.233L459.171,46.262C459.657,47.437 459.925,48.725 459.925,50.075L459.925,185.077C459.925,190.596 455.444,195.077 449.925,195.077C444.406,195.077 439.925,190.596 439.925,185.077L439.925,74.217L264.142,250L439.925,425.783L439.925,314.925C439.925,309.406 444.406,304.925 449.925,304.925C455.444,304.925 459.925,309.406 459.925,314.925L459.925,449.925C459.925,451.275 459.657,452.563 459.171,453.738L459.16,453.767C458.672,454.942 457.951,456.042 456.996,456.996C456.042,457.951 454.942,458.672 453.767,459.16L453.738,459.171C452.563,459.657 451.275,459.925 449.925,459.925L314.925,459.925C309.406,459.925 304.925,455.444 304.925,449.925C304.925,444.406 309.406,439.925 314.925,439.925L425.783,439.925L250,264.142L74.217,439.925L185.075,439.925C190.594,439.925 195.075,444.406 195.075,449.925C195.075,455.444 190.594,459.925 185.075,459.925L50.075,459.925C48.725,459.925 47.437,459.657 46.262,459.171L46.233,459.16C45.058,458.672 43.958,457.951 43.004,456.996C42.049,456.042 41.328,454.942 40.84,453.767L40.829,453.738C40.343,452.563 40.075,451.275 40.075,449.925L40.075,314.925C40.075,309.406 44.556,304.925 50.075,304.925C55.594,304.925 60.075,309.406 60.075,314.925L60.075,425.783L235.858,250L60.075,74.217L60.075,185.075C60.075,190.594 55.594,195.075 50.075,195.075C44.556,195.075 40.075,190.594 40.075,185.075L40.075,50.075C40.075,48.725 40.343,47.437 40.829,46.262L40.84,46.233C41.328,45.058 42.049,43.958 43.004,43.004C43.958,42.049 45.058,41.328 46.233,40.84L46.262,40.829C47.437,40.343 48.725,40.075 50.075,40.075Z" style="fill:rgb(49,71,111);"/>
    </g>
</svg>
