<?xml version="1.0" encoding="UTF-8" standalone="no"?>
<!DOCTYPE svg PUBLIC "-//W3C//DTD SVG 1.1//EN" "http://www.w3.org/Graphics/SVG/1.1/DTD/svg11.dtd">
<svg width="100%" height="100%" viewBox="0 0 120 120" version="1.1" xmlns="http://www.w3.org/2000/svg" xmlns:xlink="http://www.w3.org/1999/xlink" xml:space="preserve" xmlns:serif="http://www.serif.com/" style="fill-rule:evenodd;clip-rule:evenodd;stroke-linejoin:round;stroke-miterlimit:2;">
    <g transform="matrix(0.24,0,0,0.24,0,0)">
        <g transform="matrix(0.707107,0.707107,-0.707107,0.707107,201.027,-54.5805)">
            <path d="M310.3,347.442L189.7,347.442C189.7,347.889 189.729,348.329 189.786,348.76C189.508,350.868 189.896,353.079 191.04,355.061L241.34,442.182L241.346,442.193C241.678,442.769 242.07,443.314 242.518,443.82L242.909,444.236C243.596,444.927 244.372,445.504 245.207,445.959L245.296,446.006C246.757,446.787 248.331,447.167 249.89,447.182L249.977,447.182C251.655,447.188 253.355,446.772 254.917,445.89L255.011,445.836C255.622,445.484 256.199,445.064 256.73,444.581L257.142,444.184C257.741,443.574 258.251,442.895 258.668,442.169L308.96,355.06C310.104,353.079 310.492,350.868 310.214,348.76C310.271,348.329 310.3,347.889 310.3,347.442Z" style="fill:rgb(190,190,190);"/>
        </g>
        <g transform="matrix(0.707107,0.707107,-0.707107,0.707107,201.027,-54.5805)">
            <path d="M269.065,424.161L230.935,424.161L241.34,442.182L241.346,442.193C241.678,442.769 242.07,443.314 242.518,443.82L242.909,444.236C243.596,444.927 244.372,445.504 245.207,445.959L245.296,446.006C246.757,446.787 248.331,447.167 249.89,447.182L249.977,447.182C251.655,447.188 253.355,446.772 254.917,445.89L255.011,445.836C255.622,445.484 256.199,445.064 256.73,444.581L257.142,444.184C257.741,443.574 258.251,442.895 258.668,442.169L269.065,424.161Z" style="fill:rgb(53,69,77);"/>
        </g>
        <g transform="matrix(0.707107,0.707107,-12.1134,12.1134,1294.15,-1147.7)">
            <rect x="189.7" y="92.157" width="120.6" height="18.505" style="fill:rgb(247,147,0);"/>
        </g>
        <g transform="matrix(0.707107,0.707107,-0.707107,0.707107,250.053,-103.607)">
            <path d="M310.3,102.157L310.3,43.907C310.3,38.317 305.762,33.779 300.172,33.779L199.828,33.779C194.238,33.779 189.7,38.317 189.7,43.907L189.7,102.157L310.3,102.157Z" style="fill:rgb(222,111,111);"/>
        </g>
        <g transform="matrix(0.707107,0.707107,-0.764251,0.764251,255.319,-108.873)">
            <rect x="189.7" y="92.157" width="120.6" height="18.505" style="fill:rgb(170,184,191);"/>
        </g>
    </g>
</svg>
