<?xml version="1.0" encoding="UTF-8" standalone="no"?>
<!DOCTYPE svg PUBLIC "-//W3C//DTD SVG 1.1//EN" "http://www.w3.org/Graphics/SVG/1.1/DTD/svg11.dtd">
<svg width="100%" height="100%" viewBox="0 0 6 6" version="1.1" xmlns="http://www.w3.org/2000/svg" xmlns:xlink="http://www.w3.org/1999/xlink" xml:space="preserve" xmlns:serif="http://www.serif.com/" style="fill-rule:evenodd;clip-rule:evenodd;stroke-linejoin:round;stroke-miterlimit:2;">
    <g transform="matrix(0.24,0,0,0.24,0,0)">
        <g transform="matrix(0.0496457,0,0,0.046336,-2.00464,-3.73808)">
            <path d="M223.412,104.282L262.086,156.077L184.738,156.077L223.412,104.282Z" style="fill:rgb(49,71,111);"/>
        </g>
        <g transform="matrix(0.0496457,0,0,-0.046336,3.82178,8.32592)">
            <path d="M223.412,104.282L262.086,156.077L184.738,156.077L223.412,104.282Z" style="fill:rgb(104,154,238);"/>
        </g>
        <g transform="matrix(0.048,0,0,0.048,0.00596685,-0.0331492)">
            <path d="M424.876,118.698C424.876,108.073 416.25,99.448 405.626,99.448L94.126,99.448C83.501,99.448 74.876,108.073 74.876,118.698L74.876,465.198C74.876,475.822 83.501,484.448 94.126,484.448L405.626,484.448C416.25,484.448 424.876,475.822 424.876,465.198L424.876,118.698Z" style="fill:rgb(86,86,86);"/>
        </g>
        <g transform="matrix(0.048,0,0,0.048,-4.42013,0.395091)">
            <path d="M292.086,237.125L292.086,330.29C292.086,331.101 292.183,331.889 292.365,332.644L292.372,332.671C293.442,337.043 297.388,340.29 302.086,340.29L312.086,340.29L312.086,429.917C312.086,435.436 316.567,439.917 322.086,439.917C322.183,439.917 322.28,439.916 322.376,439.913C322.472,439.916 322.569,439.917 322.666,439.917L362.086,439.917C367.605,439.917 372.086,435.436 372.086,429.917L372.086,340.29L382.086,340.29C387.605,340.29 392.086,335.809 392.086,330.29L392.086,237.125C392.086,220.568 378.644,207.125 362.086,207.125L322.086,207.125C305.529,207.125 292.086,220.568 292.086,237.125ZM342.086,126.135C361.403,126.135 377.086,141.818 377.086,161.135C377.086,180.452 361.403,196.135 342.086,196.135C322.769,196.135 307.086,180.452 307.086,161.135C307.086,141.818 322.769,126.135 342.086,126.135Z" style="fill:white;"/>
        </g>
    </g>
</svg>
