<?xml version="1.0" encoding="UTF-8" standalone="no"?>
<!DOCTYPE svg PUBLIC "-//W3C//DTD SVG 1.1//EN" "http://www.w3.org/Graphics/SVG/1.1/DTD/svg11.dtd">
<svg width="100%" height="100%" viewBox="0 0 120 120" version="1.1" xmlns="http://www.w3.org/2000/svg" xmlns:xlink="http://www.w3.org/1999/xlink" xml:space="preserve" xmlns:serif="http://www.serif.com/" style="fill-rule:evenodd;clip-rule:evenodd;stroke-linejoin:round;stroke-miterlimit:2;">
    <g transform="matrix(0.24,0,0,0.24,0,0)">
        <g transform="matrix(1,0,0,1,-0.000300116,-2.22777e-05)">
            <path d="M250,30.787C251.69,30.785 253.402,31.212 254.971,32.111L255,32.127L255.01,32.133C255.649,32.502 256.251,32.943 256.802,33.455C257.564,34.161 258.199,34.971 258.697,35.851L475.282,410.988C475.759,411.803 476.124,412.69 476.355,413.63L476.361,413.652C476.552,414.434 476.645,415.228 476.645,416.017L476.645,416.028L476.645,416.061C476.639,417.898 476.137,419.619 475.266,421.097C474.457,422.477 473.306,423.68 471.85,424.567C470.956,425.113 469.97,425.524 468.919,425.768L468.895,425.774C468.154,425.945 467.403,426.028 466.657,426.028L466.645,426.028L33.355,426.028L33.343,426.028C32.597,426.028 31.846,425.945 31.105,425.774L31.081,425.768C30.03,425.524 29.044,425.113 28.15,424.567C26.694,423.681 25.543,422.477 24.734,421.097C23.863,419.618 23.361,417.898 23.355,416.061L23.355,416.028L23.355,416.017C23.355,415.228 23.448,414.434 23.639,413.652L23.645,413.63C23.876,412.69 24.241,411.802 24.718,410.988L241.303,35.851C241.801,34.972 242.436,34.161 243.198,33.455C243.749,32.944 244.351,32.502 244.99,32.133L245,32.127L245.029,32.111C246.598,31.211 248.31,30.785 250,30.787Z" style="fill:rgb(224,74,58);"/>
        </g>
        <g transform="matrix(0.589152,0,0,0.931937,106.82,8.9387)">
            <path d="M260,143.753C260,137.831 252.395,133.023 243.027,133.023C233.659,133.023 226.053,137.831 226.053,143.753L226.053,313.293C226.053,319.215 233.659,324.023 243.027,324.023C252.395,324.023 260,319.215 260,313.293L260,143.753Z" style="fill:rgb(247,247,247);"/>
        </g>
        <g transform="matrix(0.86363,0,0,0.86363,25.2287,32.5961)">
            <circle cx="260.263" cy="369.286" r="20.263" style="fill:rgb(247,247,247);"/>
        </g>
    </g>
</svg>
