<?xml version="1.0" encoding="UTF-8" standalone="no"?>
<!DOCTYPE svg PUBLIC "-//W3C//DTD SVG 1.1//EN" "http://www.w3.org/Graphics/SVG/1.1/DTD/svg11.dtd">
<svg width="100%" height="100%" viewBox="0 0 6 6" version="1.1" xmlns="http://www.w3.org/2000/svg" xmlns:xlink="http://www.w3.org/1999/xlink" xml:space="preserve" xmlns:serif="http://www.serif.com/" style="fill-rule:evenodd;clip-rule:evenodd;stroke-linejoin:round;stroke-miterlimit:2;">
    <g transform="matrix(0.24,0,0,0.24,0,0)">
        <g transform="matrix(0.048,0,0,0.048,-0.242387,-0.546961)">
            <path d="M327.994,455.11L345.994,335.333L346.323,171.961L345.994,172.075L345.994,171.961L345.682,172.182L194.047,224.522L194.047,168.51L22.099,227.86L22.099,455.11L327.994,455.11Z" style="fill:rgb(83,83,83);"/>
        </g>
        <g transform="matrix(0.048,0,0,0.048,-0.818387,-0.546961)">
            <path d="M322.514,455.11L500,455.11L443.022,67.68L381.064,67.68L322.514,455.11Z" style="fill:rgb(177,187,210);"/>
        </g>
        <g transform="matrix(0.0479338,0,0,0.0479338,0.239076,0.196061)">
            <circle cx="102.21" cy="306.285" r="30.041" style="fill:rgb(104,154,238);"/>
        </g>
        <g transform="matrix(0.0479338,0,0,0.0479338,7.16178,0.196061)">
            <circle cx="102.21" cy="306.285" r="30.041" style="fill:rgb(104,154,238);"/>
        </g>
    </g>
</svg>
