<?xml version="1.0" encoding="UTF-8" standalone="no"?>
<!DOCTYPE svg PUBLIC "-//W3C//DTD SVG 1.1//EN" "http://www.w3.org/Graphics/SVG/1.1/DTD/svg11.dtd">
<svg width="100%" height="100%" viewBox="0 0 120 120" version="1.1" xmlns="http://www.w3.org/2000/svg" xmlns:xlink="http://www.w3.org/1999/xlink" xml:space="preserve" xmlns:serif="http://www.serif.com/" style="fill-rule:evenodd;clip-rule:evenodd;stroke-linejoin:round;stroke-miterlimit:2;">
    <g transform="matrix(0.24,0,0,0.24,0,0)">
        <g transform="matrix(1,0,0,1,-8.52651e-14,5.27401e-06)">
            <path d="M236.186,35.231C239.156,30.46 244.379,27.559 250,27.559C255.621,27.559 260.844,30.46 263.814,35.231L335.386,150.192C335.817,150.885 336.378,151.488 337.039,151.967C337.699,152.447 338.445,152.794 339.237,152.991L470.689,185.535C476.145,186.885 480.517,190.956 482.254,196.302C483.991,201.647 482.846,207.511 479.226,211.811L392.009,315.404C391.483,316.029 391.083,316.749 390.831,317.525C390.579,318.301 390.479,319.118 390.538,319.932L400.207,455.006C400.609,460.613 398.088,466.029 393.541,469.333C388.994,472.637 383.063,473.36 377.855,471.246L252.38,420.309C251.624,420.002 250.816,419.844 250,419.844C249.184,419.844 248.376,420.002 247.62,420.309L122.145,471.246C116.937,473.36 111.006,472.637 106.459,469.333C101.912,466.029 99.391,460.613 99.793,455.006L109.462,319.932C109.521,319.118 109.421,318.301 109.169,317.525C108.917,316.749 108.517,316.029 107.991,315.404L20.774,211.811C17.154,207.511 16.009,201.647 17.746,196.302C19.483,190.956 23.855,186.885 29.311,185.535L160.763,152.991C161.555,152.794 162.301,152.447 162.961,151.967C163.622,151.488 164.183,150.885 164.614,150.192L236.186,35.231Z" style="fill:rgb(247,205,33);"/>
        </g>
    </g>
</svg>
