<?xml version="1.0" encoding="UTF-8" standalone="no"?>
<!DOCTYPE svg PUBLIC "-//W3C//DTD SVG 1.1//EN" "http://www.w3.org/Graphics/SVG/1.1/DTD/svg11.dtd">
<svg width="100%" height="100%" viewBox="0 0 6 6" version="1.1" xmlns="http://www.w3.org/2000/svg" xmlns:xlink="http://www.w3.org/1999/xlink" xml:space="preserve" xmlns:serif="http://www.serif.com/" style="fill-rule:evenodd;clip-rule:evenodd;stroke-linejoin:round;stroke-miterlimit:2;">
    <g transform="matrix(0.24,0,0,0.24,0,0)">
        <g transform="matrix(0.048,0,0,0.048,0,0)">
            <path d="M61.62,330.879C67.972,320.685 78.62,301.82 78.62,258.379C78.62,214.694 93.492,177.739 114.67,148.819C147.058,104.59 196.651,79.379 249.583,79.379C302.328,79.379 366.698,111.021 394.119,156.077C415.007,190.398 421.62,235.039 421.62,269.379C421.62,315.614 411.87,352.391 407.953,364.546C402.961,380.039 423.013,384.5 427.12,371.308C432.027,355.548 447.952,290.994 439.62,228.879C432.234,173.821 403.672,102.794 319.62,73.479C265.62,54.646 189.01,43.156 116.62,115.546C70.58,161.586 58.286,218.523 58.286,262.776C58.286,298.79 49.397,313.529 44.786,319.546C36.16,330.803 54.119,342.916 61.62,330.879Z" style="fill:rgb(105,105,105);"/>
        </g>
        <g transform="matrix(0.048,0,0,0.048,0,0)">
            <path d="M88.289,363.379C108.345,326.972 115.632,308.679 116.789,267.129C117.946,225.579 127.997,202.629 140.039,182.129C150.318,164.629 166.789,150.129 174.039,147.129C186.963,141.781 193.404,158.831 183.539,164.129C164.016,174.614 146.601,206.829 141.039,232.379C133.083,268.924 140.112,276.75 131.539,313.155C126.847,333.077 110.747,367.467 103.539,376.004C96.331,384.542 81.087,376.453 88.289,363.379Z" style="fill:rgb(105,105,105);"/>
        </g>
        <g transform="matrix(0.048,0,0,0.048,0,0)">
            <path d="M229.539,144.421C217.497,146.641 212.123,128.187 225.289,124.921C236.206,122.213 265.076,118.256 295.039,128.171C335.21,141.464 363.664,177.713 373.289,209.421C385.204,248.674 381.81,294.025 374.539,327.421C371.921,339.445 353.047,335.668 355.164,323.546C359.804,296.972 366.211,255.671 355.414,219.191C345.324,185.101 317.305,154.49 284.789,146.104C255.573,138.569 241.581,142.201 229.539,144.421Z" style="fill:rgb(105,105,105);"/>
        </g>
        <g transform="matrix(0.048,0,0,0.048,0,0)">
            <path d="M347.62,366.597C343.891,380.472 337.912,395.91 333.995,405.597C329.542,416.613 345.824,424.899 352.62,412.847C355.834,407.149 364.829,381.535 366.87,371.097C369.142,359.485 350.691,355.17 347.62,366.597Z" style="fill:rgb(105,105,105);"/>
        </g>
        <g transform="matrix(0.048,0,0,0.048,-0.048,0.048)">
            <path d="M257.745,429.456C274.501,400.658 296.002,346.282 299.379,279.17C299.704,272.71 302.633,241.706 294.35,226.575C286.067,211.444 271.786,202.843 254.263,200.67C240.996,199.025 226.555,204.375 214.745,216.706C207.847,223.908 201.772,238.948 199.12,253.081C196.547,266.797 177.088,263.806 179.12,250C180.919,237.783 187.451,207.529 217.626,189.206C227.409,183.265 243.261,178.967 260.326,181.56C281.721,184.811 296.307,195.66 303.495,204.456C323.045,228.375 320.676,254.005 319.495,279.581C317.298,327.188 300.119,398.833 274.995,439.331C268.494,449.81 251.543,440.115 257.745,429.456Z" style="fill:rgb(105,105,105);"/>
        </g>
        <g transform="matrix(0.048,0,0,0.048,0,0)">
            <path d="M175.463,304.992C170.249,336.444 155.701,372.541 138.034,397.277C130.488,407.844 146.814,419.436 154.32,408.84C172.249,383.53 190.654,344.3 195.034,307.992C196.525,295.637 177.695,291.53 175.463,304.992Z" style="fill:rgb(105,105,105);"/>
        </g>
        <g transform="matrix(0.048,0,0,0.048,0,0)">
            <path d="M241.368,250C239.133,311.049 229.019,364.956 195.118,421.134C188.044,432.859 204.089,443.805 211.568,432.334C246.991,378.005 260.611,306.96 261.468,250C261.664,236.995 241.844,237.002 241.368,250Z" style="fill:rgb(105,105,105);"/>
        </g>
    </g>
</svg>
