<?xml version="1.0" encoding="UTF-8" standalone="no"?>
<!DOCTYPE svg PUBLIC "-//W3C//DTD SVG 1.1//EN" "http://www.w3.org/Graphics/SVG/1.1/DTD/svg11.dtd">
<svg width="100%" height="100%" viewBox="0 0 6 6" version="1.1" xmlns="http://www.w3.org/2000/svg" xmlns:xlink="http://www.w3.org/1999/xlink" xml:space="preserve" xmlns:serif="http://www.serif.com/" style="fill-rule:evenodd;clip-rule:evenodd;stroke-linejoin:round;stroke-miterlimit:2;">
    <g transform="matrix(0.24,0,0,0.24,0,0)">
        <g transform="matrix(0.048,0,0,0.048,0,0)">
            <path d="M256.092,478.97C186.092,478.97 125.394,462.988 101.895,414.495C68.259,345.084 114.55,266.756 148.895,214.495C200.074,136.619 185.895,20.417 185.895,20.417C185.895,20.417 258.961,37.669 287.395,107.995C308.518,160.24 299.562,214.829 299.562,214.829C321.438,205.47 333.828,174.679 335.395,136.495C335.395,136.495 391.409,172.537 411.395,257.995C423.478,309.662 431.837,379.359 389.895,428.495C360.732,462.661 326.092,478.97 256.092,478.97Z" style="fill:rgb(224,74,58);"/>
        </g>
        <g transform="matrix(0.048,0,0,0.048,0,0)">
            <path d="M198.927,474.655C198.877,474.614 198.839,474.577 198.815,474.546C188.865,461.547 163.661,419.592 180.562,344.495C199.916,258.494 256.268,240.325 256.268,240.325C256.268,240.325 235.699,284.802 259.895,322.495C279.993,353.803 318.986,355.199 326.671,397.692C333.12,433.352 319.54,462.496 313.069,473.852C313.045,473.896 312.977,473.953 312.867,474.022C296.848,477.337 278.24,478.97 256.092,478.97C236.058,478.97 216.786,477.661 198.927,474.655Z" style="fill:rgb(247,192,26);"/>
        </g>
    </g>
</svg>
