<?xml version="1.0" encoding="UTF-8" standalone="no"?>
<!DOCTYPE svg PUBLIC "-//W3C//DTD SVG 1.1//EN" "http://www.w3.org/Graphics/SVG/1.1/DTD/svg11.dtd">
<svg width="100%" height="100%" viewBox="0 0 6 6" version="1.1" xmlns="http://www.w3.org/2000/svg" xmlns:xlink="http://www.w3.org/1999/xlink" xml:space="preserve" xmlns:serif="http://www.serif.com/" style="fill-rule:evenodd;clip-rule:evenodd;stroke-linejoin:round;stroke-miterlimit:2;">
    <g transform="matrix(0.24,0,0,0.24,0,0)">
        <g transform="matrix(0.048,0,0,0.048,0,0)">
            <path d="M222.03,448.895L223.412,61.464L44.544,448.204L222.03,448.895Z" style="fill:white;"/>
        </g>
        <g transform="matrix(0.048,0,0,0.048,0,0)">
            <path d="M271.23,41.63L271.278,41.63C273.309,41.637 275.199,42.251 276.774,43.3C278.158,44.215 279.328,45.485 280.134,47.051C280.226,47.229 280.313,47.41 280.394,47.594L461.603,445.667C462.346,447.299 462.613,449.028 462.462,450.697C462.489,450.995 462.503,451.297 462.503,451.602C462.503,457.121 458.022,461.602 452.503,461.602L271.243,461.602C265.724,461.602 261.243,457.121 261.243,451.602L261.243,51.63L261.243,51.599C261.25,49.345 262.004,47.265 263.271,45.596C263.946,44.701 264.779,43.911 265.752,43.273L265.77,43.261C267.111,42.382 268.675,41.817 270.358,41.669L270.413,41.664C270.686,41.641 270.959,41.63 271.23,41.63Z" style="fill:rgb(49,71,111);"/>
        </g>
        <g transform="matrix(0.048,0,0,0.048,0,0)">
            <path d="M224.516,41.63L224.468,41.63C222.436,41.637 220.547,42.251 218.972,43.3C217.588,44.215 216.418,45.485 215.612,47.051C215.52,47.229 215.433,47.41 215.352,47.594L90.087,322.77L89.596,323.262L89.78,323.446L34.143,445.667C33.4,447.299 33.133,449.028 33.284,450.697C33.257,450.995 33.243,451.297 33.243,451.602C33.243,457.121 37.724,461.602 43.243,461.602L224.503,461.602C230.022,461.602 234.503,457.121 234.503,451.602L234.503,51.63L234.503,51.599C234.496,49.345 233.742,47.266 232.475,45.596C231.799,44.701 230.967,43.911 229.994,43.273L229.976,43.261C228.636,42.382 227.072,41.817 225.388,41.669L225.333,41.664C225.06,41.641 224.788,41.63 224.516,41.63ZM59.54,441.602L91.256,441.602L214.503,318.355L214.503,286.639L59.54,441.602ZM119.54,441.602L151.256,441.602L214.503,378.355L214.503,346.639L119.54,441.602ZM179.54,441.602L214.503,441.602L214.503,406.639L179.54,441.602ZM106.79,334.352L80.289,392.569L214.503,258.355L214.503,226.639L106.79,334.352ZM156.925,224.217L130.424,282.434L214.503,198.355L214.503,166.639L156.925,224.217ZM180.559,172.299L214.503,138.355L214.503,97.733L180.559,172.299Z" style="fill:rgb(104,154,238);"/>
        </g>
    </g>
</svg>
