<?xml version="1.0" encoding="UTF-8" standalone="no"?>
<!DOCTYPE svg PUBLIC "-//W3C//DTD SVG 1.1//EN" "http://www.w3.org/Graphics/SVG/1.1/DTD/svg11.dtd">
<svg width="100%" height="100%" viewBox="0 0 500 500" version="1.1" xmlns="http://www.w3.org/2000/svg" xmlns:xlink="http://www.w3.org/1999/xlink" xml:space="preserve" xmlns:serif="http://www.serif.com/" style="fill-rule:evenodd;clip-rule:evenodd;stroke-linejoin:round;stroke-miterlimit:2;">
    <g transform="matrix(1,0,0,1,11.2856,0)">
        <path d="M344.881,190.273L344.881,382.61C344.881,409.561 366.762,431.441 393.713,431.441C420.664,431.441 442.545,409.561 442.545,382.61L442.545,190.273C442.545,174.103 434.668,159.757 422.545,150.869L422.545,382.61C422.545,398.522 409.626,411.441 393.713,411.441C377.8,411.441 364.881,398.522 364.881,382.61L364.881,190.273C364.881,163.322 343,141.441 316.049,141.441C289.098,141.441 300.137,161.441 316.049,161.441C331.962,161.441 344.881,174.361 344.881,190.273Z" style="fill:rgb(103,103,103);"/>
    </g>
    <g transform="matrix(1,0,0,1,11.2856,0)">
        <path d="M422.489,131.063L397.676,131.063C391.442,131.063 386.381,136.125 386.381,142.359L386.381,194.816C386.381,201.05 391.442,206.111 397.676,206.111L431.249,206.111L431.25,206.111L442.545,206.111L442.545,134.775C442.545,69.216 401.214,46.015 401.214,46.015L393.381,63.441C393.381,63.441 421.076,84.373 422.489,131.063ZM422.545,151.063L406.381,151.063L406.381,186.111L422.545,186.111L422.545,151.063Z" style="fill:rgb(224,74,58);"/>
    </g>
    <g transform="matrix(1,0,0,1,12.6128,0)">
        <path d="M68.557,66.641L68.557,466.441L315.89,466.441L315.89,66.641C315.89,49.054 301.612,34.775 284.024,34.775L100.423,34.775C82.836,34.775 68.557,49.054 68.557,66.641Z" style="fill:rgb(224,74,58);"/>
    </g>
    <g transform="matrix(1,0,0,0.854413,13.625,68.1288)">
        <path d="M349.878,454.479C349.878,448.019 345.397,442.775 339.878,442.775L42.545,442.775C37.026,442.775 32.545,448.019 32.545,454.479C32.545,460.938 37.026,466.183 42.545,466.183L339.878,466.183C345.397,466.183 349.878,460.938 349.878,454.479Z" style="fill:rgb(39,39,39);"/>
    </g>
    <path d="M278.503,75.441L131.17,75.441C128.992,75.441 126.977,76.139 125.334,77.322L125.314,77.337C122.804,79.154 121.17,82.108 121.17,85.441L121.17,184.108C121.17,187.441 122.804,190.396 125.314,192.213L125.334,192.228C126.977,193.411 128.992,194.108 131.17,194.108L278.503,194.108C280.68,194.108 282.696,193.411 284.339,192.228L284.359,192.213C286.869,190.396 288.503,187.441 288.503,184.108L288.503,85.441C288.503,82.108 286.869,79.154 284.359,77.337L284.339,77.322C282.696,76.139 280.68,75.441 278.503,75.441Z" style="fill:white;"/>
</svg>
