<?xml version="1.0" encoding="UTF-8" standalone="no"?>
<!DOCTYPE svg PUBLIC "-//W3C//DTD SVG 1.1//EN" "http://www.w3.org/Graphics/SVG/1.1/DTD/svg11.dtd">
<svg width="100%" height="100%" viewBox="0 0 500 500" version="1.1" xmlns="http://www.w3.org/2000/svg" xmlns:xlink="http://www.w3.org/1999/xlink" xml:space="preserve" xmlns:serif="http://www.serif.com/" style="fill-rule:evenodd;clip-rule:evenodd;stroke-linejoin:round;stroke-miterlimit:2;">
    <g transform="matrix(1,0,0,1,-1.00001,-1.00004)">
        <circle cx="251" cy="251" r="195" style="fill:rgb(224,74,58);"/>
    </g>
    <g transform="matrix(1,0,0,1,-1.00001,-1.00004)">
        <circle cx="250" cy="251" r="140" style="fill:white;"/>
    </g>
    <g transform="matrix(1,0,0,1,-1.00001,-1.00004)">
        <circle cx="251" cy="250" r="85" style="fill:rgb(224,74,58);"/>
    </g>
    <g transform="matrix(0.154639,0,0,0.154639,211.635,211.502)">
        <circle cx="241.626" cy="248.955" r="194" style="fill:white;"/>
    </g>
    <g transform="matrix(-0.718116,-0.718116,0.742559,-0.742559,257.419,618.768)">
        <path d="M468.626,241.477C468.626,236.222 464.214,231.955 458.779,231.955L260.847,231.955C255.412,231.955 251,236.222 251,241.477C251,246.733 255.412,251 260.847,251L458.779,251C464.214,251 468.626,246.733 468.626,241.477Z" style="fill:rgb(105,105,105);"/>
    </g>
    <g transform="matrix(0.707107,-0.707107,0.707107,0.707107,-223.72,132.56)">
        <path d="M251,141.6L230.989,121.589C229.81,120.409 228.408,119.586 226.919,119.12C225.99,118.828 225.003,118.668 223.979,118.662L223.919,118.662C223.876,118.662 223.834,118.662 223.791,118.662L223.738,118.663L223.678,118.665L223.618,118.666L223.558,118.668L223.498,118.67L223.469,118.672L223.406,118.675L223.342,118.678L223.278,118.682L223.256,118.683C222.914,118.706 222.577,118.746 222.245,118.802L222.212,118.807L222.151,118.818L222.126,118.822L222.083,118.83C220.164,119.186 218.33,120.106 216.847,121.589C215.364,123.072 214.444,124.906 214.089,126.824L214.081,126.868L214.076,126.892L214.065,126.954L214.06,126.987C214.004,127.319 213.964,127.656 213.942,127.998L213.94,128.02L213.936,128.084L213.933,128.147L213.931,128.18L213.93,128.211L213.929,128.24L213.926,128.3L213.924,128.36L213.923,128.42L213.921,128.48L213.921,128.533C213.92,128.576 213.92,128.618 213.92,128.661L213.92,128.662L213.92,191.787C213.92,191.839 213.92,191.891 213.921,191.943C213.881,194.555 214.856,197.179 216.847,199.169L243.929,226.252C247.832,230.154 254.168,230.154 258.071,226.252C258.071,226.252 285.181,199.142 285.181,199.142C287.168,197.155 288.143,194.537 288.107,191.93C288.107,191.882 288.108,191.835 288.108,191.787L288.108,128.662L288.108,128.647C288.111,126.083 287.136,123.517 285.181,121.561C281.278,117.659 274.941,117.659 271.038,121.561L251,141.6Z" style="fill:rgb(34,34,34);"/>
    </g>
</svg>
