<?xml version="1.0" encoding="UTF-8" standalone="no"?>
<!DOCTYPE svg PUBLIC "-//W3C//DTD SVG 1.1//EN" "http://www.w3.org/Graphics/SVG/1.1/DTD/svg11.dtd">
<svg width="100%" height="100%" viewBox="0 0 6 6" version="1.1" xmlns="http://www.w3.org/2000/svg" xmlns:xlink="http://www.w3.org/1999/xlink" xml:space="preserve" xmlns:serif="http://www.serif.com/" style="fill-rule:evenodd;clip-rule:evenodd;stroke-linejoin:round;stroke-miterlimit:2;">
    <g transform="matrix(0.24,0,0,0.24,0,0)">
        <g transform="matrix(0.048,0,0,0.048,-1.88476e-06,0.00918339)">
            <path d="M28.641,189.491C29.634,188.507 30.85,187.718 32.249,187.209L424.101,44.586C427.93,43.193 432.062,44.288 434.722,47.044C434.765,47.084 434.807,47.125 434.849,47.167C438.751,51.07 438.751,57.407 434.849,61.309L223.988,272.17C222.538,273.62 220.752,274.531 218.881,274.903C216.663,275.745 214.141,275.806 211.755,274.89L32.087,205.942C30.742,205.426 29.573,204.651 28.615,203.695L28.595,203.676L28.573,203.653L28.563,203.643L28.554,203.634C27.571,202.641 26.781,201.425 26.272,200.026C25.828,198.806 25.637,197.555 25.671,196.332L25.671,196.327L25.675,196.222L25.675,196.221C25.716,195.154 25.929,194.075 26.333,193.023C26.849,191.679 27.624,190.509 28.58,189.551L28.599,189.532L28.622,189.509L28.632,189.499L28.641,189.491Z" style="fill:white;"/>
        </g>
        <g transform="matrix(0.0339411,0.0339411,-0.0339411,0.0339411,14.351,-8.19148)">
            <path d="M250,58.087C250.061,58.086 250.123,58.086 250.184,58.086L250.233,58.086C254.703,58.086 258.491,61.024 259.77,65.073L435.424,441.762C436.065,443.138 436.366,444.587 436.361,446.012C436.364,447.375 436.085,448.76 435.495,450.085C433.25,455.127 427.334,457.398 422.292,455.152L250,378.423L250,58.087Z" style="fill:rgb(224,74,58);"/>
        </g>
    </g>
</svg>
