<?xml version="1.0" encoding="UTF-8" standalone="no"?>
<!DOCTYPE svg PUBLIC "-//W3C//DTD SVG 1.1//EN" "http://www.w3.org/Graphics/SVG/1.1/DTD/svg11.dtd">
<svg width="100%" height="100%" viewBox="0 0 500 500" version="1.1" xmlns="http://www.w3.org/2000/svg" xmlns:xlink="http://www.w3.org/1999/xlink" xml:space="preserve" xmlns:serif="http://www.serif.com/" style="fill-rule:evenodd;clip-rule:evenodd;stroke-linejoin:round;stroke-miterlimit:2;">
    <g transform="matrix(0.866025,0.5,-0.5,0.866025,195.008,-38.9259)">
        <path d="M217.907,318.975C212.388,318.975 122.427,312.214 116.907,312.214C111.388,312.214 106.907,309.787 106.907,315.306L106.907,451.955C106.907,453.153 107.119,454.302 107.506,455.368L107.515,455.392C107.999,456.719 108.773,457.964 109.836,459.028C111.16,460.351 112.764,461.226 114.457,461.652C115.149,461.826 115.868,461.928 116.607,461.95L116.65,461.951L116.714,461.953L116.778,461.954L116.847,461.955L116.907,461.955L116.972,461.954L117.037,461.954L117.101,461.953L117.165,461.951L117.208,461.95C117.947,461.928 118.666,461.826 119.358,461.652C121.051,461.226 122.655,460.351 123.979,459.028L167.407,415.599L210.836,459.028C212.16,460.351 213.764,461.226 215.457,461.652C216.149,461.826 216.868,461.928 217.607,461.95L217.65,461.951L217.714,461.953L217.778,461.954L217.845,461.954C217.866,461.955 217.887,461.955 217.907,461.955L217.972,461.954L218.037,461.954L218.101,461.953L218.165,461.951L218.208,461.95C218.947,461.928 219.666,461.826 220.358,461.652C222.051,461.226 223.655,460.351 224.979,459.028C226.042,457.964 226.816,456.719 227.3,455.392L227.309,455.368C227.696,454.302 227.907,453.153 227.907,451.955L227.907,319.836C227.907,314.317 223.427,318.975 217.907,318.975Z" style="fill:rgb(224,74,58);"/>
    </g>
    <g transform="matrix(-0.866025,0.5,0.5,0.866025,304.992,-38.9259)">
        <path d="M217.907,318.166C212.388,318.166 122.427,313.267 116.907,313.267C111.388,313.267 106.907,307.319 106.907,312.838L106.907,451.955C106.907,453.153 107.119,454.302 107.506,455.368L107.515,455.392C107.999,456.719 108.773,457.964 109.836,459.028C111.16,460.351 112.764,461.226 114.457,461.652C115.149,461.826 115.868,461.928 116.607,461.95L116.65,461.951L116.714,461.953L116.778,461.954L116.847,461.955L116.907,461.955L116.972,461.954L117.037,461.954L117.101,461.953L117.165,461.951L117.208,461.95C117.947,461.928 118.666,461.826 119.358,461.652C121.051,461.226 122.655,460.351 123.979,459.028L167.407,415.599L210.836,459.028C212.16,460.351 213.764,461.226 215.457,461.652C216.149,461.826 216.868,461.928 217.607,461.95L217.65,461.951L217.714,461.953L217.778,461.954L217.845,461.954C217.866,461.955 217.887,461.955 217.907,461.955L217.972,461.954L218.037,461.954L218.101,461.953L218.165,461.951L218.208,461.95C218.947,461.928 219.666,461.826 220.358,461.652C222.051,461.226 223.655,460.351 224.979,459.028C226.042,457.964 226.816,456.719 227.3,455.392L227.309,455.368C227.696,454.302 227.907,453.153 227.907,451.955L227.907,322.002C227.907,316.483 223.427,318.166 217.907,318.166Z" style="fill:rgb(224,74,58);"/>
    </g>
    <path d="M237.329,27.507C240.735,24.234 245.276,22.407 250,22.407C254.724,22.407 259.265,24.234 262.671,27.507L283.079,47.115C283.937,47.939 284.996,48.523 286.151,48.808C287.306,49.092 288.515,49.068 289.658,48.737L316.84,40.859C321.377,39.544 326.247,40.035 330.43,42.231C334.613,44.426 337.784,48.155 339.279,52.636L348.237,79.482C348.614,80.61 349.281,81.619 350.171,82.408C351.061,83.197 352.144,83.737 353.309,83.975L381.039,89.632C385.668,90.576 389.751,93.274 392.435,97.162C395.118,101.05 396.193,105.825 395.435,110.488L390.891,138.422C390.7,139.596 390.821,140.799 391.243,141.911C391.665,143.023 392.372,144.005 393.294,144.757L415.219,162.653C418.878,165.64 421.24,169.927 421.809,174.616C422.379,179.306 421.112,184.034 418.273,187.81L401.268,210.432C400.553,211.383 400.102,212.505 399.958,213.686C399.815,214.867 399.985,216.064 400.451,217.158L411.548,243.193C413.401,247.539 413.5,252.433 411.824,256.85C410.149,261.267 406.83,264.864 402.562,266.888L376.991,279.017C375.917,279.527 374.995,280.311 374.32,281.289C373.644,282.268 373.238,283.408 373.143,284.593L370.869,312.803C370.49,317.512 368.303,321.891 364.767,325.023C361.232,328.156 356.621,329.799 351.901,329.608L323.623,328.464C322.434,328.416 321.254,328.682 320.201,329.234C319.148,329.787 318.259,330.607 317.623,331.613L302.501,355.535C299.977,359.528 296.005,362.389 291.419,363.52C286.832,364.65 281.986,363.962 277.895,361.6L253.388,347.445C252.358,346.851 251.189,346.537 250,346.537C248.811,346.537 247.642,346.851 246.612,347.445L222.105,361.6C218.014,363.962 213.168,364.65 208.581,363.52C203.995,362.389 200.023,359.528 197.499,355.535L182.377,331.613C181.741,330.607 180.852,329.787 179.799,329.234C178.746,328.682 177.566,328.416 176.377,328.464L148.099,329.608C143.379,329.799 138.768,328.156 135.233,325.023C131.697,321.891 129.51,317.512 129.131,312.803L126.857,284.593C126.762,283.408 126.356,282.268 125.68,281.289C125.005,280.311 124.083,279.527 123.009,279.017L97.438,266.888C93.17,264.864 89.851,261.267 88.176,256.85C86.5,252.433 86.599,247.539 88.452,243.193L99.549,217.158C100.015,216.064 100.185,214.867 100.042,213.686C99.898,212.505 99.447,211.383 98.732,210.432L81.727,187.81C78.888,184.034 77.621,179.306 78.191,174.616C78.76,169.927 81.122,165.64 84.781,162.653L106.706,144.757C107.628,144.005 108.335,143.023 108.757,141.911C109.179,140.799 109.3,139.596 109.109,138.422L104.565,110.488C103.807,105.825 104.882,101.05 107.565,97.162C110.249,93.274 114.332,90.576 118.961,89.632L146.691,83.975C147.856,83.737 148.939,83.197 149.829,82.408C150.719,81.619 151.386,80.61 151.763,79.482L160.721,52.636C162.216,48.155 165.387,44.426 169.57,42.231C173.753,40.035 178.623,39.544 183.16,40.859L210.342,48.737C211.485,49.068 212.694,49.092 213.849,48.808C215.004,48.523 216.063,47.939 216.921,47.115L237.329,27.507Z" style="fill:rgb(247,205,33);"/>
    <path d="M227.166,228.791L180.497,182.122C176.594,178.219 170.257,178.219 166.354,182.122C162.452,186.025 162.452,192.362 166.354,196.264L220.095,250.004C223.586,253.495 229.024,253.864 232.926,251.109C233.386,250.784 233.825,250.416 234.237,250.004C234.237,250.004 333.646,150.596 333.646,150.596C337.548,146.693 337.548,140.356 333.646,136.453C329.743,132.551 323.406,132.551 319.503,136.453L227.166,228.791Z" style="fill:rgb(105,105,105);"/>
</svg>
