<?xml version="1.0" encoding="UTF-8" standalone="no"?>
<!DOCTYPE svg PUBLIC "-//W3C//DTD SVG 1.1//EN" "http://www.w3.org/Graphics/SVG/1.1/DTD/svg11.dtd">
<svg width="100%" height="100%" viewBox="0 0 500 500" version="1.1" xmlns="http://www.w3.org/2000/svg" xmlns:xlink="http://www.w3.org/1999/xlink" xml:space="preserve" xmlns:serif="http://www.serif.com/" style="fill-rule:evenodd;clip-rule:evenodd;stroke-linejoin:round;stroke-miterlimit:2;">
    <g transform="matrix(1.11111,0,0,8.11111,195.119,-491.305)">
        <rect x="40.392" y="83.688" width="18" height="18" style="fill:rgb(49,71,111);"/>
    </g>
    <g transform="matrix(1.11111,0,0,4.61111,365.119,-135.396)">
        <rect x="40.392" y="83.688" width="18" height="18" style="fill:rgb(49,71,111);"/>
    </g>
    <g transform="matrix(1.11111,0,0,4.61111,25.1195,-135.396)">
        <rect x="40.392" y="83.688" width="18" height="18" style="fill:rgb(49,71,111);"/>
    </g>
    <g transform="matrix(6.80359e-17,1.11111,-18.8889,1.15661e-15,2000.78,205.619)">
        <rect x="40.392" y="83.688" width="18" height="18" style="fill:rgb(49,71,111);"/>
    </g>
    <g transform="matrix(1,0,0,1,57.6075,247.812)">
        <path d="M252.392,89.838C252.392,81.477 245.604,74.688 237.242,74.688L147.542,74.688C139.181,74.688 132.392,81.477 132.392,89.838L132.392,140.538C132.392,148.9 139.181,155.688 147.542,155.688L237.242,155.688C245.604,155.688 252.392,148.9 252.392,140.538L252.392,89.838Z" style="fill:rgb(104,154,238);"/>
    </g>
    <g transform="matrix(1,0,0,1,-112.392,247.812)">
        <path d="M252.392,89.838C252.392,81.477 245.604,74.688 237.242,74.688L147.542,74.688C139.181,74.688 132.392,81.477 132.392,89.838L132.392,140.538C132.392,148.9 139.181,155.688 147.542,155.688L237.242,155.688C245.604,155.688 252.392,148.9 252.392,140.538L252.392,89.838Z" style="fill:rgb(104,154,238);"/>
    </g>
    <g transform="matrix(1,0,0,1,227.608,247.812)">
        <path d="M252.392,89.838C252.392,81.477 245.604,74.688 237.242,74.688L147.542,74.688C139.181,74.688 132.392,81.477 132.392,89.838L132.392,140.538C132.392,148.9 139.181,155.688 147.542,155.688L237.242,155.688C245.604,155.688 252.392,148.9 252.392,140.538L252.392,89.838Z" style="fill:rgb(104,154,238);"/>
    </g>
    <g transform="matrix(1,0,0,1,17.6075,21.8117)">
        <path d="M332.392,89.838C332.392,81.477 325.604,74.688 317.242,74.688L147.542,74.688C139.181,74.688 132.392,81.477 132.392,89.838L132.392,160.538C132.392,168.9 139.181,175.688 147.542,175.688L317.242,175.688C325.604,175.688 332.392,168.9 332.392,160.538L332.392,89.838Z" style="fill:rgb(139,139,135);"/>
    </g>
</svg>
