<?xml version="1.0" encoding="UTF-8" standalone="no"?>
<!DOCTYPE svg PUBLIC "-//W3C//DTD SVG 1.1//EN" "http://www.w3.org/Graphics/SVG/1.1/DTD/svg11.dtd">
<svg width="100%" height="100%" viewBox="0 0 6 6" version="1.1" xmlns="http://www.w3.org/2000/svg" xmlns:xlink="http://www.w3.org/1999/xlink" xml:space="preserve" xmlns:serif="http://www.serif.com/" style="fill-rule:evenodd;clip-rule:evenodd;stroke-linejoin:round;stroke-miterlimit:2;">
    <g transform="matrix(0.24,0,0,0.24,0,0)">
        <g transform="matrix(0.048,0,0,0.048,0,0)">
            <path d="M391.571,41.917L391.571,159.417C391.571,189.42 351.391,227.422 310.844,250C351.394,272.581 391.571,310.581 391.571,340.583L391.571,458.083L108.429,458.083L108.429,340.583C108.429,310.581 148.606,272.581 189.156,250C148.609,227.422 108.429,189.42 108.429,159.417L108.429,41.917L391.571,41.917Z" style="fill:rgb(115,173,205);"/>
        </g>
        <g transform="matrix(0.0448291,0,0,0.0342857,0.756988,0.527238)">
            <path d="M423.797,43.306C423.797,35.579 419,29.306 413.09,29.306L88.505,29.306C82.595,29.306 77.797,35.579 77.797,43.306C77.797,51.032 82.595,57.306 88.505,57.306L413.09,57.306C419,57.306 423.797,51.032 423.797,43.306Z" style="fill:rgb(39,39,39);"/>
        </g>
        <g transform="matrix(0.0448291,0,0,-0.0342857,0.756988,23.4728)">
            <path d="M423.797,43.306C423.797,35.579 419,29.306 413.09,29.306L88.505,29.306C82.595,29.306 77.797,35.579 77.797,43.306C77.797,51.032 82.595,57.306 88.505,57.306L413.09,57.306C419,57.306 423.797,51.032 423.797,43.306Z" style="fill:rgb(39,39,39);"/>
        </g>
        <g transform="matrix(0.048,0,0,0.048,0.510297,0.0668294)">
            <path d="M133.411,431.691C133.411,383.129 179.284,335.691 239.369,335.691L240.072,335.693C299.811,336.061 345.326,383.318 345.326,431.691L133.411,431.691Z" style="fill:rgb(247,192,26);"/>
        </g>
        <g transform="matrix(0.048,0,0,0.048,0,0)">
            <path d="M356.878,154.142C356.878,181.646 316.697,209.647 276.151,232.225C253.035,245.097 236.868,239.475 223.849,232.225C183.303,209.647 143.122,181.646 143.122,154.142L143.122,127.142L356.878,127.142L356.878,154.142Z" style="fill:rgb(247,192,26);"/>
        </g>
        <g transform="matrix(1.85217e-18,0.0302482,-0.04519,2.76709e-18,18.1076,6.34611)">
            <rect x="154.745" y="124.531" width="189" height="21.244" style="fill:rgb(247,192,26);"/>
        </g>
    </g>
</svg>
