<?xml version="1.0" encoding="UTF-8" standalone="no"?>
<!DOCTYPE svg PUBLIC "-//W3C//DTD SVG 1.1//EN" "http://www.w3.org/Graphics/SVG/1.1/DTD/svg11.dtd">
<svg width="100%" height="100%" viewBox="0 0 120 120" version="1.1" xmlns="http://www.w3.org/2000/svg" xmlns:xlink="http://www.w3.org/1999/xlink" xml:space="preserve" xmlns:serif="http://www.serif.com/" style="fill-rule:evenodd;clip-rule:evenodd;stroke-linejoin:round;stroke-miterlimit:2;">
    <g transform="matrix(0.24,0,0,0.24,0,0)">
        <path d="M250,46.699C362.205,46.699 453.301,137.795 453.301,250C453.301,362.205 362.205,453.301 250,453.301C137.795,453.301 46.699,362.205 46.699,250C46.699,137.795 137.795,46.699 250,46.699ZM240,433.032C228.295,432.401 216.88,430.67 205.85,427.939C198.75,413.276 187.871,388.265 178.898,356.65L240,356.65L240,433.032ZM321.102,356.65L260,356.65L260,433.032C271.709,432.4 283.127,430.668 294.15,427.939C301.25,413.276 312.127,388.268 321.102,356.65ZM399.057,356.65L342.229,356.65C334.799,383.677 325.842,405.211 318.773,419.942C351.166,406.803 378.963,384.67 399.057,356.65ZM157.771,356.65C165.199,383.675 174.158,405.212 181.227,419.942C148.838,406.809 121.039,384.675 100.943,356.65L157.771,356.65ZM143.475,260C144.18,288.208 147.811,313.956 152.819,336.65L88.463,336.65C76.065,313.599 68.457,287.607 66.968,260L143.475,260ZM173.726,336.65C168.301,313.413 164.294,287.47 163.496,260L240,260L240,336.65L173.726,336.65ZM336.504,260L260,260L260,336.65L326.274,336.65C331.698,313.412 335.705,287.471 336.504,260ZM433.032,260L356.525,260C355.819,288.208 352.188,313.953 347.181,336.65L411.537,336.65C423.936,313.602 431.544,287.609 433.032,260ZM152.632,163.35C147.719,186.291 144.17,212.076 143.475,240L66.968,240C68.456,212.391 76.064,186.398 88.463,163.35L152.632,163.35ZM163.496,240C164.283,212.819 168.195,186.837 173.51,163.35L240,163.35L240,240L163.496,240ZM326.49,163.35L260,163.35L260,240L336.504,240C335.717,212.821 331.806,186.843 326.49,163.35ZM411.537,163.35L347.368,163.35C352.279,186.279 355.829,212.067 356.525,240L433.032,240C431.543,212.393 423.935,186.401 411.537,163.35ZM179.301,80.852C172.462,96.244 164.261,117.507 157.419,143.35L100.943,143.35C120.642,115.879 147.736,94.073 179.301,80.852ZM240,66.968L240,143.35L178.507,143.35C186.747,113.199 196.689,88.482 203.841,72.571C215.481,69.547 227.577,67.638 240,66.968ZM260,66.968L260,143.35L321.493,143.35C313.249,113.189 303.308,88.475 296.159,72.571C284.517,69.546 272.422,67.637 260,66.968ZM320.699,80.852C327.538,96.242 335.739,117.505 342.581,143.35L399.057,143.35C379.36,115.882 352.263,94.073 320.699,80.852Z" style="fill:rgb(104,154,238);"/>
    </g>
</svg>
