<?xml version="1.0" encoding="UTF-8" standalone="no"?>
<!DOCTYPE svg PUBLIC "-//W3C//DTD SVG 1.1//EN" "http://www.w3.org/Graphics/SVG/1.1/DTD/svg11.dtd">
<svg width="100%" height="100%" viewBox="0 0 6 6" version="1.1" xmlns="http://www.w3.org/2000/svg" xmlns:xlink="http://www.w3.org/1999/xlink" xml:space="preserve" xmlns:serif="http://www.serif.com/" style="fill-rule:evenodd;clip-rule:evenodd;stroke-linejoin:round;stroke-miterlimit:2;">
    <g transform="matrix(0.24,0,0,0.24,0,0)">
        <g transform="matrix(0.0415692,0.024,-0.024,0.0415692,8.55256,-3.17548)">
            <path d="M160.269,291.875L160.269,176.875C160.269,171.355 164.75,166.875 170.269,166.875L422.769,166.875C423.003,166.875 423.236,166.883 423.467,166.899C426.244,166.714 429.083,167.683 431.204,169.803L478.706,217.305C479.885,218.485 480.708,219.887 481.175,221.376C481.467,222.304 481.627,223.292 481.633,224.316L481.633,224.377L481.633,244.052C481.633,244.106 481.633,244.159 481.632,244.213C481.673,246.826 480.698,249.452 478.706,251.444L431.204,298.946C429.22,300.929 426.608,301.905 424.005,301.872C423.927,301.874 423.848,301.875 423.769,301.875L398.269,301.875C398.155,301.875 398.041,301.873 397.928,301.869C395.278,301.941 392.604,300.967 390.583,298.946L368.961,277.324L347.34,298.946C345.311,300.975 342.623,301.949 339.961,301.868C337.3,301.949 334.612,300.975 332.583,298.946L310.961,277.324L289.34,298.946C287.234,301.051 284.419,302.021 281.661,301.854C281.449,301.868 281.235,301.875 281.019,301.875L170.269,301.875C164.75,301.875 160.269,297.394 160.269,291.875Z" style="fill:rgb(167,167,167);"/>
        </g>
        <g transform="matrix(0.048,0,0,0.048,0,0)">
            <path d="M188.062,77.392C243.029,109.127 261.89,179.518 230.155,234.485C198.42,289.452 128.029,308.313 73.062,276.578C18.095,244.843 -0.766,174.452 30.969,119.485C62.704,64.518 133.095,45.657 188.062,77.392ZM113.39,126.728C130.089,136.369 135.819,157.755 126.178,174.454C116.536,191.153 95.151,196.883 78.452,187.242C61.753,177.601 56.022,156.215 65.664,139.516C75.305,122.817 96.69,117.087 113.39,126.728Z" style="fill:rgb(208,208,208);"/>
        </g>
        <g transform="matrix(0.048,0,0,0.048,0,0)">
            <path d="M484.44,363.976L300.212,257.612C295.432,254.853 293.792,248.732 296.552,243.952C299.311,239.172 305.432,237.532 310.212,240.292L477.534,336.895L484.097,361.389C484.329,362.253 484.44,363.122 484.44,363.976Z" style="fill:rgb(105,105,105);"/>
        </g>
    </g>
</svg>
