<?xml version="1.0" encoding="UTF-8" standalone="no"?>
<!DOCTYPE svg PUBLIC "-//W3C//DTD SVG 1.1//EN" "http://www.w3.org/Graphics/SVG/1.1/DTD/svg11.dtd">
<svg width="100%" height="100%" viewBox="0 0 6 6" version="1.1" xmlns="http://www.w3.org/2000/svg" xmlns:xlink="http://www.w3.org/1999/xlink" xml:space="preserve" xmlns:serif="http://www.serif.com/" style="fill-rule:evenodd;clip-rule:evenodd;stroke-linejoin:round;stroke-miterlimit:2;">
    <g transform="matrix(0.24,0,0,0.24,0,0)">
        <g transform="matrix(0.048,0,0,0.048,-0.152436,-0.920472)">
            <path d="M163.702,92.217C163.702,83.248 156.42,75.967 147.452,75.967L74.952,75.967C65.983,75.967 58.702,83.248 58.702,92.217L58.702,134.717C58.702,143.685 65.983,150.967 74.952,150.967L147.452,150.967C156.42,150.967 163.702,143.685 163.702,134.717L163.702,92.217Z" style="fill:rgb(49,71,111);"/>
        </g>
        <g transform="matrix(0.048,0,0,0.048,6.66232,-0.920472)">
            <path d="M163.702,92.217C163.702,83.248 156.42,75.967 147.452,75.967L74.952,75.967C65.983,75.967 58.702,83.248 58.702,92.217L58.702,134.717C58.702,143.685 65.983,150.967 74.952,150.967L147.452,150.967C156.42,150.967 163.702,143.685 163.702,134.717L163.702,92.217Z" style="fill:rgb(49,71,111);"/>
        </g>
        <g transform="matrix(0.048,0,0,0.048,13.4771,-0.920472)">
            <path d="M163.702,92.217C163.702,83.248 156.42,75.967 147.452,75.967L74.952,75.967C65.983,75.967 58.702,83.248 58.702,92.217L58.702,134.717C58.702,143.685 65.983,150.967 74.952,150.967L147.452,150.967C156.42,150.967 163.702,143.685 163.702,134.717L163.702,92.217Z" style="fill:rgb(49,71,111);"/>
        </g>
        <g transform="matrix(0.048,0,0,0.048,-0.152436,4.11953)">
            <path d="M163.702,92.217C163.702,83.248 156.42,75.967 147.452,75.967L74.952,75.967C65.983,75.967 58.702,83.248 58.702,92.217L58.702,134.717C58.702,143.685 65.983,150.967 74.952,150.967L147.452,150.967C156.42,150.967 163.702,143.685 163.702,134.717L163.702,92.217Z" style="fill:rgb(49,71,111);"/>
        </g>
        <g transform="matrix(0.048,0,0,0.048,6.66232,4.11953)">
            <path d="M163.702,92.217C163.702,83.248 156.42,75.967 147.452,75.967L74.952,75.967C65.983,75.967 58.702,83.248 58.702,92.217L58.702,134.717C58.702,143.685 65.983,150.967 74.952,150.967L147.452,150.967C156.42,150.967 163.702,143.685 163.702,134.717L163.702,92.217Z" style="fill:rgb(49,71,111);"/>
        </g>
        <g transform="matrix(0.048,0,0,0.048,13.4771,4.11953)">
            <path d="M163.702,92.217C163.702,83.248 156.42,75.967 147.452,75.967L74.952,75.967C65.983,75.967 58.702,83.248 58.702,92.217L58.702,134.717C58.702,143.685 65.983,150.967 74.952,150.967L147.452,150.967C156.42,150.967 163.702,143.685 163.702,134.717L163.702,92.217Z" style="fill:rgb(49,71,111);"/>
        </g>
        <g transform="matrix(0.048,0,0,0.048,-0.152436,9.15953)">
            <path d="M163.702,92.217C163.702,83.248 156.42,75.967 147.452,75.967L74.952,75.967C65.983,75.967 58.702,83.248 58.702,92.217L58.702,134.717C58.702,143.685 65.983,150.967 74.952,150.967L147.452,150.967C156.42,150.967 163.702,143.685 163.702,134.717L163.702,92.217Z" style="fill:rgb(49,71,111);"/>
        </g>
        <g transform="matrix(0.048,0,0,0.048,6.66232,9.15953)">
            <path d="M163.702,92.217C163.702,83.248 156.42,75.967 147.452,75.967L74.952,75.967C65.983,75.967 58.702,83.248 58.702,92.217L58.702,134.717C58.702,143.685 65.983,150.967 74.952,150.967L147.452,150.967C156.42,150.967 163.702,143.685 163.702,134.717L163.702,92.217Z" style="fill:rgb(49,71,111);"/>
        </g>
        <g transform="matrix(0.048,0,0,0.048,6.66232,14.1995)">
            <path d="M163.702,92.217C163.702,83.248 156.42,75.967 147.452,75.967L74.952,75.967C65.983,75.967 58.702,83.248 58.702,92.217L58.702,134.717C58.702,143.685 65.983,150.967 74.952,150.967L147.452,150.967C156.42,150.967 163.702,143.685 163.702,134.717L163.702,92.217Z" style="fill:rgb(49,71,111);"/>
        </g>
        <g transform="matrix(0.048,0,0,0.048,13.4771,9.15953)">
            <path d="M163.702,92.217C163.702,83.248 156.42,75.967 147.452,75.967L74.952,75.967C65.983,75.967 58.702,83.248 58.702,92.217L58.702,134.717C58.702,143.685 65.983,150.967 74.952,150.967L147.452,150.967C156.42,150.967 163.702,143.685 163.702,134.717L163.702,92.217Z" style="fill:rgb(49,71,111);"/>
        </g>
    </g>
</svg>
