<?xml version="1.0" encoding="UTF-8" standalone="no"?>
<!DOCTYPE svg PUBLIC "-//W3C//DTD SVG 1.1//EN" "http://www.w3.org/Graphics/SVG/1.1/DTD/svg11.dtd">
<svg width="100%" height="100%" viewBox="0 0 500 500" version="1.1" xmlns="http://www.w3.org/2000/svg" xmlns:xlink="http://www.w3.org/1999/xlink" xml:space="preserve" xmlns:serif="http://www.serif.com/" style="fill-rule:evenodd;clip-rule:evenodd;stroke-linejoin:round;stroke-miterlimit:2;">
    <rect x="79.412" y="122.222" width="343.137" height="220.915" style="fill:rgb(159,207,248);"/>
    <g transform="matrix(1,0,0,1,5.68434e-14,25.982)">
        <path d="M64.379,308.425L84.379,308.425L84.379,106.121C84.379,104.272 85.88,102.77 87.729,102.77L412.271,102.77C414.12,102.77 415.621,104.272 415.621,106.121L415.621,308.425L435.621,308.425L435.621,96.237C435.621,88.804 429.587,82.77 422.154,82.77L77.846,82.77C70.413,82.77 64.379,88.804 64.379,96.237L64.379,308.425Z" style="fill:rgb(103,103,103);"/>
    </g>
    <g transform="matrix(1,0,0,1,5.68434e-14,25.982)">
        <path d="M472.255,323.932L472.255,298.932L27.745,298.932L27.745,323.932C27.745,344.537 44.474,361.266 65.078,361.266L434.922,361.266C455.526,361.266 472.255,344.537 472.255,323.932Z" style="fill:rgb(103,103,103);"/>
    </g>
</svg>
