<?xml version="1.0" encoding="UTF-8" standalone="no"?>
<!DOCTYPE svg PUBLIC "-//W3C//DTD SVG 1.1//EN" "http://www.w3.org/Graphics/SVG/1.1/DTD/svg11.dtd">
<svg width="100%" height="100%" viewBox="0 0 6 6" version="1.1" xmlns="http://www.w3.org/2000/svg" xmlns:xlink="http://www.w3.org/1999/xlink" xml:space="preserve" xmlns:serif="http://www.serif.com/" style="fill-rule:evenodd;clip-rule:evenodd;stroke-linejoin:round;stroke-miterlimit:2;">
    <g transform="matrix(0.24,0,0,0.24,0,0)">
        <g transform="matrix(0.048,0,0,0.048,-0.605404,-0.030015)">
            <path d="M35.676,342.427C35.575,337.925 38.546,333.763 43.088,332.546L209.442,287.971C214.773,286.543 311.272,293.075 316.518,294.79L482.657,349.1C486.945,350.502 489.643,354.534 489.549,358.824C489.651,363.326 486.679,367.488 482.138,368.705L272.795,424.798C271.507,425.349 270.101,425.633 268.665,425.605C266.991,425.639 265.365,425.248 263.92,424.509L42.569,352.151C38.281,350.749 35.582,346.717 35.676,342.427Z" style="fill:rgb(104,154,238);"/>
        </g>
        <g transform="matrix(0.048,0,0,0.048,-0.605404,-0.030015)">
            <path d="M35.676,242.427C35.575,237.925 38.546,233.763 43.088,232.546L209.099,188.063C214.43,186.635 311.769,193.238 317.015,194.953L482.657,249.1C486.945,250.502 489.643,254.534 489.549,258.824C489.651,263.326 486.679,267.488 482.138,268.705L272.795,324.798C271.507,325.349 270.101,325.633 268.665,325.605C266.991,325.639 265.365,325.248 263.92,324.509L42.569,252.151C38.281,250.749 35.582,246.717 35.676,242.427Z" style="fill:rgb(49,71,111);"/>
        </g>
        <g transform="matrix(0.048,0,0,0.048,-0.605404,-0.030015)">
            <path d="M252.43,76.453C253.718,75.901 255.125,75.617 256.56,75.646C258.234,75.612 259.86,76.003 261.305,76.741L482.657,149.1C486.945,150.502 489.643,154.534 489.549,158.824C489.651,163.326 486.679,167.488 482.138,168.705L272.795,224.798C271.507,225.349 270.101,225.633 268.665,225.605C266.991,225.639 265.365,225.248 263.92,224.509L42.569,152.151C38.281,150.749 35.582,146.717 35.676,142.427C35.575,137.925 38.546,133.763 43.088,132.546L252.43,76.453Z" style="fill:rgb(104,154,238);"/>
        </g>
    </g>
</svg>
