<?xml version="1.0" encoding="UTF-8" standalone="no"?>
<!DOCTYPE svg PUBLIC "-//W3C//DTD SVG 1.1//EN" "http://www.w3.org/Graphics/SVG/1.1/DTD/svg11.dtd">
<svg width="100%" height="100%" viewBox="0 0 6 6" version="1.1" xmlns="http://www.w3.org/2000/svg" xmlns:xlink="http://www.w3.org/1999/xlink" xml:space="preserve" xmlns:serif="http://www.serif.com/" style="fill-rule:evenodd;clip-rule:evenodd;stroke-linejoin:round;stroke-miterlimit:2;">
    <g transform="matrix(0.24,0,0,0.24,0,0)">
        <g transform="matrix(0.048,0,0,0.048,2.72848e-15,-0.133361)">
            <path d="M221.181,30.4C222.335,26.151 226.222,23.022 230.833,23.022L269.167,23.022C273.778,23.022 277.665,26.151 278.819,30.4C279.007,30.92 279.155,31.461 279.258,32.022L290.371,92.656C290.504,93.3 290.575,93.966 290.578,94.648L290.578,94.689L290.578,94.716L290.578,94.756C290.577,94.946 290.57,95.136 290.558,95.326L290.556,95.358C290.365,98.249 288.943,100.805 286.811,102.507L286.785,102.527C286.525,102.734 286.253,102.929 285.971,103.11L285.945,103.126C284.403,104.11 282.575,104.682 280.614,104.689L280.578,104.689L219.422,104.689L219.386,104.689C217.425,104.682 215.597,104.11 214.055,103.126L214.029,103.11C213.747,102.929 213.475,102.734 213.215,102.527L213.189,102.507C211.057,100.804 209.635,98.248 209.444,95.358L209.442,95.326C209.43,95.137 209.423,94.946 209.422,94.756L209.422,94.716L209.422,94.689L209.422,94.648C209.425,93.966 209.496,93.299 209.629,92.656L220.742,32.022C220.845,31.461 220.993,30.92 221.181,30.4Z" style="fill:rgb(39,39,39);"/>
        </g>
        <g transform="matrix(0.048,0,0,0.048,2.72848e-15,-0.133361)">
            <path d="M199.223,91.283C200.618,87.438 204.304,84.689 208.627,84.689L291.373,84.689C295.892,84.689 299.716,87.694 300.953,91.814C301.159,92.366 301.319,92.944 301.427,93.544L320.377,198.633C320.508,199.275 320.577,199.941 320.578,200.622L320.578,200.653C320.578,200.861 320.571,201.068 320.558,201.274L320.556,201.314L320.554,201.343L320.551,201.38C320.342,204.23 318.935,206.751 316.831,208.439L316.798,208.466L316.779,208.481L316.747,208.506C316.512,208.691 316.269,208.865 316.018,209.028L315.99,209.046L315.939,209.079L315.916,209.094L315.882,209.115C314.346,210.078 312.53,210.636 310.585,210.637L310.578,210.637L189.422,210.637L189.415,210.637C187.47,210.636 185.654,210.078 184.118,209.115L184.084,209.094L184.061,209.079L184.01,209.046L183.982,209.028C183.731,208.865 183.487,208.69 183.253,208.506L183.221,208.481L183.202,208.466L183.169,208.439C181.065,206.751 179.658,204.23 179.449,201.38L179.446,201.343L179.444,201.314L179.442,201.274C179.429,201.068 179.422,200.861 179.422,200.653L179.422,200.622C179.423,199.941 179.492,199.276 179.623,198.633L198.602,93.384C198.735,92.648 198.945,91.946 199.223,91.283Z" style="fill:rgb(224,74,58);"/>
        </g>
        <g transform="matrix(0.048,0,0,0.048,2.72848e-15,-0.133361)">
            <path d="M162.965,197.063C164.405,193.307 168.046,190.637 172.306,190.637L327.694,190.637C331.708,190.637 335.173,193.008 336.764,196.423C337.254,197.331 337.611,198.329 337.803,199.398L360.377,324.581C360.508,325.224 360.577,325.889 360.578,326.57L360.578,326.601C360.578,326.809 360.571,327.017 360.558,327.222L360.556,327.262L360.554,327.291L360.551,327.328C360.342,330.179 358.935,332.699 356.831,334.388L356.798,334.415L356.779,334.429L356.747,334.455C356.512,334.639 356.269,334.813 356.018,334.976L355.99,334.995L355.939,335.027L355.916,335.042L355.882,335.063C354.346,336.027 352.53,336.585 350.585,336.586L350.578,336.586L149.422,336.586L149.415,336.586C147.47,336.585 145.654,336.027 144.118,335.063L144.084,335.042L144.061,335.027L144.01,334.995L143.982,334.976C143.731,334.813 143.487,334.639 143.253,334.455L143.221,334.429L143.202,334.415L143.169,334.388C141.065,332.699 139.658,330.179 139.449,327.328L139.446,327.291L139.444,327.262L139.442,327.222C139.429,327.016 139.422,326.809 139.422,326.601L139.422,326.57C139.423,325.889 139.492,325.224 139.623,324.581L162.168,199.559C162.327,198.674 162.599,197.838 162.965,197.063Z" style="fill:rgb(247,239,224);"/>
        </g>
        <g transform="matrix(0.048,0,0,0.048,0,0)">
            <path d="M39.997,10.023L40,10.023C40.543,10.023 41.076,10.066 41.596,10.15L179.632,29.55C184.676,30.258 188.313,34.624 188.24,39.589C188.241,39.639 188.241,39.688 188.241,39.738L188.241,72.195C188.241,72.245 188.241,72.295 188.24,72.344C188.313,77.31 184.676,81.675 179.632,82.384L41.596,101.784C41.076,101.867 40.543,101.911 40,101.911L39.997,101.911C39.656,101.911 39.318,101.894 38.984,101.86L38.93,101.854C36.245,101.568 33.876,100.217 32.254,98.233L32.247,98.224L32.209,98.177L32.201,98.167C31.871,97.757 31.572,97.32 31.309,96.857C30.476,95.398 30,93.709 30,91.911L30,20.023C30,18.224 30.476,16.536 31.309,15.076C31.572,14.614 31.871,14.176 32.201,13.766L32.216,13.747L32.247,13.71L32.254,13.7C33.877,11.716 36.246,10.365 38.93,10.08L38.984,10.074C39.318,10.04 39.656,10.023 39.997,10.023Z" style="fill:rgb(247,192,26);"/>
        </g>
        <g transform="matrix(0.048,0,0,0.048,0,0)">
            <path d="M460.003,10.023C460.344,10.023 460.682,10.04 461.016,10.074L461.07,10.08C463.755,10.366 466.124,11.716 467.746,13.7L467.753,13.71L467.791,13.757L467.799,13.766C468.129,14.176 468.428,14.614 468.691,15.076C469.524,16.536 470,18.224 470,20.023L470,91.911C470,93.709 469.524,95.398 468.691,96.857C468.428,97.32 468.129,97.757 467.799,98.167L467.784,98.186L467.753,98.224L467.746,98.233C466.123,100.218 463.754,101.568 461.07,101.854L461.016,101.86C460.682,101.894 460.344,101.911 460.003,101.911L460,101.911C459.457,101.911 458.924,101.867 458.404,101.784L320.368,82.384C315.324,81.675 311.687,77.31 311.76,72.344C311.759,72.295 311.759,72.245 311.759,72.195L311.759,39.738C311.759,39.688 311.759,39.639 311.76,39.589C311.687,34.624 315.324,30.258 320.368,29.55L458.404,10.15C458.924,10.066 459.457,10.023 460,10.023L460.003,10.023Z" style="fill:rgb(247,192,26);"/>
        </g>
        <g transform="matrix(0.048,0,0,0.048,2.72848e-15,-0.133361)">
            <path d="M127.053,321.989C128.719,318.78 132.073,316.586 135.935,316.586L364.065,316.586C367.927,316.586 371.281,318.78 372.947,321.989C373.544,322.992 373.975,324.116 374.194,325.331L400.377,470.53C400.508,471.172 400.577,471.837 400.578,472.518L400.578,472.55C400.578,472.758 400.571,472.965 400.558,473.171L400.556,473.211L400.554,473.24L400.551,473.276C400.342,476.127 398.935,478.648 396.831,480.336L396.798,480.363L396.779,480.378L396.747,480.403C396.512,480.587 396.269,480.762 396.018,480.925L395.99,480.943L395.939,480.976L395.916,480.99L395.882,481.012C394.346,481.975 392.53,482.533 390.585,482.534L390.578,482.534L109.422,482.534L109.415,482.534C107.47,482.533 105.654,481.975 104.118,481.012L104.084,480.99L104.061,480.976L104.01,480.943L103.982,480.925C103.731,480.762 103.487,480.587 103.253,480.403L103.221,480.378L103.202,480.363L103.169,480.336C101.065,478.648 99.658,476.127 99.449,473.276L99.446,473.24L99.444,473.211L99.442,473.171C99.429,472.965 99.422,472.758 99.422,472.55L99.422,472.518C99.423,471.838 99.492,471.173 99.623,470.53L125.806,325.331C126.025,324.116 126.456,322.992 127.053,321.989Z" style="fill:rgb(224,74,58);"/>
        </g>
    </g>
</svg>
