<?xml version="1.0" encoding="UTF-8" standalone="no"?>
<!DOCTYPE svg PUBLIC "-//W3C//DTD SVG 1.1//EN" "http://www.w3.org/Graphics/SVG/1.1/DTD/svg11.dtd">
<svg width="100%" height="100%" viewBox="0 0 120 120" version="1.1" xmlns="http://www.w3.org/2000/svg" xmlns:xlink="http://www.w3.org/1999/xlink" xml:space="preserve" xmlns:serif="http://www.serif.com/" style="fill-rule:evenodd;clip-rule:evenodd;stroke-linejoin:round;stroke-miterlimit:2;">
    <g transform="matrix(0.24,0,0,0.24,0,0)">
        <g transform="matrix(1,0,0,1,0,-4)">
            <path d="M160,262.395L180,262.395L180,184.395C180,145.761 211.366,114.395 250,114.395C288.634,114.395 320,145.761 320,184.395L320,262.395L340,262.395L340,184.395C340,134.723 299.672,94.395 250,94.395C200.328,94.395 160,134.723 160,184.395L160,262.395Z" style="fill:rgb(170,184,191);"/>
        </g>
        <g transform="matrix(1,0,0,1,-14.368,-4)">
            <path d="M383.234,268.918C383.234,258.477 374.757,250 364.315,250L164.421,250C153.979,250 145.502,258.477 145.502,268.918L145.502,456.31C145.502,466.751 153.979,475.228 164.421,475.228L364.315,475.228C374.757,475.228 383.234,466.751 383.234,456.31L383.234,268.918Z" style="fill:rgb(247,147,0);"/>
        </g>
        <g transform="matrix(1,0,0,1,4.40635,7.1357)">
            <path d="M235.594,348.216C229.618,344.756 225.594,338.292 225.594,330.895C225.594,319.857 234.555,310.895 245.594,310.895C256.632,310.895 265.594,319.857 265.594,330.895C265.594,338.292 261.57,344.756 255.594,348.216L255.594,382.062C255.594,387.581 251.113,392.062 245.594,392.062C240.075,392.062 235.594,387.581 235.594,382.062L235.594,348.216Z"/>
        </g>
    </g>
</svg>
