<?xml version="1.0" encoding="UTF-8" standalone="no"?>
<!DOCTYPE svg PUBLIC "-//W3C//DTD SVG 1.1//EN" "http://www.w3.org/Graphics/SVG/1.1/DTD/svg11.dtd">
<svg width="100%" height="100%" viewBox="0 0 6 6" version="1.1" xmlns="http://www.w3.org/2000/svg" xmlns:xlink="http://www.w3.org/1999/xlink" xml:space="preserve" xmlns:serif="http://www.serif.com/" style="fill-rule:evenodd;clip-rule:evenodd;stroke-linejoin:round;stroke-miterlimit:2;">
    <g transform="matrix(0.24,0,0,0.24,0,0)">
        <g transform="matrix(0.048,0,0,0.048,0,0)">
            <path d="M462.233,267.307C462.233,383.209 368.135,477.307 252.233,477.307C136.331,477.307 42.233,383.209 42.233,267.307L42.233,88.345L147.233,88.345L147.233,267.307C147.233,325.258 194.282,372.307 252.233,372.307C310.184,372.307 357.233,325.258 357.233,267.307L357.233,88.345L462.233,88.345L462.233,267.307Z" style="fill:rgb(224,74,58);"/>
        </g>
        <g transform="matrix(0.048,0,0,-0.048,0,24.0313)">
            <path d="M147.233,392.307L42.233,392.307L42.233,451.057C42.233,465.544 53.995,477.307 68.483,477.307L120.983,477.307C135.471,477.307 147.233,465.544 147.233,451.057L147.233,392.307Z" style="fill:rgb(39,39,39);"/>
        </g>
        <g transform="matrix(0.048,0,0,-0.048,0,24.0313)">
            <path d="M462.233,392.307L357.233,392.307L357.233,451.057C357.233,465.544 368.995,477.307 383.483,477.307L435.983,477.307C450.471,477.307 462.233,465.544 462.233,451.057L462.233,392.307Z" style="fill:rgb(39,39,39);"/>
        </g>
    </g>
</svg>
