<?xml version="1.0" encoding="UTF-8" standalone="no"?>
<!DOCTYPE svg PUBLIC "-//W3C//DTD SVG 1.1//EN" "http://www.w3.org/Graphics/SVG/1.1/DTD/svg11.dtd">
<svg width="100%" height="100%" viewBox="0 0 120 120" version="1.1" xmlns="http://www.w3.org/2000/svg" xmlns:xlink="http://www.w3.org/1999/xlink" xml:space="preserve" xmlns:serif="http://www.serif.com/" style="fill-rule:evenodd;clip-rule:evenodd;stroke-linejoin:round;stroke-miterlimit:2;">
    <g transform="matrix(0.24,0,0,0.24,0,0)">
        <path d="M471.91,79.741L28.09,79.741C22.571,79.741 18.09,84.222 18.09,89.741L18.09,410.259C18.09,415.778 22.571,420.259 28.09,420.259L471.91,420.259C477.429,420.259 481.91,415.778 481.91,410.259L481.91,89.741C481.91,84.222 477.429,79.741 471.91,79.741Z" style="fill:white;"/>
        <g transform="matrix(1,0,0,1,0,20)">
            <path d="M18.09,146.405L244.331,276.802C246.081,277.812 248.011,278.233 249.89,278.125C251.83,278.275 253.834,277.861 255.646,276.815L481.91,146.059L481.91,89.741C481.91,84.222 477.429,79.741 471.91,79.741L28.09,79.741C22.571,79.741 18.09,84.222 18.09,89.741L18.09,146.405Z" style="fill:rgb(208,208,208);"/>
        </g>
        <path d="M18.09,146.405L244.331,276.802C246.081,277.812 248.011,278.233 249.89,278.125C251.83,278.275 253.834,277.861 255.646,276.815L481.91,146.059L481.91,89.741C481.91,84.222 477.429,79.741 471.91,79.741L28.09,79.741C22.571,79.741 18.09,84.222 18.09,89.741L18.09,146.405Z" style="fill:white;"/>
    </g>
</svg>
