<?xml version="1.0" encoding="UTF-8" standalone="no"?>
<!DOCTYPE svg PUBLIC "-//W3C//DTD SVG 1.1//EN" "http://www.w3.org/Graphics/SVG/1.1/DTD/svg11.dtd">
<svg width="100%" height="100%" viewBox="0 0 6 6" version="1.1" xmlns="http://www.w3.org/2000/svg" xmlns:xlink="http://www.w3.org/1999/xlink" xml:space="preserve" xmlns:serif="http://www.serif.com/" style="fill-rule:evenodd;clip-rule:evenodd;stroke-linejoin:round;stroke-miterlimit:2;">
    <g transform="matrix(0.24,0,0,0.24,0,0)">
        <g transform="matrix(0.048,0,0,0.048,0,0)">
            <path d="M301.359,47.904C298.582,52.674 304.158,367.127 301.37,371.89C298.582,376.653 300.185,382.784 304.948,385.572L424.739,455.694C428.041,457.627 432,457.449 435.047,455.572C438.01,453.836 440.002,450.618 440.002,446.938L440.002,122.938C440.002,121.857 439.831,120.816 439.513,119.841C438.801,117.521 437.248,115.452 434.987,114.136L315.033,44.294C310.263,41.517 304.136,43.135 301.359,47.904Z" style="fill:rgb(177,187,210);"/>
        </g>
        <g transform="matrix(0.048,0,0,0.048,0,0)">
            <path d="M69.056,42.982C67.888,43.091 66.778,43.402 65.761,43.879C63.978,44.711 62.421,46.076 61.357,47.904C60.404,49.54 59.969,51.336 60,53.101L60,376.708C59.985,377.369 60.036,378.028 60.151,378.675C60.243,379.201 60.377,379.714 60.548,380.208C61.299,382.386 62.803,384.317 64.946,385.572L184.737,455.694C189.5,458.482 195.63,456.879 198.419,452.116C201.207,447.353 195.818,132.579 198.595,127.809C201.372,123.039 199.755,116.913 194.985,114.136L75.03,44.294C73.153,43.201 71.066,42.789 69.056,42.982Z" style="fill:rgb(177,187,210);"/>
        </g>
        <g transform="matrix(0.048,0,0,0.048,0,0)">
            <path d="M190.066,111.195L304.97,44.294C306.562,43.367 308.306,42.93 310.026,42.936L310.026,388.515L195.263,455.694C193.628,456.651 191.833,457.091 190.066,457.063L190.066,111.195Z" style="fill:rgb(104,154,238);"/>
        </g>
    </g>
</svg>
