<?xml version="1.0" encoding="UTF-8" standalone="no"?>
<!DOCTYPE svg PUBLIC "-//W3C//DTD SVG 1.1//EN" "http://www.w3.org/Graphics/SVG/1.1/DTD/svg11.dtd">
<svg width="100%" height="100%" viewBox="0 0 6 6" version="1.1" xmlns="http://www.w3.org/2000/svg" xmlns:xlink="http://www.w3.org/1999/xlink" xml:space="preserve" xmlns:serif="http://www.serif.com/" style="fill-rule:evenodd;clip-rule:evenodd;stroke-linejoin:round;stroke-miterlimit:2;">
    <g transform="matrix(0.24,0,0,0.24,0,0)">
        <g transform="matrix(0.04,0,0,0.238,7.64258,-2.80181)">
            <rect x="96.936" y="80.041" width="24" height="24" style="fill:rgb(105,105,105);"/>
        </g>
        <g transform="matrix(0.048,0,0,0.048,-1.00491,0.022021)">
            <path d="M379.936,141.041C379.936,80.882 331.094,32.041 270.936,32.041C210.777,32.041 161.936,80.882 161.936,141.041L161.936,242.041C161.936,302.2 210.777,351.041 270.936,351.041C331.094,351.041 379.936,302.2 379.936,242.041L379.936,141.041Z" style="fill:rgb(39,39,39);"/>
        </g>
        <g transform="matrix(0.0436364,0,0,0.0436364,-0.629914,2.49638)">
            <path d="M436.936,446.041C436.936,439.97 432.007,435.041 425.936,435.041L152.936,435.041C146.864,435.041 141.936,439.97 141.936,446.041C141.936,452.112 146.864,457.041 152.936,457.041L425.936,457.041C432.007,457.041 436.936,452.112 436.936,446.041Z" style="fill:rgb(39,39,39);"/>
        </g>
        <g transform="matrix(0.048,0,0,0.048,0,0)">
            <path d="M357.346,261.5L281,261.5L281,281.5L351.804,281.5C354.261,275.097 356.13,268.41 357.346,261.5ZM142.654,261.5C143.87,268.412 145.74,275.101 148.196,281.5L219,281.5L219,261.5L142.654,261.5ZM359,208.5L281,208.5L281,228.5L359,228.5L359,208.5ZM141,208.5L141,228.5L219,228.5L219,208.5L141,208.5ZM359,155.5L281,155.5L281,175.5L359,175.5L359,155.5ZM141,155.5L141,175.5L219,175.5L219,155.5L141,155.5ZM351.804,102.5L281,102.5L281,122.5L357.346,122.5C356.13,115.588 354.26,108.899 351.804,102.5ZM148.196,102.5C145.739,108.903 143.87,115.59 142.654,122.5L219,122.5L219,102.5L148.196,102.5Z" style="fill:rgb(208,208,208);"/>
        </g>
        <g transform="matrix(0.048,0,0,0.048,-1.00491,0.022021)">
            <path d="M406.936,201.541C406.936,196.022 411.416,191.541 416.936,191.541C422.455,191.541 426.936,196.022 426.936,201.541L426.936,242.041C426.936,328.14 357.034,398.041 270.936,398.041C184.837,398.041 114.936,328.14 114.936,242.041L114.936,201.541L114.936,201.477C114.97,195.987 119.438,191.541 124.936,191.541C130.455,191.541 134.936,196.022 134.936,201.541L134.936,242.041C134.936,317.102 195.875,378.041 270.936,378.041C345.996,378.041 406.936,317.102 406.936,242.041L406.936,201.541Z" style="fill:rgb(39,39,39);"/>
        </g>
    </g>
</svg>
