<?xml version="1.0" encoding="UTF-8" standalone="no"?>
<!DOCTYPE svg PUBLIC "-//W3C//DTD SVG 1.1//EN" "http://www.w3.org/Graphics/SVG/1.1/DTD/svg11.dtd">
<svg width="100%" height="100%" viewBox="0 0 6 6" version="1.1" xmlns="http://www.w3.org/2000/svg" xmlns:xlink="http://www.w3.org/1999/xlink" xml:space="preserve" xmlns:serif="http://www.serif.com/" style="fill-rule:evenodd;clip-rule:evenodd;stroke-linejoin:round;stroke-miterlimit:2;">
    <g transform="matrix(0.24,0,0,0.24,0,0)">
        <g transform="matrix(0.048,0,0,0.048,0,0)">
            <path d="M74.283,14.993C63.507,14.993 54.759,23.742 54.759,34.518L54.759,465.482C54.759,476.258 63.507,485.007 74.283,485.007L425.717,485.007C436.493,485.007 445.241,476.258 445.241,465.482L445.241,34.518C445.241,23.742 436.493,14.993 425.717,14.993L74.283,14.993ZM124.509,445.007C127.406,445.007 129.759,442.654 129.759,439.757L129.759,390.934C129.759,388.037 127.406,385.684 124.509,385.684L100.009,385.684C97.111,385.684 94.759,388.037 94.759,390.934L94.759,439.757C94.759,442.654 97.111,445.007 100.009,445.007L124.509,445.007ZM399.991,445.007C402.889,445.007 405.241,442.654 405.241,439.757L405.241,390.934C405.241,388.037 402.889,385.684 399.991,385.684L375.491,385.684C372.594,385.684 370.241,388.037 370.241,390.934L370.241,439.757C370.241,442.654 372.594,445.007 375.491,445.007L399.991,445.007ZM124.509,362.334C127.406,362.334 129.759,359.981 129.759,357.084L129.759,308.262C129.759,305.364 127.406,303.012 124.509,303.012L100.009,303.012C97.111,303.012 94.759,305.364 94.759,308.262L94.759,357.084C94.759,359.981 97.111,362.334 100.009,362.334L124.509,362.334ZM399.991,362.334C402.889,362.334 405.241,359.981 405.241,357.084L405.241,308.262C405.241,305.364 402.889,303.012 399.991,303.012L375.491,303.012C372.594,303.012 370.241,305.364 370.241,308.262L370.241,357.084C370.241,359.981 372.594,362.334 375.491,362.334L399.991,362.334ZM124.509,279.661C127.406,279.661 129.759,277.309 129.759,274.411L129.759,225.589C129.759,222.691 127.406,220.339 124.509,220.339L100.009,220.339C97.111,220.339 94.759,222.691 94.759,225.589L94.759,274.411C94.759,277.309 97.111,279.661 100.009,279.661L124.509,279.661ZM399.991,279.661C402.889,279.661 405.241,277.309 405.241,274.411L405.241,225.589C405.241,222.691 402.889,220.339 399.991,220.339L375.491,220.339C372.594,220.339 370.241,222.691 370.241,225.589L370.241,274.411C370.241,277.309 372.594,279.661 375.491,279.661L399.991,279.661ZM124.509,196.988C127.406,196.988 129.759,194.636 129.759,191.738L129.759,142.916C129.759,140.019 127.406,137.666 124.509,137.666L100.009,137.666C97.111,137.666 94.759,140.019 94.759,142.916L94.759,191.738C94.759,194.636 97.111,196.988 100.009,196.988L124.509,196.988ZM399.991,196.988C402.889,196.988 405.241,194.636 405.241,191.738L405.241,142.916C405.241,140.019 402.889,137.666 399.991,137.666L375.491,137.666C372.594,137.666 370.241,140.019 370.241,142.916L370.241,191.738C370.241,194.636 372.594,196.988 375.491,196.988L399.991,196.988ZM124.509,114.316C127.406,114.316 129.759,111.963 129.759,109.066L129.759,60.243C129.759,57.346 127.406,54.993 124.509,54.993L100.009,54.993C97.111,54.993 94.759,57.346 94.759,60.243L94.759,109.066C94.759,111.963 97.111,114.316 100.009,114.316L124.509,114.316ZM399.991,114.316C402.889,114.316 405.241,111.963 405.241,109.066L405.241,60.243C405.241,57.346 402.889,54.993 399.991,54.993L375.491,54.993C372.594,54.993 370.241,57.346 370.241,60.243L370.241,109.066C370.241,111.963 372.594,114.316 375.491,114.316L399.991,114.316Z" style="fill:rgb(34,34,34);"/>
        </g>
        <g transform="matrix(0.048,0,0,0.048,-0.563036,-0.0816)">
            <path d="M179.27,127.057L179.332,127.057C182.03,127.057 184.48,128.128 186.28,129.868L350.279,243.577C352.921,245.57 354.294,248.624 354.254,251.7C354.294,254.776 352.921,257.83 350.279,259.823L186.28,373.532C184.48,375.272 182.03,376.343 179.332,376.343L179.27,376.343C176.218,376.36 173.197,374.987 171.22,372.367C169.514,370.106 168.915,367.353 169.332,364.759L169.332,138.641C168.915,136.047 169.514,133.294 171.22,131.033C173.197,128.413 176.218,127.04 179.27,127.057Z" style="fill:rgb(224,74,58);"/>
        </g>
    </g>
</svg>
