<?xml version="1.0" encoding="UTF-8" standalone="no"?>
<!DOCTYPE svg PUBLIC "-//W3C//DTD SVG 1.1//EN" "http://www.w3.org/Graphics/SVG/1.1/DTD/svg11.dtd">
<svg width="100%" height="100%" viewBox="0 0 6 6" version="1.1" xmlns="http://www.w3.org/2000/svg" xmlns:xlink="http://www.w3.org/1999/xlink" xml:space="preserve" xmlns:serif="http://www.serif.com/" style="fill-rule:evenodd;clip-rule:evenodd;stroke-linejoin:round;stroke-miterlimit:2;">
    <g transform="matrix(0.24,0,0,0.24,0,0)">
        <g transform="matrix(0.048,0,0,0.048,0,0)">
            <path d="M341.641,220.575L334.641,413.366C334.641,444.389 359.827,469.575 390.85,469.575C421.872,469.575 447.059,444.389 447.059,413.366L447.059,220.575L341.641,220.575Z" style="fill:rgb(208,208,208);"/>
        </g>
        <g transform="matrix(0.048,0,0,0.048,0,0)">
            <path d="M108.235,469.575L390.85,469.575C390.85,469.575 346.144,469.428 346.144,413.366L346.144,30.425L52.941,30.425L52.941,413.366C52.941,444.085 77.636,469.081 108.235,469.568L108.235,469.575Z" style="fill:white;"/>
        </g>
        <g transform="matrix(0.301638,0,0,0.0302845,-31.3797,0.376186)">
            <rect x="119.935" y="126.144" width="31.699" height="31.699" style="fill:rgb(105,105,105);"/>
        </g>
        <g transform="matrix(0.301638,0,0,0.0302845,-31.3797,2.53619)">
            <rect x="119.935" y="126.144" width="31.699" height="31.699" style="fill:rgb(105,105,105);"/>
        </g>
        <g transform="matrix(0.133559,0,0,0.0302845,-11.2211,6.13619)">
            <rect x="119.935" y="126.144" width="31.699" height="31.699" style="fill:rgb(105,105,105);"/>
        </g>
        <g transform="matrix(0.133559,0,0,0.0302845,-5.89314,6.13619)">
            <rect x="119.935" y="126.144" width="31.699" height="31.699" style="fill:rgb(105,105,105);"/>
        </g>
        <g transform="matrix(0.133559,0,0,0.0302845,-11.2211,8.29619)">
            <rect x="119.935" y="126.144" width="31.699" height="31.699" style="fill:rgb(105,105,105);"/>
        </g>
        <g transform="matrix(0.133559,0,0,0.0302845,-5.89314,8.29619)">
            <rect x="119.935" y="126.144" width="31.699" height="31.699" style="fill:rgb(105,105,105);"/>
        </g>
        <g transform="matrix(0.133559,0,0,0.0302845,-11.2211,10.4562)">
            <rect x="119.935" y="126.144" width="31.699" height="31.699" style="fill:rgb(105,105,105);"/>
        </g>
        <g transform="matrix(0.133559,0,0,0.0302845,-5.89314,10.4562)">
            <rect x="119.935" y="126.144" width="31.699" height="31.699" style="fill:rgb(105,105,105);"/>
        </g>
        <g transform="matrix(0.133559,0,0,0.0302845,-11.2211,12.6162)">
            <rect x="119.935" y="126.144" width="31.699" height="31.699" style="fill:rgb(105,105,105);"/>
        </g>
        <g transform="matrix(0.133559,0,0,0.0302845,-5.89314,12.6162)">
            <rect x="119.935" y="126.144" width="31.699" height="31.699" style="fill:rgb(105,105,105);"/>
        </g>
        <g transform="matrix(0.133559,0,0,0.0302845,-11.2211,14.7762)">
            <rect x="119.935" y="126.144" width="31.699" height="31.699" style="fill:rgb(105,105,105);"/>
        </g>
        <g transform="matrix(0.133559,0,0,0.0302845,-5.89314,14.7762)">
            <rect x="119.935" y="126.144" width="31.699" height="31.699" style="fill:rgb(105,105,105);"/>
        </g>
    </g>
</svg>
