<?xml version="1.0" encoding="UTF-8" standalone="no"?>
<!DOCTYPE svg PUBLIC "-//W3C//DTD SVG 1.1//EN" "http://www.w3.org/Graphics/SVG/1.1/DTD/svg11.dtd">
<svg width="100%" height="100%" viewBox="0 0 120 120" version="1.1" xmlns="http://www.w3.org/2000/svg" xmlns:xlink="http://www.w3.org/1999/xlink" xml:space="preserve" xmlns:serif="http://www.serif.com/" style="fill-rule:evenodd;clip-rule:evenodd;stroke-linejoin:round;stroke-miterlimit:2;">
    <g transform="matrix(0.24,0,0,0.24,0,0)">
        <path d="M414.035,240L61.825,240C56.306,240 51.825,244.481 51.825,250C51.825,255.519 56.306,260 61.825,260L414.035,260L317.332,356.702C313.43,360.605 313.43,366.942 317.332,370.844C321.235,374.747 327.572,374.747 331.475,370.844L445.248,257.071C446.572,255.747 447.446,254.143 447.872,252.45C448.046,251.759 448.148,251.04 448.17,250.3L448.171,250.258L448.173,250.194L448.174,250.129L448.175,250.06L448.175,250L448.175,249.935L448.174,249.871L448.173,249.806L448.171,249.742L448.17,249.7C448.148,248.96 448.046,248.241 447.872,247.55C447.446,245.857 446.572,244.253 445.248,242.929C445.248,242.929 331.475,129.156 331.475,129.156C327.572,125.253 321.235,125.253 317.332,129.156C313.43,133.058 313.43,139.395 317.332,143.298L414.035,240Z" style="fill:rgb(49,71,111);"/>
    </g>
</svg>
