<?xml version="1.0" encoding="UTF-8" standalone="no"?>
<!DOCTYPE svg PUBLIC "-//W3C//DTD SVG 1.1//EN" "http://www.w3.org/Graphics/SVG/1.1/DTD/svg11.dtd">
<svg width="100%" height="100%" viewBox="0 0 120 120" version="1.1" xmlns="http://www.w3.org/2000/svg" xmlns:xlink="http://www.w3.org/1999/xlink" xml:space="preserve" xmlns:serif="http://www.serif.com/" style="fill-rule:evenodd;clip-rule:evenodd;stroke-linejoin:round;stroke-miterlimit:2;">
    <g transform="matrix(0.24,0,0,0.24,0,0)">
        <g transform="matrix(1,0,0,1,-2.84217e-14,7.75648)">
            <path d="M250,21.91C269.317,21.91 285,37.593 285,56.91C285,76.227 269.317,91.91 250,91.91C230.683,91.91 215,76.227 215,56.91C215,37.593 230.683,21.91 250,21.91ZM250,41.91C258.279,41.91 265,48.631 265,56.91C265,65.189 258.279,71.91 250,71.91C241.721,71.91 235,65.189 235,56.91C235,48.631 241.721,41.91 250,41.91Z" style="fill:rgb(241,174,100);"/>
        </g>
        <g transform="matrix(1,0,0,1,-2.84217e-14,6.00648)">
            <path d="M324.993,388.327C324.998,388.657 325,388.992 325,389.327C325,430.72 291.394,464.327 250,464.327C208.606,464.327 175,430.72 175,389.327C175,388.992 175.002,388.657 175.007,388.327L324.993,388.327Z" style="fill:rgb(34,34,34);"/>
        </g>
        <g transform="matrix(1,0,0,1,-2.84217e-14,6.00648)">
            <path d="M427.373,401.37L72.627,401.37C66.405,401.37 61.353,396.318 61.353,390.096C61.353,381.674 66.418,380.544 71.07,378.822C107.257,365.423 119.511,328.362 119.511,197.412C119.511,33.391 380.489,33.391 380.489,197.412C380.489,328.362 392.743,365.423 428.93,378.822C433.582,380.544 438.647,381.674 438.647,390.096C438.647,396.318 433.595,401.37 427.373,401.37Z" style="fill:rgb(235,144,72);"/>
        </g>
    </g>
</svg>
