<?xml version="1.0" encoding="UTF-8" standalone="no"?>
<!DOCTYPE svg PUBLIC "-//W3C//DTD SVG 1.1//EN" "http://www.w3.org/Graphics/SVG/1.1/DTD/svg11.dtd">
<svg width="100%" height="100%" viewBox="0 0 6 6" version="1.1" xmlns="http://www.w3.org/2000/svg" xmlns:xlink="http://www.w3.org/1999/xlink" xml:space="preserve" xmlns:serif="http://www.serif.com/" style="fill-rule:evenodd;clip-rule:evenodd;stroke-linejoin:round;stroke-miterlimit:2;">
    <g transform="matrix(0.24,0,0,0.24,0,0)">
        <g transform="matrix(0.048,0,0,0.048,0,0)">
            <path d="M411.257,33.805C411.257,23.914 403.227,15.884 393.336,15.884L70.753,15.884C60.862,15.884 52.831,23.914 52.831,33.805L52.831,473.101C52.831,482.992 60.862,491.022 70.753,491.022L393.336,491.022C403.227,491.022 411.257,482.992 411.257,473.101L411.257,33.805Z" style="fill:rgb(0,44,84);"/>
        </g>
        <g transform="matrix(0.445574,0,0,0.0424524,-0.515807,11.7292)">
            <rect x="14.848" y="151.243" width="22.614" height="22.614" style="fill:rgb(247,192,26);"/>
        </g>
        <g transform="matrix(0.445574,0,0,0.0424524,-0.515807,13.6187)">
            <rect x="14.848" y="151.243" width="22.614" height="22.614" style="fill:rgb(247,192,26);"/>
        </g>
        <g transform="matrix(0.0245485,0,0,0.0245485,4.98113,3.07241)">
            <path d="M251.569,15.811C380.93,16.231 485.809,121.369 485.809,250.809C485.809,380.25 380.93,485.388 251.569,485.808L250.809,485.809C121.109,485.809 15.809,380.509 15.809,250.809C15.809,121.109 121.109,15.809 250.809,15.809L251.569,15.811Z" style="fill:rgb(159,207,248);"/>
        </g>
        <g transform="matrix(0.0245485,0,0,0.0245485,4.98113,3.07241)">
            <path d="M349.124,442.032C332.728,457.07 317.265,466.122 306.085,463.073C295.145,460.089 285.566,454.42 282.804,430.249C280.041,406.077 269.22,373.619 251.15,372.238C233.08,370.856 208.287,394.337 195.166,360.497C182.044,326.657 197.396,298.343 227.669,293.508C257.942,288.674 277.97,305.939 298.688,305.939C319.406,305.939 341.506,285.912 354.627,300.414C367.749,314.917 369.13,334.945 380.18,341.851C391.229,348.757 396.754,359.807 389.848,370.856C383.401,381.171 365.52,426.993 349.124,442.032Z" style="fill:rgb(101,152,54);"/>
        </g>
        <g transform="matrix(0.0245485,0,0,0.0245485,4.98113,3.07241)">
            <path d="M378.744,53.703C443.172,95.627 485.809,168.278 485.809,250.809C485.809,264.245 484.679,277.419 482.509,290.243C461.847,276.157 428.675,270.818 425.04,274.274C419.596,279.452 452.261,292.887 432.779,317.722C427.279,324.733 420.685,333.272 401.018,315.65C381.352,298.028 355.109,251.79 331.304,251.79C317.137,251.79 292.506,270.528 262.637,274.56C240.545,277.542 215.112,276.781 210.829,251.79C207.884,234.611 216.907,222.139 238.352,210.083C259.796,198.027 291.677,200.323 305.567,194.729C318.255,189.62 326.777,163.826 317.543,163.466C299.717,162.771 270.006,164.55 262.97,142.061C259.859,132.116 259.274,109.695 291.672,108.276C314.505,107.276 352.899,110.237 362.733,102.348C367.143,98.81 376.845,74.2 378.744,53.703Z" style="fill:rgb(101,152,54);"/>
        </g>
        <g transform="matrix(0.0245485,0,0,0.0245485,4.98113,3.07241)">
            <path d="M146.367,40.27C159.852,51.918 194.302,83.505 190.45,104.359C187.124,122.359 166.31,132.173 142.672,136.382C105.21,143.051 94.638,151.198 78.648,182.024C68.285,202.003 52.874,200.115 24.121,188.692C41.941,123.62 87.05,69.784 146.367,40.27Z" style="fill:rgb(101,152,54);"/>
        </g>
    </g>
</svg>
