<?xml version="1.0" encoding="UTF-8" standalone="no"?>
<!DOCTYPE svg PUBLIC "-//W3C//DTD SVG 1.1//EN" "http://www.w3.org/Graphics/SVG/1.1/DTD/svg11.dtd">
<svg width="100%" height="100%" viewBox="0 0 6 6" version="1.1" xmlns="http://www.w3.org/2000/svg" xmlns:xlink="http://www.w3.org/1999/xlink" xml:space="preserve" xmlns:serif="http://www.serif.com/" style="fill-rule:evenodd;clip-rule:evenodd;stroke-linejoin:round;stroke-miterlimit:2;">
    <g transform="matrix(0.24,0,0,0.24,0,0)">
        <g transform="matrix(0.048,0,0,0.048,0,0)">
            <path d="M482.735,180.442C482.735,154.848 461.956,134.069 436.363,134.069L63.637,134.069C38.044,134.069 17.265,154.848 17.265,180.442L17.265,319.558C17.265,345.152 38.044,365.931 63.637,365.931L436.363,365.931C461.956,365.931 482.735,345.152 482.735,319.558L482.735,180.442Z" style="fill:rgb(49,71,111);"/>
        </g>
        <g transform="matrix(0.048,0,0,0.048,-0.468066,0.0859365)">
            <circle cx="117.017" cy="250" r="30" style="fill:white;"/>
        </g>
        <g transform="matrix(0.048,0,0,0.048,4.09945,0.0859365)">
            <circle cx="117.017" cy="250" r="30" style="fill:white;"/>
        </g>
        <g transform="matrix(0.048,0,0,0.048,8.66696,0.0859365)">
            <circle cx="117.017" cy="250" r="30" style="fill:white;"/>
        </g>
        <g transform="matrix(0.048,0,0,0.048,13.2345,0.0859365)">
            <circle cx="117.017" cy="250" r="30" style="fill:white;"/>
        </g>
    </g>
</svg>
