<?xml version="1.0" encoding="UTF-8" standalone="no"?>
<!DOCTYPE svg PUBLIC "-//W3C//DTD SVG 1.1//EN" "http://www.w3.org/Graphics/SVG/1.1/DTD/svg11.dtd">
<svg width="100%" height="100%" viewBox="0 0 120 120" version="1.1" xmlns="http://www.w3.org/2000/svg" xmlns:xlink="http://www.w3.org/1999/xlink" xml:space="preserve" xmlns:serif="http://www.serif.com/" style="fill-rule:evenodd;clip-rule:evenodd;stroke-linejoin:round;stroke-miterlimit:2;">
    <g transform="matrix(0.24,0,0,0.24,0,0)">
        <path d="M54.752,242.929C53.428,244.253 52.554,245.857 52.128,247.55C51.954,248.241 51.852,248.96 51.83,249.7L51.829,249.742L51.827,249.806L51.826,249.871L51.825,249.94L51.825,250L51.825,250.065L51.826,250.129L51.827,250.194L51.829,250.258L51.83,250.3C51.852,251.04 51.954,251.759 52.128,252.45C52.554,254.143 53.428,255.747 54.752,257.071C54.752,257.071 168.525,370.844 168.525,370.844C172.428,374.747 178.765,374.747 182.668,370.844C186.57,366.942 186.57,360.605 182.668,356.702L85.965,260L438.175,260C443.694,260 448.175,255.519 448.175,250C448.175,244.481 443.694,240 438.175,240L85.965,240L182.668,143.298C186.57,139.395 186.57,133.058 182.668,129.156C178.765,125.253 172.428,125.253 168.525,129.156L54.752,242.929Z" style="fill:rgb(49,71,111);"/>
    </g>
</svg>
