<?xml version="1.0" encoding="UTF-8" standalone="no"?>
<!DOCTYPE svg PUBLIC "-//W3C//DTD SVG 1.1//EN" "http://www.w3.org/Graphics/SVG/1.1/DTD/svg11.dtd">
<svg width="100%" height="100%" viewBox="0 0 120 120" version="1.1" xmlns="http://www.w3.org/2000/svg" xmlns:xlink="http://www.w3.org/1999/xlink" xml:space="preserve" xmlns:serif="http://www.serif.com/" style="fill-rule:evenodd;clip-rule:evenodd;stroke-linejoin:round;stroke-miterlimit:2;">
    <g transform="matrix(0.24,0,0,0.24,0,0)">
        <path d="M279.386,85.202C281.618,83.886 284.356,83.432 287.054,84.154L459.319,130.313C459.803,130.368 460.29,130.46 460.775,130.59C463.467,131.311 465.608,133.068 466.883,135.317C468.193,137.546 468.644,140.279 467.923,142.971C467.793,143.456 467.629,143.923 467.435,144.37L421.277,316.636C420.554,319.333 418.792,321.477 416.536,322.752C416.474,322.79 416.411,322.827 416.348,322.863L173.887,462.848L173.303,463.161C168.619,465.471 162.875,463.775 160.227,459.188C160.227,459.188 33.074,238.954 33.074,238.954C30.426,234.367 31.83,228.545 36.172,225.644L36.735,225.294C36.735,225.294 279.196,85.309 279.196,85.309C279.259,85.272 279.323,85.237 279.386,85.202ZM379.228,165.718C387.592,160.889 398.304,163.759 403.133,172.123C407.962,180.488 405.092,191.2 396.728,196.029C388.363,200.858 377.652,197.988 372.822,189.623C367.993,181.259 370.863,170.547 379.228,165.718Z" style="fill:rgb(224,74,58);"/>
        <g transform="matrix(0.866025,-0.5,0.5,0.866025,-93.99,145.021)">
            <path d="M156.234,243C161.771,227.196 171.896,212.806 186.295,202.015C218.648,177.767 262.386,179.33 292.759,203.154C298.66,207.704 297.067,215.768 292.65,219.078C289.023,221.796 284.145,221.676 280.683,219.101L280.681,219.104C257.238,200.528 223.339,199.245 198.289,218.019C189.235,224.804 182.372,233.434 177.828,243L259.206,243C264.725,243 269.206,247.481 269.206,253C269.206,258.519 264.725,263 259.206,263L171.891,263C171.191,268.178 171.088,273.438 171.598,278.667L240,278.667C245.519,278.667 250,283.148 250,288.667C250,294.186 245.519,298.667 240,298.667L176.734,298.667C178.805,303.485 181.474,308.135 184.756,312.514C206.964,342.146 248.933,348.315 278.712,326.447L278.739,326.48C283.796,321.94 290.119,323.502 293.429,327.918C296.739,332.335 295.841,338.607 291.424,341.917C291.398,341.937 291.371,341.957 291.345,341.976L291.246,342.051C252.602,371.013 197.714,363.153 168.752,324.509C162.728,316.471 158.297,307.73 155.405,298.667L139.52,298.667C134.001,298.667 129.52,294.186 129.52,288.667C129.52,283.148 134.001,278.667 139.52,278.667L151.526,278.667C151.134,273.437 151.214,268.192 151.755,263L139.52,263C134.001,263 129.52,258.519 129.52,253C129.52,247.481 134.001,243 139.52,243L156.234,243Z" style="fill:white;"/>
        </g>
    </g>
</svg>
