<?xml version="1.0" encoding="UTF-8" standalone="no"?>
<!DOCTYPE svg PUBLIC "-//W3C//DTD SVG 1.1//EN" "http://www.w3.org/Graphics/SVG/1.1/DTD/svg11.dtd">
<svg width="100%" height="100%" viewBox="0 0 120 120" version="1.1" xmlns="http://www.w3.org/2000/svg" xmlns:xlink="http://www.w3.org/1999/xlink" xml:space="preserve" xmlns:serif="http://www.serif.com/" style="fill-rule:evenodd;clip-rule:evenodd;stroke-linejoin:round;stroke-miterlimit:2;">
    <g transform="matrix(0.24,0,0,0.24,0,0)">
        <path d="M250,22.49L249.935,22.49L249.871,22.491L249.806,22.492L249.742,22.493L249.7,22.495C248.96,22.517 248.241,22.619 247.55,22.793C245.857,23.219 244.253,24.093 242.929,25.417C242.929,25.417 129.156,139.19 129.156,139.19C125.253,143.093 125.253,149.43 129.156,153.333C133.058,157.235 139.395,157.235 143.298,153.333L240,56.63L240,443.37L143.298,346.667C139.395,342.765 133.058,342.765 129.156,346.667C125.253,350.57 125.253,356.907 129.156,360.81L242.929,474.583C244.253,475.907 245.857,476.781 247.55,477.207C248.241,477.381 248.96,477.483 249.7,477.505L249.742,477.507L249.806,477.508L249.871,477.509L249.94,477.51L250,477.51L250.065,477.51L250.129,477.509L250.194,477.508L250.258,477.507L250.3,477.505C251.04,477.483 251.759,477.381 252.45,477.207C254.143,476.781 255.747,475.907 257.071,474.583C257.071,474.583 370.844,360.81 370.844,360.81C374.747,356.907 374.747,350.57 370.844,346.667C366.942,342.765 360.605,342.765 356.702,346.667L260,443.37L260,56.63L356.702,153.333C360.605,157.235 366.942,157.235 370.844,153.333C374.747,149.43 374.747,143.093 370.844,139.19L257.071,25.417C255.747,24.093 254.143,23.219 252.45,22.793C251.759,22.619 251.04,22.517 250.3,22.495L250.258,22.493L250.194,22.492L250.129,22.491L250.06,22.49L250,22.49Z" style="fill:rgb(49,71,111);"/>
    </g>
</svg>
