<?xml version="1.0" encoding="UTF-8" standalone="no"?>
<!DOCTYPE svg PUBLIC "-//W3C//DTD SVG 1.1//EN" "http://www.w3.org/Graphics/SVG/1.1/DTD/svg11.dtd">
<svg width="100%" height="100%" viewBox="0 0 120 120" version="1.1" xmlns="http://www.w3.org/2000/svg" xmlns:xlink="http://www.w3.org/1999/xlink" xml:space="preserve" xmlns:serif="http://www.serif.com/" style="fill-rule:evenodd;clip-rule:evenodd;stroke-linejoin:round;stroke-miterlimit:2;">
    <g transform="matrix(0.24,0,0,0.24,0,0)">
        <path d="M443.37,240L56.63,240L153.333,143.298C157.235,139.395 157.235,133.058 153.333,129.156C149.43,125.253 143.093,125.253 139.19,129.156L25.417,242.929C24.093,244.253 23.219,245.857 22.793,247.55C22.619,248.241 22.517,248.96 22.495,249.7L22.493,249.742L22.492,249.806L22.491,249.871L22.49,249.94L22.49,250L22.49,250.065L22.491,250.129L22.492,250.194L22.493,250.258L22.495,250.3C22.517,251.04 22.619,251.759 22.793,252.45C23.219,254.143 24.093,255.747 25.417,257.071C25.417,257.071 139.19,370.844 139.19,370.844C143.093,374.747 149.43,374.747 153.333,370.844C157.235,366.942 157.235,360.605 153.333,356.702L56.63,260L443.37,260L346.667,356.702C342.765,360.605 342.765,366.942 346.667,370.844C350.57,374.747 356.907,374.747 360.81,370.844L474.583,257.071C475.907,255.747 476.781,254.143 477.207,252.45C477.381,251.759 477.483,251.04 477.505,250.3L477.507,250.258L477.508,250.194L477.509,250.129L477.51,250.06L477.51,250L477.51,249.935L477.509,249.871L477.508,249.806L477.507,249.742L477.505,249.7C477.483,248.96 477.381,248.241 477.207,247.55C476.781,245.857 475.907,244.253 474.583,242.929C474.583,242.929 360.81,129.156 360.81,129.156C356.907,125.253 350.57,125.253 346.667,129.156C342.765,133.058 342.765,139.395 346.667,143.298L443.37,240Z" style="fill:rgb(49,71,111);"/>
    </g>
</svg>
