<?xml version="1.0" encoding="UTF-8" standalone="no"?>
<!DOCTYPE svg PUBLIC "-//W3C//DTD SVG 1.1//EN" "http://www.w3.org/Graphics/SVG/1.1/DTD/svg11.dtd">
<svg width="100%" height="100%" viewBox="0 0 6 6" version="1.1" xmlns="http://www.w3.org/2000/svg" xmlns:xlink="http://www.w3.org/1999/xlink" xml:space="preserve" xmlns:serif="http://www.serif.com/" style="fill-rule:evenodd;clip-rule:evenodd;stroke-linejoin:round;stroke-miterlimit:2;">
    <g transform="matrix(0.24,0,0,0.24,0,0)">
        <g transform="matrix(0.048,0,0,0.048,0,0)">
            <rect x="165.401" y="61.436" width="173.343" height="377.127" style="fill:white;"/>
        </g>
        <g transform="matrix(0.048,0,0,0.048,0,0)">
            <path d="M226.005,61.436L222.653,125.403C222.639,125.666 222.636,125.926 222.642,126.184L222.639,126.464L277.362,126.464C277.361,126.29 277.357,126.116 277.348,125.941L273.967,61.436L360.948,61.436C363.85,61.436 366.465,62.676 368.293,64.654C369.466,65.832 370.361,67.318 370.836,69.033L469.568,425.648C469.838,426.535 469.988,427.473 469.999,428.444L470,428.642C469.977,431.565 468.698,434.192 466.675,436.007C466.366,436.285 466.038,436.545 465.692,436.784L465.613,436.839C464.026,437.918 462.113,438.553 460.053,438.563L460,438.564L293.732,438.564L290.107,369.409L209.865,369.409L206.241,438.564L40,438.564L39.947,438.563C37.887,438.553 35.974,437.918 34.387,436.839L34.308,436.784C33.962,436.545 33.634,436.285 33.325,436.007C31.303,434.192 30.023,431.566 30,428.642L30.001,428.444C30.012,427.473 30.162,426.534 30.432,425.648L129.064,69.397C129.405,68.162 129.965,67.046 130.69,66.077C132.465,63.288 135.584,61.436 139.132,61.436L226.005,61.436ZM286.388,298.436L213.585,298.436L220.556,165.423L279.417,165.423L286.388,298.436Z" style="fill:rgb(39,39,39);"/>
        </g>
    </g>
</svg>
