<?xml version="1.0" encoding="UTF-8" standalone="no"?>
<!DOCTYPE svg PUBLIC "-//W3C//DTD SVG 1.1//EN" "http://www.w3.org/Graphics/SVG/1.1/DTD/svg11.dtd">
<svg width="100%" height="100%" viewBox="0 0 120 120" version="1.1" xmlns="http://www.w3.org/2000/svg" xmlns:xlink="http://www.w3.org/1999/xlink" xml:space="preserve" xmlns:serif="http://www.serif.com/" style="fill-rule:evenodd;clip-rule:evenodd;stroke-linejoin:round;stroke-miterlimit:2;">
    <g transform="matrix(0.24,0,0,0.24,0,0)">
        <g transform="matrix(1,0,0,1,0,18.6667)">
            <path d="M153.659,102.01C153.004,99.544 153.287,96.829 154.662,94.446L198.932,17.769C201.691,12.989 207.812,11.349 212.592,14.108C217.372,16.868 219.012,22.989 216.252,27.769L188.107,76.518C207.456,69.605 228.292,65.841 250,65.841C351.64,65.841 434.159,148.36 434.159,250C434.159,351.64 351.64,434.159 250,434.159C148.36,434.159 65.841,351.64 65.841,250C65.841,214.111 76.129,180.606 93.909,152.286C93.909,152.286 99.521,144.518 107.46,150.026C115.128,155.347 110.34,163.735 110.34,163.735C94.811,188.802 85.841,218.362 85.841,250C85.841,340.602 159.398,414.159 250,414.159C340.602,414.159 414.159,340.602 414.159,250C414.159,159.398 340.602,85.841 250,85.841C226.466,85.841 204.083,90.804 183.834,99.742L245,135.056C249.78,137.816 251.42,143.937 248.66,148.716C245.901,153.496 239.78,155.136 235,152.377L158.322,108.107C155.94,106.731 154.338,104.521 153.671,102.058L153.665,102.034C153.665,102.034 153.659,102.01 153.659,102.01Z" style="fill:rgb(49,71,111);"/>
        </g>
    </g>
</svg>
