<?xml version="1.0" encoding="UTF-8" standalone="no"?>
<!DOCTYPE svg PUBLIC "-//W3C//DTD SVG 1.1//EN" "http://www.w3.org/Graphics/SVG/1.1/DTD/svg11.dtd">
<svg width="100%" height="100%" viewBox="0 0 6 6" version="1.1" xmlns="http://www.w3.org/2000/svg" xmlns:xlink="http://www.w3.org/1999/xlink" xml:space="preserve" xmlns:serif="http://www.serif.com/" style="fill-rule:evenodd;clip-rule:evenodd;stroke-linejoin:round;stroke-miterlimit:2;">
    <g transform="matrix(0.24,0,0,0.24,0,0)">
        <g transform="matrix(0.0415692,-0.024,0.024,0.0415692,-4.48307,7.56087)">
            <rect x="20.65" y="169.29" width="461" height="165" style="fill:rgb(241,174,100);"/>
        </g>
        <g transform="matrix(0.0415119,-0.0239669,0.0244477,0.0423447,-4.46425,7.30544)">
            <rect x="72.859" y="232.735" width="20.028" height="99.765" style="fill:rgb(83,83,83);"/>
        </g>
        <g transform="matrix(0.0415119,-0.0239669,0.0163287,0.0282821,0.528577,10.6573)">
            <rect x="72.859" y="232.735" width="20.028" height="99.765" style="fill:rgb(83,83,83);"/>
        </g>
        <g transform="matrix(0.0415119,-0.0239669,0.0163287,0.0282821,2.82181,9.33326)">
            <rect x="72.859" y="232.735" width="20.028" height="99.765" style="fill:rgb(83,83,83);"/>
        </g>
        <g transform="matrix(0.0415119,-0.0239669,0.0244477,0.0423447,2.41546,3.33344)">
            <rect x="72.859" y="232.735" width="20.028" height="99.765" style="fill:rgb(83,83,83);"/>
        </g>
        <g transform="matrix(0.0415119,-0.0239669,0.0244477,0.0423447,9.29516,-0.63856)">
            <rect x="72.859" y="232.735" width="20.028" height="99.765" style="fill:rgb(83,83,83);"/>
        </g>
        <g transform="matrix(0.0415119,-0.0239669,0.0163287,0.0282821,7.40828,6.68526)">
            <rect x="72.859" y="232.735" width="20.028" height="99.765" style="fill:rgb(83,83,83);"/>
        </g>
        <g transform="matrix(0.0415119,-0.0239669,0.0163287,0.0282821,9.70152,5.36126)">
            <rect x="72.859" y="232.735" width="20.028" height="99.765" style="fill:rgb(83,83,83);"/>
        </g>
    </g>
</svg>
