<?xml version="1.0" encoding="UTF-8" standalone="no"?>
<!DOCTYPE svg PUBLIC "-//W3C//DTD SVG 1.1//EN" "http://www.w3.org/Graphics/SVG/1.1/DTD/svg11.dtd">
<svg width="100%" height="100%" viewBox="0 0 6 6" version="1.1" xmlns="http://www.w3.org/2000/svg" xmlns:xlink="http://www.w3.org/1999/xlink" xml:space="preserve" xmlns:serif="http://www.serif.com/" style="fill-rule:evenodd;clip-rule:evenodd;stroke-linejoin:round;stroke-miterlimit:2;">
    <g transform="matrix(0.24,0,0,0.24,0,0)">
        <g transform="matrix(0.048,0,0,0.048,0,0)">
            <path d="M66.667,24.604C62.882,24.604 59.585,26.711 57.887,29.816C57.109,31.238 56.667,32.87 56.667,34.604L56.667,465.396C56.667,470.915 61.148,475.396 66.667,475.396L433.333,475.396C435.111,475.396 436.781,474.931 438.228,474.116C441.274,472.402 443.333,469.137 443.333,465.396L443.333,93.337C443.333,93.224 443.331,93.111 443.328,92.999C443.261,90.53 442.287,88.082 440.404,86.2L381.738,27.533C379.621,25.416 376.787,24.447 374.015,24.627C373.789,24.612 373.561,24.604 373.331,24.604L66.667,24.604Z" style="fill:rgb(104,154,238);"/>
        </g>
        <g transform="matrix(0.048,0,0,0.048,0,0)">
            <path d="M106.667,475.396L393.331,475.396L393.331,260C393.331,254.481 388.851,250 383.331,250L116.667,250C111.148,250 106.667,254.481 106.667,260L106.667,475.396Z" style="fill:white;"/>
        </g>
        <g transform="matrix(0.048,0,0,0.048,0,0)">
            <path d="M363.331,24.604L136.667,24.604L136.667,175C136.667,180.519 141.148,185 146.667,185L353.132,185C353.199,185.001 353.265,185.002 353.331,185.002C358.851,185.002 363.331,180.521 363.331,175.002L363.331,24.604Z" style="fill:rgb(186,186,186);"/>
        </g>
        <g transform="matrix(2.40936e-18,0.0393478,-0.020235,1.23904e-18,16.9799,12.4784)">
            <path d="M94,48.429C94,35.337 88.534,24.708 81.801,24.708C75.068,24.708 69.602,35.337 69.602,48.429L69.602,443.779C69.602,456.871 75.068,467.5 81.801,467.5C88.534,467.5 94,456.871 94,443.779L94,48.429Z" style="fill:rgb(83,83,83);"/>
        </g>
        <g transform="matrix(2.40936e-18,0.0393478,-0.020235,1.23904e-18,16.9799,15.9032)">
            <path d="M94,48.429C94,35.337 88.534,24.708 81.801,24.708C75.068,24.708 69.602,35.337 69.602,48.429L69.602,443.779C69.602,456.871 75.068,467.5 81.801,467.5C88.534,467.5 94,456.871 94,443.779L94,48.429Z" style="fill:rgb(83,83,83);"/>
        </g>
        <g transform="matrix(0.0590769,0,0,0.048,-2.91436,0.0206098)">
            <rect x="278.269" y="61.875" width="32.5" height="85" style="fill:rgb(83,83,83);"/>
        </g>
    </g>
</svg>
