<?xml version="1.0" encoding="UTF-8" standalone="no"?>
<!DOCTYPE svg PUBLIC "-//W3C//DTD SVG 1.1//EN" "http://www.w3.org/Graphics/SVG/1.1/DTD/svg11.dtd">
<svg width="100%" height="100%" viewBox="0 0 120 120" version="1.1" xmlns="http://www.w3.org/2000/svg" xmlns:xlink="http://www.w3.org/1999/xlink" xml:space="preserve" xmlns:serif="http://www.serif.com/" style="fill-rule:evenodd;clip-rule:evenodd;stroke-linejoin:round;stroke-miterlimit:2;">
    <g transform="matrix(0.24,0,0,0.24,0,0)">
        <g transform="matrix(1,0,0,1,-1.05449,15.2111)">
            <circle cx="222.04" cy="205.775" r="169.753" style="fill:rgb(166,199,255);"/>
        </g>
        <g transform="matrix(0.707107,-0.707107,0.707107,0.707107,-77.3895,223.965)">
            <path d="M213.09,23.876C315.194,23.876 398.09,106.772 398.09,208.876C398.09,310.981 315.194,393.876 213.09,393.876C110.986,393.876 28.09,310.981 28.09,208.876C28.09,106.772 110.986,23.876 213.09,23.876ZM213.09,43.876C304.156,43.876 378.09,117.81 378.09,208.876C378.09,299.942 304.156,373.876 213.09,373.876C122.024,373.876 48.09,299.942 48.09,208.876C48.09,117.81 122.024,43.876 213.09,43.876Z" style="fill:rgb(86,86,86);"/>
        </g>
        <g transform="matrix(0.402768,-0.402768,0.715525,0.715525,-0.0948386,262.949)">
            <path d="M344.101,299.91C344.101,294.456 336.234,290.028 326.545,290.028C316.855,290.028 308.989,294.456 308.989,299.91L308.989,450.792C308.989,456.246 316.855,460.674 326.545,460.674C336.234,460.674 344.101,456.246 344.101,450.792L344.101,299.91Z" style="fill:rgb(86,86,86);"/>
        </g>
    </g>
</svg>
