<?xml version="1.0" encoding="UTF-8" standalone="no"?>
<!DOCTYPE svg PUBLIC "-//W3C//DTD SVG 1.1//EN" "http://www.w3.org/Graphics/SVG/1.1/DTD/svg11.dtd">
<svg width="100%" height="100%" viewBox="0 0 120 120" version="1.1" xmlns="http://www.w3.org/2000/svg" xmlns:xlink="http://www.w3.org/1999/xlink" xml:space="preserve" xmlns:serif="http://www.serif.com/" style="fill-rule:evenodd;clip-rule:evenodd;stroke-linejoin:round;stroke-miterlimit:2;">
    <g transform="matrix(0.24,0,0,0.24,0,0)">
        <path d="M193.365,85L200.245,43.337C200.245,43.337 229.075,37.484 250.381,37.484C271.687,37.484 299.755,43.337 299.755,43.337L306.668,85.2C327.979,92.614 347.406,104.075 364.025,118.66L404.097,103.579C404.097,103.579 423.582,125.62 434.235,144.072C444.888,162.523 453.853,189.758 453.853,189.758L420.24,217.345C422.139,227.615 423.132,238.204 423.132,249.022C423.132,260.434 422.027,271.591 419.918,282.391L453.853,310.242C453.853,310.242 444.888,337.477 434.235,355.928C423.582,374.38 404.097,396.421 404.097,396.421L362.452,380.748C346.276,394.606 327.523,405.539 307.011,412.725L299.755,456.663C299.755,456.663 271.687,462.516 250.381,462.516C229.075,462.516 200.245,456.663 200.245,456.663L193.022,412.924C172.359,405.768 153.464,394.81 137.172,380.889L95.903,396.421C95.903,396.421 76.799,375.04 66.146,356.588C55.493,338.136 46.147,310.242 46.147,310.242L79.615,282.774C77.457,271.855 76.326,260.57 76.326,249.022C76.326,238.069 77.344,227.352 79.29,216.959L46.147,189.758C46.147,189.758 55.493,161.864 66.146,143.412C76.799,124.96 95.903,103.579 95.903,103.579L135.595,118.517C152.328,103.868 171.899,92.383 193.365,85ZM250.381,157.147C301.628,157.147 343.234,198.753 343.234,250C343.234,301.247 301.628,342.853 250.381,342.853C199.134,342.853 157.528,301.247 157.528,250C157.528,198.753 199.134,157.147 250.381,157.147Z" style="fill:rgb(130,130,130);"/>
    </g>
</svg>
