<?xml version="1.0" encoding="UTF-8" standalone="no"?>
<!DOCTYPE svg PUBLIC "-//W3C//DTD SVG 1.1//EN" "http://www.w3.org/Graphics/SVG/1.1/DTD/svg11.dtd">
<svg width="100%" height="100%" viewBox="0 0 500 500" version="1.1" xmlns="http://www.w3.org/2000/svg" xmlns:xlink="http://www.w3.org/1999/xlink" xml:space="preserve" xmlns:serif="http://www.serif.com/" style="fill-rule:evenodd;clip-rule:evenodd;stroke-linejoin:round;stroke-miterlimit:2;">
    <circle cx="187.255" cy="407.843" r="29.412" style="fill:rgb(190,190,190);"/>
    <g transform="matrix(1,0,0,1,179.081,0)">
        <circle cx="187.255" cy="407.843" r="29.412" style="fill:rgb(190,190,190);"/>
    </g>
    <path d="M187.091,362.708C212.293,362.708 232.753,383.169 232.753,408.371C232.753,433.572 212.293,454.033 187.091,454.033C161.889,454.033 141.429,433.572 141.429,408.371C141.429,383.169 161.889,362.708 187.091,362.708ZM187.091,382.708C201.255,382.708 212.753,394.207 212.753,408.371C212.753,422.534 201.255,434.033 187.091,434.033C172.928,434.033 161.429,422.534 161.429,408.371C161.429,394.207 172.928,382.708 187.091,382.708Z" style="fill:rgb(49,52,53);"/>
    <g transform="matrix(1,0,0,1,179.245,0)">
        <path d="M187.091,362.708C212.293,362.708 232.753,383.169 232.753,408.371C232.753,433.572 212.293,454.033 187.091,454.033C161.889,454.033 141.429,433.572 141.429,408.371C141.429,383.169 161.889,362.708 187.091,362.708ZM187.091,382.708C201.255,382.708 212.753,394.207 212.753,408.371C212.753,422.534 201.255,434.033 187.091,434.033C172.928,434.033 161.429,422.534 161.429,408.371C161.429,394.207 172.928,382.708 187.091,382.708Z" style="fill:rgb(49,52,53);"/>
    </g>
    <path d="M135.01,137.8L117.147,153.836L106.58,81.761L46.779,81.761C41.26,81.761 36.779,77.28 36.779,71.761C36.779,66.242 41.26,61.761 46.779,61.761L115.114,61.761C118.775,61.761 121.98,63.733 123.722,66.671C124.442,67.814 124.941,69.123 125.15,70.546L135.01,137.8Z" style="fill:rgb(98,98,98);"/>
    <path d="M114.84,138.095L451.407,137.8C456.926,137.8 461.407,142.281 461.407,147.8C461.407,147.845 461.406,147.889 461.406,147.934C461.419,148.876 461.297,149.836 461.027,150.79L410.087,330.839C410.016,331.088 409.937,331.333 409.849,331.572C408.491,335.485 404.77,338.296 400.399,338.296L153.286,338.296C152.095,338.296 150.953,338.088 149.894,337.705C146.313,336.61 143.494,333.538 142.915,329.589L114.84,138.095Z" style="fill:rgb(224,74,58);"/>
</svg>
