<?xml version="1.0" encoding="UTF-8" standalone="no"?>
<!DOCTYPE svg PUBLIC "-//W3C//DTD SVG 1.1//EN" "http://www.w3.org/Graphics/SVG/1.1/DTD/svg11.dtd">
<svg width="100%" height="100%" viewBox="0 0 120 120" version="1.1" xmlns="http://www.w3.org/2000/svg" xmlns:xlink="http://www.w3.org/1999/xlink" xml:space="preserve" xmlns:serif="http://www.serif.com/" style="fill-rule:evenodd;clip-rule:evenodd;stroke-linejoin:round;stroke-miterlimit:2;">
    <g transform="matrix(0.24,0,0,0.24,0,0)">
        <path d="M380.801,474.199L380.801,25.801C380.801,20.281 376.32,15.801 370.801,15.801L129.199,15.801C123.68,15.801 119.199,20.281 119.199,25.801L119.199,474.199C119.199,479.719 123.68,484.199 129.199,484.199L370.801,484.199C376.32,484.199 380.801,479.719 380.801,474.199Z" style="fill:rgb(103,103,103);"/>
        <g transform="matrix(1,0,0,1.0062,0,-2.48574)">
            <rect x="139.216" y="38.029" width="221.569" height="362.968" style="fill:rgb(159,207,248);"/>
        </g>
        <g transform="matrix(4.47153e-17,0.730256,-0.632171,3.87093e-17,409.153,369.265)">
            <path d="M114.115,201.914C114.115,193.184 107.979,186.096 100.421,186.096C92.864,186.096 86.728,193.184 86.728,201.914L86.728,301.597C86.728,310.328 92.864,317.416 100.421,317.416C107.979,317.416 114.115,310.328 114.115,301.597L114.115,201.914Z" style="fill:rgb(39,39,39);"/>
        </g>
        <g transform="matrix(1,0,0,1,10,0)">
            <path d="M184.877,58.969C181.286,59.109 177.937,56.703 175.816,53.977L157.402,32.082C154.642,27.302 156.282,21.181 161.062,18.421C165.842,15.662 171.963,17.302 174.722,22.082L304.504,23.421C307.264,18.642 313.384,17.002 318.164,19.761C322.944,22.521 324.584,28.642 321.824,33.421L304.184,53.977C301.425,56.769 298.572,59.18 294.908,58.958C294.707,58.971 294.505,58.977 294.301,58.977L185.269,58.977C185.138,58.977 185.007,58.974 184.877,58.969Z" style="fill:rgb(103,103,103);"/>
        </g>
    </g>
</svg>
