<?xml version="1.0" encoding="UTF-8" standalone="no"?>
<!DOCTYPE svg PUBLIC "-//W3C//DTD SVG 1.1//EN" "http://www.w3.org/Graphics/SVG/1.1/DTD/svg11.dtd">
<svg width="100%" height="100%" viewBox="0 0 120 120" version="1.1" xmlns="http://www.w3.org/2000/svg" xmlns:xlink="http://www.w3.org/1999/xlink" xml:space="preserve" xmlns:serif="http://www.serif.com/" style="fill-rule:evenodd;clip-rule:evenodd;stroke-linejoin:round;stroke-miterlimit:2;">
    <g transform="matrix(0.24,0,0,0.24,0,0)">
        <path d="M307.728,45.997C309.79,45.997 311.708,46.623 313.3,47.695L313.321,47.709C315.979,49.507 317.728,52.549 317.728,55.997L317.728,444.003C317.728,447.451 315.979,450.493 313.321,452.291L313.3,452.305C311.708,453.377 309.79,454.003 307.728,454.003L271.548,454.003C271.135,454.003 270.729,453.978 270.33,453.929C267.572,454.265 264.688,453.457 262.455,451.462L109.07,314.413C105.992,312.706 103.907,309.425 103.907,305.66L103.907,194.34C103.907,190.575 105.992,187.294 109.07,185.587L262.455,48.538C264.688,46.543 267.572,45.735 270.33,46.071C270.729,46.022 271.135,45.997 271.548,45.997L307.728,45.997Z" style="fill:rgb(168,167,162);"/>
        <path d="M110.907,315.66L110.907,184.34L28.57,184.34C24.717,184.34 21.369,186.524 19.7,189.721L19.688,189.744C18.974,191.12 18.57,192.683 18.57,194.34L18.57,305.66C18.57,307.317 18.974,308.88 19.688,310.256L19.7,310.279C21.369,313.476 24.717,315.66 28.57,315.66L110.907,315.66Z" style="fill:rgb(139,139,135);"/>
        <path d="M338.163,120.5C332.674,120.465 328.228,115.998 328.228,110.5C328.228,104.981 332.708,100.5 338.228,100.5L338.47,100.5C421.149,100.634 488.228,167.796 488.228,250.5C488.228,333.287 421.015,400.5 338.228,400.5C332.708,400.5 328.228,396.019 328.228,390.5C328.228,384.981 332.708,380.5 338.228,380.5C409.976,380.5 468.228,322.249 468.228,250.5C468.228,178.751 409.976,120.5 338.228,120.5L338.163,120.5Z" style="fill:rgb(49,71,111);"/>
        <g transform="matrix(1,0,0,1,-0.779006,0)">
            <path d="M338.942,350.5C333.453,350.465 329.007,345.998 329.007,340.5C329.007,334.981 333.487,330.5 339.007,330.5L339.265,330.5C383.303,330.357 419.007,294.565 419.007,250.5C419.007,206.347 383.16,170.5 339.007,170.5C333.487,170.5 329.007,166.019 329.007,160.5C329.007,154.981 333.487,150.5 339.007,150.5L339.33,150.501C394.377,150.679 439.007,195.419 439.007,250.5C439.007,305.692 394.198,350.5 339.007,350.5L338.942,350.5Z" style="fill:rgb(49,71,111);"/>
        </g>
    </g>
</svg>
