<?xml version="1.0" encoding="UTF-8" standalone="no"?>
<!DOCTYPE svg PUBLIC "-//W3C//DTD SVG 1.1//EN" "http://www.w3.org/Graphics/SVG/1.1/DTD/svg11.dtd">
<svg width="100%" height="100%" viewBox="0 0 120 120" version="1.1" xmlns="http://www.w3.org/2000/svg" xmlns:xlink="http://www.w3.org/1999/xlink" xml:space="preserve" xmlns:serif="http://www.serif.com/" style="fill-rule:evenodd;clip-rule:evenodd;stroke-linejoin:round;stroke-miterlimit:2;">
    <g transform="matrix(0.24,0,0,0.24,0,0)">
        <path d="M29.237,333.543L469.237,333.543C469.237,333.543 466.427,112.102 249.237,112.102C32.048,112.102 29.237,333.543 29.237,333.543Z" style="fill:white;"/>
        <g transform="matrix(1,0,0,1,0,-22.4719)">
            <path d="M409.444,355.337L479.236,355.337C479.237,355.082 479.237,354.828 479.237,354.574C479.237,227.634 376.178,124.574 249.237,124.574C122.297,124.574 19.237,227.634 19.237,354.574C19.237,354.828 19.238,355.082 19.238,355.337L91.137,355.337C90.932,352.037 90.827,348.699 90.827,345.337C90.827,341.975 90.932,338.637 91.137,335.337L40.108,335.337C42.025,314.269 47.061,294.094 54.751,275.27L99.369,293.755C101.542,287.405 104.103,281.238 107.025,275.278L63.203,257.123C72.661,239.12 84.658,222.651 98.717,208.197L130.569,240.048C134.977,235.04 139.695,230.31 144.693,225.888L113.333,194.528C128.192,181.893 144.828,171.292 162.811,163.154L179.153,202.606C185.09,199.639 191.239,197.03 197.571,194.809L181.408,155.788C199.677,149.546 219.088,145.755 239.237,144.809L239.237,186.252C242.892,186.002 246.576,185.874 250.29,185.874C253.291,185.874 256.273,185.957 259.237,186.122L259.237,144.809C280.169,145.792 300.303,149.846 319.202,156.531L303.304,194.913C309.63,197.146 315.774,199.767 321.707,202.746L337.716,164.097C355.443,172.353 371.831,183.013 386.457,195.656L356.067,226.046C361.056,230.473 365.768,235.211 370.17,240.228L400.957,209.44C414.71,223.811 426.448,240.137 435.707,257.955L393.613,275.395C396.53,281.36 399.087,287.529 401.253,293.878L444.075,276.137C451.563,294.704 456.476,314.586 458.366,335.337L409.444,335.337C409.649,338.637 409.753,341.975 409.753,345.337C409.753,348.699 409.649,352.037 409.444,355.337Z" style="fill:rgb(49,71,111);"/>
        </g>
        <g transform="matrix(0.519514,-0.790508,0.722318,0.4747,-70.5325,308.172)">
            <path d="M314.607,321.296C314.607,314.91 309.87,309.726 304.035,309.726L173.493,309.726C167.658,309.726 162.921,314.91 162.921,321.296C162.921,327.681 167.658,332.865 173.493,332.865L304.035,332.865C309.87,332.865 314.607,327.681 314.607,321.296Z" style="fill:rgb(224,74,58);"/>
        </g>
        <g transform="matrix(1.24522,0,0,1.24522,-68.312,-2.95399)">
            <circle cx="255.627" cy="264.054" r="14.054" style="fill:rgb(49,71,111);"/>
        </g>
    </g>
</svg>
