<?xml version="1.0" encoding="UTF-8" standalone="no"?>
<!DOCTYPE svg PUBLIC "-//W3C//DTD SVG 1.1//EN" "http://www.w3.org/Graphics/SVG/1.1/DTD/svg11.dtd">
<svg width="100%" height="100%" viewBox="0 0 500 500" version="1.1" xmlns="http://www.w3.org/2000/svg" xmlns:xlink="http://www.w3.org/1999/xlink" xml:space="preserve" xmlns:serif="http://www.serif.com/" style="fill-rule:evenodd;clip-rule:evenodd;stroke-linejoin:round;stroke-miterlimit:2;">
    <g transform="matrix(0.707107,0.707107,-0.707107,0.707107,287.868,-127.38)">
        <path d="M353.538,338.348L126.604,338.348C91.198,338.348 102.936,318.332 126.604,318.332C168.025,318.332 201.654,284.703 201.654,243.282C201.654,220.427 190.28,201.175 175.281,186.175C154.23,165.124 145.004,142.809 145.004,116.482C145.004,64.013 187.602,21.415 240.071,21.415L240.685,21.417C292.871,21.747 335.138,64.217 335.138,116.482C335.138,142.809 325.912,165.124 304.861,186.175C289.862,201.175 278.488,220.427 278.488,243.282C278.488,284.703 312.116,318.332 353.538,318.332C377.206,318.332 388.943,338.348 353.538,338.348Z" style="fill:rgb(235,144,72);"/>
    </g>
    <g transform="matrix(0.707107,0.707107,-0.642824,0.642824,260.931,-100.442)">
        <path d="M412.071,430.047C412.071,423.976 407.59,419.047 402.071,419.047L78.071,419.047C72.552,419.047 68.071,423.976 68.071,430.047C68.071,436.118 72.552,441.047 78.071,441.047L402.071,441.047C407.59,441.047 412.071,436.118 412.071,430.047Z" style="fill:rgb(34,34,34);"/>
    </g>
    <g transform="matrix(0.707107,0.707107,-0.707107,0.707107,287.868,-127.38)">
        <path d="M68.071,368.455L68.071,401.848L412.071,401.848L412.071,368.455C412.071,340.892 389.694,318.515 362.131,318.515L118.011,318.515C90.448,318.515 68.071,340.892 68.071,368.455Z" style="fill:rgb(86,86,86);"/>
    </g>
</svg>
