<?xml version="1.0" encoding="UTF-8" standalone="no"?>
<!DOCTYPE svg PUBLIC "-//W3C//DTD SVG 1.1//EN" "http://www.w3.org/Graphics/SVG/1.1/DTD/svg11.dtd">
<svg width="100%" height="100%" viewBox="0 0 120 120" version="1.1" xmlns="http://www.w3.org/2000/svg" xmlns:xlink="http://www.w3.org/1999/xlink" xml:space="preserve" xmlns:serif="http://www.serif.com/" style="fill-rule:evenodd;clip-rule:evenodd;stroke-linejoin:round;stroke-miterlimit:2;">
    <g transform="matrix(0.24,0,0,0.24,0,0)">
        <circle cx="250" cy="250" r="121.84" style="fill:rgb(247,205,33);"/>
        <g transform="matrix(1.67529,0,0,0.639025,174.118,-27.3634)">
            <path d="M51.264,92.194C51.264,83.557 48.589,76.545 45.295,76.545C42.001,76.545 39.326,83.557 39.326,92.194L39.326,196.43C39.326,205.067 42.001,212.079 45.295,212.079C48.589,212.079 51.264,205.067 51.264,196.43L51.264,92.194Z" style="fill:rgb(247,205,33);"/>
        </g>
        <g transform="matrix(1.67529,0,0,0.639025,174.118,342.926)">
            <path d="M51.264,92.194C51.264,83.557 48.589,76.545 45.295,76.545C42.001,76.545 39.326,83.557 39.326,92.194L39.326,196.43C39.326,205.067 42.001,212.079 45.295,212.079C48.589,212.079 51.264,205.067 51.264,196.43L51.264,92.194Z" style="fill:rgb(247,205,33);"/>
        </g>
        <g transform="matrix(1.18461,1.18461,-0.451859,0.451859,392.469,0.217546)">
            <path d="M51.264,92.194C51.264,83.557 48.589,76.545 45.295,76.545C42.001,76.545 39.326,83.557 39.326,92.194L39.326,196.43C39.326,205.067 42.001,212.079 45.295,212.079C48.589,212.079 51.264,205.067 51.264,196.43L51.264,92.194Z" style="fill:rgb(247,205,33);"/>
        </g>
        <g transform="matrix(1.18461,1.18461,-0.451859,0.451859,130.635,262.052)">
            <path d="M51.264,92.194C51.264,83.557 48.589,76.545 45.295,76.545C42.001,76.545 39.326,83.557 39.326,92.194L39.326,196.43C39.326,205.067 42.001,212.079 45.295,212.079C48.589,212.079 51.264,205.067 51.264,196.43L51.264,92.194Z" style="fill:rgb(247,205,33);"/>
        </g>
        <g transform="matrix(0,1.67529,-0.639025,0,527.363,174.118)">
            <path d="M51.264,92.194C51.264,83.557 48.589,76.545 45.295,76.545C42.001,76.545 39.326,83.557 39.326,92.194L39.326,196.43C39.326,205.067 42.001,212.079 45.295,212.079C48.589,212.079 51.264,205.067 51.264,196.43L51.264,92.194Z" style="fill:rgb(247,205,33);"/>
        </g>
        <g transform="matrix(0,1.67529,-0.639025,0,157.074,174.118)">
            <path d="M51.264,92.194C51.264,83.557 48.589,76.545 45.295,76.545C42.001,76.545 39.326,83.557 39.326,92.194L39.326,196.43C39.326,205.067 42.001,212.079 45.295,212.079C48.589,212.079 51.264,205.067 51.264,196.43L51.264,92.194Z" style="fill:rgb(247,205,33);"/>
        </g>
        <g transform="matrix(-1.18461,1.18461,-0.451859,-0.451859,499.782,392.469)">
            <path d="M51.264,92.194C51.264,83.557 48.589,76.545 45.295,76.545C42.001,76.545 39.326,83.557 39.326,92.194L39.326,196.43C39.326,205.067 42.001,212.079 45.295,212.079C48.589,212.079 51.264,205.067 51.264,196.43L51.264,92.194Z" style="fill:rgb(247,205,33);"/>
        </g>
        <g transform="matrix(-1.18461,1.18461,-0.451859,-0.451859,237.948,130.635)">
            <path d="M51.264,92.194C51.264,83.557 48.589,76.545 45.295,76.545C42.001,76.545 39.326,83.557 39.326,92.194L39.326,196.43C39.326,205.067 42.001,212.079 45.295,212.079C48.589,212.079 51.264,205.067 51.264,196.43L51.264,92.194Z" style="fill:rgb(247,205,33);"/>
        </g>
    </g>
</svg>
