<?xml version="1.0" encoding="UTF-8" standalone="no"?>
<!DOCTYPE svg PUBLIC "-//W3C//DTD SVG 1.1//EN" "http://www.w3.org/Graphics/SVG/1.1/DTD/svg11.dtd">
<svg width="100%" height="100%" viewBox="0 0 120 120" version="1.1" xmlns="http://www.w3.org/2000/svg" xmlns:xlink="http://www.w3.org/1999/xlink" xml:space="preserve" xmlns:serif="http://www.serif.com/" style="fill-rule:evenodd;clip-rule:evenodd;stroke-linejoin:round;stroke-miterlimit:2;">
    <g transform="matrix(0.24,0,0,0.24,0,0)">
        <g transform="matrix(0.707107,0.707107,-0.846438,0.846438,305.199,-138.275)">
            <path d="M286.928,249.563C286.928,225.455 263.499,205.882 234.641,205.882C205.782,205.882 182.353,225.455 182.353,249.563L182.353,427.561C182.353,451.669 205.782,471.242 234.641,471.242C263.499,471.242 286.928,451.669 286.928,427.561L286.928,249.563Z" style="fill:rgb(139,139,135);"/>
        </g>
        <g transform="matrix(0.707107,0.707107,-0.707107,0.707107,255.253,-88.3296)">
            <path d="M273.466,41.158C273.466,34.989 278.413,32.946 283.948,35.67C321.317,54.061 347.052,92.521 347.052,136.945C347.052,199.202 296.507,249.747 234.25,249.747C171.993,249.747 121.448,199.202 121.448,136.945C121.448,92.312 147.427,53.698 185.082,35.411C190.243,32.905 195.034,35.42 195.034,41.158L195.034,124.183L234.641,162.745L273.466,124.183L273.466,41.158Z" style="fill:rgb(168,167,162);"/>
        </g>
    </g>
</svg>
