<?xml version="1.0" encoding="UTF-8" standalone="no"?>
<!DOCTYPE svg PUBLIC "-//W3C//DTD SVG 1.1//EN" "http://www.w3.org/Graphics/SVG/1.1/DTD/svg11.dtd">
<svg width="100%" height="100%" viewBox="0 0 120 120" version="1.1" xmlns="http://www.w3.org/2000/svg" xmlns:xlink="http://www.w3.org/1999/xlink" xml:space="preserve" xmlns:serif="http://www.serif.com/" style="fill-rule:evenodd;clip-rule:evenodd;stroke-linejoin:round;stroke-miterlimit:2;">
    <g transform="matrix(0.24,0,0,0.24,0,0)">
        <g transform="matrix(0.866025,-0.5,0.5,0.866025,-113.816,172.53)">
            <path d="M416.28,164.406C395.135,129.234 360.862,101.886 318.119,90.433C230.605,66.984 140.516,118.996 117.067,206.511C110.976,229.243 109.976,252.148 113.369,274.02L163.31,224.079C167.213,220.176 173.55,220.176 177.453,224.079C181.355,227.981 181.355,234.318 177.453,238.221L114.846,300.828C112.9,302.773 110.351,303.749 107.799,303.755L107.75,303.755C105.198,303.749 102.648,302.773 100.703,300.828L38.096,238.221C34.194,234.318 34.194,227.981 38.096,224.079C41.999,220.176 48.336,220.176 52.238,224.079L92.042,263.882C90.373,243.404 92.129,222.303 97.748,201.335C124.054,103.158 225.119,44.808 323.296,71.115C372.158,84.207 411.156,115.818 434.755,156.364C441.377,167.741 423.063,175.689 416.28,164.406Z" style="fill:rgb(49,71,111);"/>
        </g>
        <g transform="matrix(-0.866025,0.5,-0.5,-0.866025,613.816,327.47)">
            <path d="M416.28,164.406C395.135,129.234 360.862,101.886 318.119,90.433C230.605,66.984 140.516,118.996 117.067,206.511C110.976,229.243 109.976,252.148 113.369,274.02L163.31,224.079C167.213,220.176 173.55,220.176 177.453,224.079C181.355,227.981 181.355,234.318 177.453,238.221L114.846,300.828C112.9,302.773 110.351,303.749 107.799,303.755L107.75,303.755C105.198,303.749 102.648,302.773 100.703,300.828L38.096,238.221C34.194,234.318 34.194,227.981 38.096,224.079C41.999,220.176 48.336,220.176 52.238,224.079L92.042,263.882C90.373,243.404 92.129,222.303 97.748,201.335C124.054,103.158 225.119,44.808 323.296,71.115C372.158,84.207 411.156,115.818 434.755,156.364C441.377,167.741 423.063,175.689 416.28,164.406Z" style="fill:rgb(49,71,111);"/>
        </g>
    </g>
</svg>
