<?xml version="1.0" encoding="UTF-8" standalone="no"?>
<!DOCTYPE svg PUBLIC "-//W3C//DTD SVG 1.1//EN" "http://www.w3.org/Graphics/SVG/1.1/DTD/svg11.dtd">
<svg width="100%" height="100%" viewBox="0 0 6 6" version="1.1" xmlns="http://www.w3.org/2000/svg" xmlns:xlink="http://www.w3.org/1999/xlink" xml:space="preserve" xmlns:serif="http://www.serif.com/" style="fill-rule:evenodd;clip-rule:evenodd;stroke-linejoin:round;stroke-miterlimit:2;">
    <g transform="matrix(0.24,0,0,0.24,0,0)">
        <g transform="matrix(0.048,0,0,0.048,0,0)">
            <circle cx="249.823" cy="192.805" r="135" style="fill:rgb(104,154,238);"/>
        </g>
        <g transform="matrix(0.048,0,0,0.048,0,0)">
            <path d="M480.872,451.892C484.307,455.457 483.71,459.089 483.71,459.13C483.71,464.649 479.229,469.13 473.71,469.13L26.29,469.13C20.771,469.13 16.29,464.649 16.29,459.13C16.29,455.889 17.607,453.476 18.789,452.245C72.252,396.545 158.858,357.196 250,357.196C340.95,357.196 427.382,396.379 480.872,451.892Z" style="fill:rgb(104,154,238);"/>
        </g>
        <g transform="matrix(0.048,0,0,0.048,0,0.538135)">
            <path d="M112.529,214.903C112.529,211.135 92.529,198.157 92.529,210.575L92.529,241.908C92.529,254.326 102.61,264.408 115.029,264.408L235.029,264.408C246.942,264.408 256.706,255.128 257.479,243.408L234.257,243.408C233.221,244.043 232.003,244.408 230.7,244.408L119.357,244.408C115.588,244.408 112.529,241.348 112.529,237.58L112.529,214.903Z" style="fill:rgb(208,208,208);"/>
        </g>
        <g transform="matrix(0.0389189,0,0,0.048,2.01105,0.384535)">
            <path d="M287.029,257.658C287.029,245.378 274.732,235.408 259.587,235.408L240.47,235.408C225.325,235.408 213.029,245.378 213.029,257.658C213.029,269.938 225.325,279.908 240.47,279.908L259.587,279.908C274.732,279.908 287.029,269.938 287.029,257.658Z" style="fill:rgb(39,39,39);"/>
        </g>
        <g transform="matrix(0.048,0,0,0.048,2.336,1.6416)">
            <path d="M75.529,204.3L75.593,204.3C81.083,204.265 85.529,199.798 85.529,194.3L85.529,108.539C85.529,103.02 81.048,98.539 75.529,98.539L66.529,98.539C46.829,99.172 31.029,115.365 31.029,135.219L31.029,167.619C31.029,187.474 46.829,203.667 66.529,204.3L75.529,204.3Z" style="fill:rgb(49,71,111);"/>
        </g>
        <g transform="matrix(-0.048,0,0,0.048,21.6049,1.6416)">
            <path d="M75.529,204.3L75.593,204.3C81.083,204.265 85.529,199.798 85.529,194.3L85.529,108.539C85.529,103.02 81.048,98.539 75.529,98.539L66.529,98.539C46.829,99.172 31.029,115.365 31.029,135.219L31.029,167.619C31.029,187.474 46.829,203.667 66.529,204.3L75.529,204.3Z" style="fill:rgb(49,71,111);"/>
        </g>
    </g>
</svg>
