<?xml version="1.0" encoding="UTF-8" standalone="no"?>
<!DOCTYPE svg PUBLIC "-//W3C//DTD SVG 1.1//EN" "http://www.w3.org/Graphics/SVG/1.1/DTD/svg11.dtd">
<svg width="100%" height="100%" viewBox="0 0 120 120" version="1.1" xmlns="http://www.w3.org/2000/svg" xmlns:xlink="http://www.w3.org/1999/xlink" xml:space="preserve" xmlns:serif="http://www.serif.com/" style="fill-rule:evenodd;clip-rule:evenodd;stroke-linejoin:round;stroke-miterlimit:2;">
    <g transform="matrix(0.24,0,0,0.24,0,0)">
        <g transform="matrix(0.537975,0,0,1.09571,217.174,-38.652)">
            <rect x="208.931" y="147.979" width="102.999" height="18.253" style="fill:rgb(49,71,111);"/>
        </g>
        <g transform="matrix(0.537975,0,0,1.09571,217.174,9.88887)">
            <rect x="208.931" y="147.979" width="102.999" height="18.253" style="fill:rgb(49,71,111);"/>
        </g>
        <g transform="matrix(0.537975,0,0,1.09571,217.174,-87.1928)">
            <rect x="208.931" y="147.979" width="102.999" height="18.253" style="fill:rgb(49,71,111);"/>
        </g>
        <g transform="matrix(0.537975,0,0,1.09571,217.174,58.4297)">
            <rect x="208.931" y="147.979" width="102.999" height="18.253" style="fill:rgb(49,71,111);"/>
        </g>
        <g transform="matrix(0.537975,0,0,1.09571,217.174,106.971)">
            <rect x="208.931" y="147.979" width="102.999" height="18.253" style="fill:rgb(49,71,111);"/>
        </g>
        <path d="M188.616,298.537L188.616,86.275C188.616,54.53 214.388,28.758 246.132,28.758C277.876,28.758 303.648,54.53 303.648,86.275L303.648,298.537C327.593,316.206 343.136,344.62 343.136,376.636C343.136,430.175 299.67,473.641 246.132,473.641C192.594,473.641 149.127,430.175 149.127,376.636C149.127,344.62 164.671,316.206 188.616,298.537Z" style="fill:rgb(115,173,205);"/>
        <g transform="matrix(0.966859,0,0,0.966859,-4.42998,14.2221)">
            <circle cx="259.15" cy="374.837" r="90.523" style="fill:rgb(224,74,58);"/>
        </g>
        <g transform="matrix(0.936709,0,0,1,15.578,0)">
            <path d="M297.766,147.712L194.498,147.712L194.498,332.353C194.498,346.602 206.066,358.17 220.315,358.17L271.949,358.17C286.198,358.17 297.766,346.602 297.766,332.353L297.766,147.712Z" style="fill:rgb(224,74,58);"/>
        </g>
    </g>
</svg>
