<?xml version="1.0" encoding="UTF-8" standalone="no"?>
<!DOCTYPE svg PUBLIC "-//W3C//DTD SVG 1.1//EN" "http://www.w3.org/Graphics/SVG/1.1/DTD/svg11.dtd">
<svg width="100%" height="100%" viewBox="0 0 120 120" version="1.1" xmlns="http://www.w3.org/2000/svg" xmlns:xlink="http://www.w3.org/1999/xlink" xml:space="preserve" xmlns:serif="http://www.serif.com/" style="fill-rule:evenodd;clip-rule:evenodd;stroke-linejoin:round;stroke-miterlimit:2;">
    <g transform="matrix(0.24,0,0,0.24,0,0)">
        <g transform="matrix(1.05821e-16,1.72819,-1.27833,7.82753e-17,300.307,-81.6624)">
            <path d="M257.171,136.245C257.171,131.928 254.578,128.422 251.384,128.422L68.694,128.422C65.5,128.422 62.907,131.928 62.907,136.245C62.907,140.563 65.5,144.068 68.694,144.068L251.384,144.068C254.578,144.068 257.171,140.563 257.171,136.245Z" style="fill:rgb(49,71,111);"/>
        </g>
        <path d="M38.549,431.551C38.549,437.071 43.03,441.551 48.549,441.551L447.063,441.551C452.582,441.551 457.063,437.071 457.063,431.551C457.063,426.032 452.582,421.551 447.063,421.551L48.549,421.551C43.03,421.551 38.549,426.032 38.549,431.551ZM126.198,27.054C123.619,27.039 121.035,28.015 119.07,29.98C119.07,29.98 41.476,107.574 41.476,107.574C37.574,111.476 37.574,117.813 41.476,121.716C45.379,125.618 51.716,125.618 55.619,121.716L126.141,51.194L196.639,121.692C200.542,125.595 206.879,125.595 210.781,121.692C214.684,117.79 214.684,111.453 210.781,107.55L133.212,29.98C131.281,28.05 128.755,27.074 126.222,27.054L126.198,27.054Z" style="fill:rgb(49,71,111);"/>
        <path d="M369.552,27.054C369.513,27.053 369.473,27.053 369.433,27.054L369.366,27.054L369.302,27.055L369.238,27.057L369.195,27.058C368.456,27.08 367.737,27.182 367.045,27.356C365.352,27.782 363.748,28.657 362.424,29.98L284.831,107.574C280.929,111.476 280.929,117.813 284.831,121.716C288.734,125.618 295.071,125.618 298.973,121.716L359.496,61.194L359.496,352.777C359.496,358.296 363.976,362.777 369.496,362.777C375.015,362.777 379.496,358.296 379.496,352.777L379.496,61.194L439.994,121.692C443.897,125.595 450.234,125.595 454.136,121.692C458.039,117.79 458.039,111.453 454.136,107.55L376.567,29.98C375.243,28.657 373.639,27.782 371.946,27.356C371.254,27.182 370.535,27.08 369.796,27.058L369.753,27.057L369.689,27.055L369.625,27.054L369.552,27.054Z" style="fill:rgb(49,71,111);"/>
    </g>
</svg>
