<?xml version="1.0" encoding="UTF-8" standalone="no"?>
<!DOCTYPE svg PUBLIC "-//W3C//DTD SVG 1.1//EN" "http://www.w3.org/Graphics/SVG/1.1/DTD/svg11.dtd">
<svg width="100%" height="100%" viewBox="0 0 120 120" version="1.1" xmlns="http://www.w3.org/2000/svg" xmlns:xlink="http://www.w3.org/1999/xlink" xml:space="preserve" xmlns:serif="http://www.serif.com/" style="fill-rule:evenodd;clip-rule:evenodd;stroke-linejoin:round;stroke-miterlimit:2;">
    <g transform="matrix(0.24,0,0,0.24,0,0)">
        <g transform="matrix(0.866025,-0.5,0.5,0.866025,-91.2335,158.36)">
            <path d="M448.08,381.924L50.234,381.924L50.234,300L50.562,299.999L50.671,299.998L50.89,299.996L51.02,299.994L51.217,299.99L51.357,299.987L51.544,299.983L51.688,299.979L51.87,299.974L52.017,299.968L52.195,299.962L52.344,299.956L52.521,299.948L52.671,299.941L52.845,299.933L52.996,299.925L53.169,299.915L53.32,299.906L53.493,299.895L53.644,299.885L53.816,299.873L53.967,299.862L54.139,299.849L54.289,299.837L54.461,299.823L54.611,299.81L54.783,299.795L54.932,299.782L55.104,299.765L55.252,299.751L55.425,299.733L55.572,299.718L55.745,299.699L55.891,299.683L56.065,299.663L56.209,299.646L56.384,299.625L56.527,299.607L56.704,299.584L56.844,299.566L57.022,299.542L57.16,299.523L57.341,299.498L57.476,299.478L57.66,299.451L57.791,299.431L57.978,299.403L58.106,299.383L58.297,299.352L58.419,299.332L58.617,299.299L58.733,299.279L58.937,299.244L59.045,299.225L59.26,299.186L59.357,299.168L59.588,299.125L59.668,299.11L59.925,299.06L59.979,299.049L60.289,298.987C60.811,298.88 61.331,298.765 61.848,298.642L61.873,298.636L62.155,298.568L62.2,298.556L62.461,298.491L62.518,298.477L62.767,298.414L62.832,298.396L63.072,298.334L63.143,298.315L63.376,298.252L63.451,298.231L63.679,298.168L63.757,298.146L63.982,298.083L64.062,298.06L64.284,297.995L64.365,297.971L64.585,297.906L64.668,297.881L64.886,297.815L64.969,297.79L65.186,297.722L65.269,297.696L65.486,297.627L65.568,297.601L65.784,297.53L65.866,297.504L66.082,297.432L66.163,297.405L66.38,297.331L66.46,297.304L66.676,297.229L66.755,297.201L66.972,297.125L67.05,297.097L67.268,297.019L67.344,296.991L67.563,296.911L67.637,296.883L67.857,296.801L67.929,296.774L68.151,296.689L68.22,296.662L68.445,296.575L68.51,296.549L68.738,296.459L68.8,296.434L69.032,296.34L69.088,296.318L69.326,296.22L69.376,296.199L69.622,296.096L69.663,296.079L69.923,295.968L69.949,295.957L70.234,295.833C87.886,288.113 100.234,270.487 100.234,250C100.234,229.513 87.886,211.887 70.234,204.167L69.949,204.043L69.923,204.032L69.663,203.921L69.622,203.904L69.376,203.801L69.326,203.78L69.088,203.682L69.032,203.66L68.8,203.566L68.738,203.541L68.51,203.451L68.445,203.425L68.22,203.338L68.151,203.311L67.929,203.226L67.857,203.199L67.637,203.117L67.563,203.089L67.344,203.009L67.268,202.981L67.05,202.903L66.972,202.875L66.755,202.799L66.676,202.771L66.46,202.696L66.38,202.669L66.163,202.595L66.082,202.568L65.866,202.496L65.784,202.47L65.568,202.399L65.486,202.373L65.269,202.304L65.186,202.278L64.969,202.21L64.886,202.185L64.668,202.119L64.585,202.094L64.365,202.029L64.284,202.005L64.062,201.94L63.982,201.917L63.757,201.854L63.679,201.832L63.451,201.769L63.376,201.748L63.143,201.685L63.072,201.666L62.832,201.604L62.767,201.586L62.518,201.523L62.461,201.509L62.2,201.444L62.155,201.432L61.873,201.364L61.848,201.358C61.331,201.235 60.811,201.12 60.289,201.013L59.979,200.951L59.925,200.94L59.668,200.89L59.588,200.875L59.357,200.832L59.26,200.814L59.045,200.775L58.937,200.756L58.733,200.721L58.617,200.701L58.419,200.668L58.297,200.648L58.106,200.617L57.978,200.597L57.791,200.569L57.66,200.549L57.476,200.522L57.341,200.502L57.16,200.477L57.022,200.458L56.844,200.434L56.704,200.416L56.527,200.393L56.384,200.375L56.209,200.354L56.065,200.337L55.891,200.317L55.745,200.301L55.572,200.282L55.425,200.267L55.252,200.249L55.104,200.235L54.932,200.218L54.783,200.205L54.611,200.19L54.461,200.177L54.289,200.163L54.139,200.151L53.967,200.138L53.816,200.127L53.644,200.115L53.493,200.105L53.32,200.094L53.169,200.085L52.996,200.075L52.845,200.067L52.671,200.059L52.521,200.052L52.344,200.044L52.195,200.038L52.017,200.032L51.87,200.026L51.688,200.021L51.544,200.017L51.357,200.013L51.217,200.01L51.02,200.006L50.89,200.004L50.671,200.002L50.562,200.001L50.234,200L50.234,116.924L448.08,116.924L448.08,200C441.291,200.022 434.59,201.386 428.345,204.051C410.551,211.712 398.08,229.411 398.08,250C398.08,270.487 410.428,288.113 428.08,295.833L428.365,295.957L428.391,295.968L428.651,296.079L428.691,296.096L428.938,296.199L428.988,296.22L429.225,296.318L429.282,296.34L429.514,296.434L429.576,296.459L429.803,296.549L429.869,296.575L430.094,296.662L430.163,296.689L430.385,296.774L430.457,296.801L430.677,296.883L430.751,296.911L430.97,296.991L431.046,297.019L431.264,297.097L431.341,297.125L431.558,297.201L431.637,297.229L431.854,297.304L431.934,297.331L432.15,297.405L432.231,297.432L432.447,297.504L432.529,297.53L432.746,297.601L432.828,297.627L433.045,297.696L433.127,297.722L433.345,297.79L433.427,297.815L433.646,297.881L433.728,297.906L433.948,297.971L434.03,297.995L434.252,298.06L434.332,298.083L434.557,298.146L434.634,298.168L434.863,298.231L434.938,298.252L435.171,298.315L435.242,298.334L435.482,298.396L435.547,298.414L435.795,298.477L435.852,298.491L436.114,298.556L436.159,298.568L436.44,298.636L436.465,298.642C436.982,298.765 437.503,298.88 438.025,298.987L438.335,299.049L438.389,299.06L438.645,299.11L438.726,299.125L438.957,299.168L439.053,299.186L439.268,299.225L439.376,299.244L439.581,299.279L439.697,299.299L439.894,299.332L440.017,299.352L440.208,299.383L440.335,299.403L440.522,299.431L440.654,299.451L440.838,299.478L440.972,299.498L441.153,299.523L441.291,299.542L441.47,299.566L441.61,299.584L441.787,299.607L441.929,299.625L442.105,299.646L442.249,299.663L442.423,299.683L442.568,299.699L442.742,299.718L442.889,299.733L443.062,299.751L443.21,299.765L443.382,299.782L443.531,299.795L443.703,299.81L443.852,299.823L444.024,299.837L444.175,299.849L444.347,299.862L444.497,299.873L444.67,299.885L444.82,299.895L444.993,299.906L445.144,299.915L445.318,299.925L445.468,299.933L445.643,299.941L445.793,299.948L445.969,299.956L446.118,299.962L446.297,299.968L446.444,299.974L446.626,299.979L446.77,299.983L446.957,299.987L447.097,299.99L447.293,299.994L447.424,299.996L447.642,299.998L447.751,299.999L448.08,300C448.08,300 448.08,381.924 448.08,381.924Z" style="fill:rgb(235,144,72);"/>
        </g>
        <g transform="matrix(0.632421,-0.365128,0.190789,0.330457,4.32889,190.414)">
            <rect x="134.129" y="126.404" width="27.388" height="106.742" style="fill:white;"/>
        </g>
        <g transform="matrix(0.632421,-0.365128,0.246711,0.427315,27.6254,230.765)">
            <rect x="134.129" y="126.404" width="27.388" height="106.742" style="fill:white;"/>
        </g>
        <g transform="matrix(0.632421,-0.365128,0.246711,0.427315,63.9597,293.697)">
            <rect x="134.129" y="126.404" width="27.388" height="106.742" style="fill:white;"/>
        </g>
        <g transform="matrix(0.632421,-0.365128,0.197368,0.341852,106.531,367.433)">
            <rect x="134.129" y="126.404" width="27.388" height="106.742" style="fill:white;"/>
        </g>
    </g>
</svg>
