<?xml version="1.0" encoding="UTF-8" standalone="no"?>
<!DOCTYPE svg PUBLIC "-//W3C//DTD SVG 1.1//EN" "http://www.w3.org/Graphics/SVG/1.1/DTD/svg11.dtd">
<svg width="100%" height="100%" viewBox="0 0 6 6" version="1.1" xmlns="http://www.w3.org/2000/svg" xmlns:xlink="http://www.w3.org/1999/xlink" xml:space="preserve" xmlns:serif="http://www.serif.com/" style="fill-rule:evenodd;clip-rule:evenodd;stroke-linejoin:round;stroke-miterlimit:2;">
    <g transform="matrix(0.24,0,0,0.24,0,0)">
        <g transform="matrix(0.048,0,0,0.048,-0.0959998,-0.0290828)">
            <rect x="72" y="15.606" width="360" height="470" style="fill:white;"/>
        </g>
        <g transform="matrix(0.048,0,0,0.048,-3.44584,-2.03169)">
            <path d="M234.039,175.207L272.412,108.578C275.166,103.795 281.286,102.148 286.068,104.903C290.851,107.657 292.498,113.776 289.743,118.559L245.1,196.076C243.219,199.341 239.771,201.144 236.25,201.084C233.687,201.129 231.107,200.197 229.121,198.275L193.51,163.83C189.543,159.993 189.437,153.657 193.275,149.69C197.112,145.723 203.448,145.617 207.415,149.455L234.039,175.207Z" style="fill:rgb(101,152,54);"/>
        </g>
        <g transform="matrix(0.048,0,0,0.048,-0.0858379,-0.986166)">
            <rect x="240.112" y="120.545" width="143" height="20" style="fill:rgb(105,105,105);"/>
        </g>
        <g transform="matrix(0.048,0,0,0.048,-3.44584,4.68831)">
            <path d="M234.039,175.207L272.412,108.578C275.166,103.795 281.286,102.148 286.068,104.903C290.851,107.657 292.498,113.776 289.743,118.559L245.1,196.076C243.219,199.341 239.771,201.144 236.25,201.084C233.687,201.129 231.107,200.197 229.121,198.275L193.51,163.83C189.543,159.993 189.437,153.657 193.275,149.69C197.112,145.723 203.448,145.617 207.415,149.455L234.039,175.207Z" style="fill:rgb(101,152,54);"/>
        </g>
        <g transform="matrix(0.048,0,0,0.048,-0.0858379,5.73383)">
            <rect x="240.112" y="120.545" width="143" height="20" style="fill:rgb(105,105,105);"/>
        </g>
        <g transform="matrix(0.048,0,0,0.048,-3.44584,11.4083)">
            <path d="M234.039,175.207L272.412,108.578C275.166,103.795 281.286,102.148 286.068,104.903C290.851,107.657 292.498,113.776 289.743,118.559L245.1,196.076C243.219,199.341 239.771,201.144 236.25,201.084C233.687,201.129 231.107,200.197 229.121,198.275L193.51,163.83C189.543,159.993 189.437,153.657 193.275,149.69C197.112,145.723 203.448,145.617 207.415,149.455L234.039,175.207Z" style="fill:rgb(101,152,54);"/>
        </g>
        <g transform="matrix(0.048,0,0,0.048,-0.0858379,12.4538)">
            <rect x="240.112" y="120.545" width="143" height="20" style="fill:rgb(105,105,105);"/>
        </g>
    </g>
</svg>
