<?xml version="1.0" encoding="UTF-8" standalone="no"?>
<!DOCTYPE svg PUBLIC "-//W3C//DTD SVG 1.1//EN" "http://www.w3.org/Graphics/SVG/1.1/DTD/svg11.dtd">
<svg width="100%" height="100%" viewBox="0 0 120 120" version="1.1" xmlns="http://www.w3.org/2000/svg" xmlns:xlink="http://www.w3.org/1999/xlink" xml:space="preserve" xmlns:serif="http://www.serif.com/" style="fill-rule:evenodd;clip-rule:evenodd;stroke-linejoin:round;stroke-miterlimit:2;">
    <g transform="matrix(0.24,0,0,0.24,0,0)">
        <g transform="matrix(0.961803,-0.273741,0.273741,0.961803,-67.9076,90.7057)">
            <path d="M456.363,163.412C456.363,152.074 447.157,142.868 435.818,142.868L232.932,142.868C221.593,142.868 212.388,152.074 212.388,163.412L212.388,327.77C212.388,339.109 221.593,348.315 232.932,348.315L435.818,348.315C447.157,348.315 456.363,339.109 456.363,327.77L456.363,163.412Z" style="fill:rgb(235,144,72);"/>
        </g>
        <path d="M326.685,126.941L259.484,146.067L275.857,203.594L343.058,184.467L326.685,126.941Z" style="fill:rgb(98,98,98);"/>
        <g transform="matrix(1,0,0,1,-5.35583,1.69135)">
            <circle cx="234.804" cy="401.471" r="47.222" style="fill:rgb(190,190,190);"/>
        </g>
        <g transform="matrix(0.488796,-0.140438,0.422096,1.46911,-12.6972,-52.6163)">
            <path d="M224.719,87.301C224.719,83.69 215.908,80.758 205.056,80.758C194.204,80.758 185.393,83.69 185.393,87.301L185.393,294.722C185.393,298.333 194.204,301.264 205.056,301.264C215.908,301.264 224.719,298.333 224.719,294.722L224.719,87.301Z" style="fill:rgb(193,193,193);"/>
        </g>
        <g transform="matrix(2.66571e-17,-0.508571,0.430718,1.37428e-17,3.67936,151.124)">
            <path d="M224.719,103.975C224.719,91.162 215.908,80.758 205.056,80.758C194.204,80.758 185.393,91.162 185.393,103.975L185.393,278.047C185.393,290.861 194.204,301.264 205.056,301.264C215.908,301.264 224.719,290.861 224.719,278.047L224.719,103.975Z" style="fill:rgb(193,193,193);"/>
        </g>
        <g transform="matrix(0.138201,0.489434,-0.814941,0.230115,479.767,201.07)">
            <path d="M224.719,92.568C224.719,86.05 215.908,80.758 205.056,80.758C194.204,80.758 185.393,86.05 185.393,92.568L185.393,289.455C185.393,295.973 194.204,301.264 205.056,301.264C215.908,301.264 224.719,295.973 224.719,289.455L224.719,92.568Z" style="fill:rgb(193,193,193);"/>
        </g>
        <g transform="matrix(1,0,0,1,19.1672,15.2125)">
            <path d="M210.281,327.949C243.396,327.949 270.281,354.835 270.281,387.949C270.281,421.064 243.396,447.949 210.281,447.949C177.166,447.949 150.281,421.064 150.281,387.949C150.281,354.835 177.166,327.949 210.281,327.949ZM210,347.949C232.077,347.949 250,365.873 250,387.949C250,410.026 232.077,427.949 210,427.949C187.923,427.949 170,410.026 170,387.949C170,365.873 187.923,347.949 210,347.949Z" style="fill:rgb(49,52,53);"/>
        </g>
    </g>
</svg>
