<?xml version="1.0" encoding="UTF-8" standalone="no"?>
<!DOCTYPE svg PUBLIC "-//W3C//DTD SVG 1.1//EN" "http://www.w3.org/Graphics/SVG/1.1/DTD/svg11.dtd">
<svg width="100%" height="100%" viewBox="0 0 120 120" version="1.1" xmlns="http://www.w3.org/2000/svg" xmlns:xlink="http://www.w3.org/1999/xlink" xml:space="preserve" xmlns:serif="http://www.serif.com/" style="fill-rule:evenodd;clip-rule:evenodd;stroke-linejoin:round;stroke-miterlimit:2;">
    <g transform="matrix(0.24,0,0,0.24,0,0)">
        <g transform="matrix(1,0,0,1,-4.24754,6.37305)">
            <path d="M304.095,359.926L310.421,156.713L407.488,156.713C407.587,156.713 407.685,156.715 407.783,156.718C411.342,156.613 414.845,158.417 416.748,161.714L467.081,248.894C468.036,250.546 468.464,252.36 468.418,254.139C468.42,254.226 468.421,254.313 468.421,254.4L468.421,349.926C468.418,351.036 468.238,352.14 467.876,353.19C467.467,354.372 466.834,355.474 466.021,356.424C465.107,357.491 463.97,358.363 462.7,358.966C461.809,359.389 460.857,359.674 459.881,359.82L459.807,359.831C459.354,359.894 458.892,359.926 458.421,359.926L304.095,359.926Z" style="fill:rgb(193,193,193);"/>
        </g>
        <g transform="matrix(1,0,0,1,-4.24754,6.37305)">
            <path d="M319.926,359.926L52.015,359.926C45.424,359.926 40.074,354.576 40.074,347.985L40.074,102.015C40.074,95.424 45.424,90.074 52.015,90.074L307.985,90.074C314.576,90.074 319.926,95.424 319.926,102.015L319.926,359.926Z" style="fill:rgb(104,154,238);"/>
        </g>
        <g transform="matrix(0.9,0,0,0.9,12.5752,35.3553)">
            <circle cx="126.961" cy="353.105" r="36.111" style="fill:rgb(190,190,190);"/>
        </g>
        <g transform="matrix(0.9,0,0,0.9,265.909,35.3553)">
            <circle cx="126.961" cy="353.105" r="36.111" style="fill:rgb(190,190,190);"/>
        </g>
        <g transform="matrix(0.9,0,0,0.9,-3.08674,41.0911)">
            <path d="M143.155,297.18C170.75,297.18 193.155,319.584 193.155,347.18C193.155,374.776 170.75,397.18 143.155,397.18C115.559,397.18 93.155,374.776 93.155,347.18C93.155,319.584 115.559,297.18 143.155,297.18ZM143.155,317.18C159.712,317.18 173.155,330.623 173.155,347.18C173.155,363.738 159.712,377.18 143.155,377.18C126.597,377.18 113.155,363.738 113.155,347.18C113.155,330.623 126.597,317.18 143.155,317.18Z" style="fill:rgb(49,52,53);"/>
        </g>
        <g transform="matrix(0.9,0,0,0.9,251.335,41.0911)">
            <path d="M143.155,297.18C170.75,297.18 193.155,319.584 193.155,347.18C193.155,374.776 170.75,397.18 143.155,397.18C115.559,397.18 93.155,374.776 93.155,347.18C93.155,319.584 115.559,297.18 143.155,297.18ZM143.155,317.18C159.712,317.18 173.155,330.623 173.155,347.18C173.155,363.738 159.712,377.18 143.155,377.18C126.597,377.18 113.155,363.738 113.155,347.18C113.155,330.623 126.597,317.18 143.155,317.18Z" style="fill:rgb(49,52,53);"/>
        </g>
        <path d="M371.379,247.206L371.379,182.539L398.046,182.539L435.379,246.873L371.379,247.206Z" style="fill:rgb(115,173,205);"/>
    </g>
</svg>
