<?xml version="1.0" encoding="UTF-8" standalone="no"?>
<!DOCTYPE svg PUBLIC "-//W3C//DTD SVG 1.1//EN" "http://www.w3.org/Graphics/SVG/1.1/DTD/svg11.dtd">
<svg width="100%" height="100%" viewBox="0 0 6 6" version="1.1" xmlns="http://www.w3.org/2000/svg" xmlns:xlink="http://www.w3.org/1999/xlink" xml:space="preserve" xmlns:serif="http://www.serif.com/" style="fill-rule:evenodd;clip-rule:evenodd;stroke-linejoin:round;stroke-miterlimit:2;">
    <g transform="matrix(0.24,0,0,0.24,0,0)">
        <g transform="matrix(0.048,0,0,0.048,0,0)">
            <path d="M61.981,30.022L438.019,30.022C443.538,30.022 448.019,34.503 448.019,40.022L448.019,99.747C448.019,105.266 443.538,109.747 438.019,109.747C434.932,109.747 432.169,108.345 430.334,106.142C418.291,94.1 400.3,90.022 377.433,90.022L280,90.022L280,377.325L280,377.422C280.057,394.879 296.4,411.039 313.857,411.039L355.871,411.039C361.391,411.039 365.871,415.52 365.871,421.039L365.871,460.547C365.871,466.066 361.391,470.547 355.871,470.547L144.129,470.547C138.609,470.547 134.129,466.066 134.129,460.547L134.129,421.039C134.129,415.52 138.609,411.039 144.129,411.039L186.143,411.039C203.6,411.039 219.943,394.879 220,377.422L220,377.325L220,90.022L122.567,90.022C99.7,90.022 81.709,94.1 69.666,106.142C67.831,108.345 65.068,109.747 61.981,109.747C56.462,109.747 51.981,105.266 51.981,99.747L51.981,40.022C51.981,34.503 56.462,30.022 61.981,30.022Z" style="fill:rgb(39,39,39);"/>
        </g>
    </g>
</svg>
