<?xml version="1.0" encoding="UTF-8" standalone="no"?>
<!DOCTYPE svg PUBLIC "-//W3C//DTD SVG 1.1//EN" "http://www.w3.org/Graphics/SVG/1.1/DTD/svg11.dtd">
<svg width="100%" height="100%" viewBox="0 0 6 6" version="1.1" xmlns="http://www.w3.org/2000/svg" xmlns:xlink="http://www.w3.org/1999/xlink" xml:space="preserve" xmlns:serif="http://www.serif.com/" style="fill-rule:evenodd;clip-rule:evenodd;stroke-linejoin:round;stroke-miterlimit:2;">
    <g transform="matrix(0.24,0,0,0.24,0,0)">
        <g transform="matrix(0.048,0,0,0.048,-1.488,-0.48)">
            <path d="M199.795,435.91C199.795,455.227 215.478,470.91 234.795,470.91C254.112,470.91 269.795,455.227 269.795,435.91L269.795,221.91C269.795,208.04 289.795,196.827 289.795,221.91L289.795,435.91C289.795,466.265 265.151,490.91 234.795,490.91C204.44,490.91 179.795,466.265 179.795,435.91L179.795,420.91L179.796,420.845C179.83,415.356 184.298,410.91 189.795,410.91C195.315,410.91 199.795,415.391 199.795,420.91L199.795,435.91Z" style="fill:rgb(130,130,130);"/>
        </g>
        <g transform="matrix(0.048,0,0,0.048,0,0)">
            <path d="M443.677,227.431C443.677,226.538 443.671,225.646 443.658,224.743C442.273,203.26 424.385,186.239 402.553,186.239C379.819,186.239 361.362,204.697 361.362,227.431C361.362,227.431 361.355,237.431 351.256,237.431C341.157,237.431 341.268,227.431 341.268,227.431C341.268,204.697 322.811,186.239 300.077,186.239C277.342,186.239 258.885,204.697 258.885,227.431C258.885,227.431 258.687,237.431 248.838,237.431C238.989,237.431 238.792,227.431 238.792,227.431C238.792,204.697 220.334,186.239 197.6,186.239C174.866,186.239 156.408,204.697 156.408,227.431C156.408,227.431 156.652,237.431 145.803,237.431C134.954,237.431 136.315,227.431 136.315,227.431C136.315,204.697 117.858,186.239 95.123,186.239C72.389,186.239 53.932,204.697 53.932,227.431L53.838,227.431C53.838,232.95 49.357,237.431 43.838,237.431C38.319,237.431 33.838,232.95 33.838,227.431L33.839,226.736C34.224,108.384 130.414,12.431 248.838,12.431C367.429,12.431 463.723,108.654 463.838,227.233C463.838,227.233 463.838,227.431 463.838,227.431C463.838,232.95 459.357,237.431 453.838,237.431C448.319,237.431 443.838,232.95 443.838,227.431L443.677,227.431Z" style="fill:rgb(131,0,255);"/>
        </g>
    </g>
</svg>
