<?xml version="1.0" encoding="UTF-8" standalone="no"?>
<!DOCTYPE svg PUBLIC "-//W3C//DTD SVG 1.1//EN" "http://www.w3.org/Graphics/SVG/1.1/DTD/svg11.dtd">
<svg width="100%" height="100%" viewBox="0 0 120 120" version="1.1" xmlns="http://www.w3.org/2000/svg" xmlns:xlink="http://www.w3.org/1999/xlink" xml:space="preserve" xmlns:serif="http://www.serif.com/" style="fill-rule:evenodd;clip-rule:evenodd;stroke-linejoin:round;stroke-miterlimit:2;">
    <g transform="matrix(0.24,0,0,0.24,0,0)">
        <path d="M250,51.825L249.935,51.825L249.871,51.826L249.806,51.827L249.742,51.829L249.7,51.83C248.96,51.852 248.241,51.954 247.55,52.128C245.857,52.554 244.253,53.428 242.929,54.752C242.929,54.752 129.156,168.525 129.156,168.525C125.253,172.428 125.253,178.765 129.156,182.668C133.058,186.57 139.395,186.57 143.298,182.668L240,85.965L240,438.175C240,443.694 244.481,448.175 250,448.175C255.519,448.175 260,443.694 260,438.175L260,85.965L356.702,182.668C360.605,186.57 366.942,186.57 370.844,182.668C374.747,178.765 374.747,172.428 370.844,168.525L257.071,54.752C255.747,53.428 254.143,52.554 252.45,52.128C251.759,51.954 251.04,51.852 250.3,51.83L250.258,51.829L250.194,51.827L250.129,51.826L250.06,51.825L250,51.825Z" style="fill:rgb(49,71,111);"/>
    </g>
</svg>
