<?xml version="1.0" encoding="UTF-8" standalone="no"?>
<!DOCTYPE svg PUBLIC "-//W3C//DTD SVG 1.1//EN" "http://www.w3.org/Graphics/SVG/1.1/DTD/svg11.dtd">
<svg width="100%" height="100%" viewBox="0 0 120 120" version="1.1" xmlns="http://www.w3.org/2000/svg" xmlns:xlink="http://www.w3.org/1999/xlink" xml:space="preserve" xmlns:serif="http://www.serif.com/" style="fill-rule:evenodd;clip-rule:evenodd;stroke-linejoin:round;stroke-miterlimit:2;">
    <g transform="matrix(0.24,0,0,0.24,0,0)">
        <g transform="matrix(1.91375,-4.6691e-17,2.74402e-17,1.27833,-56.2742,279.836)">
            <path d="M257.171,136.245C257.171,131.928 254.829,128.422 251.945,128.422L68.133,128.422C65.249,128.422 62.907,131.928 62.907,136.245C62.907,140.563 65.249,144.068 68.133,144.068L251.945,144.068C254.829,144.068 257.171,140.563 257.171,136.245Z" style="fill:rgb(49,71,111);"/>
        </g>
        <path d="M250,20.224L250.065,20.224L250.129,20.225L250.194,20.226L250.258,20.227L250.3,20.229C251.04,20.25 251.759,20.353 252.45,20.527C254.143,20.953 255.747,21.827 257.071,23.151C257.071,23.151 370.844,136.924 370.844,136.924C374.747,140.827 374.747,147.164 370.844,151.066C366.942,154.969 360.605,154.969 356.702,151.066L260,54.364L260,381.995C260,387.514 255.519,391.995 250,391.995C244.481,391.995 240,387.514 240,381.995L240,54.364L143.298,151.066C139.395,154.969 133.058,154.969 129.156,151.066C125.253,147.164 125.253,140.827 129.156,136.924L242.929,23.151C244.253,21.827 245.857,20.953 247.55,20.527C248.241,20.353 248.96,20.25 249.7,20.229L249.742,20.227L249.806,20.226L249.871,20.225L249.94,20.224L250,20.224Z" style="fill:rgb(224,74,58);"/>
    </g>
</svg>
