<?xml version="1.0" encoding="UTF-8" standalone="no"?>
<!DOCTYPE svg PUBLIC "-//W3C//DTD SVG 1.1//EN" "http://www.w3.org/Graphics/SVG/1.1/DTD/svg11.dtd">
<svg width="100%" height="100%" viewBox="0 0 120 120" version="1.1" xmlns="http://www.w3.org/2000/svg" xmlns:xlink="http://www.w3.org/1999/xlink" xml:space="preserve" xmlns:serif="http://www.serif.com/" style="fill-rule:evenodd;clip-rule:evenodd;stroke-linejoin:round;stroke-miterlimit:2;">
    <g transform="matrix(0.24,0,0,0.24,0,0)">
        <g transform="matrix(1,0,0,1,-4.56717e-09,-25.4158)">
            <path d="M249.684,101.236C280.039,101.236 304.684,125.881 304.684,156.236C304.684,186.591 280.039,211.236 249.684,211.236C219.329,211.236 194.684,186.591 194.684,156.236C194.684,125.881 219.329,101.236 249.684,101.236ZM249.684,121.236C269.001,121.236 284.684,136.919 284.684,156.236C284.684,175.553 269.001,191.236 249.684,191.236C230.367,191.236 214.684,175.553 214.684,156.236C214.684,136.919 230.367,121.236 249.684,121.236Z" style="fill:rgb(34,34,34);"/>
        </g>
        <path d="M104.787,172.177C106.35,168.641 109.89,166.171 114.002,166.171L385.856,166.171C389.761,166.171 393.151,168.399 394.821,171.653C395.337,172.477 395.741,173.39 396.005,174.377L459.5,411.345C459.752,412.195 459.893,413.093 459.907,414.021L459.908,414.051L459.909,414.115L459.909,414.146L459.909,414.18L459.909,414.208L459.909,414.245L459.908,414.309L459.907,414.374L459.906,414.393C459.846,417.272 458.567,419.854 456.564,421.641L456.542,421.661L456.517,421.683L456.492,421.705C456.209,421.953 455.91,422.187 455.598,422.403L455.554,422.433C453.957,423.528 452.028,424.172 449.949,424.18L449.909,424.18L50.091,424.18L50.051,424.18C47.972,424.172 46.043,423.528 44.446,422.433L44.402,422.403C44.09,422.187 43.792,421.954 43.508,421.705L43.483,421.683L43.458,421.661L43.436,421.641C41.421,419.843 40.139,417.242 40.093,414.342L40.092,414.309L40.092,414.27L40.091,414.208L40.091,414.18L40.091,414.146L40.091,414.115L40.092,414.051L40.093,414.021C40.107,413.093 40.248,412.195 40.5,411.345L104.087,174.035C104.262,173.382 104.498,172.761 104.787,172.177Z" style="fill:rgb(235,144,72);"/>
    </g>
</svg>
