<?xml version="1.0" encoding="UTF-8" standalone="no"?>
<!DOCTYPE svg PUBLIC "-//W3C//DTD SVG 1.1//EN" "http://www.w3.org/Graphics/SVG/1.1/DTD/svg11.dtd">
<svg width="100%" height="100%" viewBox="0 0 500 500" version="1.1" xmlns="http://www.w3.org/2000/svg" xmlns:xlink="http://www.w3.org/1999/xlink" xml:space="preserve" xmlns:serif="http://www.serif.com/" style="fill-rule:evenodd;clip-rule:evenodd;stroke-linejoin:round;stroke-miterlimit:2;">
    <g transform="matrix(1,0,0,0.909091,9.92909,70.081)">
        <path d="M412.071,430.047C412.071,423.976 407.59,419.047 402.071,419.047L78.071,419.047C72.552,419.047 68.071,423.976 68.071,430.047C68.071,436.118 72.552,441.047 78.071,441.047L402.071,441.047C407.59,441.047 412.071,436.118 412.071,430.047Z" style="fill:rgb(49,71,111);"/>
    </g>
    <g transform="matrix(1.13921e-17,0.186046,-0.909091,5.56658e-17,478.952,394.368)">
        <path d="M412.071,430.047C412.071,423.976 387.986,419.047 358.321,419.047L121.821,419.047C92.155,419.047 68.071,423.976 68.071,430.047C68.071,436.118 92.155,441.047 121.821,441.047L358.321,441.047C387.986,441.047 412.071,436.118 412.071,430.047Z" style="fill:rgb(49,71,111);"/>
    </g>
    <g transform="matrix(1.13921e-17,0.186046,-0.909091,5.56658e-17,802.919,394.368)">
        <path d="M412.071,430.047C412.071,423.976 387.986,419.047 358.321,419.047L121.821,419.047C92.155,419.047 68.071,423.976 68.071,430.047C68.071,436.118 92.155,441.047 121.821,441.047L358.321,441.047C387.986,441.047 412.071,436.118 412.071,430.047Z" style="fill:rgb(49,71,111);"/>
    </g>
    <g transform="matrix(2.08261e-17,-0.340116,0.909091,5.56658e-17,-137.016,152.12)">
        <path d="M412.071,430.047C412.071,423.976 398.896,419.047 382.669,419.047L97.473,419.047C81.245,419.047 68.071,423.976 68.071,430.047C68.071,436.118 81.245,441.047 97.473,441.047L382.669,441.047C398.896,441.047 412.071,436.118 412.071,430.047Z" style="fill:rgb(224,74,58);"/>
    </g>
    <g transform="matrix(-0.139954,-0.139954,0.642824,-0.642824,28.0904,349.01)">
        <path d="M412.071,430.047C412.071,423.976 389.432,419.047 361.547,419.047L118.595,419.047C90.71,419.047 68.071,423.976 68.071,430.047C68.071,436.118 90.71,441.047 118.595,441.047L361.547,441.047C389.432,441.047 412.071,436.118 412.071,430.047Z" style="fill:rgb(224,74,58);"/>
    </g>
    <g transform="matrix(0.139954,-0.139954,0.642824,0.642824,-73.1092,-203.879)">
        <path d="M412.071,430.047C412.071,423.976 389.432,419.047 361.547,419.047L118.595,419.047C90.71,419.047 68.071,423.976 68.071,430.047C68.071,436.118 90.71,441.047 118.595,441.047L361.547,441.047C389.432,441.047 412.071,436.118 412.071,430.047Z" style="fill:rgb(224,74,58);"/>
    </g>
    <g transform="matrix(-1,-1.22465e-16,1.22465e-16,-1,503.935,463.725)">
        <circle cx="251.968" cy="189.693" r="160" style="fill:rgb(247,147,0);"/>
    </g>
    <g transform="matrix(4.35861,1.06755e-15,-1.06755e-15,4.35861,-645.657,-526.594)">
        <path d="M205.918,203.213C203.551,203.213 201.393,202.655 199.443,201.538C197.493,200.422 195.968,198.897 194.868,196.963C193.768,195.03 193.218,192.863 193.218,190.463C193.218,189.73 193.451,189.122 193.918,188.638C194.384,188.155 194.984,187.913 195.718,187.913C196.451,187.913 197.068,188.155 197.568,188.638C198.068,189.122 198.318,189.73 198.318,190.463C198.318,191.897 198.651,193.197 199.318,194.363C199.984,195.53 200.893,196.447 202.043,197.113C203.193,197.78 204.484,198.113 205.918,198.113C207.351,198.113 208.651,197.78 209.818,197.113C210.984,196.447 211.901,195.53 212.568,194.363C213.234,193.197 213.568,191.897 213.568,190.463C213.568,189.03 213.234,187.73 212.568,186.563C211.901,185.397 210.984,184.48 209.818,183.813C208.651,183.147 207.351,182.813 205.918,182.813L197.568,182.813C196.834,182.813 196.234,182.572 195.768,182.088C195.301,181.605 195.068,180.997 195.068,180.263L195.068,166.763C195.068,166.03 195.301,165.413 195.768,164.913C196.234,164.413 196.834,164.163 197.568,164.163L214.268,164.163C214.968,164.163 215.568,164.422 216.068,164.938C216.568,165.455 216.818,166.063 216.818,166.763C216.818,167.43 216.576,168.013 216.093,168.513C215.609,169.013 215.001,169.263 214.268,169.263L200.118,169.263L200.118,177.713L205.918,177.713C208.284,177.713 210.443,178.272 212.393,179.388C214.343,180.505 215.876,182.038 216.993,183.988C218.109,185.938 218.668,188.097 218.668,190.463C218.668,192.83 218.109,194.988 216.993,196.938C215.876,198.888 214.343,200.422 212.393,201.538C210.443,202.655 208.284,203.213 205.918,203.213Z" style="fill:white;fill-rule:nonzero;"/>
    </g>
</svg>
