<?xml version="1.0" encoding="UTF-8" standalone="no"?>
<!DOCTYPE svg PUBLIC "-//W3C//DTD SVG 1.1//EN" "http://www.w3.org/Graphics/SVG/1.1/DTD/svg11.dtd">
<svg width="100%" height="100%" viewBox="0 0 24 24" version="1.1" xmlns="http://www.w3.org/2000/svg" xmlns:xlink="http://www.w3.org/1999/xlink" xml:space="preserve" xmlns:serif="http://www.serif.com/" style="fill-rule:evenodd;clip-rule:evenodd;stroke-linecap:round;stroke-linejoin:round;stroke-miterlimit:1.5;">
    <g id="armazens" transform="matrix(0.048,0,0,0.048,0,0)">
        <path d="M250,71.89L52.05,225.173" style="fill:none;stroke:rgb(74,74,74);stroke-width:14.58px;"/>
        <g transform="matrix(-1,0,0,1,500,0)">
            <path d="M250,71.89L52.05,225.173" style="fill:none;stroke:rgb(74,74,74);stroke-width:14.58px;"/>
        </g>
        <g transform="matrix(1,0,0,1,5.1418,8)">
            <path d="M127.05,306.84L194.383,306.84" style="fill:none;stroke:rgb(248,141,87);stroke-width:14.58px;"/>
        </g>
        <g transform="matrix(1,0,0,1,173.425,8)">
            <path d="M127.05,306.84L194.383,306.84" style="fill:none;stroke:rgb(248,141,87);stroke-width:14.58px;"/>
        </g>
        <g transform="matrix(1,0,0,1,173.425,-137.142)">
            <path d="M127.05,306.84L194.383,306.84" style="fill:none;stroke:rgb(248,141,87);stroke-width:14.58px;"/>
        </g>
        <g transform="matrix(-1,0,0,1,326.575,-137.142)">
            <path d="M127.05,306.84L194.383,306.84" style="fill:none;stroke:rgb(248,141,87);stroke-width:14.58px;"/>
        </g>
        <rect x="81.716" y="271.506" width="168.284" height="168.284" style="fill:none;stroke:rgb(74,74,74);stroke-width:14.58px;"/>
        <g transform="matrix(1,0,0,1,168.284,0)">
            <rect x="81.716" y="271.506" width="168.284" height="168.284" style="fill:none;stroke:rgb(74,74,74);stroke-width:14.58px;"/>
        </g>
        <g transform="matrix(1,0,0,1.18619,168.284,-250.17)">
            <path d="M250,381.663L81.716,271.506L81.716,439.79L250,439.79L250,381.663Z" style="fill:none;stroke:rgb(74,74,74);stroke-width:13.29px;"/>
        </g>
        <g transform="matrix(-1,0,0,1.18619,331.716,-250.17)">
            <path d="M250,381.663L81.716,271.506L81.716,439.79L250,439.79L250,381.663Z" style="fill:none;stroke:rgb(74,74,74);stroke-width:13.29px;"/>
        </g>
    </g>
</svg>
