<?xml version="1.0" encoding="UTF-8" standalone="no"?>
<!DOCTYPE svg PUBLIC "-//W3C//DTD SVG 1.1//EN" "http://www.w3.org/Graphics/SVG/1.1/DTD/svg11.dtd">
<svg width="100%" height="100%" viewBox="0 0 24 24" version="1.1" xmlns="http://www.w3.org/2000/svg" xmlns:xlink="http://www.w3.org/1999/xlink" xml:space="preserve" xmlns:serif="http://www.serif.com/" style="fill-rule:evenodd;clip-rule:evenodd;stroke-linecap:round;stroke-linejoin:round;stroke-miterlimit:1.5;">
    <g id="backoffice" transform="matrix(0.048,0,0,0.048,0,0)">
        <g transform="matrix(1,0,0,1,-1.25,0.5)">
            <path d="M98.77,417.704L390.77,417.704" style="fill:none;stroke:rgb(74,74,74);stroke-width:14.58px;"/>
        </g>
        <g transform="matrix(1,0,0,1,5.97988,0)">
            <rect x="182.77" y="364.704" width="122.5" height="53.5" style="fill:none;stroke:rgb(74,74,74);stroke-width:14.58px;"/>
        </g>
        <g transform="matrix(0.983806,0,0,1,5.41935,0.25)">
            <rect x="56.77" y="100.205" width="370.5" height="218.5" style="fill:none;stroke:rgb(248,141,87);stroke-width:14.58px;"/>
        </g>
        <g transform="matrix(1.00726,0,0,1,-1.26314,0)">
            <rect x="36.27" y="72.705" width="413.5" height="292" style="fill:none;stroke:rgb(74,74,74);stroke-width:14.58px;"/>
        </g>
        <g transform="matrix(0.17541,0,0,0.17541,209.531,169.364)">
            <circle cx="230.708" cy="229.976" r="138.605" style="fill:none;stroke:rgb(74,74,74);stroke-width:83.14px;"/>
        </g>
        <g transform="matrix(0.433345,0,0,0.433345,153.775,112.258)">
            <path d="M236.026,36.371C243.739,36.371 250,42.633 250,50.345L250,89.091C267.522,92.684 283.842,99.588 298.279,109.119L325.698,81.7C331.151,76.247 340.007,76.247 345.46,81.7L365.223,101.463C370.676,106.916 370.676,115.772 365.223,121.225L337.803,148.644C347.335,163.081 354.239,179.401 357.832,196.923L396.578,196.923C404.29,196.923 410.552,203.184 410.552,210.897L410.552,238.845C410.552,246.558 404.29,252.819 396.578,252.819L357.832,252.819C354.239,270.341 347.335,286.662 337.803,301.098L365.223,328.517C370.676,333.971 370.676,342.826 365.223,348.28L345.46,368.042C340.007,373.496 331.151,373.496 325.698,368.042L298.279,340.623C283.842,350.154 267.522,357.058 250,360.652L250,399.397C250,407.109 243.739,413.371 236.026,413.371L208.078,413.371C200.365,413.371 194.103,407.11 194.103,399.397L194.103,360.652C176.582,357.058 160.261,350.154 145.825,340.623L118.406,368.042C112.952,373.496 104.097,373.496 98.643,368.042L78.881,348.28C73.427,342.826 73.427,333.971 78.881,328.517L106.3,301.098C96.769,286.662 89.864,270.341 86.271,252.819L47.526,252.819C39.813,252.819 33.552,246.558 33.552,238.845L33.552,210.897C33.552,203.184 39.813,196.923 47.526,196.923L86.271,196.923C89.864,179.401 96.769,163.081 106.3,148.644L78.881,121.225C73.427,115.772 73.427,106.916 78.881,101.463L98.643,81.7C104.097,76.247 112.952,76.247 118.406,81.7L145.825,109.119C160.261,99.588 176.582,92.684 194.103,89.091L194.103,50.345C194.103,42.633 200.365,36.371 208.078,36.371L236.026,36.371Z" style="fill:none;stroke:rgb(74,74,74);stroke-width:33.65px;"/>
        </g>
    </g>
</svg>
