<?xml version="1.0" encoding="UTF-8" standalone="no"?>
<!DOCTYPE svg PUBLIC "-//W3C//DTD SVG 1.1//EN" "http://www.w3.org/Graphics/SVG/1.1/DTD/svg11.dtd">
<svg width="100%" height="100%" viewBox="0 0 24 24" version="1.1" xmlns="http://www.w3.org/2000/svg" xmlns:xlink="http://www.w3.org/1999/xlink" xml:space="preserve" xmlns:serif="http://www.serif.com/" style="fill-rule:evenodd;clip-rule:evenodd;stroke-linecap:round;stroke-linejoin:round;stroke-miterlimit:1.5;">
    <g id="codigobarras" transform="matrix(0.048,0,0,0.048,0,0)">
        <g transform="matrix(1,0,0,1,2.86304,8.44278)">
            <path d="M67.542,110.225L67.542,372.889" style="fill:none;stroke:rgb(74,74,74);stroke-width:14.58px;"/>
        </g>
        <g transform="matrix(1,0,0,1,44.1388,8.44278)">
            <path d="M67.542,110.225L67.542,372.889" style="fill:none;stroke:rgb(74,74,74);stroke-width:14.58px;"/>
        </g>
        <g transform="matrix(1,0,0,1,167.497,8.44278)">
            <path d="M67.542,110.225L67.542,372.889" style="fill:none;stroke:rgb(74,74,74);stroke-width:14.58px;"/>
        </g>
        <g transform="matrix(1,0,0,1,238.792,8.44278)">
            <path d="M67.542,110.225L67.542,372.889" style="fill:none;stroke:rgb(74,74,74);stroke-width:14.58px;"/>
        </g>
        <g transform="matrix(1,0,0,1,284.758,8.44278)">
            <path d="M67.542,110.225L67.542,372.889" style="fill:none;stroke:rgb(74,74,74);stroke-width:14.58px;"/>
        </g>
        <g transform="matrix(1,0,0,1,203.614,8.44278)">
            <path d="M67.542,110.225L67.542,372.889" style="fill:none;stroke:rgb(74,74,74);stroke-width:14.58px;"/>
        </g>
        <g transform="matrix(1,0,0,1,362.053,8.44278)">
            <path d="M67.542,110.225L67.542,372.889" style="fill:none;stroke:rgb(74,74,74);stroke-width:14.58px;"/>
        </g>
        <g transform="matrix(1,0,0,1,2.86304,8.44278)">
            <rect x="136.023" y="110.225" width="63.79" height="262.664" style="fill:rgb(74,74,74);stroke:rgb(74,74,74);stroke-width:14.58px;"/>
        </g>
        <g transform="matrix(1.20408,0,0,1,68.1366,8.44278)">
            <rect x="257.036" y="110.225" width="22.983" height="262.664" style="fill:rgb(74,74,74);stroke:rgb(74,74,74);stroke-width:13.18px;"/>
        </g>
        <g transform="matrix(1,0,0,1,2.89657,54)">
            <path d="M38.103,250L456.103,250" style="fill:none;stroke:rgb(248,141,87);stroke-width:14.58px;"/>
        </g>
    </g>
</svg>
