<?xml version="1.0" encoding="UTF-8" standalone="no"?>
<!DOCTYPE svg PUBLIC "-//W3C//DTD SVG 1.1//EN" "http://www.w3.org/Graphics/SVG/1.1/DTD/svg11.dtd">
<svg width="100%" height="100%" viewBox="0 0 24 24" version="1.1" xmlns="http://www.w3.org/2000/svg" xmlns:xlink="http://www.w3.org/1999/xlink" xml:space="preserve" xmlns:serif="http://www.serif.com/" style="fill-rule:evenodd;clip-rule:evenodd;stroke-linecap:round;stroke-linejoin:round;stroke-miterlimit:1.5;">
    <g id="consultas" transform="matrix(0.048,0,0,0.048,0,0)">
        <g transform="matrix(0.950313,0,0,0.950313,3.4832,79.0184)">
            <rect x="70.103" y="90.371" width="90" height="90" style="fill:none;stroke:rgb(74,74,74);stroke-width:15.35px;"/>
        </g>
        <g transform="matrix(0.950313,0,0,0.950313,89.0114,79.0184)">
            <rect x="70.103" y="90.371" width="90" height="90" style="fill:none;stroke:rgb(74,74,74);stroke-width:15.35px;"/>
        </g>
        <g transform="matrix(0.950313,0,0,0.950313,174.441,79.0184)">
            <rect x="70.103" y="90.371" width="90" height="90" style="fill:none;stroke:rgb(74,74,74);stroke-width:15.35px;"/>
        </g>
        <g transform="matrix(0.950313,0,0,0.950313,259.97,79.0184)">
            <rect x="70.103" y="90.371" width="90" height="90" style="fill:none;stroke:rgb(74,74,74);stroke-width:15.35px;"/>
        </g>
        <g transform="matrix(0.950313,0,0,0.950313,3.4832,164.547)">
            <rect x="70.103" y="90.371" width="90" height="90" style="fill:none;stroke:rgb(74,74,74);stroke-width:15.35px;"/>
        </g>
        <g transform="matrix(0.950313,0,0,0.950313,89.0114,164.547)">
            <rect x="70.103" y="90.371" width="90" height="90" style="fill:none;stroke:rgb(74,74,74);stroke-width:15.35px;"/>
        </g>
        <g transform="matrix(0.950313,0,0,0.950313,259.97,164.547)">
            <rect x="70.103" y="90.371" width="90" height="90" style="fill:none;stroke:rgb(74,74,74);stroke-width:15.35px;"/>
        </g>
        <g transform="matrix(0.950313,0,0,0.950313,89.0114,250.075)">
            <rect x="70.103" y="90.371" width="90" height="90" style="fill:none;stroke:rgb(74,74,74);stroke-width:15.35px;"/>
        </g>
        <g transform="matrix(0.950313,0,0,0.950313,174.441,250.075)">
            <rect x="70.103" y="90.371" width="90" height="90" style="fill:none;stroke:rgb(74,74,74);stroke-width:15.35px;"/>
        </g>
        <g transform="matrix(0.950313,0,0,0.950313,259.97,250.075)">
            <rect x="70.103" y="90.371" width="90" height="90" style="fill:none;stroke:rgb(74,74,74);stroke-width:15.35px;"/>
        </g>
        <g transform="matrix(0.950313,0,0,0.950313,174.441,164.547)">
            <rect x="70.103" y="90.371" width="90" height="90" style="fill:none;stroke:rgb(74,74,74);stroke-width:15.35px;"/>
        </g>
        <g transform="matrix(0.950313,0,0,0.950313,3.4832,250.075)">
            <rect x="70.103" y="90.371" width="90" height="90" style="fill:none;stroke:rgb(74,74,74);stroke-width:15.35px;"/>
        </g>
        <g transform="matrix(0.950313,0,0,0.950313,3.4832,-6.50977)">
            <rect x="70.103" y="90.371" width="90" height="90" style="fill:none;stroke:rgb(248,141,87);stroke-width:15.35px;"/>
        </g>
        <g transform="matrix(0.950313,0,0,0.950313,174.441,-6.50977)">
            <rect x="70.103" y="90.371" width="90" height="90" style="fill:none;stroke:rgb(248,141,87);stroke-width:15.35px;"/>
        </g>
        <g transform="matrix(0.950313,0,0,0.950313,259.97,-6.50977)">
            <rect x="70.103" y="90.371" width="90" height="90" style="fill:none;stroke:rgb(248,141,87);stroke-width:15.35px;"/>
        </g>
        <g transform="matrix(0.950313,0,0,0.950313,89.0114,-6.50977)">
            <rect x="70.103" y="90.371" width="90" height="90" style="fill:none;stroke:rgb(248,141,87);stroke-width:15.35px;"/>
        </g>
    </g>
</svg>
