<?xml version="1.0" encoding="UTF-8" standalone="no"?>
<!DOCTYPE svg PUBLIC "-//W3C//DTD SVG 1.1//EN" "http://www.w3.org/Graphics/SVG/1.1/DTD/svg11.dtd">
<svg width="100%" height="100%" viewBox="0 0 24 24" version="1.1" xmlns="http://www.w3.org/2000/svg" xmlns:xlink="http://www.w3.org/1999/xlink" xml:space="preserve" xmlns:serif="http://www.serif.com/" style="fill-rule:evenodd;clip-rule:evenodd;stroke-linecap:round;stroke-linejoin:round;stroke-miterlimit:1.5;">
    <g id="contagens" transform="matrix(0.048,0,0,0.048,0,0)">
        <rect x="46.716" y="65.923" width="188.667" height="188.667" style="fill:none;stroke:rgb(248,141,87);stroke-width:14.58px;"/>
        <g transform="matrix(1,0,0,1,0,188.667)">
            <rect x="46.716" y="65.923" width="188.667" height="188.667" style="fill:none;stroke:rgb(248,141,87);stroke-width:14.58px;"/>
        </g>
        <g transform="matrix(1,0,0,1,188.667,0)">
            <rect x="46.716" y="65.923" width="188.667" height="188.667" style="fill:none;stroke:rgb(248,141,87);stroke-width:14.58px;"/>
        </g>
        <g transform="matrix(1,0,0,1,188.667,188.667)">
            <rect x="46.716" y="65.923" width="188.667" height="188.667" style="fill:none;stroke:rgb(248,141,87);stroke-width:14.58px;"/>
        </g>
        <g transform="matrix(1,0,0,1,-3,4)">
            <path d="M144.05,113.256L144.05,199.256" style="fill:none;stroke:rgb(74,74,74);stroke-width:14.58px;"/>
            <g transform="matrix(6.12323e-17,1,-1,6.12323e-17,300.306,12.2067)">
                <path d="M144.05,113.256L144.05,199.256" style="fill:none;stroke:rgb(74,74,74);stroke-width:14.58px;"/>
            </g>
        </g>
        <g transform="matrix(1,0,0,1,-3,-5.33333)">
            <g transform="matrix(0.707107,0.707107,-0.707107,0.707107,152.681,141.908)">
                <path d="M144.05,113.256L144.05,199.256" style="fill:none;stroke:rgb(74,74,74);stroke-width:14.58px;"/>
            </g>
            <g transform="matrix(-0.707107,0.707107,-0.707107,-0.707107,356.398,362.888)">
                <path d="M144.05,113.256L144.05,199.256" style="fill:none;stroke:rgb(74,74,74);stroke-width:14.58px;"/>
            </g>
        </g>
        <g transform="matrix(6.12323e-17,1,-1,6.12323e-17,485.973,16.2067)">
            <path d="M144.05,113.256L144.05,199.256" style="fill:none;stroke:rgb(74,74,74);stroke-width:14.58px;"/>
        </g>
        <g transform="matrix(1,0,0,1,-8.33333,-4.66667)">
            <g transform="matrix(6.12323e-17,1,-1,6.12323e-17,494.306,186.207)">
                <path d="M144.05,113.256L144.05,199.256" style="fill:none;stroke:rgb(74,74,74);stroke-width:14.58px;"/>
            </g>
            <g transform="matrix(6.12323e-17,1,-1,6.12323e-17,494.306,232.873)">
                <path d="M144.05,113.256L144.05,199.256" style="fill:none;stroke:rgb(74,74,74);stroke-width:14.58px;"/>
            </g>
        </g>
    </g>
</svg>
