<?xml version="1.0" encoding="UTF-8" standalone="no"?>
<!DOCTYPE svg PUBLIC "-//W3C//DTD SVG 1.1//EN" "http://www.w3.org/Graphics/SVG/1.1/DTD/svg11.dtd">
<svg width="100%" height="100%" viewBox="0 0 24 24" version="1.1" xmlns="http://www.w3.org/2000/svg" xmlns:xlink="http://www.w3.org/1999/xlink" xml:space="preserve" xmlns:serif="http://www.serif.com/" style="fill-rule:evenodd;clip-rule:evenodd;stroke-linecap:round;stroke-linejoin:round;stroke-miterlimit:1.5;">
    <g id="etiquetagem" transform="matrix(0.048,0,0,0.048,0,0)">
        <g transform="matrix(1,0,0,1,6.66667,0)">
            <circle cx="384.418" cy="235.352" r="14.648" style="fill:rgb(248,141,87);"/>
        </g>
        <g transform="matrix(1,0,0,1,-0.999985,2.5)">
            <path d="M329.77,332.705L187.77,332.705" style="fill:none;stroke:rgb(248,141,87);stroke-width:14.58px;"/>
        </g>
        <g transform="matrix(1,0,0,1,-0.999985,71.5)">
            <path d="M329.77,332.705L187.77,332.705" style="fill:none;stroke:rgb(248,141,87);stroke-width:14.58px;"/>
        </g>
        <g transform="matrix(1,0,0,1,1.5378e-05,-1)">
            <rect x="145.77" y="294.705" width="224" height="152" style="fill:none;stroke:rgb(74,74,74);stroke-width:14.58px;"/>
        </g>
        <g transform="matrix(1,0,0,0.717105,1.5378e-05,-142.63)">
            <rect x="145.77" y="294.705" width="224" height="152" style="fill:none;stroke:rgb(74,74,74);stroke-width:16.76px;"/>
        </g>
        <path d="M430.57,177.705C441.167,177.705 449.77,186.308 449.77,196.905L449.77,350.505C449.77,361.101 441.167,369.705 430.57,369.705L369.77,369.705L369.77,293.704L145.77,293.704L145.77,369.705L84.97,369.705C74.373,369.705 65.77,361.101 65.77,350.505L65.77,196.905C65.77,186.308 74.373,177.705 84.97,177.705L430.57,177.705Z" style="fill:none;stroke:rgb(74,74,74);stroke-width:14.58px;"/>
    </g>
</svg>
