<?xml version="1.0" encoding="UTF-8" standalone="no"?>
<!DOCTYPE svg PUBLIC "-//W3C//DTD SVG 1.1//EN" "http://www.w3.org/Graphics/SVG/1.1/DTD/svg11.dtd">
<svg width="100%" height="100%" viewBox="0 0 24 24" version="1.1" xmlns="http://www.w3.org/2000/svg" xmlns:xlink="http://www.w3.org/1999/xlink" xml:space="preserve" xmlns:serif="http://www.serif.com/" style="fill-rule:evenodd;clip-rule:evenodd;stroke-linecap:round;stroke-linejoin:round;stroke-miterlimit:1.5;">
    <g id="extensibilidade" transform="matrix(0.048,0,0,0.048,0,0)">
        <rect x="46.383" y="148.173" width="101.827" height="101.827" style="fill:none;stroke:rgb(74,74,74);stroke-width:14.58px;"/>
        <g transform="matrix(1,0,0,1,0,101.827)">
            <rect x="46.383" y="148.173" width="101.827" height="101.827" style="fill:none;stroke:rgb(74,74,74);stroke-width:14.58px;"/>
        </g>
        <g transform="matrix(1,0,0,1,0,203.654)">
            <rect x="46.383" y="148.173" width="101.827" height="101.827" style="fill:none;stroke:rgb(74,74,74);stroke-width:14.58px;"/>
        </g>
        <g transform="matrix(1,0,0,1,101.79,101.827)">
            <rect x="46.383" y="148.173" width="101.827" height="101.827" style="fill:none;stroke:rgb(74,74,74);stroke-width:14.58px;"/>
        </g>
        <g transform="matrix(1,0,0,1,101.79,203.654)">
            <rect x="46.383" y="148.173" width="101.827" height="101.827" style="fill:none;stroke:rgb(74,74,74);stroke-width:14.58px;"/>
        </g>
        <g transform="matrix(1,0,0,1,203.617,203.654)">
            <rect x="46.383" y="148.173" width="101.827" height="101.827" style="fill:none;stroke:rgb(74,74,74);stroke-width:14.58px;"/>
        </g>
        <g transform="matrix(1,0,0,1,298.95,-98.3462)">
            <rect x="46.383" y="148.173" width="101.827" height="101.827" style="fill:none;stroke:rgb(248,141,87);stroke-width:14.58px;"/>
        </g>
        <g transform="matrix(0.755564,0.655075,-0.655075,0.755564,313.816,-92.5117)">
            <rect x="46.383" y="148.173" width="101.827" height="101.827" style="fill:none;stroke:rgb(248,141,87);stroke-width:14.58px;"/>
        </g>
        <g transform="matrix(0.407961,0.912999,-0.912999,0.407961,521.978,73.9488)">
            <rect x="46.383" y="148.173" width="101.827" height="101.827" style="fill:none;stroke:rgb(248,141,87);stroke-width:14.58px;"/>
        </g>
    </g>
</svg>
