<?xml version="1.0" encoding="UTF-8" standalone="no"?>
<!DOCTYPE svg PUBLIC "-//W3C//DTD SVG 1.1//EN" "http://www.w3.org/Graphics/SVG/1.1/DTD/svg11.dtd">
<svg width="100%" height="100%" viewBox="0 0 24 24" version="1.1" xmlns="http://www.w3.org/2000/svg" xmlns:xlink="http://www.w3.org/1999/xlink" xml:space="preserve" xmlns:serif="http://www.serif.com/" style="fill-rule:evenodd;clip-rule:evenodd;stroke-linecap:round;stroke-linejoin:round;stroke-miterlimit:1.5;">
    <g id="inqueritos" transform="matrix(0.048,0,0,0.048,0,0)">
        <path d="M326.103,162.371L347.103,183.371L387.103,143.371" style="fill:none;stroke:rgb(248,141,87);stroke-width:14.58px;"/>
        <rect x="38.103" y="75.371" width="407" height="337" style="fill:none;stroke:rgb(74,74,74);stroke-width:14.58px;"/>
        <g transform="matrix(1,0,0,1,0,1)">
            <path d="M111.103,162.371L271.103,162.371" style="fill:none;stroke:rgb(74,74,74);stroke-width:14.58px;"/>
        </g>
        <g transform="matrix(1,0,0,1,0,86.6288)">
            <path d="M326.103,162.371L347.103,183.371L387.103,143.371" style="fill:none;stroke:rgb(248,141,87);stroke-width:14.58px;"/>
        </g>
        <g transform="matrix(1,0,0,1,0,86.8144)">
            <path d="M111.103,162.371L271.103,162.371" style="fill:none;stroke:rgb(74,74,74);stroke-width:14.58px;"/>
        </g>
        <g transform="matrix(1,0,0,1,0,171.629)">
            <path d="M326.103,162.371L347.103,183.371L387.103,143.371" style="fill:none;stroke:rgb(248,141,87);stroke-width:14.58px;"/>
        </g>
        <g transform="matrix(1,0,0,1,0,172.629)">
            <path d="M111.103,162.371L271.103,162.371" style="fill:none;stroke:rgb(74,74,74);stroke-width:14.58px;"/>
        </g>
    </g>
</svg>
