<?xml version="1.0" encoding="UTF-8" standalone="no"?>
<!DOCTYPE svg PUBLIC "-//W3C//DTD SVG 1.1//EN" "http://www.w3.org/Graphics/SVG/1.1/DTD/svg11.dtd">
<svg width="100%" height="100%" viewBox="0 0 24 24" version="1.1" xmlns="http://www.w3.org/2000/svg" xmlns:xlink="http://www.w3.org/1999/xlink" xml:space="preserve" xmlns:serif="http://www.serif.com/" style="fill-rule:evenodd;clip-rule:evenodd;stroke-linecap:round;stroke-linejoin:round;stroke-miterlimit:1.5;">
    <g id="integracao" transform="matrix(0.048,0,0,0.048,0,0)">
        <g transform="matrix(0.707107,0.707107,-0.827844,0.827844,324.491,-96.4313)">
            <path d="M202.383,348.878L202.383,445.506" style="fill:none;stroke:rgb(248,141,87);stroke-width:13.39px;"/>
        </g>
        <g transform="matrix(0.707107,0.707107,-0.827844,0.827844,306.106,-114.716)">
            <path d="M202.383,348.878L202.383,445.506" style="fill:none;stroke:rgb(248,141,87);stroke-width:13.39px;"/>
        </g>
        <g transform="matrix(1,0,0,1,-2.55269,1.65141)">
            <path d="M163.05,161.506L335.383,333.84" style="fill:none;stroke:rgb(74,74,74);stroke-width:14.58px;"/>
        </g>
        <g transform="matrix(0.707107,-0.707107,0.707107,0.707107,-94.555,207.989)">
            <path d="M154.55,167.506L212.05,167.506L212.05,373.506L154.55,373.506C126.126,373.506 103.05,350.43 103.05,322.006L103.05,219.006C103.05,190.583 126.126,167.507 154.55,167.506Z" style="fill:none;stroke:rgb(74,74,74);stroke-width:14.58px;"/>
        </g>
        <g transform="matrix(-0.707107,-0.707107,0.827844,-0.827844,193.076,570.741)">
            <path d="M202.383,348.878L202.383,445.506" style="fill:none;stroke:rgb(248,141,87);stroke-width:13.39px;"/>
        </g>
        <g transform="matrix(-0.707107,-0.707107,0.827844,-0.827844,211.46,589.025)">
            <path d="M202.383,348.878L202.383,445.506" style="fill:none;stroke:rgb(248,141,87);stroke-width:13.39px;"/>
        </g>
        <g transform="matrix(-1,0,0,-1,520.119,472.658)">
            <path d="M163.05,161.506L335.383,333.84" style="fill:none;stroke:rgb(74,74,74);stroke-width:14.58px;"/>
        </g>
        <g transform="matrix(-0.707107,0.707107,-0.707107,-0.707107,612.122,266.32)">
            <path d="M154.55,167.506L212.05,167.506L212.05,373.506L154.55,373.506C126.126,373.506 103.05,350.43 103.05,322.006L103.05,219.006C103.05,190.583 126.126,167.507 154.55,167.506Z" style="fill:none;stroke:rgb(74,74,74);stroke-width:14.58px;"/>
        </g>
    </g>
</svg>
