<?xml version="1.0" encoding="UTF-8" standalone="no"?>
<!DOCTYPE svg PUBLIC "-//W3C//DTD SVG 1.1//EN" "http://www.w3.org/Graphics/SVG/1.1/DTD/svg11.dtd">
<svg width="100%" height="100%" viewBox="0 0 24 24" version="1.1" xmlns="http://www.w3.org/2000/svg" xmlns:xlink="http://www.w3.org/1999/xlink" xml:space="preserve" xmlns:serif="http://www.serif.com/" style="fill-rule:evenodd;clip-rule:evenodd;stroke-linecap:round;stroke-linejoin:round;stroke-miterlimit:1.5;">
    <g id="lotes" transform="matrix(0.048,0,0,0.048,0,0)">
        <g transform="matrix(1,0,0,1,21,-15.2045)">
            <path d="M174.688,292.705C174.539,303.513 166.688,310.705 166.688,310.705" style="fill:none;stroke:rgb(74,74,74);stroke-width:14.58px;"/>
            <path d="M320.188,299.705L320.188,219.705L368.188,299.705L368.188,219.705" style="fill:none;stroke:rgb(74,74,74);stroke-width:14.58px;"/>
            <path d="M96.188,268.205L127.188,268.205" style="fill:none;stroke:rgb(74,74,74);stroke-width:14.58px;"/>
            <g transform="matrix(1,0,0,1,-12.5,0)">
                <path d="M95.188,299.705L125.188,219.705L155.188,299.705" style="fill:none;stroke:rgb(74,74,74);stroke-width:14.58px;"/>
            </g>
            <g transform="matrix(1,0,0,1,153,0)">
                <path d="M96.188,268.205L127.188,268.205" style="fill:none;stroke:rgb(74,74,74);stroke-width:14.58px;"/>
            </g>
            <g transform="matrix(1,0,0,1,140.5,0)">
                <path d="M95.188,299.705L125.188,219.705L155.188,299.705" style="fill:none;stroke:rgb(74,74,74);stroke-width:14.58px;"/>
            </g>
        </g>
        <g transform="matrix(1,0,0,1,9,-5.2045)">
            <rect x="26.688" y="148.205" width="421.5" height="214" style="fill:none;stroke:rgb(248,141,87);stroke-width:14.58px;"/>
        </g>
    </g>
</svg>
