<?xml version="1.0" encoding="UTF-8" standalone="no"?>
<!DOCTYPE svg PUBLIC "-//W3C//DTD SVG 1.1//EN" "http://www.w3.org/Graphics/SVG/1.1/DTD/svg11.dtd">
<svg width="100%" height="100%" viewBox="0 0 24 24" version="1.1" xmlns="http://www.w3.org/2000/svg" xmlns:xlink="http://www.w3.org/1999/xlink" xml:space="preserve" xmlns:serif="http://www.serif.com/" style="fill-rule:evenodd;clip-rule:evenodd;stroke-linecap:round;stroke-linejoin:round;stroke-miterlimit:1.5;">
    <g transform="matrix(0.048,0,0,0.048,0,0)">
        <g transform="matrix(6.36736,0,0,6.36736,-476.91,-843.372)">
            <path d="M120.305,176.906L133.446,176.906" style="fill:none;stroke:rgb(74,74,74);stroke-width:2.29px;"/>
        </g>
        <g transform="matrix(6.36736,0,0,6.36736,-476.91,-843.372)">
            <path d="M144.363,176.906L148.78,176.906L148.78,162.739L140.613,150.906L130.613,150.906L130.613,168.406L97.613,168.406L97.613,176.906L100.28,176.906" style="fill:none;stroke:rgb(74,74,74);stroke-width:2.29px;"/>
        </g>
        <g transform="matrix(6.36736,0,0,6.36736,-476.91,-843.372)">
            <path d="M100.28,176.864C100.28,173.852 102.725,171.406 105.738,171.406C107.863,171.406 109.706,172.623 110.607,174.397" style="fill:none;stroke:rgb(74,74,74);stroke-width:2.29px;"/>
        </g>
        <g transform="matrix(6.36736,0,0,6.36736,-265.726,-843.372)">
            <circle cx="105.738" cy="176.864" r="5.458" style="fill:none;stroke:rgb(74,74,74);stroke-width:2.29px;"/>
        </g>
        <g transform="matrix(6.36736,0,0,6.36736,-476.91,-843.372)">
            <path d="M134.446,162.406L134.446,154.377L138.905,154.377L144.363,162.406L134.446,162.406Z" style="fill:none;stroke:rgb(248,141,87);stroke-width:2.29px;"/>
        </g>
        <g transform="matrix(7.21747,-1.93392,1.93392,7.21747,-1174.93,-1318.2)">
            <path d="M117.753,270.776L133.716,270.776L133.716,253.942L111.716,253.942L111.716,264.739" style="fill:none;stroke:rgb(74,74,74);stroke-width:1.95px;"/>
        </g>
        <g transform="matrix(7.21747,-1.93392,1.93392,7.21747,-1174.93,-1318.2)">
            <path d="M118.05,258.442L127.383,258.442" style="fill:none;stroke:rgb(248,141,87);stroke-width:1.95px;"/>
        </g>
        <g transform="matrix(4.30414,-2.07392e-16,2.07392e-16,4.30414,-250.636,-937.527)">
            <rect x="111.716" y="253.942" width="22" height="16.833" style="fill:none;stroke:rgb(74,74,74);stroke-width:3.39px;"/>
        </g>
        <g transform="matrix(4.30414,-2.07392e-16,2.07392e-16,4.30414,-250.636,-937.527)">
            <path d="M118.05,258.442L127.383,258.442" style="fill:none;stroke:rgb(248,141,87);stroke-width:3.39px;"/>
        </g>
        <g transform="matrix(1.07689,-0.288551,0.288551,1.07689,-86.9591,-41.3172)">
            <path d="M54.478,206.667L103.145,206.667L103.145,414.144" style="fill:none;stroke:rgb(74,74,74);stroke-width:14.58px;"/>
        </g>
        <g transform="matrix(1.07689,-0.288551,0.288551,1.07689,-86.9591,-41.3172)">
            <path d="M143.204,455.212L260.478,455.212" style="fill:none;stroke:rgb(74,74,74);stroke-width:14.58px;"/>
        </g>
        <g transform="matrix(1.07689,-0.288551,0.288551,1.07689,-87.216,-29.353)">
            <circle cx="105.552" cy="445.62" r="39.074" style="fill:none;stroke:rgb(74,74,74);stroke-width:14.58px;"/>
        </g>
    </g>
</svg>
