<?xml version="1.0" encoding="UTF-8" standalone="no"?>
<!DOCTYPE svg PUBLIC "-//W3C//DTD SVG 1.1//EN" "http://www.w3.org/Graphics/SVG/1.1/DTD/svg11.dtd">
<svg width="100%" height="100%" viewBox="0 0 24 24" version="1.1" xmlns="http://www.w3.org/2000/svg" xmlns:xlink="http://www.w3.org/1999/xlink" xml:space="preserve" xmlns:serif="http://www.serif.com/" style="fill-rule:evenodd;clip-rule:evenodd;stroke-linecap:round;stroke-linejoin:round;stroke-miterlimit:1.5;">
    <g id="packing" transform="matrix(0.048,0,0,0.048,0,0)">
        <g transform="matrix(1,0,0,1,7.03377,0)">
            <path d="M325.716,395.84L384.216,337.34" style="fill:none;stroke:rgb(74,74,74);stroke-width:14.58px;"/>
        </g>
        <g transform="matrix(-1,0,0,1,658.466,0)">
            <path d="M325.716,395.84L384.216,337.34" style="fill:none;stroke:rgb(74,74,74);stroke-width:14.58px;"/>
        </g>
        <g transform="matrix(1,0,0,1,7.03377,0)">
            <path d="M424.716,63.84C424.716,63.84 361.216,129.173 341.716,158.84C329.993,176.676 325.672,199.496 325.716,220.84C325.8,261.09 325.716,395.84 325.716,395.84" style="fill:none;stroke:rgb(74,74,74);stroke-width:14.58px;"/>
        </g>
        <g transform="matrix(-1,0,0,1,492.966,0)">
            <path d="M325.716,395.84L384.216,337.34" style="fill:none;stroke:rgb(74,74,74);stroke-width:14.58px;"/>
        </g>
        <g transform="matrix(1,0,0,1,-158.466,0)">
            <path d="M325.716,395.84L384.216,337.34" style="fill:none;stroke:rgb(74,74,74);stroke-width:14.58px;"/>
        </g>
        <g transform="matrix(-1,0,0,1,492.966,0)">
            <path d="M424.716,63.84C424.716,63.84 361.216,129.173 341.716,158.84C329.993,176.676 325.672,199.496 325.716,220.84C325.8,261.09 325.716,395.84 325.716,395.84" style="fill:none;stroke:rgb(74,74,74);stroke-width:14.58px;"/>
        </g>
        <path d="M393.216,208.84L441.716,208.84L441.716,465.84L41.716,465.84L41.716,208.84L90.216,208.84" style="fill:none;stroke:rgb(248,141,87);stroke-width:14.58px;"/>
    </g>
</svg>
