<?xml version="1.0" encoding="UTF-8" standalone="no"?>
<!DOCTYPE svg PUBLIC "-//W3C//DTD SVG 1.1//EN" "http://www.w3.org/Graphics/SVG/1.1/DTD/svg11.dtd">
<svg width="100%" height="100%" viewBox="0 0 24 24" version="1.1" xmlns="http://www.w3.org/2000/svg" xmlns:xlink="http://www.w3.org/1999/xlink" xml:space="preserve" xmlns:serif="http://www.serif.com/" style="fill-rule:evenodd;clip-rule:evenodd;stroke-linecap:round;stroke-linejoin:round;stroke-miterlimit:1.5;">
    <g id="quebras" transform="matrix(0.048,0,0,0.048,0,0)">
        <g transform="matrix(1,0,0,1,-3.66667,0)">
            <path d="M144.05,41.256L144.05,119.923" style="fill:none;stroke:rgb(74,74,74);stroke-width:14.58px;"/>
        </g>
        <g transform="matrix(1,0,0,1,57.3333,0)">
            <path d="M144.05,41.256L144.05,80.59" style="fill:none;stroke:rgb(74,74,74);stroke-width:14.58px;"/>
        </g>
        <g transform="matrix(-1,0,0,1,503.667,0)">
            <path d="M144.05,41.256L144.05,119.923" style="fill:none;stroke:rgb(74,74,74);stroke-width:14.58px;"/>
        </g>
        <g transform="matrix(-1,0,0,1,442.667,0)">
            <path d="M144.05,41.256L144.05,80.59" style="fill:none;stroke:rgb(74,74,74);stroke-width:14.58px;"/>
        </g>
        <path d="M120.383,162.59L250,107.923L379.617,162.59" style="fill:none;stroke:rgb(74,74,74);stroke-width:14.58px;"/>
        <g transform="matrix(1,0,0,1,-1,0)">
            <path d="M121.383,162.59L121.383,297.256L251,380.64L251,233.923L121.383,162.59Z" style="fill:none;stroke:rgb(74,74,74);stroke-width:14.58px;"/>
        </g>
        <g transform="matrix(-1,0,0,1,501,0)">
            <path d="M121.383,162.59L121.383,297.256L251,380.64L251,233.923L121.383,162.59Z" style="fill:none;stroke:rgb(74,74,74);stroke-width:14.58px;"/>
        </g>
        <path d="M109.383,337.256L50.05,371.256L120.716,377.256L114.716,442.59L194.716,389.923L250,449.923" style="fill:none;stroke:rgb(248,141,87);stroke-width:14.58px;"/>
        <g transform="matrix(-1,0,0,1,500,0)">
            <path d="M109.383,337.256L50.05,371.256L120.716,377.256L114.716,442.59L194.716,389.923L250,449.923" style="fill:none;stroke:rgb(248,141,87);stroke-width:14.58px;"/>
        </g>
    </g>
</svg>
