<?xml version="1.0" encoding="UTF-8" standalone="no"?>
<!DOCTYPE svg PUBLIC "-//W3C//DTD SVG 1.1//EN" "http://www.w3.org/Graphics/SVG/1.1/DTD/svg11.dtd">
<svg width="100%" height="100%" viewBox="0 0 24 24" version="1.1" xmlns="http://www.w3.org/2000/svg" xmlns:xlink="http://www.w3.org/1999/xlink" xml:space="preserve" xmlns:serif="http://www.serif.com/" style="fill-rule:evenodd;clip-rule:evenodd;stroke-linecap:round;stroke-linejoin:round;stroke-miterlimit:1.5;">
    <g transform="matrix(0.0367664,0.0367664,-0.0332298,0.0332298,11.4701,-4.03277)">
        <path d="M278.343,346.985C269.561,352.565 259.659,355.705 249.188,355.705C213.037,355.705 183.688,318.289 183.688,272.205C183.688,226.12 213.037,188.705 249.188,188.705C260.534,188.705 271.211,192.391 280.521,198.874" style="fill:none;stroke:rgb(74,74,74);stroke-width:14.58px;"/>
    </g>
    <g transform="matrix(0.0339411,0.0339411,-0.0339411,0.0339411,12.3439,-3.59712)">
        <path d="M153.504,256.705L272.688,256.705" style="fill:none;stroke:rgb(74,74,74);stroke-width:14.58px;"/>
    </g>
    <g transform="matrix(0.0339411,0.0339411,-0.0339411,0.0339411,11.2747,-2.52797)">
        <path d="M153.504,256.705L272.688,256.705" style="fill:none;stroke:rgb(74,74,74);stroke-width:14.58px;"/>
    </g>
    <g transform="matrix(0.048,0,0,0.048,0.499417,0.0874932)">
        <circle cx="347.688" cy="146.705" r="27" style="fill:none;stroke:rgb(248,141,87);stroke-width:14.58px;"/>
    </g>
    <g transform="matrix(0.0270824,0.0270824,-0.0280161,0.0280161,12.7651,-1.10499)">
        <path d="M381.688,106.011C381.688,106.011 288.149,15.628 251.291,-20.001C238.712,-32.16 227.429,-30.585 214.85,-18.425C176.758,18.397 85.688,106.011 85.688,106.011L85.688,450.898C85.688,458.794 92.319,465.204 100.488,465.204L366.888,465.204C375.056,465.204 381.688,458.794 381.688,450.898L381.688,106.011Z" style="fill:none;stroke:rgb(248,141,87);stroke-width:17.96px;"/>
    </g>
</svg>
